<?xml version="1.0" encoding="utf-8"?>
<!-- Generator: Adobe Illustrator 24.2.0, SVG Export Plug-In . SVG Version: 6.00 Build 0)  -->
<svg version="1.1" id="圖層_1" xmlns="http://www.w3.org/2000/svg" xmlns:xlink="http://www.w3.org/1999/xlink" x="0px" y="0px"
	 viewBox="0 0 436.2 436.2" style="enable-background:new 0 0 436.2 436.2;" xml:space="preserve">
<style type="text/css">
	.st0{fill:#2EB9FF;}
	.st1{fill:#527BFF;}
	.st2{fill:#FFFFFF;}
</style>
<g>
	<g>
		<g>
			<g>
				<g>
					<path class="st0" d="M218.1,218.1l-37.9,214.8C61.6,412-17.6,298.8,3.3,180.2C21.8,75.4,111.7,0,218.1,0V218.1z"/>
				</g>
			</g>
			<g>
				<g>
					<path class="st1" d="M218.1,218.1V0c120.4,0,218.1,97.6,218.1,218.1s-97.6,218.1-218.1,218.1c-14,0-24.1-0.9-37.9-3.3
						L218.1,218.1z"/>
				</g>
			</g>
		</g>
	</g>
	<g>
		<path class="st2" d="M279.2,212.8c-1.3,4.7-3.1,8.4-5.6,11.3c4.2,2,8.1,4,10.9,5.7l-3.3,4.1c-2.8-1.8-6.7-4.1-11.1-6.3
			c-3.9,2.9-8.9,4.8-15.4,6.1c-0.5-1.3-1.5-3.1-2.6-4.2c5.5-0.9,9.8-2.3,13.1-4.3c-3-1.4-6-2.8-9-4c1.3-2.4,2.7-5.3,4.1-8.5h-7.6
			v-4.6h9.4c1-2.8,1.9-5.6,2.6-8.2l4.6,0.6c-0.6,2.4-1.3,5-2.2,7.6h8.4c0.2-1.1,0.4-2.3,0.6-3.5l4.6,1.1c-0.1,0.8-0.3,1.7-0.4,2.4
			h4.4v4.6L279.2,212.8L279.2,212.8z M265.3,212.8c-0.9,2.3-1.8,4.5-2.7,6.4c2.2,0.9,4.4,1.9,6.4,2.8c2.3-2.3,3.9-5.4,5.1-9.2H265.3
			z"/>
		<path class="st2" d="M287.5,227.6l2.4-3.4c1.5,1.5,3.4,2.7,5.9,2.7c2.8,0,4.7-1.6,4.7-4.5s-1.8-4.5-4.5-4.5c-1.6,0-2.4,0.4-4,1.4
			l-2.4-1.5l0.7-13h14.3v4.4h-9.7l-0.5,5.7c1.1-0.5,2-0.7,3.2-0.7c4.5,0,8.2,2.5,8.2,8.1c0,5.7-4.4,9-9.3,9
			C292.3,231.3,289.5,229.6,287.5,227.6z"/>
		<path class="st2" d="M309.3,227.7c6.9-6.6,11.5-11.2,11.5-15c0-2.6-1.4-4.2-4-4.2c-1.9,0-3.5,1.3-4.9,2.8l-2.9-2.9
			c2.4-2.6,4.8-4.1,8.5-4.1c5,0,8.4,3.2,8.4,8.1c0,4.5-4.2,9.2-8.9,14.2c1.3-0.1,3.1-0.3,4.4-0.3h5.8v4.5h-17.9V227.7z"/>
		<path class="st2" d="M331.5,227.8c0-2,1.4-3.5,3.3-3.5c1.9,0,3.3,1.5,3.3,3.5c0,1.9-1.4,3.5-3.3,3.5
			C333,231.3,331.5,229.7,331.5,227.8z"/>
		<path class="st2" d="M342.6,228.2l2.8-3.2c0.9,1.1,2.6,1.9,4.1,1.9c3.1,0,5.6-2.2,5.8-8.9c-1.5,1.8-3.7,2.9-5.5,2.9
			c-4.5,0-7.7-2.6-7.7-8c0-5.3,3.8-8.6,8.4-8.6c5,0,9.6,3.9,9.6,12.8c0,9.9-4.9,14.2-10.3,14.2C346.5,231.3,344.1,229.8,342.6,228.2
			z M350.8,217.1c1.4,0,3.1-0.8,4.3-2.8c-0.5-4.4-2.3-6-4.5-6c-2,0-3.6,1.5-3.6,4.6C347,215.8,348.5,217.1,350.8,217.1z"/>
		<path class="st2" d="M363,212c0-5.3,2.7-8.4,6.5-8.4c3.8,0,6.5,3.1,6.5,8.4c0,5.4-2.7,8.5-6.5,8.5C365.7,220.5,363,217.4,363,212z
			 M372.3,212c0-3.9-1.2-5.4-2.8-5.4s-2.7,1.5-2.7,5.4s1.2,5.5,2.7,5.5S372.3,215.9,372.3,212z M384.9,203.6h3.1l-14.5,27.6h-3.1
			L384.9,203.6z M382.4,222.8c0-5.4,2.7-8.4,6.5-8.4c3.8,0,6.5,3.1,6.5,8.4c0,5.3-2.7,8.5-6.5,8.5
			C385.1,231.3,382.4,228.1,382.4,222.8z M391.7,222.8c0-3.9-1.2-5.4-2.8-5.4s-2.7,1.5-2.7,5.4s1.2,5.5,2.7,5.5
			S391.7,226.7,391.7,222.8z"/>
	</g>
	<g>
		<path class="st2" d="M80,219.9c0,0-0.1,1.2-0.1,1.7c-0.6,6.6-1.3,9.5-2.4,10.7c-1,1-2.1,1.3-3.6,1.4c-1.3,0.1-3.5,0.1-5.7,0
			c-0.1-1.2-0.6-2.8-1.4-3.9c2.2,0.2,4.5,0.2,5.5,0.2c0.8,0,1.2,0,1.6-0.4c0.6-0.5,1.2-2.3,1.6-5.9H66c-1.8,4.6-5.6,8.1-14.7,10.1
			c-0.3-1.1-1.4-2.8-2.2-3.7c7-1.4,10.4-3.5,12.1-6.4H50.7v-3.9h11.9c0.1-0.8,0.3-1.6,0.4-2.5h-9.9V202h25.6v15.4H67.2
			c-0.1,0.9-0.3,1.7-0.4,2.5H80z M57.1,208h6.3v-2.5h-6.3V208z M57.1,213.9h6.3v-2.5h-6.3V213.9z M74.2,205.6h-6.4v2.5h6.4V205.6z
			 M74.2,211.3h-6.4v2.5h6.4V211.3z"/>
		<path class="st2" d="M95.9,224.3H84.5v-3.6l9.9-15.9h6.4v15.4h3.1v4.1h-3.1v6.4h-4.9V224.3z M95.9,220.2V215c0-1.5,0.1-4,0.2-5.5
			H96c-0.6,1.4-1.4,2.7-2.1,4.2l-4.1,6.6h6.1V220.2z"/>
		<path class="st2" d="M118.8,209.2h-12v-4.4h17.7v3.2c-6,7.4-7,12.6-7.5,22.7h-5.3C112.2,221.8,113.8,216.1,118.8,209.2z"/>
		<path class="st2" d="M128.7,227.8c0-2,1.4-3.5,3.3-3.5s3.3,1.5,3.3,3.5c0,1.9-1.4,3.5-3.3,3.5
			C130.2,231.3,128.7,229.7,128.7,227.8z"/>
		<path class="st2" d="M140.8,226.5h5.7v-16.2h-4.8V207c2.7-0.5,4.5-1.2,6.2-2.2h3.9v21.7h5v4.3h-16V226.5z"/>
		<path class="st2" d="M160.2,212c0-5.3,2.7-8.4,6.5-8.4s6.5,3.1,6.5,8.4c0,5.4-2.7,8.5-6.5,8.5S160.2,217.4,160.2,212z M169.5,212
			c0-3.9-1.2-5.4-2.8-5.4s-2.7,1.5-2.7,5.4s1.2,5.5,2.7,5.5S169.5,215.9,169.5,212z M182.1,203.6h3.1l-14.5,27.6h-3.1L182.1,203.6z
			 M179.6,222.8c0-5.4,2.7-8.4,6.5-8.4s6.5,3.1,6.5,8.4c0,5.3-2.7,8.5-6.5,8.5S179.6,228.1,179.6,222.8z M188.9,222.8
			c0-3.9-1.2-5.4-2.8-5.4s-2.7,1.5-2.7,5.4s1.2,5.5,2.7,5.5S188.9,226.7,188.9,222.8z"/>
	</g>
</g>
<g>
	<g>
		<g>
			<g>
				<g>
					<path class="st0" d="M218.1,722.1l-37.9,214.8C61.6,916-17.6,802.8,3.3,684.2C21.8,579.4,111.7,504,218.1,504V722.1z"/>
				</g>
			</g>
			<g>
				<g>
					<path class="st1" d="M218.1,722.1V504c120.4,0,218.1,97.6,218.1,218.1s-97.6,218.1-218.1,218.1c-14,0-24.1-0.9-37.9-3.3
						L218.1,722.1z"/>
				</g>
			</g>
		</g>
	</g>
	
		<text transform="matrix(1 0 0 1 256.0867 734.7481)" class="st2" style="font-family:'SourceHanSansTW-Bold-B5pc-H'; font-size:36px;">女52.9%</text>
	
		<text transform="matrix(1 0 0 1 27.0866 734.7481)" class="st2" style="font-family:'SourceHanSansTW-Bold-B5pc-H'; font-size:36px;">男47.1%</text>
</g>
</svg>
