<?xml version="1.0" encoding="utf-8"?>
<!-- Generator: Adobe Illustrator 24.1.3, SVG Export Plug-In . SVG Version: 6.00 Build 0)  -->
<svg version="1.1" id="圖層_1" xmlns="http://www.w3.org/2000/svg" xmlns:xlink="http://www.w3.org/1999/xlink" x="0px" y="0px"
	 viewBox="0 0 542 394.9" style="enable-background:new 0 0 542 394.9;" xml:space="preserve">
<style type="text/css">
	.st0{fill:none;stroke:#CCCCCC;stroke-width:2;stroke-miterlimit:10;}
	.st1{fill:#527BFF;}
	.st2{fill:#2EB9FF;}
	.st3{enable-background:new    ;}
	.st4{fill:#1C1C1C;}
</style>
<g>
	
		<text transform="matrix(1 0 0 1 31.4624 675.6699)" class="st4" style="font-family:'SourceHanSansTW-Bold-B5pc-H'; font-size:36px;">19%</text>
	
		<text transform="matrix(1 0 0 1 168.1625 543.7903)" class="st4" style="font-family:'SourceHanSansTW-Bold-B5pc-H'; font-size:36px;">57%</text>
	
		<text transform="matrix(1 0 0 1 304.7624 649.6802)" class="st4" style="font-family:'SourceHanSansTW-Bold-B5pc-H'; font-size:36px;">22%</text>
	
		<text transform="matrix(1 0 0 1 452.0648 777.6802)" class="st4" style="font-family:'SourceHanSansTW-Bold-B5pc-H'; font-size:36px;">2%</text>
	
		<text transform="matrix(0.7071 -0.7071 0.7071 0.7071 13.0977 904.9885)" class="st4" style="font-family:'SourceHanSansTW-Bold-B5pc-H'; font-size:24px;">19歲以下</text>
	
		<text transform="matrix(0.7071 -0.7071 0.7071 0.7071 295.5808 897.3174)" class="st4" style="font-family:'SourceHanSansTW-Bold-B5pc-H'; font-size:24px;">40-59歲</text>
	
		<text transform="matrix(0.7071 -0.7071 0.7071 0.7071 438.0682 904.9885)" class="st4" style="font-family:'SourceHanSansTW-Bold-B5pc-H'; font-size:24px;">60歲以上</text>
	
		<text transform="matrix(0.7071 -0.7071 0.7071 0.7071 149.2573 897.3174)" class="st4" style="font-family:'SourceHanSansTW-Bold-B5pc-H'; font-size:24px;">20-39歲</text>
	<line class="st0" x1="0" y1="800.9" x2="542" y2="800.9"/>
	<rect x="41" y="685.9" class="st1" width="58" height="113"/>
	<rect x="177.7" y="554" class="st2" width="58" height="244.9"/>
	<rect x="314.3" y="658.9" class="st1" width="58" height="140"/>
	<rect x="451" y="789.9" class="st1" width="58" height="9"/>
</g>
<g>
	<g class="st3">
		<path class="st4" d="M34.4,159.3h5.7v-16.2h-4.8v-3.3c2.7-0.5,4.5-1.2,6.2-2.2h3.9v21.7h5v4.3h-16V159.3z"/>
		<path class="st4" d="M54.5,161l2.8-3.2c0.9,1.1,2.6,1.9,4.1,1.9c3.1,0,5.6-2.2,5.8-8.9c-1.5,1.8-3.7,2.9-5.5,2.9
			c-4.5,0-7.7-2.6-7.7-8c0-5.3,3.8-8.6,8.4-8.6c5,0,9.6,3.9,9.6,12.8c0,9.9-4.9,14.2-10.3,14.2C58.5,164.1,56.1,162.7,54.5,161z
			 M62.8,150c1.4,0,3.1-0.8,4.3-2.8c-0.5-4.4-2.3-6-4.5-6c-2,0-3.6,1.5-3.6,4.6C59,148.6,60.4,150,62.8,150z"/>
		<path class="st4" d="M75,144.8c0-5.3,2.7-8.4,6.5-8.4c3.8,0,6.5,3.1,6.5,8.4c0,5.4-2.7,8.5-6.5,8.5C77.7,153.3,75,150.2,75,144.8z
			 M84.3,144.8c0-3.9-1.2-5.4-2.8-5.4s-2.7,1.5-2.7,5.4c0,3.9,1.2,5.5,2.7,5.5S84.3,148.7,84.3,144.8z M96.9,136.4h3.1l-14.5,27.6
			h-3.1L96.9,136.4z M94.4,155.6c0-5.4,2.7-8.4,6.5-8.4c3.8,0,6.5,3.1,6.5,8.4c0,5.3-2.7,8.5-6.5,8.5
			C97.1,164.1,94.4,160.9,94.4,155.6z M103.6,155.6c0-3.9-1.2-5.4-2.8-5.4s-2.7,1.5-2.7,5.4c0,3.9,1.2,5.5,2.7,5.5
			S103.6,159.5,103.6,155.6z"/>
	</g>
	<g class="st3">
		<path class="st4" d="M169.1,28.5l2.4-3.4c1.5,1.5,3.4,2.7,5.9,2.7c2.8,0,4.7-1.6,4.7-4.5c0-2.9-1.8-4.5-4.5-4.5
			c-1.6,0-2.4,0.4-4,1.4l-2.4-1.5l0.7-13h14.3v4.4h-9.7l-0.5,5.7c1.1-0.5,2-0.7,3.2-0.7c4.5,0,8.2,2.5,8.2,8.1c0,5.7-4.4,9-9.3,9
			C173.9,32.2,171.1,30.5,169.1,28.5z"/>
		<path class="st4" d="M203.2,10.2h-12V5.7h17.7V9c-6,7.4-7,12.6-7.5,22.7h-5.4C196.5,22.7,198.2,17.1,203.2,10.2z"/>
		<path class="st4" d="M211.7,12.9c0-5.3,2.7-8.4,6.5-8.4c3.8,0,6.5,3.1,6.5,8.4c0,5.4-2.7,8.5-6.5,8.5
			C214.4,21.4,211.7,18.3,211.7,12.9z M221,12.9c0-3.9-1.2-5.4-2.8-5.4s-2.7,1.5-2.7,5.4c0,3.9,1.2,5.5,2.7,5.5S221,16.8,221,12.9z
			 M233.6,4.5h3.1l-14.5,27.6h-3.1L233.6,4.5z M231.1,23.7c0-5.4,2.7-8.4,6.5-8.4c3.8,0,6.5,3.1,6.5,8.4c0,5.3-2.7,8.5-6.5,8.5
			C233.8,32.2,231.1,29,231.1,23.7z M240.3,23.7c0-3.9-1.2-5.4-2.8-5.4s-2.7,1.5-2.7,5.4c0,3.9,1.2,5.5,2.7,5.5
			S240.3,27.6,240.3,23.7z"/>
	</g>
	<g class="st3">
		<path class="st4" d="M306.3,134.5c6.9-6.6,11.5-11.2,11.5-15c0-2.6-1.4-4.2-4-4.2c-1.9,0-3.5,1.3-4.9,2.8l-2.9-2.9
			c2.4-2.6,4.8-4.1,8.5-4.1c5,0,8.4,3.2,8.4,8.1c0,4.5-4.2,9.2-8.9,14.2c1.3-0.1,3.1-0.3,4.4-0.3h5.8v4.5h-17.9V134.5z"/>
		<path class="st4" d="M327.5,134.5c6.9-6.6,11.5-11.2,11.5-15c0-2.6-1.4-4.2-4-4.2c-1.9,0-3.5,1.3-4.9,2.8l-2.9-2.9
			c2.4-2.6,4.8-4.1,8.5-4.1c5,0,8.4,3.2,8.4,8.1c0,4.5-4.2,9.2-8.9,14.2c1.3-0.1,3.1-0.3,4.4-0.3h5.8v4.5h-17.9V134.5z"/>
		<path class="st4" d="M348.3,118.8c0-5.3,2.7-8.4,6.5-8.4c3.8,0,6.5,3.1,6.5,8.4c0,5.4-2.7,8.5-6.5,8.5
			C351,127.3,348.3,124.2,348.3,118.8z M357.6,118.8c0-3.9-1.2-5.4-2.8-5.4s-2.7,1.5-2.7,5.4c0,3.9,1.2,5.5,2.7,5.5
			S357.6,122.7,357.6,118.8z M370.2,110.4h3.1l-14.5,27.6h-3.1L370.2,110.4z M367.7,129.6c0-5.4,2.7-8.4,6.5-8.4s6.5,3.1,6.5,8.4
			c0,5.3-2.7,8.5-6.5,8.5S367.7,134.9,367.7,129.6z M376.9,129.6c0-3.9-1.2-5.4-2.8-5.4s-2.7,1.5-2.7,5.4c0,3.9,1.2,5.5,2.7,5.5
			S376.9,133.5,376.9,129.6z"/>
	</g>
	<g class="st3">
		<path class="st4" d="M453.6,262.5c6.9-6.6,11.5-11.2,11.5-15c0-2.6-1.4-4.2-4-4.2c-1.9,0-3.5,1.3-4.9,2.8l-2.9-2.9
			c2.4-2.6,4.8-4.1,8.5-4.1c5,0,8.4,3.2,8.4,8.1c0,4.5-4.2,9.2-8.9,14.2c1.3-0.1,3.1-0.3,4.4-0.3h5.8v4.5h-17.9V262.5z"/>
		<path class="st4" d="M474.4,246.8c0-5.3,2.7-8.4,6.5-8.4c3.8,0,6.5,3.1,6.5,8.4c0,5.4-2.7,8.5-6.5,8.5
			C477.1,255.3,474.4,252.2,474.4,246.8z M483.7,246.8c0-3.9-1.2-5.4-2.8-5.4s-2.7,1.5-2.7,5.4c0,3.9,1.2,5.5,2.7,5.5
			S483.7,250.7,483.7,246.8z M496.3,238.4h3.1l-14.5,27.6h-3.1L496.3,238.4z M493.8,257.6c0-5.4,2.7-8.4,6.5-8.4s6.5,3.1,6.5,8.4
			c0,5.3-2.7,8.5-6.5,8.5S493.8,262.9,493.8,257.6z M503,257.6c0-3.9-1.2-5.4-2.8-5.4s-2.7,1.5-2.7,5.4c0,3.9,1.2,5.5,2.7,5.5
			S503,261.5,503,257.6z"/>
	</g>
	<g class="st3">
		<path class="st4" d="M12.5,389.5l2.7-2.7l-7.6-7.6l-2.3,2.3l-1.5-1.5c1-1.5,1.6-2.7,1.9-4l1.8-1.8l10.2,10.2l2.4-2.4l2,2l-7.6,7.6
			L12.5,389.5z"/>
		<path class="st4" d="M22.8,380.8l-0.2-2.8c1,0.1,2.1-0.3,2.8-1c1.4-1.4,1.6-3.7-1.5-6.9c0.2,1.6-0.4,3.1-1.2,4
			c-2.1,2.1-4.8,2.4-7.4-0.2c-2.5-2.5-2.3-5.9-0.1-8c2.4-2.4,6.3-2.7,10.5,1.5c4.7,4.7,4.4,9,1.8,11.5
			C26.1,380.4,24.3,380.8,22.8,380.8z M21.4,371.7c0.7-0.7,1.1-1.8,0.7-3.4c-2.3-1.8-3.9-1.7-5-0.7c-0.9,0.9-1,2.4,0.5,3.9
			C19,372.9,20.3,372.8,21.4,371.7z"/>
		<path class="st4" d="M42.5,352.2c1,2,1.6,4.1,1.9,6.1c1.2,0.4,2.2,0.4,2.6,0c0.4-0.4-0.2-1.1-1.5-2.7c0.7-0.1,1.7-0.3,2.3-0.6
			c2.2,2.7,2.2,3.9,0.8,5.2c-1,1-2.4,1.2-4.1,0.8c0,1.4-0.2,2.8-0.5,4.1c-0.6-0.1-2-0.1-2.7,0c0.5-1.6,0.8-3.3,0.7-5
			c-1.7-0.8-3.6-2-5.5-3.5l-6.2,6.2l1.3,1.3c0.9,0.9,2,2.1,3,3.4c-0.1-1.1-0.4-2.2-1-3.2l1.7-1.1c0.8,1.4,1.3,3,1.3,4.3
			c-0.4,0-1.2,0.2-1.7,0.3c1,1.4,1.7,2.9,2,4.4c-0.6,0.1-2,0.4-2.6,0.7c-0.5-2.9-2.8-5.4-4.5-7.1l-2.9-2.9l7.9-7.9
			c-0.4-0.3-0.7-0.6-1.1-1l-8.7,8.7l-1.7-1.7l2.5-2.5l-2.8-2.8l1.9-1.9l2.8,2.8l2.4-2.4l-3.5-3.5l2-2l1.2,1.2l4.9-4.9l1.5,1.5
			l-4.9,4.9l0.9,0.9l6.3-6.3l1.7,1.7l-2,2c0.5-0.1,0.9-0.2,1.2-0.2l0,1.1l1.6-1.6l1.6,1.6l-4.2,4.2c1.2,0.9,2.3,1.6,3.3,2.2
			c-0.3-1.1-0.7-2.2-1.3-3.3L42.5,352.2z M39.4,359.2c1.6,3.2,1.5,7.1-0.5,10.8c-0.5-0.1-1.4-0.3-2-0.3c1-1.7,1.5-3.4,1.6-5
			l-0.8,0.8l-3.1-3.1l-1.8,1.8l-1.4-1.4l5.1-5.1l1.4,1.4l-1.7,1.7l2.2,2.2c-0.1-0.9-0.4-1.7-0.8-2.5L39.4,359.2z M35.3,352.3
			c0.4,0.3,0.7,0.7,1.1,1l1.7-1.7c-0.6,0.1-1.4,0.3-2,0.5l0-0.6L35.3,352.3z"/>
		<path class="st4" d="M54.6,344.8c-1.2,3.2-2.7,6.8-3.8,9.5l-2.8-1.5c0.4-0.9,0.9-1.9,1.4-3.1l-10.3-9.6l2-2.2l9.5,8.9
			c0.5-1.2,1-2.4,1.5-3.6L54.6,344.8z M51.3,340.2c-1.6-0.7-4.5-1.4-6.7-1.7l0.9-2.8c2.3,0.1,5.1,0.7,6.8,1.4L51.3,340.2z
			 M66.4,342.5c-1.7-0.5-4.6-0.7-7.3-0.9c0.5,3,0.2,6-1,9.3c-0.7-0.2-2.5-0.2-3.4-0.2c3.3-7.4,1-13.3-5.4-20.9l2.4-2
			c3.1,3.8,5.3,7.3,6.6,10.7c2.9,0.1,6.2,0.2,8.1,0.6L66.4,342.5z"/>
		<path class="st4" d="M65.2,318.6l2.7,2.7l-0.1-0.7c2.8-0.9,6.9-2.1,9.2-2.4l0.4,3.3c-1.8,0.1-5,0.8-7.7,1.5l8.1,8.1l-2.2,2.2
			L63,320.8l-6.1,6.1l-2-2l15.1-15.1l2,2L65.2,318.6z"/>
	</g>
	<g class="st3">
		<path class="st4" d="M298.3,376.5l-5.4,5.4l-1.7-1.7l-2.8-12.2l3-3l7.3,7.3l1.5-1.5l1.9,1.9l-1.5,1.5l3,3l-2.3,2.3L298.3,376.5z
			 M296.3,374.5l-2.4-2.4c-0.7-0.7-1.8-1.9-2.5-2.7l-0.1,0.1c0.4,1,0.6,1.9,1,3l1.1,5L296.3,374.5z"/>
		<path class="st4" d="M300.1,368.3c-4.1-4.1-4.6-8-2-10.6c2.6-2.6,6.4-2.1,10.5,2.1c4.2,4.2,4.8,8.1,2.2,10.7
			C308.2,373,304.3,372.4,300.1,368.3z M306.3,362.1c-3.4-3.4-5.1-3.5-6.2-2.5c-1.1,1.1-1,2.9,2.4,6.2c3.4,3.4,5.3,3.6,6.4,2.6
			S309.7,365.6,306.3,362.1z"/>
		<path class="st4" d="M310.6,358.6l4.6-4.6l1.8,1.8l-4.6,4.6L310.6,358.6z"/>
		<path class="st4" d="M320.8,357l-0.4-2.8c1.4,0,2.9-0.3,4-1.5c1.3-1.3,1.5-3,0.1-4.4c-1.4-1.4-3-1.3-4.2,0c-0.7,0.7-1,1.3-1.2,2.5
			l-1.9,0.4l-5.8-6.4l6.7-6.7l2.1,2.1l-4.6,4.6l2.4,2.9c0.3-0.7,0.6-1.3,1.2-1.8c2.1-2.1,5.1-2.7,7.7-0.1c2.7,2.7,2.2,6.3-0.1,8.7
			C324.8,356.5,322.7,357,320.8,357z"/>
		<path class="st4" d="M331.5,346.9l-0.2-2.8c1,0.1,2.1-0.3,2.8-1c1.4-1.4,1.6-3.7-1.5-6.9c0.2,1.6-0.4,3.1-1.2,4
			c-2.1,2.1-4.8,2.4-7.4-0.2c-2.5-2.5-2.3-5.9-0.1-8c2.4-2.4,6.3-2.7,10.5,1.5c4.7,4.7,4.4,9,1.8,11.5
			C334.8,346.4,333,346.9,331.5,346.9z M330.2,337.8c0.7-0.7,1.1-1.8,0.7-3.4c-2.3-1.8-3.9-1.7-5-0.7c-0.9,0.9-1,2.4,0.5,3.9
			C327.8,338.9,329.1,338.9,330.2,337.8z"/>
		<path class="st4" d="M351.2,318.3c1,2,1.6,4.1,1.9,6.1c1.2,0.4,2.2,0.4,2.6,0c0.4-0.4-0.2-1.1-1.5-2.7c0.7-0.1,1.7-0.3,2.3-0.6
			c2.2,2.7,2.2,3.9,0.8,5.2c-1,1-2.4,1.2-4.1,0.8c0,1.4-0.2,2.8-0.5,4.1c-0.6-0.1-2-0.1-2.7,0c0.5-1.6,0.8-3.3,0.7-5
			c-1.7-0.8-3.6-2-5.5-3.5l-6.2,6.2l1.3,1.3c0.9,0.9,2,2.1,3,3.4c-0.1-1.1-0.4-2.2-1-3.2l1.7-1.1c0.8,1.4,1.3,3,1.3,4.3
			c-0.4,0-1.2,0.2-1.7,0.3c1,1.4,1.7,2.9,2,4.4c-0.6,0.1-2,0.4-2.6,0.7c-0.5-2.9-2.8-5.4-4.5-7.1l-2.9-2.9l7.9-7.9
			c-0.4-0.3-0.7-0.6-1.1-1l-8.7,8.7l-1.7-1.7l2.5-2.5l-2.8-2.8l1.9-1.9l2.8,2.8l2.4-2.4l-3.5-3.5l2-2l1.2,1.2l4.9-4.9l1.5,1.5
			l-4.9,4.9l0.9,0.9l6.3-6.3l1.7,1.7l-2,2c0.5-0.1,0.9-0.2,1.2-0.2l0,1.1l1.6-1.6l1.6,1.6l-4.2,4.2c1.2,0.9,2.3,1.6,3.3,2.2
			c-0.3-1.1-0.7-2.2-1.3-3.3L351.2,318.3z M348.2,325.2c1.6,3.2,1.5,7.1-0.5,10.8c-0.5-0.1-1.4-0.3-2-0.3c1-1.7,1.5-3.4,1.6-5
			l-0.8,0.8l-3.1-3.1l-1.8,1.8l-1.4-1.4l5.1-5.1l1.4,1.4l-1.7,1.7l2.2,2.2c-0.1-0.9-0.4-1.7-0.8-2.5L348.2,325.2z M344.1,318.3
			c0.4,0.3,0.7,0.7,1.1,1l1.7-1.7c-0.6,0.1-1.4,0.3-2,0.5l0-0.6L344.1,318.3z"/>
	</g>
	<g class="st3">
		<path class="st4" d="M433.1,386.3c-4.7-4.7-4.4-9-1.8-11.6c1.5-1.5,3.3-2,4.8-2l0.2,2.8c-0.9-0.1-2.1,0.3-2.8,1
			c-1.4,1.4-1.6,3.7,1.5,7c-0.2-1.6,0.4-3.1,1.2-4c2.1-2.1,4.8-2.4,7.4,0.2c2.5,2.5,2.3,5.9,0.1,8
			C441.3,390.1,437.3,390.5,433.1,386.3z M436.7,385.2c2.3,1.8,3.9,1.8,5,0.7c1-1,1-2.4-0.5-3.9c-1.4-1.4-2.7-1.3-3.8-0.2
			C436.8,382.5,436.4,383.6,436.7,385.2z"/>
		<path class="st4" d="M442.6,376c-4.1-4.1-4.6-8-2-10.6c2.6-2.6,6.4-2.1,10.5,2.1c4.2,4.2,4.8,8.1,2.2,10.7
			C450.7,380.7,446.8,380.1,442.6,376z M448.8,369.8c-3.4-3.4-5.1-3.5-6.2-2.5c-1.1,1.1-1,2.8,2.4,6.2c3.4,3.4,5.3,3.6,6.4,2.6
			S452.2,373.2,448.8,369.8z"/>
		<path class="st4" d="M467.5,352.2c1,2,1.6,4.1,1.9,6.1c1.2,0.4,2.2,0.4,2.6,0c0.4-0.4-0.2-1.1-1.5-2.7c0.7-0.1,1.7-0.3,2.3-0.6
			c2.2,2.7,2.2,3.9,0.8,5.2c-1,1-2.4,1.2-4.1,0.8c0,1.4-0.2,2.8-0.5,4.1c-0.6-0.1-2-0.1-2.7,0c0.5-1.6,0.8-3.3,0.7-5
			c-1.7-0.8-3.6-2-5.5-3.5l-6.2,6.2l1.3,1.3c0.9,0.9,2,2.1,3,3.4c-0.1-1.1-0.4-2.2-1-3.2l1.7-1.1c0.8,1.4,1.3,3,1.3,4.3
			c-0.4,0-1.2,0.2-1.7,0.3c1,1.4,1.7,2.9,2,4.4c-0.6,0.1-2,0.4-2.6,0.7c-0.5-2.9-2.8-5.4-4.5-7.1l-2.9-2.9l7.9-7.9
			c-0.4-0.3-0.7-0.6-1.1-1l-8.7,8.7l-1.7-1.7l2.5-2.5l-2.8-2.8l1.9-1.9l2.8,2.8l2.4-2.4l-3.5-3.5l2-2l1.2,1.2l4.9-4.9l1.5,1.5
			l-4.9,4.9l0.9,0.9l6.3-6.3l1.7,1.7l-2,2c0.5-0.1,0.9-0.2,1.2-0.2l0,1.1l1.6-1.6l1.6,1.6l-4.2,4.2c1.2,0.9,2.3,1.6,3.3,2.2
			c-0.3-1.1-0.7-2.2-1.3-3.3L467.5,352.2z M464.4,359.2c1.6,3.2,1.5,7.1-0.5,10.8c-0.5-0.1-1.4-0.3-2-0.3c1-1.7,1.5-3.4,1.6-5
			l-0.8,0.8l-3.1-3.1l-1.8,1.8l-1.4-1.4l5.1-5.1l1.4,1.4l-1.7,1.7l2.2,2.2c-0.1-0.9-0.4-1.7-0.8-2.5L464.4,359.2z M460.3,352.3
			c0.4,0.3,0.7,0.7,1.1,1l1.7-1.7c-0.6,0.1-1.4,0.3-2,0.5l0-0.6L460.3,352.3z"/>
		<path class="st4" d="M479.6,344.8c-1.2,3.2-2.7,6.8-3.8,9.5l-2.8-1.5c0.4-0.9,0.9-1.9,1.4-3.1l-10.3-9.6l2-2.2l9.5,8.9
			c0.5-1.2,1-2.4,1.5-3.6L479.6,344.8z M476.3,340.2c-1.6-0.7-4.5-1.4-6.7-1.7l0.9-2.8c2.3,0.1,5.1,0.7,6.8,1.4L476.3,340.2z
			 M491.4,342.5c-1.7-0.5-4.6-0.7-7.3-0.9c0.5,3,0.2,6-1,9.3c-0.7-0.2-2.5-0.2-3.4-0.2c3.3-7.4,1-13.3-5.4-20.9l2.4-2
			c3.1,3.8,5.3,7.3,6.6,10.7c2.9,0.1,6.2,0.2,8.1,0.6L491.4,342.5z"/>
		<path class="st4" d="M506.8,321.3l2,2l-15.4,15.4l-2-2l6.1-6.1l-12.8-12.8l2.2-2.2l4.9,4.9l6-6l2.1,2.1l-6,6l5.9,5.9L506.8,321.3z
			"/>
	</g>
	<g class="st3">
		<path class="st4" d="M148.5,383c0.2-6.4,0.2-10.7-1.6-12.5c-1.2-1.2-2.7-1.3-3.9-0.1c-0.9,0.9-1.1,2.3-1,3.6l-2.7,0
			c-0.1-2.4,0.4-4.2,2.1-5.9c2.4-2.4,5.5-2.4,7.8-0.1c2.1,2.1,2.4,6.3,2.5,10.9c0.6-0.7,1.3-1.6,1.9-2.2l2.8-2.8l2.1,2.1l-8.4,8.4
			L148.5,383z"/>
		<path class="st4" d="M153.8,368.3c-4.1-4.1-4.6-8-2-10.6c2.6-2.6,6.4-2.1,10.5,2.1c4.2,4.2,4.8,8.1,2.2,10.7
			C161.9,373,158,372.4,153.8,368.3z M160,362.1c-3.4-3.4-5.1-3.5-6.2-2.5c-1.1,1.1-1,2.9,2.4,6.2c3.4,3.4,5.3,3.6,6.4,2.6
			S163.4,365.6,160,362.1z"/>
		<path class="st4" d="M164.3,358.6l4.6-4.6l1.8,1.8l-4.6,4.6L164.3,358.6z"/>
		<path class="st4" d="M174.5,357l-0.4-2.8c1.5,0,3-0.4,4.1-1.5c1.3-1.3,1.5-2.7,0.5-3.8c-1.2-1.2-2.6-1.2-5.4,1.5l-1.8-1.8
			c2.3-2.3,2.3-3.8,1.2-4.9c-1-1-2.1-0.9-3.2,0.2c-0.9,0.9-1.2,2.1-1.3,3.5l-2.8-0.3c0.1-2,0.7-3.9,2.2-5.3c2.4-2.4,5.3-2.9,7.4-0.8
			c1.3,1.3,1.5,3,0.7,4.9l0.1,0.1c1.8-1,3.9-1.1,5.5,0.5c2.2,2.2,1.5,5.6-0.9,8C178.4,356.5,176.3,357.1,174.5,357z"/>
		<path class="st4" d="M185.2,346.9L185,344c1,0.1,2.1-0.3,2.8-1c1.4-1.4,1.6-3.7-1.5-6.9c0.2,1.6-0.4,3.1-1.2,4
			c-2.1,2.1-4.8,2.4-7.4-0.2c-2.5-2.5-2.3-5.9-0.1-8c2.4-2.4,6.3-2.7,10.5,1.5c4.7,4.7,4.4,9,1.8,11.5
			C188.5,346.4,186.7,346.9,185.2,346.9z M183.9,337.8c0.7-0.7,1.1-1.8,0.7-3.4c-2.3-1.8-3.9-1.7-5-0.7c-0.9,0.9-1,2.4,0.5,3.9
			C181.4,338.9,182.8,338.9,183.9,337.8z"/>
		<path class="st4" d="M204.9,318.3c1,2,1.6,4.1,1.9,6.1c1.2,0.4,2.2,0.4,2.6,0c0.4-0.4-0.2-1.1-1.5-2.7c0.7-0.1,1.7-0.3,2.3-0.6
			c2.2,2.7,2.2,3.9,0.8,5.2c-1,1-2.4,1.2-4.1,0.8c0,1.4-0.2,2.8-0.5,4.1c-0.6-0.1-2-0.1-2.7,0c0.5-1.6,0.8-3.3,0.7-5
			c-1.7-0.8-3.6-2-5.5-3.5l-6.2,6.2l1.3,1.3c0.9,0.9,2,2.1,3,3.4c-0.1-1.1-0.4-2.2-1-3.2l1.7-1.1c0.8,1.4,1.3,3,1.3,4.3
			c-0.4,0-1.2,0.2-1.7,0.3c1,1.4,1.7,2.9,2,4.4c-0.6,0.1-2,0.4-2.6,0.7c-0.5-2.9-2.8-5.4-4.5-7.1l-2.9-2.9l7.9-7.9
			c-0.4-0.3-0.7-0.6-1.1-1l-8.7,8.7l-1.7-1.7l2.5-2.5l-2.8-2.8l1.9-1.9l2.8,2.8l2.4-2.4l-3.5-3.5l2-2l1.2,1.2l4.9-4.9l1.5,1.5
			l-4.9,4.9l0.9,0.9l6.3-6.3l1.7,1.7l-2,2c0.5-0.1,0.9-0.2,1.2-0.2l0,1.1l1.6-1.6l1.6,1.6l-4.2,4.2c1.2,0.9,2.3,1.6,3.3,2.2
			c-0.3-1.1-0.7-2.2-1.3-3.3L204.9,318.3z M201.8,325.2c1.6,3.2,1.5,7.1-0.5,10.8c-0.5-0.1-1.4-0.3-2-0.3c1-1.7,1.5-3.4,1.6-5
			l-0.8,0.8l-3.1-3.1l-1.8,1.8l-1.4-1.4l5.1-5.1l1.4,1.4l-1.7,1.7l2.2,2.2c-0.1-0.9-0.4-1.7-0.8-2.5L201.8,325.2z M197.8,318.3
			c0.4,0.3,0.7,0.7,1.1,1l1.7-1.7c-0.6,0.1-1.4,0.3-2,0.5l0-0.6L197.8,318.3z"/>
	</g>
	<line class="st0" x1="0" y1="288.8" x2="542" y2="288.8"/>
	<rect x="41" y="173.8" class="st1" width="58" height="113"/>
	<rect x="177.7" y="41.9" class="st2" width="58" height="244.9"/>
	<rect x="314.3" y="146.8" class="st1" width="58" height="140"/>
	<rect x="451" y="277.8" class="st1" width="58" height="9"/>
</g>
</svg>
