<?xml version="1.0" encoding="utf-8"?>
<!-- Generator: Adobe Illustrator 24.1.3, SVG Export Plug-In . SVG Version: 6.00 Build 0)  -->
<svg version="1.1" id="圖層_1" xmlns="http://www.w3.org/2000/svg" xmlns:xlink="http://www.w3.org/1999/xlink" x="0px" y="0px"
	 viewBox="0 0 123 50" style="enable-background:new 0 0 123 50;" xml:space="preserve">
<style type="text/css">
	.st0{fill-rule:evenodd;clip-rule:evenodd;fill:#F6F6F6;}
	.st1{fill-rule:evenodd;clip-rule:evenodd;fill:#595757;}
	.st2{fill-rule:evenodd;clip-rule:evenodd;fill:#C13B3B;}
	.st3{fill-rule:evenodd;clip-rule:evenodd;fill:#FEFEFE;}
</style>
<desc>Created with Sketch.</desc>
<g id="Group-7" transform="translate(159.000000, 0.000000)">
	<path id="Fill-1" class="st0" d="M-38.1,49.5h-72.8V0h72.8c1.1,0,2,1,2.1,2.1v45.4C-36,48.5-37,49.5-38.1,49.5L-38.1,49.5z"/>
	<path id="Fill-3" class="st1" d="M-110.7,30c0.3,0.5,0.6,0.9,1.1,1.3c0.4,0.3,1,0.6,1.6,0.7c0.6,0.2,1.2,0.2,1.8,0.2
		c0.4,0,0.9,0,1.4-0.1c0.5-0.1,1-0.2,1.4-0.4c0.4-0.2,0.8-0.5,1.1-0.9c0.3-0.4,0.4-0.8,0.4-1.4c0-0.6-0.2-1.1-0.6-1.5
		c-0.4-0.4-0.9-0.7-1.5-0.9c-0.6-0.2-1.3-0.5-2.1-0.7s-1.6-0.4-2.4-0.6c-0.8-0.2-1.6-0.5-2.4-0.8c-0.8-0.3-1.5-0.7-2.1-1.2
		c-0.6-0.5-1.1-1.1-1.5-1.8c-0.4-0.7-0.6-1.6-0.6-2.6c0-1.1,0.2-2.1,0.7-3c0.5-0.8,1.1-1.5,1.9-2.1c0.8-0.6,1.7-1,2.6-1.2
		c1-0.3,2-0.4,3-0.4c1.1,0,2.3,0.1,3.3,0.4c1.1,0.3,2,0.7,2.8,1.3c0.8,0.6,1.5,1.3,2,2.2c0.5,0.9,0.7,2,0.7,3.3h-4.7
		c0-0.7-0.2-1.2-0.4-1.6c-0.2-0.4-0.5-0.8-0.9-1c-0.4-0.2-0.8-0.4-1.3-0.5c-0.5-0.1-1.1-0.2-1.6-0.2c-0.4,0-0.8,0-1.2,0.1
		c-0.4,0.1-0.7,0.2-1.1,0.4c-0.3,0.2-0.6,0.5-0.8,0.8c-0.2,0.3-0.3,0.7-0.3,1.2c0,0.4,0.1,0.8,0.2,1.1c0.2,0.3,0.5,0.5,1,0.7
		s1.2,0.5,2,0.7c0.9,0.2,2,0.5,3.3,0.9c0.4,0.1,1,0.2,1.7,0.5c0.7,0.2,1.5,0.6,2.2,1c0.7,0.5,1.3,1.1,1.9,1.9
		c0.5,0.8,0.8,1.8,0.8,3.1c0,1-0.2,2-0.6,2.8c-0.4,0.9-1,1.6-1.7,2.2c-0.8,0.6-1.7,1.1-2.9,1.5c-1.1,0.4-2.5,0.5-4,0.5
		c-1.2,0-2.4-0.2-3.5-0.5s-2.1-0.8-3-1.4c-0.9-0.6-1.6-1.5-2.1-2.5c-0.5-1-0.8-2.2-0.7-3.5h4.7C-111.1,28.9-110.9,29.5-110.7,30"/>
	<polygon id="Fill-5" class="st1" points="-94.4,36 -89.9,36 -89.9,13.1 -94.4,13.1 	"/>
	<path id="Fill-7" class="st1" d="M-76.1,31.4c0.7,0,1.4-0.1,2-0.3c0.7-0.2,1.2-0.6,1.8-1.1c0.5-0.5,0.9-1.2,1.2-2.1
		c0.3-0.8,0.5-1.9,0.5-3.1c0-1.1-0.1-2.1-0.3-3c-0.2-0.9-0.6-1.7-1.1-2.3c-0.5-0.6-1.1-1.1-2-1.5c-0.8-0.3-1.8-0.5-3-0.5h-3.5v14
		H-76.1z M-75.8,13.3c1.4,0,2.7,0.2,4,0.7c1.2,0.5,2.3,1.1,3.2,2c0.9,0.9,1.6,2,2.1,3.4c0.5,1.4,0.8,3,0.8,4.8
		c0,1.6-0.2,3.1-0.6,4.5c-0.4,1.4-1,2.5-1.9,3.5c-0.8,1-1.9,1.8-3.1,2.3c-1.2,0.6-2.7,1.3-4.4,1.3h-9.5V13.3H-75.8z"/>
	<polygon id="Fill-8" class="st1" points="-46,13.3 -46,17.4 -57.6,17.4 -57.6,22.2 -47,22.2 -47,26 -57.6,26 -57.6,31.4 
		-45.8,31.4 -45.8,36 -62.5,36 -62.5,13.3 	"/>
	<path id="Fill-9" class="st2" d="M-111.1,49.1h-45.8c-1.2,0-2.1-1-2.1-2.2V2.2c0-1.2,1-2.2,2.1-2.2h45.8V49.1z"/>
	<polygon id="Fill-10" class="st3" points="-149,35.5 -144.2,35.5 -144.2,13.3 -149,13.3 	"/>
	<polygon id="Fill-11" class="st3" points="-134.3,13.3 -125.1,28.2 -125,28.2 -125,13.3 -120.5,13.3 -120.5,35.5 -125.4,35.5 
		-134.5,20.6 -134.6,20.6 -134.6,35.5 -139.1,35.5 -139.1,13.3 	"/>
</g>
</svg>
