<?xml version="1.0" encoding="utf-8"?>
<!-- Generator: Adobe Illustrator 22.1.0, SVG Export Plug-In . SVG Version: 6.00 Build 0)  -->
<svg version="1.1" id="圖層_1" xmlns="http://www.w3.org/2000/svg" xmlns:xlink="http://www.w3.org/1999/xlink" x="0px" y="0px"
	 viewBox="0 0 952 380" style="enable-background:new 0 0 952 380;" xml:space="preserve">
<style type="text/css">
	.st0{fill:#14003D;}
	.st1{fill:#007130;}
	.st2{fill:#3C3B6E;}
	.st3{fill:none;stroke:#A0A0A0;}
	.st4{fill:#069030;}
	.st5{fill:#FFFFFF;}
</style>
<g>
	<path class="st0" d="M11.7,206.5v1.5l-8.6,5.5c-0.2,0.1-0.4,0.2-0.6,0.3v0c0.2,0,0.7-0.1,1.4-0.1h7.8v1.2H1.1v-1.5l8.5-5.4
		c0.4-0.3,0.7-0.4,0.7-0.4v0c-0.4,0.1-0.9,0.1-1.6,0.1H1.1v-1.2H11.7z"/>
	<path class="st0" d="M11.7,197.8v1.1h-1.2v0c0.9,0.5,1.4,1.3,1.4,2.3c0,1.8-1.1,2.7-3.2,2.7H4.2v-1.1h4.3c1.6,0,2.4-0.6,2.4-1.9
		c0-0.6-0.2-1.1-0.7-1.5c-0.5-0.4-1-0.6-1.7-0.6H4.2v-1.1H11.7z"/>
	<path class="st0" d="M11.7,184.6v1.1H7.4c-0.9,0-1.5,0.1-1.9,0.4S5,186.9,5,187.5c0,0.5,0.2,1,0.7,1.3s1.1,0.6,1.7,0.6h4.3v1.1H7.2
		c-1.5,0-2.3,0.6-2.3,1.8c0,0.5,0.2,1,0.7,1.3c0.5,0.4,1,0.5,1.8,0.5h4.3v1.1H4.2v-1.1h1.2v0c-0.9-0.5-1.4-1.3-1.4-2.3
		c0-0.5,0.1-0.9,0.4-1.3c0.3-0.4,0.7-0.7,1.1-0.8c-1.1-0.6-1.6-1.4-1.6-2.5c0-1.7,1-2.5,3.1-2.5H11.7z"/>
	<path class="st0" d="M10.6,181.2h1.1v1.1H0.5v-1.1h5v0c-1-0.6-1.5-1.5-1.5-2.6c0-1,0.3-1.7,1-2.3s1.6-0.8,2.7-0.8
		c1.3,0,2.3,0.3,3,0.9s1.1,1.5,1.1,2.5C11.9,179.9,11.5,180.6,10.6,181.2L10.6,181.2z M8.7,181.2c0.6,0,1.2-0.2,1.6-0.6
		s0.7-0.9,0.7-1.6c0-0.7-0.3-1.3-0.9-1.8s-1.4-0.6-2.4-0.6c-0.8,0-1.5,0.2-2,0.6S5,178.1,5,178.8c0,0.7,0.2,1.3,0.7,1.7
		s1.1,0.7,1.9,0.7H8.7z"/>
	<path class="st0" d="M8.2,167.5v5.4c0.9,0,1.5-0.3,2-0.7s0.7-1,0.7-1.8c0-0.9-0.3-1.6-0.9-2.4h1.1c0.5,0.7,0.7,1.5,0.7,2.6
		c0,1.1-0.3,1.9-1,2.5S9.2,174,8,174c-1.1,0-2.1-0.3-2.9-1S4,171.5,4,170.5c0-1,0.3-1.7,1-2.3s1.5-0.8,2.7-0.8H8.2z M7.2,168.6
		c-0.7,0-1.3,0.2-1.7,0.5S5,170,5,170.6c0,0.6,0.2,1,0.6,1.5s0.9,0.7,1.7,0.8V168.6z"/>
	<path class="st0" d="M5.3,161.7c-0.2,0.2-0.2,0.5-0.2,0.9c0,0.5,0.3,1,0.8,1.3s1.2,0.5,2,0.5h3.9v1.1H4.2v-1.1h1.6v0
		c-0.5-0.2-1-0.4-1.3-0.8S4,162.9,4,162.5c0-0.3,0-0.6,0.1-0.7H5.3z"/>
	<path class="st0" d="M8,157.4c-1.3,0-2.2-0.3-3-1S4,154.8,4,153.6c0-1.1,0.3-2,1-2.6s1.7-0.9,2.9-0.9c1.2,0,2.2,0.3,2.9,1
		s1.1,1.6,1.1,2.7c0,1.1-0.4,2-1.1,2.6S9.2,157.4,8,157.4z M8,156.2c0.9,0,1.6-0.2,2.1-0.7s0.8-1.1,0.8-1.9c0-0.8-0.3-1.4-0.8-1.8
		s-1.2-0.7-2.2-0.7c-1,0-1.7,0.2-2.2,0.6s-0.8,1-0.8,1.8c0,0.8,0.3,1.4,0.8,1.9S7.1,156.2,8,156.2z"/>
	<path class="st0" d="M1.6,144.7c-0.1,0.2-0.2,0.5-0.2,0.8c0,0.9,0.5,1.3,1.6,1.3h1.2V145h1v1.8h6.6v1.1H5.2v1.3h-1v-1.3H2.9
		c-0.8,0-1.4-0.2-1.9-0.7s-0.7-1-0.7-1.7c0-0.4,0-0.7,0.1-0.9H1.6z"/>
	<path class="st0" d="M11.7,133.8v1.1h-1.3v0c1,0.6,1.5,1.4,1.5,2.6c0,1-0.3,1.7-1,2.3s-1.6,0.8-2.8,0.8c-1.2,0-2.2-0.3-3-1
		S4,138.3,4,137.2s0.4-1.8,1.2-2.3v0H0.5v-1.1H11.7z M7.2,134.9c-0.6,0-1.1,0.2-1.6,0.6S5,136.5,5,137.1c0,0.8,0.3,1.4,0.8,1.8
		s1.3,0.6,2.3,0.6c0.9,0,1.6-0.2,2.1-0.6s0.8-1,0.8-1.7c0-0.7-0.2-1.2-0.7-1.7s-1.1-0.7-1.9-0.7H7.2z"/>
	<path class="st0" d="M8.2,125.3v5.4c0.9,0,1.5-0.3,2-0.7s0.7-1,0.7-1.8c0-0.9-0.3-1.6-0.9-2.4h1.1c0.5,0.7,0.7,1.5,0.7,2.6
		c0,1.1-0.3,1.9-1,2.5s-1.7,0.9-2.9,0.9c-1.1,0-2.1-0.3-2.9-1S4,129.3,4,128.3c0-1,0.3-1.7,1-2.3s1.5-0.8,2.7-0.8H8.2z M7.2,126.4
		c-0.7,0-1.3,0.2-1.7,0.5S5,127.8,5,128.4c0,0.6,0.2,1,0.6,1.5s0.9,0.7,1.7,0.8V126.4z"/>
	<path class="st0" d="M4.7,123.2c-0.5-0.7-0.7-1.6-0.7-2.5c0-1.8,0.9-2.6,2.8-2.6h4.9v1.1h-1.2v0c0.9,0.5,1.4,1.3,1.4,2.3
		c0,0.7-0.2,1.3-0.6,1.8s-0.9,0.6-1.6,0.6c-1.4,0-2.2-0.8-2.5-2.5l-0.3-2.3c-1.3,0-2,0.5-2,1.6c0,0.9,0.3,1.7,0.9,2.5H4.7z M8.1,121
		c0.1,0.6,0.2,1.1,0.5,1.4s0.6,0.4,1,0.4c0.4,0,0.7-0.1,0.9-0.4s0.4-0.6,0.4-1.1c0-0.6-0.2-1.1-0.6-1.5s-1-0.6-1.6-0.6H7.9L8.1,121z
		"/>
	<path class="st0" d="M11.7,115.7H0.5v-1.1h11.2V115.7z"/>
	<path class="st0" d="M10.2,112.6c0.5-0.7,0.7-1.4,0.7-2.2c0-1.1-0.4-1.6-1.1-1.6c-0.3,0-0.6,0.1-0.8,0.4s-0.4,0.7-0.7,1.4
		c-0.3,0.8-0.6,1.4-1,1.6s-0.7,0.4-1.2,0.4c-0.6,0-1.2-0.3-1.6-0.8s-0.6-1.2-0.6-2c0-0.6,0.1-1.2,0.3-1.7h1.2
		c-0.4,0.6-0.5,1.2-0.5,1.9c0,0.4,0.1,0.8,0.3,1.1s0.5,0.4,0.8,0.4s0.6-0.1,0.8-0.3s0.4-0.6,0.7-1.3c0.3-0.9,0.7-1.4,1-1.7
		s0.7-0.4,1.2-0.4c0.7,0,1.2,0.3,1.6,0.8s0.6,1.3,0.6,2.1c0,0.8-0.2,1.4-0.5,2H10.2z"/>
</g>
<g>
	<path class="st0" d="M950.1,87.9v-3.1h-9.5v-1.2h9.5v-3h1.1v7.3H950.1z"/>
	<path class="st0" d="M944.3,87.3c1.3,0,2.2,0.3,3,1c0.7,0.7,1.1,1.6,1.1,2.8c0,1.1-0.3,2-1,2.6s-1.7,0.9-2.9,0.9
		c-1.2,0-2.2-0.3-2.9-1s-1.1-1.6-1.1-2.7c0-1.1,0.4-2,1.1-2.6S943.1,87.3,944.3,87.3z M944.3,88.5c-0.9,0-1.6,0.2-2.1,0.7
		s-0.8,1.1-0.8,1.9c0,0.8,0.3,1.4,0.8,1.8s1.2,0.7,2.2,0.7c1,0,1.7-0.2,2.2-0.6c0.5-0.4,0.8-1,0.8-1.8c0-0.8-0.3-1.4-0.8-1.9
		C946,88.7,945.3,88.5,944.3,88.5z"/>
	<path class="st0" d="M940.7,100.1c-0.2-0.3-0.2-0.6-0.2-1.1c0-1.3,0.7-1.9,2.2-1.9h4.5v-1.3h1v1.3h1.9l0.4,1.1h-2.2v1.9h-1v-1.9
		h-4.3c-0.5,0-0.9,0.1-1.1,0.3s-0.3,0.5-0.3,0.9c0,0.3,0.1,0.6,0.3,0.8H940.7z"/>
	<path class="st0" d="M947.6,101.9c0.5,0.7,0.7,1.6,0.7,2.5c0,1.8-0.9,2.6-2.8,2.6h-4.9V106h1.2v0c-0.9-0.5-1.4-1.3-1.4-2.3
		c0-0.7,0.2-1.3,0.6-1.8c0.4-0.4,0.9-0.6,1.6-0.6c1.4,0,2.2,0.8,2.5,2.5l0.3,2.3c1.3,0,2-0.5,2-1.6c0-0.9-0.3-1.7-0.9-2.5H947.6z
		 M944.2,104.1c-0.1-0.6-0.2-1.1-0.5-1.4c-0.2-0.3-0.6-0.4-1-0.4c-0.4,0-0.7,0.1-0.9,0.4s-0.4,0.6-0.4,1.1c0,0.6,0.2,1.1,0.6,1.5
		s1,0.6,1.6,0.6h0.8L944.2,104.1z"/>
	<path class="st0" d="M940.6,109.4h11.2v1.1h-11.2V109.4z"/>
	<path class="st0" d="M940.6,116.5h7.6v1.1h-7.6V116.5z M950.9,116.4c0.2,0,0.4,0.1,0.5,0.2c0.1,0.1,0.2,0.3,0.2,0.5
		c0,0.2-0.1,0.4-0.2,0.5s-0.3,0.2-0.5,0.2c-0.2,0-0.4-0.1-0.5-0.2s-0.2-0.3-0.2-0.5s0.1-0.4,0.2-0.5S950.7,116.4,950.9,116.4z"/>
	<path class="st0" d="M940.6,126.4v-1.1h4.3c1.6,0,2.4-0.6,2.4-1.8c0-0.6-0.2-1.1-0.7-1.5c-0.5-0.4-1.1-0.6-1.8-0.6h-4.3v-1.1h7.6
		v1.1h-1.3v0c1,0.6,1.4,1.4,1.4,2.5c0,0.8-0.3,1.5-0.8,1.9s-1.3,0.7-2.3,0.7H940.6z"/>
	<path class="st0" d="M948.2,134.6l-7.6-3v-1.1l7.6-2.9v1.3l-5.6,1.9c-0.4,0.2-0.8,0.2-1,0.3v0c0.4,0.1,0.7,0.1,1,0.2l5.6,2.1V134.6
		z"/>
	<path class="st0" d="M944.1,141.8v-5.4c-0.9,0-1.5,0.3-2,0.7s-0.7,1-0.7,1.8c0,0.9,0.3,1.6,0.9,2.4h-1.1c-0.5-0.7-0.7-1.5-0.7-2.6
		c0-1.1,0.3-1.9,1-2.5s1.7-0.9,2.9-0.9c1.1,0,2.1,0.3,2.9,1s1.1,1.5,1.1,2.5c0,1-0.3,1.7-1,2.3s-1.5,0.8-2.7,0.8H944.1z
		 M945.1,140.6c0.7,0,1.3-0.2,1.7-0.5c0.4-0.3,0.6-0.8,0.6-1.4c0-0.6-0.2-1-0.6-1.5s-0.9-0.7-1.7-0.8V140.6z"/>
	<path class="st0" d="M942.1,143.2c-0.5,0.7-0.7,1.4-0.7,2.2c0,1.1,0.4,1.6,1.1,1.6c0.3,0,0.6-0.1,0.8-0.4s0.4-0.7,0.7-1.4
		c0.3-0.8,0.6-1.4,1-1.6s0.7-0.4,1.2-0.4c0.6,0,1.2,0.3,1.6,0.8s0.6,1.2,0.6,2c0,0.6-0.1,1.2-0.3,1.7h-1.2c0.4-0.6,0.5-1.2,0.5-1.9
		c0-0.4-0.1-0.8-0.3-1.1s-0.5-0.4-0.8-0.4s-0.6,0.1-0.8,0.3s-0.4,0.6-0.7,1.3c-0.3,0.9-0.7,1.4-1,1.7c-0.3,0.3-0.7,0.4-1.2,0.4
		c-0.7,0-1.2-0.3-1.6-0.8c-0.4-0.6-0.6-1.3-0.6-2.1c0-0.8,0.2-1.4,0.5-2H942.1z"/>
	<path class="st0" d="M940.7,153.5c-0.2-0.3-0.2-0.6-0.2-1.1c0-1.3,0.7-1.9,2.2-1.9h4.5v-1.3h1v1.3h1.9l0.4,1.1h-2.2v1.9h-1v-1.9
		h-4.3c-0.5,0-0.9,0.1-1.1,0.3s-0.3,0.5-0.3,0.9c0,0.3,0.1,0.6,0.3,0.8H940.7z"/>
	<path class="st0" d="M940.6,165.8v-1.1h4.3c0.9,0,1.5-0.1,1.9-0.4s0.6-0.7,0.6-1.3c0-0.5-0.2-1-0.7-1.3s-1.1-0.6-1.7-0.6h-4.3v-1.1
		h4.5c1.5,0,2.3-0.6,2.3-1.8c0-0.5-0.2-1-0.7-1.3s-1-0.5-1.8-0.5h-4.3v-1.1h7.6v1.1H947v0c0.9,0.5,1.4,1.3,1.4,2.3
		c0,0.5-0.1,0.9-0.4,1.3c-0.3,0.4-0.7,0.7-1.1,0.8c1.1,0.6,1.6,1.4,1.6,2.5c0,1.7-1,2.5-3.1,2.5H940.6z"/>
	<path class="st0" d="M944.1,174.1v-5.4c-0.9,0-1.5,0.3-2,0.7s-0.7,1-0.7,1.8c0,0.9,0.3,1.6,0.9,2.4h-1.1c-0.5-0.7-0.7-1.5-0.7-2.6
		c0-1.1,0.3-1.9,1-2.5s1.7-0.9,2.9-0.9c1.1,0,2.1,0.3,2.9,1s1.1,1.5,1.1,2.5c0,1-0.3,1.7-1,2.3s-1.5,0.8-2.7,0.8H944.1z M945.1,173
		c0.7,0,1.3-0.2,1.7-0.5c0.4-0.3,0.6-0.8,0.6-1.4c0-0.6-0.2-1-0.6-1.5s-0.9-0.7-1.7-0.8V173z"/>
	<path class="st0" d="M940.6,182.2v-1.1h4.3c1.6,0,2.4-0.6,2.4-1.8c0-0.6-0.2-1.1-0.7-1.5c-0.5-0.4-1.1-0.6-1.8-0.6h-4.3V176h7.6
		v1.1h-1.3v0c1,0.6,1.4,1.4,1.4,2.5c0,0.8-0.3,1.5-0.8,1.9s-1.3,0.7-2.3,0.7H940.6z"/>
	<path class="st0" d="M940.7,187.9c-0.2-0.3-0.2-0.6-0.2-1.1c0-1.3,0.7-1.9,2.2-1.9h4.5v-1.3h1v1.3h1.9l0.4,1.1h-2.2v1.9h-1V186
		h-4.3c-0.5,0-0.9,0.1-1.1,0.3s-0.3,0.5-0.3,0.9c0,0.3,0.1,0.6,0.3,0.8H940.7z"/>
	<path class="st0" d="M947.6,193.3c0.5,0.7,0.7,1.6,0.7,2.5c0,1.8-0.9,2.6-2.8,2.6h-4.9v-1.1h1.2v0c-0.9-0.5-1.4-1.3-1.4-2.3
		c0-0.7,0.2-1.3,0.6-1.8c0.4-0.4,0.9-0.6,1.6-0.6c1.4,0,2.2,0.8,2.5,2.5l0.3,2.3c1.3,0,2-0.5,2-1.6c0-0.9-0.3-1.7-0.9-2.5H947.6z
		 M944.2,195.4c-0.1-0.6-0.2-1.1-0.5-1.3c-0.2-0.3-0.6-0.4-1-0.4c-0.4,0-0.7,0.1-0.9,0.4c-0.2,0.3-0.4,0.6-0.4,1.1
		c0,0.6,0.2,1.1,0.6,1.5s1,0.6,1.6,0.6h0.8L944.2,195.4z"/>
	<path class="st0" d="M940.6,211.4v-1.1h4.3c0.9,0,1.5-0.1,1.9-0.4c0.4-0.3,0.6-0.7,0.6-1.3c0-0.5-0.2-1-0.7-1.3s-1.1-0.6-1.7-0.6
		h-4.3v-1.1h4.5c1.5,0,2.3-0.6,2.3-1.8c0-0.5-0.2-1-0.7-1.3c-0.5-0.4-1-0.5-1.8-0.5h-4.3v-1.1h7.6v1.1H947v0
		c0.9,0.5,1.4,1.3,1.4,2.3c0,0.5-0.1,0.9-0.4,1.3c-0.3,0.4-0.7,0.7-1.1,0.8c1.1,0.6,1.6,1.4,1.6,2.5c0,1.7-1,2.5-3.1,2.5H940.6z"/>
	<path class="st0" d="M944.3,213.2c1.3,0,2.2,0.3,3,1c0.7,0.7,1.1,1.6,1.1,2.8c0,1.1-0.3,2-1,2.6c-0.7,0.6-1.7,0.9-2.9,0.9
		c-1.2,0-2.2-0.3-2.9-1s-1.1-1.6-1.1-2.7c0-1.1,0.4-2,1.1-2.6C942.2,213.5,943.1,213.2,944.3,213.2z M944.3,214.4
		c-0.9,0-1.6,0.2-2.1,0.7c-0.5,0.5-0.8,1.1-0.8,1.9c0,0.8,0.3,1.4,0.8,1.8c0.5,0.4,1.2,0.7,2.2,0.7c1,0,1.7-0.2,2.2-0.6
		c0.5-0.4,0.8-1,0.8-1.8c0-0.8-0.3-1.4-0.8-1.9C946,214.6,945.3,214.4,944.3,214.4z"/>
	<path class="st0" d="M940.6,228.6v-1.1h1.2v0c-0.9-0.5-1.4-1.3-1.4-2.3c0-1.8,1.1-2.7,3.2-2.7h4.5v1.1h-4.3c-1.6,0-2.4,0.6-2.4,1.9
		c0,0.6,0.2,1.1,0.7,1.5s1,0.6,1.7,0.6h4.4v1.1H940.6z"/>
	<path class="st0" d="M940.6,237.3v-1.1h4.3c1.6,0,2.4-0.6,2.4-1.8c0-0.6-0.2-1.1-0.7-1.5c-0.5-0.4-1.1-0.6-1.8-0.6h-4.3v-1.1h7.6
		v1.1h-1.3v0c1,0.6,1.4,1.4,1.4,2.5c0,0.8-0.3,1.5-0.8,1.9s-1.3,0.7-2.3,0.7H940.6z"/>
	<path class="st0" d="M940.7,243c-0.2-0.3-0.2-0.6-0.2-1.1c0-1.3,0.7-1.9,2.2-1.9h4.5v-1.3h1v1.3h1.9l0.4,1.1h-2.2v1.9h-1v-1.9h-4.3
		c-0.5,0-0.9,0.1-1.1,0.3s-0.3,0.5-0.3,0.9c0,0.3,0.1,0.6,0.3,0.8H940.7z"/>
</g>
<g>
	<path class="st0" d="M33.9,16.3H28v-1h2.4V7l-2.5,0.7V6.6l3.6-1.1v9.8h2.4V16.3z"/>
	<path class="st0" d="M41.8,16.3h-6.3v-1l3.1-3.1c1-1,1.6-1.8,1.9-2.2s0.4-1,0.4-1.5c0-0.6-0.2-1.1-0.5-1.4s-0.9-0.5-1.5-0.5
		c-0.9,0-1.9,0.4-2.7,1.2V6.5c0.8-0.7,1.8-1,2.9-1c0.9,0,1.6,0.3,2.2,0.8s0.8,1.2,0.8,2.1c0,0.7-0.2,1.3-0.5,2s-1,1.5-2.1,2.5
		l-2.5,2.4v0h5V16.3z"/>
	<path class="st0" d="M43.5,11.3c0-1.9,0.3-3.3,0.9-4.2s1.5-1.4,2.6-1.4c2.2,0,3.3,1.8,3.3,5.4c0,1.8-0.3,3.1-0.9,4.1
		s-1.5,1.4-2.6,1.4c-1.1,0-1.9-0.5-2.5-1.4S43.5,12.9,43.5,11.3z M44.7,11.2c0,2.9,0.8,4.3,2.3,4.3c1.5,0,2.2-1.5,2.2-4.4
		c0-3.1-0.7-4.6-2.2-4.6C45.5,6.5,44.7,8.1,44.7,11.2z"/>
</g>
<g>
	<path class="st0" d="M891,17.9h-0.7v-1.5c-1,0-1.9-0.2-2.5-0.6v-1.2c0.3,0.3,0.7,0.5,1.2,0.6s1,0.3,1.4,0.2v-3.9
		c-1.1-0.5-1.8-1-2.1-1.5s-0.4-0.9-0.4-1.5c0-0.7,0.2-1.3,0.7-1.8s1.1-0.9,1.8-1V4.4h0.7v1.3c1,0,1.6,0.2,2,0.4v1.2
		c-0.5-0.4-1.1-0.6-2-0.6v4c0.9,0.5,1.6,0.9,2,1.3c0.4,0.4,0.6,1,0.6,1.6c0,0.7-0.2,1.3-0.7,1.8s-1.1,0.8-1.9,0.9V17.9z M890.3,6.7
		c-0.4,0.1-0.8,0.3-1,0.6s-0.4,0.6-0.4,1s0.1,0.7,0.2,1c0.2,0.3,0.5,0.6,1.1,0.9V6.7z M891,15.3c1-0.2,1.4-0.7,1.4-1.6
		c0-0.7-0.5-1.3-1.4-1.8V15.3z"/>
	<path class="st0" d="M905.2,16.3h-6.3v-1l3.1-3.1c1-1,1.6-1.8,1.9-2.2c0.2-0.5,0.4-1,0.4-1.5c0-0.6-0.2-1.1-0.5-1.4
		c-0.4-0.3-0.9-0.5-1.5-0.5c-0.9,0-1.8,0.4-2.7,1.2V6.5c0.8-0.7,1.8-1,2.9-1c0.9,0,1.6,0.3,2.2,0.8c0.5,0.5,0.8,1.2,0.8,2.1
		c0,0.7-0.2,1.3-0.5,2c-0.4,0.6-1,1.5-2.1,2.5l-2.5,2.4v0h5V16.3z"/>
	<path class="st0" d="M907,15.7c0-0.2,0.1-0.4,0.2-0.6s0.3-0.2,0.6-0.2c0.2,0,0.4,0.1,0.6,0.2s0.2,0.3,0.2,0.6
		c0,0.2-0.1,0.4-0.2,0.6c-0.2,0.2-0.3,0.2-0.6,0.2c-0.2,0-0.4-0.1-0.6-0.2S907,15.9,907,15.7z"/>
	<path class="st0" d="M917,13.5h-1.4v2.8h-1.1v-2.8h-5v-0.8l4.7-7h1.4v6.8h1.4V13.5z M914.5,12.5V7.9c0-0.3,0-0.7,0-1.1h0
		c0,0.1-0.2,0.4-0.4,0.8l-3.3,4.9H914.5z"/>
	<path class="st0" d="M919,16.3V5.7h3c0.9,0,1.6,0.2,2.1,0.7s0.8,1,0.8,1.8c0,0.6-0.2,1.1-0.5,1.6c-0.3,0.4-0.8,0.8-1.3,1v0
		c0.7,0.1,1.3,0.3,1.7,0.8c0.4,0.5,0.6,1.1,0.6,1.8c0,0.9-0.3,1.6-1,2.2c-0.6,0.6-1.5,0.8-2.4,0.8H919z M920.1,6.8v3.5h1.3
		c0.7,0,1.2-0.2,1.6-0.5s0.6-0.8,0.6-1.4c0-1-0.7-1.6-2.1-1.6H920.1z M920.1,11.4v3.9h1.7c0.7,0,1.3-0.2,1.7-0.5
		c0.4-0.3,0.6-0.8,0.6-1.4c0-1.3-0.9-1.9-2.6-1.9H920.1z"/>
</g>
<g>
	<path class="st0" d="M33.9,66.8H28v-1h2.4v-8.3l-2.5,0.7V57l3.6-1.1v9.8h2.4V66.8z"/>
	<path class="st0" d="M35.4,61.7c0-1.9,0.3-3.3,0.9-4.2S37.8,56,39,56c2.2,0,3.3,1.8,3.3,5.4c0,1.8-0.3,3.1-0.9,4.1
		s-1.5,1.4-2.6,1.4c-1.1,0-1.9-0.5-2.5-1.4S35.4,63.3,35.4,61.7z M36.6,61.6c0,2.9,0.8,4.3,2.3,4.3c1.5,0,2.2-1.5,2.2-4.4
		c0-3.1-0.7-4.6-2.2-4.6C37.4,57,36.6,58.5,36.6,61.6z"/>
	<path class="st0" d="M43.5,61.7c0-1.9,0.3-3.3,0.9-4.2s1.5-1.4,2.6-1.4c2.2,0,3.3,1.8,3.3,5.4c0,1.8-0.3,3.1-0.9,4.1
		s-1.5,1.4-2.6,1.4c-1.1,0-1.9-0.5-2.5-1.4S43.5,63.3,43.5,61.7z M44.7,61.6c0,2.9,0.8,4.3,2.3,4.3c1.5,0,2.2-1.5,2.2-4.4
		c0-3.1-0.7-4.6-2.2-4.6C45.5,57,44.7,58.5,44.7,61.6z"/>
</g>
<g>
	<path class="st0" d="M37.8,111.6c-1.3-0.6-1.9-1.5-1.9-2.6c0-0.8,0.3-1.4,0.9-1.9s1.3-0.7,2.2-0.7c0.8,0,1.4,0.2,2,0.7
		s0.8,1,0.8,1.8c0,1.2-0.7,2.1-2,2.7v0c1.5,0.6,2.3,1.5,2.3,2.9c0,0.9-0.3,1.6-1,2.1s-1.5,0.8-2.6,0.8c-0.9,0-1.6-0.3-2.2-0.8
		s-0.9-1.2-0.9-2C35.5,113.2,36.3,112.2,37.8,111.6L37.8,111.6z M38.8,112.2c-1.4,0.5-2.1,1.3-2.1,2.4c0,0.6,0.2,1,0.6,1.3
		s0.9,0.5,1.6,0.5c0.6,0,1.1-0.2,1.5-0.5s0.6-0.8,0.6-1.3C41,113.5,40.2,112.7,38.8,112.2z M40.6,109c0-0.5-0.2-0.9-0.5-1.2
		s-0.7-0.4-1.3-0.4c-0.5,0-0.9,0.1-1.3,0.4s-0.5,0.7-0.5,1.1c0,0.9,0.6,1.6,1.7,2.1C40,110.6,40.6,109.9,40.6,109z"/>
	<path class="st0" d="M43.5,112.1c0-1.9,0.3-3.3,0.9-4.2s1.5-1.4,2.6-1.4c2.2,0,3.3,1.8,3.3,5.4c0,1.8-0.3,3.1-0.9,4.1
		s-1.5,1.4-2.6,1.4c-1.1,0-1.9-0.5-2.5-1.4S43.5,113.8,43.5,112.1z M44.7,112c0,2.9,0.8,4.3,2.3,4.3c1.5,0,2.2-1.5,2.2-4.4
		c0-3.1-0.7-4.6-2.2-4.6C45.5,107.4,44.7,108.9,44.7,112z"/>
</g>
<g>
	<path class="st0" d="M78.8,367.2c-0.1,0.3-0.2,0.7-0.4,1c-0.3,0.5-0.8,1-1.3,1.3c-0.5,0.3-1.6,0.6-3.2,0.9c-0.8,1.3-1.8,2-3.1,2.2
		c-1.3,0.2-2.7,0-4-0.8c-1.5-0.9-2.4-2-2.8-3.3c-0.4-1.3-0.2-2.6,0.7-4c0.7-1.2,1.8-2,3.1-2.2c1.3-0.2,2.6,0,4,0.9
		c1.2,0.8,2.1,1.7,2.6,2.7s0.5,2.2,0.1,3.3c0.9-0.2,1.6-0.4,2-0.6c0.4-0.2,0.7-0.5,1-1c0.2-0.4,0.3-0.7,0.4-1L78.8,367.2z
		 M67.3,370.7c1.1,0.7,2.2,0.9,3.3,0.8c1-0.2,1.9-0.7,2.4-1.7c0.6-1,0.8-2,0.5-3c-0.3-1-1-1.8-2.2-2.5c-1.2-0.7-2.3-1-3.3-0.9
		s-1.8,0.7-2.4,1.7c-0.6,1-0.7,2-0.4,3S66.2,370,67.3,370.7z"/>
	<path class="st0" d="M80.5,359.2l-3.1,5.1l-0.9-0.5l1.2-2.1l-7.1-4.3l-0.6,2.5l-0.9-0.6l0.9-3.7l8.4,5.1l1.2-2.1L80.5,359.2z"/>
	<path class="st0" d="M86.4,349.4l-3.3,5.4l-0.9-0.5l-1.1-4.2c-0.4-1.4-0.7-2.3-0.9-2.8c-0.3-0.4-0.6-0.8-1.1-1.1
		c-0.5-0.3-1-0.4-1.5-0.3c-0.5,0.1-0.9,0.5-1.2,1c-0.5,0.8-0.6,1.8-0.4,3l-1-0.6c-0.1-1,0.1-2,0.7-3c0.5-0.8,1.1-1.3,1.8-1.5
		c0.7-0.2,1.4-0.1,2.2,0.4c0.6,0.3,1,0.8,1.4,1.5s0.7,1.7,1.1,3l0.8,3.4l0,0l2.6-4.2L86.4,349.4z"/>
	<path class="st0" d="M83,345.3c-1.6-1-2.7-2-3.2-3c-0.5-1-0.5-2,0.1-3c1.1-1.9,3.3-1.9,6.4,0c1.5,0.9,2.5,1.9,3,2.9
		c0.5,1,0.5,2-0.1,3c-0.6,0.9-1.4,1.4-2.5,1.4C85.7,346.6,84.4,346.2,83,345.3z M83.5,344.3c2.5,1.5,4.1,1.6,4.9,0.3
		c0.8-1.3-0.1-2.7-2.6-4.2c-2.6-1.6-4.3-1.8-5.1-0.5C80,341.2,80.9,342.7,83.5,344.3z"/>
	<path class="st0" d="M87.2,338.4c-1.6-1-2.6-2-3.2-3s-0.5-2,0.1-3c1.1-1.9,3.3-1.9,6.4,0c1.5,0.9,2.5,1.9,3,2.9c0.5,1,0.5,2-0.1,3
		c-0.6,0.9-1.4,1.4-2.5,1.4C89.9,339.7,88.6,339.2,87.2,338.4z M87.7,337.3c2.5,1.5,4.1,1.6,4.9,0.3c0.8-1.3-0.1-2.7-2.6-4.2
		c-2.6-1.6-4.3-1.8-5.1-0.5C84.2,334.3,85.1,335.7,87.7,337.3z"/>
	<path class="st0" d="M92.2,329.1c-1.2,0.8-2.2,0.9-3.2,0.3c-0.7-0.4-1-1-1.1-1.7c-0.1-0.8,0.1-1.5,0.5-2.3c0.4-0.7,0.9-1.1,1.6-1.4
		c0.7-0.2,1.3-0.2,1.9,0.2c1,0.6,1.4,1.6,1.3,3.1l0,0c1.3-1,2.5-1.2,3.7-0.5c0.8,0.5,1.2,1.1,1.3,1.9s-0.1,1.7-0.7,2.6
		c-0.5,0.8-1.1,1.2-1.8,1.5c-0.7,0.2-1.5,0.1-2.2-0.3C92.4,331.9,92,330.8,92.2,329.1L92.2,329.1z M91.4,325.4
		c-0.4-0.3-0.8-0.3-1.3-0.2c-0.4,0.1-0.7,0.4-1,0.9c-0.2,0.4-0.3,0.8-0.3,1.3c0.1,0.5,0.3,0.8,0.7,1c0.8,0.5,1.7,0.4,2.7-0.4
		C92.5,326.7,92.2,325.8,91.4,325.4z M93.2,328.6c-0.2,1.5,0.1,2.5,1,3c0.5,0.3,1,0.4,1.5,0.2s0.9-0.5,1.2-1.1
		c0.3-0.5,0.4-1,0.4-1.5c-0.1-0.5-0.3-0.9-0.8-1.2C95.5,327.4,94.4,327.6,93.2,328.6z"/>
</g>
<g>
	<path class="st0" d="M133.6,367.2c-0.1,0.3-0.2,0.7-0.4,1c-0.3,0.5-0.8,1-1.3,1.3c-0.5,0.3-1.6,0.6-3.2,0.9c-0.8,1.3-1.8,2-3.1,2.2
		c-1.3,0.2-2.7,0-4-0.8c-1.5-0.9-2.4-2-2.8-3.3c-0.4-1.3-0.2-2.6,0.7-4c0.7-1.2,1.8-2,3.1-2.2c1.3-0.2,2.6,0,4,0.9
		c1.2,0.8,2.1,1.7,2.6,2.7s0.5,2.2,0.1,3.3c0.9-0.2,1.6-0.4,2-0.6c0.4-0.2,0.7-0.5,1-1c0.2-0.4,0.3-0.7,0.4-1L133.6,367.2z
		 M122.2,370.7c1.1,0.7,2.2,0.9,3.3,0.8c1-0.2,1.9-0.7,2.4-1.7c0.6-1,0.8-2,0.5-3c-0.3-1-1-1.8-2.2-2.5c-1.2-0.7-2.3-1-3.3-0.9
		s-1.8,0.7-2.4,1.7c-0.6,1-0.7,2-0.4,3S121,370,122.2,370.7z"/>
	<path class="st0" d="M133.1,357.4l-0.7,1.2l2.4,1.5l-0.6,1l-2.4-1.5l-2.6,4.3l-0.6-0.4l-3.5-7.7l0.7-1.2l5.8,3.5l0.7-1.2
		L133.1,357.4z M131,359l-4-2.4c-0.3-0.2-0.6-0.4-0.9-0.6l0,0c0.1,0.1,0.2,0.3,0.5,0.8l2.5,5.4L131,359z"/>
	<path class="st0" d="M141.2,349.4l-3.3,5.4l-0.9-0.5L136,350c-0.4-1.4-0.7-2.3-0.9-2.8c-0.3-0.4-0.6-0.8-1.1-1.1
		c-0.5-0.3-1-0.4-1.5-0.3c-0.5,0.1-0.9,0.5-1.2,1c-0.5,0.8-0.6,1.8-0.4,3l-1-0.6c-0.1-1,0.1-2,0.7-3c0.5-0.8,1.1-1.3,1.8-1.5
		c0.7-0.2,1.4-0.1,2.2,0.4c0.6,0.3,1,0.8,1.4,1.5s0.7,1.7,1.1,3l0.8,3.4l0,0l2.6-4.2L141.2,349.4z"/>
	<path class="st0" d="M137.8,345.3c-1.6-1-2.7-2-3.2-3c-0.5-1-0.5-2,0.1-3c1.1-1.9,3.3-1.9,6.4,0c1.5,0.9,2.5,1.9,3,2.9
		c0.5,1,0.5,2-0.1,3c-0.6,0.9-1.4,1.4-2.5,1.4C140.5,346.6,139.2,346.2,137.8,345.3z M138.3,344.3c2.5,1.5,4.1,1.6,4.9,0.3
		c0.8-1.3-0.1-2.7-2.6-4.2c-2.6-1.6-4.3-1.8-5.1-0.5C134.8,341.2,135.7,342.7,138.3,344.3z"/>
	<path class="st0" d="M142,338.4c-1.6-1-2.6-2-3.2-3s-0.5-2,0.1-3c1.1-1.9,3.3-1.9,6.4,0c1.5,0.9,2.5,1.9,3,2.9c0.5,1,0.5,2-0.1,3
		c-0.6,0.9-1.4,1.4-2.5,1.4C144.7,339.7,143.4,339.2,142,338.4z M142.6,337.3c2.5,1.5,4.1,1.6,4.9,0.3c0.8-1.3-0.1-2.7-2.6-4.2
		c-2.6-1.6-4.3-1.8-5.1-0.5C139,334.3,139.9,335.7,142.6,337.3z"/>
	<path class="st0" d="M147,329.1c-1.2,0.8-2.2,0.9-3.2,0.3c-0.7-0.4-1-1-1.1-1.7c-0.1-0.8,0.1-1.5,0.5-2.3c0.4-0.7,0.9-1.1,1.6-1.4
		c0.7-0.2,1.3-0.2,1.9,0.2c1,0.6,1.4,1.6,1.3,3.1l0,0c1.3-1,2.5-1.2,3.7-0.5c0.8,0.5,1.2,1.1,1.3,1.9s-0.1,1.7-0.7,2.6
		c-0.5,0.8-1.1,1.2-1.8,1.5c-0.7,0.2-1.5,0.1-2.2-0.3C147.2,331.9,146.8,330.8,147,329.1L147,329.1z M146.3,325.4
		c-0.4-0.3-0.8-0.3-1.3-0.2c-0.4,0.1-0.7,0.4-1,0.9c-0.2,0.4-0.3,0.8-0.3,1.3c0.1,0.5,0.3,0.8,0.7,1c0.8,0.5,1.7,0.4,2.7-0.4
		C147.3,326.7,147,325.8,146.3,325.4z M148,328.6c-0.2,1.5,0.1,2.5,1,3c0.5,0.3,1,0.4,1.5,0.2s0.9-0.5,1.2-1.1
		c0.3-0.5,0.4-1,0.4-1.5c-0.1-0.5-0.3-0.9-0.8-1.2C150.3,327.4,149.2,327.6,148,328.6z"/>
</g>
<g>
	<path class="st0" d="M189.7,367.2c-0.1,0.3-0.2,0.7-0.4,1c-0.3,0.5-0.8,1-1.3,1.3c-0.5,0.3-1.6,0.6-3.2,0.9c-0.8,1.3-1.8,2-3.1,2.2
		c-1.3,0.2-2.7,0-4-0.8c-1.5-0.9-2.4-2-2.8-3.3c-0.4-1.3-0.2-2.6,0.7-4c0.7-1.2,1.8-2,3.1-2.2c1.3-0.2,2.6,0,4,0.9
		c1.2,0.8,2.1,1.7,2.6,2.7s0.5,2.2,0.1,3.3c0.9-0.2,1.6-0.4,2-0.6c0.4-0.2,0.7-0.5,1-1c0.2-0.4,0.3-0.7,0.4-1L189.7,367.2z
		 M178.3,370.7c1.1,0.7,2.2,0.9,3.3,0.8c1-0.2,1.9-0.7,2.4-1.7c0.6-1,0.8-2,0.5-3c-0.3-1-1-1.8-2.2-2.5c-1.2-0.7-2.3-1-3.3-0.9
		s-1.8,0.7-2.4,1.7c-0.6,1-0.7,2-0.4,3S177.1,370,178.3,370.7z"/>
	<path class="st0" d="M186.8,363.7c0.9-0.3,1.5-0.9,2-1.6c0.4-0.6,0.5-1.2,0.5-1.8c-0.1-0.6-0.4-1-0.9-1.4c-1.2-0.7-2.3-0.2-3.4,1.5
		l-0.5,0.7l-0.8-0.5l0.4-0.7c0.9-1.5,0.8-2.6-0.3-3.3c-1-0.6-1.9-0.4-2.6,0.8c-0.4,0.6-0.5,1.4-0.4,2.2l-1-0.6
		c0-0.8,0.2-1.6,0.7-2.4c0.4-0.7,1-1.2,1.7-1.4s1.3-0.1,2,0.2c1.2,0.7,1.6,1.8,1.2,3.2l0,0c0.4-0.6,1-1,1.6-1.1s1.2,0,1.8,0.3
		c0.8,0.5,1.3,1.2,1.4,2.1s-0.1,1.8-0.6,2.7c-0.5,0.8-1.1,1.4-1.7,1.7L186.8,363.7z"/>
	<path class="st0" d="M197.3,349.4l-3.3,5.4l-0.9-0.5l-1.1-4.2c-0.4-1.4-0.7-2.3-0.9-2.8c-0.3-0.4-0.6-0.8-1.1-1.1
		c-0.5-0.3-1-0.4-1.5-0.3c-0.5,0.1-0.9,0.5-1.2,1c-0.5,0.8-0.6,1.8-0.4,3l-1-0.6c-0.1-1,0.1-2,0.7-3c0.5-0.8,1.1-1.3,1.8-1.5
		c0.7-0.2,1.4-0.1,2.2,0.4c0.6,0.3,1,0.8,1.4,1.5s0.7,1.7,1.1,3l0.8,3.4l0,0l2.6-4.2L197.3,349.4z"/>
	<path class="st0" d="M193.9,345.3c-1.6-1-2.7-2-3.2-3c-0.5-1-0.5-2,0.1-3c1.1-1.9,3.3-1.9,6.4,0c1.5,0.9,2.5,1.9,3,2.9
		c0.5,1,0.5,2-0.1,3c-0.6,0.9-1.4,1.4-2.5,1.4C196.6,346.6,195.3,346.2,193.9,345.3z M194.4,344.3c2.5,1.5,4.1,1.6,4.9,0.3
		c0.8-1.3-0.1-2.7-2.6-4.2c-2.6-1.6-4.3-1.8-5.1-0.5C190.9,341.2,191.8,342.7,194.4,344.3z"/>
	<path class="st0" d="M198.1,338.4c-1.6-1-2.6-2-3.2-3s-0.5-2,0.1-3c1.1-1.9,3.3-1.9,6.4,0c1.5,0.9,2.5,1.9,3,2.9c0.5,1,0.5,2-0.1,3
		c-0.6,0.9-1.4,1.4-2.5,1.4C200.8,339.7,199.5,339.2,198.1,338.4z M198.7,337.3c2.5,1.5,4.1,1.6,4.9,0.3c0.8-1.3-0.1-2.7-2.6-4.2
		c-2.6-1.6-4.3-1.8-5.1-0.5C195.1,334.3,196,335.7,198.7,337.3z"/>
	<path class="st0" d="M205.9,332.8c0.6-0.3,1.1-0.8,1.4-1.3c0.5-0.8,0.6-1.7,0.2-2.5c-0.4-0.9-1.2-1.7-2.4-2.4c0,0,0,0,0,0
		c0.5,0.9,0.5,1.8-0.1,2.8c-0.5,0.8-1.1,1.3-2,1.4c-0.8,0.2-1.7,0-2.5-0.5c-0.9-0.5-1.4-1.2-1.7-2.1c-0.3-0.9-0.1-1.8,0.4-2.6
		c0.6-0.9,1.3-1.4,2.3-1.4c1-0.1,2.2,0.3,3.5,1.1c1.6,1,2.7,2.1,3.3,3.3s0.4,2.4-0.3,3.5c-0.4,0.6-0.8,1.1-1.2,1.4L205.9,332.8z
		 M201,329.2c0.6,0.4,1.2,0.5,1.8,0.4c0.6-0.1,1-0.4,1.4-1c0.3-0.5,0.4-1,0.3-1.6c-0.1-0.5-0.4-1-0.9-1.3c-0.7-0.4-1.3-0.6-2-0.5
		c-0.7,0.1-1.2,0.4-1.5,0.9c-0.3,0.5-0.4,1.1-0.2,1.7C200,328.4,200.4,328.8,201,329.2z"/>
</g>
<g>
	<path class="st0" d="M246.5,367.2c-0.1,0.3-0.2,0.7-0.4,1c-0.3,0.5-0.8,1-1.3,1.3c-0.5,0.3-1.6,0.6-3.2,0.9c-0.8,1.3-1.8,2-3.1,2.2
		c-1.3,0.2-2.7,0-4-0.8c-1.5-0.9-2.4-2-2.8-3.3c-0.4-1.3-0.2-2.6,0.7-4c0.7-1.2,1.8-2,3.1-2.2c1.3-0.2,2.6,0,4,0.9
		c1.2,0.8,2.1,1.7,2.6,2.7s0.5,2.2,0.1,3.3c0.9-0.2,1.6-0.4,2-0.6c0.4-0.2,0.7-0.5,1-1c0.2-0.4,0.3-0.7,0.4-1L246.5,367.2z
		 M235,370.7c1.1,0.7,2.2,0.9,3.3,0.8c1-0.2,1.9-0.7,2.4-1.7c0.6-1,0.8-2,0.5-3c-0.3-1-1-1.8-2.2-2.5c-1.2-0.7-2.3-1-3.3-0.9
		s-1.8,0.7-2.4,1.7c-0.6,1-0.7,2-0.4,3S233.9,370,235,370.7z"/>
	<path class="st0" d="M248.1,359.3l-3.3,5.4l-0.9-0.5l-1.1-4.2c-0.4-1.4-0.7-2.3-0.9-2.8c-0.3-0.4-0.6-0.8-1.1-1.1
		c-0.5-0.3-1-0.4-1.5-0.3c-0.5,0.1-0.9,0.5-1.2,1c-0.5,0.8-0.6,1.8-0.4,3l-1-0.6c-0.1-1,0.1-2,0.7-3c0.5-0.8,1.1-1.3,1.8-1.5
		c0.7-0.2,1.4-0.1,2.2,0.4c0.6,0.3,1,0.8,1.4,1.5c0.4,0.6,0.7,1.7,1.1,3l0.8,3.4l0,0l2.6-4.2L248.1,359.3z"/>
	<path class="st0" d="M254.1,349.4l-3.3,5.4l-0.9-0.5l-1.1-4.2c-0.4-1.4-0.7-2.3-0.9-2.8c-0.3-0.4-0.6-0.8-1.1-1.1
		c-0.5-0.3-1-0.4-1.5-0.3c-0.5,0.1-0.9,0.5-1.2,1c-0.5,0.8-0.6,1.8-0.4,3l-1-0.6c-0.1-1,0.1-2,0.7-3c0.5-0.8,1.1-1.3,1.8-1.5
		c0.7-0.2,1.4-0.1,2.2,0.4c0.6,0.3,1,0.8,1.4,1.5s0.7,1.7,1.1,3l0.8,3.4l0,0l2.6-4.2L254.1,349.4z"/>
	<path class="st0" d="M250.6,345.3c-1.6-1-2.7-2-3.2-3c-0.5-1-0.5-2,0.1-3c1.1-1.9,3.3-1.9,6.4,0c1.5,0.9,2.5,1.9,3,2.9
		c0.5,1,0.5,2-0.1,3c-0.6,0.9-1.4,1.4-2.5,1.4C253.3,346.6,252.1,346.2,250.6,345.3z M251.2,344.3c2.5,1.5,4.1,1.6,4.9,0.3
		c0.8-1.3-0.1-2.7-2.6-4.2c-2.6-1.6-4.3-1.8-5.1-0.5C247.6,341.2,248.5,342.7,251.2,344.3z"/>
	<path class="st0" d="M262.6,335.3l-3.1,5.1l-0.9-0.5l1.2-2.1l-7.1-4.3l-0.6,2.5l-0.9-0.6l0.9-3.7l8.4,5.1l1.2-2.1L262.6,335.3z"/>
	<path class="st0" d="M259.1,331.4c-1.6-1-2.7-2-3.2-3c-0.5-1-0.5-2,0.1-3c1.1-1.9,3.3-1.9,6.4,0c1.5,0.9,2.5,1.9,3,2.9
		c0.5,1,0.5,2-0.1,3c-0.6,0.9-1.4,1.4-2.5,1.4S260.5,332.3,259.1,331.4z M259.6,330.4c2.5,1.5,4.1,1.6,4.9,0.3
		c0.8-1.3-0.1-2.7-2.6-4.2c-2.6-1.6-4.3-1.8-5.1-0.5C256,327.3,257,328.8,259.6,330.4z"/>
</g>
<g>
	<path class="st0" d="M301.3,367.2c-0.1,0.3-0.2,0.7-0.4,1c-0.3,0.5-0.8,1-1.3,1.3c-0.5,0.3-1.6,0.6-3.2,0.9c-0.8,1.3-1.8,2-3.1,2.2
		c-1.3,0.2-2.7,0-4-0.8c-1.5-0.9-2.4-2-2.8-3.3c-0.4-1.3-0.2-2.6,0.7-4c0.7-1.2,1.8-2,3.1-2.2c1.3-0.2,2.6,0,4,0.9
		c1.2,0.8,2.1,1.7,2.6,2.7s0.5,2.2,0.1,3.3c0.9-0.2,1.6-0.4,2-0.6c0.4-0.2,0.7-0.5,1-1c0.2-0.4,0.3-0.7,0.4-1L301.3,367.2z
		 M289.8,370.7c1.1,0.7,2.2,0.9,3.3,0.8c1-0.2,1.9-0.7,2.4-1.7c0.6-1,0.8-2,0.5-3c-0.3-1-1-1.8-2.2-2.5c-1.2-0.7-2.3-1-3.3-0.9
		s-1.8,0.7-2.4,1.7c-0.6,1-0.7,2-0.4,3S288.7,370,289.8,370.7z"/>
	<path class="st0" d="M303,359.2l-3.1,5.1l-0.9-0.5l1.2-2.1l-7.1-4.3l-0.6,2.5l-0.9-0.6l0.9-3.7l8.4,5.1l1.2-2.1L303,359.2z"/>
	<path class="st0" d="M308.9,349.4l-3.3,5.4l-0.9-0.5l-1.1-4.2c-0.4-1.4-0.7-2.3-0.9-2.8c-0.3-0.4-0.6-0.8-1.1-1.1
		c-0.5-0.3-1-0.4-1.5-0.3c-0.5,0.1-0.9,0.5-1.2,1c-0.5,0.8-0.6,1.8-0.4,3l-1-0.6c-0.1-1,0.1-2,0.7-3c0.5-0.8,1.1-1.3,1.8-1.5
		c0.7-0.2,1.4-0.1,2.2,0.4c0.6,0.3,1,0.8,1.4,1.5s0.7,1.7,1.1,3l0.8,3.4l0,0l2.6-4.2L308.9,349.4z"/>
	<path class="st0" d="M305.5,345.3c-1.6-1-2.7-2-3.2-3c-0.5-1-0.5-2,0.1-3c1.1-1.9,3.3-1.9,6.4,0c1.5,0.9,2.5,1.9,3,2.9
		c0.5,1,0.5,2-0.1,3c-0.6,0.9-1.4,1.4-2.5,1.4C308.1,346.6,306.9,346.2,305.5,345.3z M306,344.3c2.5,1.5,4.1,1.6,4.9,0.3
		c0.8-1.3-0.1-2.7-2.6-4.2c-2.6-1.6-4.3-1.8-5.1-0.5C302.4,341.2,303.4,342.7,306,344.3z"/>
	<path class="st0" d="M317.4,335.3l-3.1,5.1l-0.9-0.5l1.2-2.1l-7.1-4.3L307,336l-0.9-0.6l0.9-3.7l8.4,5.1l1.2-2.1L317.4,335.3z"/>
	<path class="st0" d="M321.6,328.4l-3.1,5.1l-0.9-0.5l1.2-2.1l-7.1-4.3l-0.6,2.5l-0.9-0.6l0.9-3.7l8.4,5.1l1.2-2.1L321.6,328.4z"/>
</g>
<g>
	<path class="st0" d="M357.4,367.2c-0.1,0.3-0.2,0.7-0.4,1c-0.3,0.5-0.8,1-1.3,1.3c-0.5,0.3-1.6,0.6-3.2,0.9c-0.8,1.3-1.8,2-3.1,2.2
		c-1.3,0.2-2.7,0-4-0.8c-1.5-0.9-2.4-2-2.8-3.3c-0.4-1.3-0.2-2.6,0.7-4c0.7-1.2,1.8-2,3.1-2.2c1.3-0.2,2.6,0,4,0.9
		c1.2,0.8,2.1,1.7,2.6,2.7s0.5,2.2,0.1,3.3c0.9-0.2,1.6-0.4,2-0.6c0.4-0.2,0.7-0.5,1-1c0.2-0.4,0.3-0.7,0.4-1L357.4,367.2z
		 M345.9,370.7c1.1,0.7,2.2,0.9,3.3,0.8c1-0.2,1.9-0.7,2.4-1.7c0.6-1,0.8-2,0.5-3c-0.3-1-1-1.8-2.2-2.5c-1.2-0.7-2.3-1-3.3-0.9
		s-1.8,0.7-2.4,1.7c-0.6,1-0.7,2-0.4,3S344.8,370,345.9,370.7z"/>
	<path class="st0" d="M356.8,357.4l-0.7,1.2l2.4,1.5l-0.6,1l-2.4-1.5l-2.6,4.3l-0.6-0.4l-3.5-7.7l0.7-1.2l5.8,3.5l0.7-1.2
		L356.8,357.4z M354.7,359l-4-2.4c-0.3-0.2-0.6-0.4-0.9-0.6l0,0c0.1,0.1,0.2,0.3,0.5,0.8l2.5,5.4L354.7,359z"/>
	<path class="st0" d="M365,349.4l-3.3,5.4l-0.9-0.5l-1.1-4.2c-0.4-1.4-0.7-2.3-0.9-2.8c-0.3-0.4-0.6-0.8-1.1-1.1
		c-0.5-0.3-1-0.4-1.5-0.3c-0.5,0.1-0.9,0.5-1.2,1c-0.5,0.8-0.6,1.8-0.4,3l-1-0.6c-0.1-1,0.1-2,0.7-3c0.5-0.8,1.1-1.3,1.8-1.5
		c0.7-0.2,1.4-0.1,2.2,0.4c0.6,0.3,1,0.8,1.4,1.5s0.7,1.7,1.1,3l0.8,3.4l0,0l2.6-4.2L365,349.4z"/>
	<path class="st0" d="M361.6,345.3c-1.6-1-2.7-2-3.2-3c-0.5-1-0.5-2,0.1-3c1.1-1.9,3.3-1.9,6.4,0c1.5,0.9,2.5,1.9,3,2.9
		c0.5,1,0.5,2-0.1,3c-0.6,0.9-1.4,1.4-2.5,1.4C364.2,346.6,363,346.2,361.6,345.3z M362.1,344.3c2.5,1.5,4.1,1.6,4.9,0.3
		c0.8-1.3-0.1-2.7-2.6-4.2c-2.6-1.6-4.3-1.8-5.1-0.5C358.5,341.2,359.5,342.7,362.1,344.3z"/>
	<path class="st0" d="M373.5,335.3l-3.1,5.1l-0.9-0.5l1.2-2.1l-7.1-4.3l-0.6,2.5l-0.9-0.6l0.9-3.7l8.4,5.1l1.2-2.1L373.5,335.3z"/>
	<path class="st0" d="M377.7,328.4l-3.1,5.1l-0.9-0.5l1.2-2.1l-7.1-4.3l-0.6,2.5l-0.9-0.6l0.9-3.7l8.4,5.1l1.2-2.1L377.7,328.4z"/>
</g>
<g>
	<path class="st0" d="M414.8,367.2c-0.1,0.3-0.2,0.7-0.4,1c-0.3,0.5-0.8,1-1.3,1.3c-0.5,0.3-1.6,0.6-3.2,0.9c-0.8,1.3-1.8,2-3.1,2.2
		c-1.3,0.2-2.7,0-4-0.8c-1.5-0.9-2.4-2-2.8-3.3c-0.4-1.3-0.2-2.6,0.7-4c0.7-1.2,1.8-2,3.1-2.2c1.3-0.2,2.6,0,4,0.9
		c1.2,0.8,2.1,1.7,2.6,2.7s0.5,2.2,0.1,3.3c0.9-0.2,1.6-0.4,2-0.6c0.4-0.2,0.7-0.5,1-1c0.2-0.4,0.3-0.7,0.4-1L414.8,367.2z
		 M403.3,370.7c1.1,0.7,2.2,0.9,3.3,0.8c1-0.2,1.9-0.7,2.4-1.7c0.6-1,0.8-2,0.5-3c-0.3-1-1-1.8-2.2-2.5c-1.2-0.7-2.3-1-3.3-0.9
		s-1.8,0.7-2.4,1.7c-0.6,1-0.7,2-0.4,3S402.2,370,403.3,370.7z"/>
	<path class="st0" d="M411.8,363.7c0.9-0.3,1.5-0.9,2-1.6c0.4-0.6,0.5-1.2,0.5-1.8c-0.1-0.6-0.4-1-0.9-1.4c-1.2-0.7-2.3-0.2-3.4,1.5
		l-0.5,0.7l-0.8-0.5l0.4-0.7c0.9-1.5,0.8-2.6-0.3-3.3c-1-0.6-1.9-0.4-2.6,0.8c-0.4,0.6-0.5,1.4-0.4,2.2l-1-0.6
		c0-0.8,0.2-1.6,0.7-2.4c0.4-0.7,1-1.2,1.7-1.4s1.3-0.1,2,0.2c1.2,0.7,1.6,1.8,1.2,3.2l0,0c0.4-0.6,1-1,1.6-1.1s1.2,0,1.8,0.3
		c0.8,0.5,1.3,1.2,1.4,2.1s-0.1,1.8-0.6,2.7c-0.5,0.8-1.1,1.4-1.7,1.7L411.8,363.7z"/>
	<path class="st0" d="M422.4,349.4l-3.3,5.4l-0.9-0.5l-1.1-4.2c-0.4-1.4-0.7-2.3-0.9-2.8c-0.3-0.4-0.6-0.8-1.1-1.1
		c-0.5-0.3-1-0.4-1.5-0.3c-0.5,0.1-0.9,0.5-1.2,1c-0.5,0.8-0.6,1.8-0.4,3l-1-0.6c-0.1-1,0.1-2,0.7-3c0.5-0.8,1.1-1.3,1.8-1.5
		c0.7-0.2,1.4-0.1,2.2,0.4c0.6,0.3,1,0.8,1.4,1.5s0.7,1.7,1.1,3l0.8,3.4l0,0l2.6-4.2L422.4,349.4z"/>
	<path class="st0" d="M418.9,345.3c-1.6-1-2.7-2-3.2-3c-0.5-1-0.5-2,0.1-3c1.1-1.9,3.3-1.9,6.4,0c1.5,0.9,2.5,1.9,3,2.9
		c0.5,1,0.5,2-0.1,3c-0.6,0.9-1.4,1.4-2.5,1.4C421.6,346.6,420.4,346.2,418.9,345.3z M419.5,344.3c2.5,1.5,4.1,1.6,4.9,0.3
		c0.8-1.3-0.1-2.7-2.6-4.2c-2.6-1.6-4.3-1.8-5.1-0.5C415.9,341.2,416.8,342.7,419.5,344.3z"/>
	<path class="st0" d="M430.9,335.3l-3.1,5.1l-0.9-0.5l1.2-2.1l-7.1-4.3l-0.6,2.5l-0.9-0.6l0.9-3.7l8.4,5.1l1.2-2.1L430.9,335.3z"/>
	<path class="st0" d="M435,328.6l-3.3,5.4l-0.9-0.5l-1.1-4.2c-0.4-1.4-0.7-2.3-0.9-2.8c-0.3-0.4-0.6-0.8-1.1-1.1
		c-0.5-0.3-1-0.4-1.5-0.3c-0.5,0.1-0.9,0.5-1.2,1c-0.5,0.8-0.6,1.8-0.4,3l-1-0.6c-0.1-1,0.1-2,0.7-3c0.5-0.8,1.1-1.3,1.8-1.5
		c0.7-0.2,1.4-0.1,2.2,0.4c0.6,0.3,1,0.8,1.4,1.5s0.7,1.7,1.1,3l0.8,3.4l0,0l2.6-4.2L435,328.6z"/>
</g>
<g>
	<path class="st0" d="M469.6,367.2c-0.1,0.3-0.2,0.7-0.4,1c-0.3,0.5-0.8,1-1.3,1.3c-0.5,0.3-1.6,0.6-3.2,0.9c-0.8,1.3-1.8,2-3.1,2.2
		c-1.3,0.2-2.7,0-4-0.8c-1.5-0.9-2.4-2-2.8-3.3c-0.4-1.3-0.2-2.6,0.7-4c0.7-1.2,1.8-2,3.1-2.2c1.3-0.2,2.6,0,4,0.9
		c1.2,0.8,2.1,1.7,2.6,2.7s0.5,2.2,0.1,3.3c0.9-0.2,1.6-0.4,2-0.6c0.4-0.2,0.7-0.5,1-1c0.2-0.4,0.3-0.7,0.4-1L469.6,367.2z
		 M458.1,370.7c1.1,0.7,2.2,0.9,3.3,0.8c1-0.2,1.9-0.7,2.4-1.7c0.6-1,0.8-2,0.5-3c-0.3-1-1-1.8-2.2-2.5c-1.2-0.7-2.3-1-3.3-0.9
		s-1.8,0.7-2.4,1.7c-0.6,1-0.7,2-0.4,3S457,370,458.1,370.7z"/>
	<path class="st0" d="M471.2,359.3l-3.3,5.4l-0.9-0.5L466,360c-0.4-1.4-0.7-2.3-0.9-2.8c-0.3-0.4-0.6-0.8-1.1-1.1
		c-0.5-0.3-1-0.4-1.5-0.3c-0.5,0.1-0.9,0.5-1.2,1c-0.5,0.8-0.6,1.8-0.4,3l-1-0.6c-0.1-1,0.1-2,0.7-3c0.5-0.8,1.1-1.3,1.8-1.5
		c0.7-0.2,1.4-0.1,2.2,0.4c0.6,0.3,1,0.8,1.4,1.5c0.4,0.6,0.7,1.7,1.1,3l0.8,3.4l0,0l2.6-4.2L471.2,359.3z"/>
	<path class="st0" d="M477.2,349.4l-3.3,5.4l-0.9-0.5L472,350c-0.4-1.4-0.7-2.3-0.9-2.8c-0.3-0.4-0.6-0.8-1.1-1.1
		c-0.5-0.3-1-0.4-1.5-0.3c-0.5,0.1-0.9,0.5-1.2,1c-0.5,0.8-0.6,1.8-0.4,3l-1-0.6c-0.1-1,0.1-2,0.7-3c0.5-0.8,1.1-1.3,1.8-1.5
		c0.7-0.2,1.4-0.1,2.2,0.4c0.6,0.3,1,0.8,1.4,1.5s0.7,1.7,1.1,3l0.8,3.4l0,0l2.6-4.2L477.2,349.4z"/>
	<path class="st0" d="M473.8,345.3c-1.6-1-2.7-2-3.2-3c-0.5-1-0.5-2,0.1-3c1.1-1.9,3.3-1.9,6.4,0c1.5,0.9,2.5,1.9,3,2.9
		c0.5,1,0.5,2-0.1,3c-0.6,0.9-1.4,1.4-2.5,1.4C476.4,346.6,475.2,346.2,473.8,345.3z M474.3,344.3c2.5,1.5,4.1,1.6,4.9,0.3
		c0.8-1.3-0.1-2.7-2.6-4.2c-2.6-1.6-4.3-1.8-5.1-0.5C470.7,341.2,471.7,342.7,474.3,344.3z"/>
	<path class="st0" d="M485.7,335.3l-3.1,5.1l-0.9-0.5l1.2-2.1l-7.1-4.3l-0.6,2.5l-0.9-0.6l0.9-3.7l8.4,5.1l1.2-2.1L485.7,335.3z"/>
	<path class="st0" d="M485.3,332.9c0.9-0.3,1.5-0.9,2-1.6c0.4-0.6,0.5-1.2,0.5-1.8c-0.1-0.6-0.4-1-0.9-1.4c-1.2-0.7-2.3-0.2-3.4,1.5
		l-0.5,0.7l-0.8-0.5l0.4-0.7c0.9-1.5,0.8-2.6-0.3-3.3c-1-0.6-1.9-0.4-2.6,0.8c-0.4,0.6-0.5,1.4-0.4,2.2l-1-0.6
		c0-0.8,0.2-1.6,0.7-2.4c0.4-0.7,1-1.2,1.7-1.4s1.3-0.1,2,0.2c1.2,0.7,1.6,1.8,1.2,3.2l0,0c0.4-0.6,1-1,1.6-1.1s1.2,0,1.8,0.3
		c0.8,0.5,1.3,1.2,1.4,2.1c0.1,0.9-0.1,1.8-0.6,2.7c-0.5,0.8-1.1,1.4-1.7,1.7L485.3,332.9z"/>
</g>
<g>
	<path class="st0" d="M525.7,367.2c-0.1,0.3-0.2,0.7-0.4,1c-0.3,0.5-0.8,1-1.3,1.3c-0.5,0.3-1.6,0.6-3.2,0.9c-0.8,1.3-1.8,2-3.1,2.2
		c-1.3,0.2-2.7,0-4-0.8c-1.5-0.9-2.4-2-2.8-3.3c-0.4-1.3-0.2-2.6,0.7-4c0.7-1.2,1.8-2,3.1-2.2c1.3-0.2,2.6,0,4,0.9
		c1.2,0.8,2.1,1.7,2.6,2.7s0.5,2.2,0.1,3.3c0.9-0.2,1.6-0.4,2-0.6c0.4-0.2,0.7-0.5,1-1c0.2-0.4,0.3-0.7,0.4-1L525.7,367.2z
		 M514.2,370.7c1.1,0.7,2.2,0.9,3.3,0.8c1-0.2,1.9-0.7,2.4-1.7c0.6-1,0.8-2,0.5-3c-0.3-1-1-1.8-2.2-2.5c-1.2-0.7-2.3-1-3.3-0.9
		s-1.8,0.7-2.4,1.7c-0.6,1-0.7,2-0.4,3S513.1,370,514.2,370.7z"/>
	<path class="st0" d="M527.4,359.2l-3.1,5.1l-0.9-0.5l1.2-2.1l-7.1-4.3l-0.6,2.5l-0.9-0.6l0.9-3.7l8.4,5.1l1.2-2.1L527.4,359.2z"/>
	<path class="st0" d="M533.3,349.4l-3.3,5.4l-0.9-0.5l-1.1-4.2c-0.4-1.4-0.7-2.3-0.9-2.8c-0.3-0.4-0.6-0.8-1.1-1.1
		c-0.5-0.3-1-0.4-1.5-0.3c-0.5,0.1-0.9,0.5-1.2,1c-0.5,0.8-0.6,1.8-0.4,3l-1-0.6c-0.1-1,0.1-2,0.7-3c0.5-0.8,1.1-1.3,1.8-1.5
		c0.7-0.2,1.4-0.1,2.2,0.4c0.6,0.3,1,0.8,1.4,1.5s0.7,1.7,1.1,3l0.8,3.4l0,0l2.6-4.2L533.3,349.4z"/>
	<path class="st0" d="M529.9,345.3c-1.6-1-2.7-2-3.2-3c-0.5-1-0.5-2,0.1-3c1.1-1.9,3.3-1.9,6.4,0c1.5,0.9,2.5,1.9,3,2.9
		c0.5,1,0.5,2-0.1,3c-0.6,0.9-1.4,1.4-2.5,1.4C532.5,346.6,531.3,346.2,529.9,345.3z M530.4,344.3c2.5,1.5,4.1,1.6,4.9,0.3
		c0.8-1.3-0.1-2.7-2.6-4.2c-2.6-1.6-4.3-1.8-5.1-0.5C526.8,341.2,527.8,342.7,530.4,344.3z"/>
	<path class="st0" d="M541.8,335.3l-3.1,5.1l-0.9-0.5l1.2-2.1l-7.1-4.3l-0.6,2.5l-0.9-0.6l0.9-3.7l8.4,5.1l1.2-2.1L541.8,335.3z"/>
	<path class="st0" d="M543.8,326.6l-0.7,1.2l2.4,1.5l-0.6,1l-2.4-1.5l-2.6,4.3l-0.6-0.4l-3.5-7.7l0.7-1.2l5.8,3.5l0.7-1.2
		L543.8,326.6z M541.7,328.3l-4-2.4c-0.3-0.2-0.6-0.4-0.9-0.6l0,0c0.1,0.1,0.2,0.3,0.5,0.8l2.5,5.4L541.7,328.3z"/>
</g>
<g>
	<path class="st0" d="M583.1,367.2c-0.1,0.3-0.2,0.7-0.4,1c-0.3,0.5-0.8,1-1.3,1.3s-1.6,0.6-3.2,0.9c-0.8,1.3-1.8,2-3.1,2.2
		s-2.7,0-4-0.8c-1.5-0.9-2.4-2-2.8-3.3c-0.4-1.3-0.2-2.6,0.7-4c0.7-1.2,1.8-2,3.1-2.2c1.3-0.2,2.6,0,4,0.9c1.2,0.8,2.1,1.7,2.6,2.7
		c0.5,1.1,0.5,2.2,0.1,3.3c0.9-0.2,1.6-0.4,2-0.6c0.4-0.2,0.7-0.5,1-1c0.2-0.4,0.3-0.7,0.4-1L583.1,367.2z M571.6,370.7
		c1.1,0.7,2.2,0.9,3.3,0.8s1.9-0.7,2.4-1.7c0.6-1,0.8-2,0.5-3c-0.3-1-1-1.8-2.2-2.5c-1.2-0.7-2.3-1-3.3-0.9c-1,0.2-1.8,0.7-2.4,1.7
		c-0.6,1-0.7,2-0.4,3S570.5,370,571.6,370.7z"/>
	<path class="st0" d="M582.5,357.4l-0.7,1.2l2.4,1.5l-0.6,1l-2.4-1.5l-2.6,4.3l-0.6-0.4l-3.5-7.7l0.7-1.2l5.8,3.5l0.7-1.2
		L582.5,357.4z M580.4,359l-4-2.4c-0.3-0.2-0.6-0.4-0.9-0.6l0,0c0.1,0.1,0.2,0.3,0.5,0.8l2.5,5.4L580.4,359z"/>
	<path class="st0" d="M590.7,349.4l-3.3,5.4l-0.9-0.5l-1.1-4.2c-0.4-1.4-0.7-2.3-0.9-2.8c-0.3-0.4-0.6-0.8-1.1-1.1
		c-0.5-0.3-1-0.4-1.5-0.3c-0.5,0.1-0.9,0.5-1.2,1c-0.5,0.8-0.6,1.8-0.4,3l-1-0.6c-0.1-1,0.1-2,0.7-3c0.5-0.8,1.1-1.3,1.8-1.5
		c0.7-0.2,1.4-0.1,2.2,0.4c0.6,0.3,1,0.8,1.4,1.5s0.7,1.7,1.1,3l0.8,3.4l0,0l2.6-4.2L590.7,349.4z"/>
	<path class="st0" d="M587.2,345.3c-1.6-1-2.7-2-3.2-3c-0.5-1-0.5-2,0.1-3c1.1-1.9,3.3-1.9,6.4,0c1.5,0.9,2.5,1.9,3,2.9
		c0.5,1,0.5,2-0.1,3c-0.6,0.9-1.4,1.4-2.5,1.4S588.7,346.2,587.2,345.3z M587.8,344.3c2.5,1.5,4.1,1.6,4.9,0.3
		c0.8-1.3-0.1-2.7-2.6-4.2c-2.6-1.6-4.3-1.8-5.1-0.5C584.2,341.2,585.1,342.7,587.8,344.3z"/>
	<path class="st0" d="M599.2,335.3l-3.1,5.1l-0.9-0.5l1.2-2.1l-7.1-4.3l-0.6,2.5l-0.9-0.6l0.9-3.7l8.4,5.1l1.2-2.1L599.2,335.3z"/>
	<path class="st0" d="M601.2,326.6l-0.7,1.2l2.4,1.5l-0.6,1l-2.4-1.5l-2.6,4.3l-0.6-0.4l-3.5-7.7l0.7-1.2l5.8,3.5l0.7-1.2
		L601.2,326.6z M599.1,328.3l-4-2.4c-0.3-0.2-0.6-0.4-0.9-0.6l0,0c0.1,0.1,0.2,0.3,0.5,0.8l2.5,5.4L599.1,328.3z"/>
</g>
<g>
	<path class="st0" d="M637.9,367.2c-0.1,0.3-0.2,0.7-0.4,1c-0.3,0.5-0.8,1-1.3,1.3c-0.5,0.3-1.6,0.6-3.2,0.9c-0.8,1.3-1.8,2-3.1,2.2
		c-1.3,0.2-2.7,0-4-0.8c-1.5-0.9-2.4-2-2.8-3.3c-0.4-1.3-0.2-2.6,0.7-4c0.7-1.2,1.8-2,3.1-2.2c1.3-0.2,2.6,0,4,0.9
		c1.2,0.8,2.1,1.7,2.6,2.7s0.5,2.2,0.1,3.3c0.9-0.2,1.6-0.4,2-0.6c0.4-0.2,0.7-0.5,1-1c0.2-0.4,0.3-0.7,0.4-1L637.9,367.2z
		 M626.4,370.7c1.1,0.7,2.2,0.9,3.3,0.8c1-0.2,1.9-0.7,2.4-1.7c0.6-1,0.8-2,0.5-3c-0.3-1-1-1.8-2.2-2.5c-1.2-0.7-2.3-1-3.3-0.9
		s-1.8,0.7-2.4,1.7c-0.6,1-0.7,2-0.4,3S625.3,370,626.4,370.7z"/>
	<path class="st0" d="M634.9,363.7c0.9-0.3,1.5-0.9,2-1.6c0.4-0.6,0.5-1.2,0.5-1.8c-0.1-0.6-0.4-1-0.9-1.4c-1.2-0.7-2.3-0.2-3.4,1.5
		l-0.5,0.7l-0.8-0.5l0.4-0.7c0.9-1.5,0.8-2.6-0.3-3.3c-1-0.6-1.9-0.4-2.6,0.8c-0.4,0.6-0.5,1.4-0.4,2.2l-1-0.6
		c0-0.8,0.2-1.6,0.7-2.4c0.4-0.7,1-1.2,1.7-1.4s1.3-0.1,2,0.2c1.2,0.7,1.6,1.8,1.2,3.2l0,0c0.4-0.6,1-1,1.6-1.1s1.2,0,1.8,0.3
		c0.8,0.5,1.3,1.2,1.4,2.1s-0.1,1.8-0.6,2.7c-0.5,0.8-1.1,1.4-1.7,1.7L634.9,363.7z"/>
	<path class="st0" d="M645.5,349.4l-3.3,5.4l-0.9-0.5l-1.1-4.2c-0.4-1.4-0.7-2.3-0.9-2.8c-0.3-0.4-0.6-0.8-1.1-1.1
		c-0.5-0.3-1-0.4-1.5-0.3c-0.5,0.1-0.9,0.5-1.2,1c-0.5,0.8-0.6,1.8-0.4,3l-1-0.6c-0.1-1,0.1-2,0.7-3c0.5-0.8,1.1-1.3,1.8-1.5
		c0.7-0.2,1.4-0.1,2.2,0.4c0.6,0.3,1,0.8,1.4,1.5s0.7,1.7,1.1,3l0.8,3.4l0,0l2.6-4.2L645.5,349.4z"/>
	<path class="st0" d="M642.1,345.3c-1.6-1-2.7-2-3.2-3c-0.5-1-0.5-2,0.1-3c1.1-1.9,3.3-1.9,6.4,0c1.5,0.9,2.5,1.9,3,2.9
		c0.5,1,0.5,2-0.1,3c-0.6,0.9-1.4,1.4-2.5,1.4C644.7,346.6,643.5,346.2,642.1,345.3z M642.6,344.3c2.5,1.5,4.1,1.6,4.9,0.3
		c0.8-1.3-0.1-2.7-2.6-4.2c-2.6-1.6-4.3-1.8-5.1-0.5C639,341.2,640,342.7,642.6,344.3z"/>
	<path class="st0" d="M654,335.3l-3.1,5.1l-0.9-0.5l1.2-2.1l-7.1-4.3l-0.6,2.5l-0.9-0.6l0.9-3.7l8.4,5.1l1.2-2.1L654,335.3z"/>
	<path class="st0" d="M653.8,332.8c0.8-0.4,1.4-0.9,1.7-1.5c0.4-0.6,0.5-1.3,0.4-1.9s-0.5-1.1-1.1-1.5c-0.6-0.4-1.2-0.5-1.8-0.3
		c-0.6,0.2-1.1,0.7-1.6,1.4c-0.1,0.2-0.4,0.7-0.8,1.5l-4.5-2.7l2.6-4.3l0.9,0.5l-2.1,3.4l2.7,1.6c0.2-0.4,0.3-0.6,0.4-0.8
		c0.6-1,1.3-1.6,2.1-1.8c0.8-0.3,1.6-0.1,2.5,0.4c0.9,0.5,1.4,1.3,1.6,2.2c0.2,0.9,0,1.8-0.6,2.8c-0.5,0.8-1,1.4-1.5,1.6
		L653.8,332.8z"/>
</g>
<g>
	<path class="st0" d="M694,367.2c-0.1,0.3-0.2,0.7-0.4,1c-0.3,0.5-0.8,1-1.3,1.3c-0.5,0.3-1.6,0.6-3.2,0.9c-0.8,1.3-1.8,2-3.1,2.2
		c-1.3,0.2-2.7,0-4-0.8c-1.5-0.9-2.4-2-2.8-3.3c-0.4-1.3-0.2-2.6,0.7-4c0.7-1.2,1.8-2,3.1-2.2c1.3-0.2,2.6,0,4,0.9
		c1.2,0.8,2.1,1.7,2.6,2.7s0.5,2.2,0.1,3.3c0.9-0.2,1.6-0.4,2-0.6c0.4-0.2,0.7-0.5,1-1c0.2-0.4,0.3-0.7,0.4-1L694,367.2z
		 M682.5,370.7c1.1,0.7,2.2,0.9,3.3,0.8c1-0.2,1.9-0.7,2.4-1.7c0.6-1,0.8-2,0.5-3c-0.3-1-1-1.8-2.2-2.5c-1.2-0.7-2.3-1-3.3-0.9
		s-1.8,0.7-2.4,1.7c-0.6,1-0.7,2-0.4,3S681.4,370,682.5,370.7z"/>
	<path class="st0" d="M695.6,359.3l-3.3,5.4l-0.9-0.5l-1.1-4.2c-0.4-1.4-0.7-2.3-0.9-2.8c-0.3-0.4-0.6-0.8-1.1-1.1
		c-0.5-0.3-1-0.4-1.5-0.3c-0.5,0.1-0.9,0.5-1.2,1c-0.5,0.8-0.6,1.8-0.4,3l-1-0.6c-0.1-1,0.1-2,0.7-3c0.5-0.8,1.1-1.3,1.8-1.5
		c0.7-0.2,1.4-0.1,2.2,0.4c0.6,0.3,1,0.8,1.4,1.5c0.4,0.6,0.7,1.7,1.1,3l0.8,3.4l0,0l2.6-4.2L695.6,359.3z"/>
	<path class="st0" d="M701.6,349.4l-3.3,5.4l-0.9-0.5l-1.1-4.2c-0.4-1.4-0.7-2.3-0.9-2.8c-0.3-0.4-0.6-0.8-1.1-1.1
		c-0.5-0.3-1-0.4-1.5-0.3c-0.5,0.1-0.9,0.5-1.2,1c-0.5,0.8-0.6,1.8-0.4,3l-1-0.6c-0.1-1,0.1-2,0.7-3c0.5-0.8,1.1-1.3,1.8-1.5
		c0.7-0.2,1.4-0.1,2.2,0.4c0.6,0.3,1,0.8,1.4,1.5s0.7,1.7,1.1,3l0.8,3.4l0,0l2.6-4.2L701.6,349.4z"/>
	<path class="st0" d="M698.2,345.3c-1.6-1-2.7-2-3.2-3c-0.5-1-0.5-2,0.1-3c1.1-1.9,3.3-1.9,6.4,0c1.5,0.9,2.5,1.9,3,2.9
		c0.5,1,0.5,2-0.1,3c-0.6,0.9-1.4,1.4-2.5,1.4C700.8,346.6,699.6,346.2,698.2,345.3z M698.7,344.3c2.5,1.5,4.1,1.6,4.9,0.3
		c0.8-1.3-0.1-2.7-2.6-4.2c-2.6-1.6-4.3-1.8-5.1-0.5C695.1,341.2,696.1,342.7,698.7,344.3z"/>
	<path class="st0" d="M710.1,335.3l-3.1,5.1l-0.9-0.5l1.2-2.1l-7.1-4.3l-0.6,2.5l-0.9-0.6l0.9-3.7l8.4,5.1l1.2-2.1L710.1,335.3z"/>
	<path class="st0" d="M706.1,323.9c-0.5,0.3-0.9,0.8-1.3,1.3c-0.5,0.8-0.5,1.7-0.1,2.6c0.4,0.9,1.3,1.7,2.5,2.5l0,0
		c-0.6-0.9-0.6-1.9,0-2.9c0.5-0.8,1.1-1.3,1.9-1.4c0.8-0.2,1.6,0,2.5,0.5c0.9,0.5,1.4,1.2,1.7,2.1c0.2,0.9,0.1,1.7-0.4,2.5
		c-0.6,0.9-1.4,1.4-2.4,1.5c-1,0-2.2-0.3-3.5-1.1c-1.5-0.9-2.6-2-3.2-3.2c-0.6-1.2-0.5-2.4,0.2-3.6c0.4-0.6,0.8-1.1,1.2-1.3
		L706.1,323.9z M708.7,331c0.6,0.4,1.3,0.5,1.9,0.5c0.6-0.1,1.1-0.4,1.5-0.9c0.3-0.5,0.4-1.1,0.2-1.6c-0.2-0.6-0.6-1-1.2-1.4
		c-0.7-0.4-1.3-0.6-1.8-0.5s-1,0.4-1.3,1c-0.3,0.5-0.4,1.1-0.3,1.6C707.9,330.3,708.2,330.7,708.7,331z"/>
</g>
<g>
	<path class="st0" d="M751.4,367.2c-0.1,0.3-0.2,0.7-0.4,1c-0.3,0.5-0.8,1-1.3,1.3c-0.5,0.3-1.6,0.6-3.2,0.9c-0.8,1.3-1.8,2-3.1,2.2
		c-1.3,0.2-2.7,0-4-0.8c-1.5-0.9-2.4-2-2.8-3.3c-0.4-1.3-0.2-2.6,0.7-4c0.7-1.2,1.8-2,3.1-2.2c1.3-0.2,2.6,0,4,0.9
		c1.2,0.8,2.1,1.7,2.6,2.7s0.5,2.2,0.1,3.3c0.9-0.2,1.6-0.4,2-0.6c0.4-0.2,0.7-0.5,1-1c0.2-0.4,0.3-0.7,0.4-1L751.4,367.2z
		 M739.9,370.7c1.1,0.7,2.2,0.9,3.3,0.8c1-0.2,1.9-0.7,2.4-1.7c0.6-1,0.8-2,0.5-3c-0.3-1-1-1.8-2.2-2.5c-1.2-0.7-2.3-1-3.3-0.9
		s-1.8,0.7-2.4,1.7c-0.6,1-0.7,2-0.4,3S738.8,370,739.9,370.7z"/>
	<path class="st0" d="M753.1,359.2l-3.1,5.1l-0.9-0.5l1.2-2.1l-7.1-4.3l-0.6,2.5l-0.9-0.6l0.9-3.7l8.4,5.1l1.2-2.1L753.1,359.2z"/>
	<path class="st0" d="M759,349.4l-3.3,5.4l-0.9-0.5l-1.1-4.2c-0.4-1.4-0.7-2.3-0.9-2.8c-0.3-0.4-0.6-0.8-1.1-1.1
		c-0.5-0.3-1-0.4-1.5-0.3c-0.5,0.1-0.9,0.5-1.2,1c-0.5,0.8-0.6,1.8-0.4,3l-1-0.6c-0.1-1,0.1-2,0.7-3c0.5-0.8,1.1-1.3,1.8-1.5
		c0.7-0.2,1.4-0.1,2.2,0.4c0.6,0.3,1,0.8,1.4,1.5s0.7,1.7,1.1,3l0.8,3.4l0,0l2.6-4.2L759,349.4z"/>
	<path class="st0" d="M755.5,345.3c-1.6-1-2.7-2-3.2-3c-0.5-1-0.5-2,0.1-3c1.1-1.9,3.3-1.9,6.4,0c1.5,0.9,2.5,1.9,3,2.9
		c0.5,1,0.5,2-0.1,3c-0.6,0.9-1.4,1.4-2.5,1.4C758.2,346.6,757,346.2,755.5,345.3z M756.1,344.3c2.5,1.5,4.1,1.6,4.9,0.3
		c0.8-1.3-0.1-2.7-2.6-4.2c-2.6-1.6-4.3-1.8-5.1-0.5C752.5,341.2,753.4,342.7,756.1,344.3z"/>
	<path class="st0" d="M767.5,335.3l-3.1,5.1l-0.9-0.5l1.2-2.1l-7.1-4.3L757,336l-0.9-0.6l0.9-3.7l8.4,5.1l1.2-2.1L767.5,335.3z"/>
	<path class="st0" d="M763,322.9l6.6,8.9l-0.6,1l-6.1-8.4l-2.8,4.6l-0.9-0.5l3.5-5.8L763,322.9z"/>
</g>
<g>
	<path class="st0" d="M806.2,367.2c-0.1,0.3-0.2,0.7-0.4,1c-0.3,0.5-0.8,1-1.3,1.3c-0.5,0.3-1.6,0.6-3.2,0.9c-0.8,1.3-1.8,2-3.1,2.2
		c-1.3,0.2-2.7,0-4-0.8c-1.5-0.9-2.4-2-2.8-3.3c-0.4-1.3-0.2-2.6,0.7-4c0.7-1.2,1.8-2,3.1-2.2c1.3-0.2,2.6,0,4,0.9
		c1.2,0.8,2.1,1.7,2.6,2.7c0.5,1.1,0.5,2.2,0.1,3.3c0.9-0.2,1.6-0.4,2-0.6c0.4-0.2,0.7-0.5,1-1c0.2-0.4,0.3-0.7,0.4-1L806.2,367.2z
		 M794.7,370.7c1.1,0.7,2.2,0.9,3.3,0.8c1-0.2,1.9-0.7,2.4-1.7c0.6-1,0.8-2,0.5-3c-0.3-1-1-1.8-2.2-2.5c-1.2-0.7-2.3-1-3.3-0.9
		c-1,0.2-1.8,0.7-2.4,1.7c-0.6,1-0.7,2-0.4,3S793.6,370,794.7,370.7z"/>
	<path class="st0" d="M805.6,357.4l-0.7,1.2l2.4,1.5l-0.6,1l-2.4-1.5l-2.6,4.3l-0.6-0.4l-3.5-7.7l0.7-1.2l5.8,3.5l0.7-1.2
		L805.6,357.4z M803.5,359l-4-2.4c-0.3-0.2-0.6-0.4-0.9-0.6l0,0c0.1,0.1,0.2,0.3,0.5,0.8l2.5,5.4L803.5,359z"/>
	<path class="st0" d="M813.8,349.4l-3.3,5.4l-0.9-0.5l-1.1-4.2c-0.4-1.4-0.7-2.3-0.9-2.8c-0.3-0.4-0.6-0.8-1.1-1.1
		c-0.5-0.3-1-0.4-1.5-0.3c-0.5,0.1-0.9,0.5-1.2,1c-0.5,0.8-0.6,1.8-0.4,3l-1-0.6c-0.1-1,0.1-2,0.7-3c0.5-0.8,1.1-1.3,1.8-1.5
		c0.7-0.2,1.4-0.1,2.2,0.4c0.6,0.3,1,0.8,1.4,1.5s0.7,1.7,1.1,3l0.8,3.4l0,0l2.6-4.2L813.8,349.4z"/>
	<path class="st0" d="M810.4,345.3c-1.6-1-2.7-2-3.2-3s-0.5-2,0.1-3c1.1-1.9,3.3-1.9,6.4,0c1.5,0.9,2.5,1.9,3,2.9c0.5,1,0.5,2-0.1,3
		c-0.6,0.9-1.4,1.4-2.5,1.4C813,346.6,811.8,346.2,810.4,345.3z M810.9,344.3c2.5,1.5,4.1,1.6,4.9,0.3c0.8-1.3-0.1-2.7-2.6-4.2
		c-2.6-1.6-4.3-1.8-5.1-0.5C807.3,341.2,808.3,342.7,810.9,344.3z"/>
	<path class="st0" d="M822.3,335.3l-3.1,5.1l-0.9-0.5l1.2-2.1l-7.1-4.3l-0.6,2.5l-0.9-0.6l0.9-3.7l8.4,5.1l1.2-2.1L822.3,335.3z"/>
	<path class="st0" d="M817.9,322.9l6.6,8.9l-0.6,1l-6.1-8.4l-2.8,4.6l-0.9-0.5l3.5-5.8L817.9,322.9z"/>
</g>
<g>
	<path class="st0" d="M41.6,158.2c-0.6-0.3-1.1-0.4-1.7-0.4c-1,0-1.7,0.4-2.3,1.3s-0.8,2-0.8,3.4h0c0.5-1,1.3-1.5,2.4-1.5
		c0.9,0,1.7,0.3,2.2,0.9s0.8,1.4,0.8,2.4c0,1-0.3,1.8-0.9,2.5s-1.4,1-2.4,1c-1.1,0-1.9-0.4-2.5-1.3s-0.9-2-0.9-3.5
		c0-1.8,0.4-3.3,1.1-4.4s1.8-1.7,3.2-1.7c0.7,0,1.3,0.1,1.8,0.3V158.2z M36.9,164.1c0,0.7,0.2,1.4,0.6,1.9s0.9,0.8,1.6,0.8
		c0.6,0,1.1-0.2,1.5-0.7s0.6-1,0.6-1.7c0-0.8-0.2-1.4-0.6-1.8S39.7,162,39,162c-0.6,0-1.1,0.2-1.5,0.6S36.9,163.5,36.9,164.1z"/>
	<path class="st0" d="M43.5,162.5c0-1.9,0.3-3.3,0.9-4.2s1.5-1.4,2.6-1.4c2.2,0,3.3,1.8,3.3,5.4c0,1.8-0.3,3.1-0.9,4.1
		s-1.5,1.4-2.6,1.4c-1.1,0-1.9-0.5-2.5-1.4S43.5,164.2,43.5,162.5z M44.7,162.4c0,2.9,0.8,4.3,2.3,4.3c1.5,0,2.2-1.5,2.2-4.4
		c0-3.1-0.7-4.6-2.2-4.6C45.5,157.8,44.7,159.3,44.7,162.4z"/>
</g>
<g>
	<path class="st0" d="M42.4,215.2H41v2.8h-1.1v-2.8h-5v-0.8l4.7-7H41v6.8h1.4V215.2z M39.9,214.2v-4.7c0-0.3,0-0.7,0-1.1h0
		c0,0.1-0.2,0.4-0.4,0.8l-3.3,4.9H39.9z"/>
	<path class="st0" d="M43.5,212.9c0-1.9,0.3-3.3,0.9-4.2c0.6-1,1.5-1.4,2.6-1.4c2.2,0,3.3,1.8,3.3,5.4c0,1.8-0.3,3.1-0.9,4.1
		c-0.6,1-1.5,1.4-2.6,1.4c-1.1,0-1.9-0.5-2.5-1.4C43.8,215.9,43.5,214.6,43.5,212.9z M44.7,212.9c0,2.9,0.8,4.3,2.3,4.3
		c1.5,0,2.2-1.5,2.2-4.4c0-3.1-0.7-4.6-2.2-4.6C45.5,208.2,44.7,209.8,44.7,212.9z"/>
</g>
<g>
	<path class="st0" d="M41.8,268.4h-6.3v-1l3.1-3.1c1-1,1.6-1.8,1.9-2.2c0.2-0.5,0.4-1,0.4-1.5c0-0.6-0.2-1.1-0.5-1.4
		c-0.4-0.3-0.9-0.5-1.5-0.5c-0.9,0-1.9,0.4-2.7,1.2v-1.2c0.8-0.7,1.8-1,2.9-1c0.9,0,1.6,0.3,2.2,0.8s0.8,1.2,0.8,2.1
		c0,0.7-0.2,1.3-0.5,2c-0.4,0.6-1,1.5-2.1,2.5l-2.5,2.4v0h5V268.4z"/>
	<path class="st0" d="M43.5,263.3c0-1.9,0.3-3.3,0.9-4.2c0.6-1,1.5-1.4,2.6-1.4c2.2,0,3.3,1.8,3.3,5.4c0,1.8-0.3,3.1-0.9,4.1
		c-0.6,1-1.5,1.4-2.6,1.4c-1.1,0-1.9-0.5-2.5-1.4C43.8,266.3,43.5,265,43.5,263.3z M44.7,263.3c0,2.9,0.8,4.3,2.3,4.3
		c1.5,0,2.2-1.5,2.2-4.4c0-3.1-0.7-4.6-2.2-4.6C45.5,258.6,44.7,260.2,44.7,263.3z"/>
</g>
<g>
	<path class="st0" d="M43.5,313.8c0-1.9,0.3-3.3,0.9-4.2c0.6-1,1.5-1.4,2.6-1.4c2.2,0,3.3,1.8,3.3,5.4c0,1.8-0.3,3.1-0.9,4.1
		S48,319,46.8,319c-1.1,0-1.9-0.5-2.5-1.4C43.8,316.7,43.5,315.4,43.5,313.8z M44.7,313.7c0,2.9,0.8,4.3,2.3,4.3
		c1.5,0,2.2-1.5,2.2-4.4c0-3.1-0.7-4.6-2.2-4.6C45.5,309,44.7,310.6,44.7,313.7z"/>
</g>
<g>
	<path class="st0" d="M891,320.4h-0.7v-1.5c-1,0-1.9-0.2-2.5-0.6V317c0.3,0.3,0.7,0.5,1.2,0.6c0.5,0.2,1,0.3,1.4,0.2V314
		c-1.1-0.5-1.8-1-2.1-1.5s-0.4-0.9-0.4-1.5c0-0.7,0.2-1.3,0.7-1.8s1.1-0.9,1.8-1v-1.3h0.7v1.3c1,0,1.6,0.2,2,0.4v1.2
		c-0.5-0.4-1.1-0.6-2-0.6v4c0.9,0.5,1.6,0.9,2,1.3c0.4,0.4,0.6,1,0.6,1.6c0,0.7-0.2,1.3-0.7,1.8c-0.5,0.5-1.1,0.8-1.9,0.9V320.4z
		 M890.3,309.2c-0.4,0.1-0.8,0.3-1,0.6s-0.4,0.6-0.4,1s0.1,0.7,0.2,1c0.2,0.3,0.5,0.6,1.1,0.9V309.2z M891,317.8
		c1-0.2,1.4-0.7,1.4-1.6c0-0.7-0.5-1.3-1.4-1.8V317.8z"/>
	<path class="st0" d="M898.8,313.8c0-1.9,0.3-3.3,0.9-4.2c0.6-1,1.5-1.4,2.6-1.4c2.2,0,3.3,1.8,3.3,5.4c0,1.8-0.3,3.1-0.9,4.1
		c-0.6,1-1.5,1.4-2.6,1.4c-1.1,0-1.9-0.5-2.5-1.4C899,316.7,898.8,315.4,898.8,313.8z M899.9,313.7c0,2.9,0.8,4.3,2.3,4.3
		c1.5,0,2.2-1.5,2.2-4.4c0-3.1-0.7-4.6-2.2-4.6C900.7,309,899.9,310.6,899.9,313.7z"/>
	<path class="st0" d="M907.6,318.8v-10.6h3c0.9,0,1.6,0.2,2.1,0.7c0.5,0.4,0.8,1,0.8,1.8c0,0.6-0.2,1.1-0.5,1.6
		c-0.3,0.4-0.8,0.8-1.3,1v0c0.7,0.1,1.3,0.3,1.7,0.8c0.4,0.5,0.6,1.1,0.6,1.8c0,0.9-0.3,1.6-1,2.2c-0.6,0.6-1.5,0.8-2.4,0.8H907.6z
		 M908.8,309.3v3.5h1.3c0.7,0,1.2-0.2,1.6-0.5s0.6-0.8,0.6-1.4c0-1-0.7-1.6-2.1-1.6H908.8z M908.8,313.9v3.9h1.7
		c0.7,0,1.3-0.2,1.7-0.5c0.4-0.3,0.6-0.8,0.6-1.4c0-1.3-0.9-1.9-2.6-1.9H908.8z"/>
</g>
<g>
	<path class="st0" d="M891,270h-0.7v-1.5c-1,0-1.9-0.2-2.5-0.6v-1.2c0.3,0.2,0.7,0.5,1.2,0.6c0.5,0.2,1,0.3,1.4,0.2v-3.9
		c-1.1-0.5-1.8-1-2.1-1.5s-0.4-0.9-0.4-1.5c0-0.7,0.2-1.3,0.7-1.8s1.1-0.9,1.8-1v-1.3h0.7v1.3c1,0,1.6,0.2,2,0.4v1.2
		c-0.5-0.4-1.1-0.6-2-0.6v4c0.9,0.5,1.6,0.9,2,1.3c0.4,0.4,0.6,1,0.6,1.6c0,0.7-0.2,1.3-0.7,1.8c-0.5,0.5-1.1,0.8-1.9,0.9V270z
		 M890.3,258.8c-0.4,0.1-0.8,0.3-1,0.6s-0.4,0.6-0.4,1s0.1,0.7,0.2,1c0.2,0.3,0.5,0.6,1.1,0.9V258.8z M891,267.4
		c1-0.2,1.4-0.7,1.4-1.6c0-0.7-0.5-1.3-1.4-1.8V267.4z"/>
	<path class="st0" d="M898.8,263.3c0-1.9,0.3-3.3,0.9-4.2c0.6-1,1.5-1.4,2.6-1.4c2.2,0,3.3,1.8,3.3,5.4c0,1.8-0.3,3.1-0.9,4.1
		c-0.6,1-1.5,1.4-2.6,1.4c-1.1,0-1.9-0.5-2.5-1.4C899,266.3,898.8,265,898.8,263.3z M899.9,263.3c0,2.9,0.8,4.3,2.3,4.3
		c1.5,0,2.2-1.5,2.2-4.4c0-3.1-0.7-4.6-2.2-4.6C900.7,258.6,899.9,260.2,899.9,263.3z"/>
	<path class="st0" d="M907,267.8c0-0.2,0.1-0.4,0.2-0.6s0.3-0.2,0.6-0.2c0.2,0,0.4,0.1,0.6,0.2s0.2,0.3,0.2,0.6
		c0,0.2-0.1,0.4-0.2,0.6c-0.2,0.2-0.3,0.2-0.6,0.2c-0.2,0-0.4-0.1-0.6-0.2C907.1,268.2,907,268,907,267.8z"/>
	<path class="st0" d="M917,265.6h-1.4v2.8h-1.1v-2.8h-5v-0.8l4.7-7h1.4v6.8h1.4V265.6z M914.5,264.6V260c0-0.3,0-0.7,0-1.1h0
		c0,0.1-0.2,0.4-0.4,0.8l-3.3,4.9H914.5z"/>
	<path class="st0" d="M919,268.4v-10.6h3c0.9,0,1.6,0.2,2.1,0.7c0.5,0.4,0.8,1,0.8,1.8c0,0.6-0.2,1.1-0.5,1.6
		c-0.3,0.4-0.8,0.8-1.3,1v0c0.7,0.1,1.3,0.3,1.7,0.8c0.4,0.5,0.6,1.1,0.6,1.8c0,0.9-0.3,1.6-1,2.2c-0.6,0.6-1.5,0.8-2.4,0.8H919z
		 M920.1,258.9v3.5h1.3c0.7,0,1.2-0.2,1.6-0.5s0.6-0.8,0.6-1.4c0-1-0.7-1.6-2.1-1.6H920.1z M920.1,263.5v3.9h1.7
		c0.7,0,1.3-0.2,1.7-0.5c0.4-0.3,0.6-0.8,0.6-1.4c0-1.3-0.9-1.9-2.6-1.9H920.1z"/>
</g>
<g>
	<path class="st0" d="M891,219.5h-0.7V218c-1,0-1.9-0.2-2.5-0.6v-1.2c0.3,0.2,0.7,0.5,1.2,0.6c0.5,0.2,1,0.3,1.4,0.2v-3.9
		c-1.1-0.5-1.8-1-2.1-1.5s-0.4-0.9-0.4-1.5c0-0.7,0.2-1.3,0.7-1.8s1.1-0.9,1.8-1v-1.3h0.7v1.3c1,0,1.6,0.2,2,0.4v1.2
		c-0.5-0.4-1.1-0.6-2-0.6v4c0.9,0.5,1.6,0.9,2,1.3c0.4,0.4,0.6,1,0.6,1.6c0,0.7-0.2,1.3-0.7,1.8c-0.5,0.5-1.1,0.8-1.9,0.9V219.5z
		 M890.3,208.4c-0.4,0.1-0.8,0.3-1,0.6s-0.4,0.6-0.4,1s0.1,0.7,0.2,1c0.2,0.3,0.5,0.6,1.1,0.9V208.4z M891,217
		c1-0.2,1.4-0.7,1.4-1.6c0-0.7-0.5-1.3-1.4-1.8V217z"/>
	<path class="st0" d="M898.8,212.9c0-1.9,0.3-3.3,0.9-4.2c0.6-1,1.5-1.4,2.6-1.4c2.2,0,3.3,1.8,3.3,5.4c0,1.8-0.3,3.1-0.9,4.1
		c-0.6,1-1.5,1.4-2.6,1.4c-1.1,0-1.9-0.5-2.5-1.4C899,215.9,898.8,214.6,898.8,212.9z M899.9,212.9c0,2.9,0.8,4.3,2.3,4.3
		c1.5,0,2.2-1.5,2.2-4.4c0-3.1-0.7-4.6-2.2-4.6C900.7,208.2,899.9,209.8,899.9,212.9z"/>
	<path class="st0" d="M907,217.4c0-0.2,0.1-0.4,0.2-0.6s0.3-0.2,0.6-0.2c0.2,0,0.4,0.1,0.6,0.2s0.2,0.3,0.2,0.6
		c0,0.2-0.1,0.4-0.2,0.6c-0.2,0.2-0.3,0.2-0.6,0.2c-0.2,0-0.4-0.1-0.6-0.2C907.1,217.8,907,217.6,907,217.4z"/>
	<path class="st0" d="M912.5,212.4c-1.3-0.6-1.9-1.5-1.9-2.6c0-0.8,0.3-1.4,0.9-1.9c0.6-0.5,1.3-0.7,2.2-0.7c0.8,0,1.4,0.2,2,0.7
		c0.5,0.4,0.8,1,0.8,1.8c0,1.2-0.7,2.1-2,2.7v0c1.5,0.6,2.3,1.5,2.3,2.9c0,0.9-0.3,1.6-1,2.1c-0.6,0.5-1.5,0.8-2.6,0.8
		c-0.9,0-1.6-0.3-2.2-0.8c-0.6-0.5-0.9-1.2-0.9-2C910.2,214.1,911,213.1,912.5,212.4L912.5,212.4z M913.4,213
		c-1.4,0.5-2.1,1.3-2.1,2.4c0,0.6,0.2,1,0.6,1.3c0.4,0.3,0.9,0.5,1.6,0.5c0.6,0,1.1-0.2,1.5-0.5c0.4-0.3,0.6-0.8,0.6-1.3
		C915.7,214.3,914.9,213.5,913.4,213z M915.3,209.8c0-0.5-0.2-0.9-0.5-1.2c-0.3-0.3-0.7-0.4-1.3-0.4c-0.5,0-0.9,0.1-1.3,0.4
		c-0.4,0.3-0.5,0.7-0.5,1.1c0,0.9,0.6,1.6,1.7,2.1C914.7,211.4,915.3,210.7,915.3,209.8z"/>
	<path class="st0" d="M919,218v-10.6h3c0.9,0,1.6,0.2,2.1,0.7c0.5,0.4,0.8,1,0.8,1.8c0,0.6-0.2,1.1-0.5,1.6c-0.3,0.4-0.8,0.8-1.3,1
		v0c0.7,0.1,1.3,0.3,1.7,0.8c0.4,0.5,0.6,1.1,0.6,1.8c0,0.9-0.3,1.6-1,2.2c-0.6,0.6-1.5,0.8-2.4,0.8H919z M920.1,208.5v3.5h1.3
		c0.7,0,1.2-0.2,1.6-0.5s0.6-0.8,0.6-1.4c0-1-0.7-1.6-2.1-1.6H920.1z M920.1,213v3.9h1.7c0.7,0,1.3-0.2,1.7-0.5
		c0.4-0.3,0.6-0.8,0.6-1.4c0-1.3-0.9-1.9-2.6-1.9H920.1z"/>
</g>
<g>
	<path class="st0" d="M891,169.1h-0.7v-1.5c-1,0-1.9-0.2-2.5-0.6v-1.2c0.3,0.3,0.7,0.5,1.2,0.6s1,0.3,1.4,0.2v-3.9
		c-1.1-0.5-1.8-1-2.1-1.5s-0.4-0.9-0.4-1.5c0-0.7,0.2-1.3,0.7-1.8s1.1-0.9,1.8-1v-1.3h0.7v1.3c1,0,1.6,0.2,2,0.4v1.2
		c-0.5-0.4-1.1-0.6-2-0.6v4c0.9,0.5,1.6,0.9,2,1.3c0.4,0.4,0.6,1,0.6,1.6c0,0.7-0.2,1.3-0.7,1.8s-1.1,0.8-1.9,0.9V169.1z M890.3,158
		c-0.4,0.1-0.8,0.3-1,0.6s-0.4,0.6-0.4,1s0.1,0.7,0.2,1c0.2,0.3,0.5,0.6,1.1,0.9V158z M891,166.5c1-0.2,1.4-0.7,1.4-1.6
		c0-0.7-0.5-1.3-1.4-1.8V166.5z"/>
	<path class="st0" d="M905.4,167.6h-5.9v-1h2.4v-8.3l-2.5,0.7v-1.1l3.6-1.1v9.8h2.4V167.6z"/>
	<path class="st0" d="M907,166.9c0-0.2,0.1-0.4,0.2-0.6s0.3-0.2,0.6-0.2c0.2,0,0.4,0.1,0.6,0.2s0.2,0.3,0.2,0.6
		c0,0.2-0.1,0.4-0.2,0.6c-0.2,0.2-0.3,0.2-0.6,0.2c-0.2,0-0.4-0.1-0.6-0.2S907,167.2,907,166.9z"/>
	<path class="st0" d="M916.5,167.6h-6.3v-1l3.1-3.1c1-1,1.6-1.8,1.9-2.2c0.2-0.5,0.4-1,0.4-1.5c0-0.6-0.2-1.1-0.5-1.4
		c-0.4-0.3-0.9-0.5-1.5-0.5c-0.9,0-1.9,0.4-2.7,1.2v-1.2c0.8-0.7,1.8-1,2.9-1c0.9,0,1.6,0.3,2.2,0.8c0.5,0.5,0.8,1.2,0.8,2.1
		c0,0.7-0.2,1.3-0.5,2c-0.4,0.6-1,1.5-2.1,2.5l-2.5,2.4v0h5V167.6z"/>
	<path class="st0" d="M919,167.6V157h3c0.9,0,1.6,0.2,2.1,0.7s0.8,1,0.8,1.8c0,0.6-0.2,1.1-0.5,1.6c-0.3,0.4-0.8,0.8-1.3,1v0
		c0.7,0.1,1.3,0.3,1.7,0.8c0.4,0.5,0.6,1.1,0.6,1.8c0,0.9-0.3,1.6-1,2.2c-0.6,0.6-1.5,0.8-2.4,0.8H919z M920.1,158.1v3.5h1.3
		c0.7,0,1.2-0.2,1.6-0.5s0.6-0.8,0.6-1.4c0-1-0.7-1.6-2.1-1.6H920.1z M920.1,162.6v3.9h1.7c0.7,0,1.3-0.2,1.7-0.5
		c0.4-0.3,0.6-0.8,0.6-1.4c0-1.3-0.9-1.9-2.6-1.9H920.1z"/>
</g>
<g>
	<path class="st0" d="M891,118.7h-0.7v-1.5c-1,0-1.9-0.2-2.5-0.6v-1.2c0.3,0.3,0.7,0.5,1.2,0.6s1,0.3,1.4,0.2v-3.9
		c-1.1-0.5-1.8-1-2.1-1.5s-0.4-0.9-0.4-1.5c0-0.7,0.2-1.3,0.7-1.8s1.1-0.9,1.8-1v-1.3h0.7v1.3c1,0,1.6,0.2,2,0.4v1.2
		c-0.5-0.4-1.1-0.6-2-0.6v4c0.9,0.5,1.6,0.9,2,1.3c0.4,0.4,0.6,1,0.6,1.6c0,0.7-0.2,1.3-0.7,1.8s-1.1,0.8-1.9,0.9V118.7z
		 M890.3,107.6c-0.4,0.1-0.8,0.3-1,0.6s-0.4,0.6-0.4,1s0.1,0.7,0.2,1c0.2,0.3,0.5,0.6,1.1,0.9V107.6z M891,116.1
		c1-0.2,1.4-0.7,1.4-1.6c0-0.7-0.5-1.3-1.4-1.8V116.1z"/>
	<path class="st0" d="M905.4,117.2h-5.9v-1h2.4v-8.3l-2.5,0.7v-1.1l3.6-1.1v9.8h2.4V117.2z"/>
	<path class="st0" d="M907,116.5c0-0.2,0.1-0.4,0.2-0.6s0.3-0.2,0.6-0.2c0.2,0,0.4,0.1,0.6,0.2s0.2,0.3,0.2,0.6
		c0,0.2-0.1,0.4-0.2,0.6c-0.2,0.2-0.3,0.2-0.6,0.2c-0.2,0-0.4-0.1-0.6-0.2S907,116.8,907,116.5z"/>
	<path class="st0" d="M916.3,107.8c-0.6-0.3-1.1-0.4-1.7-0.4c-1,0-1.7,0.4-2.3,1.3s-0.8,2-0.8,3.4h0c0.5-1,1.3-1.5,2.4-1.5
		c0.9,0,1.7,0.3,2.2,0.9s0.8,1.4,0.8,2.4c0,1-0.3,1.8-0.9,2.5s-1.4,1-2.4,1c-1.1,0-1.9-0.4-2.5-1.3c-0.6-0.9-0.9-2-0.9-3.5
		c0-1.8,0.4-3.3,1.1-4.4s1.8-1.7,3.2-1.7c0.7,0,1.3,0.1,1.8,0.3V107.8z M911.5,113.7c0,0.7,0.2,1.4,0.6,1.9c0.4,0.5,0.9,0.8,1.6,0.8
		c0.6,0,1.1-0.2,1.5-0.7s0.6-1,0.6-1.7c0-0.8-0.2-1.4-0.6-1.8s-0.9-0.6-1.5-0.6c-0.6,0-1.1,0.2-1.5,0.6
		C911.7,112.6,911.5,113.1,911.5,113.7z"/>
	<path class="st0" d="M919,117.2v-10.6h3c0.9,0,1.6,0.2,2.1,0.7s0.8,1,0.8,1.8c0,0.6-0.2,1.1-0.5,1.6c-0.3,0.4-0.8,0.8-1.3,1v0
		c0.7,0.1,1.3,0.3,1.7,0.8c0.4,0.5,0.6,1.1,0.6,1.8c0,0.9-0.3,1.6-1,2.2c-0.6,0.6-1.5,0.8-2.4,0.8H919z M920.1,107.7v3.5h1.3
		c0.7,0,1.2-0.2,1.6-0.5s0.6-0.8,0.6-1.4c0-1-0.7-1.6-2.1-1.6H920.1z M920.1,112.2v3.9h1.7c0.7,0,1.3-0.2,1.7-0.5
		c0.4-0.3,0.6-0.8,0.6-1.4c0-1.3-0.9-1.9-2.6-1.9H920.1z"/>
</g>
<g>
	<path class="st0" d="M891,68.3h-0.7v-1.5c-1,0-1.9-0.2-2.5-0.6v-1.2c0.3,0.3,0.7,0.5,1.2,0.6s1,0.3,1.4,0.2v-3.9
		c-1.1-0.5-1.8-1-2.1-1.5s-0.4-0.9-0.4-1.5c0-0.7,0.2-1.3,0.7-1.8s1.1-0.9,1.8-1v-1.3h0.7v1.3c1,0,1.6,0.2,2,0.4v1.2
		c-0.5-0.4-1.1-0.6-2-0.6v4c0.9,0.5,1.6,0.9,2,1.3c0.4,0.4,0.6,1,0.6,1.6c0,0.7-0.2,1.3-0.7,1.8s-1.1,0.8-1.9,0.9V68.3z M890.3,57.1
		c-0.4,0.1-0.8,0.3-1,0.6s-0.4,0.6-0.4,1s0.1,0.7,0.2,1c0.2,0.3,0.5,0.6,1.1,0.9V57.1z M891,65.7c1-0.2,1.4-0.7,1.4-1.6
		c0-0.7-0.5-1.3-1.4-1.8V65.7z"/>
	<path class="st0" d="M905.2,66.8h-6.3v-1l3.1-3.1c1-1,1.6-1.8,1.9-2.2c0.2-0.5,0.4-1,0.4-1.5c0-0.6-0.2-1.1-0.5-1.4
		c-0.4-0.3-0.9-0.5-1.5-0.5c-0.9,0-1.8,0.4-2.7,1.2V57c0.8-0.7,1.8-1,2.9-1c0.9,0,1.6,0.3,2.2,0.8c0.5,0.5,0.8,1.2,0.8,2.1
		c0,0.7-0.2,1.3-0.5,2c-0.4,0.6-1,1.5-2.1,2.5l-2.5,2.4v0h5V66.8z"/>
	<path class="st0" d="M907.6,66.8V56.2h3c0.9,0,1.6,0.2,2.1,0.7s0.8,1,0.8,1.8c0,0.6-0.2,1.1-0.5,1.6c-0.3,0.4-0.8,0.8-1.3,1v0
		c0.7,0.1,1.3,0.3,1.7,0.8c0.4,0.5,0.6,1.1,0.6,1.8c0,0.9-0.3,1.6-1,2.2c-0.6,0.6-1.5,0.8-2.4,0.8H907.6z M908.8,57.2v3.5h1.3
		c0.7,0,1.2-0.2,1.6-0.5s0.6-0.8,0.6-1.4c0-1-0.7-1.6-2.1-1.6H908.8z M908.8,61.8v3.9h1.7c0.7,0,1.3-0.2,1.7-0.5
		c0.4-0.3,0.6-0.8,0.6-1.4c0-1.3-0.9-1.9-2.6-1.9H908.8z"/>
</g>
<rect x="104" y="44" class="st1" width="12" height="2"/>
<rect x="104" y="69" class="st2" width="12" height="12"/>
<g>
	<path class="st0" d="M136.9,55.3h-1.6l-5.9-9.2c-0.1-0.2-0.2-0.4-0.4-0.7h0c0,0.2,0.1,0.7,0.1,1.5v8.3h-1.3V44h1.7l5.8,9.1
		c0.3,0.5,0.4,0.7,0.5,0.8h0c-0.1-0.4-0.1-0.9-0.1-1.7V44h1.3V55.3z"/>
	<path class="st0" d="M146.2,55.3H145v-1.3h0c-0.5,1-1.4,1.5-2.5,1.5c-1.9,0-2.9-1.1-2.9-3.4v-4.8h1.2v4.6c0,1.7,0.7,2.6,2,2.6
		c0.7,0,1.2-0.2,1.6-0.7s0.6-1.1,0.6-1.9v-4.7h1.2V55.3z"/>
	<path class="st0" d="M160.3,55.3h-1.2v-4.7c0-0.9-0.1-1.6-0.4-2c-0.3-0.4-0.8-0.6-1.4-0.6c-0.6,0-1,0.3-1.4,0.8s-0.6,1.1-0.6,1.8
		v4.6H154v-4.8c0-1.6-0.6-2.4-1.9-2.4c-0.6,0-1.1,0.2-1.4,0.7s-0.6,1.1-0.6,1.9v4.6h-1.2v-8.1h1.2v1.3h0c0.6-1,1.4-1.5,2.5-1.5
		c0.5,0,1,0.2,1.4,0.5c0.4,0.3,0.7,0.7,0.9,1.2c0.6-1.1,1.5-1.7,2.7-1.7c1.8,0,2.7,1.1,2.7,3.3V55.3z"/>
	<path class="st0" d="M164,54.1v1.2h-1.2v-12h1.2v5.3h0c0.6-1.1,1.6-1.6,2.8-1.6c1,0,1.8,0.4,2.4,1.1s0.9,1.7,0.9,2.9
		c0,1.3-0.3,2.4-1,3.2c-0.7,0.8-1.6,1.2-2.7,1.2C165.4,55.5,164.6,55.1,164,54.1L164,54.1z M164,52c0,0.7,0.2,1.3,0.7,1.7
		s1,0.7,1.7,0.7c0.8,0,1.4-0.3,1.9-0.9c0.5-0.6,0.7-1.5,0.7-2.5c0-0.9-0.2-1.6-0.6-2.1c-0.4-0.5-1-0.8-1.7-0.8
		c-0.7,0-1.4,0.3-1.8,0.8c-0.5,0.5-0.7,1.2-0.7,2V52z"/>
	<path class="st0" d="M178.7,51.6H173c0,0.9,0.3,1.6,0.7,2.1s1.1,0.7,1.9,0.7c0.9,0,1.8-0.3,2.5-0.9v1.2c-0.7,0.5-1.6,0.8-2.8,0.8
		c-1.1,0-2-0.4-2.7-1.1c-0.7-0.7-1-1.8-1-3.1c0-1.2,0.4-2.2,1.1-3.1c0.7-0.8,1.6-1.2,2.6-1.2c1,0,1.9,0.3,2.4,1s0.9,1.6,0.9,2.9
		V51.6z M177.4,50.5c0-0.8-0.2-1.4-0.5-1.8s-0.9-0.6-1.5-0.6c-0.6,0-1.1,0.2-1.6,0.6c-0.4,0.4-0.7,1-0.8,1.8H177.4z"/>
	<path class="st0" d="M184.9,48.5c-0.2-0.2-0.5-0.3-1-0.3c-0.6,0-1,0.3-1.4,0.8c-0.4,0.5-0.6,1.3-0.6,2.1v4.1h-1.2v-8.1h1.2v1.7h0
		c0.2-0.6,0.5-1,0.8-1.3s0.8-0.5,1.3-0.5c0.3,0,0.6,0,0.8,0.1V48.5z"/>
	<path class="st0" d="M189.5,51.4c0-1.3,0.4-2.4,1.1-3.2c0.7-0.8,1.7-1.2,3-1.2c1.2,0,2.1,0.4,2.8,1.1c0.7,0.7,1,1.8,1,3.1
		c0,1.3-0.4,2.3-1.1,3.1s-1.7,1.2-2.9,1.2c-1.2,0-2.1-0.4-2.8-1.1S189.5,52.6,189.5,51.4z M190.7,51.3c0,1,0.2,1.7,0.8,2.3
		c0.5,0.6,1.2,0.9,2,0.9c0.8,0,1.5-0.3,2-0.8s0.7-1.3,0.7-2.3c0-1-0.2-1.8-0.7-2.4c-0.5-0.6-1.1-0.8-2-0.8c-0.8,0-1.5,0.3-2,0.9
		C191,49.5,190.7,50.3,190.7,51.3z"/>
	<path class="st0" d="M203.1,44.4c-0.3-0.1-0.5-0.2-0.9-0.2c-0.9,0-1.4,0.6-1.4,1.7v1.3h1.9v1.1h-1.9v7h-1.2v-7h-1.4v-1.1h1.4v-1.3
		c0-0.9,0.2-1.5,0.7-2c0.5-0.5,1.1-0.7,1.8-0.7c0.4,0,0.7,0,0.9,0.1V44.4z"/>
	<path class="st0" d="M214.8,55.3h-1.2v-1.4h0c-0.6,1.1-1.5,1.6-2.8,1.6c-1,0-1.8-0.4-2.4-1.1s-0.9-1.7-0.9-3c0-1.3,0.3-2.4,1-3.2
		c0.7-0.8,1.6-1.2,2.7-1.2s1.9,0.4,2.4,1.3h0v-5h1.2V55.3z M213.6,50.5c0-0.7-0.2-1.2-0.7-1.7s-1-0.7-1.7-0.7
		c-0.8,0-1.4,0.3-1.9,0.9c-0.5,0.6-0.7,1.4-0.7,2.4c0,0.9,0.2,1.7,0.7,2.2c0.4,0.6,1,0.8,1.8,0.8c0.7,0,1.3-0.3,1.8-0.8
		s0.7-1.2,0.7-2V50.5z"/>
	<path class="st0" d="M223.9,51.6h-5.7c0,0.9,0.3,1.6,0.7,2.1s1.1,0.7,1.9,0.7c0.9,0,1.8-0.3,2.5-0.9v1.2c-0.7,0.5-1.6,0.8-2.8,0.8
		c-1.1,0-2-0.4-2.7-1.1c-0.7-0.7-1-1.8-1-3.1c0-1.2,0.4-2.2,1.1-3.1c0.7-0.8,1.6-1.2,2.6-1.2c1,0,1.9,0.3,2.4,1s0.9,1.6,0.9,2.9
		V51.6z M222.6,50.5c0-0.8-0.2-1.4-0.5-1.8s-0.9-0.6-1.5-0.6c-0.6,0-1.1,0.2-1.6,0.6c-0.4,0.4-0.7,1-0.8,1.8H222.6z"/>
	<path class="st0" d="M226.1,47.8c0.8-0.5,1.7-0.8,2.7-0.8c1.9,0,2.8,1,2.8,3v5.3h-1.2v-1.3h0c-0.6,1-1.4,1.5-2.5,1.5
		c-0.8,0-1.4-0.2-1.9-0.6c-0.5-0.4-0.7-1-0.7-1.7c0-1.5,0.9-2.4,2.7-2.6l2.4-0.4c0-1.4-0.6-2.1-1.7-2.1c-1,0-1.9,0.3-2.6,1V47.8z
		 M228.4,51.5c-0.7,0.1-1.2,0.3-1.4,0.5c-0.3,0.2-0.4,0.6-0.4,1.1c0,0.4,0.1,0.7,0.4,1c0.3,0.3,0.7,0.4,1.1,0.4
		c0.6,0,1.2-0.2,1.6-0.7s0.6-1,0.6-1.7v-0.8L228.4,51.5z"/>
	<path class="st0" d="M234.1,55.3v-12h1.2v12H234.1z"/>
	<path class="st0" d="M237.5,53.7c0.7,0.5,1.5,0.8,2.3,0.8c1.2,0,1.7-0.4,1.7-1.2c0-0.3-0.1-0.6-0.4-0.8c-0.3-0.2-0.7-0.5-1.5-0.7
		c-0.9-0.3-1.5-0.7-1.8-1s-0.4-0.8-0.4-1.3c0-0.7,0.3-1.3,0.9-1.7c0.6-0.4,1.3-0.6,2.2-0.6c0.7,0,1.3,0.1,1.9,0.4v1.3
		c-0.6-0.4-1.3-0.6-2.1-0.6c-0.5,0-0.9,0.1-1.2,0.3c-0.3,0.2-0.5,0.5-0.5,0.8s0.1,0.6,0.3,0.8c0.2,0.2,0.7,0.4,1.4,0.7
		c0.9,0.4,1.5,0.7,1.9,1.1c0.3,0.4,0.5,0.8,0.5,1.3c0,0.7-0.3,1.3-0.9,1.7c-0.6,0.4-1.4,0.6-2.3,0.6c-0.8,0-1.6-0.2-2.1-0.5V53.7z"
		/>
	<path class="st0" d="M265.3,54.9l-0.5,1.3c-2.5-0.5-4.6-1.3-6.2-2.4c-1.7,1.1-3.7,1.9-6.2,2.3l-0.5-1.3c2.1-0.3,4-0.9,5.6-1.8
		c-0.9-0.9-1.6-2.1-2.2-3.6l1.2-0.5c0.6,1.5,1.3,2.6,2.1,3.3c0.8-0.7,1.5-1.8,2.2-3.2l1.2,0.4c-0.7,1.5-1.5,2.7-2.4,3.6
		C261.1,54,263,54.6,265.3,54.9z M257.1,46.6c-1.1,1.6-2.4,3-4.1,4.1l-1-1c1.5-0.9,2.8-2.2,3.9-3.8L257.1,46.6z M265,44.5l0,1.3
		h-12.7v-1.3h5.8c-0.2-0.4-0.4-0.8-0.6-1.2l1.4-0.4c0.3,0.6,0.6,1.1,0.7,1.6H265z M265,50.1l-1,0.8c-1-1.3-2.3-2.6-3.9-4l1-0.8
		C262.8,47.5,264.1,48.8,265,50.1z"/>
	<path class="st0" d="M279.8,49.6c0,1.1-0.1,2.2-0.2,3.2s-0.2,1.7-0.2,2s-0.2,0.5-0.4,0.7c-0.2,0.2-0.4,0.3-0.7,0.4
		s-0.7,0.1-1.2,0.1c-0.3,0-0.7,0-1.1,0l-0.3-1.3c0.6,0,1,0,1.3,0c0.4,0,0.7,0,0.8-0.1c0.1-0.1,0.2-0.2,0.2-0.3s0.1-0.6,0.2-1.4
		c0.1-0.8,0.1-1.6,0.2-2.3h-1.2c-1,2.1-2.9,3.9-5.7,5.3l-0.9-0.9c2.5-1.1,4.2-2.6,5.3-4.4H274c-1.4,1.8-3.4,3.1-5.9,4.1l-0.8-1.1
		c2-0.7,3.7-1.7,5-3h-2.3c-0.7,0.6-1.5,1.1-2.3,1.5l-0.8-1c1.5-0.7,2.8-1.6,3.8-2.8h-1.9v-5.2h9.7v5.2h-6.3
		c-0.3,0.4-0.5,0.8-0.8,1.1H279.8z M277.1,45.3v-0.8h-6.9v0.8H277.1z M277.1,47.3v-0.9h-6.9v0.9H277.1z"/>
	<path class="st0" d="M286.2,43.2c-0.2,0.5-0.4,1.2-0.8,2l-0.5,1.1v9.7h-1.4v-7.3c-0.3,0.3-0.6,0.7-1,1.2l-0.7-1.5
		c1.1-1.3,2.1-3.2,3-5.5L286.2,43.2z M295.1,51.6h-3.9v4.5h-1.4v-4.5h-4.3v-1.3h4.3V47h-2.1c-0.4,1-0.9,1.8-1.3,2.4
		c-0.3-0.2-0.7-0.5-1.2-0.8c0.9-1.3,1.6-3.1,2.1-5.2l1.4,0.3c-0.1,0.5-0.3,1.2-0.6,2.1h1.6V43h1.4v2.7h3.6V47h-3.6v3.3h3.9V51.6z"/>
	<path class="st0" d="M305,52.8h-1.8c-0.4,0.5-0.7,0.9-0.9,1.2c0.8,0.3,1.5,0.6,2.1,0.9l-0.7,1c-1-0.5-1.8-0.8-2.3-1
		c-1.3,0.7-2.6,1.1-3.8,1.3l-0.5-1.1c1-0.1,2-0.4,2.7-0.7c-0.8-0.3-1.4-0.5-1.9-0.6c0.5-0.5,0.8-0.8,0.9-1h-1.6v-1h2.4L300,51h-2.3
		v-2.5h2.6v-0.7h-2.7v-1.6H297v-1h0.7v-1.6h2.7V43h1.2v0.6h2.6v1.6h0.7v1h-0.7v1.6h-2.6v0.7h2.7V51h-2.7l-0.5,0.9h1.4
		c0.1-0.1,0.2-0.3,0.2-0.5l1.2,0.3c0,0.1,0,0.2-0.1,0.2h1.3V52.8z M300.4,45.2v-0.7h-1.5v0.7H300.4z M300.4,46.9v-0.7h-1.5v0.7
		H300.4z M300.4,50v-0.6H299V50H300.4z M301.7,52.8h-1.5c0,0-0.1,0.2-0.4,0.4l1.2,0.4C301.3,53.4,301.6,53.1,301.7,52.8z M303,45.2
		v-0.7h-1.4v0.7H303z M303,46.9v-0.7h-1.4v0.7H303z M303.1,50v-0.6h-1.5V50H303.1z M310.3,55.1l-0.7,1.1c-1-0.8-1.8-1.5-2.2-2.2
		c-0.6,0.8-1.3,1.6-2.1,2.2l-0.9-1c0.9-0.8,1.7-1.6,2.2-2.4c-0.5-0.9-0.9-1.9-1.1-3l1.1-0.6c0.2,0.9,0.4,1.6,0.6,2.1
		c0.4-1.2,0.6-2.9,0.6-4.9h-1.1c-0.5,1.4-0.9,2.4-1.4,3.2l-0.9-1.1c0.8-1.5,1.4-3.4,1.7-5.6l1.3,0.2c-0.1,0.4-0.2,1.1-0.4,2h2.9v1.2
		h-0.8c-0.1,2.7-0.5,4.9-1.1,6.4C308.7,53.7,309.4,54.5,310.3,55.1z"/>
	<path class="st0" d="M314.7,57.9c-1.7-1.9-2.5-4.2-2.5-6.9c0-2.7,0.8-5,2.5-7h1.5c-1.6,2-2.4,4.4-2.4,7c0,2.6,0.8,4.9,2.4,6.9
		H314.7z"/>
	<path class="st0" d="M330.4,55.7H319v-1.3h5v-3.8h-3.2c-0.9,1.5-1.8,2.7-2.8,3.6l-0.9-1.1c1.8-1.7,3.1-3.9,3.9-6.6h-3.6v-1.3h3.9
		c0.2-0.7,0.3-1.5,0.4-2.4l1.4,0.2c-0.1,0.5-0.2,1.3-0.4,2.2h7.4v1.3h-7.7c-0.4,1.2-0.7,2.1-1,2.8h8v1.3h-4.1v3.8h4.9L330.4,55.7z"
		/>
	<path class="st0" d="M338.3,54.2h-2.4v1.9h-1.2v-1.9h-2.3V53h2.3v-0.9h-2v-5.9h2v-0.9h-2.4v-1.2h2.4V43h1.2v1.1h2.4v1.2h-2.4v0.9
		h2.1v5.9h-2.1V53h2.4V54.2z M334.7,48.6v-1.3h-0.8v1.3H334.7z M334.7,51v-1.3h-0.8V51H334.7z M336.8,48.6v-1.3h-0.8v1.3H336.8z
		 M336.8,51v-1.3h-0.8V51H336.8z M345,56.1h-1.3v-0.6h-3.6v0.6h-1.3V45.3h2.5V43h1.3v2.3h2.4V56.1z M341.3,49.7v-3.1h-1.2v3.1H341.3
		z M341.3,54.2v-3.3h-1.2v3.3H341.3z M343.7,49.7v-3.1h-1.2v3.1H343.7z M343.7,54.2v-3.3h-1.2v3.3H343.7z"/>
	<path class="st0" d="M346.4,57.9c1.6-2,2.5-4.3,2.5-6.9c0-2.6-0.8-5-2.5-7h1.5c1.7,2,2.5,4.3,2.5,7c0,2.7-0.8,5-2.5,6.9H346.4z"/>
</g>
<g>
	<path class="st0" d="M130.2,69.4h-1.1v9.2h1.1v1.1h-3.5v-1.1h1.1v-9.2h-1.1v-1.1h3.5V69.4z"/>
	<path class="st0" d="M138.6,79.7h-1.2V75c0-1.7-0.6-2.6-1.9-2.6c-0.7,0-1.2,0.3-1.6,0.8s-0.6,1.1-0.6,1.9v4.6h-1.2v-8.1h1.2v1.4h0
		c0.6-1,1.5-1.5,2.7-1.5c0.9,0,1.6,0.3,2,0.9s0.7,1.4,0.7,2.5V79.7z"/>
	<path class="st0" d="M147.3,71.6l-3.2,8.1h-1.2l-3.1-8.1h1.3l2.1,5.9c0.2,0.5,0.3,0.8,0.3,1.1h0c0.1-0.4,0.1-0.8,0.2-1.1l2.2-6
		H147.3z"/>
	<path class="st0" d="M155.1,75.9h-5.7c0,0.9,0.3,1.6,0.7,2.1s1.1,0.7,1.9,0.7c0.9,0,1.8-0.3,2.5-0.9v1.2c-0.7,0.5-1.6,0.8-2.8,0.8
		c-1.1,0-2-0.4-2.7-1.1c-0.7-0.7-1-1.8-1-3.1c0-1.2,0.4-2.2,1.1-3.1c0.7-0.8,1.6-1.2,2.6-1.2c1,0,1.9,0.3,2.4,1s0.9,1.6,0.9,2.9
		V75.9z M153.8,74.8c0-0.8-0.2-1.4-0.5-1.8s-0.9-0.6-1.5-0.6c-0.6,0-1.1,0.2-1.6,0.6c-0.4,0.4-0.7,1-0.8,1.8H153.8z"/>
	<path class="st0" d="M156.6,78c0.7,0.5,1.5,0.8,2.3,0.8c1.2,0,1.7-0.4,1.7-1.2c0-0.3-0.1-0.6-0.4-0.8c-0.3-0.2-0.7-0.5-1.5-0.7
		c-0.9-0.3-1.5-0.7-1.8-1s-0.4-0.8-0.4-1.3c0-0.7,0.3-1.3,0.9-1.7c0.6-0.4,1.3-0.6,2.2-0.6c0.7,0,1.3,0.1,1.9,0.4V73
		c-0.6-0.4-1.3-0.6-2.1-0.6c-0.5,0-0.9,0.1-1.2,0.3c-0.3,0.2-0.5,0.5-0.5,0.8s0.1,0.6,0.3,0.8c0.2,0.2,0.7,0.4,1.4,0.7
		c0.9,0.4,1.5,0.7,1.9,1.1c0.3,0.4,0.5,0.8,0.5,1.3c0,0.7-0.3,1.3-0.9,1.7c-0.6,0.4-1.4,0.6-2.3,0.6c-0.8,0-1.6-0.2-2.1-0.5V78z"/>
	<path class="st0" d="M167.6,79.6c-0.3,0.2-0.7,0.3-1.2,0.3c-1.4,0-2.1-0.8-2.1-2.4v-4.9h-1.4v-1.1h1.4v-2l1.2-0.4v2.4h2.1v1.1h-2.1
		v4.7c0,0.6,0.1,0.9,0.3,1.2s0.5,0.4,0.9,0.4c0.3,0,0.6-0.1,0.8-0.3V79.6z"/>
	<path class="st0" d="M180.8,79.7h-1.2V75c0-0.9-0.1-1.6-0.4-2c-0.3-0.4-0.8-0.6-1.4-0.6c-0.6,0-1,0.3-1.4,0.8s-0.6,1.1-0.6,1.8v4.6
		h-1.2v-4.8c0-1.6-0.6-2.4-1.9-2.4c-0.6,0-1.1,0.2-1.4,0.7s-0.6,1.1-0.6,1.9v4.6h-1.2v-8.1h1.2v1.3h0c0.6-1,1.4-1.5,2.5-1.5
		c0.5,0,1,0.2,1.4,0.5c0.4,0.3,0.7,0.7,0.9,1.2c0.6-1.1,1.5-1.7,2.7-1.7c1.8,0,2.7,1.1,2.7,3.3V79.7z"/>
	<path class="st0" d="M189.7,75.9H184c0,0.9,0.3,1.6,0.7,2.1s1.1,0.7,1.9,0.7c0.9,0,1.8-0.3,2.5-0.9v1.2c-0.7,0.5-1.6,0.8-2.8,0.8
		c-1.1,0-2-0.4-2.7-1.1c-0.7-0.7-1-1.8-1-3.1c0-1.2,0.4-2.2,1.1-3.1c0.7-0.8,1.6-1.2,2.6-1.2c1,0,1.9,0.3,2.4,1s0.9,1.6,0.9,2.9
		V75.9z M188.5,74.8c0-0.8-0.2-1.4-0.5-1.8s-0.9-0.6-1.5-0.6c-0.6,0-1.1,0.2-1.6,0.6c-0.4,0.4-0.7,1-0.8,1.8H188.5z"/>
	<path class="st0" d="M198.4,79.7h-1.2V75c0-1.7-0.6-2.6-1.9-2.6c-0.7,0-1.2,0.3-1.6,0.8s-0.6,1.1-0.6,1.9v4.6h-1.2v-8.1h1.2v1.4h0
		c0.6-1,1.5-1.5,2.7-1.5c0.9,0,1.6,0.3,2,0.9s0.7,1.4,0.7,2.5V79.7z"/>
	<path class="st0" d="M204.5,79.6c-0.3,0.2-0.7,0.3-1.2,0.3c-1.4,0-2.1-0.8-2.1-2.4v-4.9h-1.4v-1.1h1.4v-2l1.2-0.4v2.4h2.1v1.1h-2.1
		v4.7c0,0.6,0.1,0.9,0.3,1.2s0.5,0.4,0.9,0.4c0.3,0,0.6-0.1,0.8-0.3V79.6z"/>
	<path class="st0" d="M210.2,72.1c0.8-0.5,1.7-0.8,2.7-0.8c1.9,0,2.8,1,2.8,3v5.3h-1.2v-1.3h0c-0.6,1-1.4,1.5-2.5,1.5
		c-0.8,0-1.4-0.2-1.9-0.6c-0.5-0.4-0.7-1-0.7-1.7c0-1.5,0.9-2.4,2.7-2.6l2.4-0.4c0-1.4-0.6-2.1-1.7-2.1c-1,0-1.9,0.3-2.6,1V72.1z
		 M212.6,75.8c-0.7,0.1-1.2,0.3-1.4,0.5c-0.3,0.2-0.4,0.6-0.4,1.1c0,0.4,0.1,0.7,0.4,1c0.3,0.3,0.7,0.4,1.1,0.4
		c0.6,0,1.2-0.2,1.6-0.7s0.6-1,0.6-1.7v-0.8L212.6,75.8z"/>
	<path class="st0" d="M229.7,79.7h-1.2V75c0-0.9-0.1-1.6-0.4-2c-0.3-0.4-0.8-0.6-1.4-0.6c-0.6,0-1,0.3-1.4,0.8s-0.6,1.1-0.6,1.8v4.6
		h-1.2v-4.8c0-1.6-0.6-2.4-1.9-2.4c-0.6,0-1.1,0.2-1.4,0.7s-0.6,1.1-0.6,1.9v4.6h-1.2v-8.1h1.2v1.3h0c0.6-1,1.4-1.5,2.5-1.5
		c0.5,0,1,0.2,1.4,0.5c0.4,0.3,0.7,0.7,0.9,1.2c0.6-1.1,1.5-1.7,2.7-1.7c1.8,0,2.7,1.1,2.7,3.3V79.7z"/>
	<path class="st0" d="M231.6,75.7c0-1.3,0.4-2.4,1.1-3.2c0.7-0.8,1.7-1.2,3-1.2c1.2,0,2.1,0.4,2.8,1.1c0.7,0.7,1,1.8,1,3.1
		c0,1.3-0.4,2.3-1.1,3.1s-1.7,1.2-2.9,1.2c-1.2,0-2.1-0.4-2.8-1.1S231.6,77,231.6,75.7z M232.8,75.7c0,1,0.2,1.7,0.8,2.3
		c0.5,0.6,1.2,0.9,2,0.9c0.8,0,1.5-0.3,2-0.8s0.7-1.3,0.7-2.3c0-1-0.2-1.8-0.7-2.4c-0.5-0.6-1.1-0.8-2-0.8c-0.8,0-1.5,0.3-2,0.9
		C233.1,73.9,232.8,74.7,232.8,75.7z"/>
	<path class="st0" d="M248.1,79.7h-1.2v-1.3h0c-0.5,1-1.4,1.5-2.5,1.5c-1.9,0-2.9-1.1-2.9-3.4v-4.8h1.2v4.6c0,1.7,0.7,2.6,2,2.6
		c0.7,0,1.2-0.2,1.6-0.7s0.6-1.1,0.6-1.9v-4.7h1.2V79.7z"/>
	<path class="st0" d="M257.4,79.7h-1.2V75c0-1.7-0.6-2.6-1.9-2.6c-0.7,0-1.2,0.3-1.6,0.8S252,74.3,252,75v4.6h-1.2v-8.1h1.2v1.4h0
		c0.6-1,1.5-1.5,2.7-1.5c0.9,0,1.6,0.3,2,0.9s0.7,1.4,0.7,2.5V79.7z"/>
	<path class="st0" d="M263.5,79.6c-0.3,0.2-0.7,0.3-1.2,0.3c-1.4,0-2.1-0.8-2.1-2.4v-4.9h-1.4v-1.1h1.4v-2l1.2-0.4v2.4h2.1v1.1h-2.1
		v4.7c0,0.6,0.1,0.9,0.3,1.2s0.5,0.4,0.9,0.4c0.3,0,0.6-0.1,0.8-0.3V79.6z"/>
	<path class="st0" d="M267.5,82.2c-1.6-1.9-2.4-4.2-2.4-6.9c0-2.8,0.8-5.1,2.4-7h1.1c-1.7,2-2.5,4.3-2.5,7c0,2.6,0.8,5,2.5,6.9
		H267.5z"/>
	<path class="st0" d="M273.6,81.3h-0.8v-1.7c-1.1,0-2-0.2-2.7-0.7v-1.3c0.3,0.3,0.7,0.5,1.3,0.7s1,0.3,1.5,0.3v-4.1
		c-1.2-0.6-1.9-1.1-2.3-1.6c-0.3-0.5-0.5-1-0.5-1.6c0-0.7,0.3-1.4,0.8-2c0.5-0.6,1.2-0.9,2-1v-1.4h0.8v1.4c1,0,1.7,0.2,2.1,0.4V70
		c-0.5-0.4-1.2-0.6-2.1-0.7v4.3c1,0.5,1.7,1,2.1,1.4c0.5,0.5,0.7,1,0.7,1.7c0,0.8-0.3,1.4-0.8,1.9s-1.2,0.8-2.1,1V81.3z M272.8,69.4
		c-0.5,0.1-0.8,0.3-1.1,0.6c-0.3,0.3-0.4,0.7-0.4,1.1s0.1,0.8,0.3,1.1c0.2,0.3,0.6,0.6,1.2,1V69.4z M273.6,78.5
		c1-0.2,1.6-0.8,1.6-1.7c0-0.7-0.5-1.4-1.6-2V78.5z"/>
	<path class="st0" d="M277.7,82.2c1.6-2,2.5-4.3,2.5-6.9c0-2.7-0.8-5-2.5-7h1.1c1.6,1.9,2.5,4.3,2.5,7c0,2.7-0.8,5-2.5,6.9H277.7z"
		/>
	<path class="st0" d="M295.7,71h-1.6v2.5c0.4-0.1,0.8-0.3,1.4-0.5l0.2,1.3c-0.6,0.2-1.1,0.4-1.5,0.6V79c0,0.3-0.1,0.6-0.2,0.8
		c-0.2,0.2-0.3,0.3-0.5,0.4c-0.2,0.1-0.5,0.1-1,0.1c-0.3,0-0.6,0-0.9,0l-0.4-1.3l1.6,0c0.2,0,0.3-0.1,0.3-0.2v-3.4
		c-0.8,0.2-1.3,0.4-1.7,0.5l-0.4-1.3c0.9-0.2,1.6-0.4,2.1-0.6v-3h-2v-1.3h2v-2.4h1.3v2.4h1.6V71z M304.1,79.2l-0.6,1.1
		c-1.4-0.4-2.6-0.9-3.7-1.7c-1.1,0.7-2.4,1.3-4,1.7l-0.8-1.2c1.4-0.3,2.6-0.7,3.7-1.4c-0.8-0.7-1.4-1.7-1.9-3.1h-0.5v-1.2h6.8v1.1
		c-0.6,1.3-1.3,2.4-2.2,3.2C301.5,78.3,302.6,78.8,304.1,79.2z M303.9,72.7h-1.8c-0.8,0-1.2-0.4-1.2-1.3v-2.7h-2.3
		c0.1,2-0.6,3.4-2.1,4.1l-1-1c0.6-0.3,1.1-0.7,1.3-1.1c0.3-0.4,0.4-1,0.4-1.7v-1.5h5v3.7c0,0.1,0.1,0.2,0.2,0.2h1.5V72.7z
		 M301.4,74.8h-3.4c0.4,1.1,1,1.9,1.6,2.3C300.4,76.5,301,75.7,301.4,74.8z"/>
	<path class="st0" d="M319,71.9l-0.6,1.2c-0.4-0.1-0.8-0.2-1.3-0.4v5.6h-6.3l0.6,0.7c-1.4,0.6-3.1,1.1-5,1.4l-0.6-1.2
		c1.4-0.2,2.8-0.5,4.1-1h-2.2v-5.7h2.8l-0.6-0.8c1.8-0.4,3.1-1.2,3.9-2.3l1.4,0.3c-0.1,0.3-0.3,0.4-0.3,0.5
		C315.9,71,317.3,71.5,319,71.9z M310.2,71.5h-4.4v-1.2h4.4V71.5z M310.1,69.1h-4v-1.2h4V69.1z M315.7,74.3v-0.5H309v0.5H315.7z
		 M315.7,75.8v-0.6H309v0.6H315.7z M315.7,77.4v-0.6H309v0.6H315.7z M318.7,69.3c-0.5,0.7-0.9,1.2-1.3,1.7l-1.1-0.7
		c0.1-0.1,0.4-0.5,0.8-1h-4.7c-0.5,0.5-0.9,1-1.3,1.3l-1-0.9c0.8-0.6,1.5-1.4,2.2-2.5l1.2,0.4c0,0.2-0.1,0.3-0.3,0.5h5.5V69.3z
		 M316.9,72.7c-1-0.3-2-0.8-2.9-1.4c-0.6,0.6-1.4,1-2.4,1.4H316.9z M318.9,79.5l-0.7,1.2c-1.3-0.4-2.8-0.7-4.4-0.9l0.7-1.1
		C316.1,78.7,317.5,79,318.9,79.5z"/>
	<path class="st0" d="M334,71.6l-0.7,1.2c-0.7-0.3-1.5-0.7-2.2-1.1v0.8H328V74h5.1v1.3H328v3.5h5.4v1.3h-12.1v-1.3h5.4v-3.5h-5V74h5
		v-1.5h-3.1v-0.8c-0.6,0.3-1.2,0.7-2,1l-0.8-1.1c3.1-1.3,5.2-2.8,6.4-4.4l1.4,0.4c0,0.1-0.1,0.2-0.2,0.3
		C329.4,69.2,331.3,70.4,334,71.6z M325.6,78.1l-1.3,0.4c-0.4-0.6-0.9-1.4-1.7-2.3l1.3-0.5C324.7,76.5,325.3,77.3,325.6,78.1z
		 M330.4,71.3c-1.3-0.8-2.3-1.6-3.1-2.3c-0.9,0.8-1.9,1.6-3,2.3H330.4z M332.1,76.1c-0.5,1-1.1,1.7-1.6,2.4l-1.3-0.6
		c0.6-0.6,1.1-1.4,1.6-2.3L332.1,76.1z"/>
	<path class="st0" d="M342.7,74.8l-0.6,1.1c-0.9-0.6-1.8-1.2-2.7-1.6c-1.1,0.8-2.1,1.3-3.1,1.7l-0.6-1.1c1-0.3,1.9-0.7,2.6-1.2
		c-0.5-0.2-0.9-0.4-1.1-0.5c-0.2,0.2-0.3,0.3-0.4,0.3l-0.9-0.9c1-0.7,1.8-1.7,2.5-2.9l1.1,0.3c0,0.1-0.1,0.3-0.2,0.5h2.6v1.1
		c-0.2,0.4-0.7,1-1.3,1.7C341.2,73.9,342,74.4,342.7,74.8z M342.3,70.2H341v-0.7h-3.6v0.8h-1.3v-2h2.4c-0.1-0.3-0.2-0.6-0.4-0.8
		l1.3-0.3c0.2,0.4,0.3,0.7,0.4,1.1h2.5V70.2z M341.6,80.4h-1.3v-0.5H338v0.4h-1.3v-4.5h4.9V80.4z M340.2,71.7h-1.9
		c-0.2,0.3-0.4,0.5-0.5,0.6c0.6,0.3,1.1,0.4,1.3,0.6C339.7,72.4,340,72.1,340.2,71.7z M340.3,78.8v-1.7H338v1.7H340.3z M348.9,68.8
		h-2.5c-0.1,0.5-0.2,0.9-0.3,1.2h2.3v7.5h-3.9l0.8,0.8c-0.7,0.8-1.6,1.5-2.7,2.1l-0.9-1c0.8-0.4,1.7-1,2.5-1.9H343v-7.5h1.7
		c0.1-0.4,0.3-0.8,0.3-1.2h-2.3v-1.2h6.1V68.8z M347.1,72.2v-0.9h-2.8v0.9H347.1z M347.1,74.3v-1h-2.8v1H347.1z M347.1,76.5v-1.1
		h-2.8v1.1H347.1z M349,79.5l-0.8,1c-0.7-0.7-1.5-1.2-2.4-1.6l0.8-1C347.4,78.2,348.2,78.7,349,79.5z"/>
	<path class="st0" d="M353.4,82.2c-1.7-1.9-2.5-4.2-2.5-6.9c0-2.7,0.8-5,2.5-7h1.5c-1.6,2-2.4,4.4-2.4,7c0,2.6,0.8,4.9,2.4,6.9
		H353.4z"/>
	<path class="st0" d="M368.8,76.7H363c-0.9,2-2.9,3.3-6.3,3.8l-0.6-1.3c2.9-0.5,4.7-1.4,5.4-2.5h-5v-1.1h5.4c0.1-0.3,0.1-0.6,0.1-1
		h1.3c0,0.4,0,0.7-0.1,1h5.6V76.7z M369.1,74.2h-13v-1.1h5.8v-1h-4.6v-1.1h4.6v-0.9h-5.2v-1.1h11.7v1.1h-5.2v0.9h4.5v1.1h-4.5v1h5.8
		V74.2z M361.4,68.6L360,69c-0.3-0.5-0.7-0.9-1.1-1.3l1.3-0.4C360.6,67.6,361,68.1,361.4,68.6z M369.3,79.5l-0.8,1
		c-1.6-0.9-3.4-1.7-5.6-2.3l0.8-1.1C366.1,77.9,367.9,78.7,369.3,79.5z M366.6,67.5c-0.3,0.4-0.6,0.9-1,1.4l-1.5-0.4
		c0.5-0.5,0.8-0.9,1.1-1.3L366.6,67.5z"/>
	<path class="st0" d="M384.2,76.6c0,1.1-0.1,1.9-0.3,2.5s-0.4,0.9-0.8,1.1c-0.4,0.2-1,0.3-1.9,0.3c-0.6,0-1.1,0-1.5,0
		c-0.4,0-0.6-0.1-0.9-0.3s-0.3-0.5-0.3-0.8v-6h-2.3c-0.1,2.1-0.5,3.6-1.1,4.7c-0.6,1.1-1.7,2-3.2,2.7l-1-1.1
		c1.4-0.6,2.3-1.3,2.9-2.2c0.6-0.9,0.9-2.2,1-4.1h-3.5v-1.3h12.6v1.3h-4v5.5c0,0.2,0,0.3,0.1,0.3s0.5,0.1,1.2,0.1c0.6,0,0.9,0,1-0.1
		c0.1-0.1,0.2-0.2,0.3-0.3c0-0.1,0.1-0.4,0.1-0.9c0.1-0.4,0.1-1,0.1-1.8L384.2,76.6z M383,69h-10.8v-1.3H383V69z"/>
	<path class="st0" d="M385.2,82.2c1.6-2,2.5-4.3,2.5-6.9c0-2.6-0.8-5-2.5-7h1.5c1.7,2,2.5,4.3,2.5,7c0,2.7-0.8,5-2.5,6.9H385.2z"/>
	<path class="st0" d="M394,82.2c-1.7-1.9-2.5-4.2-2.5-6.9c0-2.7,0.8-5,2.5-7h1.5c-1.6,2-2.4,4.4-2.4,7c0,2.6,0.8,4.9,2.4,6.9H394z"
		/>
	<path class="st0" d="M409.7,70.8H403c-0.4,1-0.9,1.8-1.5,2.6h7v7h-1.4v-0.9h-6v0.9h-1.4v-5.1c-0.9,0.8-1.6,1.5-2.3,1.9l-1-1
		c2.3-1.5,3.9-3.3,5-5.4h-4.8v-1.3h5.4c0.2-0.5,0.5-1.2,0.8-2.2l1.3,0.3c-0.1,0.5-0.3,1.1-0.6,1.9h6.2V70.8z M407.1,78.2v-3.5h-6
		v3.5H407.1z"/>
	<path class="st0" d="M417.6,78.5h-2.4v1.9H414v-1.9h-2.3v-1.2h2.3v-0.9h-2v-5.9h2v-0.9h-2.4v-1.2h2.4v-1.1h1.2v1.1h2.4v1.2h-2.4
		v0.9h2.1v5.9h-2.1v0.9h2.4V78.5z M414,72.9v-1.3h-0.8v1.3H414z M414,75.3V74h-0.8v1.3H414z M416.1,72.9v-1.3h-0.8v1.3H416.1z
		 M416.1,75.3V74h-0.8v1.3H416.1z M424.3,80.4H423v-0.6h-3.6v0.6h-1.3V69.6h2.5v-2.3h1.3v2.3h2.4V80.4z M420.6,74v-3.1h-1.2V74
		H420.6z M420.6,78.5v-3.3h-1.2v3.3H420.6z M423,74v-3.1h-1.2V74H423z M423,78.5v-3.3h-1.2v3.3H423z"/>
	<path class="st0" d="M425.8,82.2c1.6-2,2.5-4.3,2.5-6.9c0-2.6-0.8-5-2.5-7h1.5c1.7,2,2.5,4.3,2.5,7c0,2.7-0.8,5-2.5,6.9H425.8z"/>
</g>
<line class="st3" x1="83.3" y1="10.7" x2="869.8" y2="10.7"/>
<line class="st3" x1="83.3" y1="313.3" x2="869.8" y2="313.3"/>
<line class="st3" x1="83.3" y1="262.9" x2="869.8" y2="262.9"/>
<line class="st3" x1="83.3" y1="212.4" x2="869.8" y2="212.4"/>
<line class="st3" x1="83.3" y1="162" x2="869.8" y2="162"/>
<line class="st3" x1="83.3" y1="111.6" x2="869.8" y2="111.6"/>
<line class="st3" x1="83.3" y1="61.1" x2="869.8" y2="61.1"/>
<rect x="88.5" y="267.2" class="st2" width="8.8" height="46.2"/>
<rect x="107.2" y="267.2" class="st2" width="8.8" height="46.2"/>
<rect x="125.9" y="285.7" class="st2" width="8.8" height="27.7"/>
<rect x="144.6" y="290.2" class="st2" width="8.8" height="23.1"/>
<rect x="163.3" y="280.6" class="st2" width="8.8" height="32.7"/>
<rect x="182" y="269.9" class="st2" width="8.8" height="43.4"/>
<rect x="200.7" y="292.2" class="st2" width="8.8" height="21.1"/>
<rect x="219.4" y="261.5" class="st2" width="8.8" height="51.9"/>
<rect x="238.1" y="287.4" class="st2" width="8.8" height="25.9"/>
<rect x="256.8" y="282.9" class="st2" width="8.8" height="30.4"/>
<rect x="275.5" y="277.7" class="st2" width="8.8" height="35.6"/>
<rect x="294.2" y="295.5" class="st2" width="8.8" height="17.8"/>
<rect x="312.9" y="279" class="st2" width="8.8" height="34.3"/>
<rect x="331.6" y="275.5" class="st2" width="8.8" height="37.8"/>
<rect x="350.3" y="276.4" class="st2" width="8.8" height="37"/>
<rect x="369" y="247.2" class="st2" width="8.8" height="66.2"/>
<rect x="387.7" y="274.1" class="st2" width="8.8" height="39.2"/>
<rect x="406.4" y="289.7" class="st2" width="8.8" height="23.7"/>
<rect x="425.1" y="272.2" class="st2" width="8.8" height="41.1"/>
<rect x="443.8" y="245.5" class="st2" width="8.8" height="67.9"/>
<rect x="462.5" y="298.7" class="st2" width="8.8" height="14.7"/>
<rect x="481.2" y="250.9" class="st2" width="8.8" height="62.4"/>
<rect x="499.9" y="274.1" class="st2" width="8.8" height="39.2"/>
<rect x="518.6" y="209.5" class="st2" width="8.8" height="103.8"/>
<rect x="537.3" y="252" class="st2" width="8.8" height="61.3"/>
<rect x="556" y="192.9" class="st2" width="8.8" height="120.5"/>
<rect x="574.7" y="253.1" class="st2" width="8.8" height="60.2"/>
<rect x="593.4" y="229.1" class="st2" width="8.8" height="84.2"/>
<rect x="612.1" y="207.8" class="st2" width="8.8" height="105.5"/>
<rect x="630.8" y="136.8" class="st2" width="8.8" height="176.5"/>
<rect x="649.5" y="157.2" class="st2" width="8.8" height="156.1"/>
<rect x="668.2" y="214.3" class="st2" width="8.8" height="99.1"/>
<rect x="686.9" y="151.5" class="st2" width="8.8" height="161.9"/>
<rect x="705.6" y="155.5" class="st2" width="8.8" height="157.8"/>
<rect x="724.3" y="192.1" class="st2" width="8.8" height="121.3"/>
<rect x="743" y="229.2" class="st2" width="8.8" height="84.2"/>
<rect x="761.7" y="193.9" class="st2" width="8.8" height="119.5"/>
<rect x="780.4" y="197.2" class="st2" width="8.8" height="116.1"/>
<rect x="799.1" y="162" class="st2" width="8.8" height="151.3"/>
<rect x="817.8" y="153.3" class="st2" width="8.8" height="160.1"/>
<rect x="836.5" y="66.8" class="st2" width="8.8" height="246.6"/>
<rect x="855.2" y="48.7" class="st2" width="8.8" height="264.7"/>
<line class="st3" x1="92.9" y1="313.3" x2="92.9" y2="320.5"/>
<line class="st3" x1="149" y1="313.3" x2="149" y2="320.5"/>
<line class="st3" x1="205.1" y1="313.3" x2="205.1" y2="320.5"/>
<line class="st3" x1="261.2" y1="313.3" x2="261.2" y2="320.5"/>
<line class="st3" x1="317.3" y1="313.3" x2="317.3" y2="320.5"/>
<line class="st3" x1="373.4" y1="313.3" x2="373.4" y2="320.5"/>
<line class="st3" x1="429.5" y1="313.3" x2="429.5" y2="320.5"/>
<line class="st3" x1="485.6" y1="313.3" x2="485.6" y2="320.5"/>
<line class="st3" x1="541.7" y1="313.3" x2="541.7" y2="320.5"/>
<line class="st3" x1="597.8" y1="313.3" x2="597.8" y2="320.5"/>
<line class="st3" x1="653.9" y1="313.3" x2="653.9" y2="320.5"/>
<line class="st3" x1="710" y1="313.3" x2="710" y2="320.5"/>
<line class="st3" x1="766.1" y1="313.3" x2="766.1" y2="320.5"/>
<line class="st3" x1="822.2" y1="313.3" x2="822.2" y2="320.5"/>
<g>
	<path class="st4" d="M130,275.7c-0.3,0-0.6-0.2-0.8-0.5L110.5,242H92.9c-0.6,0-1-0.4-1-1v-2c0-0.6,0.4-1,1-1h19.3
		c0.4,0,0.7,0.2,0.9,0.5l17.6,31.1l17.3-19.7c0.2-0.2,0.5-0.3,0.8-0.3c0.1,0,0.2,0,0.2,0l18.7,4.8l17.8-6.8l18.8-15.1
		c0.2-0.1,0.4-0.2,0.6-0.2c0.1,0,0.1,0,0.2,0l19.5,4.2c0.2,0,0.4,0.2,0.6,0.3l17.6,21.8l17.3-15.2c0.1-0.1,0.2-0.1,0.3-0.2l19.6-7.4
		c0.1,0,0.2-0.1,0.4-0.1c0.3,0,0.7,0.2,0.9,0.5l17.7,28.8l17.1-19.5c0.1-0.2,0.3-0.3,0.5-0.3l19-4.6l18.2-2.6l18.2-18.2l19.6-20.6
		c0.2-0.2,0.5-0.3,0.7-0.3c0,0,0.1,0,0.1,0c0.3,0,0.6,0.2,0.7,0.5l18,34.3l16.9-19c0,0,0.1-0.1,0.1-0.1l19.6-15.4
		c0.2-0.1,0.4-0.2,0.6-0.2c0.1,0,0.1,0,0.2,0c0.3,0.1,0.5,0.3,0.7,0.5l17.9,36.2l17.3-23.4c0.2-0.3,0.5-0.4,0.8-0.4
		c0.2,0,0.3,0,0.5,0.1l17.6,10.4l18-37.2c0.1-0.3,0.4-0.5,0.7-0.5l18.5-3.6l18.8-21.2c0.2-0.2,0.5-0.3,0.7-0.3
		c0.2,0,0.4,0.1,0.6,0.2l19.6,13.3c0.1,0,0.1,0.1,0.2,0.2l16.4,17.8l18.3-56.8c0.1-0.4,0.4-0.6,0.8-0.7c0,0,0.1,0,0.1,0
		c0.3,0,0.6,0.2,0.8,0.4l19.4,28.2l17.7,3.4h17.6l18.8-22c0.2-0.2,0.4-0.3,0.7-0.3c0,0,0,0,0.1,0c0.2,0,0.5,0.1,0.7,0.2l19,16.6
		l18.7,3.3c0.3,0.1,0.6,0.3,0.8,0.6l16.8,42.4l17.9-56.6c0.1-0.4,0.5-0.7,0.9-0.7c0,0,0,0,0,0c0.4,0,0.8,0.3,0.9,0.6l17.8,47.4
		l17.8-48.9c0.1-0.4,0.5-0.7,0.9-0.7c0,0,0,0,0,0c0.4,0,0.8,0.3,0.9,0.6l17.7,45.7l17-47.1c0.1-0.3,0.3-0.5,0.5-0.6l19.1-8.2
		c0.1-0.1,0.3-0.1,0.4-0.1c0.4,0,0.8,0.2,0.9,0.6l0.8,1.8c0.1,0.2,0.1,0.5,0,0.8c-0.1,0.2-0.3,0.4-0.5,0.5l-17.9,7.7l-19.3,53.4
		c-0.1,0.4-0.5,0.7-0.9,0.7c0,0,0,0,0,0c-0.4,0-0.8-0.3-0.9-0.6l-17.7-45.7l-17.8,49.1c-0.1,0.4-0.5,0.7-0.9,0.7c0,0,0,0,0,0
		c-0.4,0-0.8-0.3-0.9-0.6l-17.6-46.9l-17.8,56.3c-0.1,0.4-0.5,0.7-0.9,0.7c0,0,0,0,0,0c-0.4,0-0.8-0.2-0.9-0.6l-19.3-48.7l-17.9-3.2
		c-0.2,0-0.3-0.1-0.5-0.2l-17.4-15.2l-17.7,20.7c-0.2,0.2-0.5,0.4-0.8,0.4l-19.4,0c-0.1,0-0.1,0-0.2,0l-19.1-3.7
		c-0.3,0-0.5-0.2-0.6-0.4l-16.6-24.2l-18,55.9c-0.1,0.3-0.4,0.6-0.7,0.7c-0.1,0-0.1,0-0.2,0c-0.3,0-0.5-0.1-0.7-0.3l-19.7-21.4
		l-17.1-11.6L543,184.6c-0.1,0.2-0.3,0.3-0.6,0.3l-18,3.5l-18.7,38.7c-0.1,0.3-0.3,0.4-0.6,0.5c-0.1,0-0.2,0-0.3,0
		c-0.2,0-0.4,0-0.5-0.1L486.2,217l-18.6,25.2c-0.2,0.3-0.5,0.4-0.8,0.4c0,0-0.1,0-0.1,0c-0.3,0-0.7-0.2-0.8-0.6l-18.4-37.3l-16.5,13
		l-19.5,21.9c-0.2,0.2-0.5,0.3-0.7,0.3c0,0-0.1,0-0.1,0c-0.3,0-0.6-0.2-0.8-0.5l-18.1-34.5l-16.8,17.6l-19,18.9
		c-0.2,0.2-0.4,0.3-0.6,0.3l-19,2.7l-17.9,4.3l-19.2,21.8c-0.2,0.2-0.5,0.3-0.8,0.3c0,0-0.1,0-0.1,0c-0.3,0-0.6-0.2-0.8-0.5
		l-18.5-30.2l-16.8,6.3l-19.2,16.9c-0.2,0.2-0.4,0.2-0.7,0.2c0,0-0.1,0-0.1,0c-0.3,0-0.5-0.2-0.7-0.4l-18.9-23.4l-17.1-3.7
		L187.5,251c-0.1,0.1-0.2,0.1-0.3,0.2l-19.1,7.3c-0.1,0-0.2,0.1-0.4,0.1c-0.1,0-0.2,0-0.2,0l-17.8-4.6l-18.8,21.5
		c-0.2,0.2-0.5,0.3-0.8,0.3C130.1,275.7,130.1,275.7,130,275.7z"/>
	<path class="st5" d="M616.2,134.6l19.6,28.5l18.2,3.5h18.1l19.1-22.3l19.3,16.8l19,3.4l17.9,45l18.7-59.3l18.8,49.9l18.7-51.5
		l18.7,48.2l17.9-49.6l19.1-8.2l0.8,1.8l-18.3,7.8l-19.5,53.8l-18.7-48.2l-18.7,51.6l-18.6-49.6l-18.7,59.1L728,166.2l-18.4-3.3
		l-18.1-15.9l-18.3,21.5l-19.3,0l-19.1-3.7l-17.8-25.8l-18.6,57.9l-19.8-21.5l-17.9-12.1l-18.3,20.6l-18.5,3.6l-19,39.2l-18.9-11.1
		l-19.1,25.9l-19-38.4l-17.6,13.8l-19.6,22l-18.7-35.7L374.1,222l-19,18.9l-19,2.7l-18.3,4.4l-19.4,22l-19-30.9l-17.8,6.6l-19.3,17
		l-19.1-23.7l-17.9-3.8l-18.5,14.8l-19.1,7.3l-18.4-4.8l-19.2,21.9L111,241H92.9v-2h19.3l18.3,32.3l18.2-20.7l19,4.9l18.3-7
		l18.9-15.2l19.5,4.2l18.3,22.6l18.1-15.9l19.6-7.4l18.4,30l18-20.5l19-4.6l18.5-2.6l18.5-18.4l19.6-20.7l18.7,35.6l17.9-20
		l19.6-15.4l18.6,37.6l18.3-24.7l18.5,10.9l18.4-38.1l18.9-3.7l19.1-21.4l19.6,13.3l17.5,19.1L616.2,134.6 M616.2,132.6
		c-0.1,0-0.2,0-0.3,0c-0.8,0.1-1.4,0.6-1.6,1.4l-17.7,55.2l-15.2-16.5c-0.1-0.1-0.2-0.2-0.3-0.3L561.4,159c-0.3-0.2-0.7-0.3-1.1-0.3
		c-0.6,0-1.1,0.2-1.5,0.7l-18.6,20.9l-18.2,3.6c-0.6,0.1-1.1,0.5-1.4,1.1L503,221.1l-16.7-9.8c-0.3-0.2-0.7-0.3-1-0.3
		c-0.6,0-1.2,0.3-1.6,0.8l-16.3,22.1l-17.2-34.7c-0.3-0.5-0.8-0.9-1.4-1.1c-0.1,0-0.3,0-0.4,0c-0.4,0-0.9,0.1-1.2,0.4L427.7,214
		c-0.1,0.1-0.2,0.2-0.3,0.2l-15.9,17.9L394.1,199c-0.3-0.6-0.9-1-1.5-1.1c-0.1,0-0.2,0-0.3,0c-0.5,0-1.1,0.2-1.4,0.6l-19.6,20.6
		l-18,17.9l-17.8,2.5c-0.1,0-0.1,0-0.2,0l-19,4.6c-0.4,0.1-0.8,0.3-1,0.6L299,263.4l-17-27.7c-0.4-0.6-1-1-1.7-1
		c-0.2,0-0.5,0-0.7,0.1l-19.6,7.4c-0.2,0.1-0.4,0.2-0.6,0.4l-16.5,14.5l-17-21c-0.3-0.4-0.7-0.6-1.1-0.7l-19.5-4.2
		c-0.1,0-0.3,0-0.4,0c-0.5,0-0.9,0.2-1.3,0.4l-18.7,15l-17.4,6.7l-18.4-4.7c-0.2,0-0.3-0.1-0.5-0.1c-0.6,0-1.1,0.2-1.5,0.7
		l-16.3,18.6L113.9,238c-0.4-0.6-1-1-1.7-1H92.9c-1.1,0-2,0.9-2,2v2c0,1.1,0.9,2,2,2h17l18.5,32.7c0.3,0.6,0.9,0.9,1.5,1
		c0.1,0,0.1,0,0.2,0c0.6,0,1.1-0.2,1.5-0.7l18.4-21l17.2,4.5c0.2,0,0.3,0.1,0.5,0.1c0.2,0,0.5,0,0.7-0.1l19.1-7.3
		c0.2-0.1,0.4-0.2,0.5-0.3l17.7-14.2l16.3,3.5l18.7,23.1c0.3,0.4,0.8,0.7,1.4,0.7c0.1,0,0.1,0,0.2,0c0.5,0,1-0.2,1.3-0.5l19.1-16.8
		l15.9-5.9l18.1,29.5c0.3,0.5,0.9,0.9,1.5,0.9c0.1,0,0.1,0,0.2,0c0.6,0,1.1-0.2,1.5-0.7l19-21.6l17.6-4.2l18.9-2.7
		c0.4-0.1,0.8-0.3,1.1-0.6l19-18.9c0,0,0,0,0,0l15.8-16.6l17.4,33.2c0.3,0.6,0.9,1,1.5,1.1c0.1,0,0.2,0,0.2,0c0.6,0,1.1-0.2,1.5-0.7
		l19.5-21.9l15.5-12.2l17.9,36.2c0.3,0.6,0.9,1,1.6,1.1c0.1,0,0.1,0,0.2,0c0.6,0,1.2-0.3,1.6-0.8l18.1-24.5l17.3,10.2
		c0.3,0.2,0.7,0.3,1,0.3c0.2,0,0.4,0,0.6-0.1c0.5-0.2,1-0.5,1.2-1l18.5-38.3l17.6-3.4c0.4-0.1,0.8-0.3,1.1-0.6l17.2-19.3l16.2,11
		l19.6,21.3c0.4,0.4,0.9,0.6,1.5,0.6c0.1,0,0.3,0,0.4,0c0.7-0.2,1.3-0.7,1.5-1.3l17.4-54L633,166c0.3,0.4,0.8,0.7,1.3,0.8l19.1,3.7
		c0.1,0,0.2,0,0.4,0l19.3,0c0,0,0,0,0,0c0.6,0,1.1-0.3,1.5-0.7l17-20l16.6,14.5c0.3,0.2,0.6,0.4,1,0.5l17.3,3.1l19.1,48.2
		c0.3,0.8,1,1.3,1.9,1.3c0,0,0,0,0.1,0c0.8,0,1.6-0.6,1.8-1.4l16.9-53.6l16.6,44.1c0.3,0.8,1,1.3,1.9,1.3c0,0,0,0,0,0
		c0.8,0,1.6-0.5,1.9-1.3l16.9-46.6l16.8,43.2c0.3,0.8,1,1.3,1.9,1.3c0,0,0,0,0,0c0.8,0,1.6-0.5,1.9-1.3l19.2-53l17.5-7.5
		c0.5-0.2,0.9-0.6,1.1-1.1c0.2-0.5,0.2-1,0-1.5l-0.8-1.8c-0.3-0.8-1.1-1.2-1.8-1.2c-0.3,0-0.5,0.1-0.8,0.2l-19.1,8.2
		c-0.5,0.2-0.9,0.6-1.1,1.2l-16.1,44.6l-16.8-43.2c-0.3-0.8-1-1.3-1.9-1.3c0,0,0,0,0,0c-0.8,0-1.6,0.5-1.9,1.3l-16.8,46.4
		l-16.9-44.8c-0.3-0.8-1-1.3-1.9-1.3c0,0,0,0-0.1,0c-0.9,0-1.6,0.6-1.9,1.4l-17,53.9l-15.8-39.8c-0.3-0.6-0.8-1.1-1.5-1.2l-18.4-3.3
		l-18.8-16.5c-0.4-0.3-0.8-0.5-1.3-0.5c0,0-0.1,0-0.1,0c-0.5,0-1,0.3-1.4,0.7l-18.5,21.6h-17l-17.2-3.3l-19.2-27.8
		C617.5,132.9,616.8,132.6,616.2,132.6L616.2,132.6z"/>
</g>
</svg>
