<?xml version="1.0" encoding="utf-8"?>
<!-- Generator: Adobe Illustrator 24.0.1, SVG Export Plug-In . SVG Version: 6.00 Build 0)  -->
<svg version="1.1" id="圖層_1" xmlns="http://www.w3.org/2000/svg" xmlns:xlink="http://www.w3.org/1999/xlink" x="0px" y="0px"
	 viewBox="0 0 952 568.4" style="enable-background:new 0 0 952 568.4;" xml:space="preserve">
<style type="text/css">
	.st0{enable-background:new    ;}
	.st1{fill:#3C3B6E;}
	.st2{fill:none;stroke:#000000;stroke-miterlimit:10;}
	.st3{fill:#FFFFFF;}
</style>
<g class="st0">
	<path d="M182,6.9c-1.7,2.7-3.6,5.2-5.5,7.1c-0.6-0.6-2.1-1.5-3-2c3.3-2.8,6.3-7.3,8.2-11.8l3.3,1c-0.4,0.9-0.8,1.8-1.3,2.6h21.4v3
		H182z M201.2,20.8c-0.1,1.9-0.2,3.5-0.4,4.9h4.1v2.9h-4.5c-0.3,1.6-0.6,2.6-1,3.2c-0.7,1-1.5,1.3-2.7,1.5c-1.1,0.1-2.9,0.1-4.6,0
		c0-0.8-0.4-1.9-0.8-2.6c1.7,0.1,3.2,0.2,3.9,0.2c0.6,0,0.9-0.1,1.3-0.5c0.2-0.3,0.4-0.8,0.6-1.6h-19.8c0.5-2.1,0.9-4.9,1.3-7.8h-5
		v-3h5.4c0.4-2.7,0.7-5.4,0.9-7.7h21.5c0,0,0,1.1,0,1.5c-0.1,2.3-0.1,4.4-0.2,6.2h5v3H201.2z M182.1,20.7c-0.3,1.8-0.5,3.5-0.7,5
		h9.6c-1.4-1.2-3.6-2.6-5.5-3.6l1.5-1.4H182.1z M183.1,13c-0.2,1.6-0.4,3.3-0.6,4.9h9.2c-1.4-1.2-3.5-2.5-5.4-3.4l1.6-1.5H183.1z
		 M197.6,25.7c0.1-1.3,0.3-3,0.4-5h-9.9c2.1,1,4.4,2.5,5.6,3.7l-1.3,1.3H197.6z M198.1,17.9c0-1.5,0.1-3.1,0.1-4.9h-9.5
		c2,1,4.3,2.3,5.5,3.5l-1.4,1.4H198.1z"/>
	<path d="M219.2,1.5c-0.8,2.3-1.7,4.6-2.8,6.9v25h-3.2V14c-1,1.4-1.9,2.8-3,3.9c-0.3-0.8-1.1-2.6-1.6-3.5c3-3.4,5.9-8.6,7.5-13.8
		L219.2,1.5z M241,2.4v30.5h-3.1v-1.8h-14.7v2.1h-3V2.4H241z M237.9,28.2V5.3h-14.7v22.8H237.9z M231.9,12.6v3.6h3.8v9.5h-10v-9.5
		h3.6v-3.6h-4.8v-2.5h4.8V6.3h2.6v3.9h5v2.5H231.9z M233.1,18.6h-5v4.7h5V18.6z"/>
	<path d="M252.9,26.1c-1.3,2.7-3.4,5.4-5.3,7.2c-0.6-0.6-1.9-1.5-2.6-2c1.9-1.5,3.8-3.8,4.8-6.1L252.9,26.1z M262.5,24.7h-17.4v-2.9
		h3.3V7.8h-2.9V4.9h2.9V0.8h3v4.1h5.6V0.8h3.1v4.1h2.6v2.9h-2.6v13.9h2.4V24.7z M251.4,7.8v2.7h5.6V7.8H251.4z M251.4,16.1h5.6v-3
		h-5.6V16.1z M251.4,21.8h5.6v-3.1h-5.6V21.8z M257.5,25.1c1.4,1.6,3.1,3.8,3.9,5.2l-2.7,1.6c-0.7-1.4-2.4-3.8-3.7-5.4L257.5,25.1z
		 M276.8,29.3c0,1.8-0.4,2.7-1.5,3.2c-1.1,0.6-2.8,0.6-5.4,0.6c-0.1-0.9-0.5-2.3-1-3.1c1.7,0.1,3.5,0,3.9,0c0.5,0,0.8-0.2,0.8-0.8
		v-7.9H267c-0.4,4.3-1.3,8.8-3.3,12c-0.5-0.6-1.9-1.6-2.6-1.9c2.8-4.7,3.1-11.4,3.1-16.5V2.1h12.7V29.3z M273.6,18.3v-5.2h-6.3V15
		c0,1,0,2.2-0.1,3.3H273.6z M267.3,5.1v5h6.3v-5H267.3z"/>
	<path d="M285.9,14.3v18.9h-3.3V1.9h13.2v12.4H285.9z M285.9,4.4v2.5h6.8V4.4H285.9z M292.7,11.8V9.2h-6.8v2.6H292.7z M312.1,29.1
		c0,1.9-0.4,3-1.7,3.5c-1.3,0.5-3.2,0.6-6.2,0.6c-0.1-0.9-0.6-2.3-1-3.3h-9.7v1.8h-3v-15h13.4v13.1c1.8,0.1,3.5,0,4,0
		c0.6,0,0.8-0.2,0.8-0.8V14.4h-10.2V1.9h13.5V29.1z M293.5,19.3V22h7.3v-2.8H293.5z M300.8,27.4v-3h-7.3v3H300.8z M301.8,4.4v2.5h7
		V4.4H301.8z M308.8,11.9V9.2h-7v2.7H308.8z"/>
	<path d="M325,6.9c-1.7,2.7-3.6,5.2-5.5,7.1c-0.6-0.6-2.1-1.5-3-2c3.3-2.8,6.3-7.3,8.2-11.8l3.3,1c-0.4,0.9-0.8,1.8-1.3,2.6h21.4v3
		H325z M344.2,20.8c-0.1,1.9-0.2,3.5-0.4,4.9h4.1v2.9h-4.5c-0.3,1.6-0.6,2.6-1,3.2c-0.7,1-1.5,1.3-2.7,1.5c-1.1,0.1-2.9,0.1-4.6,0
		c0-0.8-0.4-1.9-0.8-2.6c1.7,0.1,3.2,0.2,3.9,0.2c0.6,0,0.9-0.1,1.3-0.5c0.2-0.3,0.4-0.8,0.6-1.6h-19.8c0.5-2.1,0.9-4.9,1.3-7.8h-5
		v-3h5.4c0.4-2.7,0.7-5.4,0.9-7.7h21.5c0,0,0,1.1,0,1.5c-0.1,2.3-0.1,4.4-0.2,6.2h5v3H344.2z M325,20.7c-0.3,1.8-0.5,3.5-0.7,5h9.6
		c-1.4-1.2-3.6-2.6-5.5-3.6l1.5-1.4H325z M326.1,13c-0.2,1.6-0.4,3.3-0.6,4.9h9.2c-1.4-1.2-3.5-2.5-5.4-3.4l1.6-1.5H326.1z
		 M340.6,25.7c0.1-1.3,0.3-3,0.4-5H331c2.1,1,4.4,2.5,5.6,3.7l-1.3,1.3H340.6z M341.1,17.9c0-1.5,0.1-3.1,0.1-4.9h-9.5
		c2,1,4.3,2.3,5.5,3.5l-1.4,1.4H341.1z"/>
	<path d="M384.9,25.3h-12.5v7.9h-3.4v-7.9h-16.3v-3.2h5.8v-9.4h10.5V7.7h-8.2c-1.5,2.6-3.3,5-5.1,6.8c-0.6-0.6-2.1-1.6-2.9-2.1
		c3.3-2.8,6.1-7.4,7.8-12.1l3.4,0.9c-0.4,1.1-0.9,2.3-1.4,3.4h20.7v3.2h-10.8v4.9h10v3.1h-10v6.3h12.5V25.3z M368.9,22.1v-6.3h-7.2
		v6.3H368.9z"/>
	<path d="M420.5,21.1h-14.3v12.2h-3.4V21.1h-14.2v-3.4h14.2V6h-12.3V2.7h28V6h-12.3v11.7h14.3V21.1z M395.8,7.5
		c1.3,2.5,2.7,5.6,3.1,7.7l-3.2,1.1c-0.5-2-1.7-5.4-3-7.9L395.8,7.5z M409.6,15.4c1.2-2.1,2.7-5.5,3.5-8l3.5,1c-1.3,2.8-2.9,6-4.2,8
		L409.6,15.4z"/>
	<path d="M431.4,21c1.2-0.5,2.4-1,3.6-1.5l0.8,2.9c-3.7,1.8-7.7,3.6-10.8,5l-1.3-3.3c1.3-0.5,2.9-1.1,4.6-1.8V12h-4V8.8h4V0.9h3.1
		v7.9h3.7V12h-3.7V21z M456.1,6c0,0,0,1.2,0,1.7c-0.4,16.4-0.8,21.9-2.3,23.8c-0.8,1.2-1.8,1.6-3.1,1.8c-1.3,0.1-3.5,0.1-5.5,0
		c0-0.9-0.5-2.3-1.1-3.3c2.4,0.2,4.5,0.2,5.4,0.2c0.7,0,1.1-0.1,1.5-0.6c1.1-1.2,1.6-6.9,1.9-20.6h-11.3c-1,2.2-2.2,4.1-3.4,5.7
		c-0.6-0.5-2-1.4-2.8-1.8c2.5-3,4.7-7.8,6-12.4l3.1,0.8c-0.5,1.6-1.1,3.3-1.7,4.8H456.1z M439.5,21.2h11.1v2.9h-11.1V21.2z
		 M449.8,14v2.9h-8.7V14H449.8z"/>
	<path d="M492,28.2v3.4h-32v-3.4h13V0.9h3.6v10.6h12.9v3.3h-12.9v13.3H492z"/>
	<path d="M513.4,8.7v4.4h11.5v12.3c0,1.8-0.4,2.8-1.7,3.3c-1.3,0.5-3.3,0.6-6.2,0.6c-0.1-0.9-0.7-2.4-1.2-3.3
		c2.1,0.1,4.3,0.1,4.9,0.1c0.6,0,0.8-0.2,0.8-0.7v-9h-8v16.7h-3.5V16.4h-7.5v12.9H499V13.1h10.9V8.7h-14.2V5.5h14.8
		c-0.6-1.4-1.4-3-2.1-4.4l3.3-1c1,1.6,2.2,3.9,2.7,5.3h13.4v3.3H513.4z"/>
	<path d="M562.9,6c0,0,0,1.1,0,1.6c-0.5,16.1-0.9,21.7-2.4,23.5c-0.9,1.2-1.8,1.5-3.1,1.7c-1.3,0.1-3.4,0.1-5.4,0
		c-0.1-0.9-0.5-2.3-1.1-3.2c2.3,0.2,4.4,0.2,5.3,0.2c0.7,0,1.1-0.1,1.5-0.6c1.1-1.2,1.6-6.6,2.1-20.1h-8.4c-1,2.3-2.1,4.4-3.3,6
		c-0.5-0.5-1.8-1.4-2.6-1.9v16.4h-9.7v2.7h-3V6.1h4c0.5-1.7,1-4.1,1.3-5.8l3.6,0.6c-0.6,1.8-1.3,3.7-1.9,5.2h5.7v6.8
		c2.4-3.1,4.3-7.8,5.3-12.5l3.2,0.8c-0.4,1.6-0.9,3.3-1.5,4.9H562.9z M535.7,9v6.8h6.6V9H535.7z M542.4,26.6v-7.9h-6.6v7.9H542.4z
		 M554.3,23.8c-1-2.2-3.3-5.7-5.2-8.3l2.6-1.5c1.9,2.5,4.3,5.9,5.4,8L554.3,23.8z"/>
	<path d="M584.9,29.3h13.5v3h-30.2v-3h13.1v-5.3h-9.6v-2.9h9.6v-4.9h-8v-2.9c-1.6,1.1-3.1,2.1-4.6,2.9c-0.5-0.9-1.3-2-2.1-2.7
		c4.3-1.9,9.2-5.4,12.6-9h-5.7V1.4H585c3.2,4.8,9.2,9.4,14.9,11.7c-0.7,0.7-1.8,2.1-2.3,3c-1.5-0.7-3.1-1.6-4.6-2.6v2.8h-8.2v4.9
		h9.7v2.9h-9.7V29.3z M573.4,13.4h19.4c-3.7-2.5-7.1-5.6-9.7-8.8C580.6,7.6,577.1,10.8,573.4,13.4z"/>
	<path d="M635,12.7c-1.9,2.5-4.2,5.4-6,7.4c1.6,3.3,3.8,5.8,7,8c-0.8,0.6-1.7,1.6-2,2.6c-3.5-2.6-5.9-5.5-7.6-9.3v8
		c0,1.8-0.4,2.7-1.5,3.3c-1.1,0.6-2.8,0.7-5.5,0.7c-0.1-0.9-0.7-2.3-1.1-3.2c1.9,0.1,3.6,0,4.2,0c0.6,0,0.8-0.2,0.8-0.8V22
		c-2.8,2.8-5.6,5.4-7.9,7.6l-2-2.9l0.5-0.4c-3.7,1.2-7.5,2.4-10.5,3.4l-0.7-3.2c1.3-0.3,2.8-0.8,4.5-1.3v-9.3H603v-3.1h3.8V5.7h-4.1
		V2.7h11v3.1h-3.9v7.1h3.4v3.1h-3.4v8.4l4.1-1.3l0.4,2.6c2.4-1.9,5.6-4.6,8.7-7.3v-9h-8.5V6.4h8.5V0.5h3.2v5.9h9v3.1h-9v1.5
		c0.4,2.4,0.9,4.5,1.5,6.4c1.5-1.9,3.2-4.2,4.3-6.1L635,12.7z M617.6,11.4c1.5,2,3.1,4.6,3.7,6.4l-2.8,1.3c-0.5-1.8-2.1-4.5-3.5-6.5
		L617.6,11.4z M631.9,6.4c-0.9-1.1-2.6-2.8-4.1-3.9l1.9-1.7c1.5,1,3.4,2.6,4.3,3.6L631.9,6.4z"/>
	<path d="M644.2,23.2c-0.9,2.5-2.3,5.4-3.6,7.2c-0.5-0.4-1.6-1.2-2.3-1.6c1.3-1.7,2.5-4.1,3.3-6.4L644.2,23.2z M648.8,20.9V33h-3.2
		V20.9h-6.9v-2.8h6.9v-3.3h-7.1V12h3.9c-0.1-1.2-0.6-3.1-1.3-4.5l2.7-0.7c0.6,1.4,1.1,3.2,1.3,4.4l-2.6,0.8h5.6
		c0.6-1.5,1.4-3.7,1.8-5.2l3.1,0.6c-0.6,1.6-1.2,3.2-1.8,4.5h4.2v2.8h-6.6v3.3h6.1v2.8H648.8z M654.8,6.8h-15.7V4.1h6.5
		c-0.4-1-0.9-2.1-1.3-3l3.3-0.9c0.6,1.2,1.3,2.7,1.8,3.9h5.4V6.8z M652.3,22.2c1.2,1.7,2.4,3.9,3,5.4l-2.3,1.4
		c-0.6-1.5-1.8-3.8-2.9-5.5L652.3,22.2z M671.1,15.4h-3.6v17.7h-3.3V15.4H660v0.9c0,5.1-0.5,12.3-3.6,16.8c-0.5-0.6-1.9-1.6-2.5-2
		c2.8-4.1,3.1-10.2,3.1-14.9V3.9c4-0.7,8.4-1.8,10.9-2.9l2.6,2.4c-2.9,1.1-6.8,2-10.4,2.6v6.3h11.1V15.4z"/>
	<path d="M687.4,26.7c-2.6,2.6-7.2,4.8-11.3,5.7c-0.4-0.8-1.3-1.9-2-2.5c4-0.7,8.5-2.3,10.8-4.2L687.4,26.7z M681.7,5.1h-6.8V2.4
		h6.8v-2h3.3v2h4.8v2.8h-4.8v2h-3.3V5.1z M692.1,25.1v8.2h-3.3v-8.2h-14v-2.6h14v-2H685V9h3.4c0.4-1,0.7-2.1,0.9-3l3.2,0.6
		c-0.4,0.8-0.7,1.6-1.1,2.4h4.6v11.5h-3.9v2h14.1v2.6H692.1z M683,21.7c0-0.4-0.1-0.9-0.3-1.4c-5.2,0.7-6.1,0.8-6.6,1.1
		c-0.1-0.5-0.5-1.8-0.8-2.4c0.6-0.1,1.3-0.7,2-1.5c0.4-0.4,1.1-1.3,2-2.5c-2.6,0.3-3.3,0.5-3.7,0.6c-0.1-0.5-0.6-1.7-0.9-2.4
		c0.5-0.1,0.9-0.5,1.4-1.1c0.5-0.6,2-2.9,2.8-5.1l2.5,0.9c-0.9,1.8-2.1,3.6-3.2,5l2.7-0.2c0.5-0.8,1.1-1.7,1.5-2.6l2.4,1.1
		c-1.7,2.6-3.8,5.2-5.8,7.3l3.1-0.3c-0.3-0.7-0.5-1.4-0.9-2.1l1.9-0.5c0.9,1.6,1.6,3.9,1.8,5.4L683,21.7z M687.8,13.6h5.3v-2.3h-5.3
		V13.6z M687.8,18.2h5.3v-2.4h-5.3V18.2z M696.2,5.1h-5V2.4h5v-2h3.3v2h6.8v2.8h-6.8v2h-3.3V5.1z M695.6,25.4
		c3.5,1.2,8.4,3.3,10.9,4.6l-1.9,2.2c-2.4-1.4-7.2-3.5-10.8-4.9L695.6,25.4z M704.4,21.6c0-0.4-0.1-0.9-0.3-1.4
		c-5.4,0.7-6.3,0.8-6.8,1.1c-0.1-0.5-0.5-1.8-0.8-2.4c0.6-0.1,1.3-0.7,2-1.6c0.3-0.4,1.1-1.3,1.9-2.4c-2.5,0.3-3.1,0.5-3.5,0.6
		c-0.1-0.5-0.5-1.7-0.9-2.4c0.5-0.1,0.9-0.5,1.3-1.1c0.5-0.6,1.9-2.9,2.7-5.1l2.5,0.9c-0.9,1.8-2,3.6-3.1,5.1l2.6-0.2
		c0.6-0.9,1.2-1.9,1.7-2.8l2.4,1.1c-1.7,2.7-3.8,5.4-5.9,7.6l3.3-0.4c-0.2-0.7-0.5-1.4-0.8-2l2-0.6c0.8,1.6,1.6,3.9,1.8,5.4
		L704.4,21.6z"/>
	<path d="M725.2,32.6c-1.1-0.8-2.7-1.6-4.5-2.4c-2.3,1.1-5.5,2.1-10,2.9c-0.2-0.6-0.8-1.6-1.3-2.1c3.5-0.6,6.2-1.3,8.2-2
		c-1.8-0.7-3.5-1.3-5.2-1.8c0.6-0.6,1.1-1.4,1.7-2.2l-3.8,0.2l-0.3-2.4c1.6,0,3.5-0.1,5.6-0.2c0.5-0.9,1.1-1.7,1.5-2.6h-5.5v-6h6.5
		v-1.3h-5.6V8.8H710V6.4h2.5V2.8h5.6V0.4h2.6v2.4h5.9v3.6h2.5v2.5h-2.5v3.8h-5.9v1.3h6.7v6h-7.3c-0.4,0.8-0.9,1.6-1.3,2.4l4.8-0.3v0
		v-1.5h2.6V22l1.5-0.1l0,2.2l-1.7,0.1c-0.3,1.5-1.1,3-2.9,4.4c1.6,0.8,3,1.5,4.1,2.1L725.2,32.6z M714.4,17.8h3.8V16h-3.8V17.8z
		 M715.3,5v1.6h2.8V5H715.3z M718.2,10.4V8.7h-2.8v1.8H718.2z M717.3,24.7c-0.3,0.5-0.6,0.9-0.9,1.3c1.3,0.4,2.8,1,4.1,1.5
		c1.6-1,2.4-2.1,2.8-3.1L717.3,24.7z M720.7,5v1.6h3V5H720.7z M723.7,10.4V8.7h-3v1.8H723.7z M720.7,16v1.8h3.8V16H720.7z M740.1,10
		c-0.6,5.3-1.5,9.8-3.1,13.5c1.5,3,3.4,5.4,5.9,6.9c-0.7,0.5-1.5,1.5-1.9,2.3c-2.2-1.6-4-3.6-5.4-6.3c-1.6,2.8-3.7,5-6.4,6.9
		c-0.3-0.6-1.1-1.9-1.7-2.5c3-1.9,5.1-4.4,6.6-7.5c-1-2.5-1.8-5.4-2.4-8.4c-0.5,1.3-1.1,2.4-1.7,3.4c-0.4-0.5-1.5-1.6-2.2-2.1
		c2.4-3.8,3.7-9.7,4.4-15.7L735,1c-0.3,2.1-0.6,4.1-1,6.1h8.6V10H740.1z M733.3,10c0.5,3.5,1.2,6.8,2.1,9.7c0.9-2.8,1.4-6.1,1.8-9.7
		H733.3z"/>
	<path d="M778.1,29.8v2.5h-32.2v-2.5h14.4v-1.7H749v-2.3h11.4v-1.6h-10.5v-8.9h24.5v8.9h-10.8v1.6h11.5v2.3h-11.5v1.7H778.1z
		 M778,14h-31.9v-2.4H778V14z M773.4,10.2h-22.9V1.5h22.9V10.2z M753,18.9h7.3v-1.6H753V18.9z M760.3,22.4v-1.7H753v1.7H760.3z
		 M770.1,3.4h-16.3V5h16.3V3.4z M770.1,6.7h-16.3v1.6h16.3V6.7z M771.1,17.2h-7.6v1.6h7.6V17.2z M771.1,20.7h-7.6v1.7h7.6V20.7z"/>
</g>
<g class="st0">
	<path d="M48,514.9c7-6.1,10.2-10.6,10.2-14.4c0-2.6-1.4-4.5-4.2-4.5c-1.8,0-3.4,1.1-4.7,2.6l-1.4-1.4c1.8-1.9,3.7-3.2,6.4-3.2
		c3.9,0,6.3,2.5,6.3,6.4c0,4.5-3.5,9-8.9,14.1c1.2-0.1,2.5-0.2,3.6-0.2h6.3v2.1H48V514.9z"/>
	<path d="M64.7,505.3c0-7.7,2.6-11.3,6.8-11.3c4.1,0,6.7,3.7,6.7,11.3c0,7.7-2.6,11.5-6.7,11.5C67.3,516.8,64.7,513,64.7,505.3z
		 M75.8,505.3c0-6.4-1.7-9.3-4.3-9.3c-2.6,0-4.4,2.9-4.4,9.3c0,6.6,1.8,9.5,4.4,9.5C74.1,514.8,75.8,511.8,75.8,505.3z"/>
	<path d="M81.3,505.3c0-7.7,2.6-11.3,6.8-11.3c4.1,0,6.7,3.7,6.7,11.3c0,7.7-2.6,11.5-6.7,11.5C83.9,516.8,81.3,513,81.3,505.3z
		 M92.4,505.3c0-6.4-1.7-9.3-4.3-9.3c-2.6,0-4.4,2.9-4.4,9.3c0,6.6,1.8,9.5,4.4,9.5C90.6,514.8,92.4,511.8,92.4,505.3z"/>
	<path d="M111.9,510.2h-3v6.1h-2.3v-6.1h-9.7v-1.6l9.4-14.3h2.6v13.9h3V510.2z M106.5,508.3v-7.2c0-1.1,0.1-2.8,0.2-3.9h-0.2
		c-0.5,1.1-1.1,2.1-1.7,3.2l-5.3,7.9H106.5z"/>
	<path d="M114.2,507h7.6v1.9h-7.6V507z"/>
	<path d="M124.5,514.9c7-6.1,10.2-10.6,10.2-14.4c0-2.6-1.4-4.5-4.2-4.5c-1.8,0-3.4,1.1-4.7,2.6l-1.4-1.4c1.8-1.9,3.7-3.2,6.4-3.2
		c3.9,0,6.3,2.5,6.3,6.4c0,4.5-3.5,9-8.9,14.1c1.2-0.1,2.5-0.2,3.6-0.2h6.3v2.1h-13.6V514.9z"/>
	<path d="M141.2,505.3c0-7.7,2.6-11.3,6.8-11.3c4.1,0,6.7,3.7,6.7,11.3c0,7.7-2.6,11.5-6.7,11.5C143.8,516.8,141.2,513,141.2,505.3z
		 M152.3,505.3c0-6.4-1.7-9.3-4.3-9.3c-2.6,0-4.4,2.9-4.4,9.3c0,6.6,1.8,9.5,4.4,9.5C150.6,514.8,152.3,511.8,152.3,505.3z"/>
	<path d="M157.7,505.3c0-7.7,2.6-11.3,6.8-11.3c4.1,0,6.7,3.7,6.7,11.3c0,7.7-2.6,11.5-6.7,11.5C160.4,516.8,157.7,513,157.7,505.3z
		 M168.9,505.3c0-6.4-1.7-9.3-4.3-9.3c-2.6,0-4.4,2.9-4.4,9.3c0,6.6,1.8,9.5,4.4,9.5C167.1,514.8,168.9,511.8,168.9,505.3z"/>
	<path d="M174.1,510.9c0-3,2.1-5,4.1-6.1v-0.1c-1.6-1.1-3-2.7-3-5.1c0-3.3,2.6-5.6,5.9-5.6c3.7,0,6,2.4,6,5.8c0,2.3-1.7,4.3-3,5.4
		v0.2c1.9,1.1,3.7,2.8,3.7,5.8c0,3.2-2.7,5.7-6.8,5.7C177.1,516.8,174.1,514.3,174.1,510.9z M185.6,511.1c0-3.1-2.8-4.2-6-5.5
		c-1.9,1.2-3.2,3-3.2,5.2c0,2.4,2,4.2,4.8,4.2C183.8,514.9,185.6,513.3,185.6,511.1z M185,499.9c0-2.2-1.4-4.1-3.9-4.1
		c-2.1,0-3.6,1.5-3.6,3.7c0,2.7,2.5,3.9,5.1,4.9C184.2,503.2,185,501.6,185,499.9z"/>
</g>
<rect x="71" y="307" class="st1" width="94" height="157.7"/>
<line class="st2" x1="0" y1="464.8" x2="952" y2="464.8"/>
<g class="st0">
	<path class="st3" d="M101.7,348.4l1.7-2.2c1.3,1.3,3,2.4,5.2,2.4c2.5,0,4.2-1.4,4.2-3.7c0-2.5-1.6-4.1-6.6-4.1v-2.6
		c4.4,0,5.8-1.7,5.8-3.9c0-2-1.3-3.2-3.4-3.2c-1.7,0-3.2,0.9-4.4,2.1l-1.8-2.2c1.7-1.6,3.8-2.7,6.4-2.7c4,0,6.8,2,6.8,5.7
		c0,2.6-1.5,4.3-3.8,5.2v0.2c2.6,0.6,4.6,2.6,4.6,5.5c0,4-3.3,6.4-7.4,6.4C105.4,351.5,103.1,350.1,101.7,348.4z"/>
	<path class="st3" d="M118.8,348.4l1.7-2.2c1.3,1.3,3,2.4,5.2,2.4c2.5,0,4.2-1.4,4.2-3.7c0-2.5-1.6-4.1-6.6-4.1v-2.6
		c4.4,0,5.8-1.7,5.8-3.9c0-2-1.3-3.2-3.4-3.2c-1.7,0-3.2,0.9-4.4,2.1l-1.8-2.2c1.7-1.6,3.8-2.7,6.4-2.7c4,0,6.8,2,6.8,5.7
		c0,2.6-1.5,4.3-3.8,5.2v0.2c2.6,0.6,4.6,2.6,4.6,5.5c0,4-3.3,6.4-7.4,6.4C122.6,351.5,120.3,350.1,118.8,348.4z"/>
</g>
<g class="st0">
	<path d="M286,514.9c7-6.1,10.2-10.6,10.2-14.4c0-2.6-1.4-4.5-4.2-4.5c-1.8,0-3.4,1.1-4.7,2.6l-1.4-1.4c1.8-1.9,3.7-3.2,6.4-3.2
		c3.9,0,6.3,2.5,6.3,6.4c0,4.5-3.5,9-8.9,14.1c1.2-0.1,2.5-0.2,3.6-0.2h6.3v2.1H286V514.9z"/>
	<path d="M302.7,505.3c0-7.7,2.6-11.3,6.8-11.3c4.1,0,6.7,3.7,6.7,11.3c0,7.7-2.6,11.5-6.7,11.5C305.3,516.8,302.7,513,302.7,505.3z
		 M313.8,505.3c0-6.4-1.7-9.3-4.3-9.3c-2.6,0-4.4,2.9-4.4,9.3c0,6.6,1.8,9.5,4.4,9.5C312.1,514.8,313.8,511.8,313.8,505.3z"/>
	<path d="M319.3,505.3c0-7.7,2.6-11.3,6.8-11.3c4.1,0,6.7,3.7,6.7,11.3c0,7.7-2.6,11.5-6.7,11.5C321.9,516.8,319.3,513,319.3,505.3z
		 M330.4,505.3c0-6.4-1.7-9.3-4.3-9.3c-2.6,0-4.4,2.9-4.4,9.3c0,6.6,1.8,9.5,4.4,9.5C328.6,514.8,330.4,511.8,330.4,505.3z"/>
	<path d="M337.4,513c1,1.1,2.3,1.7,3.8,1.7c2.9,0,5.5-2.4,5.7-9.5c-1.4,1.7-3.3,2.8-5.2,2.8c-3.7,0-6-2.4-6-6.9
		c0-4.2,2.8-7.1,6.2-7.1c4.2,0,7.3,3.5,7.3,10.4c0,9-3.8,12.4-7.9,12.4c-2.3,0-4-0.9-5.2-2.2L337.4,513z M346.8,503.1
		c-0.2-4.6-2-7.2-5-7.2c-2.2,0-3.9,2.1-3.9,5.2c0,3,1.3,5.1,4.1,5.1C343.6,506.1,345.3,505.3,346.8,503.1z"/>
	<path d="M352.2,507h7.6v1.9h-7.6V507z"/>
	<path d="M362.5,514.9c7-6.1,10.2-10.6,10.2-14.4c0-2.6-1.4-4.5-4.2-4.5c-1.8,0-3.4,1.1-4.7,2.6l-1.4-1.4c1.8-1.9,3.7-3.2,6.4-3.2
		c3.9,0,6.3,2.5,6.3,6.4c0,4.5-3.5,9-8.9,14.1c1.2-0.1,2.5-0.2,3.6-0.2h6.3v2.1h-13.6V514.9z"/>
	<path d="M379.2,505.3c0-7.7,2.6-11.3,6.8-11.3c4.1,0,6.7,3.7,6.7,11.3c0,7.7-2.6,11.5-6.7,11.5C381.8,516.8,379.2,513,379.2,505.3z
		 M390.3,505.3c0-6.4-1.7-9.3-4.3-9.3c-2.6,0-4.4,2.9-4.4,9.3c0,6.6,1.8,9.5,4.4,9.5C388.6,514.8,390.3,511.8,390.3,505.3z"/>
	<path d="M396.9,514.3h4.9v-16.9H398v-1.6c1.9-0.3,3.3-0.8,4.5-1.5h1.9v20h4.5v2h-11.9V514.3z"/>
	<path d="M411.7,513.8l1.3-1.6c1.3,1.3,3,2.6,5.6,2.6c2.7,0,4.6-1.7,4.6-4.3c0-2.7-1.9-4.6-7-4.6v-1.9c4.6,0,6.2-1.9,6.2-4.4
		c0-2.2-1.5-3.6-3.9-3.7c-1.8,0-3.4,1-4.6,2.2l-1.4-1.6c1.6-1.5,3.6-2.6,6.1-2.6c3.6,0,6.3,2,6.3,5.5c0,2.7-1.6,4.5-3.9,5.4v0.1
		c2.6,0.6,4.7,2.6,4.7,5.6c0,3.9-3.1,6.3-6.9,6.3C415.2,516.8,413.1,515.3,411.7,513.8z"/>
</g>
<rect x="309" y="270.5" class="st1" width="94" height="194.2"/>
<g class="st0">
	<path class="st3" d="M339.7,308.4l1.7-2.2c1.3,1.3,3,2.4,5.2,2.4c2.5,0,4.2-1.4,4.2-3.7c0-2.5-1.6-4.1-6.6-4.1v-2.6
		c4.4,0,5.8-1.7,5.8-3.9c0-2-1.3-3.2-3.4-3.2c-1.7,0-3.2,0.9-4.4,2.1l-1.8-2.2c1.7-1.6,3.8-2.7,6.4-2.7c4,0,6.8,2,6.8,5.7
		c0,2.6-1.5,4.3-3.8,5.2v0.2c2.6,0.6,4.6,2.6,4.6,5.5c0,4-3.3,6.4-7.4,6.4C343.4,311.4,341.1,310.1,339.7,308.4z"/>
	<path class="st3" d="M369.6,292.9c-0.8-1-2.2-1.7-3.5-1.7c-2.8,0-5.2,2.1-5.3,8.5c1.3-1.6,3.2-2.6,4.8-2.6c3.7,0,6.2,2.3,6.2,7
		c0,4.4-3,7.3-6.6,7.3c-4.2,0-7.7-3.5-7.7-11.1c0-8.5,4-11.9,8.4-11.9c2.5,0,4.3,1.1,5.5,2.4L369.6,292.9z M368.7,304.2
		c0-2.9-1.3-4.5-3.6-4.5c-1.3,0-2.8,0.7-4.1,2.6c0.4,4.4,2,6.5,4.3,6.5C367.1,308.8,368.7,307,368.7,304.2z"/>
</g>
<g class="st0">
	<path d="M525,514.9c7-6.1,10.2-10.6,10.2-14.4c0-2.6-1.4-4.5-4.2-4.5c-1.8,0-3.4,1.1-4.7,2.6l-1.4-1.4c1.8-1.9,3.7-3.2,6.4-3.2
		c3.9,0,6.3,2.5,6.3,6.4c0,4.5-3.5,9-8.9,14.1c1.2-0.1,2.5-0.2,3.6-0.2h6.3v2.1H525V514.9z"/>
	<path d="M541.7,505.3c0-7.7,2.6-11.3,6.8-11.3c4.1,0,6.7,3.7,6.7,11.3c0,7.7-2.6,11.5-6.7,11.5C544.3,516.8,541.7,513,541.7,505.3z
		 M552.8,505.3c0-6.4-1.7-9.3-4.3-9.3c-2.6,0-4.4,2.9-4.4,9.3c0,6.6,1.8,9.5,4.4,9.5C551.1,514.8,552.8,511.8,552.8,505.3z"/>
	<path d="M559.4,514.3h4.9v-16.9h-3.9v-1.6c1.9-0.3,3.3-0.8,4.5-1.5h1.9v20h4.5v2h-11.9V514.3z"/>
	<path d="M588.9,510.2h-3v6.1h-2.3v-6.1h-9.7v-1.6l9.4-14.3h2.6v13.9h3V510.2z M583.5,508.3v-7.2c0-1.1,0.1-2.8,0.2-3.9h-0.2
		c-0.5,1.1-1.1,2.1-1.7,3.2l-5.3,7.9H583.5z"/>
	<path d="M591.2,507h7.6v1.9h-7.6V507z"/>
	<path d="M601.5,514.9c7-6.1,10.2-10.6,10.2-14.4c0-2.6-1.4-4.5-4.2-4.5c-1.8,0-3.4,1.1-4.7,2.6l-1.4-1.4c1.8-1.9,3.7-3.2,6.4-3.2
		c3.9,0,6.3,2.5,6.3,6.4c0,4.5-3.5,9-8.9,14.1c1.2-0.1,2.5-0.2,3.6-0.2h6.3v2.1h-13.6V514.9z"/>
	<path d="M618.2,505.3c0-7.7,2.6-11.3,6.8-11.3c4.1,0,6.7,3.7,6.7,11.3c0,7.7-2.6,11.5-6.7,11.5C620.8,516.8,618.2,513,618.2,505.3z
		 M629.3,505.3c0-6.4-1.7-9.3-4.3-9.3c-2.6,0-4.4,2.9-4.4,9.3c0,6.6,1.8,9.5,4.4,9.5C627.6,514.8,629.3,511.8,629.3,505.3z"/>
	<path d="M635.9,514.3h4.9v-16.9H637v-1.6c1.9-0.3,3.3-0.8,4.5-1.5h1.9v20h4.5v2h-11.9V514.3z"/>
	<path d="M651.1,510.9c0-3,2.1-5,4.1-6.1v-0.1c-1.6-1.1-3-2.7-3-5.1c0-3.3,2.6-5.6,5.9-5.6c3.7,0,6,2.4,6,5.8c0,2.3-1.7,4.3-3,5.4
		v0.2c1.9,1.1,3.7,2.8,3.7,5.8c0,3.2-2.7,5.7-6.8,5.7C654.1,516.8,651.1,514.3,651.1,510.9z M662.6,511.1c0-3.1-2.8-4.2-6-5.5
		c-1.9,1.2-3.2,3-3.2,5.2c0,2.4,2,4.2,4.8,4.2C660.8,514.9,662.6,513.3,662.6,511.1z M662,499.9c0-2.2-1.4-4.1-3.9-4.1
		c-2.1,0-3.6,1.5-3.6,3.7c0,2.7,2.5,3.9,5.1,4.9C661.2,503.2,662,501.6,662,499.9z"/>
</g>
<rect x="548" y="148.8" class="st1" width="94" height="316"/>
<g class="st0">
	<path class="st3" d="M594.1,184.4h-2.8v6H588v-6h-9.6v-2.3l8.8-13.9h4v13.5h2.8V184.4z M588,181.7v-5.8c0-1.2,0.1-3.1,0.2-4.3h-0.1
		c-0.5,1.1-1.1,2.3-1.8,3.4l-4.4,6.7H588z"/>
	<path class="st3" d="M608.6,172.3c-0.8-1-2.2-1.7-3.5-1.7c-2.8,0-5.2,2.1-5.3,8.5c1.3-1.6,3.2-2.6,4.8-2.6c3.7,0,6.2,2.3,6.2,7
		c0,4.4-3,7.3-6.6,7.3c-4.2,0-7.7-3.5-7.7-11.1c0-8.5,4-11.9,8.4-11.9c2.5,0,4.3,1.1,5.5,2.4L608.6,172.3z M607.7,183.5
		c0-2.9-1.3-4.5-3.6-4.5c-1.3,0-2.8,0.7-4.1,2.6c0.4,4.4,2,6.5,4.3,6.5C606.1,188.1,607.7,186.4,607.7,183.5z"/>
</g>
<g class="st0">
	<path d="M764,514.9c7-6.1,10.2-10.6,10.2-14.4c0-2.6-1.4-4.5-4.2-4.5c-1.8,0-3.4,1.1-4.7,2.6l-1.4-1.4c1.8-1.9,3.7-3.2,6.4-3.2
		c3.9,0,6.3,2.5,6.3,6.4c0,4.5-3.5,9-8.9,14.1c1.2-0.1,2.5-0.2,3.6-0.2h6.3v2.1H764V514.9z"/>
	<path d="M780.7,505.3c0-7.7,2.6-11.3,6.8-11.3c4.1,0,6.7,3.7,6.7,11.3c0,7.7-2.6,11.5-6.7,11.5C783.3,516.8,780.7,513,780.7,505.3z
		 M791.8,505.3c0-6.4-1.7-9.3-4.3-9.3c-2.6,0-4.4,2.9-4.4,9.3c0,6.6,1.8,9.5,4.4,9.5C790.1,514.8,791.8,511.8,791.8,505.3z"/>
	<path d="M798.4,514.3h4.9v-16.9h-3.9v-1.6c1.9-0.3,3.3-0.8,4.5-1.5h1.9v20h4.5v2h-11.9V514.3z"/>
	<path d="M815.4,513c1,1.1,2.3,1.7,3.8,1.7c2.9,0,5.5-2.4,5.7-9.5c-1.4,1.7-3.3,2.8-5.2,2.8c-3.7,0-6-2.4-6-6.9
		c0-4.2,2.8-7.1,6.2-7.1c4.2,0,7.3,3.5,7.3,10.4c0,9-3.8,12.4-7.9,12.4c-2.3,0-4-0.9-5.2-2.2L815.4,513z M824.8,503.1
		c-0.2-4.6-2-7.2-5-7.2c-2.2,0-3.9,2.1-3.9,5.2c0,3,1.3,5.1,4.1,5.1C821.6,506.1,823.3,505.3,824.8,503.1z"/>
	<path d="M830.2,507h7.6v1.9h-7.6V507z"/>
	<path d="M840.5,514.9c7-6.1,10.2-10.6,10.2-14.4c0-2.6-1.4-4.5-4.2-4.5c-1.8,0-3.4,1.1-4.7,2.6l-1.4-1.4c1.8-1.9,3.7-3.2,6.4-3.2
		c3.9,0,6.3,2.5,6.3,6.4c0,4.5-3.5,9-8.9,14.1c1.2-0.1,2.5-0.2,3.6-0.2h6.3v2.1h-13.6V514.9z"/>
	<path d="M857.2,505.3c0-7.7,2.6-11.3,6.8-11.3c4.1,0,6.7,3.7,6.7,11.3c0,7.7-2.6,11.5-6.7,11.5C859.8,516.8,857.2,513,857.2,505.3z
		 M868.3,505.3c0-6.4-1.7-9.3-4.3-9.3c-2.6,0-4.4,2.9-4.4,9.3c0,6.6,1.8,9.5,4.4,9.5C866.6,514.8,868.3,511.8,868.3,505.3z"/>
	<path d="M873.6,514.9c7-6.1,10.2-10.6,10.2-14.4c0-2.6-1.4-4.5-4.2-4.5c-1.8,0-3.4,1.1-4.7,2.6l-1.4-1.4c1.8-1.9,3.7-3.2,6.4-3.2
		c3.9,0,6.3,2.5,6.3,6.4c0,4.5-3.5,9-8.9,14.1c1.2-0.1,2.5-0.2,3.6-0.2h6.3v2.1h-13.6V514.9z"/>
	<path d="M889.7,513.8l1.3-1.6c1.3,1.3,3,2.6,5.6,2.6c2.7,0,4.6-1.7,4.6-4.3c0-2.7-1.9-4.6-7-4.6v-1.9c4.6,0,6.2-1.9,6.2-4.4
		c0-2.2-1.5-3.6-3.9-3.7c-1.8,0-3.4,1-4.6,2.2l-1.4-1.6c1.6-1.5,3.6-2.6,6.1-2.6c3.6,0,6.3,2,6.3,5.5c0,2.7-1.6,4.5-3.9,5.4v0.1
		c2.6,0.6,4.7,2.6,4.7,5.6c0,3.9-3.1,6.3-6.9,6.3C893.2,516.8,891.1,515.3,889.7,513.8z"/>
</g>
<g class="st0">
	<path d="M796.7,552c0-5.9,1.7-10.8,4.4-15.2l1.5,0.7c-2.6,4.3-3.9,9.4-3.9,14.5c0,5.2,1.3,10.2,3.9,14.5l-1.5,0.7
		C798.4,562.8,796.7,558,796.7,552z"/>
	<path d="M813.8,553.5c0.6-1.2,1.2-2.9,1.8-4.5h-3.4v12.3c0,1.1-0.2,1.7-1.1,2c-0.8,0.3-2.1,0.3-4.2,0.3c-0.1-0.5-0.4-1.4-0.6-1.9
		c1.6,0,3,0,3.4,0c0.5,0,0.6-0.1,0.6-0.5V549h-5v-1.8h7.8c-1.5-1.5-4.1-3.3-6.3-4.5l1.1-1.3c1,0.5,2.1,1.2,3.1,1.8
		c1.1-1.1,2.3-2.4,3.2-3.7h-8.3v-1.8h9.6l0.4-0.1l1.3,0.9c-1.2,2-3,4.2-4.7,5.8c1,0.7,1.8,1.4,2.4,2.1l-0.7,0.9h2.3l0.3-0.1l1.2,0.4
		c-0.8,2.3-1.8,4.8-2.6,6.4L813.8,553.5z M823.3,559.7c-1.7,1.6-4.4,3.2-6.8,4.1c-0.3-0.4-0.9-1-1.3-1.4c2.4-0.8,5.1-2.4,6.4-3.7
		L823.3,559.7z M823.1,542.4c0.2-0.9,0.5-2,0.7-3h-6.4v-1.8h15.2v1.8h-6.6c-0.3,1-0.6,2.1-0.9,3h6.4V558h-13v-15.5H823.1z
		 M829.5,544h-9.2v3.1h9.2V544z M829.5,548.6h-9.2v3.1h9.2V548.6z M829.5,553.3h-9.2v3.2h9.2V553.3z M827.7,558.8
		c1.9,1,4.2,2.7,5.4,3.8l-1.6,1.2c-1.1-1.1-3.4-2.8-5.3-3.9L827.7,558.8z"/>
	<path d="M844.1,536.9c-0.9,2.3-2,4.5-3.2,6.6v20.1H839v-17.1c-1,1.4-2.1,2.7-3.2,3.9c-0.2-0.5-0.8-1.5-1.2-2
		c3-2.9,5.8-7.4,7.6-12.1L844.1,536.9z M854.2,544.8v6.3h6.8v12.4h-2v-1.2h-11.4v1.3h-2v-12.6h6.5v-6.3h-8.3v-1.9h8.3v-6.6h2v6.6
		h8.6v1.9H854.2z M858.9,553h-11.4v7.5h11.4V553z"/>
	<path d="M865.4,566.6c2.6-4.3,3.9-9.4,3.9-14.5c0-5.2-1.3-10.2-3.9-14.5l1.5-0.7c2.8,4.5,4.4,9.3,4.4,15.2c0,5.9-1.7,10.8-4.4,15.2
		L865.4,566.6z"/>
</g>
<rect x="787" y="53.2" class="st1" width="94" height="411.5"/>
<g class="st0">
	<path class="st3" d="M817.6,93.4l1.7-2.3c1.3,1.3,2.9,2.4,5.2,2.4c2.5,0,4.4-1.8,4.4-4.7s-1.7-4.6-4.2-4.6c-1.4,0-2.3,0.4-3.6,1.3
		l-1.7-1.1l0.7-10.5h11.2v2.9h-8.2l-0.5,5.7c0.9-0.5,1.8-0.8,3-0.8c3.7,0,6.7,2.2,6.7,7c0,4.9-3.6,7.7-7.5,7.7
		C821.4,96.4,819.2,94.9,817.6,93.4z"/>
	<path class="st3" d="M850.3,90h-2.8v6h-3.3v-6h-9.6v-2.3l8.8-13.9h4v13.5h2.8V90z M844.2,87.3v-5.8c0-1.2,0.1-3.1,0.2-4.3h-0.1
		c-0.5,1.1-1.1,2.3-1.8,3.4l-4.4,6.7H844.2z"/>
</g>
<line class="st2" x1="0.5" y1="464.8" x2="0.5" y2="478.2"/>
<line class="st2" x1="232.2" y1="464.8" x2="232.2" y2="478.2"/>
<line class="st2" x1="463.9" y1="464.8" x2="463.9" y2="478.2"/>
<line class="st2" x1="695.6" y1="464.8" x2="695.6" y2="478.2"/>
<line class="st2" x1="951.6" y1="464.8" x2="951.6" y2="478.2"/>
<text transform="matrix(1 0 0 1 172.1511 792.7686)" style="font-family:'SourceHanSansTW-Medium-B5pc-H'; font-size:35.7469px;">每個期間每年平均上市的全球新藥數量</text>
<text transform="matrix(1 0 0 1 46.6782 1278.7373)" style="font-family:'SourceHanSansTW-Normal-B5pc-H'; font-size:30.1256px;">2004-2008</text>
<rect x="71" y="1069.4" class="st1" width="94" height="157.7"/>
<line class="st2" x1="0" y1="1227.1" x2="952" y2="1227.1"/>
<text transform="matrix(1 0 0 1 100.8288 1113.4432)" class="st3" style="font-family:'SourceHanSansTW-Medium-B5pc-H'; font-size:30.1256px;">33</text>
<text transform="matrix(1 0 0 1 284.6782 1278.7373)" style="font-family:'SourceHanSansTW-Normal-B5pc-H'; font-size:30.1256px;">2009-2013</text>
<rect x="309" y="1032.9" class="st1" width="94" height="194.2"/>
<text transform="matrix(1 0 0 1 338.8288 1073.3993)" class="st3" style="font-family:'SourceHanSansTW-Medium-B5pc-H'; font-size:30.1256px;">36</text>
<text transform="matrix(1 0 0 1 523.6782 1278.7373)" style="font-family:'SourceHanSansTW-Normal-B5pc-H'; font-size:30.1256px;">2014-2018</text>
<rect x="548" y="911.1" class="st1" width="94" height="316"/>
<text transform="matrix(1 0 0 1 577.8288 952.7373)" class="st3" style="font-family:'SourceHanSansTW-Medium-B5pc-H'; font-size:30.1256px;">46</text>
<text transform="matrix(1 0 0 1 762.6782 1278.7373)" style="font-family:'SourceHanSansTW-Normal-B5pc-H'; font-size:30.1256px;">2019-2023</text>
<text transform="matrix(1 0 0 1 793.9028 1323.7373)" style="font-family:'SourceHanSansTW-Normal-B5pc-H'; font-size:30.1256px;">(預估)</text>
<rect x="787" y="815.6" class="st1" width="94" height="411.5"/>
<text transform="matrix(1 0 0 1 816.8288 858.3256)" class="st3" style="font-family:'SourceHanSansTW-Medium-B5pc-H'; font-size:30.1256px;">54</text>
<line class="st2" x1="0.5" y1="1227.1" x2="0.5" y2="1240.5"/>
<line class="st2" x1="232.2" y1="1227.1" x2="232.2" y2="1240.5"/>
<line class="st2" x1="463.9" y1="1227.1" x2="463.9" y2="1240.5"/>
<line class="st2" x1="695.6" y1="1227.1" x2="695.6" y2="1240.5"/>
<line class="st2" x1="951.6" y1="1227.1" x2="951.6" y2="1240.5"/>
</svg>
