<?xml version="1.0" encoding="utf-8"?>
<!-- Generator: Adobe Illustrator 24.0.1, SVG Export Plug-In . SVG Version: 6.00 Build 0)  -->
<svg version="1.1" id="圖層_1" xmlns="http://www.w3.org/2000/svg" xmlns:xlink="http://www.w3.org/1999/xlink" x="0px" y="0px"
	 viewBox="0 0 952 487.3" style="enable-background:new 0 0 952 487.3;" xml:space="preserve">
<style type="text/css">
	.st0{enable-background:new    ;}
	.st1{fill:#3C3B6E;}
	.st2{fill:#F42A2A;}
	.st3{fill:#D3376A;}
	.st4{fill:none;stroke:#000000;stroke-miterlimit:10;}
</style>
<g class="st0">
	<path d="M282.4,2.7h2.1l4.4,7.8l1.4,2.8h0.1c-0.1-1.4-0.3-3-0.3-4.4V2.7h2V16h-2.1l-4.4-7.8l-1.4-2.8h-0.1c0.1,1.4,0.3,2.9,0.3,4.3
		V16h-2V2.7z"/>
	<path d="M295.6,2.7h4.1c2.7,0,4.7,0.9,4.7,3.3c0,1.3-0.7,2.5-1.9,2.9V9c1.5,0.3,2.6,1.4,2.6,3.2c0,2.6-2.1,3.9-5.1,3.9h-4.4V2.7z
		 M299.4,8.3c2,0,2.9-0.8,2.9-2c0-1.4-0.9-1.9-2.8-1.9h-1.8v3.9H299.4z M299.8,14.4c2.1,0,3.3-0.7,3.3-2.4c0-1.5-1.2-2.1-3.3-2.1
		h-2.1v4.5H299.8z"/>
	<path d="M307.6,2.7h2.1V16h-2.1V2.7z"/>
	<path d="M328.4,15.2v1.6h-16v-1.6h7.1v-4.1h-5.1V9.5h5.1V5.9h-4c-0.6,1.1-1.2,2-1.8,2.8c-0.3-0.3-1.1-0.8-1.5-1
		c1.5-1.5,2.6-4,3.3-6.5l1.7,0.4c-0.3,0.9-0.6,1.8-0.9,2.7h3.3V0.9h1.7v3.3h6.3v1.6h-6.3v3.6h5.6v1.6h-5.6v4.1H328.4z"/>
	<path d="M336.2,10.2c-0.7,0.2-1.4,0.4-2.1,0.6v4.7c0,0.9-0.2,1.3-0.7,1.6c-0.5,0.3-1.3,0.3-2.6,0.3c-0.1-0.4-0.3-1.1-0.5-1.5
		c0.8,0,1.5,0,1.8,0c0.3,0,0.4-0.1,0.4-0.3v-4.3c-0.7,0.2-1.4,0.4-2,0.5l-0.4-1.6c0.7-0.2,1.5-0.4,2.4-0.6V6h-2.2V4.4h2.2V0.9h1.6
		v3.5h1.9V6h-1.9v3.2l1.9-0.5L336.2,10.2z M345.9,8c-0.7,2.5-1.9,4.4-3.5,6c1.2,0.9,2.7,1.6,4.4,2.1c-0.4,0.3-0.8,1-1.1,1.4
		c-1.8-0.5-3.3-1.3-4.7-2.4c-1.4,1.1-3.1,1.9-4.9,2.4c-0.2-0.4-0.6-1.2-0.9-1.5c1.7-0.4,3.2-1.1,4.6-2c-1.2-1.3-2.1-2.9-2.8-4.7
		l0.2-0.1h-0.7V7.6h3.7V5.1h-4V3.6h4V0.9h1.7v2.7h4.2v1.5H342v2.5h2.6l0.3-0.1L345.9,8z M338.7,9.1c0.6,1.4,1.4,2.6,2.4,3.7
		c1.1-1,2-2.3,2.6-3.7H338.7z"/>
	<path d="M354.5,10.1l-2.2,0.6v4.8c0,0.9-0.2,1.3-0.7,1.6c-0.5,0.3-1.3,0.3-2.5,0.3c-0.1-0.4-0.3-1.1-0.5-1.5c0.8,0,1.5,0,1.7,0
		c0.2,0,0.3-0.1,0.3-0.3v-4.3c-0.8,0.2-1.6,0.4-2.3,0.6l-0.5-1.6c0.8-0.2,1.7-0.4,2.7-0.7V6h-2.4V4.4h2.4V0.9h1.7v3.5h1.9V6h-1.9V9
		c0.6-0.2,1.3-0.4,1.9-0.5L354.5,10.1z M357.8,8.1c-2,0-2.7-0.6-2.7-2.4V0.9h1.7V3h7.1v1.4h-7.1v1.3c0,0.7,0.2,1,1,1h4.4
		c0.6,0,1.6,0,2.1-0.1c0.1,0.5,0.1,1.1,0.2,1.4c-0.4,0.1-1.3,0.1-2.2,0.1H357.8z M355.3,9.5h8.5v7.9h-1.7v-0.7h-5.3v0.8h-1.6V9.5z
		 M356.8,10.9v1.5h5.3v-1.5H356.8z M362.1,15.2v-1.6h-5.3v1.6H362.1z"/>
	<path d="M373.9,17.1c-0.6-0.4-1.4-0.8-2.3-1.2c-1.2,0.6-2.8,1.1-5,1.4c-0.1-0.3-0.4-0.8-0.6-1.1c1.8-0.3,3.1-0.6,4.1-1
		c-0.9-0.4-1.8-0.7-2.6-0.9c0.3-0.3,0.6-0.7,0.9-1.1l-1.9,0.1l-0.1-1.2c0.8,0,1.8-0.1,2.8-0.1c0.3-0.5,0.5-0.9,0.7-1.3H367v-3h3.3
		V7.1h-2.8V5.1h-1.3V3.9h1.3V2.1h2.8V0.9h1.3v1.2h3v1.8h1.2v1.2h-1.2v1.9h-3v0.6h3.4v3h-3.7c-0.2,0.4-0.4,0.8-0.7,1.2l2.4-0.1v0
		v-0.7h1.3v0.7l0.8,0l0,1.1l-0.8,0.1c-0.2,0.7-0.5,1.5-1.4,2.2c0.8,0.4,1.5,0.8,2.1,1.1L373.9,17.1z M368.4,9.7h1.9V8.8h-1.9V9.7z
		 M368.9,3.2V4h1.4V3.2H368.9z M370.3,5.9V5.1h-1.4v0.9H370.3z M369.9,13.1c-0.1,0.2-0.3,0.4-0.5,0.6c0.7,0.2,1.4,0.5,2.1,0.8
		c0.8-0.5,1.2-1,1.4-1.6L369.9,13.1z M371.6,3.2V4h1.5V3.2H371.6z M373.1,5.9V5.1h-1.5v0.9H373.1z M371.6,8.8v0.9h1.9V8.8H371.6z
		 M381.4,5.7c-0.3,2.7-0.8,4.9-1.6,6.8c0.7,1.5,1.7,2.7,3,3.5c-0.3,0.3-0.8,0.8-1,1.2c-1.1-0.8-2-1.8-2.7-3.2
		c-0.8,1.4-1.9,2.5-3.2,3.5c-0.1-0.3-0.6-1-0.9-1.2c1.5-0.9,2.6-2.2,3.3-3.8c-0.5-1.3-0.9-2.7-1.2-4.2c-0.3,0.6-0.5,1.2-0.8,1.7
		c-0.2-0.3-0.8-0.8-1.1-1C376.4,7,377,4,377.4,1l1.4,0.2c-0.1,1-0.3,2.1-0.5,3.1h4.3v1.5H381.4z M377.9,5.7c0.2,1.7,0.6,3.4,1.1,4.9
		c0.5-1.4,0.7-3.1,0.9-4.9H377.9z"/>
	<path d="M388.8,9.4c-0.3,1.6-0.8,3.3-1.5,4.6c0.3,0.2,0.7,0.5,1.3,0.8c1.2,0.8,2.9,0.9,5,0.9c2.2,0,5.2-0.2,7.2-0.4
		c-0.2,0.5-0.5,1.3-0.5,1.7c-1.4,0.1-4.7,0.2-6.8,0.2c-2.4,0-3.9-0.2-5.2-1c-0.7-0.4-1.4-1-1.8-1s-1,1.2-1.5,2.3l-1.1-1.5
		c0.6-0.8,1.3-1.5,1.8-1.9c0.5-1,0.9-2.3,1.2-3.5h-2.3c0.4-1.1,1-2.5,1.4-3.9h-1.8V5.2h3.9c-0.4,1.3-0.9,2.8-1.4,4h1l0.3-0.1
		L388.8,9.4z M386.1,4.4c-0.2-0.8-0.6-2.1-0.9-3l1.5-0.4c0.3,0.9,0.8,2.1,1,2.9L386.1,4.4z M391,14.7h-1.5V7h1.4V1.5h7.5V7h1.4v6.2
		c0,0.7-0.1,1.1-0.6,1.3c-0.5,0.2-1.2,0.2-2.2,0.2c-0.1-0.4-0.2-1-0.4-1.3c0.6,0,1.3,0,1.4,0c0.2,0,0.3-0.1,0.3-0.2V8.3H391V14.7z
		 M396.9,13.1h-3.4v0.6h-1.2V9.2h4.6V13.1z M392.4,7h1.4V4h3.1V2.7h-4.5V7z M395.7,10.4h-2.2V12h2.2V10.4z M396.9,5.2H395V7h1.9V5.2
		z"/>
	<path d="M409.9,9.9c-1.1,1.8-2.4,3.5-3.7,4.9l8.1-0.5c-0.7-1-1.5-2-2.2-2.9l1.5-0.7c1.6,1.8,3.3,4.1,4.1,5.7l-1.7,0.9
		c-0.2-0.5-0.5-1-0.8-1.5c-9.4,0.8-10.5,0.8-11.3,1.1c-0.1-0.4-0.4-1.2-0.6-1.7c0.4-0.1,0.8-0.5,1.3-1.1c0.5-0.5,1.9-2.3,3-4.2h-5.4
		V8.2h7.1v-3h-5.7V3.5h5.7V0.9h1.8v2.7h5.9v1.7h-5.9v3h7.2v1.7H409.9z"/>
	<path d="M436.5,9.2h-7.2v8.2h-1.8V9.2h-7.1V7.5h7.1V0.9h1.8v6.6h7.2V9.2z"/>
	<path d="M454.5,13.4h-6.3v4h-1.7v-4h-8.2v-1.6h2.9V7.1h5.3V4.6h-4.1c-0.8,1.3-1.7,2.5-2.6,3.4c-0.3-0.3-1-0.8-1.5-1.1
		c1.7-1.4,3.1-3.7,3.9-6.1l1.7,0.5c-0.2,0.6-0.5,1.2-0.7,1.7h10.4v1.6h-5.4v2.5h5v1.6h-5v3.2h6.3V13.4z M446.5,11.8V8.6h-3.6v3.2
		H446.5z"/>
	<path d="M460.4,4.1c-0.9,1.4-1.8,2.6-2.8,3.6c-0.3-0.3-1.1-0.8-1.5-1c1.7-1.4,3.2-3.7,4.1-5.9l1.7,0.5c-0.2,0.4-0.4,0.9-0.7,1.3
		H472v1.5H460.4z M470,11.1c-0.1,1-0.1,1.8-0.2,2.5h2.1v1.5h-2.3c-0.1,0.8-0.3,1.3-0.5,1.6c-0.3,0.5-0.8,0.7-1.4,0.7
		c-0.6,0.1-1.5,0.1-2.3,0c0-0.4-0.2-1-0.4-1.3c0.9,0.1,1.6,0.1,2,0.1c0.3,0,0.5-0.1,0.6-0.3c0.1-0.1,0.2-0.4,0.3-0.8h-10
		c0.2-1.1,0.5-2.5,0.7-3.9h-2.5V9.6h2.7c0.2-1.4,0.3-2.7,0.5-3.9h10.8c0,0,0,0.5,0,0.8c0,1.2-0.1,2.2-0.1,3.1h2.5v1.5H470z
		 M460.4,11.1c-0.1,0.9-0.3,1.7-0.4,2.5h4.8c-0.7-0.6-1.8-1.3-2.8-1.8l0.7-0.7H460.4z M460.9,7.2c-0.1,0.8-0.2,1.6-0.3,2.5h4.6
		c-0.7-0.6-1.8-1.3-2.7-1.7l0.8-0.8H460.9z M468.2,13.6c0.1-0.7,0.1-1.5,0.2-2.5h-5c1.1,0.5,2.2,1.3,2.8,1.9l-0.6,0.6H468.2z
		 M468.4,9.7c0-0.7,0.1-1.6,0.1-2.5h-4.8c1,0.5,2.2,1.2,2.8,1.8l-0.7,0.7H468.4z"/>
	<path d="M488.2,15.2c0,1.1-0.3,1.6-1,1.9c-0.8,0.3-2,0.3-3.9,0.3c-0.1-0.5-0.4-1.3-0.7-1.8c1.4,0.1,2.8,0.1,3.3,0
		c0.4,0,0.5-0.1,0.5-0.5V12h-8.2c-0.5,2-1.4,4-3.1,5.5c-0.3-0.4-0.9-1-1.3-1.2c2.8-2.4,3.1-5.9,3.1-8.8V1.8h11.2V15.2z M486.5,10.3
		V7.7h-7.7c0,0.8-0.1,1.7-0.2,2.7H486.5z M478.7,3.4v2.7h7.7V3.4H478.7z"/>
	<path d="M508.5,11.3h-7.2v6.1h-1.7v-6.1h-7.1V9.6h7.1V3.7h-6.2V2.1h14.1v1.6h-6.2v5.9h7.2V11.3z M496,4.4c0.7,1.2,1.4,2.8,1.6,3.9
		L496,8.9c-0.2-1-0.8-2.7-1.5-4L496,4.4z M503,8.4c0.6-1.1,1.4-2.8,1.8-4.1l1.8,0.5c-0.6,1.4-1.4,3-2.1,4L503,8.4z"/>
	<path d="M513.9,11.3c0.6-0.3,1.2-0.5,1.8-0.8l0.4,1.5c-1.9,0.9-3.9,1.8-5.4,2.5l-0.7-1.7c0.6-0.2,1.5-0.5,2.3-0.9V6.7h-2V5.1h2v-4
		h1.6v4h1.9v1.6h-1.9V11.3z M526.4,3.7c0,0,0,0.6,0,0.8c-0.2,8.3-0.4,11-1.1,12c-0.4,0.6-0.9,0.8-1.6,0.9c-0.6,0.1-1.8,0.1-2.8,0
		c0-0.4-0.2-1.2-0.5-1.6c1.2,0.1,2.3,0.1,2.7,0.1c0.4,0,0.5-0.1,0.8-0.3c0.5-0.6,0.8-3.5,1-10.4h-5.7c-0.5,1.1-1.1,2.1-1.7,2.9
		c-0.3-0.3-1-0.7-1.4-0.9c1.3-1.5,2.4-3.9,3-6.3l1.6,0.4c-0.3,0.8-0.5,1.6-0.8,2.4H526.4z M518,11.4h5.6v1.5H518V11.4z M523.2,7.8
		v1.5h-4.4V7.8H523.2z"/>
	<path d="M530.5,9c-0.5-0.6-1.6-1.4-2.5-1.9l0.8-1.1c0.8,0.5,1.9,1.3,2.5,1.8L530.5,9z M528.3,16.3c0.6-1.3,1.6-3.6,2.2-5.5l1.2,0.9
		c-0.6,1.8-1.4,3.9-2.1,5.5L528.3,16.3z M529.5,1.3c0.8,0.6,1.9,1.5,2.4,2.1l-1,1c-0.5-0.7-1.5-1.6-2.3-2.3L529.5,1.3z M532.2,1.5
		h4.3V7h-2.6c-0.1,0.9-0.1,1.9-0.2,2.7l2.8,0c0,0,0,0.4,0,0.6c-0.2,4.2-0.4,5.7-0.9,6.2c-0.3,0.4-0.6,0.5-1.1,0.5
		c-0.4,0.1-1.2,0.1-1.9,0c0-0.4-0.2-1-0.4-1.3c0.7,0.1,1.3,0.1,1.6,0.1c0.3,0,0.4,0,0.6-0.2c0.3-0.3,0.5-1.5,0.7-4.6h-2.8
		c0.2-1.4,0.3-3.7,0.4-5.5h2.6V2.9h-2.9V1.5z M544.7,11.8c-0.7,0.5-1.4,1.1-2,1.5c0.6,1,1.4,1.8,2.3,2.3c-0.3,0.3-0.8,0.8-1,1.2
		c-1.8-1.3-3.2-3.8-4-6.5h-1.1v4.8l2.4-0.8c0,0.4,0.1,1,0.2,1.3c-3.2,1.2-3.7,1.5-4,1.7c-0.1-0.4-0.3-1.2-0.5-1.6
		c0.3-0.1,0.6-0.4,0.6-1v-4.4h-0.8V9h1.1V1.7h6.5v1.3h-5.1v1.1h4.5v1.2h-4.5v1.2h4.6v1.2h-4.6V9h5.3v1.4h-3.4
		c0.2,0.6,0.5,1.3,0.8,1.9c0.6-0.5,1.2-1,1.6-1.5L544.7,11.8z"/>
	<path d="M552.8,14.8c-2.2,0.6-4.6,1.3-6.4,1.8L546,15c0.3-0.1,0.6-0.1,0.9-0.2v-6h1.4v5.7l1-0.3V7.3h-2.4V1.6h5.5v5.6h-1.7v2.3h1.7
		V11h-1.7v2.8l1.8-0.5L552.8,14.8z M548.3,5.8h2.6V3.1h-2.6V5.8z M558.6,10.4c0.8,2.5,2.1,4.6,4.2,5.6c-0.4,0.3-0.9,0.9-1.2,1.4
		c-1.8-1-3.1-2.8-4-5c-0.7,1.9-2,3.7-4.4,5.1c-0.2-0.4-0.8-1-1.2-1.3c2.9-1.5,4.1-3.7,4.5-5.8h-3.7V8.8h3.9c0.1-0.6,0.1-1.3,0.1-1.9
		V5.6H555c-0.3,0.9-0.6,1.8-1,2.5c-0.3-0.3-1-0.6-1.4-0.8c0.8-1.3,1.3-3.5,1.5-5.5l1.5,0.3c-0.1,0.7-0.2,1.4-0.4,2.1h1.5V1h1.6v3
		h3.6v1.5h-3.6V7c0,0.6,0,1.2-0.1,1.8h4v1.6H558.6z"/>
	<path d="M570.7,12c0,0.6-0.1,1-0.4,1.3c-0.3,0.3-0.7,0.3-1.4,0.3c0-0.4-0.2-1-0.4-1.4h0.8c0.1,0,0.2,0,0.2-0.2V5.7h-1.2v11.7h-1.4
		V5.7h-1.1v8h-1.3V4.2h2.3V0.9h1.4v3.3h2.4V12z M580.5,1.8v1.4h-9.2V1.8H580.5z M571.3,9.7h9v7.7h-1.5v-0.5h-6v0.6h-1.5V9.7z
		 M579.6,4.2v4.3h-7.5V4.2H579.6z M572.8,11v1.6h2.2V11H572.8z M574.9,15.5v-1.6h-2.2v1.6H574.9z M578.1,5.5h-4.6v1.7h4.6V5.5z
		 M578.7,11h-2.4v1.6h2.4V11z M578.7,15.5v-1.6h-2.4v1.6H578.7z"/>
	<path d="M597.8,7.2c-0.7,2.9-2,5-3.8,6.7c1.3,0.9,2.9,1.6,4.6,2c-0.4,0.4-0.9,1.1-1.2,1.6c-1.9-0.5-3.5-1.4-4.9-2.4
		c-1.6,1.2-3.5,2-5.5,2.6c-0.2-0.5-0.6-1.2-1-1.6c1.9-0.4,3.7-1.2,5.2-2.2c-1.4-1.5-2.5-3.3-3.3-5.5h-0.5c-0.4,2.9-1.5,6.1-4.3,8.8
		c-0.3-0.4-0.8-1.1-1.2-1.4c3.7-3.3,4-7.8,4-10.9V3.3h-3V1.7h11.2c-0.3,1.6-0.8,3.6-1.1,5.1h3.2l0.3-0.1L597.8,7.2z M587.8,4.9
		c0,0.6,0,1.3-0.1,1.9h3.5c0.3-1,0.6-2.3,0.9-3.5h-4.3V4.9z M589.7,8.4c0.7,1.7,1.7,3.2,3,4.4c1.3-1.2,2.3-2.6,2.9-4.4H589.7z"/>
	<path d="M616.5,14.9v1.7h-16.1v-1.7h6.6V1.1h1.8v5.3h6.5v1.7h-6.5v6.7H616.5z"/>
	<path d="M620.5,9c-0.5-0.6-1.6-1.4-2.5-1.9l0.8-1.1c0.8,0.5,1.9,1.3,2.5,1.8L620.5,9z M618.3,16.3c0.6-1.3,1.6-3.6,2.2-5.5l1.2,0.9
		c-0.6,1.8-1.4,3.9-2.1,5.5L618.3,16.3z M619.5,1.3c0.8,0.6,1.9,1.5,2.4,2.1l-1,1c-0.5-0.7-1.5-1.6-2.3-2.3L619.5,1.3z M622.2,1.5
		h4.3V7h-2.6c-0.1,0.9-0.1,1.9-0.2,2.7l2.8,0c0,0,0,0.4,0,0.6c-0.2,4.2-0.4,5.7-0.9,6.2c-0.3,0.4-0.6,0.5-1.1,0.5
		c-0.4,0.1-1.2,0.1-1.9,0c0-0.4-0.2-1-0.4-1.3c0.7,0.1,1.3,0.1,1.6,0.1c0.3,0,0.4,0,0.6-0.2c0.3-0.3,0.5-1.5,0.7-4.6h-2.8
		c0.2-1.4,0.3-3.7,0.4-5.5h2.6V2.9h-2.9V1.5z M634.7,11.8c-0.7,0.5-1.4,1.1-2,1.5c0.6,1,1.4,1.8,2.3,2.3c-0.3,0.3-0.8,0.8-1,1.2
		c-1.8-1.3-3.2-3.8-4-6.5h-1.1v4.8l2.4-0.8c0,0.4,0.1,1,0.2,1.3c-3.2,1.2-3.7,1.5-4,1.7c-0.1-0.4-0.3-1.2-0.5-1.6
		c0.3-0.1,0.6-0.4,0.6-1v-4.4h-0.8V9h1.1V1.7h6.5v1.3h-5.1v1.1h4.5v1.2h-4.5v1.2h4.6v1.2h-4.6V9h5.3v1.4h-3.4
		c0.2,0.6,0.5,1.3,0.8,1.9c0.6-0.5,1.2-1,1.6-1.5L634.7,11.8z"/>
	<path d="M640.4,10.7c-0.2-0.5-0.5-1.2-0.9-2v8.7h-1.4V9.6c-0.4,1.6-0.9,3-1.5,4c-0.1-0.5-0.5-1.2-0.7-1.7c0.8-1.4,1.7-3.9,2.1-6.1
		h-1.7V4.3h1.7V0.9h1.4v3.4h1.4v1.5h-1.4v1c0.4,0.6,1.4,2.3,1.6,2.7L640.4,10.7z M651.5,12c-0.5,1.1-1.2,2-2.1,2.8
		c0.5,0.6,1,1,1.5,1c0.3,0,0.6-0.6,0.7-1.9c0.3,0.3,0.8,0.7,1.1,0.8c-0.4,2.1-1,2.7-1.8,2.7c-1.1-0.1-2-0.7-2.7-1.7
		c-0.9,0.6-1.9,1.2-3,1.6c-0.2-0.3-0.6-0.8-0.9-1.1c1.2-0.4,2.3-1,3.2-1.7c-0.4-0.9-0.7-1.9-1-3.1h-2.7c0,0.2,0,0.4,0,0.6
		c0.8,0.6,1.9,1.5,2.4,2.1l-1,1c-0.4-0.4-1-1-1.6-1.5c-0.3,1.4-1.1,2.8-2.6,3.9c-0.2-0.3-0.8-0.8-1.1-1c2.1-1.5,2.5-3.5,2.5-5h-1.3
		v-1.3h5.2c-0.4-2.5-0.6-5.6-0.8-9.1h1.4c0.1,3.5,0.3,6.6,0.8,9.1h2.2c-0.4-0.3-0.9-0.7-1.3-1l0.7-0.7c-0.9,0.2-1.1,0.2-1.3,0.3
		c-0.1-0.3-0.3-0.9-0.4-1.2c0.3-0.1,0.6-0.4,0.9-0.8c0.2-0.2,0.6-0.8,1-1.5c-1.2,0.1-1.5,0.2-1.6,0.3c-0.1-0.3-0.3-0.9-0.4-1.2
		c0.2-0.1,0.4-0.3,0.6-0.6c0.2-0.3,0.9-1.6,1.2-2.8l1.2,0.3c-0.4,1-1,2.1-1.5,2.9l1.1-0.1c0.2-0.4,0.4-0.8,0.6-1.2l1.2,0.5
		c-0.7,1.4-1.6,2.8-2.5,3.9l1.5-0.2c-0.1-0.3-0.3-0.6-0.4-0.9l1-0.3c0.4,0.8,0.8,1.9,0.9,2.6l-1,0.4c-0.1-0.2-0.1-0.5-0.2-0.8
		c-0.7,0.1-1.2,0.2-1.6,0.3c0.6,0.4,1.3,0.9,1.7,1.2l-0.5,0.5h1.5v1.3h-4.2c0.2,0.8,0.4,1.5,0.6,2.1c0.6-0.6,1-1.3,1.4-2L651.5,12z
		 M644.8,9.2c0-0.2-0.1-0.4-0.1-0.7c-2.4,0.3-2.8,0.4-3.1,0.6c-0.1-0.3-0.3-0.9-0.4-1.2c0.3-0.1,0.6-0.4,0.9-0.8
		c0.2-0.2,0.6-0.8,1-1.5c-1.2,0.2-1.5,0.3-1.7,0.4c-0.1-0.3-0.3-0.9-0.4-1.2c0.2-0.1,0.5-0.3,0.7-0.6c0.2-0.3,1-1.7,1.4-3l1.2,0.4
		c-0.5,1.1-1.1,2.3-1.7,3.1l1.1-0.1c0.2-0.4,0.4-0.8,0.6-1.2l1.2,0.5c-0.8,1.4-1.7,2.8-2.6,3.9l1.4-0.2c-0.1-0.3-0.2-0.7-0.3-1
		l1-0.3c0.4,0.8,0.7,1.9,0.9,2.6L644.8,9.2z"/>
	<path d="M670.5,13.9h-7.2v3.6h-1.8v-3.6h-7.2v-1.5h7.2V11h1.8v1.4h7.2V13.9z M659.1,9.1c-1.3,0.7-2.8,1.5-3.9,2l-0.8-1.4
		c1.1-0.4,2.8-1.2,4.4-1.9L659.1,9.1z M665.2,11.2c-0.1-0.3-0.3-0.6-0.4-0.9c-4.5,0.4-5.2,0.5-5.6,0.7c-0.1-0.3-0.3-1-0.5-1.4
		c0.4-0.1,0.9-0.4,1.5-0.9c0.3-0.2,1-0.8,1.7-1.6c-1.7,0.1-2.1,0.2-2.4,0.3c-0.1-0.3-0.3-1-0.5-1.4c0.3-0.1,0.5-0.3,0.8-0.6
		c0.2-0.2,0.7-0.8,1.2-1.6h-6.4V2.4h7c-0.2-0.4-0.5-0.9-0.7-1.2l1.7-0.4c0.4,0.5,0.8,1.2,1,1.6h6.5V4h-7.5c-0.5,0.7-1,1.4-1.5,1.9
		l2-0.1c0.4-0.5,0.8-1,1.2-1.5l1.3,0.8c-1.3,1.6-2.8,3-4.3,4.2l2.6-0.2c-0.2-0.4-0.5-0.7-0.7-1l1.2-0.5c0.8,1,1.7,2.2,2,3.1
		L665.2,11.2z M657.5,7.5c-0.6-0.6-1.7-1.5-2.7-2.1l1.1-0.9c0.9,0.6,2.1,1.4,2.7,2L657.5,7.5z M669,11.3c-0.8-0.7-2.3-1.8-3.5-2.5
		l1.2-0.9c1.2,0.7,2.8,1.7,3.6,2.4L669,11.3z M669.6,5.3c-0.8,0.8-1.8,1.7-2.6,2.2l-1.2-0.8c0.8-0.6,1.8-1.5,2.4-2.3L669.6,5.3z"/>
</g>
<rect x="134.8" y="82.6" class="st1" width="23.6" height="182.7"/>
<rect x="199.3" y="176.6" class="st1" width="23.6" height="88.6"/>
<rect x="263.8" y="194.3" class="st1" width="23.6" height="71"/>
<rect x="328.3" y="228.1" class="st1" width="23.6" height="37.1"/>
<rect x="392.8" y="240.5" class="st1" width="23.6" height="24.8"/>
<rect x="457.3" y="194.3" class="st1" width="23.6" height="71"/>
<rect x="521.7" y="82.7" class="st1" width="23.6" height="182.5"/>
<rect x="586.2" y="265.2" class="st1" width="23.6" height="34.9"/>
<rect x="650.7" y="231.3" class="st1" width="23.6" height="33.9"/>
<rect x="715.2" y="265.2" class="st1" width="23.6" height="41.6"/>
<rect x="779.7" y="52.7" class="st1" width="23.6" height="212.6"/>
<rect x="844.2" y="257.8" class="st1" width="23.6" height="7.5"/>
<g class="st0">
	<path d="M35.3,423.4c-0.4-0.5-1.4-1.2-2.2-1.7l0.5-0.7c0.8,0.5,1.7,1.2,2.2,1.6L35.3,423.4z M33.3,430.1c0.6-1.2,1.5-3.2,2.1-4.9
		l0.7,0.6c-0.6,1.6-1.4,3.5-2,4.9L33.3,430.1z M34.2,416.6c0.8,0.5,1.7,1.3,2.1,1.9l-0.6,0.7c-0.4-0.6-1.3-1.4-2.1-1.9L34.2,416.6z
		 M36.8,417h3.7v4.5H38c-0.1,0.9-0.1,1.9-0.2,2.7h2.6c0,0,0,0.3,0,0.4c-0.2,3.8-0.4,5.2-0.8,5.6c-0.2,0.3-0.5,0.4-0.9,0.4
		c-0.4,0-1.1,0-1.8,0c0-0.3-0.1-0.6-0.3-0.9c0.7,0.1,1.4,0.1,1.7,0.1c0.2,0,0.4,0,0.5-0.2c0.3-0.3,0.5-1.5,0.6-4.6h-2.7
		c0.2-1.2,0.3-3.1,0.4-4.5h2.5v-2.7h-2.8V417z M47.8,425.7c-0.6,0.6-1.3,1.2-2,1.6c0.7,1,1.4,1.8,2.2,2.3c-0.2,0.2-0.5,0.5-0.6,0.8
		c-1.6-1.1-3-3.5-3.8-5.9h-1.1v4.9l2.4-0.8c0,0.2,0.1,0.6,0.1,0.8c-2.9,1.1-3.3,1.3-3.5,1.5v0l0,0c-0.1-0.3-0.2-0.8-0.4-1
		c0.2-0.1,0.5-0.3,0.5-0.9v-4.5h-0.8v-0.9h1v-6.5h5.7v0.9h-4.8v1.3H47v0.8h-4.3v1.3H47v0.8h-4.3v1.4h5v0.9h-3.4
		c0.3,0.7,0.6,1.4,1,2.1c0.6-0.5,1.2-1.1,1.7-1.6L47.8,425.7z"/>
	<path d="M55,428.5c-2,0.6-4,1.1-5.6,1.6l-0.3-1c0.3-0.1,0.5-0.1,0.8-0.2v-5.5h0.9v5.3l1.2-0.3v-6.5H50V417h4.7v4.8h-1.6v2.3h1.7v1
		h-1.7v3l1.8-0.5L55,428.5z M50.9,420.8h2.8v-2.9h-2.8V420.8z M60,424.5c0.6,2.5,1.9,4.5,3.9,5.4c-0.3,0.2-0.6,0.6-0.7,0.9
		c-1.8-1-3-2.8-3.8-5.1c-0.6,1.9-1.7,3.8-4.1,5.2c-0.1-0.2-0.5-0.6-0.7-0.8c2.7-1.5,3.8-3.6,4.1-5.6h-3.5v-1h3.7
		c0.1-0.7,0.1-1.5,0.1-2.1v-1.2h-2c-0.2,0.9-0.6,1.7-0.9,2.3c-0.2-0.2-0.6-0.4-0.9-0.5c0.8-1.2,1.2-3.1,1.5-5l1,0.2
		c-0.1,0.7-0.2,1.4-0.4,2.1h1.8v-2.8h1v2.8h3.4v1h-3.4v1.2c0,0.7,0,1.4-0.1,2.1h3.8v1H60z"/>
	<path d="M70.9,426.4c0,0.4-0.1,0.7-0.3,0.9c-0.3,0.2-0.6,0.2-1.2,0.2c0-0.3-0.2-0.7-0.3-0.9c0.4,0,0.7,0,0.8,0c0.1,0,0.1,0,0.1-0.2
		v-6.1h-1.3v10.6h-0.9v-10.6h-1.2v7.3h-0.8v-8.3h2.1v-3h0.9v3h2.1V426.4z M79.7,417.2v0.9h-8.3v-0.9H79.7z M71.5,424.2h8v6.6h-1
		v-0.5h-6v0.5h-1V424.2z M78.8,419.2v3.7h-6.6v-3.7H78.8z M72.5,425.1v1.8h2.4v-1.8H72.5z M74.9,429.4v-1.7h-2.4v1.7H74.9z
		 M77.8,420.1h-4.7v2h4.7V420.1z M78.5,425.1h-2.6v1.8h2.6V425.1z M78.5,429.4v-1.7h-2.6v1.7H78.5z"/>
	<path d="M82,424.7c0-3.1,0.9-5.7,2.4-8.1l0.8,0.4c-1.4,2.3-2.1,5-2.1,7.7s0.7,5.4,2.1,7.7l-0.8,0.4C82.9,430.4,82,427.9,82,424.7z"
		/>
	<path d="M86.5,421.4c0-2.4,1-3.7,2.6-3.7s2.6,1.3,2.6,3.7c0,2.4-1,3.7-2.6,3.7S86.5,423.8,86.5,421.4z M90.7,421.4
		c0-1.9-0.7-2.8-1.6-2.8c-1,0-1.6,1-1.6,2.8s0.7,2.9,1.6,2.9C90.1,424.3,90.7,423.3,90.7,421.4z M95.9,417.7h0.9l-6.5,12.1h-0.9
		L95.9,417.7z M94.6,426.2c0-2.3,1-3.7,2.6-3.7c1.6,0,2.6,1.3,2.6,3.7c0,2.4-1.1,3.7-2.6,3.7C95.6,429.9,94.6,428.5,94.6,426.2z
		 M98.8,426.2c0-1.9-0.7-2.8-1.6-2.8c-1,0-1.6,0.9-1.6,2.8c0,1.9,0.6,2.9,1.6,2.9C98.2,429.1,98.8,428.1,98.8,426.2z"/>
	<path d="M101.1,432.4c1.4-2.3,2.1-5,2.1-7.7s-0.7-5.4-2.1-7.7l0.8-0.4c1.5,2.4,2.4,5,2.4,8.1c0,3.2-0.9,5.7-2.4,8.1L101.1,432.4z"
		/>
</g>
<g class="st0">
	<path d="M135.7,387.1h2.6v-9h-2.1v-0.8c1-0.2,1.8-0.4,2.4-0.8h1v10.6h2.4v1.1h-6.3V387.1z"/>
	<path d="M156.1,387.8c0,0.8-0.2,1.2-0.8,1.4c-0.6,0.2-1.6,0.2-3.3,0.2c-0.1-0.3-0.3-0.8-0.4-1.1c1.3,0,2.6,0,3,0
		c0.4,0,0.5-0.1,0.5-0.5v-3.4h-7.8c-0.4,1.8-1.2,3.6-2.8,5c-0.2-0.2-0.6-0.6-0.8-0.8c2.6-2.3,2.9-5.6,2.9-8.1v-4.8h9.6V387.8z
		 M155,383.4v-2.8h-7.5c0,0.9,0,1.8-0.2,2.8H155z M147.5,376.8v2.8h7.5v-2.8H147.5z"/>
</g>
<g class="st0">
	<path d="M199.5,387.5c3.7-3.3,5.4-5.6,5.4-7.7c0-1.4-0.7-2.4-2.2-2.4c-1,0-1.8,0.6-2.5,1.4l-0.8-0.7c0.9-1,2-1.7,3.4-1.7
		c2.1,0,3.4,1.3,3.4,3.4c0,2.4-1.9,4.8-4.7,7.5c0.6-0.1,1.3-0.1,1.9-0.1h3.4v1.1h-7.3V387.5z"/>
	<path d="M220.6,387.8c0,0.8-0.2,1.2-0.8,1.4c-0.6,0.2-1.6,0.2-3.3,0.2c-0.1-0.3-0.3-0.8-0.4-1.1c1.3,0,2.6,0,3,0
		c0.4,0,0.5-0.1,0.5-0.5v-3.4h-7.8c-0.4,1.8-1.2,3.6-2.8,5c-0.2-0.2-0.6-0.6-0.8-0.8c2.6-2.3,2.9-5.6,2.9-8.1v-4.8h9.6V387.8z
		 M219.5,383.4v-2.8H212c0,0.9,0,1.8-0.2,2.8H219.5z M212,376.8v2.8h7.5v-2.8H212z"/>
</g>
<g class="st0">
	<path d="M263.7,386.8l0.7-0.8c0.7,0.7,1.6,1.4,3,1.4c1.4,0,2.4-0.9,2.4-2.3c0-1.5-1-2.4-3.7-2.4v-1c2.4,0,3.3-1,3.3-2.3
		c0-1.2-0.8-1.9-2-2c-1,0-1.8,0.5-2.5,1.2l-0.7-0.8c0.9-0.8,1.9-1.4,3.2-1.4c1.9,0,3.3,1.1,3.3,2.9c0,1.5-0.8,2.4-2.1,2.8v0.1
		c1.4,0.3,2.5,1.4,2.5,3c0,2.1-1.6,3.3-3.7,3.3C265.6,388.4,264.5,387.7,263.7,386.8z"/>
	<path d="M285.1,387.8c0,0.8-0.2,1.2-0.8,1.4c-0.6,0.2-1.6,0.2-3.3,0.2c-0.1-0.3-0.3-0.8-0.4-1.1c1.3,0,2.6,0,3,0
		c0.4,0,0.5-0.1,0.5-0.5v-3.4h-7.8c-0.4,1.8-1.2,3.6-2.8,5c-0.2-0.2-0.6-0.6-0.8-0.8c2.6-2.3,2.9-5.6,2.9-8.1v-4.8h9.6V387.8z
		 M284,383.4v-2.8h-7.5c0,0.9,0,1.8-0.2,2.8H284z M276.5,376.8v2.8h7.5v-2.8H276.5z"/>
</g>
<g class="st0">
	<path d="M336,385h-1.6v3.3h-1.2V385H328v-0.8l5-7.6h1.4v7.4h1.6V385z M333.2,383.9v-3.8c0-0.6,0-1.5,0.1-2.1h-0.1
		c-0.3,0.6-0.6,1.1-0.9,1.7l-2.8,4.2H333.2z"/>
	<path d="M349.5,387.8c0,0.8-0.2,1.2-0.8,1.4c-0.6,0.2-1.6,0.2-3.3,0.2c-0.1-0.3-0.3-0.8-0.4-1.1c1.3,0,2.6,0,3,0
		c0.4,0,0.5-0.1,0.5-0.5v-3.4h-7.8c-0.4,1.8-1.2,3.6-2.8,5c-0.2-0.2-0.6-0.6-0.8-0.8c2.6-2.3,2.9-5.6,2.9-8.1v-4.8h9.6V387.8z
		 M348.4,383.4v-2.8H341c0,0.9,0,1.8-0.2,2.8H348.4z M341,376.8v2.8h7.5v-2.8H341z"/>
</g>
<g class="st0">
	<path d="M392.6,386.9l0.7-0.9c0.7,0.7,1.5,1.3,2.9,1.3c1.4,0,2.6-1.1,2.6-2.9c0-1.7-1-2.8-2.5-2.8c-0.8,0-1.3,0.3-2,0.7l-0.7-0.4
		l0.4-5.4h5.6v1.1h-4.4l-0.3,3.6c0.5-0.3,1.1-0.5,1.8-0.5c1.9,0,3.5,1.2,3.5,3.7c0,2.5-1.8,4-3.8,4
		C394.5,388.4,393.4,387.7,392.6,386.9z"/>
	<path d="M414,387.8c0,0.8-0.2,1.2-0.8,1.4c-0.6,0.2-1.6,0.2-3.3,0.2c-0.1-0.3-0.3-0.8-0.4-1.1c1.3,0,2.6,0,3,0
		c0.4,0,0.5-0.1,0.5-0.5v-3.4h-7.8c-0.4,1.8-1.2,3.6-2.8,5c-0.2-0.2-0.6-0.6-0.8-0.8c2.6-2.3,2.9-5.6,2.9-8.1v-4.8h9.6V387.8z
		 M412.9,383.4v-2.8h-7.5c0,0.9,0,1.8-0.2,2.8H412.9z M405.5,376.8v2.8h7.5v-2.8H405.5z"/>
</g>
<g class="st0">
	<path d="M463.8,378.3c-0.5-0.6-1.2-0.9-1.9-0.9c-1.6,0-3,1.3-3.1,5c0.7-0.9,1.8-1.4,2.7-1.4c2,0,3.2,1.2,3.2,3.7
		c0,2.2-1.5,3.8-3.3,3.8c-2.3,0-3.9-2-3.9-5.8c0-4.6,2-6.4,4.3-6.4c1.2,0,2,0.5,2.7,1.2L463.8,378.3z M463.5,384.7
		c0-1.6-0.7-2.7-2.2-2.7c-0.8,0-1.7,0.4-2.5,1.6c0.2,2.5,1.1,3.9,2.6,3.9C462.6,387.4,463.5,386.3,463.5,384.7z"/>
	<path d="M478.5,387.8c0,0.8-0.2,1.2-0.8,1.4c-0.6,0.2-1.6,0.2-3.3,0.2c-0.1-0.3-0.3-0.8-0.4-1.1c1.3,0,2.6,0,3,0
		c0.4,0,0.5-0.1,0.5-0.5v-3.4h-7.8c-0.4,1.8-1.2,3.6-2.8,5c-0.2-0.2-0.6-0.6-0.8-0.8c2.6-2.3,2.9-5.6,2.9-8.1v-4.8h9.6V387.8z
		 M477.4,383.4v-2.8H470c0,0.9,0,1.8-0.2,2.8H477.4z M470,376.8v2.8h7.5v-2.8H470z"/>
</g>
<g class="st0">
	<path d="M527.7,377.6H522v-1.1h7.3v0.8c-2.8,3.6-3.3,6.4-3.5,10.9h-1.4C524.6,383.7,525.4,380.8,527.7,377.6z"/>
	<path d="M543,387.8c0,0.8-0.2,1.2-0.8,1.4c-0.6,0.2-1.6,0.2-3.3,0.2c-0.1-0.3-0.3-0.8-0.4-1.1c1.3,0,2.6,0,3,0
		c0.4,0,0.5-0.1,0.5-0.5v-3.4h-7.8c-0.4,1.8-1.2,3.6-2.8,5c-0.2-0.2-0.6-0.6-0.8-0.8c2.6-2.3,2.9-5.6,2.9-8.1v-4.8h9.6V387.8z
		 M541.9,383.4v-2.8h-7.5c0,0.9,0,1.8-0.2,2.8H541.9z M534.4,376.8v2.8h7.5v-2.8H534.4z"/>
</g>
<g class="st0">
	<path d="M586.4,385.3c0-1.6,1.1-2.7,2.2-3.3V382c-0.8-0.6-1.6-1.5-1.6-2.7c0-1.8,1.4-3,3.2-3c2,0,3.2,1.3,3.2,3.1
		c0,1.2-0.9,2.3-1.6,2.8v0.1c1,0.6,2,1.5,2,3.1c0,1.7-1.5,3-3.6,3C587.9,388.4,586.4,387.1,586.4,385.3z M592.5,385.4
		c0-1.6-1.5-2.2-3.2-2.9c-1,0.6-1.7,1.6-1.7,2.8c0,1.3,1.1,2.2,2.5,2.2C591.5,387.5,592.5,386.6,592.5,385.4z M592.2,379.5
		c0-1.2-0.8-2.2-2.1-2.2c-1.1,0-1.9,0.8-1.9,2c0,1.5,1.3,2.1,2.7,2.6C591.7,381.2,592.2,380.4,592.2,379.5z"/>
	<path d="M607.5,387.8c0,0.8-0.2,1.2-0.8,1.4c-0.6,0.2-1.6,0.2-3.3,0.2c-0.1-0.3-0.3-0.8-0.4-1.1c1.3,0,2.6,0,3,0
		c0.4,0,0.5-0.1,0.5-0.5v-3.4h-7.8c-0.4,1.8-1.2,3.6-2.8,5c-0.2-0.2-0.6-0.6-0.8-0.8c2.6-2.3,2.9-5.6,2.9-8.1v-4.8h9.6V387.8z
		 M606.4,383.4v-2.8h-7.5c0,0.9,0,1.8-0.2,2.8H606.4z M598.9,376.8v2.8h7.5v-2.8H598.9z"/>
</g>
<g class="st0">
	<path d="M651.8,386.5c0.5,0.6,1.2,0.9,2,0.9c1.5,0,2.9-1.3,3-5.1c-0.7,0.9-1.7,1.5-2.8,1.5c-2,0-3.2-1.3-3.2-3.7
		c0-2.2,1.5-3.8,3.3-3.8c2.3,0,3.9,1.9,3.9,5.5c0,4.8-2,6.6-4.2,6.6c-1.2,0-2.1-0.5-2.8-1.2L651.8,386.5z M656.8,381.2
		c-0.1-2.4-1.1-3.8-2.6-3.8c-1.2,0-2,1.1-2,2.8c0,1.6,0.7,2.7,2.2,2.7C655.1,382.8,656,382.3,656.8,381.2z"/>
	<path d="M672,387.8c0,0.8-0.2,1.2-0.8,1.4c-0.6,0.2-1.6,0.2-3.3,0.2c-0.1-0.3-0.3-0.8-0.4-1.1c1.3,0,2.6,0,3,0
		c0.4,0,0.5-0.1,0.5-0.5v-3.4H663c-0.4,1.8-1.2,3.6-2.8,5c-0.2-0.2-0.6-0.6-0.8-0.8c2.6-2.3,2.9-5.6,2.9-8.1v-4.8h9.6V387.8z
		 M670.9,383.4v-2.8h-7.5c0,0.9,0,1.8-0.2,2.8H670.9z M663.4,376.8v2.8h7.5v-2.8H663.4z"/>
</g>
<g class="st0">
	<path d="M711.7,387.1h2.6v-9h-2.1v-0.8c1-0.2,1.8-0.4,2.4-0.8h1v10.6h2.4v1.1h-6.3V387.1z"/>
	<path d="M719.8,382.3c0-4.1,1.4-6,3.6-6c2.2,0,3.6,2,3.6,6c0,4.1-1.4,6.1-3.6,6.1C721.2,388.4,719.8,386.4,719.8,382.3z
		 M725.7,382.3c0-3.4-0.9-5-2.3-5c-1.4,0-2.3,1.5-2.3,5c0,3.5,0.9,5.1,2.3,5.1C724.8,387.4,725.7,385.8,725.7,382.3z"/>
	<path d="M740.9,387.8c0,0.8-0.2,1.2-0.8,1.4c-0.6,0.2-1.6,0.2-3.3,0.2c-0.1-0.3-0.3-0.8-0.4-1.1c1.3,0,2.6,0,3,0
		c0.4,0,0.5-0.1,0.5-0.5v-3.4h-7.8c-0.4,1.8-1.2,3.6-2.8,5c-0.2-0.2-0.6-0.6-0.8-0.8c2.6-2.3,2.9-5.6,2.9-8.1v-4.8h9.6V387.8z
		 M739.7,383.4v-2.8h-7.5c0,0.9,0,1.8-0.2,2.8H739.7z M732.3,376.8v2.8h7.5v-2.8H732.3z"/>
</g>
<g class="st0">
	<path d="M776.2,387.1h2.6v-9h-2.1v-0.8c1-0.2,1.8-0.4,2.4-0.8h1v10.6h2.4v1.1h-6.3V387.1z"/>
	<path d="M784.9,387.1h2.6v-9h-2.1v-0.8c1-0.2,1.8-0.4,2.4-0.8h1v10.6h2.4v1.1h-6.3V387.1z"/>
	<path d="M805.3,387.8c0,0.8-0.2,1.2-0.8,1.4c-0.6,0.2-1.6,0.2-3.3,0.2c-0.1-0.3-0.3-0.8-0.4-1.1c1.3,0,2.6,0,3,0
		c0.4,0,0.5-0.1,0.5-0.5v-3.4h-7.8c-0.4,1.8-1.2,3.6-2.8,5c-0.2-0.2-0.6-0.6-0.8-0.8c2.6-2.3,2.9-5.6,2.9-8.1v-4.8h9.6V387.8z
		 M804.2,383.4v-2.8h-7.5c0,0.9,0,1.8-0.2,2.8H804.2z M796.8,376.8v2.8h7.5v-2.8H796.8z"/>
</g>
<g class="st0">
	<path d="M840.6,387.1h2.6v-9h-2.1v-0.8c1-0.2,1.8-0.4,2.4-0.8h1v10.6h2.4v1.1h-6.3V387.1z"/>
	<path d="M848.7,387.5c3.7-3.3,5.4-5.6,5.4-7.7c0-1.4-0.7-2.4-2.2-2.4c-1,0-1.8,0.6-2.5,1.4l-0.8-0.7c0.9-1,2-1.7,3.4-1.7
		c2.1,0,3.4,1.3,3.4,3.4c0,2.4-1.9,4.8-4.7,7.5c0.6-0.1,1.3-0.1,1.9-0.1h3.4v1.1h-7.3V387.5z"/>
	<path d="M869.8,387.8c0,0.8-0.2,1.2-0.8,1.4c-0.6,0.2-1.6,0.2-3.3,0.2c-0.1-0.3-0.3-0.8-0.4-1.1c1.3,0,2.6,0,3,0
		c0.4,0,0.5-0.1,0.5-0.5v-3.4h-7.8c-0.4,1.8-1.2,3.6-2.8,5c-0.2-0.2-0.6-0.6-0.8-0.8c2.6-2.3,2.9-5.6,2.9-8.1v-4.8h9.6V387.8z
		 M868.7,383.4v-2.8h-7.5c0,0.9,0,1.8-0.2,2.8H868.7z M861.3,376.8v2.8h7.5v-2.8H861.3z"/>
</g>
<g class="st0">
	<path d="M131.8,428.3l0.7-0.8c0.7,0.7,1.6,1.4,3,1.4c1.4,0,2.4-0.9,2.4-2.3c0-1.5-1-2.4-3.7-2.4v-1c2.4,0,3.3-1,3.3-2.3
		c0-1.2-0.8-1.9-2-2c-1,0-1.8,0.5-2.5,1.2l-0.7-0.8c0.9-0.8,1.9-1.4,3.2-1.4c1.9,0,3.3,1.1,3.3,2.9c0,1.5-0.8,2.4-2.1,2.8v0.1
		c1.4,0.3,2.5,1.4,2.5,3c0,2.1-1.6,3.3-3.7,3.3C133.7,429.9,132.5,429.1,131.8,428.3z"/>
	<path d="M141.3,428.9c0-0.6,0.4-1.1,1-1.1c0.5,0,1,0.4,1,1.1c0,0.6-0.4,1-1,1C141.7,429.9,141.3,429.5,141.3,428.9z"/>
	<path d="M152.7,426.4h-1.6v3.3h-1.2v-3.3h-5.1v-0.8l5-7.6h1.4v7.4h1.6V426.4z M149.9,425.4v-3.8c0-0.6,0-1.5,0.1-2.1h-0.1
		c-0.3,0.6-0.6,1.1-0.9,1.7l-2.8,4.2H149.9z"/>
	<path d="M153.9,426.8c0-1.6,1.1-2.7,2.2-3.3v-0.1c-0.8-0.6-1.6-1.5-1.6-2.7c0-1.8,1.4-3,3.2-3c2,0,3.2,1.3,3.2,3.1
		c0,1.2-0.9,2.3-1.6,2.8v0.1c1,0.6,2,1.5,2,3.1c0,1.7-1.5,3-3.6,3C155.5,429.9,153.9,428.6,153.9,426.8z M160,426.8
		c0-1.6-1.5-2.2-3.2-2.9c-1,0.6-1.7,1.6-1.7,2.8c0,1.3,1.1,2.2,2.5,2.2C159.1,428.9,160,428,160,426.8z M159.7,420.9
		c0-1.2-0.8-2.2-2.1-2.2c-1.1,0-1.9,0.8-1.9,2c0,1.5,1.3,2.1,2.7,2.6C159.3,422.7,159.7,421.8,159.7,420.9z"/>
</g>
<g class="st0">
	<path d="M197.2,428.6h2.6v-9h-2.1v-0.8c1-0.2,1.8-0.4,2.4-0.8h1v10.6h2.4v1.1h-6.3V428.6z"/>
	<path d="M205.8,428.9c0-0.6,0.4-1.1,1-1.1c0.5,0,1,0.4,1,1.1c0,0.6-0.4,1-1,1C206.2,429.9,205.8,429.5,205.8,428.9z"/>
	<path d="M209.6,426.8c0-1.6,1.1-2.7,2.2-3.3v-0.1c-0.8-0.6-1.6-1.5-1.6-2.7c0-1.8,1.4-3,3.2-3c2,0,3.2,1.3,3.2,3.1
		c0,1.2-0.9,2.3-1.6,2.8v0.1c1,0.6,2,1.5,2,3.1c0,1.7-1.5,3-3.6,3C211.2,429.9,209.6,428.6,209.6,426.8z M215.7,426.8
		c0-1.6-1.5-2.2-3.2-2.9c-1,0.6-1.7,1.6-1.7,2.8c0,1.3,1.1,2.2,2.5,2.2C214.8,428.9,215.7,428,215.7,426.8z M215.4,420.9
		c0-1.2-0.8-2.2-2.1-2.2c-1.1,0-1.9,0.8-1.9,2c0,1.5,1.3,2.1,2.7,2.6C215,422.7,215.4,421.8,215.4,420.9z"/>
	<path d="M218.4,426.8c0-1.6,1.1-2.7,2.2-3.3v-0.1c-0.8-0.6-1.6-1.5-1.6-2.7c0-1.8,1.4-3,3.2-3c2,0,3.2,1.3,3.2,3.1
		c0,1.2-0.9,2.3-1.6,2.8v0.1c1,0.6,2,1.5,2,3.1c0,1.7-1.5,3-3.6,3C220,429.9,218.4,428.6,218.4,426.8z M224.5,426.8
		c0-1.6-1.5-2.2-3.2-2.9c-1,0.6-1.7,1.6-1.7,2.8c0,1.3,1.1,2.2,2.5,2.2C223.5,428.9,224.5,428,224.5,426.8z M224.2,420.9
		c0-1.2-0.8-2.2-2.1-2.2c-1.1,0-1.9,0.8-1.9,2c0,1.5,1.3,2.1,2.7,2.6C223.8,422.7,224.2,421.8,224.2,420.9z"/>
</g>
<g class="st0">
	<path d="M261.7,428.6h2.6v-9h-2.1v-0.8c1-0.2,1.8-0.4,2.4-0.8h1v10.6h2.4v1.1h-6.3V428.6z"/>
	<path d="M270.2,428.9c0-0.6,0.4-1.1,1-1.1c0.5,0,1,0.4,1,1.1c0,0.6-0.4,1-1,1C270.7,429.9,270.2,429.5,270.2,428.9z"/>
	<path d="M281.7,426.4h-1.6v3.3h-1.2v-3.3h-5.1v-0.8l5-7.6h1.4v7.4h1.6V426.4z M278.8,425.4v-3.8c0-0.6,0-1.5,0.1-2.1h-0.1
		c-0.3,0.6-0.6,1.1-0.9,1.7l-2.8,4.2H278.8z"/>
	<path d="M283.8,427.9c0.5,0.6,1.2,0.9,2,0.9c1.5,0,2.9-1.3,3-5.1c-0.7,0.9-1.7,1.5-2.8,1.5c-2,0-3.2-1.3-3.2-3.7
		c0-2.2,1.5-3.8,3.3-3.8c2.3,0,3.9,1.9,3.9,5.5c0,4.8-2,6.6-4.2,6.6c-1.2,0-2.1-0.5-2.8-1.2L283.8,427.9z M288.8,422.6
		c-0.1-2.4-1.1-3.8-2.6-3.8c-1.2,0-2,1.1-2,2.8c0,1.6,0.7,2.7,2.2,2.7C287.1,424.2,288,423.8,288.8,422.6z"/>
</g>
<g class="st0">
	<path d="M325.6,423.8c0-4.1,1.4-6,3.6-6c2.2,0,3.6,2,3.6,6c0,4.1-1.4,6.1-3.6,6.1C327,429.9,325.6,427.9,325.6,423.8z M331.5,423.8
		c0-3.4-0.9-5-2.3-5c-1.4,0-2.3,1.5-2.3,5c0,3.5,0.9,5.1,2.3,5.1C330.5,428.8,331.5,427.3,331.5,423.8z"/>
	<path d="M334.7,428.9c0-0.6,0.4-1.1,1-1.1c0.5,0,1,0.4,1,1.1c0,0.6-0.4,1-1,1C335.2,429.9,334.7,429.5,334.7,428.9z"/>
	<path d="M338.6,426.8c0-1.6,1.1-2.7,2.2-3.3v-0.1c-0.8-0.6-1.6-1.5-1.6-2.7c0-1.8,1.4-3,3.2-3c2,0,3.2,1.3,3.2,3.1
		c0,1.2-0.9,2.3-1.6,2.8v0.1c1,0.6,2,1.5,2,3.1c0,1.7-1.5,3-3.6,3C340.2,429.9,338.6,428.6,338.6,426.8z M344.7,426.8
		c0-1.6-1.5-2.2-3.2-2.9c-1,0.6-1.7,1.6-1.7,2.8c0,1.3,1.1,2.2,2.5,2.2C343.7,428.9,344.7,428,344.7,426.8z M344.4,420.9
		c0-1.2-0.8-2.2-2.1-2.2c-1.1,0-1.9,0.8-1.9,2c0,1.5,1.3,2.1,2.7,2.6C343.9,422.7,344.4,421.8,344.4,420.9z"/>
	<path d="M347.5,423.8c0-4.1,1.4-6,3.6-6c2.2,0,3.6,2,3.6,6c0,4.1-1.4,6.1-3.6,6.1C348.9,429.9,347.5,427.9,347.5,423.8z
		 M353.4,423.8c0-3.4-0.9-5-2.3-5c-1.4,0-2.3,1.5-2.3,5c0,3.5,0.9,5.1,2.3,5.1C352.4,428.8,353.4,427.3,353.4,423.8z"/>
</g>
<g class="st0">
	<path d="M390.1,423.8c0-4.1,1.4-6,3.6-6c2.2,0,3.6,2,3.6,6c0,4.1-1.4,6.1-3.6,6.1C391.4,429.9,390.1,427.9,390.1,423.8z M396,423.8
		c0-3.4-0.9-5-2.3-5c-1.4,0-2.3,1.5-2.3,5c0,3.5,0.9,5.1,2.3,5.1C395,428.8,396,427.3,396,423.8z"/>
	<path d="M399.2,428.9c0-0.6,0.4-1.1,1-1.1c0.5,0,1,0.4,1,1.1c0,0.6-0.4,1-1,1C399.7,429.9,399.2,429.5,399.2,428.9z"/>
	<path d="M402.8,428.3l0.7-0.9c0.7,0.7,1.5,1.3,2.9,1.3c1.4,0,2.6-1.1,2.6-2.9c0-1.7-1-2.8-2.5-2.8c-0.8,0-1.3,0.3-2,0.7l-0.7-0.4
		l0.4-5.4h5.6v1.1h-4.5l-0.3,3.6c0.5-0.3,1.1-0.5,1.8-0.5c1.9,0,3.5,1.2,3.5,3.7c0,2.5-1.8,4-3.8,4
		C404.7,429.9,403.6,429.1,402.8,428.3z"/>
	<path d="M419.4,426.4h-1.6v3.3h-1.2v-3.3h-5.1v-0.8l5-7.6h1.4v7.4h1.6V426.4z M416.6,425.4v-3.8c0-0.6,0-1.5,0.1-2.1h-0.1
		c-0.3,0.6-0.6,1.1-0.9,1.7l-2.8,4.2H416.6z"/>
</g>
<g class="st0">
	<path d="M455.2,428.6h2.6v-9h-2.1v-0.8c1-0.2,1.8-0.4,2.4-0.8h1v10.6h2.4v1.1h-6.3V428.6z"/>
	<path d="M463.7,428.9c0-0.6,0.4-1.1,1-1.1c0.5,0,1,0.4,1,1.1c0,0.6-0.4,1-1,1C464.1,429.9,463.7,429.5,463.7,428.9z"/>
	<path d="M467.3,428.3l0.7-0.9c0.7,0.7,1.5,1.3,2.9,1.3c1.4,0,2.6-1.1,2.6-2.9c0-1.7-1-2.8-2.5-2.8c-0.8,0-1.3,0.3-2,0.7l-0.7-0.4
		l0.4-5.4h5.6v1.1h-4.5l-0.3,3.6c0.5-0.3,1.1-0.5,1.8-0.5c1.9,0,3.5,1.2,3.5,3.7c0,2.5-1.8,4-3.8,4
		C469.2,429.9,468.1,429.1,467.3,428.3z"/>
	<path d="M477.1,428.6h2.6v-9h-2.1v-0.8c1-0.2,1.8-0.4,2.4-0.8h1v10.6h2.4v1.1h-6.3V428.6z"/>
</g>
<g class="st0">
	<path d="M518.7,428.3l0.7-0.8c0.7,0.7,1.6,1.4,3,1.4c1.4,0,2.4-0.9,2.4-2.3c0-1.5-1-2.4-3.7-2.4v-1c2.4,0,3.3-1,3.3-2.3
		c0-1.2-0.8-1.9-2-2c-1,0-1.8,0.5-2.5,1.2l-0.7-0.8c0.9-0.8,1.9-1.4,3.2-1.4c1.9,0,3.3,1.1,3.3,2.9c0,1.5-0.8,2.4-2.1,2.8v0.1
		c1.4,0.3,2.5,1.4,2.5,3c0,2.1-1.6,3.3-3.7,3.3C520.6,429.9,519.5,429.1,518.7,428.3z"/>
	<path d="M528.2,428.9c0-0.6,0.4-1.1,1-1.1c0.5,0,1,0.4,1,1.1c0,0.6-0.4,1-1,1C528.6,429.9,528.2,429.5,528.2,428.9z"/>
	<path d="M532.1,426.8c0-1.6,1.1-2.7,2.2-3.3v-0.1c-0.8-0.6-1.6-1.5-1.6-2.7c0-1.8,1.4-3,3.2-3c2,0,3.2,1.3,3.2,3.1
		c0,1.2-0.9,2.3-1.6,2.8v0.1c1,0.6,2,1.5,2,3.1c0,1.7-1.5,3-3.6,3C533.6,429.9,532.1,428.6,532.1,426.8z M538.1,426.8
		c0-1.6-1.5-2.2-3.2-2.9c-1,0.6-1.7,1.6-1.7,2.8c0,1.3,1.1,2.2,2.5,2.2C537.2,428.9,538.1,428,538.1,426.8z M537.8,420.9
		c0-1.2-0.8-2.2-2.1-2.2c-1.1,0-1.9,0.8-1.9,2c0,1.5,1.3,2.1,2.7,2.6C537.4,422.7,537.8,421.8,537.8,420.9z"/>
	<path d="M540.6,428.3l0.7-0.9c0.7,0.7,1.5,1.3,2.9,1.3c1.4,0,2.6-1.1,2.6-2.9c0-1.7-1-2.8-2.5-2.8c-0.8,0-1.3,0.3-2,0.7l-0.7-0.4
		l0.4-5.4h5.6v1.1H543l-0.3,3.6c0.5-0.3,1.1-0.5,1.8-0.5c1.9,0,3.5,1.2,3.5,3.7c0,2.5-1.8,4-3.8,4
		C542.4,429.9,541.3,429.1,540.6,428.3z"/>
</g>
<g class="st0">
	<path d="M580.7,424.7h4v1h-4V424.7z"/>
	<path d="M586.3,423.8c0-4.1,1.4-6,3.6-6c2.2,0,3.6,2,3.6,6c0,4.1-1.4,6.1-3.6,6.1C587.7,429.9,586.3,427.9,586.3,423.8z
		 M592.2,423.8c0-3.4-0.9-5-2.3-5c-1.4,0-2.3,1.5-2.3,5c0,3.5,0.9,5.1,2.3,5.1C591.2,428.8,592.2,427.3,592.2,423.8z"/>
	<path d="M595.4,428.9c0-0.6,0.4-1.1,1-1.1c0.5,0,1,0.4,1,1.1c0,0.6-0.4,1-1,1C595.9,429.9,595.4,429.5,595.4,428.9z"/>
	<path d="M605.1,419.1h-5.7V418h7.3v0.8c-2.8,3.6-3.3,6.4-3.5,10.9h-1.4C602,425.2,602.8,422.3,605.1,419.1z"/>
	<path d="M608.8,428.6h2.6v-9h-2.1v-0.8c1-0.2,1.8-0.4,2.4-0.8h1v10.6h2.4v1.1h-6.3V428.6z"/>
</g>
<g class="st0">
	<path d="M648,423.8c0-4.1,1.4-6,3.6-6c2.2,0,3.6,2,3.6,6c0,4.1-1.4,6.1-3.6,6.1C649.4,429.9,648,427.9,648,423.8z M653.9,423.8
		c0-3.4-0.9-5-2.3-5c-1.4,0-2.3,1.5-2.3,5c0,3.5,0.9,5.1,2.3,5.1C653,428.8,653.9,427.3,653.9,423.8z"/>
	<path d="M657.2,428.9c0-0.6,0.4-1.1,1-1.1c0.5,0,1,0.4,1,1.1c0,0.6-0.4,1-1,1C657.6,429.9,657.2,429.5,657.2,428.9z"/>
	<path d="M666.8,419.1h-5.7V418h7.3v0.8c-2.8,3.6-3.3,6.4-3.5,10.9h-1.4C663.7,425.2,664.5,422.3,666.8,419.1z"/>
	<path d="M669.8,428.9c3.7-3.3,5.4-5.6,5.4-7.7c0-1.4-0.7-2.4-2.2-2.4c-1,0-1.8,0.6-2.5,1.4l-0.8-0.7c0.9-1,2-1.7,3.4-1.7
		c2.1,0,3.4,1.3,3.4,3.4c0,2.4-1.9,4.8-4.7,7.5c0.6-0.1,1.3-0.1,1.9-0.1h3.4v1.1h-7.3V428.9z"/>
</g>
<g class="st0">
	<path d="M709.7,424.7h4v1h-4V424.7z"/>
	<path d="M715.2,423.8c0-4.1,1.4-6,3.6-6c2.2,0,3.6,2,3.6,6c0,4.1-1.4,6.1-3.6,6.1C716.6,429.9,715.2,427.9,715.2,423.8z
		 M721.1,423.8c0-3.4-0.9-5-2.3-5c-1.4,0-2.3,1.5-2.3,5c0,3.5,0.9,5.1,2.3,5.1C720.2,428.8,721.1,427.3,721.1,423.8z"/>
	<path d="M724.4,428.9c0-0.6,0.4-1.1,1-1.1c0.5,0,1,0.4,1,1.1c0,0.6-0.4,1-1,1C724.8,429.9,724.4,429.5,724.4,428.9z"/>
	<path d="M728.3,426.8c0-1.6,1.1-2.7,2.2-3.3v-0.1c-0.8-0.6-1.6-1.5-1.6-2.7c0-1.8,1.4-3,3.2-3c2,0,3.2,1.3,3.2,3.1
		c0,1.2-0.9,2.3-1.6,2.8v0.1c1,0.6,2,1.5,2,3.1c0,1.7-1.5,3-3.6,3C729.8,429.9,728.3,428.6,728.3,426.8z M734.3,426.8
		c0-1.6-1.5-2.2-3.2-2.9c-1,0.6-1.7,1.6-1.7,2.8c0,1.3,1.1,2.2,2.5,2.2C733.4,428.9,734.3,428,734.3,426.8z M734,420.9
		c0-1.2-0.8-2.2-2.1-2.2c-1.1,0-1.9,0.8-1.9,2c0,1.5,1.3,2.1,2.7,2.6C733.6,422.7,734,421.8,734,420.9z"/>
	<path d="M743.5,419.7c-0.5-0.6-1.2-0.9-1.9-0.9c-1.6,0-3,1.3-3.1,5c0.7-0.9,1.8-1.4,2.7-1.4c2,0,3.2,1.2,3.2,3.7
		c0,2.2-1.5,3.8-3.3,3.8c-2.3,0-3.9-2-3.9-5.8c0-4.6,2-6.4,4.3-6.4c1.2,0,2,0.5,2.7,1.2L743.5,419.7z M743.2,426.1
		c0-1.6-0.7-2.7-2.2-2.7c-0.8,0-1.7,0.4-2.5,1.6c0.2,2.5,1.1,3.9,2.6,3.9C742.3,428.8,743.2,427.7,743.2,426.1z"/>
</g>
<g class="st0">
	<path d="M784.4,426.4h-1.6v3.3h-1.2v-3.3h-5.1v-0.8l5-7.6h1.4v7.4h1.6V426.4z M781.6,425.4v-3.8c0-0.6,0-1.5,0.1-2.1h-0.1
		c-0.3,0.6-0.6,1.1-0.9,1.7l-2.8,4.2H781.6z"/>
	<path d="M786.1,428.9c0-0.6,0.4-1.1,1-1.1c0.5,0,1,0.4,1,1.1c0,0.6-0.4,1-1,1C786.6,429.9,786.1,429.5,786.1,428.9z"/>
	<path d="M797.6,426.4H796v3.3h-1.2v-3.3h-5.1v-0.8l5-7.6h1.4v7.4h1.6V426.4z M794.7,425.4v-3.8c0-0.6,0-1.5,0.1-2.1h-0.1
		c-0.3,0.6-0.6,1.1-0.9,1.7l-2.8,4.2H794.7z"/>
	<path d="M798.8,426.8c0-1.6,1.1-2.7,2.2-3.3v-0.1c-0.8-0.6-1.6-1.5-1.6-2.7c0-1.8,1.4-3,3.2-3c2,0,3.2,1.3,3.2,3.1
		c0,1.2-0.9,2.3-1.6,2.8v0.1c1,0.6,2,1.5,2,3.1c0,1.7-1.5,3-3.6,3C800.4,429.9,798.8,428.6,798.8,426.8z M804.9,426.8
		c0-1.6-1.5-2.2-3.2-2.9c-1,0.6-1.7,1.6-1.7,2.8c0,1.3,1.1,2.2,2.5,2.2C803.9,428.9,804.9,428,804.9,426.8z M804.6,420.9
		c0-1.2-0.8-2.2-2.1-2.2c-1.1,0-1.9,0.8-1.9,2c0,1.5,1.3,2.1,2.7,2.6C804.1,422.7,804.6,421.8,804.6,420.9z"/>
</g>
<g class="st0">
	<path d="M841.5,423.8c0-4.1,1.4-6,3.6-6c2.2,0,3.6,2,3.6,6c0,4.1-1.4,6.1-3.6,6.1C842.9,429.9,841.5,427.9,841.5,423.8z
		 M847.4,423.8c0-3.4-0.9-5-2.3-5c-1.4,0-2.3,1.5-2.3,5c0,3.5,0.9,5.1,2.3,5.1C846.4,428.8,847.4,427.3,847.4,423.8z"/>
	<path d="M850.6,428.9c0-0.6,0.4-1.1,1-1.1c0.5,0,1,0.4,1,1.1c0,0.6-0.4,1-1,1C851.1,429.9,850.6,429.5,850.6,428.9z"/>
	<path d="M855.2,428.6h2.6v-9h-2.1v-0.8c1-0.2,1.8-0.4,2.4-0.8h1v10.6h2.4v1.1h-6.3V428.6z"/>
	<path d="M869.1,419.1h-5.7V418h7.3v0.8c-2.8,3.6-3.3,6.4-3.5,10.9h-1.4C865.9,425.2,866.8,422.3,869.1,419.1z"/>
</g>
<g class="st0">
	<path d="M68.3,31.3l0.7-0.9c0.7,0.7,1.5,1.3,2.9,1.3c1.4,0,2.6-1.1,2.6-2.9c0-1.7-1-2.8-2.5-2.8c-0.8,0-1.3,0.3-2,0.7l-0.7-0.4
		l0.4-5.4h5.6V22h-4.4l-0.3,3.6c0.5-0.3,1.1-0.5,1.8-0.5c1.9,0,3.5,1.2,3.5,3.7c0,2.5-1.8,4-3.8,4C70.1,32.8,69.1,32.1,68.3,31.3z"
		/>
	<path d="M77.8,31.8c0-0.6,0.4-1.1,1-1.1c0.5,0,1,0.4,1,1.1c0,0.6-0.4,1-1,1C78.2,32.8,77.8,32.4,77.8,31.8z"/>
	<path d="M81.7,26.7c0-4.1,1.4-6,3.6-6c2.2,0,3.6,2,3.6,6c0,4.1-1.4,6.1-3.6,6.1C83.1,32.8,81.7,30.8,81.7,26.7z M87.6,26.7
		c0-3.4-0.9-5-2.3-5c-1.4,0-2.3,1.5-2.3,5c0,3.5,0.9,5.1,2.3,5.1C86.7,31.8,87.6,30.2,87.6,26.7z"/>
</g>
<g class="st0">
	<path d="M76.1,77.1h-1.6v3.3h-1.2v-3.3h-5.1v-0.8l5-7.6h1.4v7.4h1.6V77.1z M73.3,76.1v-3.8c0-0.6,0-1.5,0.1-2.1h-0.1
		c-0.3,0.6-0.6,1.1-0.9,1.7l-2.8,4.2H73.3z"/>
	<path d="M77.8,79.6c0-0.6,0.4-1.1,1-1.1c0.5,0,1,0.4,1,1.1c0,0.6-0.4,1-1,1C78.2,80.6,77.8,80.2,77.8,79.6z"/>
	<path d="M81.7,74.5c0-4.1,1.4-6,3.6-6c2.2,0,3.6,2,3.6,6c0,4.1-1.4,6.1-3.6,6.1C83.1,80.6,81.7,78.6,81.7,74.5z M87.6,74.5
		c0-3.4-0.9-5-2.3-5c-1.4,0-2.3,1.5-2.3,5c0,3.5,0.9,5.1,2.3,5.1C86.7,79.6,87.6,78,87.6,74.5z"/>
</g>
<g class="st0">
	<path d="M68.3,126.8L69,126c0.7,0.7,1.6,1.4,3,1.4c1.4,0,2.4-0.9,2.4-2.3c0-1.5-1-2.4-3.7-2.4v-1c2.4,0,3.3-1,3.3-2.3
		c0-1.2-0.8-1.9-2-2c-1,0-1.8,0.5-2.5,1.2l-0.7-0.8c0.9-0.8,1.9-1.4,3.2-1.4c1.9,0,3.3,1.1,3.3,2.9c0,1.5-0.8,2.4-2.1,2.8v0.1
		c1.4,0.3,2.5,1.4,2.5,3c0,2.1-1.6,3.3-3.7,3.3C70.2,128.4,69.1,127.6,68.3,126.8z"/>
	<path d="M77.8,127.4c0-0.6,0.4-1.1,1-1.1c0.5,0,1,0.4,1,1.1c0,0.6-0.4,1-1,1C78.2,128.4,77.8,128,77.8,127.4z"/>
	<path d="M81.7,122.3c0-4.1,1.4-6,3.6-6c2.2,0,3.6,2,3.6,6c0,4.1-1.4,6.1-3.6,6.1C83.1,128.4,81.7,126.4,81.7,122.3z M87.6,122.3
		c0-3.4-0.9-5-2.3-5c-1.4,0-2.3,1.5-2.3,5c0,3.5,0.9,5.1,2.3,5.1C86.7,127.4,87.6,125.8,87.6,122.3z"/>
</g>
<g class="st0">
	<path d="M68.5,175.2c3.7-3.3,5.4-5.6,5.4-7.7c0-1.4-0.7-2.4-2.2-2.4c-1,0-1.8,0.6-2.5,1.4l-0.8-0.7c0.9-1,2-1.7,3.4-1.7
		c2.1,0,3.4,1.3,3.4,3.4c0,2.4-1.9,4.8-4.7,7.5c0.6-0.1,1.3-0.1,1.9-0.1h3.4v1.1h-7.3V175.2z"/>
	<path d="M77.8,175.2c0-0.6,0.4-1.1,1-1.1c0.5,0,1,0.4,1,1.1c0,0.6-0.4,1-1,1C78.2,176.2,77.8,175.8,77.8,175.2z"/>
	<path d="M81.7,170.1c0-4.1,1.4-6,3.6-6c2.2,0,3.6,2,3.6,6c0,4.1-1.4,6.1-3.6,6.1C83.1,176.2,81.7,174.2,81.7,170.1z M87.6,170.1
		c0-3.4-0.9-5-2.3-5c-1.4,0-2.3,1.5-2.3,5c0,3.5,0.9,5.1,2.3,5.1C86.7,175.2,87.6,173.6,87.6,170.1z"/>
</g>
<g class="st0">
	<path d="M69.2,222.7h2.6v-9h-2.1v-0.8c1-0.2,1.8-0.4,2.4-0.8h1v10.6h2.4v1.1h-6.3V222.7z"/>
	<path d="M77.8,223c0-0.6,0.4-1.1,1-1.1c0.5,0,1,0.4,1,1.1c0,0.6-0.4,1-1,1C78.2,224,77.8,223.6,77.8,223z"/>
	<path d="M81.7,217.9c0-4.1,1.4-6,3.6-6c2.2,0,3.6,2,3.6,6c0,4.1-1.4,6.1-3.6,6.1C83.1,224,81.7,222,81.7,217.9z M87.6,217.9
		c0-3.4-0.9-5-2.3-5c-1.4,0-2.3,1.5-2.3,5c0,3.5,0.9,5.1,2.3,5.1C86.7,223,87.6,221.4,87.6,217.9z"/>
</g>
<g class="st0">
	<path d="M68.6,265.7c0-4.1,1.4-6,3.6-6c2.2,0,3.6,2,3.6,6c0,4.1-1.4,6.1-3.6,6.1C70,271.8,68.6,269.8,68.6,265.7z M74.5,265.7
		c0-3.4-0.9-5-2.3-5c-1.4,0-2.3,1.5-2.3,5c0,3.5,0.9,5.1,2.3,5.1C73.6,270.8,74.5,269.2,74.5,265.7z"/>
	<path d="M77.8,270.8c0-0.6,0.4-1.1,1-1.1c0.5,0,1,0.4,1,1.1c0,0.6-0.4,1-1,1C78.2,271.8,77.8,271.4,77.8,270.8z"/>
	<path d="M81.7,265.7c0-4.1,1.4-6,3.6-6c2.2,0,3.6,2,3.6,6c0,4.1-1.4,6.1-3.6,6.1C83.1,271.8,81.7,269.8,81.7,265.7z M87.6,265.7
		c0-3.4-0.9-5-2.3-5c-1.4,0-2.3,1.5-2.3,5c0,3.5,0.9,5.1,2.3,5.1C86.7,270.8,87.6,269.2,87.6,265.7z"/>
</g>
<g class="st0">
	<path class="st2" d="M63.1,314.4h4v1h-4V314.4z"/>
	<path class="st2" d="M69.2,318.3h2.6v-9h-2.1v-0.8c1-0.2,1.8-0.4,2.4-0.8h1v10.6h2.4v1.1h-6.3V318.3z"/>
	<path class="st2" d="M77.8,318.6c0-0.6,0.4-1.1,1-1.1c0.5,0,1,0.4,1,1.1c0,0.6-0.4,1-1,1C78.2,319.6,77.8,319.2,77.8,318.6z"/>
	<path class="st2" d="M81.7,313.5c0-4.1,1.4-6,3.6-6c2.2,0,3.6,2,3.6,6c0,4.1-1.4,6.1-3.6,6.1C83.1,319.6,81.7,317.6,81.7,313.5z
		 M87.6,313.5c0-3.4-0.9-5-2.3-5c-1.4,0-2.3,1.5-2.3,5c0,3.5,0.9,5.1,2.3,5.1C86.7,318.6,87.6,317,87.6,313.5z"/>
</g>
<g class="st0">
	<path class="st2" d="M63.1,362.2h4v1h-4V362.2z"/>
	<path class="st2" d="M68.5,366.4c3.7-3.3,5.4-5.6,5.4-7.7c0-1.4-0.7-2.4-2.2-2.4c-1,0-1.8,0.6-2.5,1.4l-0.8-0.7
		c0.9-1,2-1.7,3.4-1.7c2.1,0,3.4,1.3,3.4,3.4c0,2.4-1.9,4.8-4.7,7.5c0.6-0.1,1.3-0.1,1.9-0.1h3.4v1.1h-7.3V366.4z"/>
	<path class="st2" d="M77.8,366.4c0-0.6,0.4-1.1,1-1.1c0.5,0,1,0.4,1,1.1c0,0.6-0.4,1-1,1C78.2,367.4,77.8,367,77.8,366.4z"/>
	<path class="st2" d="M81.7,361.3c0-4.1,1.4-6,3.6-6c2.2,0,3.6,2,3.6,6c0,4.1-1.4,6.1-3.6,6.1C83.1,367.4,81.7,365.4,81.7,361.3z
		 M87.6,361.3c0-3.4-0.9-5-2.3-5c-1.4,0-2.3,1.5-2.3,5c0,3.5,0.9,5.1,2.3,5.1C86.7,366.3,87.6,364.8,87.6,361.3z"/>
</g>
<g class="st0">
	<path d="M911.2,31.5h2.6v-9h-2.1v-0.8c1-0.2,1.8-0.4,2.4-0.8h1v10.6h2.4v1.1h-6.3V31.5z"/>
	<path d="M919.3,26.7c0-4.1,1.4-6,3.6-6c2.2,0,3.6,2,3.6,6c0,4.1-1.4,6.1-3.6,6.1C920.7,32.8,919.3,30.8,919.3,26.7z M925.3,26.7
		c0-3.4-0.9-5-2.3-5c-1.4,0-2.3,1.5-2.3,5c0,3.5,0.9,5.1,2.3,5.1C924.3,31.8,925.3,30.2,925.3,26.7z"/>
	<path d="M928.1,26.7c0-4.1,1.4-6,3.6-6c2.2,0,3.6,2,3.6,6c0,4.1-1.4,6.1-3.6,6.1C929.5,32.8,928.1,30.8,928.1,26.7z M934,26.7
		c0-3.4-0.9-5-2.3-5c-1.4,0-2.3,1.5-2.3,5c0,3.5,0.9,5.1,2.3,5.1C933.1,31.8,934,30.2,934,26.7z"/>
	<path d="M936.8,24.4c0-2.4,1-3.7,2.6-3.7s2.6,1.3,2.6,3.7c0,2.4-1,3.7-2.6,3.7S936.8,26.7,936.8,24.4z M941,24.4
		c0-1.9-0.7-2.8-1.6-2.8c-1,0-1.6,1-1.6,2.8s0.7,2.9,1.6,2.9C940.3,27.2,941,26.2,941,24.4z M946.2,20.7h0.9l-6.5,12.1h-0.9
		L946.2,20.7z M944.9,29.1c0-2.3,1-3.7,2.6-3.7c1.6,0,2.6,1.3,2.6,3.7c0,2.4-1.1,3.7-2.6,3.7C945.9,32.8,944.9,31.5,944.9,29.1z
		 M949.1,29.1c0-1.9-0.7-2.8-1.6-2.8c-1,0-1.6,0.9-1.6,2.8c0,1.9,0.6,2.9,1.6,2.9C948.4,32,949.1,31,949.1,29.1z"/>
</g>
<g class="st0">
	<path d="M910.5,96.1c0-1.6,1.1-2.7,2.2-3.3v-0.1c-0.8-0.6-1.6-1.5-1.6-2.7c0-1.8,1.4-3,3.2-3c2,0,3.2,1.3,3.2,3.1
		c0,1.2-0.9,2.3-1.6,2.8v0.1c1,0.6,2,1.5,2,3.1c0,1.7-1.5,3-3.6,3C912.1,99.2,910.5,97.9,910.5,96.1z M916.6,96.1
		c0-1.6-1.5-2.2-3.2-2.9c-1,0.6-1.7,1.6-1.7,2.8c0,1.3,1.1,2.2,2.5,2.2C915.6,98.2,916.6,97.3,916.6,96.1z M916.3,90.2
		c0-1.2-0.8-2.2-2.1-2.2c-1.1,0-1.9,0.8-1.9,2c0,1.5,1.3,2.1,2.7,2.6C915.8,92,916.3,91.1,916.3,90.2z"/>
	<path d="M919.3,93.1c0-4.1,1.4-6,3.6-6c2.2,0,3.6,2,3.6,6c0,4.1-1.4,6.1-3.6,6.1C920.7,99.2,919.3,97.2,919.3,93.1z M925.3,93.1
		c0-3.4-0.9-5-2.3-5c-1.4,0-2.3,1.5-2.3,5c0,3.5,0.9,5.1,2.3,5.1C924.3,98.1,925.3,96.5,925.3,93.1z"/>
	<path d="M928,90.7c0-2.4,1-3.7,2.6-3.7s2.6,1.3,2.6,3.7c0,2.4-1,3.7-2.6,3.7S928,93.1,928,90.7z M932.2,90.7c0-1.9-0.7-2.8-1.6-2.8
		c-1,0-1.6,1-1.6,2.8s0.7,2.9,1.6,2.9C931.6,93.6,932.2,92.6,932.2,90.7z M937.4,87h0.9l-6.5,12.1h-0.9L937.4,87z M936.1,95.5
		c0-2.3,1-3.7,2.6-3.7c1.6,0,2.6,1.3,2.6,3.7c0,2.4-1.1,3.7-2.6,3.7C937.1,99.2,936.1,97.8,936.1,95.5z M940.3,95.5
		c0-1.9-0.7-2.8-1.6-2.8c-1,0-1.6,0.9-1.6,2.8c0,1.9,0.6,2.9,1.6,2.9C939.7,98.4,940.3,97.4,940.3,95.5z"/>
</g>
<g class="st0">
	<path d="M916.9,155.4c-0.5-0.6-1.2-0.9-1.9-0.9c-1.6,0-3,1.3-3.1,5c0.7-0.9,1.8-1.4,2.7-1.4c2,0,3.2,1.2,3.2,3.7
		c0,2.2-1.5,3.8-3.3,3.8c-2.3,0-3.9-2-3.9-5.8c0-4.6,2-6.4,4.3-6.4c1.2,0,2,0.5,2.7,1.2L916.9,155.4z M916.6,161.7
		c0-1.6-0.7-2.7-2.2-2.7c-0.8,0-1.7,0.4-2.5,1.6c0.2,2.5,1.1,3.9,2.6,3.9C915.7,164.5,916.6,163.4,916.6,161.7z"/>
	<path d="M919.3,159.4c0-4.1,1.4-6,3.6-6c2.2,0,3.6,2,3.6,6c0,4.1-1.4,6.1-3.6,6.1C920.7,165.5,919.3,163.5,919.3,159.4z
		 M925.3,159.4c0-3.4-0.9-5-2.3-5c-1.4,0-2.3,1.5-2.3,5c0,3.5,0.9,5.1,2.3,5.1C924.3,164.5,925.3,162.9,925.3,159.4z"/>
	<path d="M928,157.1c0-2.4,1-3.7,2.6-3.7s2.6,1.3,2.6,3.7c0,2.4-1,3.7-2.6,3.7S928,159.4,928,157.1z M932.2,157.1
		c0-1.9-0.7-2.8-1.6-2.8c-1,0-1.6,1-1.6,2.8s0.7,2.9,1.6,2.9C931.6,159.9,932.2,158.9,932.2,157.1z M937.4,153.4h0.9l-6.5,12.1h-0.9
		L937.4,153.4z M936.1,161.8c0-2.3,1-3.7,2.6-3.7c1.6,0,2.6,1.3,2.6,3.7c0,2.4-1.1,3.7-2.6,3.7C937.1,165.5,936.1,164.2,936.1,161.8
		z M940.3,161.8c0-1.9-0.7-2.8-1.6-2.8c-1,0-1.6,0.9-1.6,2.8c0,1.9,0.6,2.9,1.6,2.9C939.7,164.7,940.3,163.7,940.3,161.8z"/>
</g>
<g class="st0">
	<path d="M918,228.4h-1.6v3.3h-1.2v-3.3h-5.1v-0.8l5-7.6h1.4v7.4h1.6V228.4z M915.2,227.4v-3.8c0-0.6,0-1.5,0.1-2.1h-0.1
		c-0.3,0.6-0.6,1.1-0.9,1.7l-2.8,4.2H915.2z"/>
	<path d="M919.3,225.8c0-4.1,1.4-6,3.6-6c2.2,0,3.6,2,3.6,6c0,4.1-1.4,6.1-3.6,6.1C920.7,231.9,919.3,229.9,919.3,225.8z
		 M925.3,225.8c0-3.4-0.9-5-2.3-5c-1.4,0-2.3,1.5-2.3,5c0,3.5,0.9,5.1,2.3,5.1C924.3,230.8,925.3,229.3,925.3,225.8z"/>
	<path d="M928,223.4c0-2.4,1-3.7,2.6-3.7s2.6,1.3,2.6,3.7c0,2.4-1,3.7-2.6,3.7S928,225.8,928,223.4z M932.2,223.4
		c0-1.9-0.7-2.8-1.6-2.8c-1,0-1.6,1-1.6,2.8s0.7,2.9,1.6,2.9C931.6,226.3,932.2,225.3,932.2,223.4z M937.4,219.7h0.9l-6.5,12.1h-0.9
		L937.4,219.7z M936.1,228.2c0-2.3,1-3.7,2.6-3.7c1.6,0,2.6,1.3,2.6,3.7c0,2.4-1.1,3.7-2.6,3.7C937.1,231.9,936.1,230.5,936.1,228.2
		z M940.3,228.2c0-1.9-0.7-2.8-1.6-2.8c-1,0-1.6,0.9-1.6,2.8c0,1.9,0.6,2.9,1.6,2.9C939.7,231.1,940.3,230.1,940.3,228.2z"/>
</g>
<g class="st0">
	<path d="M910.5,297.2c3.7-3.3,5.4-5.6,5.4-7.7c0-1.4-0.7-2.4-2.2-2.4c-1,0-1.8,0.6-2.5,1.4l-0.8-0.7c0.9-1,2-1.7,3.4-1.7
		c2.1,0,3.4,1.3,3.4,3.4c0,2.4-1.9,4.8-4.7,7.5c0.6-0.1,1.3-0.1,1.9-0.1h3.4v1.1h-7.3V297.2z"/>
	<path d="M919.3,292.1c0-4.1,1.4-6,3.6-6c2.2,0,3.6,2,3.6,6c0,4.1-1.4,6.1-3.6,6.1C920.7,298.2,919.3,296.2,919.3,292.1z
		 M925.3,292.1c0-3.4-0.9-5-2.3-5c-1.4,0-2.3,1.5-2.3,5c0,3.5,0.9,5.1,2.3,5.1C924.3,297.2,925.3,295.6,925.3,292.1z"/>
	<path d="M928,289.8c0-2.4,1-3.7,2.6-3.7s2.6,1.3,2.6,3.7c0,2.4-1,3.7-2.6,3.7S928,292.1,928,289.8z M932.2,289.8
		c0-1.9-0.7-2.8-1.6-2.8c-1,0-1.6,1-1.6,2.8s0.7,2.9,1.6,2.9C931.6,292.6,932.2,291.7,932.2,289.8z M937.4,286.1h0.9l-6.5,12.1h-0.9
		L937.4,286.1z M936.1,294.5c0-2.3,1-3.7,2.6-3.7c1.6,0,2.6,1.3,2.6,3.7c0,2.4-1.1,3.7-2.6,3.7C937.1,298.2,936.1,296.9,936.1,294.5
		z M940.3,294.5c0-1.9-0.7-2.8-1.6-2.8c-1,0-1.6,0.9-1.6,2.8c0,1.9,0.6,2.9,1.6,2.9C939.7,297.4,940.3,296.4,940.3,294.5z"/>
</g>
<g class="st0">
	<path d="M910.6,358.5c0-4.1,1.4-6,3.6-6c2.2,0,3.6,2,3.6,6c0,4.1-1.4,6.1-3.6,6.1C912,364.6,910.6,362.6,910.6,358.5z M916.5,358.5
		c0-3.4-0.9-5-2.3-5c-1.4,0-2.3,1.5-2.3,5c0,3.5,0.9,5.1,2.3,5.1C915.5,363.5,916.5,362,916.5,358.5z"/>
	<path d="M919.2,356.1c0-2.4,1-3.7,2.6-3.7s2.6,1.3,2.6,3.7c0,2.4-1,3.7-2.6,3.7S919.2,358.5,919.2,356.1z M923.4,356.1
		c0-1.9-0.7-2.8-1.6-2.8c-1,0-1.6,1-1.6,2.8s0.7,2.9,1.6,2.9C922.8,359,923.4,358,923.4,356.1z M928.6,352.5h0.9l-6.5,12.1h-0.9
		L928.6,352.5z M927.3,360.9c0-2.3,1-3.7,2.6-3.7c1.6,0,2.6,1.3,2.6,3.7c0,2.4-1.1,3.7-2.6,3.7C928.3,364.6,927.3,363.3,927.3,360.9
		z M931.5,360.9c0-1.9-0.7-2.8-1.6-2.8c-1,0-1.6,0.9-1.6,2.8c0,1.9,0.6,2.9,1.6,2.9C930.9,363.8,931.5,362.8,931.5,360.9z"/>
</g>
<rect x="15.4" y="417" class="st1" width="11.8" height="11.8"/>
<circle class="st3" cx="146.6" cy="60.5" r="5.9"/>
<circle class="st3" cx="211.1" cy="93.9" r="5.9"/>
<circle class="st3" cx="275.6" cy="161" r="5.9"/>
<circle class="st3" cx="340.1" cy="161" r="5.9"/>
<circle class="st3" cx="404.6" cy="161" r="5.9"/>
<circle class="st3" cx="469.1" cy="161" r="5.9"/>
<circle class="st3" cx="533.6" cy="127.8" r="5.9"/>
<circle class="st3" cx="598.1" cy="228.1" r="5.9"/>
<circle class="st3" cx="662.5" cy="194.3" r="5.9"/>
<circle class="st3" cx="727" cy="194.5" r="5.9"/>
<circle class="st3" cx="791.5" cy="59.8" r="5.9"/>
<circle class="st3" cx="856" cy="160.4" r="5.9"/>
<line class="st4" x1="113.6" y1="27" x2="113.6" y2="486.3"/>
<line class="st4" x1="888.7" y1="27" x2="888.7" y2="486.3"/>
<line class="st4" x1="888.7" y1="27" x2="897.9" y2="27"/>
<line class="st4" x1="888.7" y1="93.9" x2="897.9" y2="93.9"/>
<line class="st4" x1="888.7" y1="160.8" x2="897.9" y2="160.8"/>
<line class="st4" x1="888.7" y1="227.7" x2="897.9" y2="227.7"/>
<line class="st4" x1="888.7" y1="294.7" x2="897.9" y2="294.7"/>
<line class="st4" x1="113.6" y1="361.6" x2="897.9" y2="361.6"/>
<line class="st4" x1="0" y1="403.2" x2="888.7" y2="403.2"/>
<line class="st4" x1="0" y1="444.7" x2="888.7" y2="444.7"/>
<g class="st0">
	<path d="M47.7,470.6v1.1H33.4v-1.1h6v-12.5h1.1v4.9h6v1.1h-6v6.5H47.7z"/>
	<path d="M51.3,465c-0.4-0.5-1.4-1.2-2.2-1.7l0.5-0.7c0.8,0.5,1.7,1.2,2.2,1.6L51.3,465z M49.3,471.6c0.6-1.2,1.5-3.2,2.1-4.9
		l0.7,0.6c-0.6,1.6-1.4,3.5-2,4.9L49.3,471.6z M50.2,458.2c0.8,0.5,1.7,1.3,2.1,1.9l-0.6,0.7c-0.4-0.6-1.3-1.4-2.1-1.9L50.2,458.2z
		 M52.8,458.5h3.7v4.5H54c-0.1,0.9-0.1,1.9-0.2,2.7h2.6c0,0,0,0.3,0,0.4c-0.2,3.8-0.4,5.2-0.8,5.6c-0.2,0.3-0.5,0.4-0.9,0.4
		c-0.4,0-1.1,0-1.8,0c0-0.3-0.1-0.6-0.3-0.9c0.7,0.1,1.4,0.1,1.7,0.1c0.2,0,0.4,0,0.5-0.2c0.3-0.3,0.5-1.5,0.6-4.6h-2.7
		c0.2-1.2,0.3-3.1,0.4-4.5h2.5v-2.7h-2.8V458.5z M63.8,467.3c-0.6,0.6-1.3,1.2-2,1.6c0.7,1,1.4,1.8,2.2,2.3
		c-0.2,0.2-0.5,0.5-0.6,0.8c-1.6-1.1-3-3.5-3.8-5.9h-1.1v4.9l2.4-0.8c0,0.2,0.1,0.6,0.1,0.8c-2.9,1.1-3.3,1.3-3.5,1.5v0l0,0
		c-0.1-0.3-0.2-0.8-0.4-1c0.2-0.1,0.5-0.3,0.5-0.9v-4.5h-0.8v-0.9h1v-6.5h5.7v0.9h-4.8v1.3H63v0.8h-4.3v1.3H63v0.8h-4.3v1.4h5v0.9
		h-3.4c0.3,0.7,0.6,1.4,1,2.1c0.6-0.5,1.2-1.1,1.7-1.6L63.8,467.3z"/>
	<path d="M68.9,466.3c-0.2-0.4-0.5-1.2-0.9-1.9v8h-0.9v-7.8c-0.4,1.7-1,3.4-1.6,4.4c-0.1-0.3-0.4-0.8-0.5-1c0.8-1.3,1.6-3.8,2-6
		h-1.6v-1h1.7v-3.1h0.9v3.1h1.3v1h-1.3v1.1c0.4,0.6,1.2,2.1,1.4,2.5L68.9,466.3z M78.7,467.5c-0.5,1-1.2,1.9-2,2.6
		c0.5,0.8,1.1,1.2,1.8,1.3c0.3,0,0.5-0.6,0.7-1.7c0.2,0.2,0.5,0.4,0.7,0.5c-0.3,1.7-0.8,2.3-1.4,2.3c-1.1-0.1-1.9-0.7-2.6-1.7
		c-0.8,0.6-1.8,1.2-2.8,1.6c-0.1-0.2-0.4-0.5-0.6-0.7c1.1-0.4,2.2-1,3-1.7c-0.4-0.8-0.7-1.9-0.9-3h-2.7v0.4c0,0.1,0,0.2,0,0.3
		c0.8,0.6,1.7,1.4,2.2,2l-0.7,0.7c-0.4-0.4-1-1-1.7-1.6c-0.3,1.3-0.9,2.7-2.4,3.8c-0.1-0.2-0.5-0.5-0.7-0.7c1.9-1.4,2.3-3.2,2.3-4.5
		V467h-1.2v-0.9h4.7c-0.4-2.3-0.6-5.1-0.7-8.1h0.9c0.1,3.1,0.3,5.9,0.7,8.1h2.4c-0.4-0.4-1-0.8-1.5-1.1l0.5-0.5
		c0.6,0.3,1.3,0.8,1.7,1.2l-0.4,0.4h1.3v0.9h-3.9c0.2,0.9,0.4,1.7,0.7,2.4c0.6-0.6,1.1-1.3,1.5-2.1L78.7,467.5z M73.1,465.2
		c0-0.2-0.1-0.4-0.2-0.7c-2.4,0.4-2.7,0.4-2.9,0.5c0-0.2-0.1-0.6-0.2-0.8c0.2,0,0.5-0.3,0.8-0.7c0.2-0.2,0.6-0.8,1.1-1.5
		c-1.3,0.2-1.6,0.3-1.8,0.4c0-0.2-0.2-0.6-0.3-0.8c0.2,0,0.4-0.2,0.6-0.6c0.2-0.3,1-1.6,1.4-2.8l0.8,0.3c-0.5,1.1-1.1,2.1-1.6,2.9
		l1.3-0.1c0.2-0.4,0.4-0.7,0.6-1.1l0.8,0.3c-0.7,1.3-1.6,2.6-2.4,3.6l1.7-0.2c-0.1-0.4-0.3-0.7-0.4-1.1l0.7-0.2
		c0.4,0.8,0.7,1.8,0.8,2.4L73.1,465.2z M78.9,464.9c0-0.2-0.1-0.4-0.2-0.7c-2.4,0.4-2.8,0.4-3,0.6c0-0.2-0.2-0.6-0.3-0.9
		c0.2,0,0.5-0.3,0.8-0.7c0.2-0.2,0.6-0.8,1-1.5c-1.2,0.2-1.5,0.3-1.7,0.4c0-0.2-0.2-0.6-0.3-0.8c0.2,0,0.4-0.2,0.6-0.5
		c0.2-0.3,0.8-1.4,1.2-2.5l0.8,0.3c-0.4,1-0.9,1.9-1.4,2.6l1.2-0.1c0.2-0.4,0.4-0.8,0.6-1.1l0.8,0.3c-0.7,1.3-1.5,2.6-2.4,3.6
		l1.7-0.2c-0.1-0.4-0.3-0.7-0.4-1l0.7-0.2c0.4,0.8,0.8,1.8,0.9,2.4L78.9,464.9z"/>
	<path d="M95.7,469h-6.6v3.5H88V469h-6.6v-1H88v-1.4h1.1v1.4h6.6V469z M85.7,464.9c-1.2,0.7-2.5,1.4-3.6,1.9l-0.6-0.8
		c1-0.4,2.5-1.1,3.9-1.8L85.7,464.9z M91.2,466.9c-0.1-0.2-0.3-0.5-0.4-0.8c-4.3,0.4-4.8,0.5-5.1,0.6c0-0.2-0.2-0.7-0.3-0.9
		c0.4,0,0.8-0.4,1.3-0.8c0.3-0.3,1.1-0.9,1.9-1.7c-2,0.2-2.3,0.2-2.5,0.3c-0.1-0.2-0.2-0.7-0.3-0.9c0.2,0,0.4-0.2,0.7-0.5
		c0.2-0.2,0.8-0.9,1.3-1.7h-5.9v-1h6.6c-0.2-0.4-0.5-0.9-0.8-1.3l1-0.3c0.4,0.5,0.8,1.1,1,1.6h6v1h-6.8c-0.5,0.7-1.1,1.5-1.6,2
		l2.2-0.1c0.4-0.4,0.8-0.9,1.1-1.3l0.9,0.5c-1.3,1.5-2.7,3-4.1,4.1l3.1-0.3c-0.3-0.4-0.6-0.8-0.8-1.1l0.8-0.3
		c0.7,0.8,1.6,1.9,1.9,2.6L91.2,466.9z M84.4,463.5c-0.5-0.5-1.6-1.3-2.4-1.9l0.7-0.6c0.9,0.5,1.9,1.3,2.5,1.8L84.4,463.5z
		 M94.5,467c-0.7-0.6-2-1.6-3.1-2.3l0.8-0.6c1.1,0.6,2.5,1.6,3.2,2.2L94.5,467z M94.7,461.5c-0.7,0.7-1.7,1.5-2.4,2l-0.8-0.5
		c0.7-0.5,1.7-1.4,2.3-2L94.7,461.5z"/>
</g>
<g class="st0">
	<path d="M132.2,469.5c0.5,0.6,1.2,0.9,2,0.9c1.5,0,2.9-1.3,3-5.1c-0.7,0.9-1.7,1.5-2.8,1.5c-2,0-3.2-1.3-3.2-3.7
		c0-2.2,1.5-3.8,3.3-3.8c2.3,0,3.9,1.9,3.9,5.5c0,4.8-2,6.6-4.2,6.6c-1.2,0-2.1-0.5-2.8-1.2L132.2,469.5z M137.2,464.2
		c-0.1-2.4-1.1-3.8-2.6-3.8c-1.2,0-2,1.1-2,2.8c0,1.6,0.7,2.7,2.2,2.7C135.5,465.8,136.4,465.3,137.2,464.2z"/>
	<path d="M140.1,465.3c0-4.1,1.4-6,3.6-6c2.2,0,3.6,2,3.6,6c0,4.1-1.4,6.1-3.6,6.1C141.5,471.5,140.1,469.4,140.1,465.3z M146,465.3
		c0-3.4-0.9-5-2.3-5c-1.4,0-2.3,1.5-2.3,5c0,3.5,0.9,5.1,2.3,5.1C145.1,470.4,146,468.8,146,465.3z"/>
	<path d="M148.8,463c0-2.4,1-3.7,2.6-3.7s2.6,1.3,2.6,3.7c0,2.4-1,3.7-2.6,3.7S148.8,465.4,148.8,463z M153,463
		c0-1.9-0.7-2.8-1.6-2.8c-1,0-1.6,1-1.6,2.8s0.7,2.9,1.6,2.9C152.3,465.9,153,464.9,153,463z M158.2,459.3h0.9l-6.5,12.1h-0.9
		L158.2,459.3z M156.9,467.7c0-2.3,1-3.7,2.6-3.7c1.6,0,2.6,1.3,2.6,3.7c0,2.4-1.1,3.7-2.6,3.7C157.9,471.5,156.9,470.1,156.9,467.7
		z M161.1,467.7c0-1.9-0.7-2.8-1.6-2.8c-1,0-1.6,0.9-1.6,2.8c0,1.9,0.6,2.9,1.6,2.9C160.4,470.6,161.1,469.6,161.1,467.7z"/>
</g>
<g class="st0">
	<path d="M195.8,468.3c0-1.6,1.1-2.7,2.2-3.3V465c-0.8-0.6-1.6-1.5-1.6-2.7c0-1.8,1.4-3,3.2-3c2,0,3.2,1.3,3.2,3.1
		c0,1.2-0.9,2.3-1.6,2.8v0.1c1,0.6,2,1.5,2,3.1c0,1.7-1.5,3-3.6,3C197.3,471.5,195.8,470.1,195.8,468.3z M201.8,468.4
		c0-1.6-1.5-2.2-3.2-2.9c-1,0.6-1.7,1.6-1.7,2.8c0,1.3,1.1,2.2,2.5,2.2C200.9,470.5,201.8,469.6,201.8,468.4z M201.6,462.5
		c0-1.2-0.8-2.2-2.1-2.2c-1.1,0-1.9,0.8-1.9,2c0,1.5,1.3,2.1,2.7,2.6C201.1,464.2,201.6,463.4,201.6,462.5z"/>
	<path d="M204.6,465.3c0-4.1,1.4-6,3.6-6c2.2,0,3.6,2,3.6,6c0,4.1-1.4,6.1-3.6,6.1C206,471.5,204.6,469.4,204.6,465.3z M210.5,465.3
		c0-3.4-0.9-5-2.3-5c-1.4,0-2.3,1.5-2.3,5c0,3.5,0.9,5.1,2.3,5.1C209.6,470.4,210.5,468.8,210.5,465.3z"/>
	<path d="M213.2,463c0-2.4,1-3.7,2.6-3.7s2.6,1.3,2.6,3.7c0,2.4-1,3.7-2.6,3.7S213.2,465.4,213.2,463z M217.5,463
		c0-1.9-0.7-2.8-1.6-2.8c-1,0-1.6,1-1.6,2.8s0.7,2.9,1.6,2.9C216.8,465.9,217.5,464.9,217.5,463z M222.7,459.3h0.9l-6.5,12.1h-0.9
		L222.7,459.3z M221.3,467.7c0-2.3,1-3.7,2.6-3.7c1.6,0,2.6,1.3,2.6,3.7c0,2.4-1.1,3.7-2.6,3.7C222.4,471.5,221.3,470.1,221.3,467.7
		z M225.6,467.7c0-1.9-0.7-2.8-1.6-2.8c-1,0-1.6,0.9-1.6,2.8c0,1.9,0.6,2.9,1.6,2.9C224.9,470.6,225.6,469.6,225.6,467.7z"/>
</g>
<g class="st0">
	<path d="M266.7,461.3c-0.5-0.6-1.2-0.9-1.9-0.9c-1.6,0-3,1.3-3.1,5c0.7-0.9,1.8-1.4,2.7-1.4c2,0,3.2,1.2,3.2,3.7
		c0,2.2-1.5,3.8-3.3,3.8c-2.3,0-3.9-2-3.9-5.8c0-4.6,2-6.4,4.3-6.4c1.2,0,2,0.5,2.7,1.2L266.7,461.3z M266.4,467.7
		c0-1.6-0.7-2.7-2.2-2.7c-0.8,0-1.7,0.4-2.5,1.6c0.2,2.5,1.1,3.9,2.6,3.9C265.5,470.4,266.4,469.3,266.4,467.7z"/>
	<path d="M269.1,465.3c0-4.1,1.4-6,3.6-6c2.2,0,3.6,2,3.6,6c0,4.1-1.4,6.1-3.6,6.1C270.5,471.5,269.1,469.4,269.1,465.3z M275,465.3
		c0-3.4-0.9-5-2.3-5c-1.4,0-2.3,1.5-2.3,5c0,3.5,0.9,5.1,2.3,5.1C274.1,470.4,275,468.8,275,465.3z"/>
	<path d="M277.7,463c0-2.4,1-3.7,2.6-3.7s2.6,1.3,2.6,3.7c0,2.4-1,3.7-2.6,3.7S277.7,465.4,277.7,463z M282,463
		c0-1.9-0.7-2.8-1.6-2.8c-1,0-1.6,1-1.6,2.8s0.7,2.9,1.6,2.9C281.3,465.9,282,464.9,282,463z M287.2,459.3h0.9l-6.5,12.1h-0.9
		L287.2,459.3z M285.8,467.7c0-2.3,1-3.7,2.6-3.7c1.6,0,2.6,1.3,2.6,3.7c0,2.4-1.1,3.7-2.6,3.7C286.9,471.5,285.8,470.1,285.8,467.7
		z M290.1,467.7c0-1.9-0.7-2.8-1.6-2.8c-1,0-1.6,0.9-1.6,2.8c0,1.9,0.6,2.9,1.6,2.9C289.4,470.6,290.1,469.6,290.1,467.7z"/>
</g>
<g class="st0">
	<path d="M331.1,461.3c-0.5-0.6-1.2-0.9-1.9-0.9c-1.6,0-3,1.3-3.1,5c0.7-0.9,1.8-1.4,2.7-1.4c2,0,3.2,1.2,3.2,3.7
		c0,2.2-1.5,3.8-3.3,3.8c-2.3,0-3.9-2-3.9-5.8c0-4.6,2-6.4,4.3-6.4c1.2,0,2,0.5,2.7,1.2L331.1,461.3z M330.8,467.7
		c0-1.6-0.7-2.7-2.2-2.7c-0.8,0-1.7,0.4-2.5,1.6c0.2,2.5,1.1,3.9,2.6,3.9C330,470.4,330.8,469.3,330.8,467.7z"/>
	<path d="M333.6,465.3c0-4.1,1.4-6,3.6-6c2.2,0,3.6,2,3.6,6c0,4.1-1.4,6.1-3.6,6.1C335,471.5,333.6,469.4,333.6,465.3z M339.5,465.3
		c0-3.4-0.9-5-2.3-5c-1.4,0-2.3,1.5-2.3,5c0,3.5,0.9,5.1,2.3,5.1C338.6,470.4,339.5,468.8,339.5,465.3z"/>
	<path d="M342.2,463c0-2.4,1-3.7,2.6-3.7s2.6,1.3,2.6,3.7c0,2.4-1,3.7-2.6,3.7S342.2,465.4,342.2,463z M346.5,463
		c0-1.9-0.7-2.8-1.6-2.8c-1,0-1.6,1-1.6,2.8s0.7,2.9,1.6,2.9C345.8,465.9,346.5,464.9,346.5,463z M351.7,459.3h0.9l-6.5,12.1h-0.9
		L351.7,459.3z M350.3,467.7c0-2.3,1-3.7,2.6-3.7c1.6,0,2.6,1.3,2.6,3.7c0,2.4-1.1,3.7-2.6,3.7C351.3,471.5,350.3,470.1,350.3,467.7
		z M354.6,467.7c0-1.9-0.7-2.8-1.6-2.8c-1,0-1.6,0.9-1.6,2.8c0,1.9,0.6,2.9,1.6,2.9C353.9,470.6,354.6,469.6,354.6,467.7z"/>
</g>
<g class="st0">
	<path d="M395.6,461.3c-0.5-0.6-1.2-0.9-1.9-0.9c-1.6,0-3,1.3-3.1,5c0.7-0.9,1.8-1.4,2.7-1.4c2,0,3.2,1.2,3.2,3.7
		c0,2.2-1.5,3.8-3.3,3.8c-2.3,0-3.9-2-3.9-5.8c0-4.6,2-6.4,4.3-6.4c1.2,0,2,0.5,2.7,1.2L395.6,461.3z M395.3,467.7
		c0-1.6-0.7-2.7-2.2-2.7c-0.8,0-1.7,0.4-2.5,1.6c0.2,2.5,1.1,3.9,2.6,3.9C394.5,470.4,395.3,469.3,395.3,467.7z"/>
	<path d="M398.1,465.3c0-4.1,1.4-6,3.6-6c2.2,0,3.6,2,3.6,6c0,4.1-1.4,6.1-3.6,6.1C399.5,471.5,398.1,469.4,398.1,465.3z M404,465.3
		c0-3.4-0.9-5-2.3-5c-1.4,0-2.3,1.5-2.3,5c0,3.5,0.9,5.1,2.3,5.1C403.1,470.4,404,468.8,404,465.3z"/>
	<path d="M406.7,463c0-2.4,1-3.7,2.6-3.7s2.6,1.3,2.6,3.7c0,2.4-1,3.7-2.6,3.7S406.7,465.4,406.7,463z M410.9,463
		c0-1.9-0.7-2.8-1.6-2.8c-1,0-1.6,1-1.6,2.8s0.7,2.9,1.6,2.9C410.3,465.9,410.9,464.9,410.9,463z M416.1,459.3h0.9l-6.5,12.1h-0.9
		L416.1,459.3z M414.8,467.7c0-2.3,1-3.7,2.6-3.7c1.6,0,2.6,1.3,2.6,3.7c0,2.4-1.1,3.7-2.6,3.7C415.8,471.5,414.8,470.1,414.8,467.7
		z M419,467.7c0-1.9-0.7-2.8-1.6-2.8c-1,0-1.6,0.9-1.6,2.8c0,1.9,0.6,2.9,1.6,2.9C418.4,470.6,419,469.6,419,467.7z"/>
</g>
<g class="st0">
	<path d="M460.1,461.3c-0.5-0.6-1.2-0.9-1.9-0.9c-1.6,0-3,1.3-3.1,5c0.7-0.9,1.8-1.4,2.7-1.4c2,0,3.2,1.2,3.2,3.7
		c0,2.2-1.5,3.8-3.3,3.8c-2.3,0-3.9-2-3.9-5.8c0-4.6,2-6.4,4.3-6.4c1.2,0,2,0.5,2.7,1.2L460.1,461.3z M459.8,467.7
		c0-1.6-0.7-2.7-2.2-2.7c-0.8,0-1.7,0.4-2.5,1.6c0.2,2.5,1.1,3.9,2.6,3.9C458.9,470.4,459.8,469.3,459.8,467.7z"/>
	<path d="M462.6,465.3c0-4.1,1.4-6,3.6-6c2.2,0,3.6,2,3.6,6c0,4.1-1.4,6.1-3.6,6.1C464,471.5,462.6,469.4,462.6,465.3z M468.5,465.3
		c0-3.4-0.9-5-2.3-5c-1.4,0-2.3,1.5-2.3,5c0,3.5,0.9,5.1,2.3,5.1C467.5,470.4,468.5,468.8,468.5,465.3z"/>
	<path d="M471.2,463c0-2.4,1-3.7,2.6-3.7s2.6,1.3,2.6,3.7c0,2.4-1,3.7-2.6,3.7S471.2,465.4,471.2,463z M475.4,463
		c0-1.9-0.7-2.8-1.6-2.8c-1,0-1.6,1-1.6,2.8s0.7,2.9,1.6,2.9C474.8,465.9,475.4,464.9,475.4,463z M480.6,459.3h0.9l-6.5,12.1h-0.9
		L480.6,459.3z M479.3,467.7c0-2.3,1-3.7,2.6-3.7c1.6,0,2.6,1.3,2.6,3.7c0,2.4-1.1,3.7-2.6,3.7C480.3,471.5,479.3,470.1,479.3,467.7
		z M483.5,467.7c0-1.9-0.7-2.8-1.6-2.8c-1,0-1.6,0.9-1.6,2.8c0,1.9,0.6,2.9,1.6,2.9C482.9,470.6,483.5,469.6,483.5,467.7z"/>
</g>
<g class="st0">
	<path d="M524,460.6h-5.7v-1.1h7.3v0.8c-2.8,3.6-3.3,6.4-3.5,10.9h-1.4C520.9,466.7,521.7,463.8,524,460.6z"/>
	<path d="M527.1,465.3c0-4.1,1.4-6,3.6-6c2.2,0,3.6,2,3.6,6c0,4.1-1.4,6.1-3.6,6.1C528.4,471.5,527.1,469.4,527.1,465.3z M533,465.3
		c0-3.4-0.9-5-2.3-5c-1.4,0-2.3,1.5-2.3,5c0,3.5,0.9,5.1,2.3,5.1C532,470.4,533,468.8,533,465.3z"/>
	<path d="M535.7,463c0-2.4,1-3.7,2.6-3.7s2.6,1.3,2.6,3.7c0,2.4-1,3.7-2.6,3.7S535.7,465.4,535.7,463z M539.9,463
		c0-1.9-0.7-2.8-1.6-2.8c-1,0-1.6,1-1.6,2.8s0.7,2.9,1.6,2.9C539.3,465.9,539.9,464.9,539.9,463z M545.1,459.3h0.9l-6.5,12.1h-0.9
		L545.1,459.3z M543.8,467.7c0-2.3,1-3.7,2.6-3.7c1.6,0,2.6,1.3,2.6,3.7c0,2.4-1.1,3.7-2.6,3.7C544.8,471.5,543.8,470.1,543.8,467.7
		z M548,467.7c0-1.9-0.7-2.8-1.6-2.8c-1,0-1.6,0.9-1.6,2.8c0,1.9,0.6,2.9,1.6,2.9C547.4,470.6,548,469.6,548,467.7z"/>
</g>
<g class="st0">
	<path d="M590.2,468h-1.6v3.3h-1.2V468h-5.1v-0.8l5-7.6h1.4v7.4h1.6V468z M587.4,466.9v-3.8c0-0.6,0-1.5,0.1-2.1h-0.1
		c-0.3,0.6-0.6,1.1-0.9,1.7l-2.8,4.2H587.4z"/>
	<path d="M591.5,465.3c0-4.1,1.4-6,3.6-6c2.2,0,3.6,2,3.6,6c0,4.1-1.4,6.1-3.6,6.1C592.9,471.5,591.5,469.4,591.5,465.3z
		 M597.4,465.3c0-3.4-0.9-5-2.3-5c-1.4,0-2.3,1.5-2.3,5c0,3.5,0.9,5.1,2.3,5.1C596.5,470.4,597.4,468.8,597.4,465.3z"/>
	<path d="M600.2,463c0-2.4,1-3.7,2.6-3.7s2.6,1.3,2.6,3.7c0,2.4-1,3.7-2.6,3.7S600.2,465.4,600.2,463z M604.4,463
		c0-1.9-0.7-2.8-1.6-2.8c-1,0-1.6,1-1.6,2.8s0.7,2.9,1.6,2.9C603.7,465.9,604.4,464.9,604.4,463z M609.6,459.3h0.9l-6.5,12.1h-0.9
		L609.6,459.3z M608.3,467.7c0-2.3,1-3.7,2.6-3.7c1.6,0,2.6,1.3,2.6,3.7c0,2.4-1.1,3.7-2.6,3.7C609.3,471.5,608.3,470.1,608.3,467.7
		z M612.5,467.7c0-1.9-0.7-2.8-1.6-2.8c-1,0-1.6,0.9-1.6,2.8c0,1.9,0.6,2.9,1.6,2.9C611.8,470.6,612.5,469.6,612.5,467.7z"/>
</g>
<g class="st0">
	<path d="M646.9,469.9l0.7-0.9c0.7,0.7,1.5,1.3,2.9,1.3c1.4,0,2.6-1.1,2.6-2.9c0-1.7-1-2.8-2.5-2.8c-0.8,0-1.3,0.3-2,0.7l-0.7-0.4
		l0.4-5.4h5.6v1.1h-4.4l-0.3,3.6c0.5-0.3,1.1-0.5,1.8-0.5c1.9,0,3.5,1.2,3.5,3.7c0,2.5-1.8,4-3.8,4
		C648.8,471.5,647.7,470.7,646.9,469.9z"/>
	<path d="M656,465.3c0-4.1,1.4-6,3.6-6c2.2,0,3.6,2,3.6,6c0,4.1-1.4,6.1-3.6,6.1C657.4,471.5,656,469.4,656,465.3z M661.9,465.3
		c0-3.4-0.9-5-2.3-5c-1.4,0-2.3,1.5-2.3,5c0,3.5,0.9,5.1,2.3,5.1C661,470.4,661.9,468.8,661.9,465.3z"/>
	<path d="M664.7,463c0-2.4,1-3.7,2.6-3.7s2.6,1.3,2.6,3.7c0,2.4-1,3.7-2.6,3.7S664.7,465.4,664.7,463z M668.9,463
		c0-1.9-0.7-2.8-1.6-2.8c-1,0-1.6,1-1.6,2.8s0.7,2.9,1.6,2.9C668.2,465.9,668.9,464.9,668.9,463z M674.1,459.3h0.9l-6.5,12.1h-0.9
		L674.1,459.3z M672.7,467.7c0-2.3,1-3.7,2.6-3.7c1.6,0,2.6,1.3,2.6,3.7c0,2.4-1.1,3.7-2.6,3.7C673.8,471.5,672.7,470.1,672.7,467.7
		z M677,467.7c0-1.9-0.7-2.8-1.6-2.8c-1,0-1.6,0.9-1.6,2.8c0,1.9,0.6,2.9,1.6,2.9C676.3,470.6,677,469.6,677,467.7z"/>
</g>
<g class="st0">
	<path d="M711.4,469.9l0.7-0.9c0.7,0.7,1.5,1.3,2.9,1.3c1.4,0,2.6-1.1,2.6-2.9c0-1.7-1-2.8-2.5-2.8c-0.8,0-1.3,0.3-2,0.7l-0.7-0.4
		l0.4-5.4h5.6v1.1h-4.4l-0.3,3.6c0.5-0.3,1.1-0.5,1.8-0.5c1.9,0,3.5,1.2,3.5,3.7c0,2.5-1.8,4-3.8,4
		C713.2,471.5,712.2,470.7,711.4,469.9z"/>
	<path d="M720.5,465.3c0-4.1,1.4-6,3.6-6c2.2,0,3.6,2,3.6,6c0,4.1-1.4,6.1-3.6,6.1C721.9,471.5,720.5,469.4,720.5,465.3z
		 M726.4,465.3c0-3.4-0.9-5-2.3-5c-1.4,0-2.3,1.5-2.3,5c0,3.5,0.9,5.1,2.3,5.1C725.5,470.4,726.4,468.8,726.4,465.3z"/>
	<path d="M729.1,463c0-2.4,1-3.7,2.6-3.7s2.6,1.3,2.6,3.7c0,2.4-1,3.7-2.6,3.7S729.1,465.4,729.1,463z M733.4,463
		c0-1.9-0.7-2.8-1.6-2.8c-1,0-1.6,1-1.6,2.8s0.7,2.9,1.6,2.9C732.7,465.9,733.4,464.9,733.4,463z M738.6,459.3h0.9l-6.5,12.1h-0.9
		L738.6,459.3z M737.2,467.7c0-2.3,1-3.7,2.6-3.7c1.6,0,2.6,1.3,2.6,3.7c0,2.4-1.1,3.7-2.6,3.7C738.3,471.5,737.2,470.1,737.2,467.7
		z M741.5,467.7c0-1.9-0.7-2.8-1.6-2.8c-1,0-1.6,0.9-1.6,2.8c0,1.9,0.6,2.9,1.6,2.9C740.8,470.6,741.5,469.6,741.5,467.7z"/>
</g>
<g class="st0">
	<path d="M777.1,469.5c0.5,0.6,1.2,0.9,2,0.9c1.5,0,2.9-1.3,3-5.1c-0.7,0.9-1.7,1.5-2.8,1.5c-2,0-3.2-1.3-3.2-3.7
		c0-2.2,1.5-3.8,3.3-3.8c2.3,0,3.9,1.9,3.9,5.5c0,4.8-2,6.6-4.2,6.6c-1.2,0-2.1-0.5-2.8-1.2L777.1,469.5z M782.1,464.2
		c-0.1-2.4-1.1-3.8-2.6-3.8c-1.2,0-2,1.1-2,2.8c0,1.6,0.7,2.7,2.2,2.7C780.3,465.8,781.3,465.3,782.1,464.2z"/>
	<path d="M785,465.3c0-4.1,1.4-6,3.6-6c2.2,0,3.6,2,3.6,6c0,4.1-1.4,6.1-3.6,6.1C786.4,471.5,785,469.4,785,465.3z M790.9,465.3
		c0-3.4-0.9-5-2.3-5c-1.4,0-2.3,1.5-2.3,5c0,3.5,0.9,5.1,2.3,5.1C790,470.4,790.9,468.8,790.9,465.3z"/>
	<path d="M793.6,463c0-2.4,1-3.7,2.6-3.7s2.6,1.3,2.6,3.7c0,2.4-1,3.7-2.6,3.7S793.6,465.4,793.6,463z M797.9,463
		c0-1.9-0.7-2.8-1.6-2.8c-1,0-1.6,1-1.6,2.8s0.7,2.9,1.6,2.9C797.2,465.9,797.9,464.9,797.9,463z M803.1,459.3h0.9l-6.5,12.1h-0.9
		L803.1,459.3z M801.7,467.7c0-2.3,1-3.7,2.6-3.7c1.6,0,2.6,1.3,2.6,3.7c0,2.4-1.1,3.7-2.6,3.7C802.7,471.5,801.7,470.1,801.7,467.7
		z M806,467.7c0-1.9-0.7-2.8-1.6-2.8c-1,0-1.6,0.9-1.6,2.8c0,1.9,0.6,2.9,1.6,2.9C805.3,470.6,806,469.6,806,467.7z"/>
</g>
<g class="st0">
	<path d="M847,461.3c-0.5-0.6-1.2-0.9-1.9-0.9c-1.6,0-3,1.3-3.1,5c0.7-0.9,1.8-1.4,2.7-1.4c2,0,3.2,1.2,3.2,3.7
		c0,2.2-1.5,3.8-3.3,3.8c-2.3,0-3.9-2-3.9-5.8c0-4.6,2-6.4,4.3-6.4c1.2,0,2,0.5,2.7,1.2L847,461.3z M846.7,467.7
		c0-1.6-0.7-2.7-2.2-2.7c-0.8,0-1.7,0.4-2.5,1.6c0.2,2.5,1.1,3.9,2.6,3.9C845.9,470.4,846.7,469.3,846.7,467.7z"/>
	<path d="M849.5,465.3c0-4.1,1.4-6,3.6-6c2.2,0,3.6,2,3.6,6c0,4.1-1.4,6.1-3.6,6.1C850.9,471.5,849.5,469.4,849.5,465.3z
		 M855.4,465.3c0-3.4-0.9-5-2.3-5c-1.4,0-2.3,1.5-2.3,5c0,3.5,0.9,5.1,2.3,5.1C854.5,470.4,855.4,468.8,855.4,465.3z"/>
	<path d="M858.1,463c0-2.4,1-3.7,2.6-3.7s2.6,1.3,2.6,3.7c0,2.4-1,3.7-2.6,3.7S858.1,465.4,858.1,463z M862.4,463
		c0-1.9-0.7-2.8-1.6-2.8c-1,0-1.6,1-1.6,2.8s0.7,2.9,1.6,2.9C861.7,465.9,862.4,464.9,862.4,463z M867.6,459.3h0.9l-6.5,12.1h-0.9
		L867.6,459.3z M866.2,467.7c0-2.3,1-3.7,2.6-3.7c1.6,0,2.6,1.3,2.6,3.7c0,2.4-1.1,3.7-2.6,3.7C867.2,471.5,866.2,470.1,866.2,467.7
		z M870.5,467.7c0-1.9-0.7-2.8-1.6-2.8c-1,0-1.6,0.9-1.6,2.8c0,1.9,0.6,2.9,1.6,2.9C869.8,470.6,870.5,469.6,870.5,467.7z"/>
</g>
<path class="st3" d="M21.3,470.4L21.3,470.4c-3.3,0-5.9-2.6-5.9-5.9l0,0c0-3.3,2.6-5.9,5.9-5.9h0c3.3,0,5.9,2.6,5.9,5.9l0,0
	C27.2,467.8,24.5,470.4,21.3,470.4z"/>
<line class="st4" x1="0" y1="486.3" x2="888.7" y2="486.3"/>
<line class="st4" x1="113.6" y1="265.2" x2="888.7" y2="265.2"/>
<line class="st4" x1="178.2" y1="361.6" x2="178.2" y2="486.3"/>
<line class="st4" x1="242.8" y1="361.6" x2="242.8" y2="486.3"/>
<line class="st4" x1="307.4" y1="361.6" x2="307.4" y2="486.3"/>
<line class="st4" x1="372" y1="361.6" x2="372" y2="486.3"/>
<line class="st4" x1="436.6" y1="361.6" x2="436.6" y2="486.3"/>
<line class="st4" x1="501.2" y1="361.6" x2="501.2" y2="486.3"/>
<line class="st4" x1="565.8" y1="361.6" x2="565.8" y2="486.3"/>
<line class="st4" x1="630.4" y1="361.6" x2="630.4" y2="486.3"/>
<line class="st4" x1="694.9" y1="361.6" x2="694.9" y2="486.3"/>
<line class="st4" x1="759.5" y1="361.6" x2="759.5" y2="486.3"/>
<line class="st4" x1="824.1" y1="361.6" x2="824.1" y2="486.3"/>
<line class="st4" x1="0.5" y1="403.2" x2="0.5" y2="486.3"/>
<text transform="matrix(1 0 0 1 280.6104 672.4927)" style="font-family:'SourceHanSansTW-Medium-B5pc-H'; font-size:18px;">NBI生技指數過去十年每月平均漲跌幅及上漲機率</text>
<rect x="134.8" y="739" class="st1" width="23.6" height="182.7"/>
<rect x="199.3" y="833.1" class="st1" width="23.6" height="88.6"/>
<rect x="263.8" y="850.8" class="st1" width="23.6" height="71"/>
<rect x="328.3" y="884.6" class="st1" width="23.6" height="37.1"/>
<rect x="392.8" y="897" class="st1" width="23.6" height="24.8"/>
<rect x="457.3" y="850.8" class="st1" width="23.6" height="71"/>
<rect x="521.7" y="739.2" class="st1" width="23.6" height="182.5"/>
<rect x="586.2" y="921.7" class="st1" width="23.6" height="34.9"/>
<rect x="650.7" y="887.8" class="st1" width="23.6" height="33.9"/>
<rect x="715.2" y="921.7" class="st1" width="23.6" height="41.6"/>
<rect x="779.7" y="709.2" class="st1" width="23.6" height="212.6"/>
<rect x="844.2" y="914.3" class="st1" width="23.6" height="7.5"/>
<text transform="matrix(1 0 0 1 32.5292 1086.1619)" style="font-family:'SourceHanSansTW-Normal-B5pc-H'; font-size:16px;">漲跌幅(%)</text>
<text transform="matrix(1 0 0 1 134.2551 1044.7278)" style="font-family:'SourceHanSansTW-Normal-B5pc-H'; font-size:16px;">1月</text>
<text transform="matrix(1 0 0 1 198.7414 1044.7278)" style="font-family:'SourceHanSansTW-Normal-B5pc-H'; font-size:16px;">2月</text>
<text transform="matrix(1 0 0 1 263.2276 1044.7278)" style="font-family:'SourceHanSansTW-Normal-B5pc-H'; font-size:16px;">3月</text>
<text transform="matrix(1 0 0 1 327.7138 1044.7278)" style="font-family:'SourceHanSansTW-Normal-B5pc-H'; font-size:16px;">4月</text>
<text transform="matrix(1 0 0 1 392.2 1044.7278)" style="font-family:'SourceHanSansTW-Normal-B5pc-H'; font-size:16px;">5月</text>
<text transform="matrix(1 0 0 1 456.6863 1044.7278)" style="font-family:'SourceHanSansTW-Normal-B5pc-H'; font-size:16px;">6月</text>
<text transform="matrix(1 0 0 1 521.1725 1044.7278)" style="font-family:'SourceHanSansTW-Normal-B5pc-H'; font-size:16px;">7月</text>
<text transform="matrix(1 0 0 1 585.6587 1044.7278)" style="font-family:'SourceHanSansTW-Normal-B5pc-H'; font-size:16px;">8月</text>
<text transform="matrix(1 0 0 1 650.145 1044.7278)" style="font-family:'SourceHanSansTW-Normal-B5pc-H'; font-size:16px;">9月</text>
<text transform="matrix(1 0 0 1 710.2391 1044.7278)" style="font-family:'SourceHanSansTW-Normal-B5pc-H'; font-size:16px;">10月</text>
<text transform="matrix(1 0 0 1 774.7253 1044.7278)" style="font-family:'SourceHanSansTW-Normal-B5pc-H'; font-size:16px;">11月</text>
<text transform="matrix(1 0 0 1 839.2115 1044.7278)" style="font-family:'SourceHanSansTW-Normal-B5pc-H'; font-size:16px;">12月</text>
<text transform="matrix(1 0 0 1 131.3113 1086.1616)" style="font-family:'SourceHanSansTW-Normal-B5pc-H'; font-size:16px;">3.48</text>
<text transform="matrix(1 0 0 1 195.7975 1086.1616)" style="font-family:'SourceHanSansTW-Normal-B5pc-H'; font-size:16px;">1.88</text>
<text transform="matrix(1 0 0 1 260.2838 1086.1616)" style="font-family:'SourceHanSansTW-Normal-B5pc-H'; font-size:16px;">1.49</text>
<text transform="matrix(1 0 0 1 324.77 1086.1616)" style="font-family:'SourceHanSansTW-Normal-B5pc-H'; font-size:16px;">0.80</text>
<text transform="matrix(1 0 0 1 389.2562 1086.1616)" style="font-family:'SourceHanSansTW-Normal-B5pc-H'; font-size:16px;">0.54</text>
<text transform="matrix(1 0 0 1 453.7424 1086.1616)" style="font-family:'SourceHanSansTW-Normal-B5pc-H'; font-size:16px;">1.51</text>
<text transform="matrix(1 0 0 1 518.2286 1086.1616)" style="font-family:'SourceHanSansTW-Normal-B5pc-H'; font-size:16px;">3.85</text>
<text transform="matrix(1 0 0 1 579.9712 1086.1616)" style="font-family:'SourceHanSansTW-Normal-B5pc-H'; font-size:16px;">-0.71</text>
<text transform="matrix(1 0 0 1 647.2011 1086.1616)" style="font-family:'SourceHanSansTW-Normal-B5pc-H'; font-size:16px;">0.72</text>
<text transform="matrix(1 0 0 1 708.9437 1086.1616)" style="font-family:'SourceHanSansTW-Normal-B5pc-H'; font-size:16px;">-0.86</text>
<text transform="matrix(1 0 0 1 776.1736 1086.1616)" style="font-family:'SourceHanSansTW-Normal-B5pc-H'; font-size:16px;">4.48</text>
<text transform="matrix(1 0 0 1 840.6598 1086.1616)" style="font-family:'SourceHanSansTW-Normal-B5pc-H'; font-size:16px;">0.17</text>
<text transform="matrix(1 0 0 1 67.818 689.1031)" style="font-family:'SourceHanSansTW-Normal-B5pc-H'; font-size:16px;">5.0</text>
<text transform="matrix(1 0 0 1 67.818 736.9011)" style="font-family:'SourceHanSansTW-Normal-B5pc-H'; font-size:16px;">4.0</text>
<text transform="matrix(1 0 0 1 67.818 784.6995)" style="font-family:'SourceHanSansTW-Normal-B5pc-H'; font-size:16px;">3.0</text>
<text transform="matrix(1 0 0 1 67.818 832.4979)" style="font-family:'SourceHanSansTW-Normal-B5pc-H'; font-size:16px;">2.0</text>
<text transform="matrix(1 0 0 1 67.818 880.2961)" style="font-family:'SourceHanSansTW-Normal-B5pc-H'; font-size:16px;">1.0</text>
<text transform="matrix(1 0 0 1 67.818 928.094)" style="font-family:'SourceHanSansTW-Normal-B5pc-H'; font-size:16px;">0.0</text>
<text transform="matrix(1 0 0 1 62.3302 975.8924)" class="st2" style="font-family:'SourceHanSansTW-Normal-B5pc-H'; font-size:16px;">-1.0</text>
<text transform="matrix(1 0 0 1 62.3302 1023.6909)" class="st2" style="font-family:'SourceHanSansTW-Normal-B5pc-H'; font-size:16px;">-2.0</text>
<text transform="matrix(1 0 0 1 909.7645 689.1031)" style="font-family:'SourceHanSansTW-Normal-B5pc-H'; font-size:16px;">100%</text>
<text transform="matrix(1 0 0 1 909.7645 755.456)" style="font-family:'SourceHanSansTW-Normal-B5pc-H'; font-size:16px;">80%</text>
<text transform="matrix(1 0 0 1 909.7645 821.809)" style="font-family:'SourceHanSansTW-Normal-B5pc-H'; font-size:16px;">60%</text>
<text transform="matrix(1 0 0 1 909.7645 888.1619)" style="font-family:'SourceHanSansTW-Normal-B5pc-H'; font-size:16px;">40%</text>
<text transform="matrix(1 0 0 1 909.7645 954.5148)" style="font-family:'SourceHanSansTW-Normal-B5pc-H'; font-size:16px;">20%</text>
<text transform="matrix(1 0 0 1 909.7645 1020.8678)" style="font-family:'SourceHanSansTW-Normal-B5pc-H'; font-size:16px;">0%</text>
<rect x="15.4" y="1073.5" class="st1" width="11.8" height="11.8"/>
<circle class="st3" cx="146.6" cy="717" r="5.9"/>
<circle class="st3" cx="211.1" cy="750.4" r="5.9"/>
<circle class="st3" cx="275.6" cy="817.5" r="5.9"/>
<circle class="st3" cx="340.1" cy="817.5" r="5.9"/>
<circle class="st3" cx="404.6" cy="817.5" r="5.9"/>
<circle class="st3" cx="469.1" cy="817.5" r="5.9"/>
<circle class="st3" cx="533.6" cy="784.3" r="5.9"/>
<circle class="st3" cx="598.1" cy="884.6" r="5.9"/>
<circle class="st3" cx="662.5" cy="850.8" r="5.9"/>
<circle class="st3" cx="727" cy="851" r="5.9"/>
<circle class="st3" cx="791.5" cy="716.3" r="5.9"/>
<circle class="st3" cx="856" cy="816.9" r="5.9"/>
<line class="st4" x1="113.6" y1="683.5" x2="113.6" y2="1142.8"/>
<line class="st4" x1="888.7" y1="683.5" x2="888.7" y2="1142.8"/>
<line class="st4" x1="888.7" y1="683.5" x2="897.9" y2="683.5"/>
<line class="st4" x1="888.7" y1="750.4" x2="897.9" y2="750.4"/>
<line class="st4" x1="888.7" y1="817.3" x2="897.9" y2="817.3"/>
<line class="st4" x1="888.7" y1="884.2" x2="897.9" y2="884.2"/>
<line class="st4" x1="888.7" y1="951.2" x2="897.9" y2="951.2"/>
<line class="st4" x1="113.6" y1="1018.1" x2="897.9" y2="1018.1"/>
<line class="st4" x1="0" y1="1059.7" x2="888.7" y2="1059.7"/>
<line class="st4" x1="0" y1="1101.2" x2="888.7" y2="1101.2"/>
<text transform="matrix(1 0 0 1 32.5292 1127.7355)" style="font-family:'SourceHanSansTW-Normal-B5pc-H'; font-size:16px;">上漲機率</text>
<text transform="matrix(1 0 0 1 130.5515 1127.7351)" style="font-family:'SourceHanSansTW-Normal-B5pc-H'; font-size:16px;">90%</text>
<text transform="matrix(1 0 0 1 195.0378 1127.7351)" style="font-family:'SourceHanSansTW-Normal-B5pc-H'; font-size:16px;">80%</text>
<text transform="matrix(1 0 0 1 259.524 1127.7351)" style="font-family:'SourceHanSansTW-Normal-B5pc-H'; font-size:16px;">60%</text>
<text transform="matrix(1 0 0 1 324.0102 1127.7351)" style="font-family:'SourceHanSansTW-Normal-B5pc-H'; font-size:16px;">60%</text>
<text transform="matrix(1 0 0 1 388.4964 1127.7351)" style="font-family:'SourceHanSansTW-Normal-B5pc-H'; font-size:16px;">60%</text>
<text transform="matrix(1 0 0 1 452.9827 1127.7351)" style="font-family:'SourceHanSansTW-Normal-B5pc-H'; font-size:16px;">60%</text>
<text transform="matrix(1 0 0 1 517.4689 1127.7351)" style="font-family:'SourceHanSansTW-Normal-B5pc-H'; font-size:16px;">70%</text>
<text transform="matrix(1 0 0 1 581.9551 1127.7351)" style="font-family:'SourceHanSansTW-Normal-B5pc-H'; font-size:16px;">40%</text>
<text transform="matrix(1 0 0 1 646.4413 1127.7351)" style="font-family:'SourceHanSansTW-Normal-B5pc-H'; font-size:16px;">50%</text>
<text transform="matrix(1 0 0 1 710.9276 1127.7351)" style="font-family:'SourceHanSansTW-Normal-B5pc-H'; font-size:16px;">50%</text>
<text transform="matrix(1 0 0 1 775.4138 1127.7351)" style="font-family:'SourceHanSansTW-Normal-B5pc-H'; font-size:16px;">90%</text>
<text transform="matrix(1 0 0 1 839.9 1127.7351)" style="font-family:'SourceHanSansTW-Normal-B5pc-H'; font-size:16px;">60%</text>
<path class="st3" d="M21.3,1126.9L21.3,1126.9c-3.3,0-5.9-2.6-5.9-5.9l0,0c0-3.3,2.6-5.9,5.9-5.9h0c3.3,0,5.9,2.6,5.9,5.9l0,0
	C27.2,1124.3,24.5,1126.9,21.3,1126.9z"/>
<line class="st4" x1="0" y1="1142.8" x2="888.7" y2="1142.8"/>
<line class="st4" x1="113.6" y1="921.7" x2="888.7" y2="921.7"/>
<line class="st4" x1="178.2" y1="1018.1" x2="178.2" y2="1142.8"/>
<line class="st4" x1="242.8" y1="1018.1" x2="242.8" y2="1142.8"/>
<line class="st4" x1="307.4" y1="1018.1" x2="307.4" y2="1142.8"/>
<line class="st4" x1="372" y1="1018.1" x2="372" y2="1142.8"/>
<line class="st4" x1="436.6" y1="1018.1" x2="436.6" y2="1142.8"/>
<line class="st4" x1="501.2" y1="1018.1" x2="501.2" y2="1142.8"/>
<line class="st4" x1="565.8" y1="1018.1" x2="565.8" y2="1142.8"/>
<line class="st4" x1="630.4" y1="1018.1" x2="630.4" y2="1142.8"/>
<line class="st4" x1="694.9" y1="1018.1" x2="694.9" y2="1142.8"/>
<line class="st4" x1="759.5" y1="1018.1" x2="759.5" y2="1142.8"/>
<line class="st4" x1="824.1" y1="1018.1" x2="824.1" y2="1142.8"/>
<line class="st4" x1="0.5" y1="1059.7" x2="0.5" y2="1142.8"/>
</svg>
