<?xml version="1.0" encoding="utf-8"?>
<!-- Generator: Adobe Illustrator 24.0.1, SVG Export Plug-In . SVG Version: 6.00 Build 0)  -->
<svg version="1.1" id="圖層_1" xmlns="http://www.w3.org/2000/svg" xmlns:xlink="http://www.w3.org/1999/xlink" x="0px" y="0px"
	 viewBox="0 0 952 568.4" style="enable-background:new 0 0 952 568.4;" xml:space="preserve">
<style type="text/css">
	.st0{fill:#3C3B6E;}
	.st1{fill:none;stroke:#000000;stroke-miterlimit:10;}
</style>
<text transform="matrix(1 0 0 1 227.7915 878.5332)" style="font-family:'SourceHanSansTW-Medium-B5pc-H'; font-size:35.7469px;">每年獲FDA核准上市的藥物數量</text>
<text transform="matrix(1 0 0 1 33.4631 1191.9137)" style="font-family:'SourceHanSansTW-Normal-B5pc-H'; font-size:30.1256px;">21</text>
<text transform="matrix(1 0 0 1 16.9238 1409.502)" style="font-family:'SourceHanSansTW-Normal-B5pc-H'; font-size:30.1256px;">2010</text>
<text transform="matrix(1 0 0 1 111.5744 1409.502)" style="font-family:'SourceHanSansTW-Normal-B5pc-H'; font-size:30.1256px;">2011</text>
<text transform="matrix(1 0 0 1 206.2253 1409.502)" style="font-family:'SourceHanSansTW-Normal-B5pc-H'; font-size:30.1256px;">2012</text>
<text transform="matrix(1 0 0 1 300.8761 1409.502)" style="font-family:'SourceHanSansTW-Normal-B5pc-H'; font-size:30.1256px;">2013</text>
<text transform="matrix(1 0 0 1 395.5265 1409.502)" style="font-family:'SourceHanSansTW-Normal-B5pc-H'; font-size:30.1256px;">2014</text>
<text transform="matrix(1 0 0 1 490.1778 1409.502)" style="font-family:'SourceHanSansTW-Normal-B5pc-H'; font-size:30.1256px;">2015</text>
<text transform="matrix(1 0 0 1 584.8281 1409.502)" style="font-family:'SourceHanSansTW-Normal-B5pc-H'; font-size:30.1256px;">2016</text>
<text transform="matrix(1 0 0 1 679.4785 1409.502)" style="font-family:'SourceHanSansTW-Normal-B5pc-H'; font-size:30.1256px;">2017</text>
<text transform="matrix(1 0 0 1 774.1298 1409.502)" style="font-family:'SourceHanSansTW-Normal-B5pc-H'; font-size:30.1256px;">2018</text>
<text transform="matrix(1 0 0 1 868.7806 1409.502)" style="font-family:'SourceHanSansTW-Normal-B5pc-H'; font-size:30.1256px;">2019</text>
<text transform="matrix(1 0 0 1 128.1137 1129.9727)" style="font-family:'SourceHanSansTW-Normal-B5pc-H'; font-size:30.1256px;">30</text>
<text transform="matrix(1 0 0 1 222.764 1059.0313)" style="font-family:'SourceHanSansTW-Normal-B5pc-H'; font-size:30.1256px;">39</text>
<text transform="matrix(1 0 0 1 317.4151 1151.1488)" style="font-family:'SourceHanSansTW-Normal-B5pc-H'; font-size:30.1256px;">27</text>
<text transform="matrix(1 0 0 1 412.0658 1045.2668)" style="font-family:'SourceHanSansTW-Normal-B5pc-H'; font-size:30.1256px;">41</text>
<text transform="matrix(1 0 0 1 506.7165 1013.5018)" style="font-family:'SourceHanSansTW-Normal-B5pc-H'; font-size:30.1256px;">45</text>
<text transform="matrix(1 0 0 1 601.3672 1187.1492)" style="font-family:'SourceHanSansTW-Normal-B5pc-H'; font-size:30.1256px;">22</text>
<text transform="matrix(1 0 0 1 696.0175 1007.1491)" style="font-family:'SourceHanSansTW-Normal-B5pc-H'; font-size:30.1256px;">46</text>
<text transform="matrix(1 0 0 1 790.6686 911.855)" style="font-family:'SourceHanSansTW-Normal-B5pc-H'; font-size:30.1256px;">59</text>
<text transform="matrix(1 0 0 1 885.3193 992.3254)" style="font-family:'SourceHanSansTW-Normal-B5pc-H'; font-size:30.1256px;">48</text>
<rect x="29" y="1217.9" class="st0" width="42" height="152.5"/>
<rect x="123.7" y="1145.9" class="st0" width="42" height="224.5"/>
<rect x="218.3" y="1081.3" class="st0" width="42" height="289.1"/>
<rect x="313" y="1170.6" class="st0" width="42" height="199.7"/>
<rect x="407.6" y="1065.4" class="st0" width="42" height="304.9"/>
<rect x="502.3" y="1035.7" class="st0" width="42" height="334.6"/>
<rect x="596.9" y="1208.3" class="st0" width="42" height="162"/>
<rect x="691.6" y="1028.3" class="st0" width="42" height="342"/>
<rect x="786.2" y="932" class="st0" width="42" height="438.4"/>
<rect x="880.9" y="1013.5" class="st0" width="42" height="356.8"/>
<line class="st1" x1="-0.8" y1="1370.3" x2="952" y2="1370.3"/>
<g>
	<path d="M237.9,7.6c-1.7,2.7-3.6,5.2-5.5,7.1c-0.6-0.6-2.1-1.5-3-2c3.3-2.8,6.3-7.3,8.2-11.8l3.3,1c-0.4,0.9-0.8,1.8-1.3,2.6H261v3
		H237.9z M257.1,21.5c-0.1,1.9-0.2,3.5-0.4,4.9h4.1v2.9h-4.5c-0.3,1.6-0.6,2.6-1,3.2c-0.7,1-1.5,1.3-2.7,1.5c-1.1,0.1-2.9,0.1-4.6,0
		c0-0.8-0.4-1.9-0.8-2.6c1.7,0.1,3.2,0.2,3.9,0.2c0.6,0,0.9-0.1,1.3-0.5c0.2-0.3,0.4-0.8,0.6-1.6h-19.8c0.5-2.1,0.9-4.9,1.3-7.8h-5
		v-3h5.4c0.4-2.7,0.7-5.4,0.9-7.7h21.5c0,0,0,1.1,0,1.5c-0.1,2.3-0.1,4.4-0.2,6.2h5v3H257.1z M237.9,21.4c-0.3,1.8-0.5,3.5-0.7,5
		h9.6c-1.4-1.2-3.6-2.6-5.5-3.6l1.5-1.4H237.9z M238.9,13.7c-0.2,1.6-0.4,3.3-0.6,4.9h9.2c-1.4-1.2-3.5-2.5-5.4-3.4l1.6-1.5H238.9z
		 M253.4,26.4c0.1-1.3,0.3-3,0.4-5h-9.9c2.1,1,4.4,2.5,5.6,3.7l-1.3,1.3H253.4z M253.9,18.6c0-1.5,0.1-3.1,0.1-4.9h-9.5
		c2,1,4.3,2.3,5.5,3.5l-1.4,1.4H253.9z"/>
	<path d="M297.7,26.1h-12.5V34h-3.4v-7.9h-16.3v-3.2h5.8v-9.4h10.5V8.5h-8.2c-1.5,2.6-3.3,5-5.1,6.8c-0.6-0.6-2.1-1.6-2.9-2.1
		c3.3-2.8,6.1-7.4,7.8-12.1l3.4,0.9c-0.4,1.1-0.9,2.3-1.4,3.4H296v3.2h-10.8v4.9h10v3.1h-10v6.3h12.5V26.1z M281.8,22.9v-6.3h-7.2
		v6.3H281.8z"/>
	<path d="M314,14.3c-0.5,0.5-0.9,1-1.4,1.4c-0.4-0.5-1.3-1.4-1.9-1.9c0.4,2.1,0.5,4.3,0.5,6.6c0,5-0.4,9.5-1.9,11.6
		c-0.4,0.7-1.1,1.1-2,1.3c-1.2,0.3-2.7,0.3-4.3,0.2c0-1-0.4-2.3-1-3.2c1.8,0.1,3.1,0.1,3.9,0c0.5-0.1,0.8-0.3,1.1-0.6
		c0.8-1.1,1.1-4.9,1.1-9.3v-0.9c-1.6,2.4-3.6,4.7-5.5,6.2c-0.4-0.9-1.2-2.1-1.8-2.8c2.6-1.7,5.4-5,6.9-8.2c-0.3-1.4-0.5-2.7-1.1-4
		c-1.4,1.5-2.9,2.9-4.3,3.9c-0.4-0.8-1.1-2.3-1.9-3c1.5-0.9,3.1-2.3,4.6-3.8c-0.9-1.3-2-2.7-3.5-3.9l2.2-1.8
		c1.3,1.1,2.4,2.3,3.3,3.5c0.9-1.2,1.7-2.4,2.4-3.5l2.4,1.6c-0.9,1.4-1.9,3-3.1,4.5c0.9,1.8,1.4,3.5,1.8,5.4c1.8-1.5,3.7-3.8,4.9-6
		l2.3,0.8v-2h-5.6V3.7h5.6V1.2h2.9v6.9l2-1.1c1,1,2.1,2.3,2.8,3.2h6.6v2H325v1.4h6.4v1.8H325V17h6.4v1.8H325v1.6h7.8v2.1h-15.8v0.9
		H314V14.3z M332.3,25.1c-1.5,2-3.8,3.7-6.3,5c2.5,0.6,5.4,1,8.2,1.3c-0.7,0.7-1.5,1.9-1.9,2.6c-3.6-0.4-7-1.2-10.2-2.3
		c-3.2,1.1-6.7,1.8-10.3,2.3c-0.3-0.7-1-2-1.5-2.6c2.7-0.3,5.5-0.7,8-1.3c-1.8-0.9-3.3-2-4.5-3.2l1.2-0.5h-2.3v-2.5h17.2l0.5-0.1
		L332.3,25.1z M322,12.2h-5.1v1.4h5.1V12.2z M322,15.5h-5.1V17h5.1V15.5z M322,18.8h-5.1v1.6h5.1V18.8z M317.9,8.2l0.4,0.1
		c-0.4,0.6-0.7,1.3-1.1,1.9h4.9c-0.5-0.7-1.1-1.4-1.6-2l0.1-0.1H317.9z M317.2,26.4c1.3,1,3,1.8,4.9,2.5c1.9-0.7,3.6-1.6,4.9-2.5
		H317.2z M327.4,8.2h-3.1v-7h3.1v2.4h6.3v2.5h-6.3V8.2z"/>
	<path d="M338.7,4.9h15.6v3.5h-11.4v8h9.7v3.5h-9.7v11.3h-4.1V4.9z"/>
	<path d="M358.9,4.9h6.8c8.1,0,12.7,4.5,12.7,13c0,8.5-4.6,13.3-12.5,13.3h-7V4.9z M365.5,27.8c5.6,0,8.7-3.3,8.7-9.9
		c0-6.6-3-9.7-8.7-9.7h-2.4v19.6H365.5z"/>
	<path d="M395.7,23.7h-9.2l-2.3,7.5h-4.2l8.7-26.3h4.8l8.7,26.3h-4.4L395.7,23.7z M394.7,20.4l-1-3.5c-0.9-2.9-1.7-5.8-2.5-8.8H391
		c-0.8,3-1.6,5.9-2.4,8.8l-1.1,3.5H394.7z"/>
	<path d="M414.2,20.9c-0.4-1-1.3-2.8-2.1-4.5V34h-3.2V18.7c-1,3.3-2.4,6.4-3.8,8.4c-0.4-0.9-1.1-2.4-1.7-3.3
		c2.2-2.8,4.3-8.2,5.3-12.8h-4.4V8h4.5V1.2h3.2V8h3.8V11h-3.8v1.3c0.9,1.3,3.5,5.3,4.1,6.3L414.2,20.9z M436,19.1
		c-1.4,2.5-3.3,4.8-5.5,6.8c2.3,1.8,4.9,4,6.3,5.5l-2.6,2.2c-1.3-1.5-3.8-3.8-6-5.8c-3.3,2.6-7.3,4.6-11.7,6.1
		c-0.4-0.8-1.3-2.1-1.9-2.8c8.3-2.5,15-7.5,18-13.3L436,19.1z M433.3,12.5c-3.1,5.6-8.7,10.7-15.1,13.7c-0.4-0.8-1.3-1.9-1.8-2.6
		c3.4-1.5,6.6-3.6,9.2-6.1c-5.9,0.5-7,0.6-7.7,0.9c-0.1-0.8-0.6-2.3-0.9-3c0.8-0.2,1.9-0.4,2.5-1.1c0.6-0.6,2.3-3.4,3.5-5.4h-6.5v-3
		h8.9c-0.3-1.2-0.9-2.6-1.5-3.8l3.1-1c0.9,1.5,1.8,3.5,2,4.8h7.4v3h-9.9c-1.1,1.9-2.6,4.2-3.8,6l5.5-0.3c0.8-1,1.5-2.1,2-3.1
		L433.3,12.5z"/>
	<path d="M444.3,12.4c-0.9-2.2-2.9-5.7-4.6-8.3l3-1.4c1.7,2.5,3.9,5.9,4.8,8.1L444.3,12.4z M439.7,30.9c1.6-2.9,3.7-7.7,5.3-12
		l3.1,1.6c-1.5,4-3.3,8.5-4.9,11.9L439.7,30.9z M472.1,31.6h-18.2v2.5h-3V14.3c-1,1.4-2,2.7-3.1,3.8c-0.5-0.6-1.6-1.9-2.4-2.4
		c3.6-3.3,6.6-8.7,8.3-14.2l3.1,0.8c-0.6,1.8-1.3,3.5-2,5.2h7.3c-0.6-1.4-1.6-3.3-2.5-4.8l2.8-1.3c1.1,1.6,2.3,3.6,2.9,5l-2,1h8.3
		v2.9h-7.3v4.1h6.6v2.9h-6.6v4.1h6.6v2.9h-6.6v4.3h7.9V31.6z M461,10.4h-7v4.1h7V10.4z M461,17.4h-7v4.1h7V17.4z M453.9,28.6h7v-4.3
		h-7V28.6z"/>
	<path d="M507.7,28.9v3.4h-32v-3.4h13V1.7h3.6v10.6h12.9v3.3h-12.9v13.3H507.7z"/>
	<path d="M529,9.5v4.4h11.5v12.3c0,1.8-0.4,2.8-1.7,3.3c-1.3,0.5-3.3,0.6-6.2,0.6c-0.1-0.9-0.7-2.4-1.2-3.3c2.1,0.1,4.3,0.1,4.9,0.1
		c0.6,0,0.8-0.2,0.8-0.7v-9h-8v16.7h-3.5V17.2H518v12.9h-3.4V13.9h10.9V9.5h-14.2V6.2h14.8c-0.6-1.4-1.4-3-2.1-4.4l3.3-1
		c1,1.6,2.2,3.9,2.7,5.3h13.4v3.3H529z"/>
	<path d="M578.5,6.7c0,0,0,1.1,0,1.6c-0.5,16.1-0.9,21.7-2.4,23.5c-0.9,1.2-1.8,1.5-3.1,1.7c-1.3,0.1-3.4,0.1-5.4,0
		c-0.1-0.9-0.5-2.3-1.1-3.2c2.3,0.2,4.4,0.2,5.3,0.2c0.7,0,1.1-0.1,1.5-0.6c1.1-1.2,1.6-6.6,2.1-20.1h-8.4c-1,2.3-2.1,4.4-3.3,6
		c-0.5-0.5-1.8-1.4-2.6-1.9v16.4h-9.7v2.7h-3V6.9h4c0.5-1.7,1-4.1,1.3-5.8l3.6,0.6c-0.6,1.8-1.3,3.7-1.9,5.2h5.7v6.8
		c2.4-3.1,4.3-7.8,5.3-12.5l3.2,0.8c-0.4,1.6-0.9,3.3-1.5,4.9H578.5z M551.4,9.8v6.8h6.7V9.8H551.4z M558,27.4v-7.9h-6.7v7.9H558z
		 M569.9,24.6c-1-2.2-3.3-5.7-5.2-8.3l2.6-1.5c1.9,2.5,4.3,5.9,5.4,8L569.9,24.6z"/>
	<path d="M595.9,27.5c-2.6,2.6-7.2,4.8-11.3,5.7c-0.4-0.8-1.3-1.9-2-2.5c4-0.7,8.5-2.3,10.8-4.2L595.9,27.5z M590.1,5.9h-6.8V3.1
		h6.8v-2h3.3v2h4.8v2.8h-4.8v2h-3.3V5.9z M600.5,25.9V34h-3.3v-8.2h-14v-2.6h14v-2h-3.8V9.7h3.4c0.4-1,0.7-2.1,0.9-3l3.2,0.6
		c-0.4,0.8-0.7,1.6-1.1,2.4h4.6v11.5h-3.9v2h14.1v2.6H600.5z M591.4,22.5c0-0.4-0.1-0.9-0.3-1.4c-5.2,0.7-6.1,0.8-6.6,1.1
		c-0.1-0.5-0.5-1.8-0.8-2.4c0.6-0.1,1.3-0.7,2-1.5c0.4-0.4,1.1-1.3,2-2.5c-2.6,0.3-3.3,0.5-3.7,0.6c-0.1-0.5-0.6-1.7-0.9-2.4
		c0.5-0.1,0.9-0.5,1.4-1.1c0.5-0.6,2-2.9,2.8-5.1l2.5,0.9c-0.9,1.8-2.1,3.6-3.2,5l2.7-0.2c0.5-0.8,1.1-1.7,1.5-2.6l2.4,1.1
		c-1.7,2.6-3.8,5.2-5.8,7.3l3.1-0.3c-0.3-0.7-0.5-1.4-0.9-2.1l1.9-0.5c0.9,1.6,1.6,3.9,1.8,5.4L591.4,22.5z M596.3,14.4h5.3v-2.3
		h-5.3V14.4z M596.3,18.9h5.3v-2.4h-5.3V18.9z M604.6,5.9h-5V3.1h5v-2h3.3v2h6.8v2.8h-6.8v2h-3.3V5.9z M604,26.2
		c3.5,1.2,8.4,3.3,10.9,4.6l-1.9,2.2c-2.4-1.4-7.2-3.5-10.8-4.9L604,26.2z M612.8,22.4c0-0.4-0.1-0.9-0.3-1.4
		c-5.4,0.7-6.3,0.8-6.8,1.1c-0.1-0.5-0.5-1.8-0.8-2.4c0.6-0.1,1.3-0.7,2-1.6c0.3-0.4,1.1-1.3,1.9-2.4c-2.5,0.3-3.1,0.5-3.5,0.6
		c-0.1-0.5-0.5-1.7-0.9-2.4c0.5-0.1,0.9-0.5,1.3-1.1c0.5-0.6,1.9-2.9,2.7-5.1l2.5,0.9c-0.9,1.8-2,3.6-3.1,5.1l2.6-0.2
		c0.6-0.9,1.2-1.9,1.7-2.8l2.4,1.1c-1.7,2.7-3.8,5.4-5.9,7.6l3.3-0.4c-0.2-0.7-0.5-1.4-0.8-2l2-0.6c0.8,1.6,1.6,3.9,1.8,5.4
		L612.8,22.4z"/>
	<path d="M631.9,19.9c-1.4,0.5-2.8,0.9-4.2,1.3V34h-3.1V22.1l-5.6,1.7l-0.9-3.2c1.8-0.5,4-1.1,6.5-1.8v-7.5h-2.9
		c-0.4,1.9-0.9,3.6-1.5,5c-0.5-0.4-1.8-1.1-2.4-1.5c1.3-2.9,1.9-7.4,2.3-11.7l2.8,0.5c-0.2,1.5-0.4,3.1-0.6,4.6h2.3V1.2h3.1v7.1h3.3
		v3.1h-3.3V18l3.8-1.1L631.9,19.9z M650.8,7c0,0,0,1.1,0,1.6c-0.8,16.1-1.5,21.7-2.9,23.5c-0.8,1.1-1.5,1.4-2.6,1.6
		c-1,0.2-2.5,0.1-4,0.1c0-1-0.4-2.3-0.9-3.3c1.5,0.1,2.8,0.1,3.5,0.1c0.6,0,0.9-0.1,1.3-0.6c1-1.2,1.8-6.3,2.4-19.8h-1
		c-1.8,9.2-5.6,18.6-11.4,23.3c-0.6-0.6-1.8-1.5-2.8-2c5.8-4.1,9.5-12.7,11.3-21.3h-2.4c-1.6,6-4.7,12.5-8.5,15.9
		c-0.6-0.6-1.7-1.4-2.6-1.9c3.7-2.9,6.6-8.5,8.3-14h-2.5c-1.1,2.6-2.4,4.8-3.9,6.6c-0.5-0.5-1.9-1.5-2.6-1.9
		c2.9-3.1,4.9-8.2,6.1-13.5l3,0.6c-0.4,1.8-0.9,3.5-1.5,5.2H650.8z"/>
	<path d="M669.4,33.4c-1.1-0.8-2.7-1.6-4.5-2.4c-2.3,1.1-5.5,2.1-10,2.9c-0.2-0.6-0.8-1.6-1.3-2.1c3.5-0.6,6.2-1.3,8.2-2
		c-1.8-0.7-3.5-1.3-5.2-1.8c0.6-0.6,1.1-1.4,1.7-2.2l-3.8,0.2l-0.3-2.4c1.6,0,3.5-0.1,5.6-0.2c0.5-0.9,1.1-1.7,1.5-2.6h-5.5v-6h6.5
		v-1.3h-5.6V9.6h-2.5V7.1h2.5V3.6h5.6V1.2h2.6v2.4h5.9v3.6h2.5v2.5h-2.5v3.8h-5.9v1.3h6.7v6h-7.3c-0.4,0.8-0.9,1.6-1.3,2.4l4.8-0.3
		v0v-1.5h2.6v1.4l1.5-0.1l0,2.2l-1.7,0.1c-0.3,1.5-1.1,3-2.9,4.4c1.6,0.8,3,1.5,4.1,2.1L669.4,33.4z M658.5,18.6h3.8v-1.8h-3.8V18.6
		z M659.5,5.7v1.6h2.8V5.7H659.5z M662.3,11.2V9.5h-2.8v1.8H662.3z M661.5,25.5c-0.3,0.5-0.6,0.9-0.9,1.3c1.3,0.4,2.8,1,4.1,1.5
		c1.6-1,2.4-2.1,2.8-3.1L661.5,25.5z M664.9,5.7v1.6h3V5.7H664.9z M667.9,11.2V9.5h-3v1.8H667.9z M664.9,16.8v1.8h3.8v-1.8H664.9z
		 M684.2,10.8c-0.6,5.3-1.5,9.8-3.1,13.5c1.5,3,3.4,5.4,5.9,6.9c-0.7,0.5-1.5,1.5-1.9,2.3c-2.2-1.6-4-3.6-5.4-6.3
		c-1.6,2.8-3.7,5-6.4,6.9c-0.3-0.6-1.1-1.9-1.7-2.5c3-1.9,5.1-4.4,6.6-7.5c-1-2.5-1.8-5.4-2.4-8.4c-0.5,1.3-1.1,2.4-1.7,3.4
		c-0.4-0.5-1.5-1.6-2.2-2.1c2.4-3.8,3.7-9.7,4.4-15.7l2.8,0.4c-0.3,2.1-0.6,4.1-1,6.1h8.6v2.9H684.2z M677.4,10.8
		c0.5,3.5,1.2,6.8,2.1,9.7c0.9-2.8,1.4-6.1,1.8-9.7H677.4z"/>
	<path d="M722.3,30.6v2.5h-32.2v-2.5h14.4v-1.7h-11.4v-2.3h11.4V25H694v-8.9h24.5V25h-10.8v1.6h11.5v2.3h-11.5v1.7H722.3z
		 M722.2,14.7h-31.9v-2.4h31.9V14.7z M717.6,11h-22.9V2.3h22.9V11z M697.2,19.6h7.3V18h-7.3V19.6z M704.5,23.1v-1.7h-7.3v1.7H704.5z
		 M714.2,4.1h-16.3v1.6h16.3V4.1z M714.2,7.5h-16.3v1.6h16.3V7.5z M715.3,18h-7.6v1.6h7.6V18z M715.3,21.5h-7.6v1.7h7.6V21.5z"/>
</g>
<g>
	<path d="M34.8,343.1c7-6.1,10.2-10.6,10.2-14.4c0-2.6-1.4-4.5-4.2-4.5c-1.8,0-3.4,1.1-4.7,2.6l-1.4-1.4c1.8-1.9,3.7-3.2,6.4-3.2
		c3.9,0,6.3,2.5,6.3,6.4c0,4.5-3.5,9-8.9,14.1c1.2-0.1,2.5-0.2,3.6-0.2h6.3v2.1H34.8V343.1z"/>
	<path d="M52.7,342.5h4.9v-16.9h-3.9V324c1.9-0.3,3.3-0.8,4.5-1.5h1.9v20h4.5v2H52.7V342.5z"/>
</g>
<g>
	<path d="M18.3,560.7c7-6.1,10.2-10.6,10.2-14.4c0-2.6-1.4-4.5-4.2-4.5c-1.8,0-3.4,1.1-4.7,2.6l-1.4-1.4c1.8-1.9,3.7-3.2,6.4-3.2
		c3.9,0,6.3,2.5,6.3,6.4c0,4.5-3.5,9-8.9,14.1c1.2-0.1,2.5-0.2,3.6-0.2h6.3v2.1H18.3V560.7z"/>
	<path d="M35,551c0-7.7,2.6-11.3,6.8-11.3c4.1,0,6.7,3.7,6.7,11.3c0,7.7-2.6,11.5-6.7,11.5C37.6,562.6,35,558.8,35,551z M46.1,551
		c0-6.4-1.7-9.3-4.3-9.3c-2.6,0-4.4,2.9-4.4,9.3c0,6.6,1.8,9.5,4.4,9.5C44.3,560.6,46.1,557.6,46.1,551z"/>
	<path d="M52.7,560.1h4.9v-16.9h-3.9v-1.6c1.9-0.3,3.3-0.8,4.5-1.5h1.9v20h4.5v2H52.7V560.1z"/>
	<path d="M68,551c0-7.7,2.6-11.3,6.8-11.3c4.1,0,6.7,3.7,6.7,11.3c0,7.7-2.6,11.5-6.7,11.5C70.7,562.6,68,558.8,68,551z M79.2,551
		c0-6.4-1.7-9.3-4.3-9.3c-2.6,0-4.4,2.9-4.4,9.3c0,6.6,1.8,9.5,4.4,9.5C77.4,560.6,79.2,557.6,79.2,551z"/>
</g>
<g>
	<path d="M112.9,560.7c7-6.1,10.2-10.6,10.2-14.4c0-2.6-1.4-4.5-4.2-4.5c-1.8,0-3.4,1.1-4.7,2.6l-1.4-1.4c1.8-1.9,3.7-3.2,6.4-3.2
		c3.9,0,6.3,2.5,6.3,6.4c0,4.5-3.5,9-8.9,14.1c1.2-0.1,2.5-0.2,3.6-0.2h6.3v2.1h-13.6V560.7z"/>
	<path d="M129.6,551c0-7.7,2.6-11.3,6.8-11.3c4.1,0,6.7,3.7,6.7,11.3c0,7.7-2.6,11.5-6.7,11.5C132.2,562.6,129.6,558.8,129.6,551z
		 M140.7,551c0-6.4-1.7-9.3-4.3-9.3c-2.6,0-4.4,2.9-4.4,9.3c0,6.6,1.8,9.5,4.4,9.5C139,560.6,140.7,557.6,140.7,551z"/>
	<path d="M147.3,560.1h4.9v-16.9h-3.9v-1.6c1.9-0.3,3.3-0.8,4.5-1.5h1.9v20h4.5v2h-11.9V560.1z"/>
	<path d="M163.9,560.1h4.9v-16.9h-3.9v-1.6c1.9-0.3,3.3-0.8,4.5-1.5h1.9v20h4.5v2h-11.9V560.1z"/>
</g>
<g>
	<path d="M207.6,560.7c7-6.1,10.2-10.6,10.2-14.4c0-2.6-1.4-4.5-4.2-4.5c-1.8,0-3.4,1.1-4.7,2.6l-1.4-1.4c1.8-1.9,3.7-3.2,6.4-3.2
		c3.9,0,6.3,2.5,6.3,6.4c0,4.5-3.5,9-8.9,14.1c1.2-0.1,2.5-0.2,3.6-0.2h6.3v2.1h-13.6V560.7z"/>
	<path d="M224.3,551c0-7.7,2.6-11.3,6.8-11.3c4.1,0,6.7,3.7,6.7,11.3c0,7.7-2.6,11.5-6.7,11.5C226.9,562.6,224.3,558.8,224.3,551z
		 M235.4,551c0-6.4-1.7-9.3-4.3-9.3c-2.6,0-4.4,2.9-4.4,9.3c0,6.6,1.8,9.5,4.4,9.5C233.6,560.6,235.4,557.6,235.4,551z"/>
	<path d="M242,560.1h4.9v-16.9H243v-1.6c1.9-0.3,3.3-0.8,4.5-1.5h1.9v20h4.5v2H242V560.1z"/>
	<path d="M257.2,560.7c7-6.1,10.2-10.6,10.2-14.4c0-2.6-1.4-4.5-4.2-4.5c-1.8,0-3.4,1.1-4.7,2.6l-1.4-1.4c1.8-1.9,3.7-3.2,6.4-3.2
		c3.9,0,6.3,2.5,6.3,6.4c0,4.5-3.5,9-8.9,14.1c1.2-0.1,2.5-0.2,3.6-0.2h6.3v2.1h-13.6V560.7z"/>
</g>
<g>
	<path d="M302.2,560.7c7-6.1,10.2-10.6,10.2-14.4c0-2.6-1.4-4.5-4.2-4.5c-1.8,0-3.4,1.1-4.7,2.6l-1.4-1.4c1.8-1.9,3.7-3.2,6.4-3.2
		c3.9,0,6.3,2.5,6.3,6.4c0,4.5-3.5,9-8.9,14.1c1.2-0.1,2.5-0.2,3.6-0.2h6.3v2.1h-13.6V560.7z"/>
	<path d="M318.9,551c0-7.7,2.6-11.3,6.8-11.3c4.1,0,6.7,3.7,6.7,11.3c0,7.7-2.6,11.5-6.7,11.5C321.5,562.6,318.9,558.8,318.9,551z
		 M330,551c0-6.4-1.7-9.3-4.3-9.3c-2.6,0-4.4,2.9-4.4,9.3c0,6.6,1.8,9.5,4.4,9.5C328.3,560.6,330,557.6,330,551z"/>
	<path d="M336.6,560.1h4.9v-16.9h-3.9v-1.6c1.9-0.3,3.3-0.8,4.5-1.5h1.9v20h4.5v2h-11.9V560.1z"/>
	<path d="M351.4,559.5l1.3-1.6c1.3,1.3,3,2.6,5.6,2.6c2.7,0,4.6-1.7,4.6-4.3c0-2.7-1.9-4.6-7-4.6v-1.9c4.6,0,6.2-1.9,6.2-4.4
		c0-2.2-1.5-3.6-3.9-3.7c-1.8,0-3.4,1-4.6,2.2l-1.4-1.6c1.6-1.5,3.6-2.6,6.1-2.6c3.6,0,6.3,2,6.3,5.5c0,2.7-1.6,4.5-3.9,5.4v0.1
		c2.6,0.6,4.7,2.6,4.7,5.6c0,3.9-3.1,6.3-6.9,6.3C355,562.6,352.8,561.1,351.4,559.5z"/>
</g>
<g>
	<path d="M396.9,560.7c7-6.1,10.2-10.6,10.2-14.4c0-2.6-1.4-4.5-4.2-4.5c-1.8,0-3.4,1.1-4.7,2.6l-1.4-1.4c1.8-1.9,3.7-3.2,6.4-3.2
		c3.9,0,6.3,2.5,6.3,6.4c0,4.5-3.5,9-8.9,14.1c1.2-0.1,2.5-0.2,3.6-0.2h6.3v2.1h-13.6V560.7z"/>
	<path d="M413.6,551c0-7.7,2.6-11.3,6.8-11.3c4.1,0,6.7,3.7,6.7,11.3c0,7.7-2.6,11.5-6.7,11.5C416.2,562.6,413.6,558.8,413.6,551z
		 M424.7,551c0-6.4-1.7-9.3-4.3-9.3c-2.6,0-4.4,2.9-4.4,9.3c0,6.6,1.8,9.5,4.4,9.5C422.9,560.6,424.7,557.6,424.7,551z"/>
	<path d="M431.3,560.1h4.9v-16.9h-3.9v-1.6c1.9-0.3,3.3-0.8,4.5-1.5h1.9v20h4.5v2h-11.9V560.1z"/>
	<path d="M460.7,556h-3v6.1h-2.3V556h-9.7v-1.6l9.4-14.3h2.6v13.9h3V556z M455.4,554.1v-7.2c0-1.1,0.1-2.8,0.2-3.9h-0.2
		c-0.5,1.1-1.1,2.1-1.7,3.2l-5.3,7.9H455.4z"/>
</g>
<g>
	<path d="M491.5,560.7c7-6.1,10.2-10.6,10.2-14.4c0-2.6-1.4-4.5-4.2-4.5c-1.8,0-3.4,1.1-4.7,2.6l-1.4-1.4c1.8-1.9,3.7-3.2,6.4-3.2
		c3.9,0,6.3,2.5,6.3,6.4c0,4.5-3.5,9-8.9,14.1c1.2-0.1,2.5-0.2,3.6-0.2h6.3v2.1h-13.6V560.7z"/>
	<path d="M508.2,551c0-7.7,2.6-11.3,6.8-11.3c4.1,0,6.7,3.7,6.7,11.3c0,7.7-2.6,11.5-6.7,11.5C510.8,562.6,508.2,558.8,508.2,551z
		 M519.3,551c0-6.4-1.7-9.3-4.3-9.3c-2.6,0-4.4,2.9-4.4,9.3c0,6.6,1.8,9.5,4.4,9.5C517.6,560.6,519.3,557.6,519.3,551z"/>
	<path d="M525.9,560.1h4.9v-16.9H527v-1.6c1.9-0.3,3.3-0.8,4.5-1.5h1.9v20h4.5v2h-11.9V560.1z"/>
	<path d="M540.6,559.6l1.2-1.6c1.3,1.3,2.9,2.5,5.5,2.5c2.7,0,4.8-2.1,4.8-5.4c0-3.3-1.9-5.2-4.7-5.2c-1.5,0-2.5,0.5-3.7,1.3
		l-1.4-0.8l0.7-10.2h10.5v2.1h-8.4l-0.6,6.7c1-0.6,2-0.9,3.4-0.9c3.6,0,6.6,2.2,6.6,7c0,4.8-3.5,7.5-7.1,7.5
		C544.2,562.6,542.1,561.1,540.6,559.6z"/>
</g>
<g>
	<path d="M586.2,560.7c7-6.1,10.2-10.6,10.2-14.4c0-2.6-1.4-4.5-4.2-4.5c-1.8,0-3.4,1.1-4.7,2.6l-1.4-1.4c1.8-1.9,3.7-3.2,6.4-3.2
		c3.9,0,6.3,2.5,6.3,6.4c0,4.5-3.5,9-8.9,14.1c1.2-0.1,2.5-0.2,3.6-0.2h6.3v2.1h-13.6V560.7z"/>
	<path d="M602.9,551c0-7.7,2.6-11.3,6.8-11.3c4.1,0,6.7,3.7,6.7,11.3c0,7.7-2.6,11.5-6.7,11.5C605.5,562.6,602.9,558.8,602.9,551z
		 M614,551c0-6.4-1.7-9.3-4.3-9.3c-2.6,0-4.4,2.9-4.4,9.3c0,6.6,1.8,9.5,4.4,9.5C612.2,560.6,614,557.6,614,551z"/>
	<path d="M620.6,560.1h4.9v-16.9h-3.9v-1.6c1.9-0.3,3.3-0.8,4.5-1.5h1.9v20h4.5v2h-11.9V560.1z"/>
	<path d="M647.9,543.5c-0.9-1.1-2.2-1.7-3.6-1.7c-3.1,0-5.7,2.4-5.8,9.4c1.4-1.7,3.3-2.7,5.1-2.7c3.7,0,6.1,2.3,6.1,6.9
		c0,4.2-2.9,7.1-6.2,7.1c-4.2,0-7.3-3.7-7.3-10.9c0-8.7,3.9-12,8.1-12c2.2,0,3.8,0.9,5,2.2L647.9,543.5z M647.3,555.4
		c0-3.1-1.3-5.1-4.1-5.1c-1.4,0-3.1,0.8-4.6,2.9c0.3,4.7,2,7.3,4.9,7.3C645.6,560.6,647.3,558.5,647.3,555.4z"/>
</g>
<g>
	<path d="M680.8,560.7c7-6.1,10.2-10.6,10.2-14.4c0-2.6-1.4-4.5-4.2-4.5c-1.8,0-3.4,1.1-4.7,2.6l-1.4-1.4c1.8-1.9,3.7-3.2,6.4-3.2
		c3.9,0,6.3,2.5,6.3,6.4c0,4.5-3.5,9-8.9,14.1c1.2-0.1,2.5-0.2,3.6-0.2h6.3v2.1h-13.6V560.7z"/>
	<path d="M697.5,551c0-7.7,2.6-11.3,6.8-11.3c4.1,0,6.7,3.7,6.7,11.3c0,7.7-2.6,11.5-6.7,11.5C700.1,562.6,697.5,558.8,697.5,551z
		 M708.6,551c0-6.4-1.7-9.3-4.3-9.3c-2.6,0-4.4,2.9-4.4,9.3c0,6.6,1.8,9.5,4.4,9.5C706.9,560.6,708.6,557.6,708.6,551z"/>
	<path d="M715.2,560.1h4.9v-16.9h-3.9v-1.6c1.9-0.3,3.3-0.8,4.5-1.5h1.9v20h4.5v2h-11.9V560.1z"/>
	<path d="M741.4,542.2h-10.8v-2.1h13.6v1.5c-5.2,6.7-6.2,12-6.5,20.6h-2.6C735.5,553.7,737,548.2,741.4,542.2z"/>
</g>
<g>
	<path d="M775.5,560.7c7-6.1,10.2-10.6,10.2-14.4c0-2.6-1.4-4.5-4.2-4.5c-1.8,0-3.4,1.1-4.7,2.6l-1.4-1.4c1.8-1.9,3.7-3.2,6.4-3.2
		c3.9,0,6.3,2.5,6.3,6.4c0,4.5-3.5,9-8.9,14.1c1.2-0.1,2.5-0.2,3.6-0.2h6.3v2.1h-13.6V560.7z"/>
	<path d="M792.2,551c0-7.7,2.6-11.3,6.8-11.3c4.1,0,6.7,3.7,6.7,11.3c0,7.7-2.6,11.5-6.7,11.5C794.8,562.6,792.2,558.8,792.2,551z
		 M803.3,551c0-6.4-1.7-9.3-4.3-9.3c-2.6,0-4.4,2.9-4.4,9.3c0,6.6,1.8,9.5,4.4,9.5C801.5,560.6,803.3,557.6,803.3,551z"/>
	<path d="M809.9,560.1h4.9v-16.9h-3.9v-1.6c1.9-0.3,3.3-0.8,4.5-1.5h1.9v20h4.5v2h-11.9V560.1z"/>
	<path d="M825.1,556.7c0-3,2.1-5,4.1-6.1v-0.1c-1.6-1.1-3-2.7-3-5.1c0-3.3,2.6-5.6,5.9-5.6c3.7,0,6,2.4,6,5.8c0,2.3-1.7,4.3-3,5.4
		v0.2c1.9,1.1,3.7,2.8,3.7,5.8c0,3.2-2.7,5.7-6.8,5.7C828.1,562.6,825.1,560.1,825.1,556.7z M836.5,556.8c0-3.1-2.8-4.2-6-5.5
		c-1.9,1.2-3.2,3-3.2,5.2c0,2.4,2,4.2,4.8,4.2C834.8,560.7,836.5,559.1,836.5,556.8z M836,545.7c0-2.2-1.4-4.1-3.9-4.1
		c-2.1,0-3.6,1.5-3.6,3.7c0,2.7,2.5,3.9,5.1,4.9C835.2,549,836,547.4,836,545.7z"/>
</g>
<g>
	<path d="M870.1,560.7c7-6.1,10.2-10.6,10.2-14.4c0-2.6-1.4-4.5-4.2-4.5c-1.8,0-3.4,1.1-4.7,2.6l-1.4-1.4c1.8-1.9,3.7-3.2,6.4-3.2
		c3.9,0,6.3,2.5,6.3,6.4c0,4.5-3.5,9-8.9,14.1c1.2-0.1,2.5-0.2,3.6-0.2h6.3v2.1h-13.6V560.7z"/>
	<path d="M886.8,551c0-7.7,2.6-11.3,6.8-11.3c4.1,0,6.7,3.7,6.7,11.3c0,7.7-2.6,11.5-6.7,11.5C889.4,562.6,886.8,558.8,886.8,551z
		 M897.9,551c0-6.4-1.7-9.3-4.3-9.3c-2.6,0-4.4,2.9-4.4,9.3c0,6.6,1.8,9.5,4.4,9.5C896.2,560.6,897.9,557.6,897.9,551z"/>
	<path d="M904.5,560.1h4.9v-16.9h-3.9v-1.6c1.9-0.3,3.3-0.8,4.5-1.5h1.9v20h4.5v2h-11.9V560.1z"/>
	<path d="M921.5,558.8c1,1.1,2.3,1.7,3.8,1.7c2.9,0,5.5-2.4,5.7-9.5c-1.4,1.7-3.3,2.8-5.2,2.8c-3.7,0-6-2.4-6-6.9
		c0-4.2,2.8-7.1,6.2-7.1c4.2,0,7.3,3.5,7.3,10.4c0,9-3.8,12.4-7.9,12.4c-2.3,0-4-0.9-5.2-2.2L921.5,558.8z M930.9,548.9
		c-0.2-4.6-2-7.2-5-7.2c-2.2,0-3.9,2.1-3.9,5.2c0,3,1.3,5.1,4.1,5.1C927.7,551.9,929.4,551,930.9,548.9z"/>
</g>
<g>
	<path d="M129,280l1.3-1.6c1.3,1.3,3,2.6,5.6,2.6c2.7,0,4.6-1.7,4.6-4.3c0-2.7-1.9-4.6-7-4.6v-1.9c4.6,0,6.2-1.9,6.2-4.4
		c0-2.2-1.5-3.6-3.9-3.7c-1.8,0-3.4,1-4.6,2.2l-1.4-1.6c1.6-1.5,3.6-2.6,6.1-2.6c3.6,0,6.3,2,6.3,5.5c0,2.7-1.6,4.5-3.9,5.4v0.1
		c2.6,0.6,4.7,2.6,4.7,5.6c0,3.9-3.1,6.3-6.9,6.3C132.6,283,130.4,281.5,129,280z"/>
	<path d="M146.2,271.5c0-7.7,2.6-11.3,6.8-11.3c4.1,0,6.7,3.7,6.7,11.3c0,7.7-2.6,11.5-6.7,11.5C148.8,283,146.2,279.2,146.2,271.5z
		 M157.3,271.5c0-6.4-1.7-9.3-4.3-9.3c-2.6,0-4.4,2.9-4.4,9.3c0,6.6,1.8,9.5,4.4,9.5C155.5,281,157.3,278.1,157.3,271.5z"/>
</g>
<g>
	<path d="M223.7,209.1l1.3-1.6c1.3,1.3,3,2.6,5.6,2.6c2.7,0,4.6-1.7,4.6-4.3c0-2.7-1.9-4.6-7-4.6v-1.9c4.6,0,6.2-1.9,6.2-4.4
		c0-2.2-1.5-3.6-3.9-3.7c-1.8,0-3.4,1-4.6,2.2l-1.4-1.6c1.6-1.5,3.6-2.6,6.1-2.6c3.6,0,6.3,2,6.3,5.5c0,2.7-1.6,4.5-3.9,5.4v0.1
		c2.6,0.6,4.7,2.6,4.7,5.6c0,3.9-3.1,6.3-6.9,6.3C227.2,212.1,225.1,210.6,223.7,209.1z"/>
	<path d="M242.4,208.3c1,1.1,2.3,1.7,3.8,1.7c2.9,0,5.5-2.4,5.7-9.5c-1.4,1.7-3.3,2.8-5.2,2.8c-3.7,0-6-2.4-6-6.9
		c0-4.2,2.8-7.1,6.2-7.1c4.2,0,7.3,3.5,7.3,10.4c0,9-3.8,12.4-7.9,12.4c-2.3,0-4-0.9-5.2-2.2L242.4,208.3z M251.8,198.4
		c-0.2-4.6-2-7.2-5-7.2c-2.2,0-3.9,2.1-3.9,5.2c0,3,1.3,5.1,4.1,5.1C248.6,201.5,250.3,200.6,251.8,198.4z"/>
</g>
<g>
	<path d="M318.8,302.3c7-6.1,10.2-10.6,10.2-14.4c0-2.6-1.4-4.5-4.2-4.5c-1.8,0-3.4,1.1-4.7,2.6l-1.4-1.4c1.8-1.9,3.7-3.2,6.4-3.2
		c3.9,0,6.3,2.5,6.3,6.4c0,4.5-3.5,9-8.9,14.1c1.2-0.1,2.5-0.2,3.6-0.2h6.3v2.1h-13.6V302.3z"/>
	<path d="M346.2,283.9h-10.8v-2.1h13.6v1.5c-5.2,6.7-6.2,12-6.5,20.6H340C340.3,295.3,341.9,289.9,346.2,283.9z"/>
</g>
<g>
	<path d="M427.6,191.8h-3v6.1h-2.3v-6.1h-9.7v-1.6l9.4-14.3h2.6v13.9h3V191.8z M422.3,189.8v-7.2c0-1.1,0.1-2.8,0.2-3.9h-0.2
		c-0.5,1.1-1.1,2.1-1.7,3.2l-5.3,7.9H422.3z"/>
	<path d="M431.3,195.9h4.9V179h-3.9v-1.6c1.9-0.3,3.3-0.8,4.5-1.5h1.9v20h4.5v2h-11.9V195.9z"/>
</g>
<g>
	<path d="M522.3,160h-3v6.1H517V160h-9.7v-1.6l9.4-14.3h2.6v13.9h3V160z M517,158.1v-7.2c0-1.1,0.1-2.8,0.2-3.9H517
		c-0.5,1.1-1.1,2.1-1.7,3.2l-5.3,7.9H517z"/>
	<path d="M524.1,163.6l1.2-1.6c1.3,1.3,2.9,2.5,5.5,2.5c2.7,0,4.8-2.1,4.8-5.4c0-3.3-1.9-5.2-4.7-5.2c-1.5,0-2.5,0.5-3.7,1.3
		l-1.4-0.8l0.7-10.2h10.5v2.1h-8.4l-0.6,6.7c1-0.6,2-0.9,3.4-0.9c3.6,0,6.6,2.2,6.6,7c0,4.8-3.5,7.5-7.1,7.5
		C527.6,166.6,525.6,165.1,524.1,163.6z"/>
</g>
<g>
	<path d="M602.7,338.3c7-6.1,10.2-10.6,10.2-14.4c0-2.6-1.4-4.5-4.2-4.5c-1.8,0-3.4,1.1-4.7,2.6l-1.4-1.4c1.8-1.9,3.7-3.2,6.4-3.2
		c3.9,0,6.3,2.5,6.3,6.4c0,4.5-3.5,9-8.9,14.1c1.2-0.1,2.5-0.2,3.6-0.2h6.3v2.1h-13.6V338.3z"/>
	<path d="M619.3,338.3c7-6.1,10.2-10.6,10.2-14.4c0-2.6-1.4-4.5-4.2-4.5c-1.8,0-3.4,1.1-4.7,2.6l-1.4-1.4c1.8-1.9,3.7-3.2,6.4-3.2
		c3.9,0,6.3,2.5,6.3,6.4c0,4.5-3.5,9-8.9,14.1c1.2-0.1,2.5-0.2,3.6-0.2h6.3v2.1h-13.6V338.3z"/>
</g>
<g>
	<path d="M711.6,153.7h-3v6.1h-2.3v-6.1h-9.7v-1.6l9.4-14.3h2.6v13.9h3V153.7z M706.3,151.7v-7.2c0-1.1,0.1-2.8,0.2-3.9h-0.2
		c-0.5,1.1-1.1,2.1-1.7,3.2l-5.3,7.9H706.3z"/>
	<path d="M726,141.1c-0.9-1.1-2.2-1.7-3.6-1.7c-3.1,0-5.7,2.4-5.8,9.4c1.4-1.7,3.3-2.7,5.1-2.7c3.7,0,6.1,2.3,6.1,6.9
		c0,4.2-2.9,7.1-6.2,7.1c-4.2,0-7.3-3.7-7.3-10.9c0-8.7,3.9-12,8.1-12c2.2,0,3.8,0.9,5,2.2L726,141.1z M725.4,153.1
		c0-3.1-1.3-5.1-4.1-5.1c-1.4,0-3.1,0.8-4.6,2.9c0.3,4.7,2,7.3,4.9,7.3C723.8,158.2,725.4,156.1,725.4,153.1z"/>
</g>
<g>
	<path d="M791.5,62l1.2-1.6c1.3,1.3,2.9,2.5,5.5,2.5c2.7,0,4.8-2.1,4.8-5.4c0-3.3-1.9-5.2-4.7-5.2c-1.5,0-2.5,0.5-3.7,1.3l-1.4-0.8
		l0.7-10.2h10.5v2.1h-8.4l-0.6,6.7c1-0.6,2-0.9,3.4-0.9c3.6,0,6.6,2.2,6.6,7c0,4.8-3.5,7.5-7.1,7.5C795,64.9,793,63.5,791.5,62z"/>
	<path d="M810.3,61.2c1,1.1,2.3,1.7,3.8,1.7c2.9,0,5.5-2.4,5.7-9.5c-1.4,1.7-3.3,2.8-5.2,2.8c-3.7,0-6-2.4-6-6.9
		c0-4.2,2.8-7.1,6.2-7.1c4.2,0,7.3,3.5,7.3,10.4c0,9-3.8,12.4-7.9,12.4c-2.3,0-4-0.9-5.2-2.2L810.3,61.2z M819.7,51.2
		c-0.2-4.6-2-7.2-5-7.2c-2.2,0-3.9,2.1-3.9,5.2c0,3,1.3,5.1,4.1,5.1C816.5,54.3,818.2,53.4,819.7,51.2z"/>
</g>
<g>
	<path d="M900.9,138.8h-3v6.1h-2.3v-6.1h-9.7v-1.6l9.4-14.3h2.6v13.9h3V138.8z M895.6,136.9v-7.2c0-1.1,0.1-2.8,0.2-3.9h-0.2
		c-0.5,1.1-1.1,2.1-1.7,3.2l-5.3,7.9H895.6z"/>
	<path d="M903.2,139.5c0-3,2.1-5,4.1-6.1v-0.1c-1.6-1.1-3-2.7-3-5.1c0-3.3,2.6-5.6,5.9-5.6c3.7,0,6,2.4,6,5.8c0,2.3-1.7,4.3-3,5.4
		v0.2c1.9,1.1,3.7,2.8,3.7,5.8c0,3.2-2.7,5.7-6.8,5.7C906.2,145.4,903.2,142.9,903.2,139.5z M914.7,139.7c0-3.1-2.8-4.2-6-5.5
		c-1.9,1.2-3.2,3-3.2,5.2c0,2.4,2,4.2,4.8,4.2C912.9,143.5,914.7,141.9,914.7,139.7z M914.1,128.5c0-2.2-1.4-4.1-3.9-4.1
		c-2.1,0-3.6,1.5-3.6,3.7c0,2.7,2.5,3.9,5.1,4.9C913.3,131.8,914.1,130.2,914.1,128.5z"/>
</g>
<rect x="29" y="370.5" class="st0" width="42" height="152.5"/>
<rect x="123.7" y="298.5" class="st0" width="42" height="224.5"/>
<rect x="218.3" y="233.9" class="st0" width="42" height="289.1"/>
<rect x="313" y="323.3" class="st0" width="42" height="199.7"/>
<rect x="407.6" y="218" class="st0" width="42" height="304.9"/>
<rect x="502.3" y="188.4" class="st0" width="42" height="334.6"/>
<rect x="596.9" y="361" class="st0" width="42" height="162"/>
<rect x="691.6" y="181" class="st0" width="42" height="342"/>
<rect x="786.2" y="84.6" class="st0" width="42" height="438.4"/>
<rect x="880.9" y="166.2" class="st0" width="42" height="356.8"/>
<line class="st1" x1="-0.8" y1="523" x2="952" y2="523"/>
</svg>
