<?xml version="1.0" encoding="utf-8"?>
<!-- Generator: Adobe Illustrator 23.0.1, SVG Export Plug-In . SVG Version: 6.00 Build 0)  -->
<svg version="1.1" id="栝鍣_1" xmlns="http://www.w3.org/2000/svg" xmlns:xlink="http://www.w3.org/1999/xlink" x="0px" y="0px"
	 viewBox="0 0 578.04 324.54" style="enable-background:new 0 0 578.04 324.54;" xml:space="preserve">
<style type="text/css">
	.st0{fill-rule:evenodd;clip-rule:evenodd;fill:#AA9D8D;}
	.st1{fill-rule:evenodd;clip-rule:evenodd;fill:#92877A;}
	.st2{fill-rule:evenodd;clip-rule:evenodd;fill:#BEB5AA;}
	.st3{fill-rule:evenodd;clip-rule:evenodd;fill:#918270;}
	.st4{fill-rule:evenodd;clip-rule:evenodd;fill:#8A7F71;}
	.st5{fill-rule:evenodd;clip-rule:evenodd;fill:#E4DCD2;}
	.st6{fill-rule:evenodd;clip-rule:evenodd;fill:#C6B7A4;}
	.st7{fill-rule:evenodd;clip-rule:evenodd;fill:#958673;}
	.st8{fill-rule:evenodd;clip-rule:evenodd;fill:#D4C8B9;}
	.st9{fill-rule:evenodd;clip-rule:evenodd;fill:#C0B6AA;}
	.st10{fill-rule:evenodd;clip-rule:evenodd;fill:#DCD4CC;}
	.st11{fill-rule:evenodd;clip-rule:evenodd;fill:#6D6251;}
	.st12{fill-rule:evenodd;clip-rule:evenodd;fill:#493F38;}
	.st13{fill-rule:evenodd;clip-rule:evenodd;fill:#DCD3C4;}
	.st14{fill-rule:evenodd;clip-rule:evenodd;fill:#A99A8B;}
	.st15{fill-rule:evenodd;clip-rule:evenodd;fill:#776D5F;}
	.st16{fill-rule:evenodd;clip-rule:evenodd;fill:#40382F;}
	.st17{fill-rule:evenodd;clip-rule:evenodd;fill:#9C8975;}
	.st18{fill-rule:evenodd;clip-rule:evenodd;fill:#24190E;}
	.st19{fill-rule:evenodd;clip-rule:evenodd;fill:#A79B8C;}
	.st20{fill-rule:evenodd;clip-rule:evenodd;fill:#685D4B;}
	.st21{fill-rule:evenodd;clip-rule:evenodd;fill:#867862;}
	.st22{fill-rule:evenodd;clip-rule:evenodd;fill:#CBC0B2;}
	.st23{fill-rule:evenodd;clip-rule:evenodd;fill:#7B7160;}
	.st24{fill-rule:evenodd;clip-rule:evenodd;fill:#A89F90;}
	.st25{fill-rule:evenodd;clip-rule:evenodd;fill:#988E7C;}
	.st26{fill-rule:evenodd;clip-rule:evenodd;fill:#4D4132;}
	.st27{fill-rule:evenodd;clip-rule:evenodd;fill:#1D1716;}
	.st28{fill-rule:evenodd;clip-rule:evenodd;fill:#B3A386;}
	.st29{fill-rule:evenodd;clip-rule:evenodd;fill:#362A21;}
	.st30{fill-rule:evenodd;clip-rule:evenodd;fill:#8F8778;}
	.st31{fill-rule:evenodd;clip-rule:evenodd;fill:#B3A78F;}
	.st32{fill-rule:evenodd;clip-rule:evenodd;fill:#564C42;}
	.st33{fill-rule:evenodd;clip-rule:evenodd;fill:#918673;}
	.st34{fill-rule:evenodd;clip-rule:evenodd;fill:#726C61;}
	.st35{fill-rule:evenodd;clip-rule:evenodd;fill:#9E917B;}
	.st36{fill-rule:evenodd;clip-rule:evenodd;fill:#362E24;}
	.st37{fill-rule:evenodd;clip-rule:evenodd;fill:#7B705E;}
	.st38{fill-rule:evenodd;clip-rule:evenodd;fill:#D1C3AA;}
	.st39{fill-rule:evenodd;clip-rule:evenodd;fill:#443B2E;}
	.st40{fill-rule:evenodd;clip-rule:evenodd;fill:#E8E2D2;}
	.st41{fill-rule:evenodd;clip-rule:evenodd;fill:#B0A692;}
	.st42{fill-rule:evenodd;clip-rule:evenodd;fill:#9B907A;}
	.st43{fill-rule:evenodd;clip-rule:evenodd;fill:#817360;}
	.st44{fill-rule:evenodd;clip-rule:evenodd;fill:#8C8070;}
	.st45{fill-rule:evenodd;clip-rule:evenodd;fill:#6B6051;}
	.st46{fill-rule:evenodd;clip-rule:evenodd;fill:#514636;}
	.st47{fill-rule:evenodd;clip-rule:evenodd;fill:#C6BDAA;}
	.st48{fill-rule:evenodd;clip-rule:evenodd;fill:#7E7460;}
	.st49{fill-rule:evenodd;clip-rule:evenodd;fill:#675843;}
	.st50{fill-rule:evenodd;clip-rule:evenodd;fill:#817668;}
	.st51{fill-rule:evenodd;clip-rule:evenodd;fill:#575347;}
	.st52{fill-rule:evenodd;clip-rule:evenodd;fill:#27251D;}
	.st53{fill-rule:evenodd;clip-rule:evenodd;fill:#918979;}
	.st54{fill-rule:evenodd;clip-rule:evenodd;fill:#383427;}
</style>
<g>
	<g id="婰蜰譇_19">
		<g>
			<path class="st0" d="M569.28,71.05c-9.84-9.6,0.47-23.92-12.49-26.8c-23.37-2.95-26.82,12.87-26.92,18.26
				c0.08,0.29,0.09,0.57,0.01,0.83c-0.01-0.24-0.02-0.52-0.01-0.83c-1.19-4.36-18.89-12.19-36.24-8.02
				c-32.3-2.56-47.64,17.93-54.61,18.56c-6.96,0.63-14.94,7.92-14.87,9.84c0.06,1.92,4.21,9.03-1.31,13.56
				c-5.52,4.53-0.35,13.63-1.97,14c-1.62,0.37-24.82,21.27-29.09,12.69c-4.27-8.58,4.27,24.61-8.31-4.81
				c-12.58-29.43-30.15-14.65-35.44-19.03c-5.29-4.38-28.63-1.5-33.91,1.09c-5.28,2.59-12.35,3.82-14.44-1.53
				c-2.09-5.35,6.36-21.9-29.75-44.41c-36.11-22.51-10.62-2.07-46.59-7.88c-35.97-5.81-28.63,30.18-31.11,28.82
				c-2.48-1.36-99.27-63.44-113.92-53.76C63.65,31.3,65.34,65.97,65.34,65.97s18.37,36.33-8.98,10.59
				C32.22,59.56,9.88,94.58,6.76,102.02C3.64,109.46-7.1,145.92,7.4,220c10.69,62.2,52.38,67.85,75.19,82.19
				c22.82,14.34,24.3,4.69,116.09,7.93c64.65,2.28,103.27,14.61,169.46,14.42c27.99-0.08,64.93-12.27,88.57-13.22
				c54.98-2.21,94.47,2.67,101.17-6.55C583.95,268.93,581.28,88.09,569.28,71.05z"/>
		</g>
	</g>
	<g id="婰蜰譇_75">
		<g>
			<path class="st1" d="M472.05,211.73c-0.69-2.5-32.59-83.79-32.59-83.79s-8.5,107.04-5.47,106.98c3.03-0.06,28.66,1.75,28.66,1.75
				S472.73,214.23,472.05,211.73z"/>
		</g>
	</g>
	<g id="婰蜰譇_73">
		<g>
			<path class="st2" d="M559.68,47.77C560.4,46.72,559.77,46.2,559.68,47.77L559.68,47.77z M564.85,85.03
				C559.2,59.89,562,61.16,560,50.99c-0.3-1.52-0.36-2.55-0.32-3.21c-1,1.46-4.61,3.94-15.98,3.21c-22.98-1.48-9.13,32.6-9.13,32.6
				c41.97-30.71-11.88,135.37-35.83,157.46c-23.95,22.09-42.09,17.32-24.12,34.13c17.97,16.81,17.05,22.7,17.62,26.7
				c0.57,4,60.29,9.8,59.17-7.53c16.5-7.19-3.98-29.66,8.85-40.96c12.82-11.3,8.94-29.55,11.38-54.69
				c-3.97-14.46-3.62-21.97,0.95-48.68C577.15,123.3,570.5,110.18,564.85,85.03z"/>
		</g>
	</g>
	<g id="婰蜰譇_72">
		<g>
			<path class="st3" d="M565.23,158.79c-1.79-4.7-8.27-23.22-7.22-35.22c1.06-12-8.97-9.84-8.97-9.84l4.81-9.84
				c0,0,0.41-7.32-5.47-10.5c-5.88-3.18-7.97-14.92-10.72-23.19c-2.75-8.26-7.55-9.29-7.22-5.91c0.33,3.39,6.65,20.62-0.88,14.88
				c-7.53-5.74-11.19-1.97-10.28,3.5c0.91,5.47-15.09-6.78-15.09-6.78l-31.72-8.31c0,0-6.4-1.13-15.09,3.28
				c-8.7,4.41-25.01,7.95-25.59,16.41c-0.58,8.46-9.81,19.1,0.44,25.16c10.25,6.05,14.86,4.04,24.28,0.22
				c9.42-3.82,58.57-16.88,65.84-8.97c7.28,7.91,40.69,75.91,40.69,75.91S567.03,163.49,565.23,158.79z"/>
		</g>
	</g>
	<g id="婰蜰譇_70">
		<g>
			<path class="st4" d="M293.6,305.31c-6.88-6.29-28.4-97.54-28.4-97.54s-15.73-8.49-14.85-4.77s10.62,31.27,11.14,48.77
				s-6.71,47.87,13.98,58.49C296.16,320.88,300.49,311.61,293.6,305.31z"/>
		</g>
	</g>
	<g id="婰蜰譇_71">
		<g>
			<path class="st4" d="M428.99,250.54c4.65-10.17,7.72-11.95,13.56-11.89c5.85,0.06,7.2-2.59,3.72-9.43s-137.84-49.97-146.99-26.45
				c0,0,32.59,48.2,36.53,89.39c3.94,41.19,118.99,14.35,118.99,14.35S424.34,260.71,428.99,250.54z"/>
		</g>
	</g>
	<g id="婰蜰譇_69">
		<g>
			<path class="st5" d="M517.11,80.47c-1.76-2.77-3.44-5.55,3.72-6.78c7.16-1.23,2.83-5.01-3.72-7.88
				c-6.55-2.87,3.94-4.16,3.94-4.16c-13.73-4.37-34.42,2.24-44.41,0.88c-9.99-1.36-8.94,6.98-22.53,5.69
				c-13.59-1.29,2.35,3.99-14.87,5.25c-17.23,1.26-16.84,10.94-16.84,10.94s5.99,6.52,0.88,10.72c-5.11,4.19-1.97,14.66-1.97,14.66
				s-1.03-3.25-1.75,5.47c-0.72,8.72,4.88,13.53,8.75,15.53c3.87,2,3-11.78,10.5-13.56c7.5-1.79-0.64-4.24-5.69-10.28
				c-5.05-6.04-2.65-4.57,2.19-6.34c4.84-1.78,5.36-5.3,3.94-12.03c-1.42-6.74,0.59-1.58,8.09-3.72c7.51-2.14,7.26-2.23,9.41-6.56
				c2.14-4.33-2.77-1.7,6.56-7c9.33-5.3,9.18-3.23,9.19,4.81c0,8.04,8.11,4.44,11.16,5.69s14.87-2.84,14.87-2.84
				s-0.03,0.55,1.09,5.25c1.12,4.7,4.91,5.7,9.62,3.5c4.72-2.2,4.85-4.87,6.78-1.31c1.93,3.56,6.18,2.68,8.97-0.66
				C527.77,82.38,518.87,83.24,517.11,80.47z"/>
		</g>
	</g>
	<g id="婰蜰譇_68">
		<g>
			<path class="st6" d="M437.92,152.23c0-6.96-4-3.28-4.81-10.06c-0.81-6.78-5.56-12.32-6.56-16.63c-5.55,6.38-2.2-11.99-5.4-15.73
				c-7.2-0.53-10.69,7.74-14.07,6.76c-4.72-0.99-16.84,6.56-16.84,6.56l13.56,111.13c0,0,34.97,5.38,37.84-1.53
				C444.51,225.82,437.92,159.19,437.92,152.23z"/>
		</g>
	</g>
	<g id="婰蜰譇_64">
		<g>
			<path class="st7" d="M145.45,210.42c-5.89-9.68-5.91-10.06-5.91-10.06s-22.9-1.67-33.91-23.63
				c-11.01-21.95-29.57-33.92-33.69-26.03c0,0-27.11,23.9-35.66,24.28c-8.54,0.38,1.22,11.27,7.66,10.28
				c6.44-0.99,10.7-1.53,19.03-5.03s-10.79,14.93-20.78,17.72c-9.99,2.79-31.28,7.66-31.28,7.66s4.33,5.6,6.13,9.63
				c1.79,4.03-4.87,29.27,8.75,7.22c13.62-22.06,24.06-8.34,37.19-5.25c13.13,3.09-13.77,14.92,9.63,17.06
				c23.4,2.15,47.63,13.36,62.78,1.75C150.54,224.41,151.34,220.1,145.45,210.42z"/>
		</g>
	</g>
	<g id="婰蜰譇_63">
		<g>
			<path class="st8" d="M42.86,172.57c3.76-0.81,7.22-2.51,10.32-4.74C42.57,172.15,33.54,174.58,42.86,172.57z M148.08,221.58
				c-5.77-2.32-30.04-19.38-37.62-40.69c-7.59-21.31-19.97-42.29-33.69-45.72c0,0-5.96-1-6.56,6.56c-0.46,5.8-6.81,18.8-17.02,26.11
				c7.75-3.15,16.34-7.3,19.21-11.45c6.81-9.84,10.81,0.38,7.44,3.5c-3.37,3.13-26.14,35.01-57.97,42.22
				c-31.83,7.21,14.43,5.35,19.25,5.25c4.82-0.1,19.58,1.25,24.72,5.03c5.14,3.79,19.63-7.75,31.94-0.44
				c12.3,7.31,28.69,29.27,47.25,22.75C163.57,228.18,153.85,223.89,148.08,221.58z"/>
		</g>
	</g>
	<g id="婰蜰譇_62">
		<g>
			<path class="st9" d="M230.11,188.76c-15.15-5.74-35.87-38.07-35.87-38.07l-17.06-14.66c0,0-8.31,27.79-13.56,49.66
				c-5.25,21.87-11.29,29.24-23.84,60.38c28.82,1.44,79.22-40.87,91-45.72C242.55,195.5,245.26,194.5,230.11,188.76z"/>
		</g>
	</g>
	<g id="婰蜰譇_61">
		<g>
			<path class="st5" d="M169.73,136.48c0,0-13.56,79.31-31.06,105.66c-19.45,23.92-17.98,22.5-2.41,9.84
				c18.98-26.29,44.97-78.71,46.81-112.88C184.92,104.92,176.55,132.09,169.73,136.48z"/>
		</g>
	</g>
	<g id="婰蜰譇_65">
		<g>
			<path class="st10" d="M442.3,229.23c-0.17-1.19,0.46,3.4-10.94,0c-11.4-3.4-21.44,2.63-21.44,2.63s-119.1-69.88-125.34-75.04
				c-6.24-5.16-51.72-7.19-80.5,0c-28.78,7.19-1.75,6.53-1.75,16.84c0,10.31,25.72,14.38,35.66,21.22
				c9.93,6.84,10.99,9.97,30.19,19.47s2.84-12.25,2.84-12.25s3-0.34,11.81-4.38c8.82-4.04,0.88-21.44,0.88-21.44
				s15.82,24.93,19.47,34.13c1.61,1.97,7.39,1.98,4.38-1.97c-3.01-3.95,26.77,13.2,29.97,25.81c3.2,12.61,9.48-2.13,8.75,5.91
				c4.54,10.67,25.84,1.77,39.59,6.56c13.76,4.79,52.72-9.19,52.72-9.19S443.49,233.83,442.3,229.23z"/>
		</g>
	</g>
	<g id="婰蜰譇_59">
		<g>
			<path class="st11" d="M410.14,168.63c0,0,15.75-8.4,6.56-6.78c-9.19,1.61-6.12-2.84-6.12-2.84s0.83-5.71,1.97-10.72
				c1.14-5.01,1.79-1.92-6.78-3.5c-8.57-1.58-7.3-16.76-9.41-18.16c-2.1-1.4-4.37-2.92-4.81-3.72c-0.44-0.8-1.72-3.05-3.5-3.28
				c-1.78-0.23-4.59-3.06-4.59-3.06l1.53,27.56c0,0,13.48,97.02,17.28,96.48c3.8-0.54,4.83,1.46,10.06-11.38
				c5.24-12.84-8.93-34.93-8.31-42c0.62-7.07-3.4-11.89-1.31-15.53C404.78,168.05,410.14,168.63,410.14,168.63z"/>
		</g>
	</g>
	<g id="婰蜰譇_45">
		<g>
			<path class="st12" d="M435.95,150.26c-2.67,3.83-22.94,13.51-24.5,14c-1.56,0.49-3.3,1.29-1.31-3.06
				c1.99-4.35-3.28-0.51-9.84,0.66c-6.56,1.17-8.83-6.35-0.66-7.22c8.18-0.87,12.08-12.91,3.06-8.97
				c-9.02,3.94-18.21-9.93-17.28-21.44c0.93-11.51-14.22-21.88-14.22-21.88s0.98,18.47,8.53,35.22c-4.11,26.63,8.49,53.42,9.41,60.6
				c0.92,7.18-11.29,35.93-5.91,38.28c5.38,2.36,22.81,10.28,26.69-3.06c3.87-13.34-10.84-29.6-7.66-44.41s-5.29-17.11-2.41-19.03
				c2.89-1.92,8.29-9.26,8.09-7.66c-0.2,1.6,1.66,12.49,4.16,7.66c2.5-4.84,1.07,3.54,12.03-5.47c10.96-9.01,6.21,3.34,7.22,0.88
				c1-2.46,4.34-9.37,7.44-12.25C441.89,150.22,438.62,146.43,435.95,150.26z"/>
		</g>
	</g>
	<g id="婰蜰譇_41">
		<g>
			<path class="st13" d="M384.98,182.2c-0.88-2.71-2.53-15.52-3.28-21.66c-0.75-6.14-2.48-25.04-4.37-33.69
				c-1.89-8.65,12.79,5.24,2.41-14.44c-10.39-19.68-24.36-8.77-32.16-13.13c-7.8-4.36-19.11-0.41-22.75-0.44
				c-3.64-0.03-8.29-0.65-12.69,1.97c-4.4,2.62-13.56,0-13.56,0c-5.28-2.21,29.38,91.93,35.87,113.32
				c6.5,21.4,26.2,22.05,31.72,20.35C371.69,232.78,385.86,184.91,384.98,182.2z"/>
		</g>
	</g>
	<g id="婰蜰譇_40">
		<g>
			<path class="st14" d="M385.42,172.35c-2.7-3.13-2.41-10.72-2.41-10.72s-7.28,2.41-7,3.28c0.28,0.87,6.17,9.83,6.13,10.5
				c-0.04,0.67-6.85,5.64-2.84,14.22c4,8.58,4.06,15.76-1.31,12.25c-5.37-3.51-22.81-2.8-31.94,5.42c-0.75,0.68-6.32,0.29-6.66,1.01
				c0.15,2.96,6.08,12.23,10.51,12.74c4.43,1.02,4.1-2.35,10.8-1.45c11.1,0.86-1.97,3.5-1.97,3.5s-10.71,4.28-15.31,3.5
				c-4.6-0.78-1.85-4.21-7.22-12.03c-5.37-7.83-1.09-17.39,0-26.03c1.09-8.64,28.73-0.91,36.75-6.34c5.03-7.03-7.2-20.57-9.42-29.94
				c-2.21-9.37,3.11-5.8,5.92-0.25c2.81,5.56,4.08,5.44,3.94,3.28c-0.14-2.16,10.41-4,11.37-5.69s-3.02-16.49-6.78-22.75
				s5.52-15.73-13.34-9.63c-18.86,6.11-6.94,17.2-8.31,18.38c-1.37,1.17-6.84-5.57-9.63-6.78c-2.78-1.21-12.47-0.25-4.59,3.5
				c7.87,3.75,12.36,12.08,11.59,12.25c-0.77,0.17,0.04,2.03-8.31,3.28c-8.35,1.25-5.87,1.68-8.31-1.75
				c-2.44-3.43-15.53-0.22-15.53-0.22s2.43-15.85,3.06-17.06c0.46-0.88-0.57-6.66-1.16-9.71c-0.67,0.44-0.38-1.89-0.38-1.89
				s0.16,0.76,0.38,1.89c0.56-0.36,1.79-2.64,4.44-9.76c5.82-15.7-26.47,1.53-26.47,1.53s19.18,78.53,21.87,85.1
				c2.69,6.57,11.97,21.58,12.47,25.6c0.5,4.01,11.08,14.75,13.56,15.09c2.48,0.34,8.81,1.56,14.44,2.41
				c5.63,0.84,19.74,0.04,24.28-3.72c4.54-3.76,1.32-14.28,3.72-20.35c2.4-6.07-2.84-9.47,1.75-18.81
				C398.1,186.86,388.12,175.48,385.42,172.35z"/>
		</g>
	</g>
	<g id="婰蜰譇_33">
		<g>
			<path class="st15" d="M390.67,207.57c-1.56-6.43-8.41-22.6-9.84-22.97c-1.43-0.37,2.41-6.84,1.75-9.41
				c-0.66-2.57-5.48-3.77-9.19-1.53c-3.71,2.24-14.96,5.7-16.84,7c-1.88,1.3-0.64-3.18,0-3.72s3.52-2.88,3.72-6.13
				c0.2-3.24,2.97-9.45,2.41-12.91c-0.56-3.46,1.52-9.56,6.34-5.25c4.83,4.31,1.21-5.44,0.88-7c-0.34-1.56-9.32-5.59-9.62,0.66
				c-0.3,6.24-1.14-1.64-0.66-3.06c0.48-1.42,1.79-2.66,0-7.66c-1.79-5-0.74-8.76,0.44-9.84c1.18-1.08-1.69-3.67-2.84,1.09
				c-1.15,4.76,0.7,9.99,0.66,10.72s-2.47-4.43-4.16-1.53c-1.69,2.89,1.2,2.79,2.41,6.13c1.2,3.33-10.29-1.68-13.12-0.44
				c-2.83,1.25,4.98,0.78,3.28,2.84c-1.7,2.06-3.8-3.57-12.91,2.84c-9.11,6.41-5.88-5.68-7.88,1.31c-1.99,6.99-1.76,3.07-1.75-1.53
				c0.01-4.6-0.16-11.42,1.31-13.56c1.48-2.14,0.43-11.2-0.88-14.88c-1.31-3.67,7.44-0.47,9.62-0.88c2.19-0.4,2.41-0.44,2.41-0.44
				s4,3.07,7-0.66c3-3.72,4.89,1.74,6.34-1.75c1.46-3.49,2.74,0.7,4.81-2.84c2.07-3.55,4.65,6,11.38,10.5
				c6.72,4.5,5.52,8.6,3.28,7.88c-2.24-0.72,1.24,5.54,2.84,5.69c1.61,0.15-0.23,4.87-2.84,4.59c-2.62-0.28,0.67,2.61,3.06,3.5
				c2.4,0.89-0.39,1.31,0.44,3.5s8.58,14.82,10.06,14.88c1.49,0.06,4.6-11.43,5.25-12.69c0.65-1.26-7.5-24.18-8.09-26.03
				c-0.59-1.86,4.42,2.34,4.38-1.97c-0.04-4.31-2.03-5.93-3.94-9.41c-1.91-3.48-15.33-11.51-19.03-11.59
				c-3.7-0.09,17.52,9.56-8.09,3.5c0,0-5.28,10.99-3.28-1.09c1.99-12.09-10.83,21.48-6.56,3.5c4.27-17.98-10.75,20.93-7.66,4.38
				c3.09-16.55-12.34,12.06-8.09,0.66c4.24-11.4-3.93,7.76-6.34,2.41c-2.41-5.36,7.93,17.7-1.53,21c-9.46,3.3-5.17-0.67-7,4.59
				c-1.83,5.27-20.92,18.64-11.37,40.47c9.55,21.84,21.35,34.65,24.28,35.88c2.93,1.23,11.19,2.07,10.72,5.69
				c-0.47,3.62,2.9,3.27,4.81,9.63c1.91,6.36,5.21-0.7,7.22,4.59c2.01,5.3,12.1-11.3,11.16-12.91s-9.44-0.03-11.37,0
				c-1.93,0.03-4.49,3.24-7-6.13c-2.51-9.36-8.76-9.97-2.63-20.13c6.13-10.15,7.51-9.75,13.34-10.28c5.83-0.54,2.92-4.32,10.94-0.22
				c8.02,4.1,3.15-4.71,6.78,1.97c3.63,6.67,0.02,7.87,3.72,11.38c3.7,3.5,6.42,12.97,11.81,12.91
				C390.37,212.76,392.23,214,390.67,207.57z"/>
		</g>
	</g>
	<g id="婰蜰譇_42">
		<g>
			<path class="st16" d="M382.14,174.54c-3.01-3.93-9.44-0.9-11.16,0.22c-1.72,1.11-14.44,5.69-14.44,5.69
				c-3.96,1.41,1.71,4.95,7,3.28c2.3-1.22,3.83,0.74,7.66-0.44c3.82-1.18,7.9,1.78,9.41,0C381.09,181.33,383.7,176.76,382.14,174.54
				z"/>
		</g>
	</g>
	<g id="婰蜰譇_34">
		<g>
			<path class="st16" d="M357.2,156.6c-0.6-4.22,0.95-10.68-7.83-7.4c-5.3,1.27-4.02,3.11-3.76,3.46
				c-10.23-1.96-17.03,2.69-18.38,3.06c-1.34,0.37-3.22,4.37-5.69-0.22c-2.47-4.59-3.28-9.08,0.22-11.38c3.49-2.3-5.38,0.6-3.72-3.5
				c1.66-4.1,4.64-4.5-0.66-4.38c0,0-2.55-0.4-4.59,3.28c-2.05,3.68,2.74,0.89,3.5,8.53c0.76,7.65,1.31,13.87,5.69,13.56
				c2.43,0.31,16.69-1.14,17.94-0.88c16.72-0.18,4.97,3.88,9.84,3.72C358.19,163.16,357.78,160.65,357.2,156.6z"/>
		</g>
	</g>
	<g id="婰蜰譇_43">
		<g>
			<path class="st17" d="M344.3,154.85c-2.93-4.18-14.22,0.22-14.22,0.22c-0.71,0.09-6.42,5.03-4.81,5.47
				c1.6,0.44,2.75,0.89,12.25,0.66c9.5-0.23,8.29-1.45,3.28-1.53c-5.01-0.08-5.03-1.31-5.03-1.31s0.7-2.17,2.84-2.84
				C340.75,154.83,347.23,159.03,344.3,154.85z"/>
		</g>
	</g>
	<g id="婰蜰譇_35">
		<g>
			<path class="st16" d="M387.39,151.35c0,0-16.69-11.35-15.75-4.38s-2.38,3.14-0.66,5.69c1.72,2.55-1.73,0.11,1.53,5.91
				c2.97,3.83,3.01,6.38,3.94,7c0.92,0.62,5.33,3.95,7.22,3.06C381.02,163.21,388.4,155.52,387.39,151.35z"/>
		</g>
	</g>
	<g id="婰蜰譇_44">
		<g>
			<path class="st17" d="M374.7,154.2c-5.26-0.12-2.24,3.08,0.22,3.28c2.46,0.2-2.63,0.66-2.63,0.66s2.85,3.65,3.72,6.78
				c5.68,1.26,7.49-1.16,6.34-0.88c-1.14,0.29-3.28-0.58-4.16-0.66c-0.88-0.07-5.8-2.48-0.66-4.38c5.15-1.89,5.76,5.92,6.34,3.06
				C384.47,159.21,380.46,154.51,374.7,154.2z"/>
		</g>
	</g>
	<g id="婰蜰譇_38">
		<g>
			<path class="st18" d="M382.58,159.66c-2.22-3.18-10.72-2.41-10.72-2.41s-0.01,0.11,0.66,1.31c6.33,0.13,8.33,1.05,8.53,2.84
				c0.2,1.79-0.88,2.19-0.88,2.19l2.41,0.22C382.58,163.82,385.57,163.46,382.58,159.66z"/>
		</g>
	</g>
	<g id="婰蜰譇_39">
		<g>
			<path class="st18" d="M379.3,160.1c-2.33-3.04-6.28-1.24-5.91-0.22c0.6,1.02,2.19,3.72,2.19,3.72h2.62
				C378.2,163.6,380.61,163,379.3,160.1z"/>
		</g>
	</g>
	<g id="婰蜰譇_36">
		<g>
			<path class="st16" d="M374.92,193.79c-2.38-0.67-3.59-0.71-5.64-0.07c0.12-9.84-4.11-1.88-5.73-1.68
				c0.12-9.07-4.33,2.32-4.99,2.87c-9.81,0.28-13.28,6.86-15.57,10.69c-2.56,3.15-3.22-2.58-5.25-2.41
				c-1.69,1.18,0.79,6.77,4.16,6.13c3.11,1.47,5.59-3.43,11.38-4.59c9.77-1.85,14.58-2.99,21.66-0.88c6.54,1.62,6.86,4.68,9.34,5.93
				c1.33,1.06,3.77,0.1,4-2C388.6,201.28,377.82,194.61,374.92,193.79z"/>
		</g>
	</g>
	<g id="婰蜰譇_37">
		<g>
			<path class="st18" d="M347.14,158.79c-11.3-9.98-21.52,2.9-16.84-2.41c4.68-5.31,21.76-2.46,12.03-4.16
				c-9.73-1.7-18.16,4.38-18.16,4.38c-4.23,0.98-1.4,2.63,0.66,2.84c2.06,0.21,5.91-0.22,5.91-0.22l3.28-2.19l0.44,2.19
				c0,0,6.4,0.4,6.78-0.22c0.38-0.62,0-1.97,0-1.97l4.59,2.19c0,0-9.2,0.4-3.72,0.66C347.59,160.14,348.32,159.82,347.14,158.79z"/>
		</g>
	</g>
	<g id="婰蜰譇_67">
		<g>
			<path class="st19" d="M563.7,180.23l-0.66-16.63l-5.25-5.03l-4.59-33.69l-14.66-6.78l-1.53-12.03l8.75-1.75l-10.94-5.25
				l-1.31-6.13l-15.09-3.72l-0.88,3.28c0,0-14.05-2.37-18.16-0.88c-3.84,1.4-5.53-5.58-7.11-6.11c-0.44,0.06-0.6,0.06-0.33-0.02
				c0.11-0.03,0.22-0.02,0.33,0.02c2.29-0.28,12.36-1.99,12.36-1.99s2.49-3.14-2.63-3.94c-5.12-0.8-2.65-3.32-10.06,0
				c-7.41,3.32-11.2,2.82-11.81,6.56c-0.61,3.74,17.94,19.11,20.12,22.97c2.18,3.86,6.21,65.83,0.44,73.07
				c-5.78,7.24-7.33,14.95-5.03,19.69c2.3,4.74,13.11,35.03,13.34,38.5c0.24,3.48,17.06,21.22,17.06,21.22s-9.33,2.29-11.38,7.22
				c-2.05,4.93,12.91,3.5,12.91,3.5s-2.12,6.04,3.28,4.81c5.4-1.23,22.75-7.22,22.75-7.22l-9.41-7.22c0,0-1.59-17.54-6.78-19.69
				c0,0,15.91-4.09,15.97-5.47c0.06-1.38-4.38-26.91-4.38-26.91s9.26-5.61,9.63-6.78c0.36-1.17-0.44-19.69-0.44-19.69L563.7,180.23z
				"/>
		</g>
	</g>
	<g id="婰蜰譇_60">
		<g>
			<path class="st20" d="M515.14,97.75c-4.99,0.59-2.41,5.25-2.41,5.25s-2.33,4.53-2.41,0.88c-0.08-3.65-3.65-12.71-3.28-8.31
				c0.37,4.4-2.63,4.38-2.63,4.38l-1.31-1.53l1.31-5.69l-2.19,3.06c0,0-12.41-8.67-16.84-9.41s6.05-5.74,3.28-6.13
				c-2.77-0.38-6.79-0.59-7,1.75s-5.62,4.63-8.97,5.25c-3.35,0.62,0.27-1.11-3.06-4.16s-4.28,0.13-4.16,4.38
				c0.13,4.25,0.2,3.69-4.59,3.94c-4.79,0.24-2.02-2.84,0-4.16c2.02-1.32,2.36-2.41-3.72-4.16c-6.08-1.75-2.35,2.07-1.97,4.16
				c0.38,2.08-1.68,3.43-4.59,1.31c-2.92-2.11-4.21-0.32-6.56,3.72c-2.35,4.04,1.05,1.47,0.44,5.69c-0.62,4.21-2.14-1.78-6.34,2.84
				c-4.21,4.63,1.45,5.91,2.19,12.25c0.74,6.34-2.84,3.05-8.31,1.53c-5.47-1.52-3.93,4.6-7.88,6.13s4.43,3.82,1.09,5.25
				c-3.34,1.43,1.39,5.06,3.28,9.19c1.89,4.13-2.54,3.97,3.94,9.19c6.47,5.22,5.25,11.38,5.25,11.38c0.81,0,32.51-44.79,32.59-46.38
				c0.08-1.59,39.3,3.05,40.03,3.06c0.73,0.02,9.48-6.34,9.62-10.06C520.1,98.62,520.13,97.16,515.14,97.75z"/>
		</g>
	</g>
	<g id="婰蜰譇_57">
		<g>
			<path class="st21" d="M522.58,150.26c-4.04-11.61,6.73-6.29,1.97-17.5c-4.76-11.21,1.31-24.72,1.31-24.72l-15.53,1.09l-9.41,0.66
				c0,0-2.65,18.28-1.09,18.38c2.87,0.18,0.88,21,0.88,21s-0.94,34.01-1.31,37.85c-0.37,3.84,8.53,5.47,8.53,5.47l11.38-0.88
				l3.94-1.53c0,0,0.88-5.11,3.06-10.94C528.48,173.31,526.62,161.87,522.58,150.26z"/>
		</g>
	</g>
	<g id="婰蜰譇_56">
		<g>
			<path class="st22" d="M514.48,193.79c39.38-3,50.32-14.11,48.78-13.56c-1.54,0.55-23.74,5.58-26.88,6.31
				c-3.14,0.73-5.49-3.03-5.49-3.03s4.82-12.37,3.5-18.38c-0.36,3.12-4.14,11.17-7.44,12.69c-7.74,2.36-2.38,5.46-5.91,6.13
				c-3.53,0.67-7,7-7,7l-7.44,0.44l-4.59-3.28c0,0-3.88-3.68-2.19-6.13c1.7-2.45-5.47-20.35-5.47-20.35s-21.52-11.22,8.75-8.75
				c30.27,2.47,17.79-6.38,19.03-6.78c1.24-0.4,5.94-5.53,3.06-12.25c-2.88-6.72-7.29-16.99-5.25,0.88
				c2.04,17.87-2.73-2.01-2.63,5.47c0.11,7.48-7.22-4.81-7.22-4.81l-1.53,3.06c0,0-1.71,3.23-5.91-10.72
				c-4.2-13.95,3.94-16.63,3.94-16.63l0.44,15.09c0,0,4.19,3.07,2.84-1.75c-1.35-4.82,31.24-17.01,13.12-21.66
				c-18.12-4.65-14.76,7.18-15.53,4.59c-0.77-2.58-8.2-16.96-23.41-18.38s-12.62,2.57-19.03,5.47c-6.41,2.9-5.32,5.84-12.47,9.41
				c-7.15,3.57-9.84,14.44-9.84,14.44s1.36,2.22-5.69,10.94c-7.05,8.72-4.38,10.94-4.38,10.94l4.59,3.06l12.47,42.22
				c0,0,3.79,23.08,4.34,24.26c0.55,1.18-2.62,3.65-3.03,4.62c-0.4,0.97-5.34,2.02-5.03,4.38c0.31,2.36,3.6,3.85,7.88,4.16
				c4.28,0.31,16.19,6.36,6.56,6.34c-9.62-0.01-3.25,3.23-13.78,5.03c-10.53,1.8-8.56,6.93-9.41,7c-0.85,0.07-4.21,1.54-5.91,5.03
				c-1.7,3.49-5.89,14.44,4.59,20.35c10.49,5.91,20.56,13.4,32.16,12.25c11.6-1.15,10.94,0.23,12.69-4.81
				c1.75-5.04,9.06-7.37,28-7.88c18.94-0.51,18.31-1.1,18.59-10.5c0.28-9.4,13.05-8.76,10.5-11.38c-2.55-2.62-10.55,8.13-5.25-3.06
				c5.3-11.2,0.88-30.19,0.88-30.19l-27.12,7.22c0,0,0.02,8.65-1.09,8.09c-1.11-0.56,2.49,2.17-4.59,1.75
				c-7.09-0.42-7.17,2.26-9.19,1.31c-2.02-0.94-7,1.09-7,1.09s-3.4-0.84-6.13,0.22c-2.73,1.06-5.55,3.31-7.22-2.84
				c-1.67-6.15-11.59-12.25-11.59-12.25s-2.84-1.13,1.53-3.06c1.97,4.51,7,11.16,13.78,12.69c19.53,4.55,22.09-5.91,22.09-5.91
				s12.65-3.47,12.91-4.81c0.26-1.34,7.79-5.78-3.06-13.56c-10.85-7.78-0.88-8.09-0.88-8.09S497.67,197.99,514.48,193.79z"/>
		</g>
	</g>
	<g id="婰蜰譇_56_膰歞">
		<g>
			<path class="st5" d="M506.83,201.01c-10.85-7.78-0.88-8.09-0.88-8.09l0.66-1.53l-4.59-3.28c0,0-3.88-3.68-2.19-6.13
				c1.7-2.45-5.47-20.35-5.47-20.35s9.88-28.71,8.31-33.91c-16.09-17.41,3.66-22.88,2.05-25.4s-8.2-12.81-20.65-13.32
				c-15.2-1.42-12.62,2.57-19.03,5.47c-6.41,2.9-5.32,5.84-12.47,9.41c-7.15,3.57-9.84,14.44-9.84,14.44s1.36,2.22-5.69,10.94
				c-7.05,8.72-4.38,10.94-4.38,10.94l4.59,3.06l12.47,42.22c0,0,3.79,23.08,4.34,24.26c0.55,1.18-2.62,3.65-3.03,4.62
				c-0.4,0.97-5.34,2.02-5.03,4.38c0.31,2.36,3.6,3.85,7.88,4.16c20.5,1.97,6.3,0.55,11.19-0.64c1.29-3.96-4.94-6.16-5.5-6.58
				c0,0-2.84-1.13,1.53-3.06c1.97,4.51,7,11.16,13.78,12.69c19.53,4.55,22.09-5.91,22.09-5.91s12.65-3.47,12.91-4.81
				C510.15,213.23,517.68,208.79,506.83,201.01z"/>
		</g>
	</g>
	<g id="婰蜰譇_66">
		<g>
			<path class="st23" d="M510.15,202.69c-3.24-2.43-2.77,2.31-2.77,2.31s0.61,4.81-1.15,4.61c-1.77-0.2,1.48-6.38-3.92-4.61
				c-5.4,1.77-3.69,3.46-3.69,3.46s-6.97,2.57-3.69,3c3.89,5.59-5.94,7.55-8.07,5.07c-3.93-0.99,2.19,4.36-3.46,4.61
				c-3.11,5.37-1.79-4.46-6.23,0.92c-3.1,3.76-4.04,4.98-4.61,0.69c-0.57-4.29-3.41-3.74-3.69-1.85c-0.28,1.9-4.25-1.33-2.08-2.08
				c2.18-0.75,3.82-2.76,0.92-3.92c-2.9-1.17-0.79,2.11-3.92,0c-3.61-5.3-8.41,0.55-1.38,2.31c-1.86,9.84,4.61,4.82,5.51,11.53
				c2.05,2.55,3.9,5.06,8.33,4.84c4.43-0.22,2.99-3.6,6.92-1.15c3.93,2.45,4.38-0.69,4.38-0.69s2.59-2.91,4.84-0.92
				c2.25,1.98-0.16-1.82,5.77-1.61c5.93,0.2,6.96-3.6,8.99-2.08c2.03,1.52,1.85-7.84,1.85-7.84l3.69-2.08c0,0,0.21-1.69-0.23-2.77
				C510.06,210.12,518.57,207.55,510.15,202.69z"/>
		</g>
	</g>
	<g id="婰蜰譇_49">
		<g>
			<path class="st6" d="M439.54,154.75c-0.06-1.14-0.09-1.87-0.09-1.87S437.44,154.32,439.54,154.75z M455.21,150.74
				C455.92,149.97,455.66,149.69,455.21,150.74L455.21,150.74z M463.08,194.23c-3.15,2.74-4.5-0.16-4.16-0.88
				c0.35-0.72,0.63-5.86,0-5.03c-0.63,0.83,1.43,5.04-2.63,0.44c-4.06-4.6-0.3-14.61,1.53-17.06c1.83-2.45,0.3-3.06-1.97-1.31
				c-2.27,1.75-2.71,5.54-3.5,7.88c-0.79,2.33-0.9,8.7-1.97-0.44c-1.07-9.13,5.03-10.5,5.03-10.5s-1.29-0.64-3.5-2.41
				c-2.21-1.76,1.85-9.89,3.06-13.56c0.08-0.24,0.16-0.44,0.23-0.61c-0.91,1-3.43,2.82-9.2,3.67c-3.54,0.52-5.47,0.54-6.47,0.34
				c0.2,3.67,0.73,11.64,1.66,13.88c1.22,2.93,3.5,16.28,7.66,24.94c4.16,8.66,3.31,17.66,5.69,17.28s4.34,2.96,3.5-5.47
				c-0.84-8.43,1.53-6.34,1.53-6.34s2.11,0.63,4.59,0.22C466.65,198.85,466.22,191.49,463.08,194.23z"/>
		</g>
	</g>
	<g id="婰蜰譇_74">
		<g>
			<path class="st11" d="M454.55,140.85c-1.79-0.15-14.22,0.61-13.56,2.41c0.66,1.8,4.59,10.5,4.59,10.5s7.95-1.23,9.41-3.5
				C456.44,147.99,456.33,141,454.55,140.85z"/>
		</g>
	</g>
	<g id="婰蜰譇_50">
		<g>
			<path class="st24" d="M496.33,161.41c-5.35-8.74-25.43-27.8-28.22-30.19c-2.79-2.39-0.88-5.47-0.88-5.47s-6.7-7.31-14,2.63
				c-7.3,9.93,1.69,10.63,2.84,10.28s5.52-5.11,8.31-3.72c0,0-0.56,7.02-2.19,10.28c-1.63,3.27-0.44,9.19-0.44,9.19
				s0.38,7.76-2.84,9.84c-3.23,2.08,12.44,0.01,12.91,0c0.46-0.01-9.78-4.71-1.31-6.13c8.47-1.41,4.02,0.17,5.69,1.75
				c1.67,1.58,0.23,4.3,8.97,5.03C493.91,165.64,501.67,170.15,496.33,161.41z"/>
		</g>
	</g>
	<g id="婰蜰譇_48">
		<g>
			<path class="st11" d="M509.01,137.57c-1.16-7.69-1.75-12.69-6.78-10.72c-0.56-2.18-2.41-2.41-2.41-2.41s-3.6-5.3-7.44-3.06
				c-3.31,1.31-1.4-0.93-2.63-0.88c0.27-0.36-1.3-0.52-2.82,0.59c-0.28-1.35-1.18-0.65-1.99-0.59c-1.79-0.27-2.38-0.55-4.38,0.88
				c-1.99,1.42-1.71,2.08-4.38,1.97c-2.66-0.11-6.73,0.28-7.66,2.63c-1.59,0.83-2.99-0.17-3.72,1.31c-0.47-1.42-2.18-2.45-4.38-1.97
				c-1.8,0.68-0.71,1.57,0.44,1.75c1.15,0.18,1.87,1.9,2.63,2.84c0.75,0.94-1.42,1.75-2.19,0.88c-1.29-1.47-2.33-1.48-2.63-0.22
				c-0.3,1.26,0.38,0.93,3.06,1.53c2.68,0.6,0.36,1.89-0.88,1.75c-1.23-0.14-1.13-2.12-3.94,1.53s-1.39-1.63-0.44-2.19
				c0.95-0.55-2.58-0.69-0.66-1.97c1.92-1.28-0.27-4.47-4.16-2.63c-3.89,1.85-13.02,4.15-16.41,6.78c0,0-6.4,4.49-1.09,8.75
				c5.31,4.27,1.38,12.91,6.34,23.63c3.27,7.26-1.42-11.63,3.5-11.81c8.3-0.26-1.56-3.82-2.41-4.16c-0.84-0.34-5.21-5.4,1.53-9.19
				c6.75-3.79,11.37,1.3,11.59,9.19c1.43-6.84,2.8-8.35,2.63-14.66c-0.5-1.96,2.31,0.78,4.81-1.09c2.5-1.88,2.87,0.83,3.28,2.19
				c0.41,1.36,6.78,10.74,8.75,12.25c1.97,1.51,3.68,4.58,4.37,5.91c0.7,1.33,4.48,4.23,10.28,5.25c5.8,1.03,6.02,4.72-1.75,2.19
				c-7.77-2.53-8.88-0.71-11.16-4.81c-2.28-4.1-2.58-2.94-5.47-2.63c-2.89,0.31-1.18,1.72,0.44,1.97c1.62,0.25,3.18-0.86,6.78,4.38
				s4.46,2.8,5.25,3.06c0.79,0.27,14.11,9.37,14.22,10.06c0.11,0.7-0.15,1.63-3.06,1.31c-2.91-0.32-9.29-0.48-10.06,0.44
				c-0.78,0.91-0.55,4.24,0.44,4.81s-6.45,1.44-7.44,0.44c-0.12-1.73,0.4-7.84,1.09-10.5c0.84-2,0.67-7.89-0.44-8.31
				c-1.11-0.43-9.66-0.33-11.38-0.44c-1.72-0.11-4.66-1.68-10.5,1.09c-1.11,0.3-3.24,0.26-4.59,1.09c-2,3.31,2.57,1.45,4.81,4.38
				c2.25,2.93,3.58,1.69,3.06,5.47c-0.52,3.78,2.21,7.51,2.19,10.5s1.75,3.06,1.75,3.06s-0.53,5.68-0.44,6.56
				c0.09,0.88-3.46-1-3.5,0.66c-0.04,1.65,1.41,8.08,2.63,9.63c1.22,1.55,2.27,2.95,4.16,2.84c1.88-0.1,2.05,0.41,1.97,1.75
				c-0.08,1.34,2.76,0.9,3.72,3.28c0.96,2.38,2.15-3.44,3.94-2.84c1.79,0.59-1.61-2.65,1.97-2.41c3.58,0.24-1.03-4.9,5.03-7
				c6.07-2.1,3.75-2.96,4.16-3.94c0.41-0.98,2.16-4.94,11.37-7.44c6.11-1.66,5.04-1.97,4.16-1.94c-0.07,0.12-0.15,0.19-0.23,0.19
				c-0.61-0.06-0.22-0.17,0.23-0.19c1.52-2.49,0.7-32.2,0.65-32.85c-0.05-0.68,3.1-8.48,3.28-10.06
				C506.35,143.86,510.18,145.25,509.01,137.57z"/>
		</g>
	</g>
	<g id="婰蜰譇_54">
		<g>
			<path class="st25" d="M499.61,138.88c-0.47-0.51-4.57,0.22-5.03,0.66c-0.46,0.43-5.21,3.48-8.97,3.28
				c-1.71-1.5,2.85-4.85,3.5-5.91c0.65-1.06-4.39-4.22,4.59-0.66c8.99,3.56,3.28-0.88,3.28-0.88c-12.42-9.98-17.97-0.71-18.59,0.88
				c-0.62,1.58-2.01,2.68-2.63,3.06c-1.07,1.01-2.73,1.83-1.09,4.16c1.64,2.33,4.09,1.92,6.78,2.63
				C493.05,147.03,500.08,139.39,499.61,138.88z"/>
		</g>
	</g>
	<g id="婰蜰譇_55">
		<g>
			<path class="st25" d="M446.45,152.66c-1.21,0.72-5.43-1.82-1.31-4.59c4.12-2.77,10.72-1.97,10.72-1.97s-4.61-9.65-12.69-2.84
				c-5.63,4.49-2.57,8-1.31,9.19c1.38,0.19,4.36,1.31,4.37,1.53c0.01,0.22-1.59,1.59,1.97,1.75c2.49,0.23,4.42,0.23,6.78-4.38
				C456.4,148.31,449.73,154.07,446.45,152.66z"/>
		</g>
	</g>
	<g id="婰蜰譇_51">
		<g>
			<path class="st26" d="M493.48,184.82c-1.3-3.78-10.84-3.33-16.62-2.84c-6.05-0.17-6.27,2.38-8.53,2.63
				c-10.19-0.72-11.38,7.88-11.38,7.88c-0.57,4.29,1.9,1.79,2.84-0.22c4.94-5.78,3.57,0.45,12.47-3.94s11.75-0.19,17.06-2.41
				C492.66,185.94,494.78,188.6,493.48,184.82z"/>
		</g>
	</g>
	<g id="婰蜰譇_52">
		<g>
			<path class="st27" d="M499.83,137.13c-2.07-6.45-11.76-7.08-15.09-7.22c-3.34-0.14-10.67-3.38-8.97,3.06
				c1.7,6.44,3.42,1.41,5.47,0.44c5.77-3.83,14.65,1.46,16.41,3.06C499.4,138.07,500.41,139.37,499.83,137.13z"/>
		</g>
	</g>
	<g id="婰蜰譇_53">
		<g>
			<path class="st27" d="M489.98,134.73c-6.61-1.38-8.47,1.05-10.06,3.5c-0.94,1.5-2.48,1.58-3.72,2.84
				c-1.65,1.98,0.6,2.93,1.09,2.19c1.63-0.38,3.5-0.22,3.5-0.22s0.06-0.83-3.06-0.66c-0.98-0.48,1.45-1.25,2.62-1.97
				c1.17-0.72,1.45-2.56,1.31-1.75c-0.14,0.81,0.86,4.92,5.47,3.94c4.61-0.98,2.47-4.89,2.41-5.25c2.03-0.3,5.25,1.97,5.25,1.97
				s3.05-0.39,3.06-0.66C497.15,138.28,495.4,136.23,489.98,134.73z"/>
		</g>
	</g>
	<g id="楋錒瀎_1">
		<g>
			<path class="st28" d="M484.19,136.91c-0.79,0-1.42,0.64-1.42,1.42c0,0.79,0.64,1.42,1.42,1.42c0.79,0,1.42-0.64,1.42-1.42
				C485.61,137.55,484.97,136.91,484.19,136.91z"/>
		</g>
	</g>
	<g id="婰蜰譇_46">
		<g>
			<path class="st29" d="M452.58,136.04c-6.52,0.54-11.02,3.72-13.34,8.53c-2.32,4.81,0.96,7.8,2.41,8.09
				c1.45,0.3,2.41-0.88,2.41-0.88s-6.07,0.41-1.53-6.34c4.54-6.75,9.19-2.19,9.19-2.19c2.21,3.58,5.69-0.09,5.47-2.41
				C456.95,138.53,459.1,135.5,452.58,136.04z"/>
		</g>
	</g>
	<g id="婰蜰譇_47">
		<g>
			<path class="st27" d="M443.39,149.6c-0.29,2.54,1.93,3.84,2.19,3.94c1.08-0.2,1.31-1.31,1.31-1.31s-3.4-3.17,0.44-4.16
				c-0.2,0.44-0.83,3.71,2.63,3.28c2.63-0.43,3.26-2.75,1.97-3.94c1.2-0.46,3.94,0,3.94,0s0.12-0.99,0.22-1.09
				C454.18,145.35,444.09,143.19,443.39,149.6z"/>
		</g>
	</g>
	<g id="婰蜰譇_18">
		<g>
			<path class="st10" d="M292.23,79.16c-11.66-27.44-20.38-18.77-31.5-29.53c-11.12-10.76-27.12-3.72-27.12-3.72
				s-1.82,1.12-17.94-0.22c-16.12-1.34-5.78,4.55-14.22,3.5c-8.44-1.05-18.59,9.41-18.59,9.41s4.6,65.11,4.59,78.1
				s16.29,24.67,34.78,35c18.49,10.33,31.45-3.12,52.72-2.41s18-30.63,23.62-33.91C304.21,132.1,303.9,106.6,292.23,79.16z"/>
		</g>
	</g>
	<g id="婰蜰譇_26">
		<g>
			<path class="st30" d="M259.64,137.13c0,0-15.98-0.1-20.12,1.75c-6.43,2.39,7.78,2.44,12.47,1.97c2.73,0.18,7.45,0.76,9.19,0.44
				C266.71,140.96,261.47,137.47,259.64,137.13z"/>
		</g>
	</g>
	<g id="婰蜰譇_27">
		<g>
			<path class="st30" d="M209.11,148.73c-1.71-1.28-4.8-11.51-5.69-19.25c-0.89-7.74-0.02-12.81-5.03-13.56s-6.75,4.98-7.88,8.97
				c-1.12,3.99,2.26,22.96,7.44,28c5.17,5.04,16.98,14.25,22.31,11.59C225.6,161.82,210.82,150.01,209.11,148.73z"/>
		</g>
	</g>
	<g id="婰蜰譇_28">
		<g>
			<path class="st31" d="M230.98,48.97c-1.99-1.7-13.66-1.5-14.44-1.09c-0.78,0.41,0.1,4.85-6.12,3.72
				c-6.22-1.13-8.39,5.81-8.97,8.97s-15.3,15.45-7,0.44c8.3-15.01-9.41,0-9.41,0c5.71,1.14-0.26,41.16,0.66,47.91
				c0.92,6.75,8.79,3.99,11.16,3.06s14.76-24.54,10.28-23.85c-4.48,0.69-3.97-4.58-3.94-5.47c0.03-0.89-1.97-7.9,2.84-8.31
				c14.41,0.84,6.78-9.19,6.78-9.19l4.59-1.53c0,0-1.81-1.94,1.09-5.47c2.9-3.53,8.52-4.18,12.03-5.25
				C234.06,51.84,232.97,50.67,230.98,48.97z"/>
		</g>
	</g>
	<g id="婰蜰譇_29">
		<g>
			<path class="st32" d="M313.45,198.39c-5.1-5.83-17.66-22.05-8.97-38.72c12.91-21.24-0.45-15.12,4.16-30.85
				c4.61-15.73-8.63-19.07-8.31-24.28c2.16-4.23-2.16-10.43-6.56-22.97c-4.4-12.54-4.39-13.11-10.5-17.28
				c-6.11-4.17-9.29-3.9-12.91-5.47c-3.62-1.57-16.62-11.04-10.94-3.06c1.44,9.39-6.61-4.42-8.31-0.88
				c-3.66-5.58-13.04-1.65-16.19-2.63c-1.19,0.33,13.81,2.23,17.72,7.88c3.91,5.65,3.99,2.25,10.94,11.81
				c10.21,3.37,11.28,14.67,12.91,15.97c-0.14,2.44,0.28,15.58,4.59,23.41c4.32,7.83,2.14,26.63-0.88,39.6
				c-3.01,12.97-40.1,14.45-48.34,15.09c-8.25,0.64-5.1,0.47-0.22,3.5c42.67,9.08,40.5-0.28,51.84,8.53
				c2.25,3.52,12.22,17.99,16.6,25.77c1.43,1.4,1.14-7.9,2.61-6.51c12.7,12.52,22.87,19.89,22.56,18.36
				C324.72,212.96,318.55,204.22,313.45,198.39z"/>
		</g>
	</g>
	<g id="婰蜰譇_30">
		<g>
			<path class="st33" d="M283.92,77.63c-1.73-1.39-4.75-4.93-3.72,0.22c1.03,5.14-2.62,15.09-2.62,15.09s-0.87,1.8,0.88,1.75
				c1.74-0.05,1.18,1.28,5.03-6.13c3.85-7.41,2.16-2.15,8.97-2.19C299.26,86.34,285.65,79.02,283.92,77.63z"/>
		</g>
	</g>
	<g id="婰蜰譇_31">
		<g>
			<path class="st33" d="M299.67,127.07c-1.08-5.12-10.33-7.52-5.03-6.34c5.29,1.17,2.72-1.33,1.75-2.41
				c-0.97-1.08,2.2-6.93,0.22-5.03c-1.98,1.9-5.11,4.42-8.09,2.41c-2.99-2.01-3.5,0.66-3.5,0.66s-1.68,10.45,3.72,10.5
				C294.13,126.9,300.75,132.19,299.67,127.07z"/>
		</g>
	</g>
	<g id="婰蜰譇_20">
		<g>
			<path class="st34" d="M247.39,78.72c0.12,0.08,0.27,0.15,0.43,0.21C247.25,78.52,246.88,78.35,247.39,78.72z M287.64,131.23
				c3.68-3.14-1.1-14.85-3.28-17.5c-2.18-2.65-0.12-11.53-6.34-20.56c-1.54-8.24-3.51-8.48-10.06-11.16
				c-1.53-1.88-9.48-3.16-12.91-3.5c0,0-5.23,1.13-7.22,0.43c1.14,0.81,3.09,2.55,0.66,2.85c2.17,1.37-0.82,2.11,0.44,3.94
				c1.26,1.83,5.1,5.17,5.25,7.44c0.15,2.27,6.1,5.74,6.78,7.66c0.68,1.92,1.09,4.81,1.09,4.81s6.7-0.06,15.53,6.34
				c5.06,2.98,5,5.94,3.72,11.59c-2.54,2.35-5.37-1.7-4.81,4.38c0.56,6.08,3.24,14.69,0.88,15.75c-3.74,1.4,2.49-7.67-5.25-11.81
				c-1.46-1.28-3.14-2.88-3.5-4.59c-0.36-1.71-6.12-9.63-6.12-9.63s1.56-8.3-4.16-8.53c-5.72-0.23-14.99,4.05-16.41,7.22
				c-1.41,3.17-2.64,3.9,0.66,5.25c3.3,1.35,6.55,0.95,8.75,5.03c2.2,4.08,3,1.4,3.28,3.94s4.58,4.17,4.38,6.78
				c-0.9,2.07-2.17-0.41-5.03,0.22c-3.48,2.62,2.43,3.45,3.5,3.06c2.07,0.08,4.29,0.8,5.03,5.03s3.59,3.58,5.25,7.22
				c1.66,3.63-12.57-1.64-18.81,4.59c-3.05,3.27-8.02,0.14-7.88,2.84c-1.68,0.19-13.46-4.15-15.97,3.5c0,4,5.61,4.38,8.75,5.69
				c3.14,1.31,28.31-3.16,31.94-3.28c3.63-0.12,16.07,1.01,20.12-16.63C289.95,131.97,283.96,134.37,287.64,131.23z"/>
		</g>
	</g>
	<g id="婰蜰譇_24">
		<g>
			<path class="st16" d="M263.61,110.28c-0.89-1.79-2.09-7.45-2.22-7.93c-0.26,0.72-2.84,3.81-7.66,1.97c0,0-3.79-1.29-7,2.63
				c-1.58,1.93-5.15,4.25-6.8,7.01c-1.7,2.84-0.58,6.29,3.3,6.12c4.79-0.27,3.76-2.95,6.56-1.09c2.38,2.14,4.05,1.56,5.47,0.22
				c1.42-1.34,2.88-0.6,4.16,0c0.44,0.33,1.76,1.08,2.63,0.22c0.87-0.86,1.07-2.31,1.31-3.28
				C263.61,115.15,264.6,112.26,263.61,110.28z"/>
		</g>
	</g>
	<g id="婰蜰譇_25">
		<g>
			<path class="st16" d="M269.7,135.38c-1.6,0.15-6.01-7.34-14.44-4.81c-15.8-2.18-11.91,3.33-19.91,3.5c0,0-5.09-0.15-3.5,3.72
				c1.82,1.71,3.49-1.01,4.16-1.09c0.67-0.08,9-2.55,14.22-1.97c5.22,0.58,6.61-1.79,13.34,0.44c2.2,0.3,4.71,1.41,4.59,1.75
				c-0.11,0.34,2.16,3.7,3.94,0.88C272.98,135.48,271.31,135.23,269.7,135.38z"/>
		</g>
	</g>
	<g id="婰蜰譇_21">
		<g>
			<path class="st16" d="M261.39,85.5c0,0-6.34-5.01-6.78,1.53c-0.44,6.54,1.52,5.9,4.38,4.59c2.85-1.3,5.76-3.84,12.91,1.31
				C279.03,98.09,267.97,86.68,261.39,85.5z"/>
		</g>
	</g>
	<g id="婰蜰譇_23">
		<g>
			<path class="st35" d="M268.61,99.94c-2.9,0.43-5.79,0.47-7.81,0.23c0,0-1.39-1.59-2.04-1.98c1.28-2.97,7.08-3.95,10.06-3.28
				c2.98,0.67,3.46-3.17-2.84-4.16c-6.3-0.99-10.5,4.16-10.5,4.16c0.8,2.04,5.99,5.02,5.91,7.44c3.62,0.8,7.68-0.22,9.19-1.53
				C272.15,99.39,271.42,99.03,268.61,99.94z"/>
		</g>
	</g>
	<g id="婰蜰譇_22">
		<g>
			<path class="st36" d="M265.53,93.57c-5.11-0.26-7.42,4.18-7.42,4.18s1.25,1.38,1.09,0.66c0.08-1.29,3.75-3.13,3.28-2.84
				c-0.47,0.28-1.29,4.59,2.41,4.59c3.7,0,3.27-3.55,2.63-3.94c2.87,0.98,3.5,1.97,3.5,1.97s0.06,0.71-3.06,2.19
				c4.36,0.11,5.25-2.19,5.25-2.19C273.06,98.04,269.77,93.78,265.53,93.57z"/>
		</g>
	</g>
	<g id="婰蜰譇_17">
		<g>
			<path class="st37" d="M239.4,80.43c-0.35-1.59,0.05-3.07-4.92-3.24c-22.35,0.98-28.22,11.16-28.22,11.16s-1.95,0.17-2.62-1.97
				c-0.43-5.63-0.73-9.48-0.44-9.84c0.29-0.36,10.79-0.73,11.81-2.84c1.02-2.11-0.24-2.57-0.66-6.78c-0.7-1.15-1.75-2.02,1.09-2.41
				c1.75-0.6,2.12-1.81-0.44-1.53c-2.55,0.28-0.83-1.89-0.22-2.63c0.61-0.73,1.24-0.23,0-6.78c-1.24-6.55,8.08-1.66,7.22-4.16
				c-0.86-2.5-1.63,0.33-2.84-0.88c-1.21-1.2-4.18-1.21-5.47-1.53c-1.29-0.32-2.01-1.21-2.84,2.41c-0.83,3.62-0.69,0.89,1.09,4.81
				c1.79,3.92,1.67,5.65,0,2.84c-1.67-2.81-4.32-3.14-4.16,1.53c0.16,4.67-0.52,7.58,1.09,7.66c1.83-4.22,1.17,3.94,0.22,5.69
				c-0.95,1.75-8.6,1.29-8.97,1.31c-0.37,0.02-0.92-0.42-0.22,3.06c0.7,3.48,1.23,10.79-5.69,11.81
				c-6.92,1.02-3.38,23.29-3.28,24.28c0.09,0.99,9.04-1.3,14.44-7.66c2.63-1.11,3.48,0.01,9.63-1.09c5.22,1,9.79,0.48,11.37-0.44
				c11.8,1.58,11.86-7.46,11.59-8.75c-0.26-1.29,1.07-8.12,1.97-10.06C240.71,83.95,239.78,82.13,239.4,80.43z"/>
		</g>
	</g>
	<g id="婰蜰譇_16">
		<g>
			<path class="st38" d="M223.98,90.97c-2.47-0.22-4.26,0.04-8.97,3.5c-4.71,3.47-3.5,6.56-3.5,6.56s3.72,1.47,4.16,1.75
				c0.8,1.13,9.97,0.89,9.84-0.44c-0.38-4.08-2.33-0.5-3.06-3.72c-0.73-3.22,1.67-3.13,3.72-3.06
				C228.22,95.64,226.46,91.19,223.98,90.97z"/>
		</g>
	</g>
	<g id="婰蜰譇_15">
		<g>
			<path class="st39" d="M229.23,97.32c-2.96-0.28-1.8-3.95-7-3.94c-5.65,0.55-8.31,5.4-8.31,5.91c-0.01,0.51-2.35,1.56-1.53-0.66
				c0.81-2.21,4.41-8.06,11.59-6.78c7.19,1.28,3.4-3.75,0-3.28c-3.4,0.47-8.73-0.04-12.47,6.34c-3.25,3.63-3.56,4.7-5.47,3.28
				c-1.56,0.16-3.46,1.28-0.22,3.72c1.26,0.94,4.47,2.23,7.44,1.75c2.96-0.48,3.28-0.22,3.28-0.22s-0.98-1.95,1.53-3.06
				c2.51-1.12-1.57,0.36-2.19-0.44c0,0,0.75-2.33,2.19-3.06c1.44-0.73-0.41,3.38,3.72,3.28s2.19-3.94,2.19-3.94s3.28,2.31,3.72,2.19
				c0.44-0.13,3.92,0.44,2.62,1.31c-1.29,0.87-0.43,1.06,0.88,0.66C232.5,99.97,232.19,97.59,229.23,97.32z"/>
		</g>
	</g>
	<g id="婰蜰譇_1">
		<g>
			<path class="st40" d="M195.11,79.81c-1.67-15.5-0.29,6.24-15.53-28.66C169.96,18.23,135.85,3.8,128.83,3.5
				c-22.47-9.28-40.99,1.14-50.75,16.81c-14.54,19.88-14,35.88-14,35.88c0.56,1.68,1.02,17.79-1.53,23.19
				c-1.78,3.39-0.53,8.55-2.84,32.6c-2.31,24.04,11.29,17.31,12.47,17.28c1.18-0.03,7.53,2.84,8.31,4.81
				C113.28,135.2,196.78,95.32,195.11,79.81z"/>
		</g>
	</g>
	<g id="婰蜰譇_8">
		<g>
			<path class="st41" d="M164.7,91.41c-3.33,0.61-3.5-1.75-3.5-1.75s-2.6-1.72-4.38,0.88c-5.02,0.34,1.78-3.33,0.88-3.28
				c-0.91,0.04-4.65,0.98-4.16,0c0.49-0.98,4.12-4.4,3.28-5.69c-2.71-1.29,1.61-9.9-0.22-10.5c1.81-6.99,2.82-9-4.16-15.09
				c2.46,0.98,4.25,1.06,5.25,1.09c-4.12-10.17,10.44-10.95-5.25-22.75c-6.62-1.52-2.65,10.57-6.34,6.78
				c-1.17-8.58-4.33-13.34,0.44-15.53c-4.07-5.85-12.46-9.42-19.47-5.03c-7.01,4.39,3.06,21.66,3.06,21.66s10.25,27.97,10.72,30.41
				s-0.94,1.66-3.94,3.94c-10.27-6.31-15.58,24.66-9.63,27.78c1.04-0.04,2.12,3.07,0.88,4.16c-5.03,2.35-4.1-2.1-12.03-5.47
				c-13.49-4.25-23.32,2.49-25.37,4.81c-5.21,4.6-7.79,14.21-1.31,8.09c8.41-7.69,27.52-6.09,28.6-6.53
				c0.05-0.06,0.07-0.08,0.06-0.04c0,0.01-0.03,0.02-0.06,0.04c-0.51,0.7-3.99,7.49,4.65,9.15c-10.3-1.17-39.47,3.04-35.44,7.88
				c0.08,3.67-10.92-1.87-8.09-5.03c2.83-3.17-15.72-11.45-12.69,1.31c4.76,12.09,4.72,2.89,44.41,12.25
				c29.17-0.08,59.41-27.31,63.87-34.78C179.23,92.68,168.03,90.8,164.7,91.41z"/>
		</g>
	</g>
	<g id="婰蜰譇_14">
		<g>
			<path class="st42" d="M190.95,68c-4.4-7.01-8.69-12.47-8.69-12.47s-2.21-2.07-3.78-8.75c-0.26-7.06-12.16-21.13-14.87-23.19
				c-2.72-2.06-1.93-3.19-8.53-6.78s1.4,14.84-10.28,6.56c-11.68-8.28-5.4,24.05,1.75,26.03c5.89,5.14,0.68,10.46,4.16,13.56
				s-3.61,19.74-1.53,22.75c2.08,3.01-1.42,9.67,5.03,10.5c6.45,0.83,25.9-4.59,29.97-8.97C188.24,82.87,195.36,75.01,190.95,68z"/>
		</g>
	</g>
	<g id="婰蜰譇_12">
		<g>
			<path class="st43" d="M165.58,51.16c3.35,3.34,10.89-0.06,8.34-2.19c-2.55-2.13-3.38-4.81-4.81-9.41
				c-1.43-4.6-8.01-9.41-10.74-10.72c-2.73-1.31-3.3-2.02-3.33-0.36c-0.12,6.34-1.9,1.97-4.59,1.97c-2.7,0-1.97,6.31-3.67,6.92
				c-3.17-2.88-0.44-6.73-2.82-8.67c-2.37-1.94-3.02,5.99,0.14,14.8c3.17,8.81,6.02,5.96,8.58,8.53c2.56,2.57,3.51,2.86,7.86,7.2
				c4.35,4.34,1.96,0.33-0.44-3.5c1.27,0.02,0.38-1.46,7.67,3.3c4.4,1.88,3.2-0.81,0.88-3.72C164.16,53.46,162.8,49.05,165.58,51.16
				z"/>
		</g>
	</g>
	<g id="婰蜰譇_13">
		<g>
			<path class="st44" d="M211.95,159.23c-0.12-0.65,10.09,2.67-7.44-8.09c-11.51-8.15-6.24-24.8-13.56-38.28
				c2.23-5.01,0.17-3.07-0.66-3.5c-0.83-0.43,1.08-1.84,2.62-3.28c1.55-1.44-0.54-2.09,0-3.06c0.54-0.97,3.37-2.56,1.53-3.72
				c-1.84-1.16-3.33,5.32-3.5,1.53c-0.17-3.79,5.22-14.89,4.59-15.97c-0.62-1.08-1.14,6.01-0.44-3.94
				c0.71-9.94-5.25-16.43-4.37-15.31c0.87,1.12-22.28-28.23,0,6.34c-5-6.42-4.91,6.29-5.03,3.94c-1.86-2.03,2.71-6.57-1.53-8.31
				c-0.77-1.96-4.53-3.09-3.5-1.75c1.03,1.34,0.23,5.73-1.31,4.59c-1.54-1.14-3.25,0.25-2.84,1.75c2.13,7.78-0.96,12.56-1.75,14.22
				c-2.81,2.49-5.85-0.22-2.55-6.62c3.3-6.4,1.8-12.36,2.33-11.76c-4.85-4.59,8.97-4.36,2.63-6.56c1.12,1.59-8.2-4.97-10.06,3.5
				c-1.86,8.47,10.41,16.68-10.08,27.39c-4.94,1.62-5.74-0.61-4.91-1.64c-10.74,4.96,4.6,9.78-17.38,30.69
				c-21.98,20.91-56.82,10.43-64.31,7.88c-6.13-7.16-4.23-11.12-6.78-21c-2.9-1.87-1.63-22.45-2.63-22.1
				c-1,0.36-10.21,2.93-9.41,7.22c0.81,4.29,0.96,12.11,0.44,21.22c-0.52,9.11-11.85,5.91-17.72,1.31s-0.94-2.22-11.59-2.19
				c-10.65,0.03-1.21,7.67-0.22,10.94c0.99,3.27,0.52,3.54-3.72,4.59c-4.24,1.05-5.1,8.92-0.66,7.88c4.44-1.04,10.7,2.68,4.38,2.63
				c-6.33-0.06-8.06,7-5.47,8.75c2.59,1.75,4.86,4.81-7.88,5.69c-12.73,0.88-6.32,9.22,14.87,12.91
				c21.2,3.69,20.95-4.32,26.25-10.28s0.63-8.17,2.84-8.31c2.21-0.14,3.47-1.25,5.91-1.97c2.44-0.72-0.55-4.7,1.75-6.56
				c2.3-1.86,2.5,3.12,3.28,2.84c0.78-0.28,0.48-1.74,0.66-4.16c0.18-2.41,3.5-3.28,3.5-3.28s-1.41-5.54,1.09-5.25
				c2.5,0.28,3.93,5.77,8.53,5.69c4.6-0.08,9.79,7.53,11.16,9.84c1.37,2.31,1.03,5.38,3.5,5.25c2.47-0.13,4.06,0.98,4.16,2.63
				c4.1,8.42,7.7,8.07,10.72,7c3.02-1.07,10.01,16.19,17.28,3.72c1.42-3.2,16.27,12.51,20.12-1.31c0.36-2.99,2.09-16.85,4.4-6.54
				c0,6.22,12.09-17.63,15.29-4.83c1.07,2.13-0.75,11.62,5.69-1.31c11.41-17.04,10.41-1.48,28.66,9.41
				c-0.24,5.34,10.94,11.59,10.94,11.59s-2.17-6.29,0.22-7c10.41,0.21,6.63,6.35,8.53,3.94c1.9-2.41,10.28,0,10.28,0
				S215.15,160.34,211.95,159.23z"/>
		</g>
	</g>
	<g id="婰蜰譇_13_膰歞_2">
		<g>
			<path class="st45" d="M211.95,159.23c-0.12-0.65,10.09,2.67-7.44-8.09c-11.51-8.15-6.24-24.8-13.56-38.28
				c2.23-5.01,0.17-3.07-0.66-3.5c-0.83-0.43,1.08-1.84,2.62-3.28c1.55-1.44-0.54-2.09,0-3.06c0.54-0.97,3.37-2.56,1.53-3.72
				c-1.84-1.16-3.33,5.32-3.5,1.53c-0.17-3.79,5.22-14.89,4.59-15.97c-0.62-1.08-1.14,6.01-0.44-3.94
				c0.71-9.94-5.25-16.43-4.37-15.31c0.87,1.12,2.63,5.63,0,6.34c-6.48-6.45-1.38,21.52-21,16.85c-5.61-2.62-13.49,16.18-21.22,2.63
				c0.45,5.01,8.2,9.06-13.78,29.97c-21.98,20.91-56.82,10.43-64.31,7.88c-0.44,1.78,2.72,4.61,7.44,6.56
				c58.56,37.97,81.55-32.31,132.12,28.44c10.41,0.21,6.63,6.35,8.53,3.94c1.9-2.41,10.28,0,10.28,0S215.15,160.34,211.95,159.23z"
				/>
		</g>
	</g>
	<g id="婰蜰譇_13_膰歞">
		<g>
			<path class="st46" d="M193.36,103c0.54-0.97,2.94-2.56,1.09-3.72c-1.84-1.16-3.48,2.25-3.5,0c-1.74,10.3-37.16,11.94-43.75,20.78
				c-6.59,8.85-69.29,11.74-76.78,9.19c5.43,3.7,4.6,4.37,9.84,5.91c11.56,8.17,25.22,11.9,38.16,9.59
				c22.81-7.55,35.28-3.85,41.46-24.9c2.64,1.8,4.48,6.63,11.23,0.49c4.14-1.05,7.45,3.62,12.55-1.45c8.56-0.27,1.91-5.42,7.28-6.04
				c2.23-5.01,1.04-3.72,0.22-4.16c-0.83-0.43,0.2-1.18,1.75-2.63C194.47,104.62,192.82,103.98,193.36,103z"/>
		</g>
	</g>
	<g id="婰蜰譇_7">
		<g>
			<path class="st47" d="M109.58,60.56c-2.3-4.17-5.4-18.42-7.87-16.85c-2.48,1.58-3.08,19.75-3.28,25.81
				c-0.16,4.86-3.71,6.01-7.6,6.55c-4-0.81-2.9-5.23-2.9-5.23c-0.58,2.09-2.57,9.76,0.2,15.39c2.41,4.88,22.36-4.72,24.73-6.42
				S111.88,64.73,109.58,60.56z"/>
		</g>
	</g>
	<g id="婰蜰譇_10">
		<g>
			<path class="st48" d="M153.98,63.19c-3.32,0.23-3.12,2.42-4.59,7s8.17,3.75,1.97,6.13c-6.2,2.37,1.28,5.7-8.09,3.5
				c-9.37-2.2-3.88-0.32-8.53,4.81c-4.65,5.13,8.94,5.34,7.22,9.63c-1.72,4.29-3.2,2.78-10.72,2.84c-7.52,0.06-4.22,7-0.22,8.31
				c4,1.31,0.29,3.99-1.31,4.81c-1.61,0.82-2.18,0.31-6.12,1.31c-3.95,1,0.41,1.9,1.75,3.5c1.34,1.6,4.85,0.8-2.19,2.63
				c-7.03,1.82,2.87-4.28-1.97-2.19c-4.84,2.09-3.11-3.55-2.63-5.91c0.49-2.36-1.5-3.19-2.19-5.03c-0.69-1.84-1.45-2.83,0-4.81
				c1.45-1.98-1.08-4.08-1.53-4.16c-0.46-0.08-0.93-3.45-0.66-5.25c0.28-1.8,1.87-2.37,0.44-7.88c-1.43-5.51-2.41-2.19-2.41-2.19
				s-21.8,4.24-21.44,8.53c2.4,3.13,4.08,9.51,4.59,10.94c0.52,1.43,2.19,4.81,2.19,4.81s-0.06,1.08-1.53,1.31
				c-9.55,4.13,0.35,7.43,2.11,5.55c0.99-1.06,2.42-0.23,6.64,3.2c7.38,5.57,1.31,7.17,0.22,7.66c-1.59-1.15-4.21,0.4-5.47,0.88
				c-2.77,0.48-3.79-0.48-7.88,0.44s-4.75,2.62-2.84,2.84c-0.62,1.49-3.29,3.18-5.91,1.31c-1.35-1.49-13.29-2.3-14.44-0.88
				c0.79,1.11,1.77,2.12,2.84,3.06c1.82-0.44,7.27,2.05,8.97,3.28c1.7,1.23,8.52,4.98,9.84,5.03c7.64-3.23,29.46,0.45,36.97-1.09
				c4.1-1.93,15.71-8.17,19.69-16.41c2.71-9,4.81-9.45,5.47-18.16c-1.23-5.08,1.55-5.57,3.62-6.19c0,0-3.66-0.22-4.65-1.9
				c-1.68-3.44,5.34-5.77,3-5.25c-2.34,0.52-2.96-2.03,0.22-4.59c3.17-2.56,1.75-2.23,0.44-3.06c-1.31-0.83,1.06-5.98,1.53-10.94
				C156.87,65.67,157.3,62.96,153.98,63.19z"/>
		</g>
	</g>
	<g id="婰蜰譇_11">
		<g>
			<path class="st49" d="M119.42,94.03c-2.5,0.73-0.66,4.35-6.56,1.53c-4.52-1.81-6.73-0.21-12.69,0
				c-5.96,0.21-11.96,3.27-15.75,7.44c0,0-5.56,1.92-0.22,3.72c1.68,0.16,2.59-2.4,2.84-3.28c3.15-1.14,7.63-6.13,11.81-4.38
				c4.06,2.26,6.38-4.24,18.59,1.09c4.52,1.92,4.38-2.41,4.38-2.41S125.07,91.92,119.42,94.03z"/>
		</g>
	</g>
	<g id="婰蜰譇_9">
		<g>
			<path class="st46" d="M112.86,79.16c-1.99-2.31-5.11-2.06-8.09-5.47c-3.24-3.28-6.21-1.02-7.44,0.44s-8.99,5.21-9.63-0.22
				c0,0-1.74,4.39,1.75,9.41c0.21-0.41,1.17,1.52,0,1.75c-3.32-0.02,0.77,3.67,1.31,3.72c1.8,0.05,3.14-4.83,5.25-0.88
				c1.85,2.94,6.27-0.38,6.34-2.19c0.58-1.68,0.38-2.83,3.94-1.75c3.56,1.08,5.41-1.04,6.13-1.75
				C113.14,81.51,113.84,80.09,112.86,79.16z"/>
		</g>
	</g>
	<g id="婰蜰譇_2">
		<g>
			<path class="st50" d="M150.27,54.44c-14.06-16.6-25.65-11.45-27.34-14.22c-5.81-4.21-14.25-2.78-16.84-1.09
				c-2.6,1.68-9.41,2.63-9.41,2.63c6.27,0.9,6.63,3.57,7.22,9.41c7.93,19.8,15.71,19.76,22.53,19.47
				c6.82-0.29,15.02,4.77,15.75,5.03c0.73,0.26,5.18-2.59,5.69-5.91C149.08,64.64,145.52,56.72,150.27,54.44z"/>
		</g>
	</g>
	<g id="婰蜰譇_5">
		<g>
			<path class="st51" d="M142.61,56.41c-2.33-0.42-3.15-1.17-4.81-3.94c-0.75-2.42-4.5-9.11-10.94-8.75
				c-15.8-4.09-23.37,5.81-17.06,3.28c6.3-2.52,6.78,4.16,6.78,4.16c12.9-8.68,17.63,5.45,21.87,8.09
				C141.79,59.39,144.83,55.92,142.61,56.41z"/>
		</g>
	</g>
	<g id="婰蜰譇_6">
		<g>
			<path class="st52" d="M134.95,57.94c0,0-3.01-6.88-10.94-6.56c-6.26,0.91-7.85,4.48-7.66,6.34c0,0-4.36,1.07-3.94,1.75
				c0.42,0.68,0.42,2.23,1.75,1.75c1.33-0.48,1.63-1.84,8.75-1.75c5.45,0.68-3.74-1.16-6.13-0.44c0.08-0.45,1.6-4.28,4.16-4.38
				c-0.88,3.34,6.21,5.84,6.34,0.66c0.53-2.04,5.66,1.5,4.59,2.19c0.31,0-3.5,1.53-3.5,1.53L134.95,57.94z"/>
		</g>
	</g>
	<g id="婰蜰譇_3">
		<g>
			<path class="st53" d="M94.27,40c0,0-2.22,4.88-9.84,1.97c-7.26-0.77-7.77,1.62-7.87,2.84c-0.1,1.22-9.77,2.69-12.46,12.71
				c1.97,10.03,2.15,14.53,4.36,14.85c0,0,0.86,4.06,4.16,1.75c3.3-2.31,5.69-1.31,5.69-1.31s7.55,0.02,10.28-4.16
				c3.8-20.65,2.63-22.53,2.63-22.53S94.27,41.79,94.27,40z"/>
		</g>
	</g>
	<g id="婰蜰譇_4">
		<g>
			<path class="st54" d="M72.27,63.08c-1.67-1.47,1.46-8.14,10.62-7.55c9,0.57-13.23-8.08-13.34,9.19
				c-1.81,2.81-3.06,5.69-3.06,5.69s3.44-0.55,6.78-2.84c1.57,0.49,0.58-3.71,1.97-3.94c-0.13,4.94,7.26,3.38,5.69-1.75
				c0.03-1.67,5.74,1.12,7.44,0.88C94.04,61.37,75.22,54.6,72.27,63.08z"/>
		</g>
	</g>
</g>
</svg>
