<?xml version="1.0" encoding="utf-8"?>
<!-- Generator: Adobe Illustrator 23.0.1, SVG Export Plug-In . SVG Version: 6.00 Build 0)  -->
<svg version="1.1" id="Layer_10" xmlns="http://www.w3.org/2000/svg" xmlns:xlink="http://www.w3.org/1999/xlink" x="0px" y="0px"
	 viewBox="0 0 188.55 254.37" style="enable-background:new 0 0 188.55 254.37;" xml:space="preserve">
<style type="text/css">
	.st0{fill:#FFFFFF;}
</style>
<g>
	<path class="st0" d="M146.66,0c-39.53,0-71.93,30.51-74.94,69.26c-3.02-0.56-6.13-0.86-9.31-0.86c-14.79,0-28.1,6.35-37.35,16.47
		c-1.12-0.39-2.32-0.6-3.57-0.6c-6.05,0-10.96,4.91-10.96,10.96c0,3.28,1.44,6.22,3.72,8.23c-1.58,4.89-2.43,10.11-2.43,15.53
		c0,17.75,9.15,33.36,22.99,42.39c-3.59,2.34-6.87,5.13-9.75,8.28c-1.12-0.39-2.32-0.6-3.57-0.6c-6.05,0-10.96,4.91-10.96,10.96
		c0,3.28,1.44,6.22,3.72,8.23c-1.58,4.89-2.43,10.11-2.43,15.53c0,27.94,22.65,50.59,50.59,50.59c20.47,0,38.1-12.16,46.06-29.65
		c11.19,6.62,24.25,10.42,38.19,10.42c15.51,0,29.92-4.7,41.89-12.75V137.6V97.54V12.75C176.58,4.7,162.17,0,146.66,0z"/>
	<path class="st0" d="M65.24,64.8c3.44,0,6.24-2.79,6.24-6.24c0-3.44-2.79-6.24-6.24-6.24c-3.44,0-6.24,2.79-6.24,6.24
		C59.01,62,61.8,64.8,65.24,64.8z"/>
	<path class="st0" d="M2.29,97.35C1.03,97.35,0,98.37,0,99.64c0,1.27,1.03,2.29,2.29,2.29c1.27,0,2.29-1.03,2.29-2.29
		C4.58,98.37,3.56,97.35,2.29,97.35z"/>
	<path class="st0" d="M2.29,182.14c-1.27,0-2.29,1.03-2.29,2.29c0,1.27,1.03,2.29,2.29,2.29c1.27,0,2.29-1.03,2.29-2.29
		C4.58,183.17,3.56,182.14,2.29,182.14z"/>
</g>
</svg>
