<?xml version="1.0" encoding="utf-8"?>
<!-- Generator: Adobe Illustrator 23.0.1, SVG Export Plug-In . SVG Version: 6.00 Build 0)  -->
<svg version="1.1" id="圖層_1" xmlns="http://www.w3.org/2000/svg" xmlns:xlink="http://www.w3.org/1999/xlink" x="0px" y="0px"
	 viewBox="0 0 485 223" style="enable-background:new 0 0 485 223;" xml:space="preserve">
<style type="text/css">
	.st0{fill:#EF870B;}
	.st1{fill:#002664;}
	.st2{fill:#BB133E;}
	.st3{opacity:0.26;}
	.st4{fill:#FFFFFF;}
</style>
<g>
	<polygon class="st0" points="120.9,40 3.9,58.5 3.9,18.5 120.9,0 	"/>
	<g>
		<path class="st1" d="M53,68.4v13.8l-8.5,1.3v-6.7l-34.2,5.4V89l-8.1,1.3V76.5l20.6-3.3c-0.4-0.9-0.8-1.9-1-2.8l9.4-3.2
			c0.7,1.3,1.4,2.9,1.9,4.3L53,68.4z M4.8,105.8l45.6-7.2v22.3l-8.4,1.3v-1.3l-29.1,4.6v1.3l-8,1.3C4.8,128.1,4.8,105.8,4.8,105.8z
			 M9.3,90.9l36.1-5.7v12.7l-36.1,5.7C9.3,103.6,9.3,90.9,9.3,90.9z M43.1,78.6v5.6l-31.4,5v-5.6L43.1,78.6z M12.8,110.6v1.8
			l10.3-1.6V109L12.8,110.6z M23,117.8v-1.9l-10.3,1.6v1.9L23,117.8z M17,97.1l20.1-3.2v-2L17,95.1V97.1z M41.9,106l-10.5,1.7v1.8
			l10.5-1.7V106z M41.9,114.8v-1.9l-10.5,1.7v1.9L41.9,114.8z"/>
		<path class="st1" d="M66.7,71.6l-10,1.6v-6.9l10-1.6v-2.3l8.4-1.3v2.3l7.2-1.1v6.9l-7.2,1.1v2.2l-8.4,1.3V71.6z M107.4,103.8
			c0,3.3-0.6,5.2-2.6,6.7s-4.6,2-7.8,2.5c-0.2-1.6-1-3.8-1.8-5.4l-3,4.4c-1.2-1.2-3.9-3-6.1-4.4v6.4l-6.5,1v-5.9
			c-2.2,2.5-5,4.8-7.7,6.4c-1-1.3-2.9-3.3-4.3-4.2c2.7-1.2,5.6-2.9,7.8-4.8l-5.4,0.8V95.6l9.6-1.5v-1.1L69,94.8v-4.2l10.7-1.7v-1.3
			l-12.8,2v28.5l-7.9,1.3V75.9l22.4-3.6v14.4l2.9-0.5V71.8l23.1-3.7C107.4,68.2,107.4,103.8,107.4,103.8z M66.8,79.2v1.1l7-1.1v-1.1
			L66.8,79.2z M73.9,84v-1.1l-7,1.1v1.1L73.9,84z M75.3,102.7l1.8-0.3c-0.3-0.8-1-1.8-1.5-2.6l2.8-1.5c0.6,0.8,1.4,1.9,1.8,2.7
			l-2.1,1.3l2.3-0.4V98l-5.1,0.8V102.7z M109.4,58v6.9l-9.3,1.5v2.2l-8.4,1.3v-2.2l-7.7,1.2V62l7.7-1.2v-2.3l8.4-1.3v2.3L109.4,58z
			 M85.7,100.3c0.5-1,1.1-2.5,1.5-3.4l-1.6,0.3v3.9l1.8-0.3L85.7,100.3z M89.9,104.4c1.8,0.7,3.8,1.6,5,2.1c1.4-0.2,3.1-0.4,3.6-0.5
			c0.6-0.1,0.8-0.4,0.8-1V84.6l-13.1,2.1v1.2l11.4-1.8v4.2L86.2,92v1.1l9.8-1.6v11.9L89.9,104.4z M90.3,97.5l-1.9,3.1l2.1-0.3v-3.9
			l-2.7,0.4L90.3,97.5z M91.9,75.3v1.1l7.4-1.2v-1.1L91.9,75.3z M91.9,81.1l7.4-1.2v-1l-7.4,1.2V81.1z"/>
		<path class="st1" d="M156.3,95.2c1.8-0.3,2.1-1.3,2.3-8c1.8,1.1,5.5,1.9,7.9,2.1c-0.9,9.9-3.1,12.8-9.4,13.8l-6.5,1
			c-7.7,1.2-9.5-1.1-9.5-8.7v-9.4l-5.6,0.9c-1.1,9.9-4,17.3-20,23.6c-0.8-2.2-3.1-5.5-4.9-7.1c13.1-4.4,14.9-8.6,15.7-15l-7.1,1.1
			V70l15.1-2.4V64l-21,3.3v-7.7l21-3.3v-4.6l8.7-1.4v4.6l21.7-3.4v7.7l-21.7,3.4v3.6l16.2-2.6v19.6l-9.3,1.5V94
			c0,2.1,0.3,2.2,2.1,1.9L156.3,95.2z M127.4,80.8l22.9-3.6v-4.6l-22.9,3.6C127.4,76.1,127.4,80.8,127.4,80.8z"/>
		<path class="st1" d="M188.1,80.9c-0.8-1.6-2.1-3.5-3.3-5.4v23.8l-8.3,1.3V80.3c-1.8,4.6-3.9,8.9-6.2,12.1
			c-0.8-2.4-2.8-5.7-4.2-7.7c4-5.1,7.3-12.7,9.2-19.4l-7.5,1.2v-8l8.7-1.4V45.1l8.3-1.3v12l7.3-1.2v8l-7.3,1.2v0.8
			c1.8,1.4,7.3,6.9,8.6,8.2L188.1,80.9z M212.9,59.3c2.4,7,6.1,13.9,10.1,18c-2,1.8-4.9,5.1-6.3,7.6c-2-2.7-3.8-6.2-5.4-10.2v20.5
			l-8.6,1.3V75.2c-2.6,5.7-5.6,11-9.1,15c-0.9-2.3-3.2-5.2-4.7-7.1c5.3-5.9,9.8-14.2,12.5-22l-7.9,1.3v-8l9.2-1.5V40.9l8.6-1.3v11.9
			l10-1.6v8L212.9,59.3z"/>
		<path class="st1" d="M243.4,76.2c-6.2,3.6-13.1,7.5-18.6,10.5l-2.8-8.3c1.8-0.8,4-1.9,6.5-3.1V58.7l-5.8,0.9v-8l5.8-0.9v-13
			l8.1-1.3v13l5.9-0.9v8l-5.9,0.9v13.9l5-2.6L243.4,76.2z M277.4,75.1V83l-36.1,5.7v-7.9L277.4,75.1z M274.5,70.8l-30.4,4.8V37.9
			l30.4-4.8V70.8z M265.6,42.3l-13.1,2.1v7.1l13.1-2.1V42.3z M265.6,57.2l-13.1,2.1v7.3l13.1-2.1V57.2z"/>
		<path class="st1" d="M298.8,27.8c-1.4,5-3,9.9-5.1,14.6v39.9l-8.4,1.3V57.4c-0.9,1.3-1.9,2.5-2.9,3.6c-0.9-1.7-3.5-5.4-5-7
			c6.1-6.6,10.8-16.5,13.3-26.8L298.8,27.8z M330.1,31.1v44.8l-8.9,1.4v-2.4l-14.4,2.3V80l-8.5,1.3V36.1l8.9-1.4
			c1.1-3.5,2.1-7.5,2.7-10.8l10.1-0.1c-1.2,3.3-2.5,6.5-3.7,9.4L330.1,31.1z M321.2,40.5l-14.4,2.3v8.7l14.4-2.3V40.5z M321.2,66.3
			v-8.7l-14.4,2.3v8.7L321.2,66.3z"/>
		<path class="st1" d="M358.4,56.1c0.2,2.2,0.8,5.3,1.4,6.9c-12.3,7.1-14.7,8.8-16.2,10.2c-0.6-1.6-2.2-4.1-3.4-5.2
			c1.4-1,3-3.1,3-5.6v-6.6l-8.2,1.3V36.4l6.3-1V49l1.9-0.3V32.4l-8.8,1.4v-7.2l8.8-1.4v-6.5l7.2-1.1v6.5l8.9-1.4v7.2l-8.9,1.4v16.3
			l1.8-0.3V33.7l6.6-1v20.7l-8.4,1.3v5.7L358.4,56.1z M381.9,56.2c2.8,1.9,6.1,4.4,7.9,6.1l-6.2,5.9c-1.8-2.2-5.7-5.4-8.7-7.6l4.4-4
			l-10.9,1.7l5.2,2.5c-3,3.8-8.3,8.2-12.7,10.8c-1.4-1.3-3.8-3.3-5.5-4.5c3.8-2,7.8-5.5,10.4-8.3l-3.9,0.6V29.5l7.4-1.2
			c0.1-1.4,0.2-2.9,0.3-4.2l-9.6,1.5v-7.5l28.5-4.5v7.5l-9.9,1.6c-0.4,1.5-0.8,3-1.2,4.4l9.3-1.5v29.8L381.9,56.2z M378.5,33.2
			l-9,1.4v1.9l9-1.4V33.2z M378.5,40.8l-9,1.4v1.9l9-1.4V40.8z M378.5,48.6l-9,1.4v1.9l9-1.4V48.6z"/>
	</g>
	<g>
		<path class="st1" d="M52.9,196.2c8.9,1.4,19.4,3.4,25.4,5.1l-5.6,11.4c-7.3-2.5-22.6-5.8-32.9-7.7l3.9-7.3l-2.5,0.4
			c-4,10.1-13,17.8-35.1,24.9c-0.9-3.1-3.7-7.6-6-9.9c14.6-4.1,22.2-8.1,26.3-12.7L3.9,204v-10.1l27.1-4.3c0.2-1,0.3-2,0.4-3.1
			L2,191.2v-10.4l31.1-4.9v-2.9l-23.9,3.8v-10l23.9-3.8v-2.7l-28.7,4.6v-10.5l14.8-2.3c-1-1.9-2.3-3.9-3.6-5.4l10.7-5.8
			c2.4,2.4,4.7,5.8,5.7,8.4l-2.1,1.3l16.1-2.6c2-3.4,4-7.7,5.3-11l13.1,1c-1.7,2.8-3.3,5.6-4.9,7.9l15-2.4v10.5l-28.8,4.6v2.7
			l24.8-3.9v10L45.5,171v2.9l32.4-5.1v10.4l-33.8,5.4c-0.2,1.1-0.3,2.1-0.4,3.1l31.2-4.9v10.1L52.9,196.2z"/>
		<path class="st1" d="M153.8,124.6v75.3l-11.9,1.9v-3.2l-48.6,7.7v3.2L82,211.3v-75.3L153.8,124.6z M141.9,187.8v-50.6l-6.3,1
			c1.9,0.9,3.7,1.9,4.7,3l-3,3.5l2.8-0.4v8.3l-13.4,2.1c0.3,3,0.6,5.9,0.9,8.4c1-2.4,1.8-5,2.5-7.6l9.1,0.4
			c-2,7.2-4.9,13.8-8.6,19.7c0.7,1.3,1.4,2,2.1,2.1c0.8,0.2,1.3-3,1.6-7.6c1.7,1.5,5.4,3.9,7.3,4.6c-1.3,11-6.6,15-12.6,12.9
			c-1.9-0.4-3.6-1.6-4.9-3.4c-2.3,2.6-4.7,5-7.3,7c-1.1-1.4-3.7-4-5.6-5.6c-5.6,1.6-11.1,3.2-15.9,4.5l-0.9-8.4
			c5.9-1.3,14.1-3.4,22.5-5.5l0.1,3.3c1.2-1.2,2.2-2.4,3.2-3.7c-1.6-5.4-2.5-12.2-3.1-19.7l-21.7,3.4v-8.3l21.1-3.4
			c-0.2-2-0.3-3.9-0.3-6l9.8-1.6c0.1,2.1,0.1,4,0.2,6l6-0.9c-1.4-0.9-3-1.8-4.4-2.4l3.8-4.3l-38.4,6.1v50.6L141.9,187.8z
			 M115.7,174.6l-18.6,2.9V162l18.6-2.9V174.6z M107.9,166.3l-3.3,0.5v3.6l3.3-0.5V166.3z"/>
		<path class="st1" d="M177.8,165.9c-0.7-1.8-1.7-4.3-2.9-6.7v37.1l-10.2,1.6v-28.2c-1.3,4.6-2.9,8.7-4.5,11.9
			c-0.7-3.3-2.9-8.3-4.3-11.2c3.6-6,6.6-16.1,8.3-24.8l-6,0.9v-11.1l6.5-1v-15.1l10.2-1.6v15.1l5-0.8v11.1l-5,0.8v2.6
			c1.7,2.1,6.8,9,7.9,10.7L177.8,165.9z M231.3,162.8c-2.2,4.6-5,8.9-8.3,12.8c1,0.7,2.1,1,3.1,1c1.5-0.1,2.3-3.1,2.9-8.9
			c1.7,2,5.6,4.3,7.4,5.1c-2.4,11.5-6.3,14.9-10,15.2c-4.6,0.3-8.4-1.2-11.6-4.4c-3.8,3.2-7.9,5.9-12.4,8.2
			c-1.2-1.9-4.1-5.1-6.1-6.7c5.1-2.5,9.7-5.5,13.6-9c-1.6-3.2-2.8-7.1-3.9-11.6l-10,1.6l-0.2,1.2c3.1,2.1,7.7,4.9,9.9,6.8l-7.1,8.2
			c-1.2-1.1-3.1-2.7-5-4.2c-2,5.9-5.4,11.8-10.7,16.9c-1.6-1.6-5.9-4.6-8-5.5c8.2-7.3,10.5-15.3,11.1-21.7l-4.1,0.6v-9l22.5-3.6
			c-1.2-7.8-2.1-16.8-2.7-26.9c-2.1,4.5-4.6,8.9-7.3,13.1l6.4-2.7c1.1,3.6,2.3,8.4,2.7,11.3l-7.3,3.3c-0.1-0.7-0.2-1.5-0.3-2.4
			c-8.8,2.7-10.8,3.6-12,4.5c-0.5-1.6-1.7-5.5-2.7-7.5c1.4-0.6,2.7-2.2,4.1-4.4c0.7-0.9,1.8-3,3.2-5.6c-3.4,0.9-4.7,1.6-5.5,2.1
			c-0.5-1.7-1.8-5.4-2.7-7.4c1.1-0.5,2.1-1.6,2.9-3.4c0.8-1.6,3.5-7.7,4.7-13.6l8.5,0.8c-1.6,4.7-4.1,9.9-6.4,14.1l2.3-0.4
			c0.7-1.7,1.3-3.4,1.9-5.1l7.4,1.2c-0.2-3.9-0.3-8-0.5-12.3l9.8-1.6c0.2,10.9,0.7,20.9,1.6,29.6c1.4-0.7,2.6-2.2,4.1-4.4
			c0.7-0.9,1.8-3,3.2-5.6c-3.5,1-4.8,1.6-5.6,2.1c-0.5-1.7-1.8-5.3-2.8-7.4c1.1-0.4,2.1-1.7,2.9-3.3c0.8-1.5,3.3-7.4,4.5-12.9
			l8.5,0.8c-1.6,4.5-3.9,9.4-6.1,13.4l2.3-0.5c0.7-1.7,1.3-3.4,1.9-5.1l8.5,1.4c-2.4,5.3-5.4,10.7-8.5,15.5l6.4-2.7
			c1.3,3.5,2.9,8.4,3.6,11.3l-7,3.4c-0.2-0.9-0.3-1.9-0.7-3l-3.1,1c1.8,1.3,4,2.7,5.2,3.7l-2.1,2.1l6.4-1v9l-8.8,1.4L231.3,162.8z
			 M194.1,142.4c-0.7,1.1-1.5,2.2-2.2,3.2l2.8-0.8L194.1,142.4z M220.6,147.5c-3.5,1.2-4.6,1.8-5.5,2.4c-0.4-1.5-1.6-5-2.5-7.1
			c0.5,4.1,1,7.9,1.6,11.4l5.4-0.9c-1-0.8-2-1.5-2.8-2.1L220.6,147.5z M216.1,162.9c0.5,1.7,1,3.1,1.5,4.6c1.2-1.7,2.2-3.5,3.1-5.3
			L216.1,162.9z M225.1,136.6c-0.7,1-1.3,2-2,3l2.7-0.7L225.1,136.6z"/>
		<path class="st1" d="M283.1,103.6c-0.4,0.6-0.8,1.1-1.2,1.7c7.4,5,20.7,8,34,8.3c-2.5,2.5-5.9,7.3-7.5,10.3
			c-1.3-0.1-2.7-0.3-4-0.5v21.6l-58.7,9.3v-21c-1.4,0.7-2.9,1.4-4.3,2c-1.2-2.1-4.2-6.4-6.2-8.3c15.4-5.8,30.1-14.8,37.5-25.3
			L283.1,103.6z M249.9,155.4l50.1-7.9v28.7l-12.4,2v-1.6l-25.9,4.1v2l-11.8,1.9L249.9,155.4L249.9,155.4z M298.4,122.2
			c-3.1-0.7-6.1-1.5-8.9-2.6v1.9l-29.4,4.7v-1.3c-2.5,1.6-5,3.1-7.5,4.6L298.4,122.2z M259,144.9c-0.3-2.3-1-5.3-1.8-7.6l5.5-2.3
			l-7.3,1.1v9.3L259,144.9z M261.7,161.2v2.1l25.9-4.1V157L261.7,161.2z M287.7,168.9v-2.1l-25.9,4.1v2.1L287.7,168.9z M269.6,134
			l-4,0.6c1.1,2.5,1.9,5.5,2.1,7.6l-4.7,2.1l6.6-1.1V134z M280.3,115.4c-1.6-0.9-3.2-2-4.7-3c-1.6,1.6-3.1,3.1-4.9,4.5L280.3,115.4z
			 M279.2,132.5v9.3l5.5-0.9l-4.2-0.4c0.9-2.5,1.9-5.9,2.5-8.6L279.2,132.5z M293.7,130.2l-6,1l5.3,0.3c-1.5,3.3-2.8,6.4-3.9,8.7
			l4.6-0.7L293.7,130.2L293.7,130.2z"/>
		<path class="st1" d="M359.3,151.7v3.4l26.4-4.2v9.8L322,170.7v-9.8l25-4v-3.4l-13.4,2.1v-5c-3.9,3.8-8.2,7.2-12.7,9.9
			c-1.6-2.5-5.1-6.1-7.6-8c5.5-2.8,10.8-6.6,15.1-10.8l-14.4,2.3v-9.8l15.5-2.4v-23.7l-10.7,1.7v-9.6l10.7-1.7v-5.3l12.1-1.9v5.3
			l23.7-3.8v-5.2l12.3-1.9V91l10.7-1.7v9.6l-10.7,1.7v23.7l15-2.4v9.8l-13.5,2.1c4.2,2.6,9.3,4.5,14.3,5.5
			c-2.6,2.6-6.1,7.4-7.9,10.5c-4.3-1.3-8.6-3.4-12.4-6.2v5.9L359.3,151.7z M347,144.3v-4.2l12.2-1.9v4.2l10.2-1.6
			c-1.6-1.5-3.2-3-4.6-4.6l-22,3.5c-1.4,2.1-2.9,4.1-4.5,6.1L347,144.3z M341.6,106.3v2.5l23.7-3.8v-2.5L341.6,106.3z M341.6,119.4
			l23.7-3.8v-2.5l-23.7,3.8V119.4z M341.6,130l23.7-3.8v-2.4l-23.7,3.8V130z"/>
		<path class="st1" d="M438.1,110.6v7.1l25.1-4v10.7l-10.1,1.6l6.5,1.3c-2.6,4.6-5.4,9.1-7.7,12.7l15.9-2.5v10.9l-72.2,11.4v-10.9
			l15-2.4c-1.4-3.3-3.8-7.6-6.2-10.8l5-2.9l-9.5,1.5v-10.7l25.2-4v-7.1l-16.2,2.6v-3.8c-3,1.8-6.1,3.5-9.3,5.1c-1.6-3.2-5-7.3-8-9.9
			c15.7-6.7,30.5-16.6,38.3-30.2l11.4,3.2c-0.7,1.3-1.6,2.6-2.3,3.8c8,5.3,20.9,9.3,33.2,10.5c-2.7,3-6.4,8.4-8.3,11.8
			c-3.4-0.6-6.8-1.4-10.1-2.4v4.8L438.1,110.6z M415.6,132c2.6,3.2,5,7.2,6.1,10.2l-6,3.6l9.5-1.5v-13.8L415.6,132z M442.9,98.8
			c-3.9-1.9-7.5-4-10.8-6.3c-3.1,3.5-6.4,6.6-10,9.6L442.9,98.8z M438.1,128.4v13.8l7.9-1.2l-4.5-1.1c2.1-3.6,4.5-8.7,6-12.9
			L438.1,128.4z"/>
	</g>
	<g>
		<path class="st2" d="M3.9,193.9V204l22.4-3.6c-4,4.6-11.6,8.5-26.3,12.7c2.3,2.3,5.1,6.8,6,9.9c22.1-7.1,31.1-14.8,35.1-24.9
			l2.5-0.4l-3.9,7.3c10.2,1.9,25.6,5.2,32.9,7.7l5.6-11.4c-5.9-1.6-16.4-3.7-25.4-5.1l22-3.5v-10.1l-31.2,4.9c0-0.1,0-0.3,0-0.4
			l-12.7,2c0,0.1,0,0.3,0,0.4L3.9,193.9z"/>
		<polygon class="st2" points="93.3,209.5 93.3,206.2 141.9,198.6 141.9,201.8 153.8,199.9 153.8,169.8 141.9,171.7 141.9,187.8 
			93.3,195.5 93.3,179.4 82,181.2 82,211.3 		"/>
		<path class="st2" d="M117,179.5l-0.1-3.3c-8.3,2.1-16.6,4.2-22.5,5.5l0.9,8.4c4.8-1.3,10.2-2.9,15.9-4.5c1.9,1.5,4.5,4.1,5.6,5.6
			c2.6-2.1,5-4.4,7.3-7c1.3,1.8,3,2.9,4.9,3.4c6,2.1,11.3-1.9,12.6-12.9c-1.1-0.4-2.7-1.4-4.2-2.4l-3.3,0.5c-0.3,3-0.8,5-1.4,4.8
			c-0.7-0.1-1.5-0.8-2.1-2.1c0.5-0.8,0.9-1.5,1.4-2.3l-12,1.9c0.1,0.2,0.1,0.5,0.2,0.7C119.3,177.1,118.2,178.4,117,179.5z"/>
		<path class="st2" d="M186,167.7c-0.6,6.4-2.9,14.4-11.1,21.7c2.1,0.9,6.4,3.9,8,5.5c5.4-5.1,8.8-11.1,10.7-16.9
			c2,1.5,3.9,3.1,5,4.2l7.1-8.2c-2.2-1.9-6.8-4.7-9.9-6.8l0.2-1.2l10-1.6c1.1,4.4,2.3,8.4,3.9,11.6c-4,3.5-8.5,6.6-13.6,9
			c2,1.6,4.9,4.8,6.1,6.7c4.5-2.4,8.6-5.1,12.4-8.2c3.1,3.2,6.9,4.8,11.6,4.4c3.7-0.3,7.6-3.7,10-15.2c-1.8-0.8-5.7-3.1-7.4-5.1
			c-0.6,5.8-1.4,8.8-2.9,8.9c-1.1,0-2.1-0.3-3.1-1c3.3-3.9,6.1-8.1,8.3-12.8l-6.1-1.3l8.8-1.4v-3l-52.1,8.3v3L186,167.7z
			 M220.7,162.2c-0.8,1.8-1.9,3.6-3.1,5.3c-0.5-1.4-1-2.9-1.5-4.6L220.7,162.2z"/>
		<path class="st2" d="M160.2,181.7c1.6-3.2,3.2-7.4,4.5-11.9v28.2l10.2-1.6v-6.9v-23l-18.4,2.9c-0.2,0.4-0.4,0.8-0.6,1.1
			C157.3,173.4,159.5,178.4,160.2,181.7z"/>
		<path class="st2" d="M249.9,184.4l11.8-1.9v-2l25.9-4.1v1.6l12.4-2v-28.7l-50.1,7.9L249.9,184.4L249.9,184.4z M261.7,161.2
			l25.9-4.1v2.1l-25.9,4.1V161.2z M261.7,170.8l25.9-4.1v2.1l-25.9,4.1V170.8z"/>
		<path class="st2" d="M321,160.6c4.5-2.6,8.8-6,12.7-9.9v5l13.4-2.1v3.4l-25,4v9.8l63.6-10.1v-9.8l-26.4,4.2v-3.4l13.9-2.2v-5.9
			c3.8,2.8,8.1,4.9,12.4,6.2c1.7-3.1,5.3-7.9,7.9-10.5c-4.9-1-9.8-2.8-13.9-5.3l-14.4,2.3c1.4,1.5,2.8,3,4.4,4.4l-10.2,1.6v-4.2
			l-12.2,1.9v4.2l-8.7,1.4c1.6-1.9,3-3.8,4.3-5.8l-14.6,2.3c-4.2,4.1-9.5,7.8-14.8,10.5C315.8,154.5,319.3,158.2,321,160.6z"/>
		<path class="st2" d="M409.5,133l-5,2.9c2.4,3.2,4.8,7.4,6.2,10.8l-15,2.4v10.9l72.2-11.4v-10.9L452,140c2.3-3.6,5-8.1,7.7-12.7
			l-6.5-1.3l10.1-1.6v-3.7l-63.3,10v3.7L409.5,133z M438.1,128.4l9.4-1.5c-1.6,4.2-4,9.4-6,12.9l4.5,1.1l-7.9,1.2V128.4z
			 M425.2,130.5v13.8l-9.5,1.5l6-3.6c-1.1-3-3.5-6.9-6.1-10.2L425.2,130.5z"/>
	</g>
	<g>
		<path class="st1" d="M144.1,222.9c-0.7,0.1-1.3-0.1-1.9-0.5s-0.8-1-0.8-1.7v-0.4c0-0.7,0.3-1.4,0.8-2s1.1-0.9,1.9-1.1l7.7-1.2
			c0.7-0.1,1.3,0,1.9,0.5c0.5,0.4,0.8,1,0.8,1.8v0.4c0,0.7-0.3,1.4-0.8,2c-0.5,0.6-1.1,1-1.9,1.1L144.1,222.9z"/>
		<path class="st1" d="M160.4,220.4c-0.7,0.1-1.3-0.1-1.9-0.5s-0.8-1-0.8-1.7v-0.4c0-0.7,0.3-1.4,0.8-2s1.1-0.9,1.9-1.1l7.7-1.2
			c0.7-0.1,1.3,0,1.9,0.5c0.5,0.4,0.8,1,0.8,1.8v0.4c0,0.7-0.3,1.4-0.8,2c-0.5,0.6-1.1,1-1.9,1.1L160.4,220.4z"/>
		<path class="st1" d="M176.8,217.8c-0.7,0.1-1.3-0.1-1.9-0.5s-0.8-1-0.8-1.7v-0.4c0-0.7,0.3-1.4,0.8-2s1.1-0.9,1.9-1.1l7.7-1.2
			c0.7-0.1,1.3,0,1.9,0.5c0.5,0.4,0.8,1,0.8,1.8v0.4c0,0.7-0.3,1.4-0.8,2c-0.5,0.6-1.1,1-1.9,1.1L176.8,217.8z"/>
		<path class="st1" d="M193.1,215.2c-0.7,0.1-1.3-0.1-1.9-0.5s-0.8-1-0.8-1.7v-0.4c0-0.7,0.3-1.4,0.8-2s1.1-0.9,1.9-1.1l7.7-1.2
			c0.7-0.1,1.3,0,1.9,0.5c0.5,0.4,0.8,1,0.8,1.8v0.4c0,0.7-0.3,1.4-0.8,2s-1.1,1-1.9,1.1L193.1,215.2z"/>
		<path class="st1" d="M209.5,212.6c-0.7,0.1-1.3-0.1-1.9-0.5s-0.8-1-0.8-1.7v-0.4c0-0.7,0.3-1.4,0.8-2s1.1-0.9,1.9-1.1l7.7-1.2
			c0.7-0.1,1.3,0,1.9,0.5c0.5,0.4,0.8,1,0.8,1.8v0.4c0,0.7-0.3,1.4-0.8,2c-0.5,0.6-1.1,1-1.9,1.1L209.5,212.6z"/>
		<path class="st1" d="M235.1,208.5c-0.7,0.1-1.3-0.1-1.9-0.5s-0.8-1-0.8-1.7v-0.4c0-0.7,0.3-1.4,0.8-2s1.1-0.9,1.9-1.1l7.7-1.2
			c0.7-0.1,1.3,0,1.9,0.5c0.5,0.4,0.8,1,0.8,1.8v0.4c0,0.7-0.3,1.4-0.8,2c-0.5,0.6-1.1,1-1.9,1.1L235.1,208.5z"/>
		<path class="st1" d="M251.5,205.9c-0.7,0.1-1.3-0.1-1.9-0.5s-0.8-1-0.8-1.7v-0.4c0-0.7,0.3-1.4,0.8-2s1.1-0.9,1.9-1.1l7.7-1.2
			c0.7-0.1,1.3,0,1.9,0.5c0.5,0.4,0.8,1,0.8,1.8v0.4c0,0.7-0.3,1.4-0.8,2c-0.5,0.6-1.1,1-1.9,1.1L251.5,205.9z"/>
		<path class="st1" d="M271,213.8c-1.4,0.2-2.5-0.1-3.5-0.9c-0.9-0.8-1.4-1.9-1.4-3.4s0.5-2.7,1.4-3.8c0.9-1.1,2.1-1.8,3.5-2
			s2.6,0.1,3.5,0.9c0.9,0.8,1.4,1.9,1.4,3.4s-0.5,2.7-1.4,3.8C273.5,212.9,272.4,213.6,271,213.8z"/>
		<path class="st1" d="M285.8,211.5c-1.4,0.2-2.5-0.1-3.5-0.9c-0.9-0.8-1.4-1.9-1.4-3.4s0.5-2.7,1.4-3.8c0.9-1.1,2.1-1.8,3.5-2
			s2.6,0.1,3.5,0.9c0.9,0.8,1.4,1.9,1.4,3.4s-0.5,2.7-1.4,3.8C288.4,210.6,287.2,211.3,285.8,211.5z"/>
		<path class="st1" d="M300.7,209.1c-1.4,0.2-2.5-0.1-3.5-0.9c-0.9-0.8-1.4-1.9-1.4-3.4s0.5-2.7,1.4-3.8c0.9-1.1,2.1-1.8,3.5-2
			s2.6,0.1,3.5,0.9c0.9,0.8,1.4,1.9,1.4,3.4s-0.5,2.7-1.4,3.8C303.3,208.2,302.1,208.9,300.7,209.1z"/>
		<path class="st1" d="M321.8,194.8c-0.7,0.1-1.3-0.1-1.9-0.5c-0.5-0.4-0.8-1-0.8-1.7v-0.4c0-0.7,0.3-1.4,0.8-2s1.1-0.9,1.9-1.1
			l7.7-1.2c0.7-0.1,1.3,0,1.9,0.5c0.5,0.4,0.8,1,0.8,1.8v0.4c0,0.7-0.3,1.4-0.8,2s-1.1,1-1.9,1.1L321.8,194.8z"/>
		<path class="st1" d="M338.1,192.2c-0.7,0.1-1.3-0.1-1.9-0.5c-0.5-0.4-0.8-1-0.8-1.7v-0.4c0-0.7,0.3-1.4,0.8-2s1.1-0.9,1.9-1.1
			l7.7-1.2c0.7-0.1,1.3,0,1.9,0.5c0.5,0.4,0.8,1,0.8,1.8v0.4c0,0.7-0.3,1.4-0.8,2s-1.1,1-1.9,1.1L338.1,192.2z"/>
		<path class="st1" d="M354.5,189.6c-0.7,0.1-1.3-0.1-1.9-0.5c-0.5-0.4-0.8-1-0.8-1.7V187c0-0.7,0.3-1.4,0.8-2s1.1-0.9,1.9-1.1
			l7.7-1.2c0.7-0.1,1.3,0,1.9,0.5c0.5,0.4,0.8,1,0.8,1.8v0.4c0,0.7-0.3,1.4-0.8,2c-0.5,0.6-1.1,1-1.9,1.1L354.5,189.6z"/>
		<path class="st1" d="M370.8,187c-0.7,0.1-1.3-0.1-1.9-0.5c-0.5-0.4-0.8-1-0.8-1.7v-0.4c0-0.7,0.3-1.4,0.8-2s1.1-0.9,1.9-1.1
			l7.7-1.2c0.7-0.1,1.3,0,1.9,0.5c0.5,0.4,0.8,1,0.8,1.8v0.4c0,0.7-0.3,1.4-0.8,2c-0.5,0.6-1.1,1-1.9,1.1L370.8,187z"/>
		<path class="st1" d="M390.3,194.9c-1.4,0.2-2.5-0.1-3.5-0.9c-0.9-0.8-1.4-1.9-1.4-3.4s0.5-2.7,1.4-3.8c0.9-1.1,2.1-1.8,3.5-2
			s2.6,0.1,3.5,0.9c0.9,0.8,1.4,1.9,1.4,3.4s-0.5,2.7-1.4,3.8C392.8,194,391.7,194.7,390.3,194.9z"/>
		<path class="st1" d="M411.3,180.6c-0.7,0.1-1.3-0.1-1.9-0.5c-0.5-0.4-0.8-1-0.8-1.7V178c0-0.7,0.3-1.4,0.8-2s1.1-0.9,1.9-1.1
			l7.7-1.2c0.7-0.1,1.3,0,1.9,0.5c0.5,0.4,0.8,1,0.8,1.8v0.4c0,0.7-0.3,1.4-0.8,2s-1.1,1-1.9,1.1L411.3,180.6z"/>
		<path class="st1" d="M427.7,178c-0.7,0.1-1.3-0.1-1.9-0.5c-0.5-0.4-0.8-1-0.8-1.7v-0.4c0-0.7,0.3-1.4,0.8-2s1.1-0.9,1.9-1.1
			l7.7-1.2c0.7-0.1,1.3,0,1.9,0.5c0.5,0.4,0.8,1,0.8,1.8v0.4c0,0.7-0.3,1.4-0.8,2c-0.5,0.6-1.1,1-1.9,1.1L427.7,178z"/>
		<path class="st1" d="M444,175.4c-0.7,0.1-1.3-0.1-1.9-0.5c-0.5-0.4-0.8-1-0.8-1.7v-0.4c0-0.7,0.3-1.4,0.8-2s1.1-0.9,1.9-1.1
			l7.7-1.2c0.7-0.1,1.3,0,1.9,0.5c0.5,0.4,0.8,1,0.8,1.8v0.4c0,0.7-0.3,1.4-0.8,2c-0.5,0.6-1.1,1-1.9,1.1L444,175.4z"/>
		<path class="st1" d="M460.4,172.9c-0.7,0.1-1.3-0.1-1.9-0.5c-0.5-0.4-0.8-1-0.8-1.7v-0.4c0-0.7,0.3-1.4,0.8-2s1.1-0.9,1.9-1.1
			l7.7-1.2c0.7-0.1,1.3,0,1.9,0.5c0.5,0.4,0.8,1,0.8,1.8v0.4c0,0.7-0.3,1.4-0.8,2c-0.5,0.6-1.1,1-1.9,1.1L460.4,172.9z"/>
		<path class="st1" d="M479.9,180.7c-1.4,0.2-2.5-0.1-3.5-0.9c-0.9-0.8-1.4-1.9-1.4-3.4s0.5-2.7,1.4-3.8c0.9-1.1,2.1-1.8,3.5-2
			s2.6,0.1,3.5,0.9c0.9,0.8,1.4,1.9,1.4,3.4s-0.5,2.7-1.4,3.8S481.3,180.5,479.9,180.7z"/>
	</g>
	<g class="st3">
		<path class="st4" d="M272.5,101.5c-0.8,1.1-1.6,2.1-2.5,3.1l3.9-2.8L272.5,101.5z"/>
		<polygon class="st4" points="359.7,99 364.7,102.6 365.3,102.5 365.3,103.1 371.5,107.5 367,93.7 377.6,86 377.6,85.8 365.3,87.8 
			365.3,93 352,95.1 348.7,105.2 351.9,104.7 		"/>
		<polygon class="st4" points="432.1,100.6 429.8,107.5 441.5,99.1 		"/>
		<path class="st4" d="M453.8,90.1c-5.6-1.8-10.7-4.1-14.7-6.7c0.7-1.2,1.6-2.5,2.3-3.8l-2.3-0.7l-2,6.2h-13.5h-1.1l0.6,0.5
			l11.1,8.1l-0.1,0.3c2.7,1.8,5.6,3.4,8.7,4.9l-1.3,0.2l11.7,8.5l-4.5-13.8L453.8,90.1z"/>
		<path class="st4" d="M62.9,137.6l-1.6,5c1-1.6,2-3.2,3-4.9L62.9,137.6z"/>
		<polygon class="st4" points="82.6,135.8 82,135.9 82,140.6 84.8,142.6 		"/>
		<polygon class="st4" points="147.7,128.8 143.2,142.6 153.8,134.9 153.8,124.6 144,126.1 		"/>
		<polygon class="st4" points="164.1,134.7 158.2,135.6 158.2,136.5 166.7,142.6 		"/>
		<polygon class="st4" points="164.8,127 174,120.3 164.8,120.3 		"/>
		<path class="st4" d="M227.4,135.5l-2.3,7.2l7.8-5.6c-0.4-1.2-0.8-2.3-1.2-3.4L227.4,135.5z"/>
		<path class="st4" d="M217.8,120.3l4.2,3.1c0.5-1,1-2,1.6-3.1H217.8z"/>
		<path class="st4" d="M225,120.3c-0.5,1.4-1,2.8-1.6,4.1l6.1,4.4l-0.4,1.1c1.7-3,3.2-6,4.6-9l-4-0.6
			C229.8,120.3,225,120.3,225,120.3z"/>
		<path class="st4" d="M249.5,120.3c-4.6,2.5-9.5,4.7-14.4,6.6c2,1.9,5,6.2,6.2,8.4c1.4-0.6,2.9-1.3,4.3-2v7.2l3.1,2.2l-4.5-13.8
			l11.8-8.6L249.5,120.3L249.5,120.3z"/>
		<path class="st4" d="M304.3,123.6v-0.3c1.3,0.2,2.7,0.4,4,0.5c0.6-1,1.4-2.3,2.2-3.5h-10.8L304.3,123.6z"/>
		<polygon class="st4" points="318.8,106.6 318.8,109.9 319.8,109.7 		"/>
		<polygon class="st4" points="314.1,134.4 314.1,137.5 318.8,134.1 330.5,142.6 327.2,132.3 		"/>
		<polygon class="st4" points="329.5,126.3 337.8,120.3 329.5,120.3 		"/>
		<polygon class="st4" points="392.6,131.3 392.4,131.7 392.6,131.7 		"/>
		<polygon class="st4" points="392.6,121.9 385.5,123.1 392.6,128.2 		"/>
		<path class="st4" d="M388.9,142.6l4.3-3.1c0.1-0.1,0.1-0.1,0.2-0.2c-1.1-0.2-2.1-0.5-3.2-0.8L388.9,142.6z"/>
		<polygon class="st4" points="400,134.5 400.2,134.4 400.7,134.1 401,134.3 409.3,133 407.9,128.8 419.1,120.7 400,123.7 		"/>
		<path class="st4" d="M400.7,106.4l-2.5,7.5c0.6,0.9,1.1,1.7,1.5,2.6c1.2-0.6,2.4-1.2,3.6-1.9L400.7,106.4z"/>
		<path class="st4" d="M404.5,135.8c0.5,0.7,1,1.4,1.5,2.2l6.3,4.6l-3.1-9.6L404.5,135.8z"/>
		<path class="st4" d="M34.7,149.5l-4.9,0.8L32,149c-0.3-0.9-0.8-1.8-1.4-2.8l-3,9.1H13.1l9.1,6.6l11-1.7v2.7l-8.4,1.3l-3.4,10.5
			l4-0.6l6.8-5l11.8,8.6l-4.5-13.8l6.1-4.5v-1.2l2.1-0.3l3.5-2.5H36.6L34.7,149.5z"/>
		<polygon class="st4" points="114,141.5 114,141.6 114,141.6 		"/>
		<path class="st4" d="M126.8,155.4h-8.3l-2.4-7.3l-4.5,0.7l-2.2,6.6h-14H95l0.5,0.4l4.3,3.2l17.4-2.8c0.5,6.4,1.2,12.2,2.4,17.1
			l6.2,4.5l-4.5-13.8l6-4.4C127.1,158.2,127,156.8,126.8,155.4z"/>
		<polygon class="st4" points="106.7,163.9 105.9,166.6 107.9,166.3 107.9,169.8 104.6,170.3 102.6,176.7 102.2,177.7 104,176.5 
			114,169.2 115.7,170.4 115.7,159 102.8,161.1 		"/>
		<path class="st4" d="M129.5,157.9l3.2-2.4l-2.6-0.1C130,156.3,129.7,157.1,129.5,157.9z"/>
		<path class="st4" d="M181.4,155.4h-4.6l5,3.6l0.9-1.6C182.5,156.9,182,156.2,181.4,155.4z"/>
		<path class="st4" d="M184.8,155.4h-1c0.1,0.2,0.1,0.4,0.2,0.5C184.2,155.7,184.4,155.5,184.8,155.4z"/>
		<path class="st4" d="M204.3,155.4c0,0.1,0,0.3,0.1,0.4l-22.1,3.5l6.4,4.6l-4.5,13.8l11.8-8.6l8.7,6.3l1.2-1.4
			c-2.2-1.9-6.8-4.7-9.9-6.8l0.2-1.2l7.4-1.2l-0.3-1l11.8-8.6L204.3,155.4L204.3,155.4z"/>
		<path class="st4" d="M196.2,153.9l3.2-1.4l-3.5-10.9l-3.6,11c1.1-0.3,2.2-0.7,3.6-1.1C196.1,152.3,196.1,153.1,196.2,153.9z"/>
		<polygon class="st4" points="280.7,150.5 274.5,151.5 273.3,155.4 258.8,155.4 265.9,160.5 287.7,157.1 287.7,159.1 268.2,162.2 
			270.5,163.9 268.6,169.7 286.1,167 285.1,163.9 296.9,155.4 282.3,155.4 		"/>
		<polygon class="st4" points="266,177.7 275.6,170.8 267.9,172 		"/>
		<polygon class="st4" points="279.2,170.2 289.6,177.7 286.7,169 		"/>
		<polygon class="st4" points="277.8,141.5 275.2,149.4 280.1,148.7 		"/>
		<polygon class="st4" points="363.9,154.3 359.3,155 359.3,151.7 362.8,151.1 359.9,142.2 359.5,142.3 355.2,155.4 347,155.4 
			347,157 343.6,157.5 352.4,163.9 351.8,166 367.6,163.5 378.8,155.4 364.2,155.4 		"/>
		<polygon class="st4" points="441.6,141.5 441.5,141.7 437.8,153.2 445,152 441.6,141.7 		"/>
		<polygon class="st4" points="422.8,155.5 424.1,155.4 422.6,155.4 		"/>
		<polygon class="st4" points="73.1,176.6 71.9,180.1 74.1,179.7 		"/>
		<path class="st4" d="M65.8,199l-3.5,10.8c0.8,0.2,1.6,0.4,2.4,0.6l8.4-6.1l2.7,2l2.4-5c-3.4-0.9-8.2-2-13.4-3L65.8,199z"/>
		<polygon class="st4" points="74.9,182.7 70.9,183.3 68.6,190.5 54,190.5 60.3,195 74.9,192.7 		"/>
		<polygon class="st4" points="82,197.8 92.1,190.5 82,190.5 		"/>
		<polygon class="st4" points="82,210.8 82.5,211.2 84.2,210.9 82,204.2 		"/>
		<polygon class="st4" points="135.9,190.5 147.7,199 147.1,201 153.8,199.9 153.8,180.2 150.5,190.5 		"/>
		<polygon class="st4" points="164.8,197.2 174,190.5 164.8,190.5 		"/>
	</g>
	<g>
		<path class="st4" d="M22.1,33.6c-2.9,0.8-5.9,1.5-8.1,2.1l-0.3-2.1c0.7-0.2,1.5-0.3,2.4-0.5L16,26.8l-1.9,0.3l0-2.1l12-1.9l0,2.1
			l-1.4,0.2l0.1,8.8l-2.6,0.4L22.1,33.6z M20.7,38.9c-0.2,0.6-0.4,1.1-0.6,1.7c1.1,0.9,2.3,2.1,2.9,2.9l-1.8,1.9
			c-0.5-0.7-1.4-1.6-2.3-2.6c-1,1.7-2.2,3.1-3.7,4.3c-0.1-0.6-0.7-2-1-2.6c1.9-1.4,3.4-3.4,4.2-5.9L20.7,38.9z M34.3,34
			c-2.1,0.9-4.8,1.7-7.6,2.4l0.1,9.7l-2.9,0.5l-0.1-9.4c-2.3,0.6-4.6,1.1-6.7,1.5c-0.4-0.6-1.2-1.9-1.7-2.4C21,35.4,28,33.8,32,32.3
			L34.3,34z M18.6,26.4l0,0.9l3.4-0.6l0-0.9L18.6,26.4z M18.6,29.8l3.4-0.6l0-0.9l-3.4,0.6L18.6,29.8z M22.1,31.6l0-0.7l-3.4,0.6
			l0,1L22.1,31.6z M27.6,26c0.9,0.3,1.9,0.7,3,1.2c0.6-0.7,1.1-1.4,1.5-2.2L26.5,26l0-2.4l7.1-1.2l0.5-0.2l1.8,0.6
			c-0.7,2-1.7,3.8-3,5.4c1.3,0.6,2.6,1.2,3.4,1.8l-2,2.4c-0.8-0.6-2-1.3-3.4-1.9c-1.3,1.2-2.8,2.3-4.2,3.1c-0.4-0.5-1.1-1.4-1.6-1.9
			c1.2-0.6,2.4-1.4,3.5-2.4c-1-0.4-1.9-0.8-2.8-1.2L27.6,26z M33.4,35.8c-0.1,0.6-0.3,1.2-0.5,1.8c0.9,1.5,2.3,2.8,3.8,3.5
			c-0.6,0.6-1.4,1.6-1.8,2.3c-1.1-0.7-2.2-1.8-3.1-3.1c-1,1.8-2.1,3.3-3.5,4.6c-0.2-0.7-0.7-2-1-2.6c1.9-1.6,3.4-3.9,4-6.6
			L33.4,35.8z"/>
		<path class="st4" d="M45,37.4l-2.8,0.5l2.1,0.2c-0.6,2-1.7,4.2-2.8,5.7l-2.8-0.7c1.1-1.3,2.2-3.4,2.8-5.3l0.7,0.1l-0.1-9
			c-0.5,0.7-1.1,1.3-1.6,1.8c-0.5-0.5-1.7-1.4-2.4-1.8c2.5-2.3,4.8-5.9,6.2-9.3l2.9,0.4c-0.3,0.8-0.7,1.7-1.2,2.5l4.5-0.7
			c-0.3-0.7-0.7-1.5-1-2.1l2.6-1.4c0.6,0.9,1.2,2.1,1.5,3l6.8-1.1l0,2.5l-7.2,1.2l0,1.4l6-1l0,2.3l-6,1l0,1.4l6-1l0,2.3l-6,1l0,1.5
			l7.3-1.2l0,2.5L45,36.6L45,37.4z M50.3,24.4l-5.4,0.9l0,1.4l5.4-0.9L50.3,24.4z M50.4,28.1L44.9,29l0,1.4l5.4-0.9L50.4,28.1z
			 M50.4,31.8L45,32.6l0,1.5l5.4-0.9L50.4,31.8z M48.4,37.3c0.3,1.5,0.6,3.4,0.7,4.6l-2.9,0.9c0-1.2-0.2-3.2-0.5-4.8L48.4,37.3z
			 M53.5,36.3c0.6,1.4,1.2,3.2,1.5,4.5l-2.9,1c-0.1-1.2-0.7-3.1-1.3-4.6L53.5,36.3z M58.4,35c1.1,1.4,2.5,3.3,3.2,4.6l-3,1.5
			c-0.5-1.3-1.8-3.3-2.9-4.7L58.4,35z"/>
		<path class="st4" d="M77.2,31.7c3,0.6,6.9,1.5,9,2.3l-1.4,2.8c-2.2-0.9-6.7-2.1-9.9-2.8l1.1-2.1l-0.9,0.1
			c-1.2,3.3-3.8,5.7-10.4,7.9c-0.2-0.8-0.9-1.9-1.5-2.5c5-1.5,7.3-3,8.4-4.9l-7.4,1.2l0-2.5l8.3-1.4c0.1-0.4,0.1-0.9,0.2-1.3
			l-9.1,1.5l0-2.6l9.5-1.5l0-1.3l-7.3,1.2l0-2.5l7.3-1.2l0-1.3l-8.7,1.4l0-2.6l4.7-0.8c-0.4-0.7-0.9-1.4-1.4-2l2.6-1.5
			c0.8,0.8,1.6,1.8,1.9,2.7l-0.7,0.4l5.4-0.9c0.6-1.1,1.3-2.5,1.7-3.6l3.2,0.3c-0.5,1-1.1,1.9-1.6,2.7l4.8-0.8l0,2.6l-8.8,1.4l0,1.3
			l7.6-1.2l0,2.5l-7.6,1.2l0,1.3l9.8-1.6l0,2.6l-10.2,1.6c0,0.5-0.1,0.9-0.2,1.3l9.7-1.6l0,2.5L77.2,31.7z"/>
		<path class="st4" d="M109.9,10.1l0.2,22.6l-2.9,0.5l0-1.1l-15.4,2.5l0,1.1L89,36.1l-0.2-22.6L109.9,10.1z M107.1,29.4L107,13.3
			l-3.1,0.5c0.8,0.3,1.6,0.7,2.1,1.1l-1,1.2l1.2-0.2l0,2.1l-4.4,0.7c0.1,1.4,0.3,2.7,0.5,3.8c0.5-1.1,0.8-2.2,1.1-3.3l2.3,0.1
			c-0.6,2.3-1.4,4.4-2.5,6.2c0.3,0.7,0.7,1.1,1.2,1.2c0.3,0.1,0.5-1,0.5-2.4c0.4,0.4,1.3,0.9,1.8,1.1c-0.4,3.2-1.6,4.3-3.3,3.8
			c-0.7-0.1-1.4-0.6-1.9-1.4c-0.8,0.9-1.6,1.8-2.6,2.6c-0.3-0.4-1.1-1.2-1.6-1.6c0.3-0.2,0.5-0.4,0.8-0.6c-2,0.6-3.9,1.2-5.5,1.8
			l-0.3-2.2c1.8-0.5,4.4-1.2,6.9-2l0.1,1.3c0.4-0.5,0.8-0.9,1.2-1.5c-0.5-1.7-0.9-4-1.1-6.4l-6.9,1.1l0-2.1l6.7-1.1
			c-0.1-0.7-0.1-1.4-0.1-2.1l2.4-0.4c0,0.7,0.1,1.4,0.1,2.1l2.7-0.4c-0.5-0.4-1.3-0.8-1.9-1l1.2-1.4l-12,1.9l0.1,16.1L107.1,29.4z
			 M98.7,25.2l-5.5,0.9l0-4.8l5.5-0.9L98.7,25.2z M96.7,22.3l-1.7,0.3l0,1.6l1.7-0.3L96.7,22.3z"/>
	</g>
</g>
</svg>
