<?xml version="1.0" encoding="utf-8"?>
<!-- Generator: Adobe Illustrator 23.0.1, SVG Export Plug-In . SVG Version: 6.00 Build 0)  -->
<svg version="1.1" id="分離模式" xmlns="http://www.w3.org/2000/svg" xmlns:xlink="http://www.w3.org/1999/xlink" x="0px"
	 y="0px" viewBox="0 0 270.67 731.28" style="enable-background:new 0 0 270.67 731.28;" xml:space="preserve">
<style type="text/css">
	.st0{fill:#F0AD00;}
	.st1{fill:#FFE866;}
	.st2{fill:#8BDEE3;}
	.st3{fill:#19979A;}
	.st4{fill:#B3F5FC;}
	.st5{fill:#4CB8B8;}
	.st6{fill:#52979A;}
	.st7{fill:#CDF7FC;}
	.st8{fill:#62C2C7;}
	.st9{fill:#81D2D7;}
	.st10{fill:#5DC7C7;}
	.st11{opacity:0.61;fill:#0D9DA2;}
	.st12{opacity:0.75;fill:#0D9DA2;}
	.st13{fill:#0D9DA2;}
	.st14{opacity:0.44;fill:#0D7977;}
	.st15{fill:#4CB1B3;}
	.st16{fill:#C7F7FC;}
	.st17{fill:#BBF7FC;}
	.st18{fill:#199FA2;}
	.st19{fill:#017781;}
	.st20{fill:#19ACAE;}
	.st21{opacity:0.6;fill:#D4FFFC;}
	.st22{opacity:0.61;fill:#2D9FA2;}
	.st23{opacity:0.49;fill:#62C2C7;}
</style>
<g>
	<g>
		<g>
			<g>
				<g>
					<path class="st0" d="M53.76,32.43h13.35c0,0,6.12-10.28,3.88-17.06C68.01,6.37,53.69,0,53.69,0s-1.79,3.36-6.27,5.6
						c-4.88,2.44-10.09,5.12-10.89,9.77c-1.19,6.98,3.88,17.06,3.88,17.06H53.76L53.76,32.43z"/>
					<path class="st1" d="M51.39,12.23c3.28-6.03,2.89-9.39,2.89-9.39s3.2,1.84,0.19,13.87c-1.89,7.58,0.5,14.43,0.5,14.43
						l-13.23,0.64c0,0-3.12-8.79-2.98-12.92c0.2-5.86,4.47-8.01,4.47-8.01s-1.59,4.09-1.59,7.32c0,3.23,2.39,8.09,2.39,8.09
						S42,15.11,46.13,10.59c2.62-2.87,4.57-3.49,4.57-3.49s-2.58,5.08-2.29,9.09c0.3,4.01,1.29,5.6,1.29,5.6
						S48.89,16.83,51.39,12.23z"/>
				</g>
				<path class="st2" d="M79.51,34.93c-2.01-3.08-12.73-5.42-25.66-5.42c-13.16,0-24.03,2.43-25.76,5.59l2.36,18.99
					c1.73,3.16,10.23,5.59,23.39,5.59c12.92,0,21.28-2.35,23.29-5.42L79.51,34.93z"/>
				<path class="st3" d="M53.85,31.96c12.47,0,22.86,2.23,25.38,5.19l0.27-2.22c-2.01-3.08-12.73-5.42-25.66-5.42
					c-13.16,0-24.03,2.43-25.76,5.59l0.27,2.18C30.7,34.25,41.21,31.96,53.85,31.96z"/>
				<path class="st4" d="M28.25,34.89c-0.05,0.07-0.12,0.14-0.15,0.21l2.36,18.99c1.73,3.16,10.23,5.59,23.39,5.59
					c4.67,0,8.73-0.31,12.13-0.85L28.25,34.89z"/>
				<g>
					<g>
						<polygon class="st5" points="138.18,144.7 133.9,186.27 142.96,186.27 138.78,144.7 						"/>
						<polygon class="st5" points="82.74,164.35 110.29,196.35 116.62,190.03 83.17,163.92 						"/>
						<polygon class="st5" points="65.49,200.53 106.8,211.96 108.3,204.11 65.59,199.99 						"/>
						<polygon class="st6" points="65.51,224.74 108.39,226.31 107.96,218.33 65.48,224.2 						"/>
						<polygon class="st6" points="210.68,224.74 167.8,226.31 168.23,218.33 210.71,224.2 						"/>
						<polygon class="st6" points="210.69,200.82 169.41,212.4 167.89,204.55 210.58,200.29 						"/>
						<polygon class="st5" points="191.8,164.35 164.25,196.35 157.92,190.03 191.37,163.92 						"/>
					</g>
					<path class="st7" d="M171.19,208.67l0.38-5.67c-4.43-11.02-19.77-17.38-34.43-17.38c-13.57,0-26.71,4.81-32.18,15.14l0.62,5.72
						c6.85-8.93,18.44-14.78,31.69-14.78C151.56,191.7,164.21,198.52,171.19,208.67z"/>
					<path class="st6" d="M165.88,243.24c0,0,0.32,20.46,3.73,27.46c3.4,6.99,14.3,18.59,14.3,18.59l-20.16-1.36
						c0,0-4.96-10.04-5.16-18.57c-0.2-8.53,0.2-23.72,0.2-23.72L165.88,243.24z"/>
					<path class="st6" d="M113.41,243.45c0,0-1.51,20.41-5.31,27.19c-3.8,6.78-15.35,17.73-15.35,17.73l20.2-0.19
						c0,0,6.02-16.22,6.71-24.72c0.7-8.5,0.69-17.21,0.69-17.21L113.41,243.45z"/>
					<g>
						<path class="st2" d="M109.5,232.19c0,0-3.77,4.1-3.46,8.05c0.32,3.94,3.33,6.04,3.33,6.04l3.19,2.44l3.38,3.79l2.46-1.11
							l-1.83-9.78L109.5,232.19z"/>
						<path class="st8" d="M167.71,232.19c0,0,3.94,4.1,3.79,8.05c-0.15,3.94-3.08,6.04-3.08,6.04l-3.08,2.44l-3.22,3.79l-2.51-1.11
							l1.42-9.78L167.71,232.19z"/>
					</g>
					<path class="st8" d="M121.53,256.1c0,0,0.3,9.63-1.97,14.83c-2.27,5.21-3.89,7.26-3.89,7.26s3.18,11.68,21.29,12.15
						c0,0,8.47,0.16,16.88-1.58c8.4-1.73,10.3-3,10.3-3s-5.37-2.37-6.64-10.26c-1.27-7.89,0.73-21.3,0.73-21.3
						s-6.03,11.2-19.78,10.89C125.43,264.8,121.53,256.1,121.53,256.1z"/>
					<path class="st6" d="M157.49,275.51c-1.27-7.89,0.73-21.3,0.73-21.3s-6.03,11.2-19.78,10.89c-13.02-0.3-16.92-8.99-16.92-8.99
						s0.06,1.96-0.08,4.59l31.01,28.34c0.46-0.08,0.91-0.17,1.37-0.26c8.4-1.73,10.3-3,10.3-3S158.76,283.4,157.49,275.51z"/>
					<path class="st8" d="M171.19,211.6l0.38-5.67c-4.43-11.02-19.77-17.38-34.43-17.38c-13.57,0-26.71,4.81-32.18,15.14l0.62,5.72
						c6.85-8.93,18.44-14.78,31.69-14.78C151.56,194.63,164.21,201.45,171.19,211.6z"/>
					<path class="st6" d="M138.32,206.82c13.41,0,25.31,5.85,32.14,14.63l0.72-9.85c-6.98-10.15-19.63-16.97-33.93-16.97
						c-13.25,0-24.83,5.85-31.69,14.78l1.39,11.8C113.47,212.56,125.03,206.82,138.32,206.82z"/>
					<path class="st9" d="M138.7,206.83l5.24,5.65l18.77,10.12l1.35,15.19c0,0-5.24,19.78-6.53,22.84
						c-1.29,3.06-8.71,7.77-17.54,7.77h-0.44c-8.83,0-16.45-4.71-17.87-7.77c-1.43-3.06-7.5-22.84-7.5-22.84l0.72-15.19l18.35-10.12
						l5.01-5.65H138.7z"/>
					<path class="st7" d="M138.52,206.83h-0.25l-5.01,5.65L114.9,222.6l-0.72,15.19c0,0,6.07,19.78,7.5,22.84
						c1.36,2.94,8.45,7.39,16.84,7.73V206.83z"/>
					<path class="st8" d="M138.32,206.82C138.32,206.82,138.32,206.82,138.32,206.82c0.19,1.68,1.44,8.34,9.22,10.81
						c8.94,2.84,14,9.15,14,9.15l0.61,18.94l4.06-9.47c0,0,4.77,0.31,5.13-4.42c0.22-2.96-0.4-7.45-0.89-10.4
						C163.61,212.66,151.72,206.82,138.32,206.82z"/>
					<path class="st8" d="M138.32,206.82c-13.29,0-24.85,5.74-31.36,14.39l-0.02-0.16c-0.38,2.94-0.87,7.69-0.5,10.78
						c0.56,4.73,5.31,4.42,5.31,4.42l4.46,9.47l-0.18-18.94c0,0,4.8-6.31,13.62-9.15c7.67-2.47,8.65-9.13,8.78-10.81
						C138.39,206.83,138.35,206.82,138.32,206.82z"/>
					<path class="st6" d="M171.36,231.18c-0.01,0.22-0.01,0.45-0.03,0.66c-0.36,4.73-5.13,4.42-5.13,4.42l-4.06,9.47l-0.61-18.94
						c0,0-5.06-6.31-14-9.15c-5.47-1.74-7.71-5.55-8.62-8.24c-0.1-0.29-0.46-2.36-0.57-2.36c0,0-0.33,2.03-0.4,2.31
						c-0.79,2.69-2.86,6.54-8.3,8.29c-8.82,2.84-13.62,9.15-13.62,9.15l0.02,1.7c0.17-0.22,4.94-6.34,13.6-9.13
						c7.13-2.3,8.48-8.2,8.73-10.38c0.35,2.18,1.94,8.08,9.16,10.38c8.94,2.84,14,9.15,14,9.15l0.61,18.94l4.06-9.47
						c0,0,4.77,0.32,5.13-4.42C171.39,232.84,171.39,232.03,171.36,231.18z M111.75,236.25c0,0-4.76,0.31-5.31-4.42
						c-0.06-0.54-0.09-1.14-0.11-1.77c-0.03,1.26-0.01,2.47,0.11,3.49c0.56,4.73,5.31,4.42,5.31,4.42l4.46,9.47l-0.02-1.76
						L111.75,236.25z"/>
				</g>
				<path class="st8" d="M54.51,249.09c0,0-1.97-3.1-4.04-17.57c-2.06-14.47-4.04-32.13-4.04-32.13s1.4-54,0.64-63.05
					c-0.76-9.04-3.17-21.23-3.17-21.23s-6.67-12.53-6.93-16.66c-0.26-4.13-0.26-4.13-0.26-4.13s-1.38-3.36-0.75-4.91
					c0.63-1.55,0.63-1.55,0.63-1.55s1.59-8.27,2.21-9.56c0,0,0-2.75,5.91-3.96c5.91-1.2,10.69-1.2,11.66,0.17
					c0.98,1.38-1.16,4.48-2.98,5.17c-1.81,0.69-7.47,0.69-7.47,0.69s10.76,0.52,11.88,2.41c1.12,1.89,1.15,4.31-0.64,4.65
					c-1.79,0.34-2.68,0.34-2.68,0.34s2.26,0.69,1.21,3.28c-1.05,2.58-4.66,0.86-8.16,2.93c-3.5,2.07-2.08,2.07-2.08,2.07
					s0.64,3.96,6.62,4.82c5.98,0.86,10.12-7.71,10.12-7.71s1.31-9.95-1.06-14.6c-2.37-4.65-3.1-6.55-2.25-8.79
					c0.85-2.24,4.25-1.81,5.04-0.26c0.79,1.55,5.28,7.02,6.09,14.08c0.81,7.06,1.23,13.31-2.98,24.16
					c-4.22,10.85-4.81,15.67-2.21,31.35c2.61,15.68,8.97,37.72,9.61,47.89c0.65,10.16,1.73,19.12,1.73,19.12L58.78,245.9
					L54.51,249.09z"/>
				<polygon class="st7" points="44.96,115.11 51.41,134.62 58.14,197.69 58.14,234.68 49.34,199.49 48.67,136.17 				"/>
				<polygon class="st10" points="78.54,601.44 58.52,656.56 18.26,702.73 252.35,702.73 225.91,626.94 216.53,514.62 171.27,509.8 
					116.97,520.82 93.43,553.21 				"/>
				<polygon class="st11" points="107.58,595.58 83.69,655.53 46.48,698.94 65.43,696.87 93.24,658.63 				"/>
				<polygon class="st12" points="131.32,579.05 118.88,683.08 104.77,693.77 71.44,697.22 95.48,688.6 112.38,678.02 				"/>
				<polygon class="st13" points="160.57,567.66 143.85,660.24 158.33,682.96 166.96,692.76 188.16,695.96 174.66,659.23 
					165.86,638.87 167.7,582.41 				"/>
				<polygon class="st13" points="185.05,539.63 193.53,643.91 210.02,694.36 235.75,695.56 215.73,688.95 199.26,640.75 				"/>
				<polygon class="st14" points="76.79,609.17 148,635.48 147.18,641.11 169.65,649.71 168.2,646.11 248.76,692.24 225.91,626.94 
					216.53,514.62 171.27,509.8 116.97,520.82 93.43,553.21 80.86,593.98 				"/>
				<path class="st2" d="M216.43,525.56l4.43,42.29l10.72-16.19l-4.61-69.51l-6.87-53.49l18.73-11.11c0,0,4.97,0.26,12.27-9.56
					c7.27-9.82,2.48-20.93,2.48-20.93L230.08,362l-7.53-3.87l-3.86-12.4l1.47-2.33l1.16-8.27l-9.42-24.81l2.6-6.98
					c0,0-0.93-3.88-5.38-8.01c-4.44-4.14-18.87-4.4-18.87-4.4s-8.16-6.2-18.76-6.46c-10.6-0.26-21.93,1.04-38.7,1.04
					c-0.14,0-24.76-20.03-25.29-20.54c-4.79-4.65-13.5-19.42-13.5-19.42l-1.88-19.34l-10.72-19.63l-5.75-3.36l-16.7,40.61
					c0,0-17.07,16.37-20.34,20.76c-3.27,4.39-0.65,18.6-0.65,18.6l15.59,15.76l-5.83,14.21l13.46,16.45l1.34,16.11l9.7,9.22
					l-8.45,37.98l8.37,14.04l-8.99,24.8l10.06,26.1l-4.25,24.99l7.08,34.18l-1.73,19.38l-0.37,19.89l-4.38,16.54l0.8,51.94
					l6.3-16.02c0,0,84.07-33.88,84.34-39.3c0.28-5.43-33.07-23.66-30.96-27.96c1.8-3.69,49.41-16.85,56.65-16.19
					c1.88,0.17,2.85,18.34,2.85,18.34s12.55-20.21,19.91-20.93C214.78,522.2,216.43,525.56,216.43,525.56z"/>
				<path class="st15" d="M242.19,408.24l11-4l1.6-4.8l0.27-5.34c-0.26-4.13-1.5-7.03-1.5-7.03L230.08,362l-7.53-3.87l-3.86-12.4
					l1.47-2.33l1.16-8.27l-9.42-24.81l2.6-6.98c0,0-0.11-0.44-0.41-1.17l-24.21-7.88l-1.15,2.33l14.41,22.09l14.18,57.49l4.16,26.53
					l12.15,2.5l14.79-5.69L242.19,408.24z"/>
				<polygon class="st2" points="183.54,287.46 196.79,285.65 205.93,290.17 207.57,295.21 190.64,291.46 186.72,290.3 				"/>
				<path class="st4" d="M144.08,389.07l4.6,3.04c0,0-10.14,53.12-13.62,90.72c-3.51,37.6-5.02,58.67-5.02,58.67l57.68-13.09
					l-5.31-160.54l-19.69-15.16l0.83,17.31L144.08,389.07z"/>
				<path class="st16" d="M213.8,305.12l0.7-1.77c0,0-0.93-3.88-5.38-8.01c-4.44-4.14-18.87-4.4-18.87-4.4s-8.16-6.2-18.76-6.46
					c-1.8-0.04-3.65,0.05-5.54,0.2l5.25,5.74l9.25,5.94l23.26,3.88L213.8,305.12z"/>
				<path class="st4" d="M218.44,390.76l-9.39-21.83c0,0-10.39-32.43-16.49-50.69c-4.79-14.41-6.65-21.36-6.65-21.36l-4.49-2.54
					c0,0,11.66,52.15,11.67,55.76c0.01,25.37-2.53,102.92-2.53,102.92l6.43,2.78l-0.91,23.43l7.82,3.38l1.81,24.37l24.15,19.24
					l-2.49-37.5l-1.04-11.29l-4.56-49.78L218.44,390.76z"/>
				<path class="st5" d="M130.04,541.49c0,0,17.71-141.21,18.64-149.39L143.82,403l-42.29,168.33l27.98-25.87l31.36,23.32
					l-16.35-30.55L130.04,541.49z"/>
				<polygon class="st5" points="141.87,388.61 148.68,392.1 149.05,389.2 144.51,388.85 166.56,370.67 153.4,357.87 161.91,352.18 
					192.65,375.95 160.63,344.95 144.77,354.77 160.21,369.75 				"/>
				<polygon class="st4" points="160.63,344.95 145.46,354.77 175.06,294.82 179.12,292.75 				"/>
				<polygon class="st5" points="178.61,295.21 185.35,347.88 186.71,420.57 190.56,453.02 193.77,347.53 182.05,296.57 				"/>
				<polygon class="st4" points="148.15,358 160.83,369.24 142.09,388.55 				"/>
				<polygon class="st5" points="190.56,453.02 194.69,458.64 196.09,479.23 201.5,484.73 202.51,509.8 225.66,524.16 
					230.48,544.24 229.88,526.22 207.69,503.86 205.41,479.31 199.5,476.38 198.73,456.57 				"/>
				<polygon class="st2" points="166.28,379.22 170.5,439.64 172.63,465.98 163.66,503.23 164.14,423.47 				"/>
				<polygon class="st5" points="134.89,396.11 129.83,456.4 94.32,530.82 69.45,580.08 69.56,572.85 74.56,556.65 119.45,456.74 
									"/>
				<polygon class="st4" points="145.96,322.76 75.94,520.91 72.99,559.75 128.21,451.92 136.95,378.02 148.21,330.48 
					152.91,313.43 				"/>
				<polygon class="st5" points="221.37,466.13 198.73,456.57 217.53,468.11 199.5,476.38 221.61,471.64 				"/>
				<polygon class="st5" points="201.81,369.24 208.31,426.6 216.93,454.67 206.55,387.84 				"/>
				<g>
					<polygon class="st4" points="259.75,321.35 193.52,407.68 201.13,412.99 268.45,326.22 					"/>
					<polygon class="st6" points="268.55,335.99 210.41,413.68 201.13,412.99 193.52,407.68 202.21,411.87 268.45,326.22 					"/>
				</g>
				<path class="st5" d="M255.98,350.46c0,0,5.7-10.51,7.03-11.71c1.32-1.21,4.62-1.72,4.91,0.34c0.29,2.07-1.62,9.3-1.62,9.3
					l-3.69,15.33L255.98,350.46z"/>
				<polygon class="st4" points="189.5,298.18 202.04,318.85 212.32,355.67 206.67,319.37 193.06,297.66 188.73,296.63 				"/>
				<polygon class="st5" points="146.22,321 68.96,482.86 66.42,445.61 				"/>
				<path class="st4" d="M177.92,293.01l-34.36,32.3L71.2,458.81l-10.73-28.5c0,0,9.95-20.87,17.91-37.35
					c7.93-16.49,45.31-59.51,61.54-73.68c16.17-14.17,36.12-27.82,36.12-27.82L177.92,293.01z"/>
				<polygon class="st5" points="142.31,306.96 86.28,372.93 69.29,402.21 63.77,392.92 78.84,372.66 130.38,312.91 				"/>
				<polygon class="st17" points="170.62,289.78 131.34,308.6 72.22,354.94 70.1,364.47 74.81,369.18 87.44,361.47 134.12,312.74 
									"/>
				<polygon class="st8" points="171.19,290.69 179.49,292.5 189.94,295.6 200.97,297.49 203.73,300.25 181.91,296.63 
					173.66,293.18 				"/>
				<polygon class="st16" points="50.47,231.52 35.85,268.98 37.95,283.19 65.25,266.57 81.41,206.58 75.65,203.22 58.77,243.66 
					53.96,246.5 				"/>
				<polygon class="st6" points="50.47,231.52 51.99,249.35 60.86,246.76 78.37,204.64 75.65,203.22 58.55,241.85 55.4,243.27 				
					"/>
				<polygon class="st16" points="53.55,298.95 69.03,284.36 82.34,237.33 82.89,267.17 92.13,226.22 94.01,245.55 70.31,306.4 
					50.66,316.43 47.72,313.16 				"/>
				<polygon class="st5" points="65.81,265.88 53.55,298.95 37.95,283.19 				"/>
				<polygon class="st5" points="94.01,245.55 87.41,271.83 62.52,345.72 61.17,329.62 				"/>
				<polygon class="st16" points="108.5,262.78 104.06,260.97 94.63,290.17 62.52,345.72 73.18,340.38 104.09,307.74 109.25,266.57 
									"/>
				<polygon class="st16" points="115.18,268.81 111.74,268.46 123.83,292.06 143.76,295.17 171.08,289.31 143.82,291.03 
					126.81,287.58 				"/>
				<polygon class="st5" points="109.42,267.26 111.61,304.12 106.33,313.94 72.22,354.94 103.17,308.25 				"/>
				<polygon class="st5" points="123.83,292.06 111.92,268.64 114.79,276.6 125.62,298.78 133.08,301.41 148.45,298.44 
					170.08,289.65 145.21,295.08 				"/>
				<path class="st18" d="M74.43,186.99c-0.64-10.16-6.99-32.21-9.61-47.89c-2.6-15.68-2.01-20.5,2.21-31.35
					c4.21-10.85,3.79-17.1,2.98-24.16c-0.81-7.06-5.3-12.53-6.09-14.08c-0.79-1.55-4.19-1.98-5.04,0.26
					c-0.85,2.24-0.11,4.13,2.25,8.79c2.37,4.65,1.06,14.6,1.06,14.6s-4.14,8.57-10.12,7.71c-1.05-0.15-1.92-0.4-2.67-0.71
					l-0.64,1.32v27.08c5.78,14.5,14.35,36.03,18.99,47.67c3.14,7.87,5.47,13.23,7.11,16.81C74.72,191.11,74.56,189.08,74.43,186.99z
					"/>
				<path class="st3" d="M77.04,54.71c0,2.93-10.38,5.31-23.19,5.31c-12.81,0-23.2-2.38-23.2-5.31c0-2.93,10.39-5.31,23.2-5.31
					C66.66,49.4,77.04,51.78,77.04,54.71z"/>
				<path class="st19" d="M46.94,119.89v6.08c0,3.7,3.08,6.7,6.88,6.7c3.8,0,6.88-3,6.88-6.7v-6.08H46.94z"/>
				<g>
					<path class="st20" d="M53.78,132.68c-3.78-0.02-6.84-3.01-6.84-6.7v-6.08h6.84V132.68z"/>
					<rect x="46.94" y="119.89" class="st19" width="13.76" height="1.73"/>
					<path class="st19" d="M53.77,53.94c3.67,0,7.07,0.47,9.91,1.26l-2.22,64.7H46.18l-2.21-64.72
						C46.78,54.4,50.14,53.94,53.77,53.94z"/>
					<path class="st20" d="M44.92,56.46c2.42-0.33,7.4-0.75,8.86-0.87v64.3h-7.6l-2.17-63.31C44.29,56.54,44.59,56.5,44.92,56.46z"
						/>
				</g>
				<g>
					<path class="st4" d="M47.54,93.97c3.5-2.07,7.11-0.34,8.16-2.93c1.05-2.58-1.2-3.71-1.2-3.71s0.99,0.41,2.79,0.07
						c1.79-0.34,1.92-2.56,0.79-4.46c-1.13-1.89-12.06-2.33-12.06-2.33s5.63-0.84,7.49-1.42c3.31-1.03,3.84-3.32,2.86-4.69
						c-0.97-1.38-5.75-1.38-11.66-0.17c-5.91,1.21-5.91,3.96-5.91,3.96c-0.61,1.29-2.21,9.56-2.21,9.56s0,0-0.63,1.55
						c-0.63,1.55,0.75,4.91,0.75,4.91s0,0,0.26,4.13c0.11,1.78,1.42,5.13,2.88,8.37c0.06-0.37,0.12-0.7,0.17-0.97
						c0.44-2.32,1.94-6.03,3.8-8.44c0.55-0.71,1-1.22,1.37-1.61C45.23,95.55,45.72,95.04,47.54,93.97z"/>
					<path class="st18" d="M70.59,91.47c0.03-2.7-0.22-5.23-0.52-7.88c-0.81-7.06-5.31-12.53-6.09-14.08
						c-0.78-1.55-4.19-1.98-5.04,0.26c-0.85,2.24-0.11,4.13,2.25,8.79c1.77,3.47,1.49,9.88,1.23,12.92H70.59z"/>
				</g>
				<path class="st2" d="M223.15,365.62l11.61,7.24l-1.9,10.33l-9.94,13.61c0,0,4.37,5.51,9.54,4.99
					c5.17-0.51,24.28-18.95,24.28-18.95l5.87-19.12c0,0-3.58-11.89-6.08-13.44c-2.5-1.55-16.7-7.58-19.06-8.09
					c-2.36-0.52-4.78,0.69-5.03,2.41c-0.26,1.72,5.3,4.48,5.3,4.48l10.91,6.03c0,0-12.08-4.31-15.53-5.17
					c-3.44-0.86-4.8,0.86-5.21,2.06c-0.41,1.21,1.91,2.41,4.43,3.44c2.52,1.03,11.33,3.87,11.33,3.87s-15.3-3.81-16.6-3.47
					c-1.3,0.34-3.6,3.1,0.53,5c4.14,1.9,11,4.73,11,4.73s-12.4-4.26-14.21-3.93C220.72,362.35,223.15,365.62,223.15,365.62z"/>
				<polygon class="st5" points="113.16,278.89 117.94,299.3 131.63,305.15 126.33,308.65 116.08,301.28 112.63,282.59 				"/>
				<polygon class="st16" points="112.02,275.19 120.63,296.76 132.42,300.37 147.66,298.57 131.1,305.29 117.45,299.43 				"/>
				<polygon class="st21" points="257.42,353.04 255.3,359.76 245.58,370.78 243.65,377.16 245.23,386.12 236.57,398.95 
					256.05,381.9 261.75,363.29 258.96,355.54 				"/>
				<path class="st4" d="M243.87,409.32l-4.42,0.13l11.17-7.06l2.35-5.53c0.05-1.83,0-5.49,0-5.49l-4.5,7.83l-14.86,6.03
					l-12.27-2.75l1.02,3.61l15.98,9.99c0,0,2.44,0.99,8.46-5.03c0.66-0.66,2.71-3.38,3.21-4.15L243.87,409.32z"/>
				<polygon class="st22" points="232.86,383.19 237.1,385.51 228.35,394.56 222.92,396.8 				"/>
				<polygon class="st5" points="186.22,296.89 198.14,338.23 209.27,370.53 213.63,381.18 217.3,376.51 203.98,332.03 
					187.81,296.89 				"/>
				<rect x="18.29" y="702.73" class="st4" width="234.1" height="2.41"/>
				<rect y="705.18" class="st2" width="270.67" height="26.1"/>
			</g>
		</g>
		<polygon class="st23" points="65.33,419.74 60.48,430.31 68.63,451.97 71.2,458.81 77.5,447.23 130.02,350.69 80.61,415.65 		"/>
		<polygon class="st5" points="98.02,252.29 104.06,260.97 94.06,290.43 		"/>
	</g>
	<path class="st15" d="M220.3,409.97l1.49,19.56c0,0,12.44-3.78,15.79-6.16c13.79-9.77,16.73-22.49,16.73-22.49
		s-7.63,11.11-11.51,13.39c-3.88,2.28-9.62,3.98-9.62,3.98l-8.39-2.42L220.3,409.97z"/>
	<polygon class="st5" points="74.11,495.76 68.96,482.86 71.94,496.81 76.2,518.01 121.79,390.57 81.13,491.31 	"/>
	<path class="st5" d="M126.08,475.97"/>
	<polygon class="st5" points="220.31,416.01 228.07,484 231.57,551.66 226.47,522.55 223.79,473.83 	"/>
</g>
</svg>
