<?xml version="1.0" encoding="utf-8"?>
<!-- Generator: Adobe Illustrator 23.0.1, SVG Export Plug-In . SVG Version: 6.00 Build 0)  -->
<svg version="1.1" id="Layer_13" xmlns="http://www.w3.org/2000/svg" xmlns:xlink="http://www.w3.org/1999/xlink" x="0px" y="0px"
	 viewBox="0 0 99.24 26.96" style="enable-background:new 0 0 99.24 26.96;" xml:space="preserve">
<style type="text/css">
	.st0{fill:#A9EFFF;}
</style>
<path class="st0" d="M94.28,24.49c-0.48,0-0.95,0.06-1.4,0.17c-0.96-3.75-4.37-6.52-8.42-6.52c-3.06,0-5.76,1.58-7.31,3.98
	c-0.98-0.59-2.13-0.94-3.36-0.94c-0.47,0-0.93,0.05-1.37,0.15c-1.27-3.68-4.76-6.31-8.87-6.31c-0.14,0-0.28,0-0.42,0.01
	C61.76,6.51,54.38,0,45.49,0c-9.87,0-17.87,8-17.87,17.87c0,0.69,0.04,1.37,0.12,2.04c-0.18-0.01-0.37-0.03-0.55-0.03
	c-1.32,0-2.56,0.32-3.67,0.87c-2.08-3.98-6.25-6.7-11.05-6.7C5.58,14.06,0,19.64,0,26.52c0,0.15,0,0.29,0.01,0.44h99.24
	C98.1,25.46,96.3,24.49,94.28,24.49z"/>
</svg>
