<?xml version="1.0" encoding="utf-8"?>
<!-- Generator: Adobe Illustrator 23.0.1, SVG Export Plug-In . SVG Version: 6.00 Build 0)  -->
<svg version="1.1" id="圖層_1" xmlns="http://www.w3.org/2000/svg" xmlns:xlink="http://www.w3.org/1999/xlink" x="0px" y="0px"
	 viewBox="0 0 417 202" style="enable-background:new 0 0 417 202;" xml:space="preserve">
<style type="text/css">
	.st0{clip-path:url(#SVGID_2_);}
	.st1{fill:#FFFFFF;}
	.st2{fill:#BB133E;}
	.st3{fill:#002664;}
</style>
<g>
	<defs>
		<polygon id="SVGID_1_" points="138,0 0,202 417,116 		"/>
	</defs>
	<clipPath id="SVGID_2_">
		<use xlink:href="#SVGID_1_"  style="overflow:visible;"/>
	</clipPath>
	<g class="st0">
		
			<rect x="132.03" y="-65.28" transform="matrix(0.4468 -0.8946 0.8946 0.4468 -25.3191 347.9879)" class="st1" width="273.42" height="519.5"/>
		<g>
			
				<rect id="stripe" x="314.61" y="-178.18" transform="matrix(0.4468 -0.8946 0.8946 0.4468 106.87 335.986)" class="st2" width="21.03" height="519.5"/>
		</g>
		<g>
			
				<rect x="295.82" y="-140.55" transform="matrix(0.4468 -0.8946 0.8946 0.4468 62.807 339.9866)" class="st2" width="21.03" height="519.5"/>
		</g>
		<g>
			
				<rect x="277.02" y="-102.91" transform="matrix(0.4468 -0.8946 0.8946 0.4468 18.744 343.9873)" class="st2" width="21.03" height="519.5"/>
		</g>
		<g>
			
				<rect x="258.22" y="-65.28" transform="matrix(0.4468 -0.8946 0.8946 0.4468 -25.3191 347.9879)" class="st2" width="21.03" height="519.5"/>
		</g>
		<g>
			
				<rect x="239.43" y="-27.65" transform="matrix(0.4468 -0.8946 0.8946 0.4468 -69.3821 351.9886)" class="st2" width="21.03" height="519.5"/>
		</g>
		<g>
			
				<rect x="220.63" y="9.98" transform="matrix(0.4468 -0.8946 0.8946 0.4468 -113.4451 355.9892)" class="st2" width="21.03" height="519.5"/>
		</g>
		<g>
			
				<rect x="201.83" y="47.61" transform="matrix(0.4468 -0.8946 0.8946 0.4468 -157.5081 359.9899)" class="st2" width="21.03" height="519.5"/>
		</g>
		
			<rect x="83.89" y="-35.52" transform="matrix(0.4468 -0.8946 0.8946 0.4468 25.9531 178.7334)" class="st3" width="147.23" height="207.8"/>
		<g>
			<polygon class="st1" points="105.41,-20.06 108.23,-14.63 109.14,-20.68 115.18,-21.69 109.7,-24.42 110.61,-30.47 
				106.32,-26.11 100.85,-28.85 103.67,-23.42 99.38,-19.06 			"/>
			<polygon class="st1" points="136.23,-4.67 139.05,0.76 139.96,-5.29 146,-6.3 140.52,-9.03 141.43,-15.08 137.14,-10.72 
				131.67,-13.45 134.49,-8.02 130.2,-3.66 			"/>
			<polygon class="st1" points="167.05,10.73 169.87,16.15 170.78,10.1 176.82,9.1 171.34,6.36 172.25,0.31 167.96,4.67 
				162.49,1.94 165.31,7.37 161.02,11.73 			"/>
			<polygon class="st1" points="197.87,26.12 200.69,31.55 201.6,25.5 207.64,24.49 202.16,21.76 203.07,15.71 198.78,20.07 
				193.31,17.34 196.13,22.76 191.84,27.13 			"/>
			<polygon class="st1" points="228.69,41.51 231.51,46.94 232.42,40.89 238.46,39.89 232.98,37.15 233.89,31.1 229.6,35.46 
				224.13,32.73 226.95,38.16 222.66,42.52 			"/>
			<polygon class="st1" points="263.24,56.29 269.28,55.28 263.8,52.55 264.71,46.5 260.42,50.86 254.95,48.12 257.77,53.55 
				253.48,57.91 259.51,56.91 262.33,62.34 			"/>
			<polygon class="st1" points="115.13,-5.21 109.66,-7.94 112.48,-2.51 108.19,1.85 114.22,0.84 117.04,6.27 117.95,0.22 
				123.99,-0.78 118.51,-3.52 119.42,-9.57 			"/>
			<polygon class="st1" points="145.95,10.19 140.48,7.45 143.3,12.88 139.01,17.24 145.04,16.24 147.86,21.67 148.77,15.62 
				154.81,14.61 149.33,11.88 150.24,5.83 			"/>
			<polygon class="st1" points="176.77,25.58 171.3,22.85 174.12,28.28 169.83,32.64 175.86,31.63 178.68,37.06 179.59,31.01 
				185.63,30 180.16,27.27 181.06,21.22 			"/>
			<polygon class="st1" points="207.59,40.98 202.12,38.24 204.94,43.67 200.65,48.03 206.68,47.03 209.51,52.45 210.41,46.4 
				216.45,45.4 210.98,42.66 211.88,36.61 			"/>
			<path class="st1" d="M238.41,56.37l-5.47-2.73l2.82,5.43l-4.29,4.36l6.04-1.01l2.82,5.43l0.91-6.05l6.04-1.01l-5.47-2.73
				l0.91-6.05L238.41,56.37z M238.94,59.54L238.94,59.54L238.94,59.54L238.94,59.54L238.94,59.54z"/>
			<polygon class="st1" points="92.22,6.35 95.04,11.78 95.95,5.73 101.98,4.73 96.51,1.99 97.42,-4.06 93.12,0.3 87.65,-2.43 
				90.47,3 86.18,7.36 			"/>
			<polygon class="st1" points="123.94,15.7 118.47,12.96 121.29,18.39 117,22.75 123.04,21.75 125.86,27.18 126.77,21.13 
				132.8,20.12 127.33,17.39 128.24,11.34 			"/>
			<polygon class="st1" points="154.76,31.09 149.29,28.36 152.11,33.79 147.82,38.15 153.86,37.14 156.68,42.57 157.59,36.52 
				163.62,35.52 158.15,32.78 159.06,26.73 			"/>
			<polygon class="st1" points="185.58,46.49 180.11,43.75 182.93,49.18 178.64,53.54 184.68,52.54 187.5,57.97 188.41,51.92 
				194.44,50.91 188.97,48.18 189.88,42.13 			"/>
			<polygon class="st1" points="216.41,61.88 210.93,59.15 213.75,64.58 209.46,68.94 215.5,67.93 218.32,73.36 219.23,67.31 
				225.26,66.3 219.79,63.57 220.7,57.52 			"/>
			<polygon class="st1" points="250.61,78.96 251.52,72.91 247.23,77.28 241.75,74.54 244.57,79.97 240.28,84.33 246.32,83.33 
				249.14,88.76 250.05,82.7 256.08,81.7 			"/>
			<polygon class="st1" points="101.03,27.26 103.85,32.69 104.76,26.64 110.79,25.63 105.32,22.9 106.23,16.85 101.94,21.21 
				96.46,18.48 99.28,23.9 94.99,28.27 			"/>
			<polygon class="st1" points="131.85,42.65 134.67,48.08 135.58,42.03 141.61,41.03 136.14,38.29 137.05,32.24 132.76,36.6 
				127.28,33.87 130.1,39.3 125.81,43.66 			"/>
			<polygon class="st1" points="162.67,58.05 165.49,63.48 166.4,57.43 172.43,56.42 166.96,53.69 167.87,47.64 163.58,52 
				158.1,49.26 160.92,54.69 156.63,59.05 			"/>
			<polygon class="st1" points="193.49,73.44 196.31,78.87 197.22,72.82 203.25,71.82 197.78,69.08 198.69,63.03 194.4,67.39 
				188.92,64.66 191.75,70.09 187.45,74.45 			"/>
			<polygon class="st1" points="227.13,94.27 228.04,88.22 234.07,87.21 228.6,84.48 229.51,78.43 225.22,82.79 219.74,80.05 
				222.57,85.48 218.27,89.84 224.31,88.84 			"/>
			<polygon class="st1" points="79.02,32.77 81.84,38.2 82.75,32.15 88.79,31.15 83.31,28.41 84.22,22.36 79.93,26.72 74.46,23.99 
				77.28,29.42 72.98,33.78 			"/>
			<polygon class="st1" points="112.66,53.6 113.57,47.54 119.61,46.54 114.13,43.81 115.04,37.75 110.75,42.12 105.28,39.38 
				108.1,44.81 103.81,49.17 109.84,48.17 			"/>
			<polygon class="st1" points="143.48,68.99 144.39,62.94 150.43,61.93 144.95,59.2 145.86,53.15 141.57,57.51 136.1,54.78 
				138.92,60.21 134.63,64.57 140.66,63.56 			"/>
			<polygon class="st1" points="174.3,84.38 175.21,78.33 181.25,77.33 175.77,74.59 176.68,68.54 172.39,72.9 166.92,70.17 
				169.74,75.6 165.45,79.96 171.48,78.95 			"/>
			<polygon class="st1" points="205.12,99.78 206.03,93.73 212.07,92.72 206.59,89.99 207.5,83.94 203.21,88.3 197.74,85.56 
				200.56,90.99 196.27,95.35 202.3,94.35 			"/>
			<polygon class="st1" points="237.41,105.38 238.32,99.33 234.03,103.69 228.56,100.96 231.38,106.39 227.09,110.75 
				233.12,109.74 235.94,115.17 236.85,109.12 242.89,108.12 			"/>
			<path class="st1" d="M87.83,53.68l2.82,5.43l0.91-6.05l6.04-1.01l-5.47-2.73l0.91-6.05l-4.29,4.36l-5.47-2.73l2.82,5.43
				l-4.29,4.36L87.83,53.68z M89.27,50.8L89.27,50.8L89.27,50.8L89.27,50.8L89.27,50.8z"/>
			<polygon class="st1" points="121.47,74.5 122.38,68.45 128.42,67.45 122.94,64.71 123.85,58.66 119.56,63.02 114.09,60.29 
				116.91,65.72 112.62,70.08 118.65,69.07 			"/>
			<polygon class="st1" points="152.29,89.9 153.2,83.84 159.24,82.84 153.77,80.11 154.67,74.05 150.38,78.42 144.91,75.68 
				147.73,81.11 143.44,85.47 149.47,84.47 			"/>
			<path class="st1" d="M183.11,105.29l0.91-6.05l6.04-1.01l-5.47-2.73l0.91-6.05l-4.29,4.36l-5.47-2.73l2.82,5.43l-4.29,4.36
				l6.04-1.01L183.11,105.29z M181.73,96.98L181.73,96.98L181.73,96.98L181.73,96.98z"/>
			<polygon class="st1" points="213.94,120.68 214.84,114.63 220.88,113.63 215.41,110.89 216.31,104.84 212.02,109.2 
				206.55,106.47 209.37,111.9 205.08,116.26 211.11,115.25 			"/>
			<polygon class="st1" points="65.83,59.19 68.65,64.62 69.56,58.57 75.59,57.56 70.12,54.83 71.03,48.78 66.73,53.14 61.26,50.4 
				64.08,55.83 59.79,60.19 			"/>
			<polygon class="st1" points="99.47,80.01 100.38,73.96 106.41,72.96 100.94,70.22 101.85,64.17 97.55,68.53 92.08,65.8 
				94.9,71.23 90.61,75.59 96.65,74.58 			"/>
			<path class="st1" d="M130.29,95.41l0.91-6.05l6.04-1.01l-5.47-2.73l0.91-6.05l-4.29,4.36l-5.47-2.73l2.82,5.43l-4.29,4.36
				l6.04-1.01L130.29,95.41z M128.9,87.1L128.9,87.1L128.9,87.1L128.9,87.1L128.9,87.1z"/>
			<polygon class="st1" points="161.11,110.8 162.02,104.75 168.05,103.75 162.58,101.01 163.49,94.96 159.19,99.32 153.72,96.59 
				156.54,102.02 152.25,106.38 158.29,105.37 			"/>
			<polygon class="st1" points="191.93,126.2 192.84,120.14 198.87,119.14 193.4,116.41 194.31,110.35 190.02,114.72 184.54,111.98 
				187.36,117.41 183.07,121.77 189.11,120.77 			"/>
			<polygon class="st1" points="224.22,131.8 225.13,125.75 220.84,130.11 215.36,127.38 218.18,132.81 213.89,137.17 
				219.93,136.16 222.75,141.59 223.66,135.54 229.69,134.53 			"/>
			<path class="st1" d="M77.46,85.52l0.91-6.05l6.04-1.01l-5.47-2.73l0.91-6.05l-4.29,4.36l-5.47-2.73l2.82,5.43L68.6,81.1
				l6.04-1.01L77.46,85.52z M76.08,77.22L76.08,77.22L76.08,77.22L76.08,77.22L76.08,77.22z"/>
			<path class="st1" d="M108.28,100.92l0.91-6.05l6.04-1.01l-5.47-2.73l0.91-6.05l-4.29,4.36l-5.47-2.73l2.82,5.43l-4.29,4.36
				l6.04-1.01L108.28,100.92z M106.9,92.61L106.9,92.61L106.9,92.61L106.9,92.61L106.9,92.61L106.9,92.61z"/>
			<polygon class="st1" points="139.1,116.31 140.01,110.26 146.04,109.26 140.57,106.52 141.48,100.47 137.19,104.83 131.71,102.1 
				134.53,107.53 130.24,111.89 136.28,110.88 			"/>
			<polygon class="st1" points="169.92,131.71 170.83,125.66 176.86,124.65 171.39,121.92 172.3,115.87 168.01,120.23 
				162.53,117.49 165.35,122.92 161.06,127.28 167.1,126.28 			"/>
			<polygon class="st1" points="200.74,147.1 201.65,141.05 207.68,140.05 202.21,137.31 203.12,131.26 198.83,135.62 
				193.35,132.89 196.18,138.32 191.88,142.68 197.92,141.67 			"/>
			<polygon class="st1" points="56.92,81.25 57.83,75.2 53.54,79.56 48.07,76.82 50.89,82.25 46.59,86.61 52.63,85.61 55.45,91.04 
				56.36,84.99 62.4,83.98 			"/>
			<polygon class="st1" points="87.74,96.64 88.65,90.59 84.36,94.95 78.89,92.22 81.71,97.65 77.41,102.01 83.45,101 86.27,106.43 
				87.18,100.38 93.22,99.37 			"/>
			<polygon class="st1" points="118.56,112.03 119.47,105.98 115.18,110.34 109.71,107.61 112.53,113.04 108.24,117.4 114.27,116.4 
				117.09,121.82 118,115.77 124.04,114.77 			"/>
			<polygon class="st1" points="149.38,127.43 150.29,121.38 146,125.74 140.53,123 143.35,128.43 139.06,132.79 145.09,131.79 
				147.91,137.22 148.82,131.17 154.86,130.16 			"/>
			<polygon class="st1" points="180.2,142.82 181.11,136.77 176.82,141.13 171.35,138.4 174.17,143.83 169.88,148.19 175.91,147.18 
				178.73,152.61 179.64,146.56 185.68,145.56 			"/>
			<polygon class="st1" points="211.02,158.22 211.93,152.17 207.64,156.53 202.17,153.79 204.99,159.22 200.7,163.58 
				206.73,162.58 209.55,168.01 210.46,161.96 216.5,160.95 			"/>
		</g>
	</g>
</g>
</svg>
