<?xml version="1.0" encoding="utf-8"?>
<!-- Generator: Adobe Illustrator 23.0.1, SVG Export Plug-In . SVG Version: 6.00 Build 0)  -->
<svg version="1.1" id="分離模式" xmlns="http://www.w3.org/2000/svg" xmlns:xlink="http://www.w3.org/1999/xlink" x="0px"
	 y="0px" viewBox="0 0 448.88 317.02" style="enable-background:new 0 0 448.88 317.02;" xml:space="preserve">
<style type="text/css">
	.st0{opacity:0.12;}
	.st1{fill:#FFFFFF;}
</style>
<g class="st0">
	<polygon class="st1" points="20.34,0 15.85,13.83 1.3,13.83 13.07,22.38 8.57,36.22 20.34,27.67 32.11,36.22 27.61,22.38 
		39.38,13.83 24.83,13.83 	"/>
	<polygon class="st1" points="102.24,0 97.75,13.83 83.2,13.83 94.97,22.38 90.47,36.22 102.24,27.67 114.01,36.22 109.51,22.38 
		121.28,13.83 106.73,13.83 	"/>
	<polygon class="st1" points="184.14,0 179.65,13.83 165.1,13.83 176.87,22.38 172.37,36.22 184.14,27.67 195.91,36.22 
		191.41,22.38 203.18,13.83 188.63,13.83 	"/>
	<polygon class="st1" points="266.04,0 261.55,13.83 247,13.83 258.77,22.38 254.27,36.22 266.04,27.67 277.81,36.22 273.31,22.38 
		285.08,13.83 270.53,13.83 	"/>
	<polygon class="st1" points="347.94,0 343.45,13.83 328.9,13.83 340.67,22.38 336.17,36.22 347.94,27.67 359.71,36.22 
		355.21,22.38 366.98,13.83 352.43,13.83 	"/>
	<polygon class="st1" points="418.07,36.22 429.84,27.67 441.61,36.22 437.11,22.38 448.88,13.83 434.33,13.83 429.84,0 
		425.35,13.83 410.8,13.83 422.57,22.38 	"/>
	<polygon class="st1" points="61.29,35.1 56.8,48.93 42.25,48.93 54.02,57.48 49.52,71.32 61.29,62.77 73.06,71.32 68.56,57.48 
		80.33,48.93 65.78,48.93 	"/>
	<polygon class="st1" points="143.19,35.1 138.7,48.93 124.15,48.93 135.92,57.48 131.42,71.32 143.19,62.77 154.96,71.32 
		150.46,57.48 162.23,48.93 147.68,48.93 	"/>
	<polygon class="st1" points="225.09,35.1 220.6,48.93 206.05,48.93 217.82,57.48 213.32,71.32 225.09,62.77 236.86,71.32 
		232.36,57.48 244.13,48.93 229.58,48.93 	"/>
	<polygon class="st1" points="306.99,35.1 302.5,48.93 287.95,48.93 299.72,57.48 295.22,71.32 306.99,62.77 318.76,71.32 
		314.26,57.48 326.03,48.93 311.48,48.93 	"/>
	<polygon class="st1" points="388.89,35.1 384.4,48.93 369.85,48.93 381.62,57.48 377.12,71.32 388.89,62.77 400.66,71.32 
		396.16,57.48 407.93,48.93 393.38,48.93 	"/>
	<polygon class="st1" points="20.34,70.2 15.85,84.03 1.3,84.03 13.07,92.58 8.57,106.42 20.34,97.87 32.11,106.42 27.61,92.58 
		39.38,84.03 24.83,84.03 	"/>
	<polygon class="st1" points="102.24,70.2 97.75,84.03 83.2,84.03 94.97,92.58 90.47,106.42 102.24,97.87 114.01,106.42 
		109.51,92.58 121.28,84.03 106.73,84.03 	"/>
	<polygon class="st1" points="184.14,70.2 179.65,84.03 165.1,84.03 176.87,92.58 172.37,106.42 184.14,97.87 195.91,106.42 
		191.41,92.58 203.18,84.03 188.63,84.03 	"/>
	<polygon class="st1" points="266.04,70.2 261.55,84.03 247,84.03 258.77,92.58 254.27,106.42 266.04,97.87 277.81,106.42 
		273.31,92.58 285.08,84.03 270.53,84.03 	"/>
	<polygon class="st1" points="347.94,70.2 343.45,84.03 328.9,84.03 340.67,92.58 336.17,106.42 347.94,97.87 359.71,106.42 
		355.21,92.58 366.98,84.03 352.43,84.03 	"/>
	<polygon class="st1" points="429.84,70.2 425.35,84.03 410.8,84.03 422.57,92.58 418.07,106.42 429.84,97.87 441.61,106.42 
		437.11,92.58 448.88,84.03 434.33,84.03 	"/>
	<polygon class="st1" points="61.29,105.3 56.8,119.13 42.25,119.13 54.02,127.68 49.52,141.52 61.29,132.97 73.06,141.52 
		68.56,127.68 80.33,119.13 65.78,119.13 	"/>
	<polygon class="st1" points="143.19,105.3 138.7,119.13 124.15,119.13 135.92,127.68 131.42,141.52 143.19,132.97 154.96,141.52 
		150.46,127.68 162.23,119.13 147.68,119.13 	"/>
	<polygon class="st1" points="225.09,105.3 220.6,119.13 206.05,119.13 217.82,127.68 213.32,141.52 225.09,132.97 236.86,141.52 
		232.36,127.68 244.13,119.13 229.58,119.13 	"/>
	<polygon class="st1" points="306.99,105.3 302.5,119.13 287.95,119.13 299.72,127.68 295.22,141.52 306.99,132.97 318.76,141.52 
		314.26,127.68 326.03,119.13 311.48,119.13 	"/>
	<polygon class="st1" points="388.89,105.3 384.4,119.13 369.85,119.13 381.62,127.68 377.12,141.52 388.89,132.97 400.66,141.52 
		396.16,127.68 407.93,119.13 393.38,119.13 	"/>
	<polygon class="st1" points="20.34,140.4 15.85,154.23 1.3,154.23 13.07,162.78 8.57,176.62 20.34,168.07 32.11,176.62 
		27.61,162.78 39.38,154.23 24.83,154.23 	"/>
	<polygon class="st1" points="102.24,140.4 97.75,154.23 83.2,154.23 94.97,162.78 90.47,176.62 102.24,168.07 114.01,176.62 
		109.51,162.78 121.28,154.23 106.73,154.23 	"/>
	<polygon class="st1" points="184.14,140.4 179.65,154.23 165.1,154.23 176.87,162.78 172.37,176.62 184.14,168.07 195.91,176.62 
		191.41,162.78 203.18,154.23 188.63,154.23 	"/>
	<polygon class="st1" points="266.04,140.4 261.55,154.23 247,154.23 258.77,162.78 254.27,176.62 266.04,168.07 277.81,176.62 
		273.31,162.78 285.08,154.23 270.53,154.23 	"/>
	<polygon class="st1" points="347.94,140.4 343.45,154.23 328.9,154.23 340.67,162.78 336.17,176.62 347.94,168.07 359.71,176.62 
		355.21,162.78 366.98,154.23 352.43,154.23 	"/>
	<polygon class="st1" points="429.84,140.4 425.35,154.23 410.8,154.23 422.57,162.78 418.07,176.62 429.84,168.07 441.61,176.62 
		437.11,162.78 448.88,154.23 434.33,154.23 	"/>
	<polygon class="st1" points="61.29,175.5 56.8,189.33 42.25,189.33 54.02,197.88 49.52,211.72 61.29,203.17 73.06,211.72 
		68.56,197.88 80.33,189.33 65.78,189.33 	"/>
	<polygon class="st1" points="143.19,175.5 138.7,189.33 124.15,189.33 135.92,197.88 131.42,211.72 143.19,203.17 154.96,211.72 
		150.46,197.88 162.23,189.33 147.68,189.33 	"/>
	<polygon class="st1" points="225.09,175.5 220.6,189.33 206.05,189.33 217.82,197.88 213.32,211.72 225.09,203.17 236.86,211.72 
		232.36,197.88 244.13,189.33 229.58,189.33 	"/>
	<polygon class="st1" points="306.99,175.5 302.5,189.33 287.95,189.33 299.72,197.88 295.22,211.72 306.99,203.17 318.76,211.72 
		314.26,197.88 326.03,189.33 311.48,189.33 	"/>
	<polygon class="st1" points="388.89,175.5 384.4,189.33 369.85,189.33 381.62,197.88 377.12,211.72 388.89,203.17 400.66,211.72 
		396.16,197.88 407.93,189.33 393.38,189.33 	"/>
	<polygon class="st1" points="20.34,210.6 15.85,224.43 1.3,224.43 13.07,232.98 8.57,246.82 20.34,238.27 32.11,246.82 
		27.61,232.98 39.38,224.43 24.83,224.43 	"/>
	<polygon class="st1" points="102.24,210.6 97.75,224.43 83.2,224.43 94.97,232.98 90.47,246.82 102.24,238.27 114.01,246.82 
		109.51,232.98 121.28,224.43 106.73,224.43 	"/>
	<polygon class="st1" points="184.14,210.6 179.65,224.43 165.1,224.43 176.87,232.98 172.37,246.82 184.14,238.27 195.91,246.82 
		191.41,232.98 203.18,224.43 188.63,224.43 	"/>
	<polygon class="st1" points="266.04,210.6 261.55,224.43 247,224.43 258.77,232.98 254.27,246.82 266.04,238.27 277.81,246.82 
		273.31,232.98 285.08,224.43 270.53,224.43 	"/>
	<polygon class="st1" points="347.94,210.6 343.45,224.43 328.9,224.43 340.67,232.98 336.17,246.82 347.94,238.27 359.71,246.82 
		355.21,232.98 366.98,224.43 352.43,224.43 	"/>
	<polygon class="st1" points="429.84,210.6 425.35,224.43 410.8,224.43 422.57,232.98 418.07,246.82 429.84,238.27 441.61,246.82 
		437.11,232.98 448.88,224.43 434.33,224.43 	"/>
	<polygon class="st1" points="65.78,259.53 61.29,245.7 56.8,259.53 42.25,259.53 54.02,268.08 49.52,281.92 61.29,273.37 
		73.06,281.92 68.56,268.08 80.33,259.53 	"/>
	<polygon class="st1" points="147.68,259.53 143.19,245.7 138.7,259.53 124.15,259.53 135.92,268.08 131.42,281.92 143.19,273.37 
		154.96,281.92 150.46,268.08 162.23,259.53 	"/>
	<polygon class="st1" points="229.58,259.53 225.09,245.7 220.6,259.53 206.05,259.53 217.82,268.08 213.32,281.92 225.09,273.37 
		236.86,281.92 232.36,268.08 244.13,259.53 	"/>
	<polygon class="st1" points="311.48,259.53 306.99,245.7 302.5,259.53 287.95,259.53 299.72,268.08 295.22,281.92 306.99,273.37 
		318.76,281.92 314.26,268.08 326.03,259.53 	"/>
	<polygon class="st1" points="393.38,259.53 388.89,245.7 384.4,259.53 369.85,259.53 381.62,268.08 377.12,281.92 388.89,273.37 
		400.66,281.92 396.16,268.08 407.93,259.53 	"/>
	<polygon class="st1" points="24.83,294.63 20.34,280.8 15.85,294.63 1.3,294.63 13.07,303.18 8.57,317.02 20.34,308.47 
		32.11,317.02 27.61,303.18 39.38,294.63 	"/>
	<polygon class="st1" points="106.73,294.63 102.24,280.8 97.75,294.63 83.2,294.63 94.97,303.18 90.47,317.02 102.24,308.47 
		114.01,317.02 109.51,303.18 121.28,294.63 	"/>
	<polygon class="st1" points="188.63,294.63 184.14,280.8 179.65,294.63 165.1,294.63 176.87,303.18 172.37,317.02 184.14,308.47 
		195.91,317.02 191.41,303.18 203.18,294.63 	"/>
	<polygon class="st1" points="270.53,294.63 266.04,280.8 261.55,294.63 247,294.63 258.77,303.18 254.27,317.02 266.04,308.47 
		277.81,317.02 273.31,303.18 285.08,294.63 	"/>
	<polygon class="st1" points="352.43,294.63 347.94,280.8 343.45,294.63 328.9,294.63 340.67,303.18 336.17,317.02 347.94,308.47 
		359.71,317.02 355.21,303.18 366.98,294.63 	"/>
	<polygon class="st1" points="434.33,294.63 429.84,280.8 425.35,294.63 410.8,294.63 422.57,303.18 418.07,317.02 429.84,308.47 
		441.61,317.02 437.11,303.18 448.88,294.63 	"/>
</g>
</svg>
