<?xml version="1.0" encoding="utf-8"?>
<!-- Generator: Adobe Illustrator 24.0.1, SVG Export Plug-In . SVG Version: 6.00 Build 0)  -->
<svg version="1.1" id="圖層_1" xmlns="http://www.w3.org/2000/svg" xmlns:xlink="http://www.w3.org/1999/xlink" x="0px" y="0px"
	 viewBox="0 0 425 238.8" style="enable-background:new 0 0 425 238.8;" xml:space="preserve">
<style type="text/css">
	.st0{enable-background:new    ;}
	.st1{fill:none;stroke:#000000;stroke-miterlimit:10;}
	.st2{fill:#376092;}
</style>
<g class="st0">
	<path d="M73.4,9.9c-0.1,1.4-0.5,2.6-1.3,3.7c2.1,0.9,4.8,1.1,8.3,1.2c-0.4,0.5-0.8,1.4-0.9,2.1c-3.7-0.2-6.6-0.6-8.9-1.8
		c-1.2,0.8-2.8,1.5-5,2c-0.2-0.5-0.8-1.3-1.2-1.8c2-0.4,3.4-0.8,4.4-1.4c-0.9-0.8-1.7-1.8-2.3-3.1l1.9-0.7c0.6,1,1.3,1.9,2.1,2.5
		c0.6-0.8,0.8-1.7,0.9-2.7h-5.5V3.6h5.6V1.2h2.1v2.4h5.6v6.3H73.4z M67.7,7.9h3.6V5.5h-3.6V7.9z M73.4,5.5v2.4H77V5.5H73.4z"/>
	<path d="M87.4,12.4c-1.9,0.7-3.8,1.4-5.4,2l-0.7-2.1c0.6-0.2,1.4-0.4,2.2-0.7V7h-1.8V5.1h1.8V1.4h1.9v3.7h1.5V7h-1.5v4
		c0.5-0.2,1.1-0.3,1.6-0.5L87.4,12.4z M97.3,14.4v1.9H85.9v-1.9H97.3z M96.2,12.9h-8.1V1.8h8.1V12.9z M90,3.7v2.6h4.1V3.7H90z
		 M94.1,11V8.2H90V11H94.1z"/>
	<path d="M114.1,7.5v1.6H98.7V7.5h2.5c-0.2-0.7-0.6-1.6-1-2.3l1.3-0.5h-1.9V3.1h2.9c-0.2-0.4-0.6-1-0.9-1.3l1.8-0.6
		c0.5,0.5,1,1.2,1.2,1.7l-0.7,0.3h4.2c0.4-0.6,0.9-1.4,1.1-2l2,0.6c-0.3,0.5-0.6,1-0.9,1.4h3.1v1.6h-2.2l1.4,0.4
		c-0.4,0.9-0.9,1.7-1.2,2.4H114.1z M100.8,9.9H112V17H110v-0.4h-7.2V17h-2V9.9z M101.9,4.7c0.5,0.7,0.9,1.6,1.1,2.2l-1.4,0.6h2.1
		V4.7H101.9z M102.7,11.4v1h7.2v-1H102.7z M110,15v-1.1h-7.2V15H110z M107,4.7h-1.4v2.8h1.4V4.7z M109.6,7.1c0.3-0.6,0.7-1.6,1-2.3
		h-1.7v2.8h2L109.6,7.1z"/>
	<path d="M115.3,14.1l1.2-1.6c0.7,0.7,1.6,1.3,2.8,1.3c1.3,0,2.2-0.8,2.2-2.1c0-1.4-0.8-2.1-2.1-2.1c-0.7,0-1.2,0.2-1.9,0.7
		l-1.1-0.7l0.3-6.1h6.7v2.1h-4.6l-0.2,2.7c0.5-0.2,0.9-0.3,1.5-0.3c2.1,0,3.9,1.2,3.9,3.8c0,2.7-2.1,4.3-4.4,4.3
		C117.6,15.8,116.2,15,115.3,14.1z"/>
	<path d="M125.6,9.4c0-4.1,1.7-6.3,4.3-6.3c2.6,0,4.2,2.2,4.2,6.3c0,4.2-1.7,6.4-4.2,6.4C127.3,15.8,125.6,13.5,125.6,9.4z
		 M131.8,9.4c0-3.4-0.8-4.4-1.9-4.4S128,6,128,9.4c0,3.4,0.8,4.5,1.9,4.5S131.8,12.8,131.8,9.4z"/>
	<path d="M135.6,9.4c0-4.1,1.7-6.3,4.3-6.3c2.6,0,4.2,2.2,4.2,6.3c0,4.2-1.7,6.4-4.2,6.4C137.3,15.8,135.6,13.5,135.6,9.4z
		 M141.8,9.4c0-3.4-0.8-4.4-1.9-4.4S138,6,138,9.4c0,3.4,0.8,4.5,1.9,4.5S141.8,12.8,141.8,9.4z"/>
	<path d="M154.9,1.9c-0.1,0.2-0.2,0.3-0.4,0.5c2.2,2.3,4.6,3.5,7,4.4c-0.5,0.4-1,1.1-1.3,1.8c-2.3-1-4.6-2.3-6.9-4.7
		c-1.9,2-4.3,3.6-6.8,4.7c-0.3-0.5-0.9-1.3-1.4-1.7c3-1.2,6.2-3.2,7.9-5.8L154.9,1.9z M154.6,14.8h6.1v1.8h-14.4v-1.8h1.8V8.8h2v5.9
		h2.4V6h2.1v3.5h4.5v1.8h-4.5V14.8z"/>
	<path d="M169,14.4c-1.2,1-3.2,1.9-4.9,2.3c-0.3-0.4-0.8-1.1-1.2-1.5c1.7-0.2,3.7-0.8,4.7-1.4L169,14.4z M178,11.5v1.7h-6.6V17h-2
		v-3.9h-6.5v-1.7h6.5v-0.7h-4.9V9.3h4.9V8.5h-5.7V7h3.1c-0.2-0.4-0.4-0.9-0.6-1.2l1.1-0.3h-4.3V3.9h2.3c-0.3-0.6-0.7-1.5-1.1-2.1
		l1.7-0.6c0.5,0.7,1.1,1.7,1.3,2.4l-0.8,0.3h1.6V1.2h1.9v2.8h1.3V1.2h1.9v2.8h1.5l-0.6-0.2c0.4-0.7,0.8-1.7,1.1-2.4l2.1,0.5
		c-0.5,0.8-0.9,1.5-1.4,2.1h2.2v1.6h-4.5l1.6,0.4c-0.4,0.4-0.7,0.8-1,1.1h3.3v1.5h-5.9v0.8h5.1v1.5h-5.1v0.7H178z M168.2,5.5
		c0.3,0.4,0.5,0.9,0.7,1.3L167.9,7h4.6L172,6.8c0.3-0.4,0.6-0.9,0.9-1.3H168.2z M173.5,13.6c1.4,0.5,3.4,1.4,4.5,1.9l-1.4,1.1
		c-1-0.6-3-1.5-4.4-2.1L173.5,13.6z"/>
	<path d="M192.8,11.2c-0.1,0.7-0.1,1.3-0.1,1.9h1.9v1.8h-2.1c-0.1,0.7-0.3,1.1-0.4,1.4c-0.4,0.5-0.8,0.7-1.4,0.8
		c-0.6,0.1-1.4,0.1-2.3,0c0-0.4-0.2-1.1-0.5-1.5c0.8,0.1,1.4,0.1,1.8,0.1c0.3,0,0.4,0,0.6-0.3c0.1-0.1,0.1-0.2,0.2-0.5h-9.1
		c0.2-1,0.4-2.3,0.6-3.6h-2.3V9.4h2.6c0.1-1,0.3-2.1,0.4-3c-0.4,0.5-0.8,1-1.3,1.4c-0.4-0.3-1.3-0.9-1.8-1.2c1.6-1.3,3-3.5,3.9-5.5
		l2,0.6c-0.2,0.3-0.3,0.7-0.5,1.1h9.8v1.8h-10.9c-0.3,0.5-0.6,0.9-0.9,1.3H193c0,0,0,0.6,0,0.9c0,1-0.1,1.9-0.1,2.7h2.4v1.8H192.8z
		 M183.9,11.1c-0.1,0.7-0.2,1.3-0.3,1.9h3.7c-0.6-0.5-1.3-0.9-2-1.3l0.7-0.7H183.9z M184.4,7.6c-0.1,0.6-0.2,1.2-0.2,1.9h3.4
		c-0.6-0.4-1.3-0.9-2-1.2l0.7-0.7H184.4z M190.7,13c0-0.5,0.1-1.2,0.1-1.9h-3.5c0.8,0.4,1.5,0.9,2,1.3l-0.6,0.6H190.7z M190.9,9.4
		c0-0.6,0.1-1.2,0.1-1.9h-3.5c0.7,0.4,1.5,0.9,1.9,1.3l-0.6,0.6H190.9z"/>
	<path d="M211.9,8.9c-0.5,2.2-1.5,3.8-2.8,5.1c1,0.5,2.1,1,3.3,1.3c-0.4,0.4-1,1.2-1.3,1.8c-1.4-0.4-2.6-1-3.7-1.7
		c-1.1,0.7-2.3,1.2-3.7,1.6c-0.2-0.5-0.6-1.3-1-1.7c-0.1,0.6-0.2,1-0.6,1.3c-0.5,0.3-1.2,0.4-2.1,0.4c-0.1-0.5-0.3-1.4-0.5-1.9
		c0.5,0,1,0,1.2,0s0.3-0.1,0.3-0.3v-3.4c-0.5,0.3-0.9,0.6-1.3,0.8l-0.5-1.2c-0.1,2.1-0.4,4.4-1.1,6.1c-0.4-0.3-1.2-0.7-1.6-0.9
		c0.9-2.3,0.9-5.7,0.9-8.2V1.7h5.4v5.1c1.8-0.9,2.1-2.1,2.1-3.2V1.8h5.7v3.7c0,0.5,0,0.7,0.2,0.7h0.7c0.2,0,0.6-0.1,0.8-0.1
		c0.1,0.5,0.1,1.2,0.2,1.6c-0.3,0.1-0.6,0.1-1,0.1h-0.9c-1.6,0-1.9-0.7-1.9-2.3V3.6h-2c0,1.6-0.5,3.5-2.7,4.6
		c-0.2-0.3-0.8-1-1.2-1.3v7.8c0,0.1,0,0.3,0,0.4c1.2-0.3,2.2-0.7,3.2-1.2c-0.9-1-1.6-2.1-2.2-3.3l0.8-0.3h-1.2V8.5h6.9l0.4-0.1
		L211.9,8.9z M199.2,7.9c0,0.7,0,1.5-0.1,2.3c0.5-0.2,1.1-0.4,1.8-0.6V7.7l-0.7,0.5c-0.2-0.3-0.6-0.8-1-1.3V7.9z M199.2,3.6v2.1
		l0.5-0.3c0.4,0.4,0.9,0.8,1.2,1.3v-3H199.2z M205.6,10.4c0.4,0.9,1.1,1.7,1.9,2.4c0.7-0.7,1.4-1.5,1.8-2.4H205.6z"/>
	<path d="M218.1,6.1c-0.6,2.1-1.7,3.8-3.2,5c-0.3-0.4-1-1.1-1.5-1.4c1.9-1.3,2.9-3.4,3.3-6.2h-2.6V1.8h11.9c-0.2,1-0.4,2.1-0.6,3
		h3.2c0,0,0,0.5-0.1,0.7c-0.2,2.6-0.5,3.8-1,4.2c-0.4,0.4-0.8,0.5-1.4,0.6c-0.5,0.1-1.3,0.1-2.1,0c0-0.5-0.3-1.2-0.6-1.7
		c0.8,0.1,1.5,0.1,1.8,0.1c0.3,0,0.5,0,0.6-0.2c0.3-0.2,0.4-0.8,0.6-2.1h-3.4c0.2-0.8,0.5-1.9,0.7-3h-5.1c-0.1,0.4-0.1,0.7-0.2,1
		h3.1l0.3,0l1,0.3c-0.3,1.4-0.7,2.4-1.3,3.3c0.6,0.4,1.2,0.9,1.6,1.3l-1.2,1.2c-0.4-0.4-0.9-0.8-1.5-1.2c-0.7,0.6-1.5,1.1-2.4,1.4
		c-0.2-0.4-0.8-1.1-1.1-1.3c0.8-0.3,1.5-0.6,2.1-1.1c-0.5-0.3-1.1-0.6-1.5-0.8l1.1-1.1c0.5,0.2,1,0.5,1.5,0.8
		c0.2-0.4,0.4-0.7,0.6-1.2H218.1z M229.2,14.8v1.7h-15.5v-1.7h1.8V11h11.9v3.8H229.2z M217.3,14.8h1.4v-2.3h-1.4V14.8z M220.6,12.6
		v2.3h1.4v-2.3H220.6z M223.9,12.6v2.3h1.5v-2.3H223.9z"/>
	<path d="M232.8,4.8c-0.5,0.5-1.1,1-1.7,1.4c-0.1-0.4-0.5-1.5-0.8-1.9c1.3-0.8,2.7-2,3.4-3.3l1.7,0.6c-0.1,0.2-0.2,0.3-0.3,0.4
		c0.8,0.4,1.7,0.8,2.2,1.1l-0.8,1.6c-0.5-0.4-1.5-0.9-2.3-1.3c-0.3,0.3-0.6,0.6-0.8,1h2.5v1.3h-3V4.8z M235.7,12.5
		c0.5,1.1,1.3,2.5,1.6,3.3l-1.6,0.8c-0.1-0.3-0.3-0.8-0.5-1.2c-3,1.1-3.6,1.4-3.9,1.6c-0.1-0.5-0.4-1.3-0.7-1.8
		c0.3-0.2,0.7-0.4,0.7-1V6.3h5.2v6.1h-3.4v2l1.4-0.5c-0.1-0.3-0.3-0.6-0.4-0.8L235.7,12.5z M233.2,7.7v0.9h1.6V7.7H233.2z
		 M234.8,10.9V10h-1.6v0.9H234.8z M242.6,10.9v4.2c0,0.9-0.2,1.3-0.7,1.6c-0.5,0.3-1.2,0.3-2.2,0.3c-0.1-0.5-0.4-1.2-0.6-1.7
		c0.6,0,1.2,0,1.4,0c0.2,0,0.3-0.1,0.3-0.3v-4.2h-3.4V9.1h3.4V7.7h-2.4V6.1c-0.2,0.1-0.4,0.3-0.6,0.4c-0.2-0.5-0.7-1.1-1.2-1.5
		c1.8-0.8,3.7-2.3,4.7-4l1.5,0.7c-0.1,0.2-0.2,0.3-0.3,0.5c1.2,1.2,2.5,2,4,2.7c-0.5,0.5-1,1.1-1.3,1.7c-0.2-0.1-0.3-0.2-0.4-0.3
		v1.5h-2.2v1.3h3.4v1.8H242.6z M240,11.9c-0.4,1.3-1.1,2.8-1.6,3.7c-0.3-0.3-1-0.7-1.4-0.9c0.5-0.8,1.1-2.1,1.4-3.3L240,11.9z
		 M244.3,6c-1-0.7-2-1.5-2.9-2.4c-0.8,1-1.9,1.8-2.9,2.4H244.3z M244.7,11.3c0.6,1.1,1.3,2.6,1.7,3.5l-1.6,0.8
		c-0.3-0.9-1-2.5-1.6-3.7L244.7,11.3z"/>
	<path d="M262.3,7.1c-0.7,2.2-1.7,4.2-2.9,5.8c0.5,1.2,1,1.9,1.6,1.9c0.4,0,0.6-0.8,0.7-3c0.5,0.5,1.2,0.9,1.7,1.1
		c-0.3,3.1-1,3.9-2.6,3.9c-1.2,0-2.1-0.8-2.9-2.2c-0.9,0.9-1.8,1.7-2.9,2.3c-0.3-0.4-1-1.3-1.5-1.7c1.3-0.7,2.5-1.6,3.5-2.8
		c-0.6-1.9-1-4.3-1.2-6.9h-4.9v1.8h4.2c0,0,0,0.5,0,0.8c-0.1,3.6-0.2,5.1-0.5,5.6c-0.3,0.4-0.7,0.6-1.2,0.7c-0.4,0.1-1.2,0.1-2,0.1
		c0-0.6-0.3-1.4-0.6-1.9c0.6,0.1,1.2,0.1,1.5,0.1c0.2,0,0.4,0,0.5-0.2c0.2-0.2,0.2-1.1,0.3-3.2h-2.2c-0.1,2.5-0.4,5.8-1.8,7.9
		c-0.4-0.4-1.3-1.1-1.7-1.4c1.3-2,1.4-5,1.4-7.2v-5h6.9c0-0.8-0.1-1.7-0.1-2.5h2.1c0,0.9,0,1.7,0,2.5h2.6c-0.6-0.5-1.5-1.1-2.2-1.5
		l1.2-1.2c0.9,0.5,2.2,1.3,2.8,1.8l-0.8,0.9h1.8v2h-5.3c0.2,1.7,0.4,3.3,0.7,4.7c0.7-1.1,1.2-2.4,1.6-3.8L262.3,7.1z"/>
	<path d="M279.6,11.9c-0.9,0.7-2,1.3-3,1.9c1.1,0.6,2.3,1.1,3.9,1.4c-0.4,0.4-1,1.3-1.3,1.8c-3.8-0.9-6.1-2.8-7.5-6h-2.4v3.6
		l3.7-0.7c-0.1,0.5-0.2,1.4-0.2,1.8c-4.1,0.9-5,1.1-5.5,1.3l-0.1,0.1c-0.1-0.5-0.5-1.5-0.8-2c0.4-0.2,0.9-0.6,0.9-1.3V11h-2.5V9.2
		h2.8V1.7h10.7v1.6h-8.7v0.9h8.2v1.6h-8.2v0.9h8.2v1.6h-8.2v0.9h10.4V11h-1.8L279.6,11.9z M273.8,11c0.4,0.6,0.8,1.2,1.4,1.7
		c0.9-0.5,1.8-1.2,2.5-1.7H273.8z"/>
	<path d="M291.9,11.2c-0.1-0.2-0.2-0.5-0.3-0.8c-4.1,0.4-4.7,0.5-5.1,0.7c-0.1-0.3-0.3-1.2-0.5-1.6c-1.1,0.6-2.3,1.2-3.3,1.7l-1-1.6
		c1.1-0.4,2.7-1.1,4.2-1.7l0.4,1.5l-0.3,0.2c0.4-0.1,0.8-0.4,1.4-0.9c0.3-0.2,0.7-0.6,1.3-1.2c-1.3,0.1-1.7,0.2-1.9,0.3
		c-0.1-0.4-0.4-1.1-0.5-1.6c0.3-0.1,0.5-0.3,0.8-0.6c0.2-0.2,0.5-0.6,0.9-1.2h-5.8V2.5h6.3c-0.2-0.3-0.4-0.7-0.6-1l2.1-0.5
		c0.3,0.4,0.7,1,0.9,1.4h6.1v1.8h-7c-0.4,0.5-0.7,1-1.2,1.5l1.5-0.1c0.4-0.4,0.8-0.9,1.1-1.4l1.5,0.9c-1.2,1.4-2.5,2.7-3.9,3.8
		l1.8-0.1c-0.2-0.3-0.4-0.6-0.6-0.9l1.5-0.5c0.3,0.3,0.5,0.7,0.8,1.1l1.1-0.9c1.1,0.6,2.6,1.5,3.4,2.2l-1.5,1.2
		c-0.6-0.6-1.7-1.4-2.7-2c0.3,0.5,0.5,1,0.7,1.4L291.9,11.2z M297.2,13.9h-6.7V17h-2.2v-3.1h-6.6V12h6.6v-1.1h2.2V12h6.7V13.9z
		 M284.6,7.7c-0.5-0.6-1.6-1.4-2.5-1.9l1.3-1.1c0.9,0.5,2,1.3,2.6,1.8L284.6,7.7z M292.6,6.8c0.7-0.5,1.6-1.4,2.2-2.1l1.7,1
		c-0.7,0.8-1.7,1.5-2.4,2.1L292.6,6.8z"/>
	<path d="M303.3,11.2c0.2-0.6,0.4-1.3,0.6-2.1h-1v5.8c0,1-0.2,1.5-0.8,1.8s-1.5,0.4-2.6,0.4c-0.1-0.6-0.3-1.4-0.6-1.9
		c0.7,0,1.5,0,1.8,0c0.2,0,0.3-0.1,0.3-0.3V9.1h-2.5V7.3h3.6c-0.9-0.6-2-1.3-2.9-1.8l1-1.3c0.5,0.2,1,0.5,1.6,0.8
		c0.4-0.4,0.8-0.9,1.1-1.4h-3.9V1.9h5.2l0.4-0.1l1.2,0.8V1.8h8.6v1.7H311c-0.1,0.4-0.2,0.8-0.4,1.1h3.1v9h-7.6v-9h2.5
		c0.1-0.4,0.1-0.7,0.2-1.1h-3.2V2.8c-0.6,1-1.5,2.2-2.4,3.1c0.4,0.3,0.7,0.5,1,0.8l-0.4,0.6h0.8l0.3-0.1l1.2,0.3
		c-0.4,1.4-0.8,3-1.2,4L303.3,11.2z M309.4,14.7c-0.9,0.9-2.5,1.9-3.8,2.4c-0.3-0.4-0.9-1-1.4-1.3c1.3-0.5,2.8-1.4,3.6-2.1
		L309.4,14.7z M311.7,6.1h-3.8v1.1h3.8V6.1z M311.7,8.6h-3.8v1.1h3.8V8.6z M311.7,11.1h-3.8v1.1h3.8V11.1z M311.7,13.8
		c0.9,0.6,2.2,1.5,2.9,2.2l-1.6,1.1c-0.6-0.6-1.8-1.6-2.8-2.3L311.7,13.8z"/>
	<path d="M320.9,1.8c-0.4,1.2-1,2.4-1.7,3.6V17h-1.9V8.4c-0.4,0.4-0.7,0.9-1.1,1.2c-0.2-0.5-0.7-1.6-1.1-2.1c1.5-1.5,3-3.9,3.9-6.4
		L320.9,1.8z M326.9,6.6v2.9h3.6V17h-2.1v-0.7h-5V17h-2V9.5h3.5V6.6h-4.2v-2h4.2V1.2h2.1v3.5h4.5v2H326.9z M328.3,11.4h-5v3h5V11.4z
		"/>
	<path d="M333.4,10.2c0-3.4,0.9-6.2,2.5-8.8l1.6,0.7c-1.4,2.5-2.1,5.4-2.1,8.1c0,2.8,0.6,5.7,2.1,8.1l-1.6,0.7
		C334.3,16.3,333.4,13.6,333.4,10.2z"/>
	<path d="M338.9,6.7c0-2.5,1.3-4,3.1-4s3.1,1.4,3.1,4c0,2.5-1.3,4-3.1,4S338.9,9.2,338.9,6.7z M343.2,6.7c0-1.9-0.6-2.5-1.3-2.5
		c-0.7,0-1.3,0.7-1.3,2.5c0,1.9,0.6,2.6,1.3,2.6C342.7,9.3,343.2,8.5,343.2,6.7z M349.2,2.7h1.5l-6.8,13.1h-1.5L349.2,2.7z
		 M348,11.8c0-2.5,1.3-4,3.1-4c1.8,0,3.1,1.4,3.1,4c0,2.5-1.3,4-3.1,4C349.3,15.8,348,14.3,348,11.8z M352.4,11.8
		c0-1.9-0.6-2.6-1.3-2.6c-0.7,0-1.3,0.7-1.3,2.6s0.6,2.6,1.3,2.6C351.8,14.4,352.4,13.6,352.4,11.8z"/>
	<path d="M355.6,18.3c1.4-2.5,2.1-5.3,2.1-8.1c0-2.8-0.6-5.6-2.1-8.1l1.5-0.7c1.6,2.6,2.5,5.4,2.5,8.8c0,3.4-0.9,6.2-2.5,8.8
		L355.6,18.3z"/>
</g>
<line class="st1" x1="69.8" y1="27.2" x2="69.8" y2="206.3"/>
<line class="st1" x1="66.8" y1="39" x2="69.8" y2="39"/>
<line class="st1" x1="66.8" y1="62.8" x2="69.8" y2="62.8"/>
<line class="st1" x1="66.8" y1="86.7" x2="69.8" y2="86.7"/>
<line class="st1" x1="66.8" y1="110.5" x2="69.8" y2="110.5"/>
<line class="st1" x1="66.8" y1="134.3" x2="69.8" y2="134.3"/>
<line class="st1" x1="66.8" y1="158.1" x2="69.8" y2="158.1"/>
<line class="st1" x1="66.8" y1="181.9" x2="69.8" y2="181.9"/>
<line class="st1" x1="66.8" y1="205.8" x2="69.8" y2="205.8"/>
<line class="st1" x1="94.4" y1="158.1" x2="94.4" y2="161.5"/>
<line class="st1" x1="119.2" y1="158.1" x2="119.2" y2="161.5"/>
<line class="st1" x1="144.1" y1="158.1" x2="144.1" y2="161.5"/>
<line class="st1" x1="169" y1="158.1" x2="169" y2="161.5"/>
<line class="st1" x1="193.9" y1="158.1" x2="193.9" y2="161.5"/>
<line class="st1" x1="218.8" y1="158.1" x2="218.8" y2="161.5"/>
<line class="st1" x1="243.6" y1="158.1" x2="243.6" y2="161.5"/>
<line class="st1" x1="268.5" y1="158.1" x2="268.5" y2="161.5"/>
<line class="st1" x1="293.4" y1="158.1" x2="293.4" y2="161.5"/>
<line class="st1" x1="318.3" y1="158.1" x2="318.3" y2="161.5"/>
<line class="st1" x1="343.2" y1="158.1" x2="343.2" y2="161.5"/>
<line class="st1" x1="368.1" y1="158.1" x2="368.1" y2="161.5"/>
<rect x="76.9" y="158.1" class="st2" width="10.1" height="17.3"/>
<rect x="101.8" y="62.1" class="st2" width="10.1" height="96"/>
<rect x="126.6" y="123.2" class="st2" width="10.1" height="34.9"/>
<rect x="151.5" y="143.8" class="st2" width="10.1" height="14.3"/>
<rect x="176.4" y="144.7" class="st2" width="10.1" height="13.4"/>
<rect x="201.3" y="138.4" class="st2" width="10.1" height="19.7"/>
<rect x="226.2" y="158.1" class="st2" width="10.1" height="3"/>
<rect x="251.1" y="156.9" class="st2" width="10.1" height="1.2"/>
<rect x="275.9" y="129.5" class="st2" width="10.1" height="28.6"/>
<rect x="300.8" y="103.9" class="st2" width="10.1" height="54.2"/>
<rect x="325.7" y="157.6" class="st2" width="10.1" height="0.5"/>
<rect x="350.6" y="134.9" class="st2" width="10.1" height="23.2"/>
<g class="st0">
	<path d="M37,206.3h3.2v1H37V206.3z"/>
	<path d="M41.3,209.4c2.6-2.3,3.9-4,3.9-5.5c0-1-0.5-1.6-1.5-1.6c-0.7,0-1.3,0.4-1.7,1l-0.8-0.8c0.8-0.8,1.5-1.3,2.7-1.3
		c1.6,0,2.7,1.1,2.7,2.7c0,1.7-1.4,3.5-3.2,5.3c0.5,0,1-0.1,1.4-0.1H47v1.2h-5.7V209.4z"/>
	<path d="M48.2,205.8c0-3.1,1.1-4.5,2.9-4.5c1.7,0,2.9,1.5,2.9,4.5c0,3.1-1.1,4.6-2.9,4.6C49.3,210.4,48.2,208.9,48.2,205.8z
		 M52.5,205.8c0-2.5-0.6-3.5-1.5-3.5s-1.5,0.9-1.5,3.5c0,2.6,0.6,3.5,1.5,3.5S52.5,208.3,52.5,205.8z"/>
	<path d="M54.9,204c0-1.8,0.8-2.8,2.1-2.8s2.1,1,2.1,2.8c0,1.8-0.8,2.8-2.1,2.8S54.9,205.8,54.9,204z M58,204c0-1.4-0.4-2-1.1-2
		c-0.6,0-1.1,0.6-1.1,2c0,1.4,0.4,2,1.1,2C57.6,206,58,205.4,58,204z M62,201.2h0.9l-4.8,9.2h-0.9L62,201.2z M61.1,207.6
		c0-1.8,0.8-2.8,2.1-2.8c1.2,0,2.1,1,2.1,2.8s-0.8,2.8-2.1,2.8C62,210.4,61.1,209.4,61.1,207.6z M64.3,207.6c0-1.4-0.4-2-1.1-2
		c-0.6,0-1.1,0.6-1.1,2c0,1.4,0.4,2,1.1,2C63.8,209.6,64.3,209,64.3,207.6z"/>
</g>
<g class="st0">
	<path d="M84.6,234.1c-1.9-2.2-3.3-3.3-4.6-3.3c-0.8,0-1.3,0.4-1.3,1.2c0,0.6,0.4,1.1,0.8,1.4l-0.6,0.6c-0.7-0.6-1.1-1.3-1.1-2.2
		c0-1.3,0.9-2.2,2.2-2.2c1.4,0,2.9,1.1,4.4,2.7c0-0.4-0.1-0.8-0.1-1.2v-1.8h1v4.7H84.6z"/>
	<path d="M81.5,228.4c-2.5,0-3.8-0.9-3.8-2.4c0-1.4,1.3-2.4,3.8-2.4c2.6,0,3.8,0.9,3.8,2.4C85.4,227.4,84.1,228.4,81.5,228.4z
		 M81.5,224.7c-2.1,0-2.9,0.5-2.9,1.3s0.8,1.3,2.9,1.3c2.1,0,2.9-0.5,2.9-1.3S83.7,224.7,81.5,224.7z"/>
	<path d="M81.5,222.7c-2.5,0-3.8-0.9-3.8-2.4c0-1.4,1.3-2.4,3.8-2.4c2.6,0,3.8,0.9,3.8,2.4C85.4,221.7,84.1,222.7,81.5,222.7z
		 M81.5,219c-2.1,0-2.9,0.5-2.9,1.3c0,0.8,0.8,1.3,2.9,1.3c2.1,0,2.9-0.5,2.9-1.3C84.5,219.5,83.7,219,81.5,219z"/>
	<path d="M83.9,216.3c0.3-0.3,0.5-0.7,0.5-1.2c0-0.9-0.7-1.7-2.8-1.7c0.5,0.4,0.9,1.1,0.9,1.6c0,1.2-0.8,2.1-2.3,2.1
		c-1.5,0-2.4-1-2.4-2.2c0-1.4,1.1-2.5,3.6-2.5c2.9,0,4.1,1.3,4.1,2.7c0,0.8-0.3,1.4-0.8,1.9L83.9,216.3z M80.7,213.3
		c-1.4,0.1-2.1,0.7-2.1,1.5c0,0.6,0.6,1.1,1.5,1.1c0.9,0,1.5-0.4,1.5-1.2C81.6,214.3,81.4,213.8,80.7,213.3z"/>
</g>
<g class="st0">
	<path d="M109.4,234.1c-1.9-2.2-3.3-3.3-4.6-3.3c-0.8,0-1.3,0.4-1.3,1.2c0,0.6,0.4,1.1,0.8,1.4l-0.6,0.6c-0.7-0.6-1.1-1.3-1.1-2.2
		c0-1.3,0.9-2.2,2.2-2.2c1.4,0,2.9,1.1,4.4,2.7c0-0.4-0.1-0.8-0.1-1.2v-1.8h1v4.7H109.4z"/>
	<path d="M106.4,228.4c-2.5,0-3.8-0.9-3.8-2.4c0-1.4,1.3-2.4,3.8-2.4c2.6,0,3.8,0.9,3.8,2.4C110.2,227.4,108.9,228.4,106.4,228.4z
		 M106.4,224.7c-2.1,0-2.9,0.5-2.9,1.3s0.8,1.3,2.9,1.3c2.1,0,2.9-0.5,2.9-1.3S108.5,224.7,106.4,224.7z"/>
	<path d="M109.1,222.3v-1.6H104v1.3h-0.7c-0.1-0.7-0.3-1.2-0.6-1.6v-0.9h6.4v-1.4h0.9v4.2H109.1z"/>
	<path d="M106.4,217c-2.5,0-3.8-0.9-3.8-2.4c0-1.4,1.3-2.4,3.8-2.4c2.6,0,3.8,0.9,3.8,2.4C110.2,216,108.9,217,106.4,217z
		 M106.4,213.3c-2.1,0-2.9,0.5-2.9,1.3s0.8,1.3,2.9,1.3c2.1,0,2.9-0.5,2.9-1.3S108.5,213.3,106.4,213.3z"/>
</g>
<g class="st0">
	<path d="M134.3,234.1c-1.9-2.2-3.3-3.3-4.6-3.3c-0.8,0-1.3,0.4-1.3,1.2c0,0.6,0.4,1.1,0.8,1.4l-0.6,0.6c-0.7-0.6-1.1-1.3-1.1-2.2
		c0-1.3,0.9-2.2,2.2-2.2c1.4,0,2.9,1.1,4.4,2.7c0-0.4-0.1-0.8-0.1-1.2v-1.8h1v4.7H134.3z"/>
	<path d="M131.3,228.4c-2.5,0-3.8-0.9-3.8-2.4c0-1.4,1.3-2.4,3.8-2.4c2.6,0,3.8,0.9,3.8,2.4C135.1,227.4,133.8,228.4,131.3,228.4z
		 M131.3,224.7c-2.1,0-2.9,0.5-2.9,1.3s0.8,1.3,2.9,1.3c2.1,0,2.9-0.5,2.9-1.3S133.4,224.7,131.3,224.7z"/>
	<path d="M134,222.3v-1.6h-5.1v1.3h-0.7c-0.1-0.7-0.3-1.2-0.6-1.6v-0.9h6.4v-1.4h0.9v4.2H134z"/>
	<path d="M134,216.6V215h-5.1v1.3h-0.7c-0.1-0.7-0.3-1.2-0.6-1.6v-0.9h6.4v-1.4h0.9v4.2H134z"/>
</g>
<g class="st0">
	<path d="M159.2,234.1c-1.9-2.2-3.3-3.3-4.6-3.3c-0.8,0-1.3,0.4-1.3,1.2c0,0.6,0.4,1.1,0.8,1.4l-0.6,0.6c-0.7-0.6-1.1-1.3-1.1-2.2
		c0-1.3,0.9-2.2,2.2-2.2c1.4,0,2.9,1.1,4.4,2.7c0-0.4-0.1-0.8-0.1-1.2v-1.8h1v4.7H159.2z"/>
	<path d="M156.1,228.4c-2.5,0-3.8-0.9-3.8-2.4c0-1.4,1.3-2.4,3.8-2.4c2.6,0,3.8,0.9,3.8,2.4C160,227.4,158.7,228.4,156.1,228.4z
		 M156.1,224.7c-2.1,0-2.9,0.5-2.9,1.3s0.8,1.3,2.9,1.3c2.1,0,2.9-0.5,2.9-1.3S158.3,224.7,156.1,224.7z"/>
	<path d="M158.9,222.3v-1.6h-5.1v1.3H153c-0.1-0.7-0.3-1.2-0.6-1.6v-0.9h6.4v-1.4h0.9v4.2H158.9z"/>
	<path d="M159.2,217c-1.9-2.2-3.3-3.3-4.6-3.3c-0.8,0-1.3,0.4-1.3,1.2c0,0.6,0.4,1.1,0.8,1.4l-0.6,0.6c-0.7-0.6-1.1-1.3-1.1-2.2
		c0-1.3,0.9-2.2,2.2-2.2c1.4,0,2.9,1.1,4.4,2.7c0-0.4-0.1-0.8-0.1-1.2v-1.8h1v4.7H159.2z"/>
</g>
<g class="st0">
	<path d="M184,234.1c-1.9-2.2-3.3-3.3-4.6-3.3c-0.8,0-1.3,0.4-1.3,1.2c0,0.6,0.4,1.1,0.8,1.4l-0.6,0.6c-0.7-0.6-1.1-1.3-1.1-2.2
		c0-1.3,0.9-2.2,2.2-2.2c1.4,0,2.9,1.1,4.4,2.7c0-0.4-0.1-0.8-0.1-1.2v-1.8h1v4.7H184z"/>
	<path d="M181,228.4c-2.5,0-3.8-0.9-3.8-2.4c0-1.4,1.3-2.4,3.8-2.4c2.6,0,3.8,0.9,3.8,2.4C184.8,227.4,183.5,228.4,181,228.4z
		 M181,224.7c-2.1,0-2.9,0.5-2.9,1.3s0.8,1.3,2.9,1.3c2.1,0,2.9-0.5,2.9-1.3S183.1,224.7,181,224.7z"/>
	<path d="M183.7,222.3v-1.6h-5.1v1.3h-0.7c-0.1-0.7-0.3-1.2-0.6-1.6v-0.9h6.4v-1.4h0.9v4.2H183.7z"/>
	<path d="M183.8,217.1l-0.7-0.6c0.4-0.4,0.8-1,0.8-1.7c0-0.8-0.5-1.4-1.2-1.4c-0.8,0-1.3,0.5-1.3,2.2h-0.8c0-1.4-0.5-1.9-1.3-1.9
		c-0.7,0-1.1,0.4-1.1,1.1c0,0.6,0.3,1,0.7,1.5l-0.7,0.6c-0.5-0.6-0.9-1.3-0.9-2.1c0-1.3,0.7-2.2,1.9-2.2c0.8,0,1.4,0.5,1.7,1.3h0
		c0.2-0.8,0.8-1.5,1.8-1.5c1.3,0,2.1,1.1,2.1,2.5C184.8,215.9,184.4,216.7,183.8,217.1z"/>
</g>
<g class="st0">
	<path d="M208.9,234.1c-1.9-2.2-3.3-3.3-4.6-3.3c-0.8,0-1.3,0.4-1.3,1.2c0,0.6,0.4,1.1,0.8,1.4l-0.6,0.6c-0.7-0.6-1.1-1.3-1.1-2.2
		c0-1.3,0.9-2.2,2.2-2.2c1.4,0,2.9,1.1,4.4,2.7c0-0.4-0.1-0.8-0.1-1.2v-1.8h1v4.7H208.9z"/>
	<path d="M205.9,228.4c-2.5,0-3.8-0.9-3.8-2.4c0-1.4,1.3-2.4,3.8-2.4c2.6,0,3.8,0.9,3.8,2.4C209.7,227.4,208.4,228.4,205.9,228.4z
		 M205.9,224.7c-2.1,0-2.9,0.5-2.9,1.3s0.8,1.3,2.9,1.3c2.1,0,2.9-0.5,2.9-1.3S208,224.7,205.9,224.7z"/>
	<path d="M208.6,222.3v-1.6h-5.1v1.3h-0.7c-0.1-0.7-0.3-1.2-0.6-1.6v-0.9h6.4v-1.4h0.9v4.2H208.6z"/>
	<path d="M207.6,212v0.9h2v1.1h-2v3.2h-0.8l-4.6-2.9V213h4.5V212H207.6z M206.7,214h-1.9c-0.4,0-1,0-1.4-0.1v0
		c0.4,0.2,0.8,0.4,1.1,0.6l2.2,1.4V214z"/>
</g>
<g class="st0">
	<path d="M233.8,234.1c-1.9-2.2-3.3-3.3-4.6-3.3c-0.8,0-1.3,0.4-1.3,1.2c0,0.6,0.4,1.1,0.8,1.4l-0.6,0.6c-0.7-0.6-1.1-1.3-1.1-2.2
		c0-1.3,0.9-2.2,2.2-2.2c1.4,0,2.9,1.1,4.4,2.7c0-0.4-0.1-0.8-0.1-1.2v-1.8h1v4.7H233.8z"/>
	<path d="M230.7,228.4c-2.5,0-3.8-0.9-3.8-2.4c0-1.4,1.3-2.4,3.8-2.4c2.6,0,3.8,0.9,3.8,2.4C234.6,227.4,233.3,228.4,230.7,228.4z
		 M230.7,224.7c-2.1,0-2.9,0.5-2.9,1.3s0.8,1.3,2.9,1.3c2.1,0,2.9-0.5,2.9-1.3S232.8,224.7,230.7,224.7z"/>
	<path d="M233.5,222.3v-1.6h-5.1v1.3h-0.7c-0.1-0.7-0.3-1.2-0.6-1.6v-0.9h6.4v-1.4h0.9v4.2H233.5z"/>
	<path d="M233.6,217.2l-0.8-0.5c0.4-0.4,0.8-0.9,0.8-1.7c0-0.8-0.6-1.5-1.6-1.5s-1.5,0.6-1.5,1.4c0,0.5,0.1,0.8,0.4,1.2l-0.4,0.6
		l-3.5-0.2v-3.7h1v2.7l1.9,0.2c-0.2-0.3-0.3-0.6-0.3-1c0-1.2,0.7-2.2,2.3-2.2c1.6,0,2.5,1.2,2.5,2.5
		C234.6,215.9,234.1,216.6,233.6,217.2z"/>
</g>
<g class="st0">
	<path d="M258.6,234.1c-1.9-2.2-3.3-3.3-4.6-3.3c-0.8,0-1.3,0.4-1.3,1.2c0,0.6,0.4,1.1,0.8,1.4l-0.6,0.6c-0.7-0.6-1.1-1.3-1.1-2.2
		c0-1.3,0.9-2.2,2.2-2.2c1.4,0,2.9,1.1,4.4,2.7c0-0.4-0.1-0.8-0.1-1.2v-1.8h1v4.7H258.6z"/>
	<path d="M255.6,228.4c-2.5,0-3.8-0.9-3.8-2.4c0-1.4,1.3-2.4,3.8-2.4c2.6,0,3.8,0.9,3.8,2.4C259.4,227.4,258.1,228.4,255.6,228.4z
		 M255.6,224.7c-2.1,0-2.9,0.5-2.9,1.3s0.8,1.3,2.9,1.3c2.1,0,2.9-0.5,2.9-1.3S257.7,224.7,255.6,224.7z"/>
	<path d="M258.3,222.3v-1.6h-5.1v1.3h-0.7c-0.1-0.7-0.3-1.2-0.6-1.6v-0.9h6.4v-1.4h0.9v4.2H258.3z"/>
	<path d="M253.3,212.9c-0.3,0.3-0.5,0.7-0.5,1.1c0,0.9,0.7,1.7,2.8,1.8c-0.5-0.4-0.8-1.1-0.8-1.6c0-1.2,0.8-2.1,2.3-2.1
		c1.5,0,2.4,1,2.4,2.2c0,1.4-1.2,2.5-3.7,2.5c-2.8,0-4-1.3-4-2.8c0-0.8,0.3-1.4,0.8-1.8L253.3,212.9z M257,213.2
		c-1,0-1.5,0.4-1.5,1.2c0,0.4,0.2,0.9,0.9,1.4c1.5-0.1,2.1-0.6,2.1-1.4C258.5,213.7,258,213.2,257,213.2z"/>
</g>
<g class="st0">
	<path d="M283.5,234.1c-1.9-2.2-3.3-3.3-4.6-3.3c-0.8,0-1.3,0.4-1.3,1.2c0,0.6,0.4,1.1,0.8,1.4l-0.6,0.6c-0.7-0.6-1.1-1.3-1.1-2.2
		c0-1.3,0.9-2.2,2.2-2.2c1.4,0,2.9,1.1,4.4,2.7c0-0.4-0.1-0.8-0.1-1.2v-1.8h1v4.7H283.5z"/>
	<path d="M280.5,228.4c-2.5,0-3.8-0.9-3.8-2.4c0-1.4,1.3-2.4,3.8-2.4c2.6,0,3.8,0.9,3.8,2.4C284.3,227.4,283,228.4,280.5,228.4z
		 M280.5,224.7c-2.1,0-2.9,0.5-2.9,1.3s0.8,1.3,2.9,1.3c2.1,0,2.9-0.5,2.9-1.3S282.6,224.7,280.5,224.7z"/>
	<path d="M283.2,222.3v-1.6h-5.1v1.3h-0.7c-0.1-0.7-0.3-1.2-0.6-1.6v-0.9h6.4v-1.4h0.9v4.2H283.2z"/>
	<path d="M277.8,213.5v3.5h-1v-4.7h0.7c2.2,1.7,3.8,2,6.7,2.1v1.2C281.5,215.4,279.8,214.9,277.8,213.5z"/>
</g>
<g class="st0">
	<path d="M308.4,234.1c-1.9-2.2-3.3-3.3-4.6-3.3c-0.8,0-1.3,0.4-1.3,1.2c0,0.6,0.4,1.1,0.8,1.4l-0.6,0.6c-0.7-0.6-1.1-1.3-1.1-2.2
		c0-1.3,0.9-2.2,2.2-2.2c1.4,0,2.9,1.1,4.4,2.7c0-0.4-0.1-0.8-0.1-1.2v-1.8h1v4.7H308.4z"/>
	<path d="M305.3,228.4c-2.5,0-3.8-0.9-3.8-2.4c0-1.4,1.3-2.4,3.8-2.4c2.6,0,3.8,0.9,3.8,2.4C309.2,227.4,307.9,228.4,305.3,228.4z
		 M305.3,224.7c-2.1,0-2.9,0.5-2.9,1.3s0.8,1.3,2.9,1.3c2.1,0,2.9-0.5,2.9-1.3S307.4,224.7,305.3,224.7z"/>
	<path d="M308.1,222.3v-1.6H303v1.3h-0.7c-0.1-0.7-0.3-1.2-0.6-1.6v-0.9h6.4v-1.4h0.9v4.2H308.1z"/>
	<path d="M307.2,217c-1,0-1.6-0.6-2-1.3h0c-0.4,0.5-0.9,1-1.7,1c-1.1,0-1.9-0.9-1.9-2.1c0-1.3,0.8-2.1,1.9-2.1c0.8,0,1.4,0.5,1.7,1
		h0c0.4-0.7,0.9-1.2,1.9-1.2c1.1,0,1.9,1,1.9,2.4C309.2,215.9,308.3,217,307.2,217z M303.6,213.4c-0.7,0-1.2,0.4-1.2,1.1
		c0,0.6,0.4,1,1.1,1c0.8,0,1.2-0.7,1.5-1.5C304.5,213.6,304.1,213.4,303.6,213.4z M307.2,213.3c-0.9,0-1.2,0.8-1.6,1.8
		c0.4,0.5,0.9,0.9,1.5,0.9c0.7,0,1.2-0.6,1.2-1.4C308.3,213.8,307.9,213.3,307.2,213.3z"/>
</g>
<g class="st0">
	<path d="M333.2,234.1c-1.9-2.2-3.3-3.3-4.6-3.3c-0.8,0-1.3,0.4-1.3,1.2c0,0.6,0.4,1.1,0.8,1.4l-0.6,0.6c-0.7-0.6-1.1-1.3-1.1-2.2
		c0-1.3,0.9-2.2,2.2-2.2c1.4,0,2.9,1.1,4.4,2.7c0-0.4-0.1-0.8-0.1-1.2v-1.8h1v4.7H333.2z"/>
	<path d="M330.2,228.4c-2.5,0-3.8-0.9-3.8-2.4c0-1.4,1.3-2.4,3.8-2.4c2.6,0,3.8,0.9,3.8,2.4C334,227.4,332.7,228.4,330.2,228.4z
		 M330.2,224.7c-2.1,0-2.9,0.5-2.9,1.3s0.8,1.3,2.9,1.3c2.1,0,2.9-0.5,2.9-1.3S332.3,224.7,330.2,224.7z"/>
	<path d="M332.9,222.3v-1.6h-5.1v1.3h-0.7c-0.1-0.7-0.3-1.2-0.6-1.6v-0.9h6.4v-1.4h0.9v4.2H332.9z"/>
	<path d="M332.5,216.3c0.3-0.3,0.5-0.7,0.5-1.2c0-0.9-0.7-1.7-2.8-1.7c0.5,0.4,0.9,1.1,0.9,1.6c0,1.2-0.8,2.1-2.3,2.1
		c-1.5,0-2.4-1-2.4-2.2c0-1.4,1.1-2.5,3.6-2.5c2.9,0,4.1,1.3,4.1,2.7c0,0.8-0.3,1.4-0.8,1.9L332.5,216.3z M329.4,213.3
		c-1.4,0.1-2.1,0.7-2.1,1.5c0,0.6,0.6,1.1,1.5,1.1c0.9,0,1.5-0.4,1.5-1.2C330.3,214.3,330,213.8,329.4,213.3z"/>
</g>
<g class="st0">
	<path d="M358.1,234.1c-1.9-2.2-3.3-3.3-4.6-3.3c-0.8,0-1.3,0.4-1.3,1.2c0,0.6,0.4,1.1,0.8,1.4l-0.6,0.6c-0.7-0.6-1.1-1.3-1.1-2.2
		c0-1.3,0.9-2.2,2.2-2.2c1.4,0,2.9,1.1,4.4,2.7c0-0.4-0.1-0.8-0.1-1.2v-1.8h1v4.7H358.1z"/>
	<path d="M355.1,228.4c-2.5,0-3.8-0.9-3.8-2.4c0-1.4,1.3-2.4,3.8-2.4c2.6,0,3.8,0.9,3.8,2.4C358.9,227.4,357.6,228.4,355.1,228.4z
		 M355.1,224.7c-2.1,0-2.9,0.5-2.9,1.3s0.8,1.3,2.9,1.3c2.1,0,2.9-0.5,2.9-1.3S357.2,224.7,355.1,224.7z"/>
	<path d="M358.1,222.7c-1.9-2.2-3.3-3.3-4.6-3.3c-0.8,0-1.3,0.4-1.3,1.3c0,0.6,0.4,1.1,0.8,1.4l-0.6,0.6c-0.7-0.6-1.1-1.3-1.1-2.2
		c0-1.3,0.9-2.2,2.2-2.2c1.4,0,2.9,1.1,4.4,2.7c0-0.4-0.1-0.8-0.1-1.2v-1.8h1v4.7H358.1z"/>
	<path d="M355.1,217c-2.5,0-3.8-0.9-3.8-2.4c0-1.4,1.3-2.4,3.8-2.4c2.6,0,3.8,0.9,3.8,2.4C358.9,216,357.6,217,355.1,217z
		 M355.1,213.3c-2.1,0-2.9,0.5-2.9,1.3s0.8,1.3,2.9,1.3c2.1,0,2.9-0.5,2.9-1.3S357.2,213.3,355.1,213.3z"/>
</g>
<g class="st0">
	<path d="M37,182.3h3.2v1H37V182.3z"/>
	<path d="M41.8,185.1h1.9V179h-1.6v-0.9c0.8-0.2,1.4-0.4,1.9-0.7h1v7.7h1.7v1.1h-5V185.1z"/>
	<path d="M48.2,181.8c0-3.1,1.1-4.5,2.9-4.5c1.7,0,2.9,1.5,2.9,4.5c0,3.1-1.1,4.6-2.9,4.6C49.3,186.4,48.2,184.9,48.2,181.8z
		 M52.5,181.8c0-2.5-0.6-3.5-1.5-3.5s-1.5,0.9-1.5,3.5c0,2.6,0.6,3.5,1.5,3.5S52.5,184.3,52.5,181.8z"/>
	<path d="M54.9,180c0-1.8,0.8-2.8,2.1-2.8s2.1,1,2.1,2.8c0,1.8-0.8,2.8-2.1,2.8S54.9,181.8,54.9,180z M58,180c0-1.4-0.4-2-1.1-2
		c-0.6,0-1.1,0.6-1.1,2c0,1.4,0.4,2,1.1,2C57.6,182,58,181.4,58,180z M62,177.2h0.9l-4.8,9.2h-0.9L62,177.2z M61.1,183.6
		c0-1.8,0.8-2.8,2.1-2.8c1.2,0,2.1,1,2.1,2.8s-0.8,2.8-2.1,2.8C62,186.4,61.1,185.4,61.1,183.6z M64.3,183.6c0-1.4-0.4-2-1.1-2
		c-0.6,0-1.1,0.6-1.1,2c0,1.4,0.4,2,1.1,2C63.8,185.6,64.3,185,64.3,183.6z"/>
</g>
<g class="st0">
	<path d="M48.2,157.8c0-3.1,1.1-4.5,2.9-4.5c1.7,0,2.9,1.5,2.9,4.5c0,3.1-1.1,4.6-2.9,4.6C49.3,162.4,48.2,160.9,48.2,157.8z
		 M52.5,157.8c0-2.5-0.6-3.5-1.5-3.5c-0.9,0-1.5,0.9-1.5,3.5c0,2.6,0.6,3.5,1.5,3.5C51.9,161.3,52.5,160.3,52.5,157.8z"/>
	<path d="M54.9,156c0-1.8,0.8-2.8,2.1-2.8s2.1,1,2.1,2.8c0,1.8-0.8,2.8-2.1,2.8S54.9,157.8,54.9,156z M58,156c0-1.4-0.4-2-1.1-2
		c-0.6,0-1.1,0.6-1.1,2c0,1.4,0.4,2,1.1,2C57.6,158,58,157.4,58,156z M62,153.2h0.9l-4.8,9.2h-0.9L62,153.2z M61.1,159.6
		c0-1.8,0.8-2.8,2.1-2.8c1.2,0,2.1,1,2.1,2.8s-0.8,2.8-2.1,2.8C62,162.4,61.1,161.4,61.1,159.6z M64.3,159.6c0-1.4-0.4-2-1.1-2
		c-0.6,0-1.1,0.6-1.1,2c0,1.4,0.4,2,1.1,2C63.8,161.6,64.3,161,64.3,159.6z"/>
</g>
<g class="st0">
	<path d="M41.8,137.1h1.9V131h-1.6v-0.9c0.8-0.2,1.4-0.4,1.9-0.7h1v7.7h1.7v1.1h-5V137.1z"/>
	<path d="M48.2,133.8c0-3.1,1.1-4.5,2.9-4.5c1.7,0,2.9,1.5,2.9,4.5c0,3.1-1.1,4.6-2.9,4.6C49.3,138.4,48.2,136.9,48.2,133.8z
		 M52.5,133.8c0-2.5-0.6-3.5-1.5-3.5c-0.9,0-1.5,0.9-1.5,3.5c0,2.6,0.6,3.5,1.5,3.5C51.9,137.3,52.5,136.3,52.5,133.8z"/>
	<path d="M54.9,132c0-1.8,0.8-2.8,2.1-2.8s2.1,1,2.1,2.8c0,1.8-0.8,2.8-2.1,2.8S54.9,133.8,54.9,132z M58,132c0-1.4-0.4-2-1.1-2
		c-0.6,0-1.1,0.6-1.1,2c0,1.4,0.4,2,1.1,2C57.6,134,58,133.4,58,132z M62,129.2h0.9l-4.8,9.2h-0.9L62,129.2z M61.1,135.6
		c0-1.8,0.8-2.8,2.1-2.8c1.2,0,2.1,1,2.1,2.8s-0.8,2.8-2.1,2.8C62,138.4,61.1,137.4,61.1,135.6z M64.3,135.6c0-1.4-0.4-2-1.1-2
		c-0.6,0-1.1,0.6-1.1,2c0,1.4,0.4,2,1.1,2C63.8,137.6,64.3,137,64.3,135.6z"/>
</g>
<g class="st0">
	<path d="M41.3,113.4c2.6-2.3,3.9-4,3.9-5.5c0-1-0.5-1.6-1.5-1.6c-0.7,0-1.3,0.4-1.7,1l-0.8-0.8c0.8-0.8,1.5-1.3,2.7-1.3
		c1.6,0,2.7,1.1,2.7,2.7c0,1.7-1.4,3.5-3.2,5.3c0.5,0,1-0.1,1.4-0.1H47v1.2h-5.7V113.4z"/>
	<path d="M48.2,109.8c0-3.1,1.1-4.5,2.9-4.5c1.7,0,2.9,1.5,2.9,4.5c0,3.1-1.1,4.6-2.9,4.6C49.3,114.4,48.2,112.9,48.2,109.8z
		 M52.5,109.8c0-2.5-0.6-3.5-1.5-3.5c-0.9,0-1.5,0.9-1.5,3.5c0,2.6,0.6,3.5,1.5,3.5C51.9,113.3,52.5,112.3,52.5,109.8z"/>
	<path d="M54.9,108c0-1.8,0.8-2.8,2.1-2.8s2.1,1,2.1,2.8c0,1.8-0.8,2.8-2.1,2.8S54.9,109.8,54.9,108z M58,108c0-1.4-0.4-2-1.1-2
		c-0.6,0-1.1,0.6-1.1,2c0,1.4,0.4,2,1.1,2C57.6,110,58,109.4,58,108z M62,105.2h0.9l-4.8,9.2h-0.9L62,105.2z M61.1,111.6
		c0-1.8,0.8-2.8,2.1-2.8c1.2,0,2.1,1,2.1,2.8s-0.8,2.8-2.1,2.8C62,114.4,61.1,113.4,61.1,111.6z M64.3,111.6c0-1.4-0.4-2-1.1-2
		c-0.6,0-1.1,0.6-1.1,2c0,1.4,0.4,2,1.1,2C63.8,113.6,64.3,113,64.3,111.6z"/>
</g>
<g class="st0">
	<path d="M41.1,89.2l0.7-0.9c0.5,0.5,1.2,1,2.1,1c1,0,1.7-0.6,1.7-1.5c0-1-0.6-1.6-2.6-1.6v-1c1.7,0,2.3-0.7,2.3-1.5
		c0-0.8-0.5-1.3-1.4-1.3c-0.7,0-1.3,0.3-1.8,0.8l-0.7-0.9c0.7-0.6,1.5-1.1,2.5-1.1c1.6,0,2.7,0.8,2.7,2.3c0,1-0.6,1.7-1.5,2.1v0.1
		c1,0.3,1.8,1,1.8,2.2c0,1.6-1.3,2.5-3,2.5C42.6,90.4,41.7,89.8,41.1,89.2z"/>
	<path d="M48.2,85.8c0-3.1,1.1-4.5,2.9-4.5c1.7,0,2.9,1.5,2.9,4.5c0,3.1-1.1,4.6-2.9,4.6C49.3,90.4,48.2,88.9,48.2,85.8z M52.5,85.8
		c0-2.5-0.6-3.5-1.5-3.5c-0.9,0-1.5,0.9-1.5,3.5c0,2.6,0.6,3.5,1.5,3.5C51.9,89.3,52.5,88.3,52.5,85.8z"/>
	<path d="M54.9,84c0-1.8,0.8-2.8,2.1-2.8s2.1,1,2.1,2.8c0,1.8-0.8,2.8-2.1,2.8S54.9,85.8,54.9,84z M58,84c0-1.4-0.4-2-1.1-2
		c-0.6,0-1.1,0.6-1.1,2c0,1.4,0.4,2,1.1,2C57.6,86,58,85.4,58,84z M62,81.2h0.9l-4.8,9.2h-0.9L62,81.2z M61.1,87.6
		c0-1.8,0.8-2.8,2.1-2.8c1.2,0,2.1,1,2.1,2.8s-0.8,2.8-2.1,2.8C62,90.4,61.1,89.4,61.1,87.6z M64.3,87.6c0-1.4-0.4-2-1.1-2
		c-0.6,0-1.1,0.6-1.1,2c0,1.4,0.4,2,1.1,2C63.8,89.6,64.3,89,64.3,87.6z"/>
</g>
<g class="st0">
	<path d="M47.2,63.9h-1.1v2.4h-1.3v-2.4H41v-0.9l3.5-5.5h1.6v5.4h1.1V63.9z M44.8,62.8v-2.3c0-0.5,0-1.2,0.1-1.7h0
		c-0.2,0.4-0.5,0.9-0.7,1.4l-1.7,2.7H44.8z"/>
	<path d="M48.2,61.8c0-3.1,1.1-4.5,2.9-4.5c1.7,0,2.9,1.5,2.9,4.5c0,3.1-1.1,4.6-2.9,4.6C49.3,66.4,48.2,64.9,48.2,61.8z M52.5,61.8
		c0-2.5-0.6-3.5-1.5-3.5c-0.9,0-1.5,0.9-1.5,3.5c0,2.6,0.6,3.5,1.5,3.5C51.9,65.3,52.5,64.3,52.5,61.8z"/>
	<path d="M54.9,60c0-1.8,0.8-2.8,2.1-2.8s2.1,1,2.1,2.8c0,1.8-0.8,2.8-2.1,2.8S54.9,61.8,54.9,60z M58,60c0-1.4-0.4-2-1.1-2
		c-0.6,0-1.1,0.6-1.1,2c0,1.4,0.4,2,1.1,2C57.6,62,58,61.4,58,60z M62,57.2h0.9l-4.8,9.2h-0.9L62,57.2z M61.1,63.6
		c0-1.8,0.8-2.8,2.1-2.8c1.2,0,2.1,1,2.1,2.8s-0.8,2.8-2.1,2.8C62,66.4,61.1,65.4,61.1,63.6z M64.3,63.6c0-1.4-0.4-2-1.1-2
		c-0.6,0-1.1,0.6-1.1,2c0,1.4,0.4,2,1.1,2C63.8,65.6,64.3,65,64.3,63.6z"/>
</g>
<g class="st0">
	<path d="M41.1,41.2l0.7-0.9c0.5,0.5,1.1,0.9,2.1,0.9c1,0,1.8-0.7,1.8-1.9c0-1.2-0.7-1.8-1.7-1.8c-0.6,0-0.9,0.2-1.4,0.5l-0.7-0.4
		l0.3-4.2h4.5v1.2h-3.3L43,36.8c0.4-0.2,0.7-0.3,1.2-0.3c1.5,0,2.7,0.9,2.7,2.8c0,2-1.4,3.1-3,3.1C42.6,42.4,41.7,41.8,41.1,41.2z"
		/>
	<path d="M48.2,37.8c0-3.1,1.1-4.5,2.9-4.5c1.7,0,2.9,1.5,2.9,4.5c0,3.1-1.1,4.6-2.9,4.6C49.3,42.4,48.2,40.9,48.2,37.8z M52.5,37.8
		c0-2.5-0.6-3.5-1.5-3.5c-0.9,0-1.5,0.9-1.5,3.5c0,2.6,0.6,3.5,1.5,3.5C51.9,41.3,52.5,40.3,52.5,37.8z"/>
	<path d="M54.9,36c0-1.8,0.8-2.8,2.1-2.8s2.1,1,2.1,2.8c0,1.8-0.8,2.8-2.1,2.8S54.9,37.8,54.9,36z M58,36c0-1.4-0.4-2-1.1-2
		c-0.6,0-1.1,0.6-1.1,2c0,1.4,0.4,2,1.1,2C57.6,38,58,37.4,58,36z M62,33.2h0.9l-4.8,9.2h-0.9L62,33.2z M61.1,39.6
		c0-1.8,0.8-2.8,2.1-2.8c1.2,0,2.1,1,2.1,2.8s-0.8,2.8-2.1,2.8C62,42.4,61.1,41.4,61.1,39.6z M64.3,39.6c0-1.4-0.4-2-1.1-2
		c-0.6,0-1.1,0.6-1.1,2c0,1.4,0.4,2,1.1,2C63.8,41.6,64.3,41,64.3,39.6z"/>
</g>
<g class="st0">
	<path d="M82,205.8v-2.6h0.8v2.6H82z"/>
	<path d="M78.8,198.8v3.5h-1v-4.7h0.7c2.2,1.7,3.8,2,6.7,2.1v1.2C82.5,200.7,80.8,200.2,78.8,198.8z"/>
	<path d="M84.6,196.3c-0.5,0-0.8-0.3-0.8-0.8s0.3-0.8,0.8-0.8s0.8,0.3,0.8,0.8S85,196.3,84.6,196.3z"/>
	<path d="M84.3,193.2v-1.6h-5.1v1.3h-0.7c-0.1-0.7-0.3-1.2-0.6-1.6v-0.9h6.4V189h0.9v4.2H84.3z"/>
	<path d="M77.7,182v-0.7l7.6,4v0.7L77.7,182z M80.1,188c-1.5,0-2.3-0.7-2.3-1.7c0-1,0.8-1.7,2.3-1.7c1.5,0,2.3,0.7,2.3,1.7
		C82.4,187.3,81.5,188,80.1,188z M80.1,185.4c-1.1,0-1.6,0.4-1.6,0.9c0,0.5,0.5,0.9,1.6,0.9c1.1,0,1.7-0.4,1.7-0.9
		C81.7,185.8,81.2,185.4,80.1,185.4z M83,182.8c-1.5,0-2.3-0.7-2.3-1.7c0-1,0.8-1.7,2.3-1.7c1.5,0,2.3,0.7,2.3,1.7
		C85.4,182.1,84.5,182.8,83,182.8z M83,180.2c-1.1,0-1.6,0.4-1.6,0.9c0,0.5,0.5,0.9,1.6,0.9c1.1,0,1.7-0.4,1.7-0.9
		C84.7,180.5,84.2,180.2,83,180.2z"/>
</g>
<g class="st0">
	<path d="M108.1,52.3v0.9h2v1.1h-2v3.2h-0.8l-4.6-2.9v-1.3h4.5v-0.9H108.1z M107.2,54.3h-1.9c-0.4,0-1,0-1.4-0.1v0
		c0.4,0.2,0.8,0.4,1.1,0.6l2.2,1.4V54.3z"/>
	<path d="M106.4,51.5c-2.5,0-3.8-0.9-3.8-2.4c0-1.4,1.3-2.4,3.8-2.4c2.6,0,3.8,0.9,3.8,2.4C110.2,50.6,108.9,51.5,106.4,51.5z
		 M106.4,47.9c-2.1,0-2.9,0.5-2.9,1.3c0,0.8,0.8,1.3,2.9,1.3c2.1,0,2.9-0.5,2.9-1.3C109.3,48.4,108.5,47.9,106.4,47.9z"/>
	<path d="M109.4,45.6c-0.5,0-0.8-0.3-0.8-0.8s0.3-0.8,0.8-0.8s0.8,0.3,0.8,0.8S109.9,45.6,109.4,45.6z"/>
	<path d="M109.2,43.1l-0.7-0.6c0.4-0.4,0.8-1,0.8-1.7c0-0.8-0.5-1.4-1.2-1.4c-0.8,0-1.3,0.5-1.3,2.2h-0.8c0-1.4-0.5-1.9-1.3-1.9
		c-0.7,0-1.1,0.4-1.1,1.1c0,0.6,0.3,1,0.7,1.5l-0.7,0.6c-0.5-0.6-0.9-1.3-0.9-2.1c0-1.3,0.7-2.2,1.9-2.2c0.8,0,1.4,0.5,1.7,1.3h0
		c0.2-0.8,0.8-1.5,1.8-1.5c1.3,0,2.1,1.1,2.1,2.5C110.2,41.8,109.8,42.6,109.2,43.1z"/>
	<path d="M102.6,31.3v-0.7l7.6,4v0.7L102.6,31.3z M104.9,37.3c-1.5,0-2.3-0.7-2.3-1.7c0-1,0.8-1.7,2.3-1.7c1.5,0,2.3,0.7,2.3,1.7
		C107.3,36.6,106.4,37.3,104.9,37.3z M104.9,34.7c-1.1,0-1.6,0.4-1.6,0.9c0,0.5,0.5,0.9,1.6,0.9c1.1,0,1.7-0.4,1.7-0.9
		C106.6,35,106,34.7,104.9,34.7z M107.9,32.1c-1.5,0-2.3-0.7-2.3-1.7c0-1,0.8-1.7,2.3-1.7c1.5,0,2.3,0.7,2.3,1.7
		C110.2,31.4,109.4,32.1,107.9,32.1z M107.9,29.4c-1.1,0-1.6,0.4-1.6,0.9c0,0.5,0.5,0.9,1.6,0.9c1.1,0,1.7-0.4,1.7-0.9
		C109.6,29.8,109,29.4,107.9,29.4z"/>
</g>
<g class="st0">
	<path d="M134,120.4v-1.6h-5.1v1.3h-0.7c-0.1-0.7-0.3-1.2-0.6-1.6v-0.9h6.4v-1.4h0.9v4.2H134z"/>
	<path d="M133,110.1v0.9h2v1.1h-2v3.2h-0.8l-4.6-2.9v-1.3h4.5v-0.9H133z M132.1,112.2h-1.9c-0.4,0-1,0-1.4-0.1v0
		c0.4,0.2,0.8,0.4,1.1,0.6l2.2,1.4V112.2z"/>
	<path d="M134.3,109.1c-0.5,0-0.8-0.3-0.8-0.8s0.3-0.8,0.8-0.8s0.8,0.3,0.8,0.8S134.8,109.1,134.3,109.1z"/>
	<path d="M128.6,102.9v3.5h-1v-4.7h0.7c2.2,1.7,3.8,2,6.7,2.1v1.2C132.3,104.8,130.6,104.3,128.6,102.9z"/>
	<path d="M127.5,94.8v-0.7l7.6,4v0.7L127.5,94.8z M129.8,100.8c-1.5,0-2.3-0.7-2.3-1.7c0-1,0.8-1.7,2.3-1.7c1.5,0,2.3,0.7,2.3,1.7
		C132.1,100.1,131.3,100.8,129.8,100.8z M129.8,98.2c-1.1,0-1.6,0.4-1.6,0.9c0,0.5,0.5,0.9,1.6,0.9c1.1,0,1.7-0.4,1.7-0.9
		C131.4,98.6,130.9,98.2,129.8,98.2z M132.8,95.6c-1.5,0-2.3-0.7-2.3-1.7c0-1,0.8-1.7,2.3-1.7c1.5,0,2.3,0.7,2.3,1.7
		C135.1,94.9,134.2,95.6,132.8,95.6z M132.8,93c-1.1,0-1.6,0.4-1.6,0.9c0,0.5,0.5,0.9,1.6,0.9c1.1,0,1.7-0.4,1.7-0.9
		C134.4,93.3,133.9,93,132.8,93z"/>
</g>
<g class="st0">
	<path d="M153.8,134.3c-0.3,0.3-0.5,0.7-0.5,1.1c0,0.9,0.7,1.7,2.8,1.8c-0.5-0.4-0.8-1.1-0.8-1.6c0-1.2,0.8-2.1,2.3-2.1
		c1.5,0,2.4,1,2.4,2.2c0,1.4-1.2,2.5-3.7,2.5c-2.8,0-4-1.3-4-2.8c0-0.8,0.3-1.4,0.8-1.8L153.8,134.3z M157.6,134.6
		c-1,0-1.5,0.4-1.5,1.2c0,0.4,0.2,0.9,0.9,1.4c1.5-0.1,2.1-0.6,2.1-1.4C159.1,135.1,158.5,134.6,157.6,134.6z"/>
	<path d="M159.2,132.4c-0.5,0-0.8-0.3-0.8-0.8s0.3-0.8,0.8-0.8s0.8,0.3,0.8,0.8S159.6,132.4,159.2,132.4z"/>
	<path d="M158.9,129.2v-1.6h-5.1v1.3H153c-0.1-0.7-0.3-1.2-0.6-1.6v-0.9h6.4V125h0.9v4.2H158.9z"/>
	<path d="M152.3,118.1v-0.7l7.6,4v0.7L152.3,118.1z M154.7,124c-1.5,0-2.3-0.7-2.3-1.7c0-1,0.8-1.7,2.3-1.7c1.5,0,2.3,0.7,2.3,1.7
		C157,123.3,156.1,124,154.7,124z M154.7,121.4c-1.1,0-1.6,0.4-1.6,0.9c0,0.5,0.5,0.9,1.6,0.9c1.1,0,1.7-0.4,1.7-0.9
		C156.3,121.8,155.8,121.4,154.7,121.4z M157.6,118.8c-1.5,0-2.3-0.7-2.3-1.7c0-1,0.8-1.7,2.3-1.7c1.5,0,2.3,0.7,2.3,1.7
		C160,118.1,159.1,118.8,157.6,118.8z M157.6,116.2c-1.1,0-1.6,0.4-1.6,0.9c0,0.5,0.5,0.9,1.6,0.9c1.1,0,1.7-0.4,1.7-0.9
		C159.3,116.6,158.8,116.2,157.6,116.2z"/>
</g>
<g class="st0">
	<path d="M183.8,140.4l-0.8-0.5c0.4-0.4,0.8-1,0.8-1.7c0-0.8-0.6-1.5-1.6-1.5s-1.5,0.6-1.5,1.4c0,0.5,0.1,0.7,0.4,1.2l-0.4,0.6
		l-3.5-0.2v-3.7h1v2.7l1.9,0.2c-0.2-0.3-0.3-0.6-0.3-1c0-1.2,0.7-2.2,2.3-2.2c1.6,0,2.5,1.2,2.5,2.5
		C184.8,139.1,184.4,139.9,183.8,140.4z"/>
	<path d="M184,134.2c-0.5,0-0.8-0.3-0.8-0.8s0.3-0.8,0.8-0.8s0.8,0.3,0.8,0.8S184.5,134.2,184,134.2z"/>
	<path d="M178.3,128v3.5h-1v-4.7h0.7c2.2,1.7,3.8,2,6.7,2.1v1.2C182,129.9,180.3,129.4,178.3,128z"/>
	<path d="M177.2,119.9v-0.7l7.6,4v0.7L177.2,119.9z M179.5,125.9c-1.5,0-2.3-0.7-2.3-1.7c0-1,0.8-1.7,2.3-1.7c1.5,0,2.3,0.7,2.3,1.7
		C181.9,125.2,181,125.9,179.5,125.9z M179.5,123.3c-1.1,0-1.6,0.4-1.6,0.9c0,0.5,0.5,0.9,1.6,0.9c1.1,0,1.7-0.4,1.7-0.9
		C181.2,123.7,180.6,123.3,179.5,123.3z M182.5,120.7c-1.5,0-2.3-0.7-2.3-1.7c0-1,0.8-1.7,2.3-1.7c1.5,0,2.3,0.7,2.3,1.7
		C184.8,120,184,120.7,182.5,120.7z M182.5,118.1c-1.1,0-1.6,0.4-1.6,0.9c0,0.5,0.5,0.9,1.6,0.9c1.1,0,1.7-0.4,1.7-0.9
		C184.2,118.5,183.6,118.1,182.5,118.1z"/>
</g>
<g class="st0">
	<path d="M207.7,133.8c-1,0-1.6-0.6-2-1.3h0c-0.4,0.5-0.9,1-1.7,1c-1.1,0-1.9-0.9-1.9-2.1c0-1.3,0.8-2.1,1.9-2.1
		c0.8,0,1.4,0.5,1.7,1h0c0.4-0.7,0.9-1.2,1.9-1.2c1.1,0,1.9,1,1.9,2.4C209.7,132.8,208.9,133.8,207.7,133.8z M204.1,130.3
		c-0.7,0-1.2,0.4-1.2,1.1c0,0.6,0.4,1.1,1.1,1.1c0.8,0,1.2-0.7,1.5-1.5C205.1,130.5,204.6,130.3,204.1,130.3z M207.7,130.2
		c-0.9,0-1.2,0.8-1.6,1.8c0.4,0.5,0.9,0.9,1.5,0.9c0.7,0,1.2-0.6,1.2-1.4C208.9,130.7,208.4,130.2,207.7,130.2z"/>
	<path d="M208.9,127.9c-0.5,0-0.8-0.3-0.8-0.8s0.3-0.8,0.8-0.8s0.8,0.3,0.8,0.8S209.4,127.9,208.9,127.9z"/>
	<path d="M208.7,125.3l-0.7-0.6c0.4-0.4,0.8-1,0.8-1.7c0-0.8-0.5-1.4-1.2-1.4c-0.8,0-1.3,0.5-1.3,2.2h-0.8c0-1.4-0.5-1.9-1.3-1.9
		c-0.7,0-1.1,0.4-1.1,1.1c0,0.6,0.3,1,0.7,1.5l-0.7,0.6c-0.5-0.6-0.9-1.3-0.9-2.1c0-1.3,0.7-2.2,1.9-2.2c0.8,0,1.4,0.5,1.7,1.3h0
		c0.2-0.8,0.8-1.5,1.8-1.5c1.3,0,2.1,1.1,2.1,2.5C209.7,124.1,209.2,124.9,208.7,125.3z"/>
	<path d="M202.1,113.6v-0.7l7.6,4v0.7L202.1,113.6z M204.4,119.6c-1.5,0-2.3-0.7-2.3-1.7c0-1,0.8-1.7,2.3-1.7c1.5,0,2.3,0.7,2.3,1.7
		C206.7,118.9,205.9,119.6,204.4,119.6z M204.4,117c-1.1,0-1.6,0.4-1.6,0.9c0,0.5,0.5,0.9,1.6,0.9c1.1,0,1.7-0.4,1.7-0.9
		C206,117.3,205.5,117,204.4,117z M207.4,114.3c-1.5,0-2.3-0.7-2.3-1.7c0-1,0.8-1.7,2.3-1.7c1.5,0,2.3,0.7,2.3,1.7
		C209.7,113.6,208.8,114.3,207.4,114.3z M207.4,111.7c-1.1,0-1.6,0.4-1.6,0.9c0,0.5,0.5,0.9,1.6,0.9c1.1,0,1.7-0.4,1.7-0.9
		C209,112.1,208.5,111.7,207.4,111.7z"/>
</g>
<g class="st0">
	<path d="M231.2,194.3v-2.6h0.8v2.6H231.2z"/>
	<path d="M233.5,190.3v-1.6h-5.1v1.3h-0.7c-0.1-0.7-0.3-1.2-0.6-1.6v-0.9h6.4v-1.4h0.9v4.2H233.5z"/>
	<path d="M233.8,184.8c-0.5,0-0.8-0.3-0.8-0.8s0.3-0.8,0.8-0.8s0.8,0.3,0.8,0.8S234.2,184.8,233.8,184.8z"/>
	<path d="M233.5,181.6V180h-5.1v1.3h-0.7c-0.1-0.7-0.3-1.2-0.6-1.6v-0.9h6.4v-1.4h0.9v4.2H233.5z"/>
	<path d="M226.9,170.5v-0.7l7.6,4v0.7L226.9,170.5z M229.3,176.4c-1.5,0-2.3-0.7-2.3-1.7c0-1,0.8-1.7,2.3-1.7c1.5,0,2.3,0.7,2.3,1.7
		C231.6,175.8,230.7,176.4,229.3,176.4z M229.3,173.8c-1.1,0-1.6,0.4-1.6,0.9c0,0.5,0.5,0.9,1.6,0.9c1.1,0,1.7-0.4,1.7-0.9
		C230.9,174.2,230.4,173.8,229.3,173.8z M232.2,171.2c-1.5,0-2.3-0.7-2.3-1.7c0-1,0.8-1.7,2.3-1.7c1.5,0,2.3,0.7,2.3,1.7
		C234.6,170.5,233.7,171.2,232.2,171.2z M232.2,168.6c-1.1,0-1.6,0.4-1.6,0.9c0,0.5,0.5,0.9,1.6,0.9c1.1,0,1.7-0.4,1.7-0.9
		C233.9,169,233.4,168.6,232.2,168.6z"/>
</g>
<g class="st0">
	<path d="M255.6,151.8c-2.5,0-3.8-0.9-3.8-2.4c0-1.4,1.3-2.4,3.8-2.4c2.6,0,3.8,0.9,3.8,2.4C259.4,150.8,258.1,151.8,255.6,151.8z
		 M255.6,148.1c-2.1,0-2.9,0.5-2.9,1.3c0,0.8,0.8,1.3,2.9,1.3c2.1,0,2.9-0.5,2.9-1.3C258.5,148.6,257.7,148.1,255.6,148.1z"/>
	<path d="M258.6,145.8c-0.5,0-0.8-0.3-0.8-0.8s0.3-0.8,0.8-0.8s0.8,0.3,0.8,0.8S259.1,145.8,258.6,145.8z"/>
	<path d="M258.4,143.3l-0.8-0.5c0.4-0.4,0.8-1,0.8-1.7c0-0.8-0.6-1.5-1.6-1.5s-1.5,0.6-1.5,1.4c0,0.5,0.1,0.7,0.4,1.2l-0.4,0.6
		l-3.5-0.2v-3.7h1v2.7l1.9,0.2c-0.2-0.3-0.3-0.6-0.3-1c0-1.2,0.7-2.2,2.3-2.2c1.6,0,2.5,1.2,2.5,2.5
		C259.4,142,259,142.8,258.4,143.3z"/>
	<path d="M251.8,131.5v-0.7l7.6,4v0.7L251.8,131.5z M254.1,137.5c-1.5,0-2.3-0.7-2.3-1.7s0.8-1.7,2.3-1.7c1.5,0,2.3,0.7,2.3,1.7
		S255.6,137.5,254.1,137.5z M254.1,134.9c-1.1,0-1.6,0.4-1.6,0.9c0,0.5,0.5,0.9,1.6,0.9c1.1,0,1.7-0.4,1.7-0.9
		C255.8,135.3,255.2,134.9,254.1,134.9z M257.1,132.3c-1.5,0-2.3-0.7-2.3-1.7c0-1,0.8-1.7,2.3-1.7c1.5,0,2.3,0.7,2.3,1.7
		C259.4,131.6,258.6,132.3,257.1,132.3z M257.1,129.7c-1.1,0-1.6,0.4-1.6,0.9c0,0.5,0.5,0.9,1.6,0.9c1.1,0,1.7-0.4,1.7-0.9
		C258.8,130,258.2,129.7,257.1,129.7z"/>
</g>
<g class="st0">
	<path d="M283.2,124.7v-1.6h-5.1v1.3h-0.7c-0.1-0.7-0.3-1.2-0.6-1.6V122h6.4v-1.4h0.9v4.2H283.2z"/>
	<path d="M283.2,119v-1.6h-5.1v1.3h-0.7c-0.1-0.7-0.3-1.2-0.6-1.6v-0.9h6.4v-1.4h0.9v4.2H283.2z"/>
	<path d="M283.5,113.5c-0.5,0-0.8-0.3-0.8-0.8s0.3-0.8,0.8-0.8s0.8,0.3,0.8,0.8S284,113.5,283.5,113.5z"/>
	<path d="M282.3,110.8c-1,0-1.6-0.6-2-1.3h0c-0.4,0.5-0.9,1-1.7,1c-1.1,0-1.9-0.9-1.9-2.1c0-1.3,0.8-2.1,1.9-2.1
		c0.8,0,1.4,0.5,1.7,1h0c0.4-0.7,0.9-1.2,1.9-1.2c1.1,0,1.9,1,1.9,2.4C284.3,109.7,283.5,110.8,282.3,110.8z M278.7,107.2
		c-0.7,0-1.2,0.4-1.2,1.1c0,0.6,0.4,1,1.1,1c0.8,0,1.2-0.7,1.5-1.5C279.7,107.4,279.2,107.2,278.7,107.2z M282.3,107.1
		c-0.9,0-1.2,0.8-1.6,1.8c0.4,0.5,0.9,0.9,1.5,0.9c0.7,0,1.2-0.6,1.2-1.4C283.5,107.6,283,107.1,282.3,107.1z"/>
	<path d="M276.7,99.2v-0.7l7.6,4v0.7L276.7,99.2z M279,105.2c-1.5,0-2.3-0.7-2.3-1.7c0-1,0.8-1.7,2.3-1.7c1.5,0,2.3,0.7,2.3,1.7
		C281.3,104.5,280.5,105.2,279,105.2z M279,102.5c-1.1,0-1.6,0.4-1.6,0.9c0,0.5,0.5,0.9,1.6,0.9c1.1,0,1.7-0.4,1.7-0.9
		C280.6,102.9,280.1,102.5,279,102.5z M282,99.9c-1.5,0-2.3-0.7-2.3-1.7c0-1,0.8-1.7,2.3-1.7c1.5,0,2.3,0.7,2.3,1.7
		C284.3,99.2,283.4,99.9,282,99.9z M282,97.3c-1.1,0-1.6,0.4-1.6,0.9c0,0.5,0.5,0.9,1.6,0.9c1.1,0,1.7-0.4,1.7-0.9
		C283.6,97.7,283.1,97.3,282,97.3z"/>
</g>
<g class="st0">
	<path d="M308.4,99.3c-1.9-2.2-3.3-3.3-4.6-3.3c-0.8,0-1.3,0.4-1.3,1.2c0,0.6,0.4,1.1,0.8,1.4l-0.6,0.6c-0.7-0.6-1.1-1.3-1.1-2.2
		c0-1.3,0.9-2.2,2.2-2.2c1.4,0,2.9,1.1,4.4,2.7c0-0.4-0.1-0.8-0.1-1.2v-1.8h1v4.7H308.4z"/>
	<path d="M308.4,93.6c-1.9-2.2-3.3-3.3-4.6-3.3c-0.8,0-1.3,0.4-1.3,1.2c0,0.6,0.4,1.1,0.8,1.4l-0.6,0.6c-0.7-0.6-1.1-1.3-1.1-2.2
		c0-1.3,0.9-2.2,2.2-2.2c1.4,0,2.9,1.1,4.4,2.7c0-0.4-0.1-0.8-0.1-1.2v-1.8h1v4.7H308.4z"/>
	<path d="M308.4,87.6c-0.5,0-0.8-0.3-0.8-0.8s0.3-0.8,0.8-0.8s0.8,0.3,0.8,0.8S308.8,87.6,308.4,87.6z"/>
	<path d="M302.6,81.4v3.5h-1v-4.7h0.7c2.2,1.7,3.8,2,6.7,2.1v1.2C306.3,83.3,304.6,82.8,302.6,81.4z"/>
	<path d="M301.5,73.3v-0.7l7.6,4v0.7L301.5,73.3z M303.9,79.3c-1.5,0-2.3-0.7-2.3-1.7c0-1,0.8-1.7,2.3-1.7c1.5,0,2.3,0.7,2.3,1.7
		C306.2,78.6,305.3,79.3,303.9,79.3z M303.9,76.7c-1.1,0-1.6,0.4-1.6,0.9c0,0.5,0.5,0.9,1.6,0.9c1.1,0,1.7-0.4,1.7-0.9
		C305.5,77,305,76.7,303.9,76.7z M306.8,74.1c-1.5,0-2.3-0.7-2.3-1.7c0-1,0.8-1.7,2.3-1.7c1.5,0,2.3,0.7,2.3,1.7
		C309.2,73.4,308.3,74.1,306.8,74.1z M306.8,71.4c-1.1,0-1.6,0.4-1.6,0.9c0,0.5,0.5,0.9,1.6,0.9c1.1,0,1.7-0.4,1.7-0.9
		C308.5,71.8,308,71.4,306.8,71.4z"/>
</g>
<g class="st0">
	<path d="M330.2,152.7c-2.5,0-3.8-0.9-3.8-2.4c0-1.4,1.3-2.4,3.8-2.4c2.6,0,3.8,0.9,3.8,2.4C334,151.7,332.7,152.7,330.2,152.7z
		 M330.2,149c-2.1,0-2.9,0.5-2.9,1.3c0,0.8,0.8,1.3,2.9,1.3c2.1,0,2.9-0.5,2.9-1.3C333.1,149.5,332.3,149,330.2,149z"/>
	<path d="M333.2,146.7c-0.5,0-0.8-0.3-0.8-0.8s0.3-0.8,0.8-0.8s0.8,0.3,0.8,0.8S333.7,146.7,333.2,146.7z"/>
	<path d="M333.2,144c-1.9-2.2-3.3-3.3-4.6-3.3c-0.8,0-1.3,0.4-1.3,1.3c0,0.6,0.4,1.1,0.8,1.4l-0.6,0.6c-0.7-0.6-1.1-1.3-1.1-2.2
		c0-1.3,0.9-2.2,2.2-2.2c1.4,0,2.9,1.1,4.4,2.7c0-0.4-0.1-0.8-0.1-1.2v-1.8h1v4.7H333.2z"/>
	<path d="M326.4,132.4v-0.7l7.6,4v0.7L326.4,132.4z M328.7,138.4c-1.5,0-2.3-0.7-2.3-1.7s0.8-1.7,2.3-1.7c1.5,0,2.3,0.7,2.3,1.7
		S330.2,138.4,328.7,138.4z M328.7,135.8c-1.1,0-1.6,0.4-1.6,0.9c0,0.5,0.5,0.9,1.6,0.9c1.1,0,1.7-0.4,1.7-0.9
		C330.4,136.1,329.8,135.8,328.7,135.8z M331.7,133.2c-1.5,0-2.3-0.7-2.3-1.7c0-1,0.8-1.7,2.3-1.7c1.5,0,2.3,0.7,2.3,1.7
		C334,132.5,333.2,133.2,331.7,133.2z M331.7,130.6c-1.1,0-1.6,0.4-1.6,0.9c0,0.5,0.5,0.9,1.6,0.9c1.1,0,1.7-0.4,1.7-0.9
		C333.4,130.9,332.8,130.6,331.7,130.6z"/>
</g>
<g class="st0">
	<path d="M357.4,128.3c0.3-0.3,0.5-0.7,0.5-1.2c0-0.9-0.7-1.7-2.8-1.7c0.5,0.4,0.9,1.1,0.9,1.6c0,1.2-0.8,2.1-2.3,2.1
		c-1.5,0-2.4-1-2.4-2.2c0-1.4,1.1-2.5,3.6-2.5c2.9,0,4.1,1.3,4.1,2.7c0,0.8-0.3,1.4-0.8,1.9L357.4,128.3z M354.3,125.4
		c-1.4,0.1-2.1,0.7-2.1,1.5c0,0.6,0.6,1.1,1.5,1.1c0.9,0,1.5-0.4,1.5-1.2C355.2,126.3,354.9,125.8,354.3,125.4z"/>
	<path d="M358.1,123.1c-0.5,0-0.8-0.3-0.8-0.8s0.3-0.8,0.8-0.8s0.8,0.3,0.8,0.8S358.6,123.1,358.1,123.1z"/>
	<path d="M356.9,120.3c-1,0-1.6-0.6-2-1.3h0c-0.4,0.5-0.9,1-1.7,1c-1.1,0-1.9-0.9-1.9-2.1c0-1.3,0.8-2.1,1.9-2.1
		c0.8,0,1.4,0.5,1.7,1h0c0.4-0.7,0.9-1.2,1.9-1.2c1.1,0,1.9,1,1.9,2.4C358.9,119.3,358.1,120.3,356.9,120.3z M353.3,116.8
		c-0.7,0-1.2,0.4-1.2,1.1c0,0.6,0.4,1,1.1,1c0.8,0,1.2-0.7,1.5-1.5C354.3,117,353.8,116.8,353.3,116.8z M356.9,116.7
		c-0.9,0-1.2,0.8-1.6,1.8c0.4,0.5,0.9,0.9,1.5,0.9c0.7,0,1.2-0.6,1.2-1.4C358.1,117.2,357.6,116.7,356.9,116.7z"/>
	<path d="M351.3,108.8V108l7.6,4v0.7L351.3,108.8z M353.6,114.7c-1.5,0-2.3-0.7-2.3-1.7c0-1,0.8-1.7,2.3-1.7c1.5,0,2.3,0.7,2.3,1.7
		C355.9,114.1,355.1,114.7,353.6,114.7z M353.6,112.1c-1.1,0-1.6,0.4-1.6,0.9c0,0.5,0.5,0.9,1.6,0.9c1.1,0,1.7-0.4,1.7-0.9
		C355.2,112.5,354.7,112.1,353.6,112.1z M356.6,109.5c-1.5,0-2.3-0.7-2.3-1.7c0-1,0.8-1.7,2.3-1.7c1.5,0,2.3,0.7,2.3,1.7
		C358.9,108.8,358,109.5,356.6,109.5z M356.6,106.9c-1.1,0-1.6,0.4-1.6,0.9c0,0.5,0.5,0.9,1.6,0.9c1.1,0,1.7-0.4,1.7-0.9
		C358.2,107.3,357.7,106.9,356.6,106.9z"/>
</g>
<line class="st1" x1="69.8" y1="158.3" x2="367.5" y2="158.3"/>
<text transform="matrix(1 0 0 1 63.8694 328.2559)" style="font-family:'SourceHanSansTW-Bold-B5pc-H'; font-size:17px;">史坦普500企業每股盈餘成長率預估(%)</text>
<line class="st1" x1="69.8" y1="339.9" x2="69.8" y2="519"/>
<line class="st1" x1="66.8" y1="351.7" x2="69.8" y2="351.7"/>
<line class="st1" x1="66.8" y1="375.5" x2="69.8" y2="375.5"/>
<line class="st1" x1="66.8" y1="399.4" x2="69.8" y2="399.4"/>
<line class="st1" x1="66.8" y1="423.2" x2="69.8" y2="423.2"/>
<line class="st1" x1="66.8" y1="447" x2="69.8" y2="447"/>
<line class="st1" x1="66.8" y1="470.8" x2="69.8" y2="470.8"/>
<line class="st1" x1="66.8" y1="494.7" x2="69.8" y2="494.7"/>
<line class="st1" x1="66.8" y1="518.5" x2="69.8" y2="518.5"/>
<line class="st1" x1="94.4" y1="470.8" x2="94.4" y2="474.2"/>
<line class="st1" x1="119.2" y1="470.8" x2="119.2" y2="474.2"/>
<line class="st1" x1="144.1" y1="470.8" x2="144.1" y2="474.2"/>
<line class="st1" x1="169" y1="470.8" x2="169" y2="474.2"/>
<line class="st1" x1="193.9" y1="470.8" x2="193.9" y2="474.2"/>
<line class="st1" x1="218.8" y1="470.8" x2="218.8" y2="474.2"/>
<line class="st1" x1="243.6" y1="470.8" x2="243.6" y2="474.2"/>
<line class="st1" x1="268.5" y1="470.8" x2="268.5" y2="474.2"/>
<line class="st1" x1="293.4" y1="470.8" x2="293.4" y2="474.2"/>
<line class="st1" x1="318.3" y1="470.8" x2="318.3" y2="474.2"/>
<line class="st1" x1="343.2" y1="470.8" x2="343.2" y2="474.2"/>
<line class="st1" x1="368.1" y1="470.8" x2="368.1" y2="474.2"/>
<rect x="76.9" y="470.8" class="st2" width="10.1" height="17.3"/>
<rect x="101.8" y="374.8" class="st2" width="10.1" height="96"/>
<rect x="126.6" y="435.9" class="st2" width="10.1" height="34.9"/>
<rect x="151.5" y="456.5" class="st2" width="10.1" height="14.3"/>
<rect x="176.4" y="457.4" class="st2" width="10.1" height="13.4"/>
<rect x="201.3" y="451.1" class="st2" width="10.1" height="19.7"/>
<rect x="226.2" y="470.8" class="st2" width="10.1" height="3"/>
<rect x="251.1" y="469.6" class="st2" width="10.1" height="1.2"/>
<rect x="275.9" y="442.2" class="st2" width="10.1" height="28.6"/>
<rect x="300.8" y="416.7" class="st2" width="10.1" height="54.2"/>
<rect x="325.7" y="470.3" class="st2" width="10.1" height="0.5"/>
<rect x="350.6" y="447.6" class="st2" width="10.1" height="23.2"/>
<text transform="matrix(1 0 0 1 36.4686 522.9413)" style="font-family:'SourceHanSansTW-Medium-B5pc-H'; font-size:12px;">-20%</text>
<text transform="matrix(6.123234e-17 -1 1 6.123234e-17 85.23 547.2267)" style="font-family:'SourceHanSansTW-Medium-B5pc-H'; font-size:10px;">2009</text>
<text transform="matrix(6.123234e-17 -1 1 6.123234e-17 110.096 547.2267)" style="font-family:'SourceHanSansTW-Medium-B5pc-H'; font-size:10px;">2010</text>
<text transform="matrix(6.123234e-17 -1 1 6.123234e-17 134.9629 547.2267)" style="font-family:'SourceHanSansTW-Medium-B5pc-H'; font-size:10px;">2011</text>
<text transform="matrix(6.123234e-17 -1 1 6.123234e-17 159.8289 547.2267)" style="font-family:'SourceHanSansTW-Medium-B5pc-H'; font-size:10px;">2012</text>
<text transform="matrix(6.123234e-17 -1 1 6.123234e-17 184.6948 547.2267)" style="font-family:'SourceHanSansTW-Medium-B5pc-H'; font-size:10px;">2013</text>
<text transform="matrix(6.123234e-17 -1 1 6.123234e-17 209.5618 547.2267)" style="font-family:'SourceHanSansTW-Medium-B5pc-H'; font-size:10px;">2014</text>
<text transform="matrix(6.123234e-17 -1 1 6.123234e-17 234.4277 547.2267)" style="font-family:'SourceHanSansTW-Medium-B5pc-H'; font-size:10px;">2015</text>
<text transform="matrix(6.123234e-17 -1 1 6.123234e-17 259.2937 547.2267)" style="font-family:'SourceHanSansTW-Medium-B5pc-H'; font-size:10px;">2016</text>
<text transform="matrix(6.123234e-17 -1 1 6.123234e-17 284.1606 547.2267)" style="font-family:'SourceHanSansTW-Medium-B5pc-H'; font-size:10px;">2017</text>
<text transform="matrix(6.123234e-17 -1 1 6.123234e-17 309.0266 547.2267)" style="font-family:'SourceHanSansTW-Medium-B5pc-H'; font-size:10px;">2018</text>
<text transform="matrix(6.123234e-17 -1 1 6.123234e-17 333.8925 547.2267)" style="font-family:'SourceHanSansTW-Medium-B5pc-H'; font-size:10px;">2019</text>
<text transform="matrix(6.123234e-17 -1 1 6.123234e-17 358.7594 547.2267)" style="font-family:'SourceHanSansTW-Medium-B5pc-H'; font-size:10px;">2020</text>
<text transform="matrix(1 0 0 1 36.4686 498.9413)" style="font-family:'SourceHanSansTW-Medium-B5pc-H'; font-size:12px;">-10%</text>
<text transform="matrix(1 0 0 1 47.5921 474.9413)" style="font-family:'SourceHanSansTW-Medium-B5pc-H'; font-size:12px;">0%</text>
<text transform="matrix(1 0 0 1 40.7523 450.9413)" style="font-family:'SourceHanSansTW-Medium-B5pc-H'; font-size:12px;">10%</text>
<text transform="matrix(1 0 0 1 40.7523 426.9413)" style="font-family:'SourceHanSansTW-Medium-B5pc-H'; font-size:12px;">20%</text>
<text transform="matrix(1 0 0 1 40.7523 402.9413)" style="font-family:'SourceHanSansTW-Medium-B5pc-H'; font-size:12px;">30%</text>
<text transform="matrix(1 0 0 1 40.7523 378.9413)" style="font-family:'SourceHanSansTW-Medium-B5pc-H'; font-size:12px;">40%</text>
<text transform="matrix(1 0 0 1 40.7523 354.9413)" style="font-family:'SourceHanSansTW-Medium-B5pc-H'; font-size:12px;">50%</text>
<text transform="matrix(6.123234e-17 -1 1 6.123234e-17 85.23 519.007)" style="font-family:'SourceHanSansTW-Medium-B5pc-H'; font-size:10px;">-7.1%</text>
<text transform="matrix(6.123234e-17 -1 1 6.123234e-17 110.0964 370.4171)" style="font-family:'SourceHanSansTW-Medium-B5pc-H'; font-size:10px;">40.3%</text>
<text transform="matrix(6.123234e-17 -1 1 6.123234e-17 134.9632 433.9464)" style="font-family:'SourceHanSansTW-Medium-B5pc-H'; font-size:10px;">14.7%</text>
<text transform="matrix(6.123234e-17 -1 1 6.123234e-17 159.8286 451.4757)" style="font-family:'SourceHanSansTW-Medium-B5pc-H'; font-size:10px;">6.1%</text>
<text transform="matrix(6.123234e-17 -1 1 6.123234e-17 184.6953 453.3605)" style="font-family:'SourceHanSansTW-Medium-B5pc-H'; font-size:10px;">5.7%</text>
<text transform="matrix(6.123234e-17 -1 1 6.123234e-17 209.562 447.007)" style="font-family:'SourceHanSansTW-Medium-B5pc-H'; font-size:10px;">8.3%</text>
<text transform="matrix(6.123234e-17 -1 1 6.123234e-17 234.4277 507.462)" style="font-family:'SourceHanSansTW-Medium-B5pc-H'; font-size:10px;">-1.1%</text>
<text transform="matrix(6.123234e-17 -1 1 6.123234e-17 259.2942 464.9464)" style="font-family:'SourceHanSansTW-Medium-B5pc-H'; font-size:10px;">0.5%</text>
<text transform="matrix(6.123234e-17 -1 1 6.123234e-17 284.1606 438.2999)" style="font-family:'SourceHanSansTW-Medium-B5pc-H'; font-size:10px;">11.8%</text>
<text transform="matrix(6.123234e-17 -1 1 6.123234e-17 309.027 412.4181)" style="font-family:'SourceHanSansTW-Medium-B5pc-H'; font-size:10px;">22.7%</text>
<text transform="matrix(6.123234e-17 -1 1 6.123234e-17 333.8922 465.8292)" style="font-family:'SourceHanSansTW-Medium-B5pc-H'; font-size:10px;">0.2%</text>
<text transform="matrix(6.123234e-17 -1 1 6.123234e-17 358.7597 442.1886)" style="font-family:'SourceHanSansTW-Medium-B5pc-H'; font-size:10px;">9.8%</text>
<line class="st1" x1="69.8" y1="471" x2="367.5" y2="471"/>
</svg>
