<?xml version="1.0" encoding="utf-8"?>
<!-- Generator: Adobe Illustrator 24.0.2, SVG Export Plug-In . SVG Version: 6.00 Build 0)  -->
<svg version="1.1" id="圖層_1" xmlns="http://www.w3.org/2000/svg" xmlns:xlink="http://www.w3.org/1999/xlink" x="0px" y="0px"
	 viewBox="0 0 425 255.2" style="enable-background:new 0 0 425 255.2;" xml:space="preserve">
<style type="text/css">
	.st0{fill:none;stroke:#000000;stroke-miterlimit:10;}
	.st1{fill:#BCE3A1;}
	.st2{fill:#47AC6B;}
	.st3{fill:#E58061;}
	.st4{fill:#A8D7E2;}
	.st5{fill:#EACC80;}
	.st6{fill:#137CB1;}
	.st7{fill:#5CAD6F;}
	.st8{fill:#45AD6B;}
	.st9{fill:#EBCC7F;}
	.st10{fill:#A7D6E2;}
	.st11{fill:#B9E7B1;}
	.st12{fill:#4FA869;}
	.st13{fill:#47AC6A;}
	.st14{fill:#4AAC6B;}
	.st15{fill:#45AA67;}
	.st16{fill:#8E466A;}
	.st17{fill:none;stroke:#8E466A;stroke-miterlimit:10;}
	.st18{enable-background:new    ;}
</style>
<line class="st0" x1="18.8" y1="374" x2="18.8" y2="488.8"/>
<line class="st0" x1="337.4" y1="358.5" x2="337.4" y2="526.2"/>
<rect x="25.7" y="430.8" class="st1" width="10.2" height="8.6"/>
<rect x="25.7" y="439.4" class="st2" width="10.2" height="0.9"/>
<rect x="25.7" y="422.4" class="st3" width="10.2" height="8.4"/>
<rect x="25.7" y="410.7" class="st4" width="10.2" height="11.7"/>
<rect x="25.7" y="400.5" class="st5" width="10.2" height="10.2"/>
<rect x="25.7" y="387.8" class="st6" width="10.2" height="12.6"/>
<rect x="51.1" y="439.4" class="st1" width="10.2" height="16.9"/>
<rect x="51.1" y="425.8" class="st3" width="10.2" height="13.6"/>
<rect x="76.4" y="434.7" class="st3" width="10.2" height="4.7"/>
<rect x="101.4" y="431.8" class="st3" width="10.2" height="7.6"/>
<rect x="126.5" y="432.6" class="st3" width="10.2" height="6.8"/>
<rect x="152.1" y="434.2" class="st3" width="10.2" height="5.2"/>
<rect x="176.8" y="432.4" class="st3" width="10.2" height="7"/>
<rect x="202.4" y="436.3" class="st3" width="10.2" height="3.2"/>
<rect x="227.9" y="436.6" class="st3" width="10.2" height="2.8"/>
<rect x="252.4" y="436.9" class="st3" width="10.2" height="2.5"/>
<rect x="277.8" y="436.9" class="st3" width="10.2" height="2.5"/>
<rect x="303.1" y="437.2" class="st3" width="10.2" height="2.2"/>
<rect x="353.5" y="430.9" class="st3" width="10.2" height="8.6"/>
<rect x="378.7" y="433.9" class="st3" width="10.2" height="5.6"/>
<rect x="403.6" y="437" class="st3" width="10.2" height="2.4"/>
<rect x="403.6" y="439.4" class="st4" width="10.2" height="3.2"/>
<rect x="403.6" y="436.3" class="st7" width="10.2" height="0.7"/>
<rect x="403.6" y="431.2" class="st5" width="10.2" height="5.1"/>
<rect x="403.6" y="403.8" class="st6" width="10.2" height="27.4"/>
<rect x="378.7" y="439.4" class="st1" width="10.2" height="1.8"/>
<rect x="378.7" y="441.2" class="st4" width="10.2" height="5"/>
<rect x="378.7" y="431.2" class="st8" width="10.2" height="2.7"/>
<rect x="378.7" y="427.2" class="st9" width="10.2" height="4"/>
<rect x="378.7" y="404.4" class="st6" width="10.2" height="22.8"/>
<rect x="353.5" y="439.4" class="st1" width="10.2" height="6.5"/>
<rect x="353.5" y="445.9" class="st9" width="10.2" height="0.3"/>
<rect x="353.5" y="424.2" class="st8" width="10.2" height="1.2"/>
<rect x="353.5" y="425.4" class="st4" width="10.2" height="5.5"/>
<rect x="353.5" y="394.7" class="st6" width="10.2" height="29.5"/>
<rect x="303.1" y="440.2" class="st10" width="10.2" height="2.4"/>
<rect x="303.1" y="439.4" class="st11" width="10.2" height="0.8"/>
<rect x="303.1" y="436.9" class="st12" width="10.2" height="0.4"/>
<rect x="303.1" y="430.8" class="st5" width="10.2" height="6.1"/>
<rect x="303.1" y="404" class="st6" width="10.2" height="26.8"/>
<rect x="277.8" y="440.8" class="st10" width="10.2" height="2.6"/>
<rect x="277.8" y="439.4" class="st11" width="10.2" height="1.4"/>
<rect x="277.8" y="436" class="st12" width="10.2" height="0.9"/>
<rect x="277.8" y="430.4" class="st5" width="10.2" height="5.6"/>
<rect x="277.8" y="402.6" class="st6" width="10.2" height="27.7"/>
<rect x="252.4" y="439.4" class="st10" width="10.2" height="3.2"/>
<rect x="252.4" y="436" class="st12" width="10.2" height="0.9"/>
<rect x="252.4" y="430.9" class="st5" width="10.2" height="5.1"/>
<rect x="252.4" y="402.6" class="st6" width="10.2" height="28.2"/>
<rect x="227.9" y="439.4" class="st10" width="10.2" height="3"/>
<rect x="227.9" y="436.1" class="st13" width="10.2" height="0.5"/>
<rect x="227.9" y="430.6" class="st5" width="10.2" height="5.5"/>
<rect x="227.9" y="404.1" class="st6" width="10.2" height="26.5"/>
<rect x="202.4" y="440.3" class="st4" width="10.2" height="4.1"/>
<rect x="202.4" y="439.4" class="st1" width="10.2" height="0.9"/>
<rect x="202.4" y="435.4" class="st13" width="10.2" height="0.9"/>
<rect x="202.4" y="432.4" class="st5" width="10.2" height="2.9"/>
<rect x="202.4" y="406.8" class="st6" width="10.2" height="25.6"/>
<rect x="176.8" y="439.4" class="st4" width="10.2" height="5"/>
<rect x="176.8" y="431.5" class="st13" width="10.2" height="0.9"/>
<rect x="176.8" y="428.4" class="st5" width="10.2" height="3.1"/>
<rect x="176.8" y="406.2" class="st6" width="10.2" height="22.2"/>
<rect x="152.1" y="440.5" class="st4" width="10.2" height="6.6"/>
<rect x="152.1" y="439.4" class="st1" width="10.2" height="1.1"/>
<rect x="152.1" y="432.6" class="st13" width="10.2" height="1.5"/>
<rect x="152.1" y="429.4" class="st5" width="10.2" height="3.3"/>
<rect x="152.1" y="403.2" class="st6" width="10.2" height="26.1"/>
<rect x="126.5" y="444.7" class="st4" width="10.2" height="4"/>
<rect x="126.5" y="439.4" class="st1" width="10.2" height="5.3"/>
<rect x="126.5" y="424.8" class="st13" width="10.2" height="7.8"/>
<rect x="126.5" y="419.1" class="st5" width="10.2" height="5.7"/>
<rect x="126.5" y="400.5" class="st6" width="10.2" height="18.6"/>
<rect x="101.4" y="439.4" class="st1" width="10.2" height="17.1"/>
<rect x="101.4" y="408.9" class="st4" width="10.2" height="22.9"/>
<rect x="101.4" y="456.5" class="st5" width="10.2" height="3.2"/>
<rect x="101.4" y="405" class="st14" width="10.2" height="3.9"/>
<rect x="101.4" y="385.4" class="st6" width="10.2" height="19.6"/>
<rect x="76.4" y="439.4" class="st1" width="10.2" height="1.4"/>
<rect x="76.4" y="440.8" class="st4" width="10.2" height="2.4"/>
<rect x="76.4" y="443.2" class="st5" width="10.2" height="4.8"/>
<rect x="76.4" y="431.8" class="st2" width="10.2" height="3"/>
<rect x="76.4" y="396.6" class="st6" width="10.2" height="35.2"/>
<rect x="51.1" y="456.3" class="st4" width="10.2" height="11.1"/>
<rect x="51.1" y="467.3" class="st15" width="10.2" height="1.9"/>
<rect x="51.1" y="469.2" class="st5" width="10.2" height="2.1"/>
<rect x="51.1" y="374.6" class="st6" width="10.2" height="51.1"/>
<line class="st0" x1="18.8" y1="439.4" x2="421.4" y2="439.4"/>
<rect x="28.8" y="386" class="st16" width="4.9" height="4.9"/>
<rect x="53.6" y="403.9" class="st16" width="4.9" height="4.9"/>
<rect x="78.8" y="402.4" class="st16" width="4.9" height="4.9"/>
<rect x="104" y="402.9" class="st16" width="4.9" height="4.9"/>
<rect x="129.4" y="406.5" class="st16" width="4.9" height="4.9"/>
<rect x="154.6" y="408.2" class="st16" width="4.9" height="4.9"/>
<rect x="179.6" y="408.7" class="st16" width="4.9" height="4.9"/>
<rect x="205.2" y="409.6" class="st16" width="4.9" height="4.9"/>
<rect x="230.2" y="405.5" class="st16" width="4.9" height="4.9"/>
<rect x="255.2" y="403.1" class="st16" width="4.9" height="4.9"/>
<rect x="280.4" y="404" class="st16" width="4.9" height="4.9"/>
<rect x="305.9" y="404.5" class="st16" width="4.9" height="4.9"/>
<rect x="356.2" y="398.9" class="st16" width="4.9" height="4.9"/>
<rect x="381.4" y="408.1" class="st16" width="4.9" height="4.9"/>
<rect x="406.6" y="404.4" class="st16" width="4.9" height="4.9"/>
<polyline class="st17" points="31.2,388.5 56.1,406.4 81.3,405 106.4,405.4 131.8,408.7 157.1,411.1 182.1,411.1 207.7,412.1 
	232.7,408 257.6,405.5 282.9,406.5 308.4,407 "/>
<polyline class="st17" points="358.7,401.4 383.8,410.6 409.1,406.8 "/>
<text transform="matrix(1 0 0 1 1.5235 493.3577)" style="font-family:'SourceHanSansTW-Medium-B5pc-H'; font-size:12px;">-3</text>
<text transform="matrix(1 0 0 1 33.941 562.0629)" style="font-family:'SourceHanSansTW-Medium-B5pc-H'; font-size:12px;">個人消費資出</text>
<text transform="matrix(6.123234e-17 -1 1 6.123234e-17 33.7059 532.8742)" style="font-family:'SourceHanSansTW-Medium-B5pc-H'; font-size:12px;">1Q19A</text>
<text transform="matrix(6.123234e-17 -1 1 6.123234e-17 59.7059 532.8742)" style="font-family:'SourceHanSansTW-Medium-B5pc-H'; font-size:12px;">2Q19A</text>
<text transform="matrix(6.123234e-17 -1 1 6.123234e-17 84.8236 532.8742)" style="font-family:'SourceHanSansTW-Medium-B5pc-H'; font-size:12px;">3Q19A</text>
<text transform="matrix(6.123234e-17 -1 1 6.123234e-17 110.5878 525.4113)" style="font-family:'SourceHanSansTW-Medium-B5pc-H'; font-size:12px;">4Q19</text>
<text transform="matrix(6.123234e-17 -1 1 6.123234e-17 136.7061 525.4113)" style="font-family:'SourceHanSansTW-Medium-B5pc-H'; font-size:12px;">1Q20</text>
<text transform="matrix(6.123234e-17 -1 1 6.123234e-17 162.3528 525.4113)" style="font-family:'SourceHanSansTW-Medium-B5pc-H'; font-size:12px;">2Q20</text>
<text transform="matrix(6.123234e-17 -1 1 6.123234e-17 186.9995 525.4113)" style="font-family:'SourceHanSansTW-Medium-B5pc-H'; font-size:12px;">3Q20</text>
<text transform="matrix(6.123234e-17 -1 1 6.123234e-17 211.3239 525.4113)" style="font-family:'SourceHanSansTW-Medium-B5pc-H'; font-size:12px;">4Q20</text>
<text transform="matrix(6.123234e-17 -1 1 6.123234e-17 236.971 525.4113)" style="font-family:'SourceHanSansTW-Medium-B5pc-H'; font-size:12px;">1Q21</text>
<text transform="matrix(6.123234e-17 -1 1 6.123234e-17 262.5887 525.4113)" style="font-family:'SourceHanSansTW-Medium-B5pc-H'; font-size:12px;">2Q21</text>
<text transform="matrix(6.123234e-17 -1 1 6.123234e-17 287.0593 525.4113)" style="font-family:'SourceHanSansTW-Medium-B5pc-H'; font-size:12px;">3Q21</text>
<text transform="matrix(6.123234e-17 -1 1 6.123234e-17 313.2946 525.4113)" style="font-family:'SourceHanSansTW-Medium-B5pc-H'; font-size:12px;">4Q21</text>
<text transform="matrix(6.123234e-17 -1 1 6.123234e-17 362.471 516.7238)" style="font-family:'SourceHanSansTW-Medium-B5pc-H'; font-size:12px;">19E</text>
<text transform="matrix(6.123234e-17 -1 1 6.123234e-17 388.9122 516.7238)" style="font-family:'SourceHanSansTW-Medium-B5pc-H'; font-size:12px;">20E</text>
<text transform="matrix(6.123234e-17 -1 1 6.123234e-17 413.8825 516.7238)" style="font-family:'SourceHanSansTW-Medium-B5pc-H'; font-size:12px;">21E</text>
<text transform="matrix(1 0 0 1 1.5235 476.8874)" style="font-family:'SourceHanSansTW-Medium-B5pc-H'; font-size:12px;">-2</text>
<text transform="matrix(1 0 0 1 1.5235 460.4169)" style="font-family:'SourceHanSansTW-Medium-B5pc-H'; font-size:12px;">-1</text>
<text transform="matrix(1 0 0 1 5.8077 443.946)" style="font-family:'SourceHanSansTW-Medium-B5pc-H'; font-size:12px;">0</text>
<text transform="matrix(1 0 0 1 5.8077 427.4755)" style="font-family:'SourceHanSansTW-Medium-B5pc-H'; font-size:12px;">1</text>
<text transform="matrix(1 0 0 1 5.8077 411.005)" style="font-family:'SourceHanSansTW-Medium-B5pc-H'; font-size:12px;">2</text>
<text transform="matrix(1 0 0 1 5.8077 394.5342)" style="font-family:'SourceHanSansTW-Medium-B5pc-H'; font-size:12px;">3</text>
<text transform="matrix(1 0 0 1 5.8077 378.0636)" style="font-family:'SourceHanSansTW-Medium-B5pc-H'; font-size:12px;">4</text>
<text transform="matrix(1 0 0 1 22.1707 381.0048)" style="font-family:'SourceHanSansTW-Medium-B5pc-H'; font-size:10px;">3.1%</text>
<text transform="matrix(1 0 0 1 45.6414 369.7106)" style="font-family:'SourceHanSansTW-Medium-B5pc-H'; font-size:10px;">2.0%</text>
<text transform="matrix(1 0 0 1 70.9354 393.5343)" style="font-family:'SourceHanSansTW-Medium-B5pc-H'; font-size:10px;">2.1%</text>
<text transform="matrix(1 0 0 1 95.9944 382.7393)" style="font-family:'SourceHanSansTW-Medium-B5pc-H'; font-size:10px;">2.5%</text>
<text transform="matrix(1 0 0 1 121.2888 389.9458)" style="font-family:'SourceHanSansTW-Medium-B5pc-H'; font-size:10px;">1.8%</text>
<text transform="matrix(1 0 0 1 146.7001 398.2693)" style="font-family:'SourceHanSansTW-Medium-B5pc-H'; font-size:10px;">1.8%</text>
<text transform="matrix(1 0 0 1 171.3474 401.3873)" style="font-family:'SourceHanSansTW-Medium-B5pc-H'; font-size:10px;">1.7%</text>
<text transform="matrix(1 0 0 1 196.9354 401.3873)" style="font-family:'SourceHanSansTW-Medium-B5pc-H'; font-size:10px;">1.7%</text>
<text transform="matrix(1 0 0 1 222.1708 399.3577)" style="font-family:'SourceHanSansTW-Medium-B5pc-H'; font-size:10px;">1.9%</text>
<text transform="matrix(1 0 0 1 246.9355 393.5345)" style="font-family:'SourceHanSansTW-Medium-B5pc-H'; font-size:10px;">2.1%</text>
<text transform="matrix(1 0 0 1 272.3474 394.5345)" style="font-family:'SourceHanSansTW-Medium-B5pc-H'; font-size:10px;">2.0%</text>
<text transform="matrix(1 0 0 1 297.6413 397.1227)" style="font-family:'SourceHanSansTW-Medium-B5pc-H'; font-size:10px;">2.0%</text>
<text transform="matrix(1 0 0 1 348.1118 391.3136)" style="font-family:'SourceHanSansTW-Medium-B5pc-H'; font-size:10px;">2.3%</text>
<text transform="matrix(1 0 0 1 373.2881 399.3576)" style="font-family:'SourceHanSansTW-Medium-B5pc-H'; font-size:10px;">1.8%</text>
<text transform="matrix(1 0 0 1 398.5239 395.8282)" style="font-family:'SourceHanSansTW-Medium-B5pc-H'; font-size:10px;">2.0%</text>
<text transform="matrix(1 0 0 1 69.5557 349.4786)" style="font-family:'SourceHanSansTW-Bold-B5pc-H'; font-size:17px;">美國實質GDP成長率及其貢獻來源(%)</text>
<rect x="10.1" y="553.6" class="st6" width="18.4" height="8.5"/>
<text transform="matrix(1 0 0 1 160.5 562.0629)" style="font-family:'SourceHanSansTW-Medium-B5pc-H'; font-size:12px;">企業固定投資</text>
<rect x="136.7" y="553.6" class="st5" width="18.4" height="8.5"/>
<text transform="matrix(1 0 0 1 276.1471 562.0629)" style="font-family:'SourceHanSansTW-Medium-B5pc-H'; font-size:12px;">住宅投資</text>
<rect x="252.4" y="553.6" class="st2" width="18.4" height="8.5"/>
<text transform="matrix(1 0 0 1 367.0734 562.0629)" style="font-family:'SourceHanSansTW-Medium-B5pc-H'; font-size:12px;">淨出口</text>
<rect x="343.3" y="553.6" class="st4" width="18.4" height="8.5"/>
<text transform="matrix(1 0 0 1 33.941 584.2982)" style="font-family:'SourceHanSansTW-Medium-B5pc-H'; font-size:12px;">政府</text>
<rect x="10.1" y="575.8" class="st3" width="18.4" height="8.5"/>
<text transform="matrix(1 0 0 1 160.5 584.2982)" style="font-family:'SourceHanSansTW-Medium-B5pc-H'; font-size:12px;">庫存變動</text>
<rect x="136.7" y="575.8" class="st1" width="18.4" height="8.5"/>
<text transform="matrix(1 0 0 1 276.1471 584.2982)" style="font-family:'SourceHanSansTW-Medium-B5pc-H'; font-size:12px;">實質GDP</text>
<rect x="252.4" y="575.8" class="st16" width="18.4" height="8.5"/>
<line class="st0" x1="18.8" y1="40.4" x2="18.8" y2="155.2"/>
<line class="st0" x1="337.4" y1="24.9" x2="337.4" y2="192.6"/>
<rect x="25.7" y="97.3" class="st1" width="10.2" height="8.6"/>
<rect x="25.7" y="105.8" class="st2" width="10.2" height="0.9"/>
<rect x="25.7" y="88.8" class="st3" width="10.2" height="8.4"/>
<rect x="25.7" y="77.1" class="st4" width="10.2" height="11.7"/>
<rect x="25.7" y="66.9" class="st5" width="10.2" height="10.2"/>
<rect x="25.7" y="54.2" class="st6" width="10.2" height="12.6"/>
<rect x="51.1" y="105.8" class="st1" width="10.2" height="16.9"/>
<rect x="51.1" y="92.2" class="st3" width="10.2" height="13.6"/>
<rect x="76.4" y="101.1" class="st3" width="10.2" height="4.7"/>
<rect x="101.4" y="98.2" class="st3" width="10.2" height="7.6"/>
<rect x="126.5" y="99" class="st3" width="10.2" height="6.8"/>
<rect x="152.1" y="100.6" class="st3" width="10.2" height="5.2"/>
<rect x="176.8" y="98.8" class="st3" width="10.2" height="7"/>
<rect x="202.4" y="102.7" class="st3" width="10.2" height="3.2"/>
<rect x="227.9" y="103" class="st3" width="10.2" height="2.8"/>
<rect x="252.4" y="103.3" class="st3" width="10.2" height="2.5"/>
<rect x="277.8" y="103.3" class="st3" width="10.2" height="2.5"/>
<rect x="303.1" y="103.7" class="st3" width="10.2" height="2.2"/>
<rect x="353.5" y="97.3" class="st3" width="10.2" height="8.6"/>
<rect x="378.7" y="100.3" class="st3" width="10.2" height="5.6"/>
<rect x="403.6" y="103.4" class="st3" width="10.2" height="2.4"/>
<rect x="403.6" y="105.8" class="st4" width="10.2" height="3.2"/>
<rect x="403.6" y="102.7" class="st7" width="10.2" height="0.7"/>
<rect x="403.6" y="97.6" class="st5" width="10.2" height="5.1"/>
<rect x="403.6" y="70.2" class="st6" width="10.2" height="27.4"/>
<rect x="378.7" y="105.8" class="st1" width="10.2" height="1.8"/>
<rect x="378.7" y="107.6" class="st4" width="10.2" height="5"/>
<rect x="378.7" y="97.6" class="st8" width="10.2" height="2.7"/>
<rect x="378.7" y="93.7" class="st9" width="10.2" height="4"/>
<rect x="378.7" y="70.8" class="st6" width="10.2" height="22.8"/>
<rect x="353.5" y="105.8" class="st1" width="10.2" height="6.5"/>
<rect x="353.5" y="112.3" class="st9" width="10.2" height="0.3"/>
<rect x="353.5" y="90.6" class="st8" width="10.2" height="1.2"/>
<rect x="353.5" y="91.8" class="st4" width="10.2" height="5.5"/>
<rect x="353.5" y="61.2" class="st6" width="10.2" height="29.5"/>
<rect x="303.1" y="106.7" class="st10" width="10.2" height="2.4"/>
<rect x="303.1" y="105.8" class="st11" width="10.2" height="0.8"/>
<rect x="303.1" y="103.3" class="st12" width="10.2" height="0.4"/>
<rect x="303.1" y="97.2" class="st5" width="10.2" height="6.1"/>
<rect x="303.1" y="70.4" class="st6" width="10.2" height="26.8"/>
<rect x="277.8" y="107.2" class="st10" width="10.2" height="2.6"/>
<rect x="277.8" y="105.8" class="st11" width="10.2" height="1.4"/>
<rect x="277.8" y="102.4" class="st12" width="10.2" height="0.9"/>
<rect x="277.8" y="96.8" class="st5" width="10.2" height="5.6"/>
<rect x="277.8" y="69" class="st6" width="10.2" height="27.7"/>
<rect x="252.4" y="105.8" class="st10" width="10.2" height="3.2"/>
<rect x="252.4" y="102.4" class="st12" width="10.2" height="0.9"/>
<rect x="252.4" y="97.3" class="st5" width="10.2" height="5.1"/>
<rect x="252.4" y="69" class="st6" width="10.2" height="28.2"/>
<rect x="227.9" y="105.8" class="st10" width="10.2" height="3"/>
<rect x="227.9" y="102.5" class="st13" width="10.2" height="0.5"/>
<rect x="227.9" y="97" class="st5" width="10.2" height="5.5"/>
<rect x="227.9" y="70.5" class="st6" width="10.2" height="26.5"/>
<rect x="202.4" y="106.7" class="st4" width="10.2" height="4.1"/>
<rect x="202.4" y="105.8" class="st1" width="10.2" height="0.9"/>
<rect x="202.4" y="101.8" class="st13" width="10.2" height="0.9"/>
<rect x="202.4" y="98.8" class="st5" width="10.2" height="2.9"/>
<rect x="202.4" y="73.2" class="st6" width="10.2" height="25.6"/>
<rect x="176.8" y="105.8" class="st4" width="10.2" height="5"/>
<rect x="176.8" y="97.9" class="st13" width="10.2" height="0.9"/>
<rect x="176.8" y="94.8" class="st5" width="10.2" height="3.1"/>
<rect x="176.8" y="72.6" class="st6" width="10.2" height="22.2"/>
<rect x="152.1" y="106.9" class="st4" width="10.2" height="6.6"/>
<rect x="152.1" y="105.8" class="st1" width="10.2" height="1.1"/>
<rect x="152.1" y="99" class="st13" width="10.2" height="1.5"/>
<rect x="152.1" y="95.8" class="st5" width="10.2" height="3.3"/>
<rect x="152.1" y="69.6" class="st6" width="10.2" height="26.1"/>
<rect x="126.5" y="111.1" class="st4" width="10.2" height="4"/>
<rect x="126.5" y="105.8" class="st1" width="10.2" height="5.3"/>
<rect x="126.5" y="91.2" class="st13" width="10.2" height="7.8"/>
<rect x="126.5" y="85.5" class="st5" width="10.2" height="5.7"/>
<rect x="126.5" y="66.9" class="st6" width="10.2" height="18.6"/>
<rect x="101.4" y="105.8" class="st1" width="10.2" height="17.1"/>
<rect x="101.4" y="75.3" class="st4" width="10.2" height="22.9"/>
<rect x="101.4" y="122.9" class="st5" width="10.2" height="3.2"/>
<rect x="101.4" y="71.4" class="st14" width="10.2" height="3.9"/>
<rect x="101.4" y="51.8" class="st6" width="10.2" height="19.6"/>
<rect x="76.4" y="105.8" class="st1" width="10.2" height="1.4"/>
<rect x="76.4" y="107.2" class="st4" width="10.2" height="2.4"/>
<rect x="76.4" y="109.6" class="st5" width="10.2" height="4.8"/>
<rect x="76.4" y="98.2" class="st2" width="10.2" height="3"/>
<rect x="76.4" y="63" class="st6" width="10.2" height="35.2"/>
<rect x="51.1" y="122.7" class="st4" width="10.2" height="11.1"/>
<rect x="51.1" y="133.7" class="st15" width="10.2" height="1.9"/>
<rect x="51.1" y="135.6" class="st5" width="10.2" height="2.1"/>
<rect x="51.1" y="41" class="st6" width="10.2" height="51.1"/>
<line class="st0" x1="18.8" y1="105.8" x2="421.4" y2="105.8"/>
<rect x="28.8" y="52.4" class="st16" width="4.9" height="4.9"/>
<rect x="53.6" y="70.3" class="st16" width="4.9" height="4.9"/>
<rect x="78.8" y="68.8" class="st16" width="4.9" height="4.9"/>
<rect x="104" y="69.3" class="st16" width="4.9" height="4.9"/>
<rect x="129.4" y="72.9" class="st16" width="4.9" height="4.9"/>
<rect x="154.6" y="74.6" class="st16" width="4.9" height="4.9"/>
<rect x="179.6" y="75.1" class="st16" width="4.9" height="4.9"/>
<rect x="205.2" y="76" class="st16" width="4.9" height="4.9"/>
<rect x="230.2" y="71.9" class="st16" width="4.9" height="4.9"/>
<rect x="255.2" y="69.5" class="st16" width="4.9" height="4.9"/>
<rect x="280.4" y="70.4" class="st16" width="4.9" height="4.9"/>
<rect x="305.9" y="70.9" class="st16" width="4.9" height="4.9"/>
<rect x="356.2" y="65.3" class="st16" width="4.9" height="4.9"/>
<rect x="381.4" y="74.5" class="st16" width="4.9" height="4.9"/>
<rect x="406.6" y="70.8" class="st16" width="4.9" height="4.9"/>
<polyline class="st17" points="31.2,54.9 56.1,72.8 81.3,71.4 106.4,71.8 131.8,75.1 157.1,77.5 182.1,77.5 207.7,78.5 232.7,74.4 
	257.6,71.9 282.9,72.9 308.4,73.4 "/>
<polyline class="st17" points="358.7,67.8 383.8,77 409.1,73.2 "/>
<g class="st18">
	<path d="M2.1,155.9h3.2v1H2.1V155.9z"/>
	<path d="M6.1,158.7l0.7-0.9c0.5,0.5,1.2,1,2.1,1c1,0,1.7-0.6,1.7-1.5c0-1-0.6-1.6-2.6-1.6v-1c1.7,0,2.3-0.7,2.3-1.5
		c0-0.8-0.5-1.3-1.4-1.3c-0.7,0-1.3,0.3-1.8,0.8l-0.7-0.9c0.7-0.6,1.5-1.1,2.5-1.1c1.6,0,2.7,0.8,2.7,2.3c0,1-0.6,1.7-1.5,2.1v0.1
		c1,0.3,1.8,1,1.8,2.2c0,1.6-1.3,2.5-3,2.5C7.6,159.9,6.7,159.4,6.1,158.7z"/>
</g>
<g class="st18">
	<path d="M37.7,218.8c-0.3,0.8-0.6,1.6-0.9,2.3v8.4h-1.1V223c-0.3,0.5-0.6,0.9-1,1.3c-0.1-0.3-0.4-0.9-0.6-1.2c1-1.1,2-2.9,2.5-4.6
		L37.7,218.8z M45.1,219.1v10.2H44v-0.6h-4.9v0.7h-1v-10.3H45.1z M44,227.7v-7.7h-4.9v7.7H44z M42,222.5v1.2h1.3v3.2h-3.4v-3.2h1.2
		v-1.2h-1.6v-0.8h1.6v-1.3H42v1.3h1.7v0.8H42z M42.4,224.5h-1.7v1.6h1.7V224.5z"/>
	<path d="M52.5,218.4c0,0.5,0,1.1-0.1,1.8c0.2,1.5,0.9,6.3,5.1,8.1c-0.3,0.3-0.7,0.6-0.8,0.9c-2.8-1.3-4.1-4-4.8-6.1
		c-0.6,2.3-1.9,4.7-4.6,6.2c-0.2-0.3-0.6-0.6-0.9-0.9c4.9-2.5,4.8-8.1,4.8-10.1H52.5z"/>
	<path d="M60.6,223.9c-0.5-0.3-1.5-0.9-2.2-1.3l0.6-0.8c0.7,0.3,1.7,0.9,2.2,1.2L60.6,223.9z M61.9,225.5c-0.6,1.2-1.4,2.7-2.1,3.8
		l-1-0.7c0.6-0.9,1.6-2.4,2.3-3.8L61.9,225.5z M61.2,220.8c-0.5-0.4-1.5-1-2.1-1.4l0.6-0.8c0.7,0.4,1.7,0.9,2.2,1.3L61.2,220.8z
		 M68.8,228.1c0,0.6-0.1,0.9-0.5,1.1c-0.4,0.2-1,0.2-1.9,0.2c0-0.3-0.2-0.8-0.3-1c0.6,0,1.3,0,1.4,0c0.2,0,0.2-0.1,0.2-0.2v-2
		c-1.3,0.3-2.7,0.7-3.8,0.9l-0.3-0.9c1-0.2,2.6-0.6,4.1-0.9v-2.4h-4.2v2.4c0,1.3-0.1,3.1-0.8,4.3c-0.2-0.2-0.6-0.5-0.9-0.6
		c0.6-1,0.6-2.5,0.6-3.6v-3.4h2.6v-3.4h1.1v3.4h2.6V228.1z M63.3,221.4c-0.2-0.6-0.6-1.5-1.1-2.2l0.9-0.4c0.5,0.7,1,1.6,1.2,2.2
		L63.3,221.4z M64.2,223.4c1,0.2,2.2,0.6,2.9,1l-0.5,0.8c-0.6-0.4-1.9-0.8-2.9-1.1L64.2,223.4z M69.2,219.1
		c-0.4,0.8-0.9,1.7-1.3,2.2l-1-0.4c0.4-0.6,0.9-1.6,1.2-2.3L69.2,219.1z"/>
	<path d="M78.2,227.6c1.1,0.3,2.3,0.8,3,1.1l-0.8,0.7c-0.8-0.4-2.1-0.9-3.5-1.3l0.5-0.4h-3.2l0.9,0.4c-1,0.6-2.5,1.1-3.7,1.4
		c-0.2-0.2-0.6-0.6-0.8-0.8c1.2-0.2,2.5-0.6,3.4-1h-1.8V224c-0.3,0.1-0.6,0.2-1,0.2c-0.1-0.3-0.4-0.7-0.5-0.9c1.5-0.2,2.3-0.6,2.8-1
		h-2c0.1-0.6,0.3-1.4,0.3-2h2.3v-0.6h-2.8V219h2.8v-0.6h1v0.6h1.6v-0.6h1.1v0.6h2.6v2h-2.6v0.6h3.4c0,0,0,0.2,0,0.3
		c-0.1,0.7-0.1,1.1-0.3,1.2c-0.2,0.2-0.4,0.2-0.6,0.2c-0.1,0-0.2,0-0.3,0v4.2H78.2z M72.7,221c0,0.2-0.1,0.4-0.1,0.6h1.4
		c0.1-0.2,0.1-0.4,0.1-0.6H72.7z M78.8,223.8h-5.6v0.6h5.6V223.8z M78.8,225.1h-5.6v0.6h5.6V225.1z M73.2,227h5.6v-0.6h-5.6V227z
		 M74.8,222.3c-0.2,0.3-0.4,0.6-0.7,0.8h2.7v-0.8H74.8z M76.7,221h-1.6c0,0.2,0,0.4-0.1,0.6h1.7V221z M75.1,220.3h1.6v-0.6h-1.6
		V220.3z M77.8,219.7v0.6h1.6v-0.6H77.8z M77.8,222.3v0.8h1.3c0-0.1-0.1-0.3-0.1-0.4c0.3,0,0.6,0,0.7,0c0.1,0,0.2,0,0.3-0.1
		c0-0.1,0.1-0.2,0.1-0.4H77.8z"/>
	<path d="M89.9,220.2c0,0.1,0,0.2,0,0.3c0.6,0.7,1.9,1.1,3.5,1.2c-0.2,0.2-0.5,0.6-0.6,0.9c-1.4-0.2-2.5-0.6-3.2-1.3
		c-0.4,0.6-1.4,1.1-3.4,1.4c-0.1-0.3-0.4-0.6-0.6-0.8h-3v-0.9H86v0.8c2.6-0.3,2.9-1,2.9-1.5V220h-1c-0.3,0.4-0.6,0.8-0.9,1.1
		c-0.2-0.2-0.6-0.4-0.8-0.6c0.6-0.5,1.1-1.4,1.4-2.2l1,0.2c-0.1,0.2-0.1,0.4-0.2,0.6h3.7l0.2,0l0.8,0.3c-0.3,0.6-0.7,1.3-1,1.8
		l-0.9-0.3c0.2-0.2,0.3-0.5,0.5-0.8h-1.7V220.2z M89.8,227.5c1.2,0.4,2.6,0.9,3.4,1.3l-1,0.6c-0.7-0.4-2-0.9-3.2-1.4l0.7-0.6h-3.6
		l1,0.5c-1,0.6-2.5,1.2-3.7,1.5c-0.2-0.2-0.6-0.6-0.8-0.8c1.2-0.2,2.6-0.6,3.5-1.1h-1.9v-4.8h7.8v4.8H89.8z M85.7,219.9h-2.9v-0.8
		h2.9V219.9z M85.2,224h5.6v-0.7h-5.6V224z M85.2,225.4h5.6v-0.7h-5.6V225.4z M85.2,226.8h5.6v-0.7h-5.6V226.8z"/>
	<path d="M104.7,224.3v5.1h-1.2v-0.7h-8.3v-4.4h1.2v3.3h2.9v-4h-3.6v-4.2h1.2v3.1h2.4v-4.2h1.2v4.2h2.5v-3.1h1.2v4.2h-3.7v4h2.9
		v-3.3H104.7z"/>
</g>
<g class="st18">
	<path d="M32.6,198.3v-1.9h-6.1v1.6h-0.9c-0.2-0.8-0.4-1.4-0.7-1.9v-1h7.7v-1.7h1.1v5H32.6z"/>
	<path d="M35.8,183.8c0.1,0.3,0.2,0.8,0.2,1.4c0,1.7-0.9,2.9-2.2,3.4c-0.3,1.9-2,3.2-4.6,3.2c-2.8,0-4.5-1.6-4.5-3.8
		s1.7-3.8,4.5-3.8c2.5,0,4.1,1.2,4.5,3c0.7-0.4,1.1-1.2,1.1-2.1c0-0.4-0.1-0.7-0.1-0.9L35.8,183.8z M32.7,187.9
		c0-1.5-1.3-2.4-3.5-2.4c-2.1,0-3.3,1-3.3,2.4s1.3,2.4,3.3,2.4C31.4,190.3,32.7,189.4,32.7,187.9z"/>
	<path d="M32.6,182.4v-1.9h-6.1v1.6h-0.9c-0.2-0.8-0.4-1.4-0.7-1.9v-1h7.7v-1.7h1.1v5H32.6z"/>
	<path d="M32.1,175.2c0.4-0.3,0.7-0.9,0.7-1.5c0-1.1-0.9-2-3.4-2.1c0.6,0.5,1,1.3,1,1.9c0,1.5-0.9,2.5-2.8,2.5
		c-1.8,0-2.9-1.2-2.9-2.6c0-1.7,1.4-3.1,4.3-3.1c3.5,0,4.9,1.6,4.9,3.3c0,1-0.4,1.7-0.9,2.3L32.1,175.2z M28.3,171.7
		c-1.7,0.1-2.5,0.8-2.5,1.8c0,0.8,0.7,1.4,1.8,1.4c1.1,0,1.8-0.5,1.8-1.4C29.4,172.8,29.1,172.2,28.3,171.7z"/>
	<path d="M31.2,164.5v3.1l2.5,0.8v1.4l-8.8-2.9v-1.6l8.8-2.9v1.5L31.2,164.5z M30.1,164.8l-1.2,0.3c-1,0.3-1.9,0.6-2.9,0.8v0
		c1,0.3,2,0.5,2.9,0.8l1.2,0.4V164.8z"/>
</g>
<g class="st18">
	<path d="M58.9,198.8c-2.3-2.6-4-3.9-5.5-3.9c-1,0-1.6,0.5-1.6,1.5c0,0.7,0.4,1.3,1,1.7l-0.8,0.8c-0.8-0.8-1.3-1.5-1.3-2.7
		c0-1.6,1.1-2.7,2.7-2.7c1.7,0,3.5,1.4,5.3,3.2c0-0.5-0.1-1-0.1-1.4v-2.2h1.2v5.7H58.9z"/>
	<path d="M61.8,183.8c0.1,0.3,0.2,0.8,0.2,1.4c0,1.7-0.9,2.9-2.2,3.4c-0.3,1.9-2,3.2-4.6,3.2c-2.8,0-4.5-1.6-4.5-3.8
		s1.7-3.8,4.5-3.8c2.5,0,4.1,1.2,4.5,3c0.7-0.4,1.1-1.2,1.1-2.1c0-0.4-0.1-0.7-0.1-0.9L61.8,183.8z M58.7,187.9
		c0-1.5-1.3-2.4-3.5-2.4c-2.1,0-3.3,1-3.3,2.4s1.3,2.4,3.3,2.4C57.4,190.3,58.7,189.4,58.7,187.9z"/>
	<path d="M58.6,182.4v-1.9h-6.1v1.6h-0.9c-0.2-0.8-0.4-1.4-0.7-1.9v-1h7.7v-1.7h1.1v5H58.6z"/>
	<path d="M58.1,175.2c0.4-0.3,0.7-0.9,0.7-1.5c0-1.1-0.9-2-3.4-2.1c0.6,0.5,1,1.3,1,1.9c0,1.5-0.9,2.5-2.8,2.5
		c-1.8,0-2.9-1.2-2.9-2.6c0-1.7,1.4-3.1,4.3-3.1c3.5,0,4.9,1.6,4.9,3.3c0,1-0.4,1.7-0.9,2.3L58.1,175.2z M54.3,171.7
		c-1.7,0.1-2.5,0.8-2.5,1.8c0,0.8,0.7,1.4,1.8,1.4c1.1,0,1.8-0.5,1.8-1.4C55.4,172.8,55.1,172.2,54.3,171.7z"/>
	<path d="M57.2,164.5v3.1l2.5,0.8v1.4l-8.8-2.9v-1.6l8.8-2.9v1.5L57.2,164.5z M56.1,164.8l-1.2,0.3c-1,0.3-1.9,0.6-2.9,0.8v0
		c1,0.3,2,0.5,2.9,0.8l1.2,0.4V164.8z"/>
</g>
<g class="st18">
	<path d="M83.8,198.9l-0.9-0.7c0.5-0.5,1-1.2,1-2.1c0-1-0.6-1.7-1.5-1.7c-1,0-1.6,0.6-1.6,2.6h-1c0-1.7-0.7-2.3-1.5-2.3
		c-0.8,0-1.3,0.5-1.3,1.4c0,0.7,0.3,1.3,0.8,1.8l-0.9,0.7c-0.6-0.7-1.1-1.5-1.1-2.5c0-1.6,0.8-2.7,2.3-2.7c1,0,1.7,0.6,2.1,1.5h0.1
		c0.3-1,1-1.8,2.2-1.8c1.6,0,2.5,1.3,2.5,2.9C85,197.5,84.4,198.4,83.8,198.9z"/>
	<path d="M86.9,183.8c0.1,0.3,0.2,0.8,0.2,1.4c0,1.7-0.9,2.9-2.2,3.4c-0.3,1.9-2,3.2-4.6,3.2c-2.8,0-4.5-1.6-4.5-3.8
		s1.7-3.8,4.5-3.8c2.5,0,4.1,1.2,4.5,3c0.7-0.4,1.1-1.2,1.1-2.1c0-0.4-0.1-0.7-0.1-0.9L86.9,183.8z M83.8,187.9
		c0-1.5-1.3-2.4-3.5-2.4c-2.1,0-3.3,1-3.3,2.4s1.3,2.4,3.3,2.4C82.5,190.3,83.8,189.4,83.8,187.9z"/>
	<path d="M83.7,182.4v-1.9h-6.1v1.6h-0.9c-0.2-0.8-0.4-1.4-0.7-1.9v-1h7.7v-1.7h1.1v5H83.7z"/>
	<path d="M83.2,175.2c0.4-0.3,0.7-0.9,0.7-1.5c0-1.1-0.9-2-3.4-2.1c0.6,0.5,1,1.3,1,1.9c0,1.5-0.9,2.5-2.8,2.5
		c-1.8,0-2.9-1.2-2.9-2.6c0-1.7,1.4-3.1,4.3-3.1c3.5,0,4.9,1.6,4.9,3.3c0,1-0.4,1.7-0.9,2.3L83.2,175.2z M79.4,171.7
		c-1.7,0.1-2.5,0.8-2.5,1.8c0,0.8,0.7,1.4,1.8,1.4c1.1,0,1.8-0.5,1.8-1.4C80.5,172.8,80.2,172.2,79.4,171.7z"/>
	<path d="M82.3,164.5v3.1l2.5,0.8v1.4l-8.8-2.9v-1.6l8.8-2.9v1.5L82.3,164.5z M81.2,164.8l-1.2,0.3c-1,0.3-1.9,0.6-2.9,0.8v0
		c1,0.3,2,0.5,2.9,0.8l1.2,0.4V164.8z"/>
</g>
<g class="st18">
	<path d="M108.2,185.3v1.1h2.4v1.3h-2.4v3.8h-0.9l-5.5-3.5v-1.6h5.4v-1.1H108.2z M107.1,187.8h-2.3c-0.5,0-1.2,0-1.7-0.1v0
		c0.4,0.2,0.9,0.5,1.4,0.7l2.7,1.7V187.8z"/>
	<path d="M112.7,176.3c0.1,0.3,0.2,0.8,0.2,1.4c0,1.7-0.9,2.9-2.2,3.4c-0.3,1.9-2,3.2-4.6,3.2c-2.8,0-4.5-1.6-4.5-3.8
		s1.7-3.8,4.5-3.8c2.5,0,4.1,1.2,4.5,3c0.7-0.4,1.1-1.2,1.1-2.1c0-0.4-0.1-0.7-0.1-0.9L112.7,176.3z M109.6,180.5
		c0-1.5-1.3-2.4-3.5-2.4c-2.1,0-3.3,1-3.3,2.4s1.3,2.4,3.3,2.4C108.3,182.9,109.6,181.9,109.6,180.5z"/>
	<path d="M109.4,174.9V173h-6.1v1.6h-0.9c-0.2-0.8-0.4-1.4-0.7-1.9v-1h7.7v-1.7h1.1v5H109.4z"/>
	<path d="M109,167.7c0.4-0.3,0.7-0.9,0.7-1.5c0-1.1-0.9-2-3.4-2.1c0.6,0.5,1,1.3,1,1.9c0,1.5-0.9,2.5-2.8,2.5
		c-1.8,0-2.9-1.2-2.9-2.6c0-1.7,1.4-3.1,4.3-3.1c3.5,0,4.9,1.6,4.9,3.3c0,1-0.4,1.7-0.9,2.3L109,167.7z M105.2,164.2
		c-1.7,0.1-2.5,0.8-2.5,1.8c0,0.8,0.7,1.4,1.8,1.4c1.1,0,1.8-0.5,1.8-1.4C106.3,165.3,106,164.7,105.2,164.2z"/>
</g>
<g class="st18">
	<path d="M135.6,190.8v-1.9h-6.1v1.6h-0.9c-0.2-0.8-0.4-1.4-0.7-1.9v-1h7.7v-1.7h1.1v5H135.6z"/>
	<path d="M138.8,176.3c0.1,0.3,0.2,0.8,0.2,1.4c0,1.7-0.9,2.9-2.2,3.4c-0.3,1.9-2,3.2-4.6,3.2c-2.8,0-4.5-1.6-4.5-3.8
		s1.7-3.8,4.5-3.8c2.5,0,4.1,1.2,4.5,3c0.7-0.4,1.1-1.2,1.1-2.1c0-0.4-0.1-0.7-0.1-0.9L138.8,176.3z M135.7,180.5
		c0-1.5-1.3-2.4-3.5-2.4c-2.1,0-3.3,1-3.3,2.4s1.3,2.4,3.3,2.4C134.4,182.9,135.7,181.9,135.7,180.5z"/>
	<path d="M135.9,175.4c-2.3-2.6-4-3.9-5.5-3.9c-1,0-1.6,0.5-1.6,1.5c0,0.7,0.4,1.3,1,1.7l-0.8,0.8c-0.8-0.8-1.3-1.5-1.3-2.7
		c0-1.6,1.1-2.7,2.7-2.7c1.7,0,3.5,1.4,5.3,3.2c0-0.5-0.1-1-0.1-1.4v-2.2h1.2v5.7H135.9z"/>
	<path d="M132.3,168.5c-3.1,0-4.5-1.1-4.5-2.9c0-1.7,1.5-2.9,4.5-2.9c3.1,0,4.6,1.1,4.6,2.9C136.9,167.4,135.3,168.5,132.3,168.5z
		 M132.3,164.1c-2.5,0-3.5,0.6-3.5,1.5s0.9,1.5,3.5,1.5c2.6,0,3.5-0.6,3.5-1.5S134.8,164.1,132.3,164.1z"/>
</g>
<g class="st18">
	<path d="M161.5,191.3c-2.3-2.6-4-3.9-5.5-3.9c-1,0-1.6,0.5-1.6,1.5c0,0.7,0.4,1.3,1,1.7l-0.8,0.8c-0.8-0.8-1.3-1.5-1.3-2.7
		c0-1.6,1.1-2.7,2.7-2.7c1.7,0,3.5,1.4,5.3,3.2c0-0.5-0.1-1-0.1-1.4v-2.2h1.2v5.7H161.5z"/>
	<path d="M164.4,176.3c0.1,0.3,0.2,0.8,0.2,1.4c0,1.7-0.9,2.9-2.2,3.4c-0.3,1.9-2,3.2-4.6,3.2c-2.8,0-4.5-1.6-4.5-3.8
		s1.7-3.8,4.5-3.8c2.5,0,4.1,1.2,4.5,3c0.7-0.4,1.1-1.2,1.1-2.1c0-0.4-0.1-0.7-0.1-0.9L164.4,176.3z M161.4,180.5
		c0-1.5-1.3-2.4-3.5-2.4c-2.1,0-3.3,1-3.3,2.4s1.3,2.4,3.3,2.4C160,182.9,161.4,181.9,161.4,180.5z"/>
	<path d="M161.5,175.4c-2.3-2.6-4-3.9-5.5-3.9c-1,0-1.6,0.5-1.6,1.5c0,0.7,0.4,1.3,1,1.7l-0.8,0.8c-0.8-0.8-1.3-1.5-1.3-2.7
		c0-1.6,1.1-2.7,2.7-2.7c1.7,0,3.5,1.4,5.3,3.2c0-0.5-0.1-1-0.1-1.4v-2.2h1.2v5.7H161.5z"/>
	<path d="M157.9,168.5c-3.1,0-4.5-1.1-4.5-2.9c0-1.7,1.5-2.9,4.5-2.9c3.1,0,4.6,1.1,4.6,2.9C162.5,167.4,161,168.5,157.9,168.5z
		 M157.9,164.1c-2.5,0-3.5,0.6-3.5,1.5s0.9,1.5,3.5,1.5c2.6,0,3.5-0.6,3.5-1.5S160.5,164.1,157.9,164.1z"/>
</g>
<g class="st18">
	<path d="M185.9,191.5l-0.9-0.7c0.5-0.5,1-1.2,1-2.1c0-1-0.6-1.7-1.5-1.7c-1,0-1.6,0.6-1.6,2.6h-1c0-1.7-0.7-2.3-1.5-2.3
		c-0.8,0-1.3,0.5-1.3,1.4c0,0.7,0.3,1.3,0.8,1.8l-0.9,0.7c-0.6-0.7-1.1-1.5-1.1-2.5c0-1.6,0.8-2.7,2.3-2.7c1,0,1.7,0.6,2.1,1.5h0.1
		c0.3-1,1-1.8,2.2-1.8c1.6,0,2.5,1.3,2.5,2.9C187.2,190,186.6,190.9,185.9,191.5z"/>
	<path d="M189.1,176.3c0.1,0.3,0.2,0.8,0.2,1.4c0,1.7-0.9,2.9-2.2,3.4c-0.3,1.9-2,3.2-4.6,3.2c-2.8,0-4.5-1.6-4.5-3.8
		s1.7-3.8,4.5-3.8c2.5,0,4.1,1.2,4.5,3c0.7-0.4,1.1-1.2,1.1-2.1c0-0.4-0.1-0.7-0.1-0.9L189.1,176.3z M186,180.5
		c0-1.5-1.3-2.4-3.5-2.4c-2.1,0-3.3,1-3.3,2.4s1.3,2.4,3.3,2.4C184.7,182.9,186,181.9,186,180.5z"/>
	<path d="M186.2,175.4c-2.3-2.6-4-3.9-5.5-3.9c-1,0-1.6,0.5-1.6,1.5c0,0.7,0.4,1.3,1,1.7l-0.8,0.8c-0.8-0.8-1.3-1.5-1.3-2.7
		c0-1.6,1.1-2.7,2.7-2.7c1.7,0,3.5,1.4,5.3,3.2c0-0.5-0.1-1-0.1-1.4v-2.2h1.2v5.7H186.2z"/>
	<path d="M182.6,168.5c-3.1,0-4.5-1.1-4.5-2.9c0-1.7,1.5-2.9,4.5-2.9c3.1,0,4.6,1.1,4.6,2.9C187.2,167.4,185.6,168.5,182.6,168.5z
		 M182.6,164.1c-2.5,0-3.5,0.6-3.5,1.5s0.9,1.5,3.5,1.5c2.6,0,3.5-0.6,3.5-1.5S185.1,164.1,182.6,164.1z"/>
</g>
<g class="st18">
	<path d="M208.9,185.3v1.1h2.4v1.3h-2.4v3.8H208l-5.5-3.5v-1.6h5.4v-1.1H208.9z M207.9,187.8h-2.3c-0.5,0-1.2,0-1.7-0.1v0
		c0.4,0.2,0.9,0.5,1.4,0.7l2.7,1.7V187.8z"/>
	<path d="M213.4,176.3c0.1,0.3,0.2,0.8,0.2,1.4c0,1.7-0.9,2.9-2.2,3.4c-0.3,1.9-2,3.2-4.6,3.2c-2.8,0-4.5-1.6-4.5-3.8
		s1.7-3.8,4.5-3.8c2.5,0,4.1,1.2,4.5,3c0.7-0.4,1.1-1.2,1.1-2.1c0-0.4-0.1-0.7-0.1-0.9L213.4,176.3z M210.3,180.5
		c0-1.5-1.3-2.4-3.5-2.4c-2.1,0-3.3,1-3.3,2.4s1.3,2.4,3.3,2.4C209,182.9,210.3,181.9,210.3,180.5z"/>
	<path d="M210.5,175.4c-2.3-2.6-4-3.9-5.5-3.9c-1,0-1.6,0.5-1.6,1.5c0,0.7,0.4,1.3,1,1.7l-0.8,0.8c-0.8-0.8-1.3-1.5-1.3-2.7
		c0-1.6,1.1-2.7,2.7-2.7c1.7,0,3.5,1.4,5.3,3.2c0-0.5-0.1-1-0.1-1.4v-2.2h1.2v5.7H210.5z"/>
	<path d="M206.9,168.5c-3.1,0-4.5-1.1-4.5-2.9c0-1.7,1.5-2.9,4.5-2.9c3.1,0,4.6,1.1,4.6,2.9C211.5,167.4,209.9,168.5,206.9,168.5z
		 M206.9,164.1c-2.5,0-3.5,0.6-3.5,1.5s0.9,1.5,3.5,1.5c2.6,0,3.5-0.6,3.5-1.5S209.4,164.1,206.9,164.1z"/>
</g>
<g class="st18">
	<path d="M235.8,190.8v-1.9h-6.1v1.6h-0.9c-0.2-0.8-0.4-1.4-0.7-1.9v-1h7.7v-1.7h1.1v5H235.8z"/>
	<path d="M239,176.3c0.1,0.3,0.2,0.8,0.2,1.4c0,1.7-0.9,2.9-2.2,3.4c-0.3,1.9-2,3.2-4.6,3.2c-2.8,0-4.5-1.6-4.5-3.8s1.7-3.8,4.5-3.8
		c2.5,0,4.1,1.2,4.5,3c0.7-0.4,1.1-1.2,1.1-2.1c0-0.4-0.1-0.7-0.1-0.9L239,176.3z M236,180.5c0-1.5-1.3-2.4-3.5-2.4
		c-2.1,0-3.3,1-3.3,2.4s1.3,2.4,3.3,2.4C234.7,182.9,236,181.9,236,180.5z"/>
	<path d="M236.2,175.4c-2.3-2.6-4-3.9-5.5-3.9c-1,0-1.6,0.5-1.6,1.5c0,0.7,0.4,1.3,1,1.7l-0.8,0.8c-0.8-0.8-1.3-1.5-1.3-2.7
		c0-1.6,1.1-2.7,2.7-2.7c1.7,0,3.5,1.4,5.3,3.2c0-0.5-0.1-1-0.1-1.4v-2.2h1.2v5.7H236.2z"/>
	<path d="M235.8,168.1v-1.9h-6.1v1.6h-0.9c-0.2-0.8-0.4-1.4-0.7-1.9v-1h7.7V163h1.1v5H235.8z"/>
</g>
<g class="st18">
	<path d="M261.8,191.3c-2.3-2.6-4-3.9-5.5-3.9c-1,0-1.6,0.5-1.6,1.5c0,0.7,0.4,1.3,1,1.7l-0.8,0.8c-0.8-0.8-1.3-1.5-1.3-2.7
		c0-1.6,1.1-2.7,2.7-2.7c1.7,0,3.5,1.4,5.3,3.2c0-0.5-0.1-1-0.1-1.4v-2.2h1.2v5.7H261.8z"/>
	<path d="M264.7,176.3c0.1,0.3,0.2,0.8,0.2,1.4c0,1.7-0.9,2.9-2.2,3.4c-0.3,1.9-2,3.2-4.6,3.2c-2.8,0-4.5-1.6-4.5-3.8
		s1.7-3.8,4.5-3.8c2.5,0,4.1,1.2,4.5,3c0.7-0.4,1.1-1.2,1.1-2.1c0-0.4-0.1-0.7-0.1-0.9L264.7,176.3z M261.6,180.5
		c0-1.5-1.3-2.4-3.5-2.4c-2.1,0-3.3,1-3.3,2.4s1.3,2.4,3.3,2.4C260.3,182.9,261.6,181.9,261.6,180.5z"/>
	<path d="M261.8,175.4c-2.3-2.6-4-3.9-5.5-3.9c-1,0-1.6,0.5-1.6,1.5c0,0.7,0.4,1.3,1,1.7l-0.8,0.8c-0.8-0.8-1.3-1.5-1.3-2.7
		c0-1.6,1.1-2.7,2.7-2.7c1.7,0,3.5,1.4,5.3,3.2c0-0.5-0.1-1-0.1-1.4v-2.2h1.2v5.7H261.8z"/>
	<path d="M261.4,168.1v-1.9h-6.1v1.6h-0.9c-0.2-0.8-0.4-1.4-0.7-1.9v-1h7.7V163h1.1v5H261.4z"/>
</g>
<g class="st18">
	<path d="M286,191.5l-0.9-0.7c0.5-0.5,1-1.2,1-2.1c0-1-0.6-1.7-1.5-1.7c-1,0-1.6,0.6-1.6,2.6h-1c0-1.7-0.7-2.3-1.5-2.3
		c-0.8,0-1.3,0.5-1.3,1.4c0,0.7,0.3,1.3,0.8,1.8l-0.9,0.7c-0.6-0.7-1.1-1.5-1.1-2.5c0-1.6,0.8-2.7,2.3-2.7c1,0,1.7,0.6,2.1,1.5h0.1
		c0.3-1,1-1.8,2.2-1.8c1.6,0,2.5,1.3,2.5,2.9C287.2,190,286.7,190.9,286,191.5z"/>
	<path d="M289.1,176.3c0.1,0.3,0.2,0.8,0.2,1.4c0,1.7-0.9,2.9-2.2,3.4c-0.3,1.9-2,3.2-4.6,3.2c-2.8,0-4.5-1.6-4.5-3.8
		s1.7-3.8,4.5-3.8c2.5,0,4.1,1.2,4.5,3c0.7-0.4,1.1-1.2,1.1-2.1c0-0.4-0.1-0.7-0.1-0.9L289.1,176.3z M286.1,180.5
		c0-1.5-1.3-2.4-3.5-2.4c-2.1,0-3.3,1-3.3,2.4s1.3,2.4,3.3,2.4C284.7,182.9,286.1,181.9,286.1,180.5z"/>
	<path d="M286.3,175.4c-2.3-2.6-4-3.9-5.5-3.9c-1,0-1.6,0.5-1.6,1.5c0,0.7,0.4,1.3,1,1.7l-0.8,0.8c-0.8-0.8-1.3-1.5-1.3-2.7
		c0-1.6,1.1-2.7,2.7-2.7c1.7,0,3.5,1.4,5.3,3.2c0-0.5-0.1-1-0.1-1.4v-2.2h1.2v5.7H286.3z"/>
	<path d="M285.9,168.1v-1.9h-6.1v1.6h-0.9c-0.2-0.8-0.4-1.4-0.7-1.9v-1h7.7V163h1.1v5H285.9z"/>
</g>
<g class="st18">
	<path d="M310.9,185.3v1.1h2.4v1.3h-2.4v3.8H310l-5.5-3.5v-1.6h5.4v-1.1H310.9z M309.9,187.8h-2.3c-0.5,0-1.2,0-1.7-0.1v0
		c0.4,0.2,0.9,0.5,1.4,0.7l2.7,1.7V187.8z"/>
	<path d="M315.4,176.3c0.1,0.3,0.2,0.8,0.2,1.4c0,1.7-0.9,2.9-2.2,3.4c-0.3,1.9-2,3.2-4.6,3.2c-2.8,0-4.5-1.6-4.5-3.8
		s1.7-3.8,4.5-3.8c2.5,0,4.1,1.2,4.5,3c0.7-0.4,1.1-1.2,1.1-2.1c0-0.4-0.1-0.7-0.1-0.9L315.4,176.3z M312.3,180.5
		c0-1.5-1.3-2.4-3.5-2.4c-2.1,0-3.3,1-3.3,2.4s1.3,2.4,3.3,2.4C311,182.9,312.3,181.9,312.3,180.5z"/>
	<path d="M312.5,175.4c-2.3-2.6-4-3.9-5.5-3.9c-1,0-1.6,0.5-1.6,1.5c0,0.7,0.4,1.3,1,1.7l-0.8,0.8c-0.8-0.8-1.3-1.5-1.3-2.7
		c0-1.6,1.1-2.7,2.7-2.7c1.7,0,3.5,1.4,5.3,3.2c0-0.5-0.1-1-0.1-1.4v-2.2h1.2v5.7H312.5z"/>
	<path d="M312.2,168.1v-1.9H306v1.6h-0.9c-0.2-0.8-0.4-1.4-0.7-1.9v-1h7.7V163h1.1v5H312.2z"/>
</g>
<g class="st18">
	<path d="M361.3,182.1v-1.9h-6.1v1.6h-0.9c-0.2-0.8-0.4-1.4-0.7-1.9v-1h7.7v-1.7h1.1v5H361.3z"/>
	<path d="M360.8,174.9c0.4-0.3,0.7-0.9,0.7-1.5c0-1.1-0.9-2-3.4-2.1c0.6,0.5,1,1.3,1,1.9c0,1.5-0.9,2.5-2.8,2.5
		c-1.8,0-2.9-1.2-2.9-2.6c0-1.7,1.4-3.1,4.3-3.1c3.5,0,4.9,1.6,4.9,3.3c0,1-0.4,1.7-0.9,2.3L360.8,174.9z M357.1,171.4
		c-1.7,0.1-2.5,0.8-2.5,1.8c0,0.8,0.7,1.4,1.8,1.4c1.1,0,1.8-0.5,1.8-1.4C358.2,172.5,357.8,171.9,357.1,171.4z"/>
	<path d="M353.6,168.3v-5.2h1.2v3.8h2.5v-3.2h1.2v3.2h2.9v-4h1.2v5.3H353.6z"/>
</g>
<g class="st18">
	<path d="M388.1,182.6c-2.3-2.6-4-3.9-5.5-3.9c-1,0-1.6,0.5-1.6,1.5c0,0.7,0.4,1.3,1,1.7l-0.8,0.8c-0.8-0.8-1.3-1.5-1.3-2.7
		c0-1.6,1.1-2.7,2.7-2.7c1.7,0,3.5,1.4,5.3,3.2c0-0.5-0.1-1-0.1-1.4v-2.2h1.2v5.7H388.1z"/>
	<path d="M384.5,175.7c-3.1,0-4.5-1.1-4.5-2.9c0-1.7,1.5-2.9,4.5-2.9c3.1,0,4.6,1.1,4.6,2.9C389.1,174.6,387.5,175.7,384.5,175.7z
		 M384.5,171.3c-2.5,0-3.5,0.6-3.5,1.5s0.9,1.5,3.5,1.5c2.6,0,3.5-0.6,3.5-1.5S387,171.3,384.5,171.3z"/>
	<path d="M380.1,168.3v-5.2h1.2v3.8h2.5v-3.2h1.2v3.2h2.9v-4h1.2v5.3H380.1z"/>
</g>
<g class="st18">
	<path d="M413.1,182.6c-2.3-2.6-4-3.9-5.5-3.9c-1,0-1.6,0.5-1.6,1.5c0,0.7,0.4,1.3,1,1.7l-0.8,0.8c-0.8-0.8-1.3-1.5-1.3-2.7
		c0-1.6,1.1-2.7,2.7-2.7c1.7,0,3.5,1.4,5.3,3.2c0-0.5-0.1-1-0.1-1.4v-2.2h1.2v5.7H413.1z"/>
	<path d="M412.7,175.3v-1.9h-6.1v1.6h-0.9c-0.2-0.8-0.4-1.4-0.7-1.9v-1h7.7v-1.7h1.1v5H412.7z"/>
	<path d="M405.1,168.3v-5.2h1.2v3.8h2.5v-3.2h1.2v3.2h2.9v-4h1.2v5.3H405.1z"/>
</g>
<g class="st18">
	<path d="M2.1,139.4h3.2v1H2.1V139.4z"/>
	<path d="M6.3,142.5c2.6-2.3,3.9-4,3.9-5.5c0-1-0.5-1.6-1.5-1.6c-0.7,0-1.3,0.4-1.7,1l-0.8-0.8c0.8-0.8,1.5-1.3,2.7-1.3
		c1.6,0,2.7,1.1,2.7,2.7c0,1.7-1.4,3.5-3.2,5.3c0.5,0,1-0.1,1.4-0.1H12v1.2H6.3V142.5z"/>
</g>
<g class="st18">
	<path d="M2.1,122.9h3.2v1H2.1V122.9z"/>
	<path d="M6.8,125.7h1.9v-6.1H7.2v-0.9c0.8-0.2,1.4-0.4,1.9-0.7h1v7.7h1.7v1.1h-5V125.7z"/>
</g>
<g class="st18">
	<path d="M6.4,105.9c0-3.1,1.1-4.5,2.9-4.5c1.7,0,2.9,1.5,2.9,4.5c0,3.1-1.1,4.6-2.9,4.6C7.5,110.5,6.4,109,6.4,105.9z M10.8,105.9
		c0-2.5-0.6-3.5-1.5-3.5s-1.5,0.9-1.5,3.5c0,2.6,0.6,3.5,1.5,3.5S10.8,108.5,10.8,105.9z"/>
</g>
<g class="st18">
	<path d="M6.8,92.7h1.9v-6.1H7.2v-0.9c0.8-0.2,1.4-0.4,1.9-0.7h1v7.7h1.7v1.1h-5V92.7z"/>
</g>
<g class="st18">
	<path d="M6.3,76.6c2.6-2.3,3.9-4,3.9-5.5c0-1-0.5-1.6-1.5-1.6c-0.7,0-1.3,0.4-1.7,1l-0.8-0.8c0.8-0.8,1.5-1.3,2.7-1.3
		c1.6,0,2.7,1.1,2.7,2.7c0,1.7-1.4,3.5-3.2,5.3c0.5,0,1-0.1,1.4-0.1H12v1.2H6.3V76.6z"/>
</g>
<g class="st18">
	<path d="M6.1,59.9L6.8,59c0.5,0.5,1.2,1,2.1,1c1,0,1.7-0.6,1.7-1.5c0-1-0.6-1.6-2.6-1.6v-1c1.7,0,2.3-0.7,2.3-1.5
		c0-0.8-0.5-1.3-1.4-1.3c-0.7,0-1.3,0.3-1.8,0.8L6.4,53C7.1,52.4,8,51.9,9,51.9c1.6,0,2.7,0.8,2.7,2.3c0,1-0.6,1.7-1.5,2.1v0.1
		c1,0.3,1.8,1,1.8,2.2c0,1.6-1.3,2.5-3,2.5C7.6,61.1,6.7,60.5,6.1,59.9z"/>
</g>
<g class="st18">
	<path d="M12.3,42.1h-1.1v2.4H9.9v-2.4H6v-0.9l3.5-5.5h1.6V41h1.1V42.1z M9.9,41v-2.3c0-0.5,0-1.2,0.1-1.7h0
		c-0.2,0.4-0.5,0.9-0.7,1.4L7.4,41H9.9z"/>
</g>
<g class="st18">
	<path d="M22.5,46.5l0.6-0.7c0.4,0.4,1,0.8,1.7,0.8c0.8,0,1.4-0.5,1.4-1.2c0-0.8-0.5-1.3-2.2-1.3v-0.8c1.4,0,1.9-0.5,1.9-1.3
		c0-0.7-0.4-1.1-1.1-1.1c-0.6,0-1,0.3-1.5,0.7l-0.6-0.7c0.6-0.5,1.3-0.9,2.1-0.9c1.3,0,2.2,0.7,2.2,1.9c0,0.8-0.5,1.4-1.3,1.7v0
		c0.8,0.2,1.5,0.8,1.5,1.8c0,1.3-1.1,2.1-2.5,2.1C23.7,47.5,22.9,47.1,22.5,46.5z"/>
	<path d="M28.6,46.7c0-0.5,0.3-0.8,0.8-0.8s0.8,0.3,0.8,0.8s-0.3,0.8-0.8,0.8S28.6,47.2,28.6,46.7z"/>
	<path d="M31.7,46.5h1.6v-5.1H32v-0.7c0.7-0.1,1.2-0.3,1.6-0.6h0.9v6.4h1.4v0.9h-4.2V46.5z"/>
	<path d="M36.9,42.2c0-1.5,0.7-2.3,1.7-2.3c1,0,1.7,0.8,1.7,2.3c0,1.5-0.7,2.3-1.7,2.3C37.6,44.6,36.9,43.7,36.9,42.2z M39.5,42.2
		c0-1.1-0.4-1.6-0.9-1.6c-0.5,0-0.9,0.5-0.9,1.6c0,1.1,0.4,1.7,0.9,1.7C39.1,43.9,39.5,43.4,39.5,42.2z M42.9,39.9h0.7l-4,7.6h-0.7
		L42.9,39.9z M42.1,45.2c0-1.5,0.7-2.3,1.7-2.3c1,0,1.7,0.8,1.7,2.3c0,1.5-0.7,2.3-1.7,2.3C42.8,47.5,42.1,46.7,42.1,45.2z
		 M44.7,45.2c0-1.1-0.4-1.6-0.9-1.6c-0.5,0-0.9,0.5-0.9,1.6c0,1.1,0.4,1.7,0.9,1.7C44.4,46.9,44.7,46.3,44.7,45.2z"/>
</g>
<g class="st18">
	<path d="M46.1,35.5c2.2-1.9,3.3-3.3,3.3-4.6c0-0.8-0.4-1.3-1.2-1.3c-0.6,0-1.1,0.4-1.4,0.8L46,29.7c0.6-0.7,1.3-1.1,2.2-1.1
		c1.3,0,2.2,0.9,2.2,2.2c0,1.4-1.1,2.9-2.7,4.4c0.4,0,0.8-0.1,1.2-0.1h1.8v1h-4.7V35.5z"/>
	<path d="M52.1,35.5c0-0.5,0.3-0.8,0.8-0.8s0.8,0.3,0.8,0.8s-0.3,0.8-0.8,0.8S52.1,35.9,52.1,35.5z"/>
	<path d="M54.8,32.4c0-2.5,0.9-3.8,2.4-3.8c1.4,0,2.4,1.3,2.4,3.8c0,2.6-0.9,3.8-2.4,3.8C55.7,36.3,54.8,35,54.8,32.4z M58.4,32.4
		c0-2.1-0.5-2.9-1.3-2.9c-0.8,0-1.3,0.8-1.3,2.9c0,2.1,0.5,2.9,1.3,2.9C57.9,35.3,58.4,34.5,58.4,32.4z"/>
	<path d="M60.4,30.9c0-1.5,0.7-2.3,1.7-2.3c1,0,1.7,0.8,1.7,2.3c0,1.5-0.7,2.3-1.7,2.3C61.1,33.3,60.4,32.4,60.4,30.9z M63,30.9
		c0-1.1-0.4-1.6-0.9-1.6c-0.5,0-0.9,0.5-0.9,1.6c0,1.1,0.4,1.7,0.9,1.7C62.6,32.6,63,32.1,63,30.9z M66.4,28.6h0.7l-4,7.6h-0.7
		L66.4,28.6z M65.6,33.9c0-1.5,0.7-2.3,1.7-2.3c1,0,1.7,0.8,1.7,2.3c0,1.5-0.7,2.3-1.7,2.3C66.3,36.3,65.6,35.4,65.6,33.9z
		 M68.2,33.9c0-1.1-0.4-1.6-0.9-1.6c-0.5,0-0.9,0.5-0.9,1.6c0,1.1,0.4,1.7,0.9,1.7C67.8,35.6,68.2,35.1,68.2,33.9z"/>
</g>
<g class="st18">
	<path d="M71.4,59.3c2.2-1.9,3.3-3.3,3.3-4.6c0-0.8-0.4-1.3-1.2-1.3c-0.6,0-1.1,0.4-1.4,0.8l-0.6-0.6c0.6-0.7,1.3-1.1,2.2-1.1
		c1.3,0,2.2,0.9,2.2,2.2c0,1.4-1.1,2.9-2.7,4.4c0.4,0,0.8-0.1,1.2-0.1h1.8v1h-4.7V59.3z"/>
	<path d="M77.4,59.3c0-0.5,0.3-0.8,0.8-0.8s0.8,0.3,0.8,0.8s-0.3,0.8-0.8,0.8S77.4,59.7,77.4,59.3z"/>
	<path d="M80.5,59h1.6v-5.1h-1.3v-0.7c0.7-0.1,1.2-0.3,1.6-0.6h0.9V59h1.4v0.9h-4.2V59z"/>
	<path d="M85.7,54.8c0-1.5,0.7-2.3,1.7-2.3c1,0,1.7,0.8,1.7,2.3c0,1.5-0.7,2.3-1.7,2.3C86.4,57.1,85.7,56.2,85.7,54.8z M88.3,54.8
		c0-1.1-0.4-1.6-0.9-1.6c-0.5,0-0.9,0.5-0.9,1.6c0,1.1,0.4,1.7,0.9,1.7C87.9,56.4,88.3,55.9,88.3,54.8z M91.7,52.4h0.7l-4,7.6h-0.7
		L91.7,52.4z M90.9,57.7c0-1.5,0.7-2.3,1.7-2.3c1,0,1.7,0.8,1.7,2.3c0,1.5-0.7,2.3-1.7,2.3C91.6,60.1,90.9,59.2,90.9,57.7z
		 M93.5,57.7c0-1.1-0.4-1.6-0.9-1.6c-0.5,0-0.9,0.5-0.9,1.6c0,1.1,0.4,1.7,0.9,1.7C93.1,59.4,93.5,58.9,93.5,57.7z"/>
</g>
<g class="st18">
	<path d="M96.4,48.5c2.2-1.9,3.3-3.3,3.3-4.6c0-0.8-0.4-1.3-1.3-1.3c-0.6,0-1.1,0.4-1.4,0.8l-0.6-0.6c0.6-0.7,1.3-1.1,2.2-1.1
		c1.3,0,2.2,0.9,2.2,2.2c0,1.4-1.1,2.9-2.7,4.4c0.4,0,0.8-0.1,1.2-0.1h1.8v1h-4.7V48.5z"/>
	<path d="M102.4,48.5c0-0.5,0.3-0.8,0.8-0.8s0.8,0.3,0.8,0.8s-0.3,0.8-0.8,0.8S102.4,48.9,102.4,48.5z"/>
	<path d="M104.9,48.3l0.5-0.8c0.4,0.4,1,0.8,1.7,0.8c0.8,0,1.5-0.6,1.5-1.6s-0.6-1.5-1.4-1.5c-0.5,0-0.7,0.1-1.2,0.4l-0.6-0.4
		l0.2-3.5h3.7v1h-2.7l-0.2,1.9c0.3-0.2,0.6-0.3,1-0.3c1.2,0,2.2,0.7,2.2,2.3c0,1.6-1.2,2.5-2.5,2.5
		C106.2,49.3,105.5,48.8,104.9,48.3z"/>
	<path d="M110.7,44c0-1.5,0.7-2.3,1.7-2.3s1.7,0.8,1.7,2.3c0,1.5-0.7,2.3-1.7,2.3S110.7,45.5,110.7,44z M113.3,44
		c0-1.1-0.4-1.6-0.9-1.6c-0.5,0-0.9,0.5-0.9,1.6c0,1.1,0.4,1.7,0.9,1.7C113,45.6,113.3,45.1,113.3,44z M116.7,41.7h0.7l-4,7.6h-0.7
		L116.7,41.7z M116,47c0-1.5,0.7-2.3,1.7-2.3c1,0,1.7,0.8,1.7,2.3c0,1.5-0.7,2.3-1.7,2.3C116.7,49.3,116,48.4,116,47z M118.6,47
		c0-1.1-0.4-1.6-0.9-1.6c-0.5,0-0.9,0.5-0.9,1.6c0,1.1,0.4,1.7,0.9,1.7C118.2,48.6,118.6,48.1,118.6,47z"/>
</g>
<g class="st18">
	<path d="M122.1,55.4h1.6v-5.1h-1.3v-0.7c0.7-0.1,1.2-0.3,1.6-0.6h0.9v6.4h1.4v0.9h-4.2V55.4z"/>
	<path d="M127.7,55.7c0-0.5,0.3-0.8,0.8-0.8s0.8,0.3,0.8,0.8s-0.3,0.8-0.8,0.8S127.7,56.2,127.7,55.7z"/>
	<path d="M130.4,54.5c0-1,0.6-1.6,1.3-2v0c-0.5-0.4-1-0.9-1-1.7c0-1.1,0.9-1.9,2.1-1.9c1.3,0,2.1,0.8,2.1,1.9c0,0.8-0.5,1.4-1,1.7v0
		c0.7,0.4,1.2,0.9,1.2,1.9c0,1.1-1,1.9-2.4,1.9C131.4,56.5,130.4,55.7,130.4,54.5z M134.1,54.5c0-0.9-0.8-1.2-1.8-1.6
		c-0.5,0.4-0.9,0.9-0.9,1.5c0,0.7,0.6,1.2,1.4,1.2C133.6,55.7,134.1,55.2,134.1,54.5z M134,50.9c0-0.7-0.4-1.2-1.1-1.2
		c-0.6,0-1,0.4-1,1.1c0,0.8,0.7,1.2,1.5,1.5C133.7,51.9,134,51.4,134,50.9z"/>
	<path d="M136,51.2c0-1.5,0.7-2.3,1.7-2.3c1,0,1.7,0.8,1.7,2.3c0,1.5-0.7,2.3-1.7,2.3C136.7,53.5,136,52.7,136,51.2z M138.6,51.2
		c0-1.1-0.4-1.6-0.9-1.6c-0.5,0-0.9,0.5-0.9,1.6c0,1.1,0.4,1.7,0.9,1.7C138.3,52.8,138.6,52.3,138.6,51.2z M142,48.9h0.7l-4,7.6H138
		L142,48.9z M141.2,54.2c0-1.5,0.7-2.3,1.7-2.3c1,0,1.7,0.8,1.7,2.3c0,1.5-0.7,2.3-1.7,2.3C141.9,56.5,141.2,55.6,141.2,54.2z
		 M143.9,54.2c0-1.1-0.4-1.6-0.9-1.6c-0.5,0-0.9,0.5-0.9,1.6c0,1.1,0.4,1.7,0.9,1.7C143.5,55.8,143.9,55.3,143.9,54.2z"/>
</g>
<g class="st18">
	<path d="M147.6,63.7h1.6v-5.1h-1.3v-0.7c0.7-0.1,1.2-0.3,1.6-0.6h0.9v6.4h1.4v0.9h-4.2V63.7z"/>
	<path d="M153.1,64c0-0.5,0.3-0.8,0.8-0.8s0.8,0.3,0.8,0.8s-0.3,0.8-0.8,0.8S153.1,64.5,153.1,64z"/>
	<path d="M155.8,62.9c0-1,0.6-1.6,1.3-2v0c-0.5-0.4-1-0.9-1-1.7c0-1.1,0.9-1.9,2.1-1.9c1.3,0,2.1,0.8,2.1,1.9c0,0.8-0.5,1.4-1,1.7v0
		c0.7,0.4,1.2,0.9,1.2,1.9c0,1.1-1,1.9-2.4,1.9C156.9,64.8,155.8,64,155.8,62.9z M159.5,62.9c0-0.9-0.8-1.2-1.8-1.6
		c-0.5,0.4-0.9,0.9-0.9,1.5c0,0.7,0.6,1.2,1.4,1.2C159,64,159.5,63.5,159.5,62.9z M159.4,59.2c0-0.7-0.4-1.2-1.1-1.2
		c-0.6,0-1,0.4-1,1.1c0,0.8,0.7,1.2,1.5,1.5C159.2,60.2,159.4,59.7,159.4,59.2z"/>
	<path d="M161.4,59.5c0-1.5,0.7-2.3,1.7-2.3c1,0,1.7,0.8,1.7,2.3c0,1.5-0.7,2.3-1.7,2.3C162.1,61.8,161.4,61,161.4,59.5z M164,59.5
		c0-1.1-0.4-1.6-0.9-1.6c-0.5,0-0.9,0.5-0.9,1.6c0,1.1,0.4,1.7,0.9,1.7C163.7,61.2,164,60.6,164,59.5z M167.4,57.2h0.7l-4,7.6h-0.7
		L167.4,57.2z M166.7,62.5c0-1.5,0.7-2.3,1.7-2.3c1,0,1.7,0.8,1.7,2.3c0,1.5-0.7,2.3-1.7,2.3C167.4,64.8,166.7,64,166.7,62.5z
		 M169.3,62.5c0-1.1-0.4-1.6-0.9-1.6c-0.5,0-0.9,0.5-0.9,1.6c0,1.1,0.4,1.7,0.9,1.7C168.9,64.1,169.3,63.6,169.3,62.5z"/>
</g>
<g class="st18">
	<path d="M172.2,66.8h1.6v-5.1h-1.3V61c0.7-0.1,1.2-0.3,1.6-0.6h0.9v6.4h1.4v0.9h-4.2V66.8z"/>
	<path d="M177.8,67.1c0-0.5,0.3-0.8,0.8-0.8s0.8,0.3,0.8,0.8s-0.3,0.8-0.8,0.8S177.8,67.6,177.8,67.1z"/>
	<path d="M184,61.4h-3.5v-1h4.7v0.7c-1.7,2.2-2,3.8-2.1,6.7H182C182.1,65.1,182.6,63.4,184,61.4z"/>
	<path d="M186.1,62.6c0-1.5,0.7-2.3,1.7-2.3c1,0,1.7,0.8,1.7,2.3c0,1.5-0.7,2.3-1.7,2.3C186.8,65,186.1,64.1,186.1,62.6z
		 M188.7,62.6c0-1.1-0.4-1.6-0.9-1.6c-0.5,0-0.9,0.5-0.9,1.6c0,1.1,0.4,1.7,0.9,1.7C188.3,64.3,188.7,63.8,188.7,62.6z M192.1,60.3
		h0.7l-4,7.6H188L192.1,60.3z M191.3,65.6c0-1.5,0.7-2.3,1.7-2.3c1,0,1.7,0.8,1.7,2.3c0,1.5-0.7,2.3-1.7,2.3
		C192,67.9,191.3,67.1,191.3,65.6z M193.9,65.6c0-1.1-0.4-1.6-0.9-1.6c-0.5,0-0.9,0.5-0.9,1.6c0,1.1,0.4,1.7,0.9,1.7
		C193.5,67.3,193.9,66.7,193.9,65.6z"/>
</g>
<g class="st18">
	<path d="M197.8,66.8h1.6v-5.1h-1.3V61c0.7-0.1,1.2-0.3,1.6-0.6h0.9v6.4h1.4v0.9h-4.2V66.8z"/>
	<path d="M203.4,67.1c0-0.5,0.3-0.8,0.8-0.8s0.8,0.3,0.8,0.8s-0.3,0.8-0.8,0.8S203.4,67.6,203.4,67.1z"/>
	<path d="M209.6,61.4h-3.5v-1h4.7v0.7c-1.7,2.2-2,3.8-2.1,6.7h-1.2C207.7,65.1,208.1,63.4,209.6,61.4z"/>
	<path d="M211.7,62.6c0-1.5,0.7-2.3,1.7-2.3c1,0,1.7,0.8,1.7,2.3c0,1.5-0.7,2.3-1.7,2.3C212.4,65,211.7,64.1,211.7,62.6z
		 M214.3,62.6c0-1.1-0.4-1.6-0.9-1.6c-0.5,0-0.9,0.5-0.9,1.6c0,1.1,0.4,1.7,0.9,1.7C213.9,64.3,214.3,63.8,214.3,62.6z M217.7,60.3
		h0.7l-4,7.6h-0.7L217.7,60.3z M216.9,65.6c0-1.5,0.7-2.3,1.7-2.3c1,0,1.7,0.8,1.7,2.3c0,1.5-0.7,2.3-1.7,2.3
		C217.6,67.9,216.9,67.1,216.9,65.6z M219.5,65.6c0-1.1-0.4-1.6-0.9-1.6c-0.5,0-0.9,0.5-0.9,1.6c0,1.1,0.4,1.7,0.9,1.7
		C219.1,67.3,219.5,66.7,219.5,65.6z"/>
</g>
<g class="st18">
	<path d="M223,64.8h1.6v-5.1h-1.3V59c0.7-0.1,1.2-0.3,1.6-0.6h0.9v6.4h1.4v0.9H223V64.8z"/>
	<path d="M228.6,65.1c0-0.5,0.3-0.8,0.8-0.8s0.8,0.3,0.8,0.8s-0.3,0.8-0.8,0.8S228.6,65.6,228.6,65.1z"/>
	<path d="M232,64.4c0.3,0.3,0.7,0.5,1.2,0.5c0.9,0,1.7-0.7,1.7-2.8c-0.4,0.5-1.1,0.9-1.6,0.9c-1.2,0-2.1-0.8-2.1-2.3
		c0-1.5,1-2.4,2.2-2.4c1.4,0,2.5,1.1,2.5,3.6c0,2.9-1.3,4.1-2.7,4.1c-0.8,0-1.4-0.3-1.9-0.8L232,64.4z M234.9,61.3
		c-0.1-1.4-0.7-2.1-1.5-2.1c-0.6,0-1.1,0.6-1.1,1.5c0,0.9,0.4,1.5,1.2,1.5C234,62.2,234.5,61.9,234.9,61.3z"/>
	<path d="M236.9,60.6c0-1.5,0.7-2.3,1.7-2.3c1,0,1.7,0.8,1.7,2.3c0,1.5-0.7,2.3-1.7,2.3C237.6,62.9,236.9,62.1,236.9,60.6z
		 M239.5,60.6c0-1.1-0.4-1.6-0.9-1.6c-0.5,0-0.9,0.5-0.9,1.6c0,1.1,0.4,1.7,0.9,1.7C239.1,62.3,239.5,61.7,239.5,60.6z M242.9,58.3
		h0.7l-4,7.6h-0.7L242.9,58.3z M242.1,63.6c0-1.5,0.7-2.3,1.7-2.3c1,0,1.7,0.8,1.7,2.3c0,1.5-0.7,2.3-1.7,2.3
		C242.8,65.9,242.1,65,242.1,63.6z M244.7,63.6c0-1.1-0.4-1.6-0.9-1.6c-0.5,0-0.9,0.5-0.9,1.6c0,1.1,0.4,1.7,0.9,1.7
		C244.4,65.2,244.7,64.7,244.7,63.6z"/>
</g>
<g class="st18">
	<path d="M247.4,59.3c2.2-1.9,3.3-3.3,3.3-4.6c0-0.8-0.4-1.3-1.2-1.3c-0.6,0-1.1,0.4-1.4,0.8l-0.6-0.6c0.6-0.7,1.3-1.1,2.2-1.1
		c1.3,0,2.2,0.9,2.2,2.2c0,1.4-1.1,2.9-2.7,4.4c0.4,0,0.8-0.1,1.2-0.1h1.8v1h-4.7V59.3z"/>
	<path d="M253.4,59.3c0-0.5,0.3-0.8,0.8-0.8s0.8,0.3,0.8,0.8s-0.3,0.8-0.8,0.8S253.4,59.7,253.4,59.3z"/>
	<path d="M256.5,59h1.6v-5.1h-1.3v-0.7c0.7-0.1,1.2-0.3,1.6-0.6h0.9V59h1.4v0.9h-4.2V59z"/>
	<path d="M261.7,54.8c0-1.5,0.7-2.3,1.7-2.3c1,0,1.7,0.8,1.7,2.3c0,1.5-0.7,2.3-1.7,2.3C262.4,57.1,261.7,56.2,261.7,54.8z
		 M264.3,54.8c0-1.1-0.4-1.6-0.9-1.6c-0.5,0-0.9,0.5-0.9,1.6c0,1.1,0.4,1.7,0.9,1.7C263.9,56.4,264.3,55.9,264.3,54.8z M267.7,52.4
		h0.7l-4,7.6h-0.7L267.7,52.4z M266.9,57.7c0-1.5,0.7-2.3,1.7-2.3c1,0,1.7,0.8,1.7,2.3c0,1.5-0.7,2.3-1.7,2.3
		C267.6,60.1,266.9,59.2,266.9,57.7z M269.5,57.7c0-1.1-0.4-1.6-0.9-1.6c-0.5,0-0.9,0.5-0.9,1.6c0,1.1,0.4,1.7,0.9,1.7
		C269.1,59.4,269.5,58.9,269.5,57.7z"/>
</g>
<g class="st18">
	<path d="M272.8,60.3c2.2-1.9,3.3-3.3,3.3-4.6c0-0.8-0.4-1.3-1.2-1.3c-0.6,0-1.1,0.4-1.4,0.8l-0.6-0.6c0.6-0.7,1.3-1.1,2.2-1.1
		c1.3,0,2.2,0.9,2.2,2.2c0,1.4-1.1,2.9-2.7,4.4c0.4,0,0.8-0.1,1.2-0.1h1.8v1h-4.7V60.3z"/>
	<path d="M278.8,60.3c0-0.5,0.3-0.8,0.8-0.8s0.8,0.3,0.8,0.8s-0.3,0.8-0.8,0.8S278.8,60.7,278.8,60.3z"/>
	<path d="M281.5,57.2c0-2.5,0.9-3.8,2.4-3.8c1.4,0,2.4,1.3,2.4,3.8c0,2.6-0.9,3.8-2.4,3.8C282.4,61.1,281.5,59.8,281.5,57.2z
		 M285.2,57.2c0-2.1-0.5-2.9-1.3-2.9c-0.8,0-1.3,0.8-1.3,2.9c0,2.1,0.5,2.9,1.3,2.9C284.6,60.2,285.2,59.4,285.2,57.2z"/>
	<path d="M287.1,55.8c0-1.5,0.7-2.3,1.7-2.3c1,0,1.7,0.8,1.7,2.3c0,1.5-0.7,2.3-1.7,2.3C287.8,58.1,287.1,57.2,287.1,55.8z
		 M289.7,55.8c0-1.1-0.4-1.6-0.9-1.6c-0.5,0-0.9,0.5-0.9,1.6c0,1.1,0.4,1.7,0.9,1.7C289.3,57.4,289.7,56.9,289.7,55.8z M293.1,53.4
		h0.7l-4,7.6H289L293.1,53.4z M292.3,58.7c0-1.5,0.7-2.3,1.7-2.3c1,0,1.7,0.8,1.7,2.3c0,1.5-0.7,2.3-1.7,2.3
		C293,61.1,292.3,60.2,292.3,58.7z M294.9,58.7c0-1.1-0.4-1.6-0.9-1.6c-0.5,0-0.9,0.5-0.9,1.6c0,1.1,0.4,1.7,0.9,1.7
		C294.5,60.4,294.9,59.9,294.9,58.7z"/>
</g>
<g class="st18">
	<path d="M298.1,62.9c2.2-1.9,3.3-3.3,3.3-4.6c0-0.8-0.4-1.3-1.2-1.3c-0.6,0-1.1,0.4-1.4,0.8l-0.6-0.6c0.6-0.7,1.3-1.1,2.2-1.1
		c1.3,0,2.2,0.9,2.2,2.2c0,1.4-1.1,2.9-2.7,4.4c0.4,0,0.8-0.1,1.2-0.1h1.8v1h-4.7V62.9z"/>
	<path d="M304.1,62.9c0-0.5,0.3-0.8,0.8-0.8s0.8,0.3,0.8,0.8s-0.3,0.8-0.8,0.8S304.1,63.3,304.1,62.9z"/>
	<path d="M306.8,59.8c0-2.5,0.9-3.8,2.4-3.8c1.4,0,2.4,1.3,2.4,3.8c0,2.6-0.9,3.8-2.4,3.8C307.7,63.7,306.8,62.4,306.8,59.8z
		 M310.4,59.8c0-2.1-0.5-2.9-1.3-2.9c-0.8,0-1.3,0.8-1.3,2.9c0,2.1,0.5,2.9,1.3,2.9C309.9,62.8,310.4,62,310.4,59.8z"/>
	<path d="M312.4,58.4c0-1.5,0.7-2.3,1.7-2.3c1,0,1.7,0.8,1.7,2.3c0,1.5-0.7,2.3-1.7,2.3C313.1,60.7,312.4,59.8,312.4,58.4z
		 M315,58.4c0-1.1-0.4-1.6-0.9-1.6c-0.5,0-0.9,0.5-0.9,1.6c0,1.1,0.4,1.7,0.9,1.7C314.6,60,315,59.5,315,58.4z M318.4,56h0.7l-4,7.6
		h-0.7L318.4,56z M317.6,61.3c0-1.5,0.7-2.3,1.7-2.3c1,0,1.7,0.8,1.7,2.3c0,1.5-0.7,2.3-1.7,2.3C318.3,63.7,317.6,62.8,317.6,61.3z
		 M320.2,61.3c0-1.1-0.4-1.6-0.9-1.6c-0.5,0-0.9,0.5-0.9,1.6c0,1.1,0.4,1.7,0.9,1.7C319.8,63,320.2,62.5,320.2,61.3z"/>
</g>
<g class="st18">
	<path d="M348.6,57.1c2.2-1.9,3.3-3.3,3.3-4.6c0-0.8-0.4-1.3-1.3-1.3c-0.6,0-1.1,0.4-1.4,0.8l-0.6-0.6c0.6-0.7,1.3-1.1,2.2-1.1
		c1.3,0,2.2,0.9,2.2,2.2c0,1.4-1.1,2.9-2.7,4.4c0.4,0,0.8-0.1,1.2-0.1h1.8v1h-4.7V57.1z"/>
	<path d="M354.5,57.1c0-0.5,0.3-0.8,0.8-0.8s0.8,0.3,0.8,0.8s-0.3,0.8-0.8,0.8S354.5,57.5,354.5,57.1z"/>
	<path d="M357.1,56.8l0.6-0.7c0.4,0.4,1,0.8,1.7,0.8c0.8,0,1.4-0.5,1.4-1.2c0-0.8-0.5-1.3-2.2-1.3v-0.8c1.4,0,1.9-0.5,1.9-1.3
		c0-0.7-0.4-1.1-1.1-1.1c-0.6,0-1,0.3-1.5,0.7l-0.6-0.7c0.6-0.5,1.3-0.9,2.1-0.9c1.3,0,2.2,0.7,2.2,1.9c0,0.8-0.5,1.4-1.3,1.7v0
		c0.8,0.2,1.5,0.8,1.5,1.8c0,1.3-1.1,2.1-2.5,2.1C358.3,57.9,357.6,57.4,357.1,56.8z"/>
	<path d="M362.9,52.5c0-1.5,0.7-2.3,1.7-2.3s1.7,0.8,1.7,2.3c0,1.5-0.7,2.3-1.7,2.3S362.9,54,362.9,52.5z M365.5,52.5
		c0-1.1-0.4-1.6-0.9-1.6c-0.5,0-0.9,0.5-0.9,1.6c0,1.1,0.4,1.7,0.9,1.7C365.1,54.2,365.5,53.7,365.5,52.5z M368.8,50.2h0.7l-4,7.6
		h-0.7L368.8,50.2z M368.1,55.5c0-1.5,0.7-2.3,1.7-2.3c1,0,1.7,0.8,1.7,2.3c0,1.5-0.7,2.3-1.7,2.3C368.8,57.9,368.1,57,368.1,55.5z
		 M370.7,55.5c0-1.1-0.4-1.6-0.9-1.6c-0.5,0-0.9,0.5-0.9,1.6c0,1.1,0.4,1.7,0.9,1.7C370.3,57.2,370.7,56.7,370.7,55.5z"/>
</g>
<g class="st18">
	<path d="M374.1,64.8h1.6v-5.1h-1.3V59c0.7-0.1,1.2-0.3,1.6-0.6h0.9v6.4h1.4v0.9h-4.2V64.8z"/>
	<path d="M379.7,65.1c0-0.5,0.3-0.8,0.8-0.8s0.8,0.3,0.8,0.8s-0.3,0.8-0.8,0.8S379.7,65.6,379.7,65.1z"/>
	<path d="M382.4,63.9c0-1,0.6-1.6,1.3-2v0c-0.5-0.4-1-0.9-1-1.7c0-1.1,0.9-1.9,2.1-1.9c1.3,0,2.1,0.8,2.1,1.9c0,0.8-0.5,1.4-1,1.7v0
		c0.7,0.4,1.2,0.9,1.2,1.9c0,1.1-1,1.9-2.4,1.9C383.4,65.9,382.4,65.1,382.4,63.9z M386.1,63.9c0-0.9-0.8-1.2-1.8-1.6
		c-0.5,0.4-0.9,0.9-0.9,1.5c0,0.7,0.6,1.2,1.4,1.2C385.6,65.1,386.1,64.6,386.1,63.9z M386,60.3c0-0.7-0.4-1.2-1.1-1.2
		c-0.6,0-1,0.4-1,1.1c0,0.8,0.7,1.2,1.5,1.5C385.7,61.3,386,60.8,386,60.3z"/>
	<path d="M388,60.6c0-1.5,0.7-2.3,1.7-2.3c1,0,1.7,0.8,1.7,2.3c0,1.5-0.7,2.3-1.7,2.3C388.7,62.9,388,62.1,388,60.6z M390.6,60.6
		c0-1.1-0.4-1.6-0.9-1.6c-0.5,0-0.9,0.5-0.9,1.6c0,1.1,0.4,1.7,0.9,1.7C390.3,62.3,390.6,61.7,390.6,60.6z M394,58.3h0.7l-4,7.6H390
		L394,58.3z M393.2,63.6c0-1.5,0.7-2.3,1.7-2.3c1,0,1.7,0.8,1.7,2.3c0,1.5-0.7,2.3-1.7,2.3C393.9,65.9,393.2,65,393.2,63.6z
		 M395.9,63.6c0-1.1-0.4-1.6-0.9-1.6c-0.5,0-0.9,0.5-0.9,1.6c0,1.1,0.4,1.7,0.9,1.7C395.5,65.2,395.9,64.7,395.9,63.6z"/>
</g>
<g class="st18">
	<path d="M399,61.6c2.2-1.9,3.3-3.3,3.3-4.6c0-0.8-0.4-1.3-1.3-1.3c-0.6,0-1.1,0.4-1.4,0.8l-0.6-0.6c0.6-0.7,1.3-1.1,2.2-1.1
		c1.3,0,2.2,0.9,2.2,2.2c0,1.4-1.1,2.9-2.7,4.4c0.4,0,0.8-0.1,1.2-0.1h1.8v1H399V61.6z"/>
	<path d="M404.9,61.6c0-0.5,0.3-0.8,0.8-0.8s0.8,0.3,0.8,0.8s-0.3,0.8-0.8,0.8S404.9,62,404.9,61.6z"/>
	<path d="M407.7,58.5c0-2.5,0.9-3.8,2.4-3.8c1.4,0,2.4,1.3,2.4,3.8c0,2.6-0.9,3.8-2.4,3.8C408.6,62.4,407.7,61.1,407.7,58.5z
		 M411.3,58.5c0-2.1-0.5-2.9-1.3-2.9c-0.8,0-1.3,0.8-1.3,2.9c0,2.1,0.5,2.9,1.3,2.9C410.8,61.5,411.3,60.7,411.3,58.5z"/>
	<path d="M413.3,57.1c0-1.5,0.7-2.3,1.7-2.3s1.7,0.8,1.7,2.3c0,1.5-0.7,2.3-1.7,2.3S413.3,58.5,413.3,57.1z M415.9,57.1
		c0-1.1-0.4-1.6-0.9-1.6c-0.5,0-0.9,0.5-0.9,1.6c0,1.1,0.4,1.7,0.9,1.7C415.5,58.7,415.9,58.2,415.9,57.1z M419.2,54.7h0.7l-4,7.6
		h-0.7L419.2,54.7z M418.5,60c0-1.5,0.7-2.3,1.7-2.3c1,0,1.7,0.8,1.7,2.3c0,1.5-0.7,2.3-1.7,2.3C419.2,62.4,418.5,61.5,418.5,60z
		 M421.1,60c0-1.1-0.4-1.6-0.9-1.6c-0.5,0-0.9,0.5-0.9,1.6c0,1.1,0.4,1.7,0.9,1.7C420.7,61.7,421.1,61.2,421.1,60z"/>
</g>
<g class="st18">
	<path d="M79.7,13.2c2,0.7,4.7,1.8,6.1,2.5l-1,1.7c-1.5-0.8-4.6-2.2-6.8-3l0.8-1.3h-0.6c-0.8,2.1-2.6,3.4-7.2,4.2
		c-0.1-0.5-0.6-1.4-1-1.8c3.4-0.5,5-1.2,5.8-2.4h-5.1v-1.7h5.7c0.1-0.3,0.1-0.6,0.1-0.9h-6.3V8.8H77V7.9h-5V6.2h5V5.4h-6V3.6h3.2
		c-0.3-0.5-0.6-1.1-1-1.5l1.8-0.7c0.5,0.6,1.1,1.4,1.3,2l-0.5,0.2h3.7C80,2.9,80.5,2,80.8,1.4L83,1.9c-0.4,0.6-0.8,1.2-1.1,1.6h3.3
		v1.8h-6v0.9h5.2v1.7h-5.2v0.9h6.8v1.8h-7c0,0.3-0.1,0.6-0.1,0.9h6.6v1.7H79.7z"/>
	<path d="M102.3,2.2v15.2h-2v-0.7H89.7v0.7h-1.9V2.2H102.3z M100.3,14.9V4h-2.1c0.5,0.3,1.1,0.6,1.4,1l-0.7,0.7h0.8v1.4h-3
		c0.1,1,0.2,1.8,0.3,2.6c0.3-0.6,0.6-1.4,0.8-2.1l1.5,0.3c-0.4,1.5-1,2.8-1.8,3.9c0.2,0.5,0.5,0.8,0.8,0.9c0.2,0.1,0.3-0.6,0.4-1.6
		c0.3,0.3,0.9,0.8,1.3,1c-0.3,2.1-1.2,2.7-2.3,2.2c-0.5-0.2-0.9-0.6-1.3-1.1c-0.5,0.5-1.1,1-1.8,1.4c-0.2-0.3-0.8-1-1.1-1.2
		c0.2-0.1,0.4-0.2,0.6-0.3c-1.4,0.2-2.7,0.4-3.8,0.6l-0.2-1.5c1.2-0.1,3-0.3,4.8-0.6l0,0.9c0.3-0.3,0.6-0.6,0.9-0.9
		c-0.4-1.2-0.6-2.8-0.7-4.5h-4.7V5.7H95c0-0.5-0.1-1-0.1-1.4h1.7c0,0.5,0,1,0.1,1.4h1.8c-0.4-0.3-0.9-0.7-1.3-0.9L97.9,4h-8.2v10.9
		H100.3z M94.6,11.1h-3.8V7.9h3.8V11.1z M93.2,9h-1.1V10h1.1V9z"/>
	<path d="M119.8,6.3v1.4h-3.1L116.6,9h-9.8l0.2-1.3h-2.7V6.3h2.9l0.2-1.3h9.6l-0.1,1.3H119.8z M115.3,15c1.5,0.4,3,0.8,4,1.2
		l-1.4,1.2c-1.2-0.5-3.2-1.1-5.2-1.6l0.7-0.8h-3.1l1,0.7c-1.4,0.7-3.8,1.4-5.8,1.7c-0.2-0.4-0.7-1-1.1-1.4c1.5-0.2,3.2-0.6,4.5-1.1
		h-2.4V9.5h11.1V15H115.3z M106.6,5.8h-1.8v-3h6.2c-0.1-0.4-0.3-0.7-0.5-1l1.8-0.5c0.3,0.5,0.6,1,0.8,1.5h6.2v3h-1.9V4.4h-10.8V5.8z
		 M108.5,11h7.1v-0.5h-7.1V11z M108.5,12.5h7.1V12h-7.1V12.5z M108.5,14h7.1v-0.5h-7.1V14z M108.8,8h2.2l0.1-0.5h-2.2L108.8,8z
		 M109,6L109,6.5h2.2l0.1-0.5H109z M114.9,8l0.1-0.5h-2.2L112.7,8H114.9z M115,6h-2.1l0,0.5h2.1L115,6z"/>
	<path d="M124,5.5c-0.3,0.9-0.8,1.7-1.6,2.4c-0.3-0.4-1-1.1-1.3-1.3c1.3-1,1.5-2.2,1.5-3.2V2.3c1.8-0.1,3.8-0.4,5-0.8l1.1,1.2
		c-1.2,0.4-2.8,0.6-4.4,0.8c0,0.2,0,0.4,0,0.5h4.6v1.5h-1.6v1.7h-1.8V5.5H124z M132.5,7.3V5.5H131c-0.2,0.7-0.5,1.5-1.1,2.1h4.7v7
		h-2.2c1.6,0.5,3.2,1,4.3,1.5l-0.9,1.4c-1.2-0.5-3.2-1.3-5.1-1.9l0.6-1h-4.4l1.1,0.6c-1.5,0.8-3.8,1.7-5.5,2.2
		c-0.2-0.4-0.7-1.3-1-1.7c1.4-0.3,3.1-0.7,4.4-1.2h-2.2v-7h6.1c-0.4-0.3-1-0.7-1.3-0.9c1.1-1,1.2-2.2,1.2-3.2V2.3
		c1.9-0.1,4.1-0.3,5.3-0.7l1.3,1.1c-1.3,0.4-3.1,0.7-4.8,0.8v0.1c0,0.2,0,0.3,0,0.5h5.5v1.5h-2.4v1.8H132.5z M132.5,8.8h-7v0.8h7
		V8.8z M132.5,10.7h-7v0.8h7V10.7z M132.5,12.6h-7v0.8h7V12.6z"/>
	<path d="M138.5,9.7c0-4.1,2.7-6.6,6-6.6c1.8,0,3.1,0.8,3.9,1.6l-1.3,1.6c-0.6-0.6-1.3-1.1-2.5-1.1c-2.1,0-3.6,1.6-3.6,4.3
		c0,2.7,1.3,4.4,3.7,4.4c0.6,0,1.2-0.2,1.6-0.5V11h-2.2V8.9h4.5v5.7c-0.8,0.8-2.3,1.5-4.1,1.5C141.1,16.1,138.5,13.8,138.5,9.7z"/>
	<path d="M151.3,3.3h3.5c3.8,0,6.2,2,6.2,6.3c0,4.2-2.4,6.3-6.1,6.3h-3.6V3.3z M154.6,13.9c2.3,0,3.8-1.3,3.8-4.3
		c0-3.1-1.5-4.2-3.8-4.2h-0.8v8.6H154.6z"/>
	<path d="M163.4,3.3h4.1c2.8,0,4.9,1,4.9,4c0,2.9-2.2,4.2-4.9,4.2h-1.7v4.5h-2.5V3.3z M167.5,9.4c1.7,0,2.6-0.7,2.6-2.2
		c0-1.5-0.9-2-2.7-2h-1.4v4.1H167.5z"/>
	<path d="M188.6,7.4c-0.7,2.2-1.7,4.2-2.9,5.8c0.5,1.2,1,1.9,1.6,1.9c0.4,0,0.6-0.8,0.7-3c0.5,0.5,1.2,0.9,1.7,1.1
		c-0.3,3.1-1,3.9-2.6,3.9c-1.2,0-2.1-0.8-2.9-2.2c-0.9,0.9-1.8,1.7-2.9,2.3c-0.3-0.4-1-1.3-1.5-1.7c1.3-0.7,2.5-1.6,3.5-2.8
		c-0.6-1.9-1-4.3-1.2-6.9h-4.9v1.8h4.2c0,0,0,0.5,0,0.8c-0.1,3.6-0.2,5.1-0.5,5.6c-0.3,0.4-0.7,0.6-1.2,0.7c-0.4,0.1-1.2,0.1-2,0.1
		c0-0.6-0.3-1.4-0.6-1.9c0.6,0.1,1.2,0.1,1.5,0.1c0.2,0,0.4,0,0.5-0.2c0.2-0.2,0.2-1.1,0.3-3.2h-2.2c-0.1,2.5-0.4,5.8-1.8,7.9
		c-0.4-0.4-1.3-1.1-1.7-1.4c1.3-2,1.4-5,1.4-7.2V4h6.9c0-0.8-0.1-1.7-0.1-2.5h2.1c0,0.9,0,1.7,0,2.5h2.6c-0.6-0.5-1.5-1.1-2.2-1.5
		l1.2-1.2c0.9,0.5,2.2,1.3,2.8,1.8L187.7,4h1.8v2h-5.3c0.2,1.7,0.4,3.3,0.7,4.7c0.7-1.1,1.2-2.4,1.6-3.8L188.6,7.4z"/>
	<path d="M205.9,12.3c-0.9,0.7-2,1.3-3,1.9c1.1,0.6,2.3,1.1,3.9,1.4c-0.4,0.4-1,1.3-1.3,1.8c-3.8-0.9-6.1-2.8-7.5-6h-2.4V15l3.7-0.7
		c-0.1,0.5-0.2,1.4-0.2,1.8c-4.1,0.9-5,1.1-5.5,1.3l-0.1,0.1c-0.1-0.5-0.5-1.5-0.8-2c0.4-0.2,0.9-0.6,0.9-1.3v-2.8h-2.5V9.6h2.8V2.1
		h10.7v1.6H196v0.9h8.2v1.6H196v0.9h8.2v1.6H196v0.9h10.4v1.8h-1.8L205.9,12.3z M200.1,11.4c0.4,0.6,0.8,1.2,1.4,1.7
		c0.9-0.5,1.8-1.2,2.5-1.7H200.1z"/>
	<path d="M218.2,11.6c-0.1-0.2-0.2-0.5-0.3-0.8c-4.1,0.4-4.7,0.5-5.1,0.7c-0.1-0.3-0.3-1.2-0.5-1.6c-1.1,0.6-2.3,1.2-3.3,1.7l-1-1.6
		c1.1-0.4,2.7-1.1,4.2-1.7l0.4,1.5l-0.3,0.2c0.4-0.1,0.8-0.4,1.4-0.9c0.3-0.2,0.7-0.6,1.3-1.2c-1.3,0.1-1.7,0.2-1.9,0.3
		c-0.1-0.4-0.4-1.1-0.5-1.6c0.3-0.1,0.5-0.3,0.8-0.6c0.2-0.2,0.5-0.6,0.9-1.2h-5.8V2.9h6.3c-0.2-0.3-0.4-0.7-0.6-1l2.1-0.5
		c0.3,0.4,0.7,1,0.9,1.4h6.1v1.8h-7c-0.4,0.5-0.7,1-1.2,1.5l1.5-0.1c0.4-0.4,0.8-0.9,1.1-1.4l1.5,0.9c-1.2,1.4-2.5,2.7-3.9,3.8
		l1.8-0.1c-0.2-0.3-0.4-0.6-0.6-0.9l1.5-0.5c0.3,0.3,0.5,0.7,0.8,1.1l1.1-0.9c1.1,0.6,2.6,1.5,3.4,2.2l-1.5,1.2
		c-0.6-0.6-1.7-1.4-2.7-2c0.3,0.5,0.5,1,0.7,1.4L218.2,11.6z M223.5,14.2h-6.7v3.1h-2.2v-3.1H208v-1.9h6.6v-1.1h2.2v1.1h6.7V14.2z
		 M210.9,8.1c-0.5-0.6-1.6-1.4-2.5-1.9l1.3-1.1c0.9,0.5,2,1.3,2.6,1.8L210.9,8.1z M218.9,7.1c0.7-0.5,1.6-1.4,2.2-2.1l1.7,1
		c-0.7,0.8-1.7,1.5-2.4,2.1L218.9,7.1z"/>
	<path d="M239.9,7.5c-0.7,2.6-1.8,4.7-3.3,6.3c1.2,0.8,2.6,1.4,4.2,1.7c-0.5,0.5-1.1,1.3-1.4,1.9c-1.7-0.5-3.2-1.2-4.4-2.2
		c-1.4,1.1-3.2,1.8-5,2.4c-0.2-0.6-0.7-1.4-1.2-1.9c1.7-0.4,3.3-1.1,4.6-2c-1.2-1.3-2-2.9-2.8-4.8h-0.3c-0.4,2.8-1.4,5.9-4.1,8.2
		c-0.3-0.5-1-1.4-1.5-1.8c3.4-2.9,3.7-7.2,3.7-9.9V4.2h-2.7v-2h10.7c-0.3,1.6-0.6,3.4-1,4.8h2.6l0.4-0.1L239.9,7.5z M230.5,5.5
		c0,0.5,0,1,0,1.5h2.7c0.2-0.9,0.5-1.8,0.7-2.8h-3.4V5.5z M232.5,8.9c0.6,1.3,1.3,2.5,2.3,3.5c1-1,1.7-2.1,2.3-3.5H232.5z"/>
	<path d="M247.2,13.7l1.6,1.3c-1.5,0.9-3.8,1.8-5.6,2.4c-0.3-0.4-0.9-1.1-1.3-1.5c1.8-0.5,4-1.4,5.2-2.1h-5v-1.9h2.9V5h-2.4V3.2h2.4
		V1.5h2v1.6h5.4V1.5h2.1v1.6h2.5V5h-2.5v6.8h2.9v1.9H247.2z M247,5v1.1h5.4V5H247z M247,8.9h5.4V7.8H247V8.9z M247,11.9h5.4v-1.2
		H247V11.9z M252,13.8c1.9,0.7,4.1,1.6,5.4,2.2l-1.9,1.3c-1.1-0.6-3-1.6-4.9-2.2L252,13.8z"/>
	<path d="M269.9,14.5c1.7,0.6,3.5,1.4,4.6,1.9l-2.2,0.9c-1-0.6-2.8-1.4-4.5-2.1l1.3-0.8h-4.5l1.3,0.6c-1.4,1-3.6,1.8-5.3,2.3
		c-0.3-0.4-1.1-1.1-1.5-1.5c1.6-0.3,3.3-0.8,4.5-1.4H261V7.1h11.4v7.5H269.9z M274.2,6.4h-14.9V4.8h6.4v-1h-4.9V2.2h12v1.6h-5v1h6.5
		V6.4z M263.1,9.2h7.3V8.4h-7.3V9.2z M263.1,11.2h7.3v-0.8h-7.3V11.2z M263.1,13.3h7.3v-0.8h-7.3V13.3z"/>
	<path d="M278.2,9.3c0,2.3-0.2,5.6-1.2,7.7c-0.3-0.3-1-0.8-1.4-1c0.9-1.9,1-4.7,1-6.8V3.9h3V1.5h1.9v0.7h3.1v1.2h-3.1v0.6h2.4
		l0.3-0.1l1.2,0.3c-0.2,0.8-0.5,1.7-0.8,2.3L283,6.1c0.1-0.3,0.2-0.6,0.3-0.9h-2.4v0.5l1.9-0.2l0.1,0.9l-2.1,0.2
		c0,0.3,0.1,0.4,0.4,0.4h1.8c0.3,0,0.9,0,1.2-0.1c0,0.3,0,0.7,0.1,1C284.1,8,283.6,8,283.2,8h-2.1c-1.1,0-1.4-0.4-1.4-1.2l-1.2,0.1
		L278.3,6l1.3-0.1V5.2h-1.4v3.1h6.5v1H278.2z M288.9,7.8c0.4,3.3,1.2,6.3,2.9,7.9c-0.5,0.4-1.1,1.1-1.4,1.6
		c-1.1-1.2-1.8-2.9-2.3-4.9c-0.5,1.8-1.3,3.5-2.5,4.9c-0.2-0.3-0.6-0.6-0.9-0.9c-0.1,0.2-0.2,0.3-0.4,0.4c-0.4,0.2-0.9,0.2-1.5,0.2
		c-0.1-0.4-0.2-0.9-0.4-1.2h0.7c0.1,0,0.2,0,0.2-0.2v-2.4h-0.8l0.7,0.3c-0.2,0.3-0.4,0.6-0.6,0.8h0.7v0.9h-1.3V17h-1.2v-1.6h-1.3
		v-0.9h0.7c-0.1-0.3-0.3-0.5-0.5-0.8l0.7-0.3h-0.9v3.7h-1.4v-4.8h6.6v2.8c1.6-2.2,2-5,2.1-7.3h-2V6h2V1.5h1.9V6h2.7v1.8H288.9z
		 M278.9,12V9.8h5V12H278.9z M280.2,11.1h2.3v-0.5h-2.3V11.1z M281.4,14.5c0.2-0.3,0.5-0.8,0.7-1.1h-1.5c0.3,0.3,0.5,0.7,0.7,1.1
		H281.4z M290,5.5c-0.2-0.8-0.7-2-1.2-2.9l1.5-0.5c0.6,0.9,1.1,2.1,1.3,2.8L290,5.5z"/>
	<path d="M306.9,11.5c-0.5-0.5-1.3-1.3-2.2-2c-0.3,0.6-0.7,1.1-1.1,1.5c-0.3-0.2-0.9-0.6-1.3-0.9c1.5,2,3.9,3.8,6.5,4.7
		c-0.5,0.4-1.2,1.3-1.5,1.9c-2.1-1-4-2.5-5.5-4.3v4.9h-2.1v-4.8c-1.5,1.8-3.4,3.3-5.5,4.2c-0.3-0.5-1-1.3-1.4-1.7
		c2.8-1.1,5.4-3.2,6.9-5.5V5.6h-6.2v-2h6.2V1.5h2.1v2.1h6.4v2h-6.4v3.8c0.1,0.1,0.2,0.3,0.3,0.4c1.1-1,1.8-2.5,2.1-4.1l2,0.4
		c-0.2,0.6-0.3,1.2-0.6,1.8c1,0.7,2.1,1.6,2.8,2.2L306.9,11.5z M298.1,6.1c-0.2,0.6-0.4,1.3-0.6,1.8c0.6,0.5,1.3,1.1,1.6,1.5
		l-1.4,1.4c-0.3-0.3-0.7-0.7-1.1-1.2c-0.6,0.9-1.2,1.7-2,2.3c-0.3-0.4-1.1-1-1.6-1.3c1.5-1.1,2.5-2.9,3-4.9L298.1,6.1z"/>
	<path d="M312.5,9.4c-0.6-0.5-1.9-1.2-2.8-1.8l1.1-1.4c0.8,0.4,2.2,1.1,2.8,1.6L312.5,9.4z M314,11.7c-0.6,1.8-1.4,3.8-2.2,5.5
		l-1.9-1.1c0.7-1.3,1.7-3.5,2.4-5.5L314,11.7z M313.3,4.9c-0.6-0.5-1.9-1.3-2.8-1.8l1.2-1.4c0.9,0.5,2.2,1.2,2.8,1.6L313.3,4.9z
		 M322,11.8v3.7c0,0.9-0.1,1.3-0.7,1.6c-0.6,0.3-1.4,0.3-2.4,0.3c-0.1-0.5-0.3-1.2-0.5-1.7c0.6,0,1.3,0,1.5,0s0.3-0.1,0.3-0.2v-3.6
		h-2.7V5.6h2.3c0.2-0.5,0.3-1,0.4-1.4h-3.3v2.9c0,3-0.3,7.5-2.3,10.3c-0.4-0.3-1.2-0.9-1.7-1.1c1.9-2.6,2.1-6.5,2.1-9.2V2.4h10.6
		v1.8h-5l1.9,0.3c-0.2,0.4-0.4,0.7-0.6,1.1h3.2v6.1H322z M319.5,13c-0.5,1.2-1.3,2.6-2,3.5c-0.4-0.3-1.1-0.7-1.6-1
		c0.6-0.8,1.3-2,1.8-3L319.5,13z M319.2,8h3.9V7.1h-3.9V8z M319.2,10.3h3.9v-1h-3.9V10.3z M324.2,12.3c0.5,1,1.3,2.4,1.6,3.2
		l-1.9,0.8c-0.3-0.9-1-2.3-1.5-3.4L324.2,12.3z"/>
	<path d="M327.7,10.5c0-3.4,0.9-6.2,2.5-8.8l1.6,0.7c-1.4,2.5-2.1,5.4-2.1,8.1c0,2.8,0.6,5.7,2.1,8.1l-1.6,0.7
		C328.6,16.7,327.7,13.9,327.7,10.5z"/>
	<path d="M333.2,7c0-2.5,1.3-4,3.1-4s3.1,1.4,3.1,4c0,2.5-1.3,4-3.1,4S333.2,9.6,333.2,7z M337.6,7c0-1.9-0.6-2.5-1.3-2.5
		c-0.7,0-1.3,0.7-1.3,2.5c0,1.9,0.6,2.6,1.3,2.6C337,9.6,337.6,8.9,337.6,7z M343.5,3.1h1.5l-6.8,13.1h-1.5L343.5,3.1z M342.3,12.1
		c0-2.5,1.3-4,3.1-4c1.8,0,3.1,1.4,3.1,4c0,2.5-1.3,4-3.1,4C343.6,16.1,342.3,14.6,342.3,12.1z M346.7,12.1c0-1.9-0.6-2.6-1.3-2.6
		c-0.7,0-1.3,0.7-1.3,2.6s0.6,2.6,1.3,2.6C346.1,14.7,346.7,14,346.7,12.1z"/>
	<path d="M349.9,18.7c1.4-2.5,2.1-5.3,2.1-8.1c0-2.8-0.6-5.6-2.1-8.1l1.5-0.7c1.6,2.6,2.5,5.4,2.5,8.8c0,3.4-0.9,6.2-2.5,8.8
		L349.9,18.7z"/>
</g>
<rect x="10.1" y="220" class="st6" width="18.4" height="8.5"/>
<g class="st18">
	<path d="M167.4,218.8c-0.1,0.1-0.2,0.3-0.3,0.4c1.5,1.7,3.3,2.6,5,3.3c-0.3,0.2-0.6,0.6-0.7,1c-1.7-0.8-3.4-1.8-4.9-3.5
		c-1.3,1.5-3.1,2.7-4.9,3.5c-0.2-0.3-0.5-0.7-0.8-0.9c2.2-0.9,4.3-2.4,5.5-4.2L167.4,218.8z M167.2,228.1h4.4v1h-10.1v-1h1.4v-4.3
		h1.1v4.3h2v-6.3h1.2v2.6h3.3v1h-3.3V228.1z"/>
	<path d="M177.5,227.5c-0.8,0.6-2.3,1.3-3.6,1.5c-0.2-0.2-0.4-0.6-0.7-0.8c1.2-0.2,2.7-0.6,3.4-1.1L177.5,227.5z M183.8,225.7v0.9
		H179v2.8h-1.1v-2.8h-4.7v-0.9h4.7V225h-3.5v-0.8h3.5v-0.7h-4.1v-0.9h2.4c-0.1-0.3-0.3-0.7-0.5-1l0.7-0.2h-3.1v-0.9h1.8
		c-0.2-0.5-0.5-1.1-0.9-1.6l1-0.3c0.4,0.5,0.8,1.2,1,1.7l-0.6,0.2h1.3v-2.1h1v2.1h1.2v-2.1h1.1v2.1h1.3l-0.5-0.2
		c0.3-0.5,0.7-1.2,0.8-1.8l1.2,0.3c-0.3,0.6-0.7,1.2-1,1.6h1.7v0.9h-3.1l0.9,0.2c-0.3,0.4-0.5,0.7-0.8,1h2.5v0.9H179v0.7h3.7v0.8
		H179v0.7H183.8z M176.8,221.3c0.2,0.3,0.5,0.8,0.6,1.1l-0.5,0.1h3.3l-0.4-0.1c0.2-0.3,0.5-0.8,0.7-1.1H176.8z M180.4,227.1
		c1.1,0.4,2.5,1,3.3,1.3l-0.7,0.6c-0.7-0.4-2.2-1-3.3-1.4L180.4,227.1z"/>
	<path d="M195.5,219v10.5h-1.2v-0.5h-7.7v0.5h-1.1V219H195.5z M194.3,227.9V220h-7.7v7.9H194.3z M191,222.6v1.2h2.1v3.1H188v-3.1h2
		v-1.2h-2.7v-0.9h2.7v-1.3h1v1.3h2.7v0.9H191z M192.1,224.6H189v1.4h3.1V224.6z"/>
	<path d="M203.1,228c0.5,0.1,1.1,0.1,1.7,0.1c0.5,0,2.5,0,3.2,0c-0.2,0.3-0.4,0.8-0.4,1.1h-2.9c-2.4,0-4.1-0.4-5.2-2.3
		c-0.4,1-1,1.9-1.7,2.5c-0.2-0.2-0.6-0.6-0.9-0.8c1.3-1,1.9-2.7,2.2-4.8l1.1,0.1c-0.1,0.5-0.2,1-0.3,1.5c0.4,1.1,1.1,1.8,1.9,2.1
		v-4.6h-2.8v-1.1h6.8v1.1h-2.8v1.7h3.4v1h-3.4V228z M198.6,222.5h-1.1v-2.7h4.5c-0.1-0.3-0.3-0.8-0.5-1.1l1.1-0.3
		c0.3,0.4,0.5,1,0.7,1.4h4.2v2.7h-1.1v-1.7h-7.8V222.5z"/>
	<path d="M212.9,224.6c-0.4,0.1-0.8,0.2-1.2,0.3v3.1c0,0.6-0.1,0.9-0.5,1c-0.3,0.2-0.9,0.2-1.7,0.2c0-0.3-0.2-0.7-0.3-1
		c0.5,0,1,0,1.2,0c0.2,0,0.2-0.1,0.2-0.2v-2.8l-1.4,0.4l-0.3-1.1c0.5-0.1,1.1-0.3,1.7-0.4v-2.4h-1.5v-1h1.5v-2.3h1.1v2.3h1.4v1h-1.4
		v2.1l1-0.3L212.9,224.6z M219.2,223.9c-0.5,1.5-1.2,2.6-2.2,3.5c0.9,0.5,1.9,0.9,3,1.1c-0.2,0.2-0.5,0.7-0.7,1
		c-1.2-0.3-2.3-0.8-3.2-1.4c-1,0.6-2.2,1.1-3.4,1.4c-0.1-0.3-0.3-0.8-0.6-1c1.1-0.2,2.1-0.6,3-1.1c-0.8-0.7-1.4-1.6-1.8-2.6l0.3-0.1
		H213v-1h5.3l0.2,0L219.2,223.9z M215.2,220.2c0,1.1-0.3,2.4-1.9,3.2c-0.1-0.2-0.5-0.7-0.7-0.8c1.4-0.7,1.5-1.6,1.5-2.4v-1.3h3.9
		v2.7c0,0.3,0,0.5,0.2,0.5h0.8c0.2,0,0.5,0,0.6-0.1c0,0.3,0,0.7,0.1,0.9c-0.2,0.1-0.4,0.1-0.7,0.1h-0.9c-1,0-1.2-0.4-1.2-1.4v-1.6
		h-1.8V220.2z M214.4,224.7c0.4,0.8,1,1.5,1.7,2c0.7-0.6,1.2-1.2,1.7-2H214.4z"/>
	<path d="M228.5,220.2c0,0.1,0,0.2,0,0.3c0.6,0.7,1.9,1.1,3.5,1.2c-0.2,0.2-0.5,0.6-0.6,0.9c-1.4-0.2-2.5-0.6-3.2-1.3
		c-0.4,0.6-1.4,1.1-3.4,1.4c-0.1-0.3-0.4-0.6-0.6-0.8h-3v-0.9h3.5v0.8c2.6-0.3,2.9-1,2.9-1.5V220h-1c-0.3,0.4-0.6,0.8-0.9,1.1
		c-0.2-0.2-0.6-0.4-0.8-0.6c0.6-0.5,1.1-1.4,1.4-2.2l1,0.2c-0.1,0.2-0.1,0.4-0.2,0.6h3.7l0.2,0l0.8,0.3c-0.3,0.6-0.7,1.3-1,1.8
		l-0.9-0.3c0.2-0.2,0.3-0.5,0.5-0.8h-1.7V220.2z M228.4,227.5c1.2,0.4,2.6,0.9,3.4,1.3l-1,0.6c-0.7-0.4-2-0.9-3.2-1.4l0.7-0.6h-3.6
		l1,0.5c-1,0.6-2.5,1.2-3.7,1.5c-0.2-0.2-0.6-0.6-0.8-0.8c1.2-0.2,2.6-0.6,3.5-1.1h-1.9v-4.8h7.8v4.8H228.4z M224.3,219.9h-2.9v-0.8
		h2.9V219.9z M223.8,224h5.6v-0.7h-5.6V224z M223.8,225.4h5.6v-0.7h-5.6V225.4z M223.8,226.8h5.6v-0.7h-5.6V226.8z"/>
</g>
<rect x="136.7" y="220" class="st5" width="18.4" height="8.5"/>
<g class="st18">
	<path d="M280.5,218.8c-0.3,0.9-0.7,1.7-1.2,2.5v8.1h-1.1v-6.3c-0.3,0.4-0.6,0.8-1,1.2c-0.1-0.3-0.4-0.9-0.6-1.2
		c1.1-1.1,2.2-2.9,2.9-4.6L280.5,218.8z M287.7,228v1.1H280V228h3.3v-2.7h-2.6v-1.1h2.6v-2.4h-3v-1.1h7.2v1.1h-3.1v2.4h2.7v1.1h-2.7
		v2.7H287.7z M283.6,220.7c-0.1-0.5-0.6-1.3-0.9-2l1-0.4c0.4,0.6,0.8,1.4,1,1.9L283.6,220.7z"/>
	<path d="M290.2,222.1h-1.1v-2.5h4.5c-0.1-0.3-0.3-0.6-0.4-0.9l1.1-0.3c0.2,0.4,0.5,0.8,0.6,1.2h4.3v2.5H298v-1.5h-7.8V222.1z
		 M297.4,228.1c0.6,0,0.8-0.3,0.9-1.6c0.3,0.2,0.8,0.4,1.1,0.5c-0.2,1.7-0.5,2.2-1.9,2.2H295c-1.6,0-2-0.4-2-1.7v-1.9h-3.7v-1.1h3.7
		v-1.5c-0.9,0.1-1.9,0.3-2.8,0.3c0-0.3-0.2-0.7-0.3-1c2.4-0.3,5.1-0.7,6.7-1.3l0.9,0.9c-0.9,0.3-2,0.6-3.2,0.8v1.7h4.4v1.1h-4.4v1.9
		c0,0.5,0.1,0.6,0.9,0.6H297.4z"/>
	<path d="M304.5,224.6c-0.4,0.1-0.8,0.2-1.2,0.3v3.1c0,0.6-0.1,0.9-0.5,1c-0.3,0.2-0.9,0.2-1.7,0.2c0-0.3-0.2-0.7-0.3-1
		c0.5,0,1,0,1.2,0c0.2,0,0.2-0.1,0.2-0.2v-2.8l-1.4,0.4l-0.3-1.1c0.5-0.1,1.1-0.3,1.7-0.4v-2.4h-1.5v-1h1.5v-2.3h1.1v2.3h1.4v1h-1.4
		v2.1l1-0.3L304.5,224.6z M310.9,223.9c-0.5,1.5-1.2,2.6-2.2,3.5c0.9,0.5,1.9,0.9,3,1.1c-0.2,0.2-0.5,0.7-0.7,1
		c-1.2-0.3-2.3-0.8-3.2-1.4c-1,0.6-2.2,1.1-3.4,1.4c-0.1-0.3-0.3-0.8-0.6-1c1.1-0.2,2.1-0.6,3-1.1c-0.8-0.7-1.4-1.6-1.8-2.6l0.3-0.1
		h-0.6v-1h5.3l0.2,0L310.9,223.9z M306.8,220.2c0,1.1-0.3,2.4-1.9,3.2c-0.1-0.2-0.5-0.7-0.7-0.8c1.4-0.7,1.5-1.6,1.5-2.4v-1.3h3.9
		v2.7c0,0.3,0,0.5,0.2,0.5h0.8c0.2,0,0.5,0,0.6-0.1c0,0.3,0,0.7,0.1,0.9c-0.2,0.1-0.4,0.1-0.7,0.1h-0.9c-1,0-1.2-0.4-1.2-1.4v-1.6
		h-1.8V220.2z M306.1,224.7c0.4,0.8,1,1.5,1.7,2c0.7-0.6,1.2-1.2,1.7-2H306.1z"/>
	<path d="M320.1,220.2c0,0.1,0,0.2,0,0.3c0.6,0.7,1.9,1.1,3.5,1.2c-0.2,0.2-0.5,0.6-0.6,0.9c-1.4-0.2-2.5-0.6-3.2-1.3
		c-0.4,0.6-1.4,1.1-3.4,1.4c-0.1-0.3-0.4-0.6-0.6-0.8h-3v-0.9h3.5v0.8c2.6-0.3,2.9-1,2.9-1.5V220h-1c-0.3,0.4-0.6,0.8-0.9,1.1
		c-0.2-0.2-0.6-0.4-0.8-0.6c0.6-0.5,1.1-1.4,1.4-2.2l1,0.2c-0.1,0.2-0.1,0.4-0.2,0.6h3.7l0.2,0l0.8,0.3c-0.3,0.6-0.7,1.3-1,1.8
		l-0.9-0.3c0.2-0.2,0.3-0.5,0.5-0.8h-1.7V220.2z M320,227.5c1.2,0.4,2.6,0.9,3.4,1.3l-1,0.6c-0.7-0.4-2-0.9-3.2-1.4l0.7-0.6h-3.6
		l1,0.5c-1,0.6-2.5,1.2-3.7,1.5c-0.2-0.2-0.6-0.6-0.8-0.8c1.2-0.2,2.6-0.6,3.5-1.1h-1.9v-4.8h7.8v4.8H320z M315.9,219.9H313v-0.8
		h2.9V219.9z M315.4,224h5.6v-0.7h-5.6V224z M315.4,225.4h5.6v-0.7h-5.6V225.4z M315.4,226.8h5.6v-0.7h-5.6V226.8z"/>
</g>
<rect x="252.4" y="220" class="st2" width="18.4" height="8.5"/>
<g class="st18">
	<path d="M369.5,223.9c-0.4-0.4-1.3-1-2.1-1.3l0.5-0.8c0.7,0.3,1.6,0.8,2.1,1.2L369.5,223.9z M367.7,228.5c0.6-0.9,1.4-2.4,2.1-3.7
		l0.7,0.7c-0.6,1.2-1.3,2.6-1.9,3.7L367.7,228.5z M370.1,220.8c-0.4-0.4-1.3-1-2-1.4l0.6-0.8c0.7,0.3,1.6,0.9,2.1,1.3L370.1,220.8z
		 M378.5,224.9h-0.9v1.8h-2.8v1.5c0,0.6-0.1,0.9-0.5,1c-0.4,0.2-1,0.2-1.9,0.2c0-0.3-0.2-0.7-0.3-1c0.6,0,1.3,0,1.5,0
		c0.2,0,0.3-0.1,0.3-0.2v-1.5h-2.7v-0.9h2.7v-0.9h-3.3v-1h3.3V223h-2.6v-0.9h0.6c-0.1-0.4-0.4-1-0.7-1.5l0.8-0.3
		c0.3,0.4,0.6,1,0.7,1.4l-0.8,0.3h5.7v1.8h0.9V224.9z M377.7,219.3c-1.8,0.5-4.4,0.8-6.6,0.9c0-0.3-0.2-0.6-0.3-0.9
		c2.2-0.2,4.7-0.5,6.1-0.9L377.7,219.3z M374.1,222c-0.1-0.4-0.3-1.1-0.6-1.6l0.8-0.3c0.3,0.5,0.5,1.2,0.6,1.6L374.1,222z
		 M374.8,223.9h1.8V223h-1.8V223.9z M376.7,224.9h-1.8v0.9h1.8V224.9z M375.8,221.7c0.3-0.5,0.7-1.3,0.9-1.8l1,0.3
		c-0.3,0.7-0.7,1.3-1.1,1.8L375.8,221.7z"/>
	<path d="M389.8,224.3v5.1h-1.2v-0.7h-8.3v-4.4h1.2v3.3h2.9v-4h-3.6v-4.2h1.2v3.1h2.4v-4.2h1.2v4.2h2.5v-3.1h1.2v4.2h-3.7v4h2.9
		v-3.3H389.8z"/>
	<path d="M401.6,219.6v9.5h-1.2v-0.9h-6.7v1h-1.2v-9.5H401.6z M400.4,227v-6.3h-6.7v6.3H400.4z"/>
</g>
<rect x="343.3" y="220" class="st4" width="18.4" height="8.5"/>
<g class="st18">
	<path d="M44.7,243.9c-0.3,1.9-0.8,3.5-1.5,4.7c0.6,0.9,1.4,1.6,2.4,2.1c-0.3,0.2-0.6,0.6-0.8,0.9c-0.9-0.5-1.7-1.2-2.3-2
		c-0.7,0.8-1.5,1.5-2.6,2.1c-0.1-0.3-0.4-0.8-0.6-1c1.1-0.5,2-1.2,2.6-2.1c-0.5-0.9-0.8-1.9-1.1-3c-0.2,0.3-0.4,0.7-0.6,1
		c-0.1-0.2-0.4-0.4-0.7-0.6h-1.3v2.8l1.9-0.4l0.1,1c-2,0.5-4.1,1-5.6,1.3l-0.2-1.1l0.7-0.1v-5.2h1v5l1-0.2v-6.4h-2.4v-1.1H40v1.1
		h-1.9v2.4h1.5v0.4c0.8-1.2,1.3-2.9,1.6-4.6l1.1,0.2c-0.1,0.7-0.3,1.4-0.5,2h3.6v1H44.7z M41.4,244.1c0.3,1.3,0.6,2.4,1.1,3.4
		c0.5-1,0.8-2.2,1-3.6h-2L41.4,244.1z"/>
	<path d="M48.4,242.9v3c0,1.7-0.1,4.2-1.1,5.8c-0.2-0.2-0.7-0.5-1-0.6c0.8-1.5,0.9-3.6,0.9-5.2v-4h4.6c-0.2-0.4-0.3-0.8-0.5-1.1
		l1.1-0.3c0.2,0.4,0.5,0.9,0.6,1.4h4.1v1H48.4z M51.8,243.4c-0.2,0.6-0.5,1.3-0.9,2v6.3h-1V247c-0.3,0.3-0.5,0.6-0.8,0.9
		c-0.1-0.3-0.3-0.8-0.5-1c1-0.9,1.8-2.4,2.1-3.7L51.8,243.4z M57.3,246h-1.3v4.4c0,0.6-0.1,0.9-0.5,1.1c-0.4,0.2-1,0.2-2,0.2
		c0-0.3-0.2-0.8-0.3-1.1c0.6,0,1.3,0,1.5,0c0.2,0,0.3-0.1,0.3-0.2V246h-3.4v-1H55v-1.7h1.1v1.7h1.3V246z M52.8,246.7
		c0.5,0.7,1,1.7,1.3,2.3l-0.9,0.4c-0.3-0.6-0.8-1.6-1.3-2.4L52.8,246.7z"/>
</g>
<rect x="10.1" y="242.2" class="st3" width="18.4" height="8.5"/>
<g class="st18">
	<path d="M163,242.6v2.8c0,1.9-0.2,4.5-1.2,6.2c-0.2-0.2-0.6-0.5-0.9-0.6c1-1.6,1-3.9,1-5.6v-3.8h4.6c-0.1-0.3-0.3-0.5-0.4-0.7
		l1-0.3c0.2,0.3,0.4,0.7,0.6,1h4.1v1H163z M171.9,250.3h-4v1.3h-1.1v-1.3h-3.8v-0.9h3.8v-0.7H164V245h2.9v-0.6h-3.3v-0.9h3.3v-0.7
		h1.1v0.7h3.6v0.9h-3.6v0.6h3v3.7h-3v0.7h4V250.3z M164.9,246.5h1.9v-0.7h-1.9V246.5z M166.9,247.9v-0.8h-1.9v0.8H166.9z
		 M167.9,245.7v0.7h2v-0.7H167.9z M169.9,247.2h-2v0.8h2V247.2z"/>
	<path d="M177.3,243.3c-0.4,0.9-0.9,1.8-1.5,2.6v5.8h-1.1v-4.5c-0.4,0.4-0.8,0.8-1.3,1.1c-0.1-0.3-0.4-0.8-0.6-1
		c1.4-0.9,2.5-2.4,3.2-3.9h-2.8v-1.1h3.3c0.2-0.5,0.4-1,0.5-1.6l1.2,0.3c-0.1,0.4-0.3,0.9-0.4,1.3h6v1.1H177.3z M183.9,248.5h-3v1.9
		c0,0.6-0.1,0.9-0.6,1.1c-0.4,0.2-1.1,0.2-2.1,0.2c0-0.3-0.2-0.8-0.3-1.1c0.7,0,1.4,0,1.6,0c0.2,0,0.3-0.1,0.3-0.2v-1.9h-3.2v-1h3.2
		v-0.9c0.5-0.3,1-0.7,1.5-1.1h-3.7v-1h4.7l0.2-0.1l0.7,0.6c-0.6,0.7-1.5,1.4-2.3,1.9v0.6h3V248.5z"/>
	<path d="M193.9,248.7c-0.5,0.6-1.2,1.1-2,1.5c1.3,0.3,2.7,0.5,4.1,0.6c-0.2,0.2-0.5,0.6-0.6,0.9c-1.7-0.2-3.4-0.5-4.8-1
		c-1.5,0.5-3.3,0.8-5.1,1c-0.1-0.3-0.3-0.7-0.5-0.9c1.5-0.1,3-0.3,4.3-0.6c-0.7-0.3-1.3-0.7-1.8-1.1c-0.6,0.4-1.2,0.8-1.8,1
		c-0.1-0.2-0.4-0.6-0.6-0.8c1.2-0.5,2.5-1.2,3.1-2.2l1,0.3c-0.1,0.2-0.2,0.3-0.4,0.5h6.6v0.8H193.9z M186.1,245.7
		c-0.1,0.7-0.2,1.5-0.4,2c-0.1-0.1-0.4-0.3-0.6-0.4c0.2-0.5,0.3-1.2,0.3-1.8L186.1,245.7z M188,245.3c0-0.1,0-0.3-0.1-0.4
		c-2.1,0.3-2.4,0.3-2.6,0.4c0-0.2-0.2-0.5-0.2-0.7c0.2,0,0.4-0.2,0.7-0.5c0.1-0.1,0.4-0.4,0.7-0.8c-0.9,0.1-1.1,0.1-1.2,0.2
		c0-0.2-0.2-0.6-0.3-0.8c0.2,0,0.3-0.2,0.5-0.4c0.2-0.2,0.7-1,1.1-1.7l0.8,0.3c-0.3,0.6-0.8,1.3-1.2,1.8l0.9,0
		c0.2-0.3,0.4-0.6,0.6-0.9l0.8,0.3c-0.6,0.9-1.3,1.7-2,2.3l1.2-0.2c-0.1-0.2-0.2-0.4-0.3-0.6l0.6-0.2c0.3,0.5,0.5,1.2,0.6,1.7
		L188,245.3z M186.6,247.4c0-0.5-0.1-1.2-0.2-1.7l0.7-0.1c0.1,0.5,0.2,1.2,0.3,1.7L186.6,247.4z M187.9,247.1
		c-0.1-0.4-0.2-1-0.4-1.5l0.6-0.2c0.2,0.5,0.3,1.1,0.4,1.5L187.9,247.1z M188.3,248.7c0.6,0.4,1.4,0.8,2.3,1.1
		c0.8-0.3,1.5-0.6,2-1.1H188.3z M192.3,242.3h-3.7v-0.6h1.5c-0.1-0.3-0.2-0.6-0.4-0.8l0.8-0.3c0.2,0.3,0.4,0.7,0.5,1.1h1.2V242.3z
		 M192.1,243.4h-3.2v-0.6h3.2V243.4z M192.1,244.5h-3.2v-0.6h3.2V244.5z M188.9,247.2V245h3.1v2.2H188.9z M189.6,246.5h1.7v-0.9
		h-1.7V246.5z M195.2,245.3c0-0.1-0.1-0.3-0.1-0.5c-2.1,0.3-2.4,0.3-2.6,0.4c0-0.2-0.2-0.5-0.2-0.7c0.2,0,0.4-0.2,0.7-0.5
		c0.1-0.1,0.4-0.4,0.7-0.7c-0.8,0.1-1.1,0.1-1.2,0.2c0-0.2-0.2-0.6-0.3-0.8c0.2,0,0.3-0.2,0.5-0.4c0.2-0.2,0.7-1,1-1.7l0.8,0.3
		c-0.3,0.6-0.8,1.3-1.2,1.8l0.8,0c0.2-0.3,0.4-0.6,0.6-0.9l0.7,0.3c-0.6,0.8-1.2,1.6-1.9,2.3l1.2-0.1c-0.1-0.2-0.2-0.5-0.3-0.7
		l0.6-0.2c0.3,0.6,0.5,1.3,0.6,1.7L195.2,245.3z M193.3,245.6c-0.1,0.6-0.2,1.4-0.4,1.9c-0.1-0.1-0.5-0.3-0.6-0.4
		c0.1-0.5,0.2-1.1,0.3-1.7L193.3,245.6z M193.9,247.3c0-0.5-0.1-1.2-0.2-1.7l0.7-0.1c0.1,0.5,0.2,1.2,0.3,1.7L193.9,247.3z
		 M195.2,247.2c-0.1-0.5-0.3-1.2-0.4-1.7l0.6-0.1c0.2,0.5,0.4,1.2,0.5,1.7L195.2,247.2z"/>
	<path d="M207.8,243.4c0,0,0,0.4,0,0.5c-0.1,5-0.2,6.7-0.6,7.2c-0.2,0.4-0.5,0.5-0.9,0.5c-0.4,0-0.9,0-1.5,0c0-0.3-0.1-0.8-0.3-1.1
		c0.6,0,1,0,1.3,0c0.2,0,0.3,0,0.4-0.2c0.3-0.3,0.4-1.9,0.5-6h-1.4c-0.2,3.2-0.7,5.7-2.8,7.3c-0.2-0.3-0.5-0.6-0.8-0.8
		c0.1,0,0.1-0.1,0.2-0.2c-1.7,0.2-3.5,0.4-4.7,0.5l-0.1-0.9c0.7,0,1.6-0.1,2.5-0.2v-0.9h-2.2v-0.8h2.2v-0.6h-2.1v-3.6h2.1v-0.6H197
		v-0.8h2.5V242c-0.7,0.1-1.5,0.1-2.1,0.1c0-0.2-0.2-0.6-0.3-0.8c1.8-0.1,3.9-0.3,5.1-0.6l0.5,0.8c-0.6,0.1-1.4,0.3-2.3,0.3v0.8h2.4
		v0.7h1.3c0-0.8,0-1.7,0-2.6h1.1c0,0.9,0,1.8,0,2.6H207.8z M198.3,245.6h1.2v-0.7h-1.2V245.6z M199.5,247v-0.7h-1.2v0.7H199.5z
		 M200.5,250c0.7-0.1,1.5-0.1,2.3-0.2c1-1.4,1.3-3.2,1.4-5.3h-1.3v-0.9h-2.4v0.6h2.2v3.6h-2.2v0.6h2.3v0.8h-2.3V250z M201.8,245.6
		v-0.7h-1.3v0.7H201.8z M200.5,246.3v0.7h1.3v-0.7H200.5z"/>
</g>
<rect x="136.7" y="242.2" class="st1" width="18.4" height="8.5"/>
<g class="st18">
	<path d="M287.6,244v0.8h-2.1l-0.1,1h-6.9l0.1-1h-1.9V244h2l0.1-1h6.8l-0.1,1H287.6z M283.9,250c1.2,0.3,2.5,0.7,3.3,1l-0.8,0.7
		c-0.8-0.3-2.3-0.8-3.6-1.2l0.5-0.5h-2.4l0.7,0.5c-1,0.5-2.6,1-4,1.2c-0.1-0.2-0.4-0.6-0.6-0.8c1.2-0.2,2.6-0.5,3.4-0.9h-2.1v-3.8
		h7.7v3.8H283.9z M278.2,243.6h-1v-2h4.5c-0.1-0.3-0.3-0.6-0.4-0.8l1-0.3c0.3,0.3,0.5,0.7,0.6,1.1h4.4v2h-1.1v-1.1h-8V243.6z
		 M279.4,247.3h5.4v-0.5h-5.4V247.3z M279.4,248.3h5.4v-0.5h-5.4V248.3z M279.4,249.4h5.4v-0.5h-5.4V249.4z M279.6,245.2h2
		c0-0.2,0-0.3,0.1-0.5h-2L279.6,245.2z M279.8,243.6l-0.1,0.5h1.9l0-0.5H279.8z M284.4,245.2l0-0.5h-1.9c0,0.2,0,0.3-0.1,0.5H284.4z
		 M284.6,243.6h-1.9l0,0.5h1.9L284.6,243.6z"/>
	<path d="M290.5,243.3c-0.1,0.6-0.5,1.2-1.1,1.7c-0.1-0.2-0.5-0.6-0.7-0.7c0.9-0.7,1-1.5,1-2.2v-0.9c1.2-0.1,2.7-0.3,3.5-0.5
		l0.7,0.7c-0.8,0.3-2.1,0.5-3.2,0.5v0.2c0,0.1,0,0.2,0,0.3h3.4v0.9h-1.3v1.3h-1v-1.3H290.5z M295.9,249.7c1.3,0.3,2.6,0.8,3.5,1.2
		l-0.5,0.8c-0.9-0.4-2.2-0.9-3.6-1.3l0.4-0.7h-3.3l0.8,0.5c-1,0.6-2.6,1.2-3.8,1.5c-0.1-0.2-0.4-0.7-0.5-0.9c1.1-0.2,2.5-0.6,3.4-1
		h-1.9v-4.9h7.6v4.9H295.9z M291.4,246.3h5.4v-0.7h-5.4V246.3z M291.4,247.6h5.4v-0.7h-5.4V247.6z M291.4,249h5.4v-0.7h-5.4V249z
		 M299.5,242.4v0.9h-1.8v1.4l-1,0v-1.4h-1.3c-0.1,0.6-0.4,1.1-0.8,1.6c-0.2-0.2-0.6-0.5-0.8-0.6c0.7-0.7,0.9-1.5,0.9-2.2v-0.9
		c1.3-0.1,2.9-0.2,3.7-0.5l0.7,0.6c-0.9,0.3-2.3,0.5-3.5,0.6v0.2c0,0.1,0,0.2,0,0.3H299.5z"/>
	<path d="M300.8,246.3c0-2.9,1.8-4.6,4.1-4.6c1.2,0,2.1,0.6,2.6,1.1l-0.8,0.9c-0.4-0.4-1-0.8-1.8-0.8c-1.6,0-2.7,1.3-2.7,3.3
		c0,2.1,1,3.4,2.8,3.4c0.5,0,1.1-0.2,1.4-0.4v-2.1h-1.8V246h3v3.8c-0.6,0.6-1.6,1-2.8,1C302.5,250.9,300.8,249.2,300.8,246.3z"/>
	<path d="M309.7,241.9h2.3c2.7,0,4.3,1.5,4.3,4.4c0,2.9-1.5,4.4-4.2,4.4h-2.4V241.9z M311.9,249.6c1.9,0,2.9-1.1,2.9-3.3
		c0-2.2-1-3.3-2.9-3.3h-0.8v6.6H311.9z"/>
	<path d="M318.1,241.9h2.7c2,0,3.4,0.7,3.4,2.7c0,1.9-1.4,2.8-3.3,2.8h-1.3v3.3h-1.4V241.9z M320.7,246.2c1.4,0,2.1-0.5,2.1-1.7
		c0-1.2-0.7-1.5-2.1-1.5h-1.2v3.3H320.7z"/>
</g>
<rect x="252.4" y="242.2" class="st16" width="18.4" height="8.5"/>
</svg>
