<?xml version="1.0" encoding="utf-8"?>
<!-- Generator: Adobe Illustrator 23.0.1, SVG Export Plug-In . SVG Version: 6.00 Build 0)  -->
<svg version="1.1" id="圖層_1" xmlns="http://www.w3.org/2000/svg" xmlns:xlink="http://www.w3.org/1999/xlink" x="0px" y="0px"
	 viewBox="0 0 900 600" style="enable-background:new 0 0 900 600;" xml:space="preserve">
<style type="text/css">
	.st0{fill:#DE2910;}
	.st1{fill:#FFDE00;}
</style>
<rect y="0" class="st0" width="900" height="600"/>
<g>
	<polygon class="st1" points="170.21,122.19 150,60 129.79,122.19 64.4,122.19 117.31,160.62 97.1,222.81 150,184.38 202.9,222.81 
		182.69,160.62 235.6,122.19 	"/>
	<polygon class="st1" points="295.52,70.55 306.73,89.24 308.64,67.52 329.88,62.63 309.83,54.1 311.74,32.39 297.43,48.83 
		277.37,40.3 288.59,58.99 274.28,75.43 	"/>
	<polygon class="st1" points="351.78,127.98 354.86,149.56 365.05,130.29 386.52,134.02 371.34,118.38 381.53,99.11 361.96,108.71 
		346.79,93.07 349.87,114.64 330.3,124.24 	"/>
	<polygon class="st1" points="371.02,213.15 388.18,199.71 366.4,200.49 358.92,180.02 352.94,200.98 331.15,201.76 349.24,213.93 
		343.25,234.89 360.41,221.45 378.49,233.62 	"/>
	<polygon class="st1" points="309.57,263.7 310.58,241.93 296.97,258.95 276.57,251.26 288.55,269.47 274.94,286.49 295.96,280.72 
		307.94,298.93 308.95,277.16 329.97,271.39 	"/>
</g>
</svg>
