<?xml version="1.0" encoding="utf-8"?>
<!-- Generator: Adobe Illustrator 23.0.1, SVG Export Plug-In . SVG Version: 6.00 Build 0)  -->
<svg version="1.1" xmlns="http://www.w3.org/2000/svg" xmlns:xlink="http://www.w3.org/1999/xlink" x="0px" y="0px"
	 viewBox="0 0 1599.05 1823" style="enable-background:new 0 0 1599.05 1823;" xml:space="preserve">
<style type="text/css">
	.st0{fill:#F2F2F2;}
	.st1{fill:#FFFFFF;}
	.st2{fill:#FCBB3B;}
	.st3{fill:#FAFCFC;}
	.st4{fill:#FA5A3A;}
	.st5{fill:#FCFCFC;}
	.st6{fill-rule:evenodd;clip-rule:evenodd;fill:url(#SVGID_1_);}
	.st7{fill:#2D3C51;}
	.st8{fill-rule:evenodd;clip-rule:evenodd;fill:url(#SVGID_2_);}
	.st9{opacity:0.18;fill:#FFFFFF;}
	.st10{opacity:0.18;}
</style>
<g id="Layer_2">
</g>
<g id="Layer_6">
</g>
<g id="Layer_7">
</g>
<g id="Layer_8">
	<g>
		
			<rect x="767.17" y="1179.43" transform="matrix(0.2741 0.9617 -0.9617 0.2741 2172.4714 90.9582)" class="st0" width="517.62" height="610.22"/>
		
			<rect x="478.28" y="991.98" transform="matrix(0.7957 0.6056 -0.6056 0.7957 936.1109 -181.4723)" class="st1" width="517.62" height="610.22"/>
		
			<rect x="104.34" y="267.68" transform="matrix(0.739 -0.6737 0.6737 0.739 -257.441 597.4932)" class="st2" width="1076.15" height="726.65"/>
		<path class="st3" d="M924.1,711.04l44.53-232.5c4.31-22.52,26.27-37.42,48.8-33.11l364.85,69.87
			c22.53,4.31,37.43,26.27,33.11,48.8l-44.53,232.5c-4.31,22.52-26.27,37.42-48.8,33.11l-364.85-69.87
			C934.69,755.52,919.79,733.56,924.1,711.04z"/>
		<path class="st4" d="M1328.71,553.41c-3.2,16.13-6.25,32.29-9.35,48.44c-1.77,9.2-3.79,18.36-5.19,27.61
			c-1.75,11.64,5.3,22.6,16.47,26.45c10.56,3.64,23.06-0.79,29.12-10.03c1.02-3.12,2.39-6.17,3.02-9.36
			c4.85-24.59,9.61-49.21,14.3-73.83c2.29-12.01-4.15-23.71-15.14-27.82C1347.16,529.34,1331.79,537.86,1328.71,553.41z"/>
		<path class="st5" d="M1365.4,599.78c-0.9,4.68-1.79,9.3-2.68,13.91c-1.45,7.54-2.79,15.1-4.36,22.61
			c-2.56,12.27-14.11,19.32-25.75,15.84c-9.39-2.81-15.73-12.17-14.12-21.83c2.11-12.68,4.75-25.27,7.21-38.19
			C1339.02,594.69,1352.1,597.22,1365.4,599.78z"/>
		<path class="st4" d="M1299.51,704.66c-3.2,16.13-6.25,32.29-9.35,48.44c-1.77,9.2-3.79,18.36-5.19,27.61
			c-1.75,11.64,5.3,22.6,16.47,26.45c10.56,3.64,23.06-0.79,29.12-10.03c1.02-3.12,2.39-6.17,3.02-9.36
			c4.85-24.59,9.6-49.21,14.3-73.83c2.29-12.01-4.15-23.71-15.14-27.82C1317.96,680.6,1302.59,689.12,1299.51,704.66z"/>
		<path class="st5" d="M1336.2,751.04c-0.9,4.68-1.79,9.3-2.68,13.91c-1.45,7.54-2.79,15.1-4.36,22.61
			c-2.56,12.27-14.11,19.32-25.75,15.84c-9.38-2.81-15.73-12.17-14.12-21.83c2.11-12.68,4.75-25.27,7.21-38.19
			C1309.82,745.95,1322.9,748.47,1336.2,751.04z"/>
		<path class="st4" d="M1221.58,687.56c-3.2,16.13-6.25,32.29-9.35,48.44c-1.77,9.2-3.79,18.36-5.19,27.61
			c-1.75,11.64,5.3,22.6,16.47,26.45c10.56,3.64,23.06-0.79,29.11-10.03c1.02-3.12,2.39-6.17,3.02-9.36
			c4.85-24.59,9.6-49.21,14.3-73.83c2.29-12.01-4.15-23.71-15.14-27.82C1240.03,663.5,1224.66,672.02,1221.58,687.56z"/>
		<path class="st5" d="M1258.26,733.94c-0.9,4.68-1.79,9.3-2.68,13.91c-1.45,7.54-2.79,15.1-4.36,22.61
			c-2.56,12.27-14.11,19.32-25.75,15.84c-9.39-2.81-15.73-12.17-14.12-21.83c2.11-12.68,4.75-25.27,7.21-38.19
			C1231.89,728.85,1244.97,731.37,1258.26,733.94z"/>
		<path class="st4" d="M1248.97,538.36c-3.2,16.13-6.25,32.29-9.35,48.44c-1.77,9.2-3.79,18.36-5.19,27.61
			c-1.75,11.64,5.3,22.6,16.47,26.45c10.56,3.64,23.06-0.79,29.12-10.03c1.02-3.12,2.39-6.17,3.02-9.36
			c4.85-24.59,9.6-49.21,14.3-73.83c2.29-12.01-4.15-23.71-15.14-27.82C1267.42,514.29,1252.05,522.81,1248.97,538.36z"/>
		<path class="st5" d="M1285.66,584.73c-0.9,4.68-1.79,9.3-2.68,13.91c-1.45,7.54-2.79,15.1-4.36,22.61
			c-2.56,12.27-14.11,19.32-25.75,15.84c-9.39-2.81-15.73-12.17-14.12-21.83c2.11-12.68,4.75-25.27,7.21-38.19
			C1259.29,579.64,1272.37,582.17,1285.66,584.73z"/>
		<path class="st4" d="M1142.99,671.14c-3.2,16.13-6.25,32.29-9.35,48.44c-1.77,9.2-3.79,18.36-5.19,27.61
			c-1.75,11.64,5.3,22.6,16.47,26.45c10.56,3.64,23.06-0.79,29.12-10.03c1.02-3.12,2.39-6.17,3.02-9.36
			c4.85-24.59,9.61-49.21,14.3-73.83c2.29-12.01-4.15-23.71-15.14-27.82C1161.44,647.08,1146.07,655.6,1142.99,671.14z"/>
		<path class="st5" d="M1179.68,717.52c-0.9,4.68-1.79,9.3-2.68,13.91c-1.45,7.54-2.79,15.1-4.36,22.61
			c-2.56,12.27-14.11,19.32-25.75,15.84c-9.39-2.81-15.73-12.17-14.12-21.83c2.11-12.68,4.75-25.27,7.21-38.19
			C1153.3,712.43,1166.38,714.96,1179.68,717.52z"/>
		<path class="st4" d="M1067.16,660.17c-3.2,16.13-6.25,32.29-9.35,48.44c-1.77,9.2-3.79,18.36-5.19,27.61
			c-1.75,11.64,5.3,22.6,16.47,26.45c10.56,3.64,23.06-0.79,29.12-10.03c1.02-3.12,2.39-6.17,3.02-9.36
			c4.85-24.59,9.6-49.21,14.3-73.83c2.29-12.01-4.15-23.71-15.14-27.82C1085.61,636.1,1070.24,644.62,1067.16,660.17z"/>
		<path class="st5" d="M1103.85,706.54c-0.9,4.68-1.79,9.3-2.68,13.91c-1.45,7.54-2.79,15.1-4.36,22.61
			c-2.56,12.27-14.11,19.32-25.75,15.84c-9.39-2.81-15.73-12.17-14.12-21.83c2.11-12.68,4.75-25.27,7.21-38.19
			C1077.48,701.45,1090.56,703.98,1103.85,706.54z"/>
		<path class="st4" d="M988.57,645.11c-3.2,16.13-6.25,32.29-9.35,48.44c-1.77,9.2-3.79,18.36-5.19,27.61
			c-1.75,11.64,5.3,22.6,16.47,26.45c10.56,3.64,23.06-0.79,29.12-10.03c1.02-3.12,2.39-6.17,3.02-9.36
			c4.85-24.59,9.61-49.21,14.3-73.83c2.29-12.01-4.15-23.71-15.14-27.82C1007.03,621.05,991.65,629.57,988.57,645.11z"/>
		<path class="st5" d="M1025.26,691.49c-0.9,4.68-1.79,9.3-2.68,13.91c-1.45,7.54-2.79,15.1-4.36,22.61
			c-2.56,12.27-14.11,19.32-25.75,15.84c-9.39-2.81-15.73-12.17-14.12-21.83c2.11-12.68,4.75-25.27,7.21-38.19
			C998.89,686.4,1011.97,688.93,1025.26,691.49z"/>
		<path class="st4" d="M1173.57,526.01c-3.2,16.13-6.25,32.29-9.35,48.44c-1.77,9.2-3.79,18.36-5.19,27.61
			c-1.75,11.64,5.3,22.6,16.47,26.45c10.56,3.64,23.06-0.79,29.12-10.03c1.02-3.12,2.39-6.17,3.02-9.36
			c4.85-24.59,9.61-49.21,14.3-73.83c2.29-12.01-4.15-23.71-15.14-27.82C1192.02,501.95,1176.65,510.46,1173.57,526.01z"/>
		<linearGradient id="SVGID_1_" gradientUnits="userSpaceOnUse" x1="1186.8569" y1="1295.5486" x2="1237.5662" y2="1248.2616">
			<stop  offset="0" style="stop-color:#BBBDBF"/>
			<stop  offset="0.0914" style="stop-color:#F2F2F2"/>
			<stop  offset="0.1151" style="stop-color:#E4E4E5"/>
			<stop  offset="0.1569" style="stop-color:#D2D3D4"/>
			<stop  offset="0.2067" style="stop-color:#C5C6C8"/>
			<stop  offset="0.2718" style="stop-color:#BDBFC1"/>
			<stop  offset="0.41" style="stop-color:#BBBDBF"/>
			<stop  offset="0.73" style="stop-color:#BBBDBF"/>
			<stop  offset="0.85" style="stop-color:#FFFFFF"/>
			<stop  offset="0.92" style="stop-color:#BBBDBF"/>
			<stop  offset="1" style="stop-color:#BBBDBF"/>
		</linearGradient>
		<polygon class="st6" points="1229.56,1339.44 1278.77,1292.73 1194.87,1204.36 1145.66,1251.08 		"/>
		<path class="st7" d="M1236.92,942.94c-13.14-31.09-31.97-59.01-55.94-82.98c-23.97-23.97-51.89-42.79-82.98-55.94
			c-21.8-9.22-44.51-15.36-67.84-18.37c-11.13-1.44-22.41-2.16-33.78-2.16c-18.98,0-37.66,2.01-55.88,5.98
			c-15.61,3.4-30.89,8.26-45.74,14.54c-31.09,13.15-59.01,31.97-82.98,55.94c-23.97,23.98-42.79,51.89-55.94,82.98
			c-13.62,32.2-20.52,66.39-20.52,101.62c0,35.24,6.91,69.43,20.52,101.62c13.15,31.09,31.97,59.01,55.94,82.98
			c23.98,23.98,51.89,42.8,82.98,55.95c32.19,13.62,66.39,20.51,101.62,20.51c35.24,0,69.43-6.9,101.62-20.51
			c7.07-2.99,13.97-6.28,20.7-9.85c19.22-10.19,37.02-22.73,53.21-37.45c3.08-2.8,6.1-5.68,9.06-8.65
			c23.98-23.97,42.8-51.89,55.94-82.98c13.62-32.2,20.52-66.39,20.52-101.62C1257.44,1009.33,1250.54,975.13,1236.92,942.94z
			 M1174.37,1215.66c-18.07,18.8-39.08,34.75-62.29,47.1c-34.53,18.39-73.92,28.82-115.7,28.82
			c-136.21,0-247.03-110.81-247.03-247.02c0-120.09,86.15-220.45,199.88-242.52c15.27-2.96,31.02-4.51,47.14-4.51
			c17.3,0,34.2,1.78,50.51,5.19c112.07,23.38,196.51,122.93,196.51,241.84C1243.4,1110.92,1217.1,1171.24,1174.37,1215.66z"/>
		
			<linearGradient id="SVGID_2_" gradientUnits="userSpaceOnUse" x1="2126.137" y1="-794.7184" x2="2208.0884" y2="-794.8029" gradientTransform="matrix(0.736 -0.677 0.677 0.736 353.8963 3536.3496)">
			<stop  offset="0" style="stop-color:#2D3C51"/>
			<stop  offset="0.086" style="stop-color:#FFFFFF"/>
			<stop  offset="0.0899" style="stop-color:#F3F4F5"/>
			<stop  offset="0.1045" style="stop-color:#CACDD3"/>
			<stop  offset="0.121" style="stop-color:#A4ABB4"/>
			<stop  offset="0.1388" style="stop-color:#848C99"/>
			<stop  offset="0.1586" style="stop-color:#687382"/>
			<stop  offset="0.1809" style="stop-color:#525F70"/>
			<stop  offset="0.207" style="stop-color:#414F62"/>
			<stop  offset="0.2393" style="stop-color:#364458"/>
			<stop  offset="0.2845" style="stop-color:#2F3E53"/>
			<stop  offset="0.41" style="stop-color:#2D3C51"/>
			<stop  offset="0.6977" style="stop-color:#2D3C51"/>
			<stop  offset="0.8231" style="stop-color:#FFFFFF"/>
			<stop  offset="0.877" style="stop-color:#838487"/>
			<stop  offset="1" style="stop-color:#2D3C51"/>
		</linearGradient>
		<path class="st8" d="M1593.97,1645l-40.62,37.36c-6.39,5.88-16.42,5.46-22.3-0.93l-306.68-333.38c-5.88-6.39-5.46-16.42,0.93-22.3
			l40.62-37.36c6.39-5.88,16.42-5.46,22.3,0.93l306.68,333.38C1600.77,1629.09,1600.35,1639.12,1593.97,1645z"/>
		<circle class="st9" cx="996.38" cy="1044.56" r="250.61"/>
		<path class="st7" d="M1227.64,1111.15c-2.64,9.17-5.82,18.19-9.57,27.05c-12.12,28.65-29.47,54.38-51.57,76.48
			c-22.1,22.1-47.84,39.46-76.48,51.57c-16.28,6.89-33.12,11.9-50.38,15.02c0.21,6.94,2.94,15.74,12.36,24.49
			c93.65-19.84,169.16-88.76,198.36-178.58C1242.86,1116.57,1234.57,1112.44,1227.64,1111.15z"/>
		<path class="st10" d="M1068.31,808.22c0,0-316.62,187.59-30,479.8c0,0-132.64,29.32-230.61-84.17
			C660.31,1033.14,808.2,736.94,1068.31,808.22z"/>
	</g>
</g>
</svg>
