<?xml version="1.0" encoding="utf-8"?>
<!-- Generator: Adobe Illustrator 23.0.1, SVG Export Plug-In . SVG Version: 6.00 Build 0)  -->
<svg version="1.1" xmlns="http://www.w3.org/2000/svg" xmlns:xlink="http://www.w3.org/1999/xlink" x="0px" y="0px"
	 viewBox="0 0 3631 2501.39" style="enable-background:new 0 0 3631 2501.39;" xml:space="preserve">
<style type="text/css">
	.st0{fill:#EAEAEA;}
	.st1{fill:#FDFFFF;}
	.st2{fill:#EFEFEF;}
	.st3{opacity:0.2;fill:#070707;}
	.st4{fill:#FFFFFF;}
	.st5{fill:#E0E0E0;}
	.st6{fill:#FF0000;}
	.st7{fill:#CCE1A1;}
	.st8{fill:#647D5C;}
	.st9{fill:#D3A97A;}
	.st10{fill:#EDBE85;}
	.st11{fill:#3D4D5C;}
	.st12{fill:#FA5A3A;}
	.st13{fill:#BCBCBC;}
	.st14{fill:#8C8C8C;}
	.st15{fill:#A5A5A5;}
	.st16{fill:#E2E5E7;}
	.st17{fill:#F5E0CD;}
	.st18{fill:#343F42;}
	.st19{fill:#3F4C51;}
	.st20{fill:#B46C00;}
	.st21{fill:#FFD892;}
	.st22{fill:#FCBB3B;}
	.st23{fill:#BF945C;}
	.st24{fill:#2D3538;}
	.st25{fill:#F8BD35;}
	.st26{fill:#E1AE5B;}
</style>
<g id="Layer_2">
</g>
<g id="Layer_4">
</g>
<g id="Layer_5">
</g>
<g id="Layer_9">
</g>
<g id="Layer_11">
</g>
<g id="Layer_15">
	<g>
		
			<rect x="2004.1" y="716.16" transform="matrix(0.5 0.866 -0.866 0.5 2142.3184 -1472.0986)" class="st0" width="683.86" height="806.19"/>
		
			<rect x="1838.04" y="1639.86" transform="matrix(0.2988 0.9543 -0.9543 0.2988 3478.0847 -647.9259)" class="st0" width="683.86" height="806.19"/>
		
			<rect x="2704.84" y="1387.72" transform="matrix(0.9027 0.4302 -0.4302 0.9027 1004.7813 -1189.2241)" class="st1" width="855.13" height="479.56"/>
		<polygon class="st2" points="3209.5,1451.48 2643.27,1660.02 3415.23,2027.88 		"/>
		<polygon class="st3" points="3001.42,1542.39 2643.27,1660.02 2995.55,1530.22 		"/>
		<g>
			
				<rect x="97.13" y="363.39" transform="matrix(0.9563 -0.2925 0.2925 0.9563 -193.1614 272.756)" class="st4" width="1437" height="838"/>
			<path class="st5" d="M1607.37,941.8l-0.58-1.91l-69.81,21.35l-10.82-35.38l69.81-21.35l-0.29-0.96l-69.81,21.35l-11.11-36.34
				l69.81-21.35l-0.29-0.96l-69.81,21.35l-10.82-35.38l69.81-21.35l-0.29-0.96l-69.81,21.35l-11.11-36.34l69.81-21.35l-0.29-0.96
				l-69.81,21.35L1458.3,704l69.81-21.35l-0.29-0.96l-69.81,21.35l-11.11-36.34l69.81-21.35l-0.29-0.96l-69.81,21.35l-22.23-72.68
				l69.81-21.35l-0.29-0.96l-69.81,21.35l-11.11-36.34l69.81-21.35l-0.29-0.96l-69.81,21.35l-22.23-72.68l69.81-21.35l-0.29-0.96
				l-69.81,21.35l-11.11-36.34l69.81-21.35l-0.29-0.96l-69.81,21.35l-22.23-72.68l69.81-21.35l-0.29-0.96l-69.81,21.35l-11.11-36.34
				l69.81-21.35l-0.29-0.96l-69.81,21.35l-22.23-72.68l69.81-21.35l-0.29-0.96l-69.81,21.35l-11.11-36.34l69.81-21.35l-0.29-0.96
				l-69.81,21.35l-8.19-26.78l-0.96,0.29l8.19,26.78l-36.34,11.11l-8.19-26.78l-0.96,0.29l8.19,26.78l-36.34,11.11l-8.19-26.78
				l-0.96,0.29l8.19,26.78l-72.68,22.23l-8.19-26.78l-0.96,0.29l8.19,26.78l-36.34,11.11l-8.19-26.78l-0.96,0.29l8.19,26.78
				l-72.68,22.23l-8.19-26.78l-0.96,0.29l8.19,26.78l-35.38,10.82l-8.19-26.78l-1.91,0.58l8.19,26.78l-35.38,10.82l-8.19-26.78
				l-0.96,0.29l8.19,26.78l-36.34,11.11l-8.19-26.78l-0.96,0.29l8.19,26.78l-35.38,10.82l-8.19-26.78l-0.96,0.29l8.19,26.78
				l-36.34,11.11L859,330.97l-0.96,0.29l8.19,26.78l-72.68,22.23l-8.19-26.78l-0.96,0.29l8.19,26.78l-36.34,11.11l-8.19-26.78
				l-0.96,0.29l8.19,26.78L645.33,425.6l-8.19-26.78l-0.96,0.29l8.19,26.78L608.04,437l-8.19-26.78l-0.96,0.29l8.19,26.78
				l-72.68,22.23l-8.19-26.78l-0.96,0.29l8.19,26.78l-36.34,11.11l-8.19-26.78l-0.96,0.29l8.19,26.78l-72.68,22.23l-8.19-26.78
				l-0.96,0.29l8.19,26.78l-36.34,11.11l-8.19-26.78l-0.96,0.29l8.19,26.78l-72.68,22.23l-8.19-26.78l-0.96,0.29l8.19,26.78
				l-36.34,11.11l-8.19-26.78l-0.96,0.29l8.19,26.78l-72.68,22.23l-8.19-26.78l-0.96,0.29l8.19,26.78l-36.34,11.11l-8.19-26.78
				l-0.96,0.29l8.19,26.78l-35.38,10.82l-8.19-26.78l-0.96,0.29l8.19,26.78l-36.34,11.11l-8.19-26.78l-0.96,0.29l8.19,26.78
				L53.4,606.63l-8.19-26.78l-0.96,0.29l8.19,26.78l-32.51,9.94l0.29,0.96l32.51-9.94l11.11,36.34l-32.51,9.94l0.29,0.96l32.51-9.94
				l22.23,72.68l-32.51,9.94l0.29,0.96l32.51-9.94l11.11,36.34l-32.51,9.94l0.29,0.96l32.51-9.94l22.23,72.68l-32.51,9.94l0.29,0.96
				l32.51-9.94l11.11,36.34l-32.51,9.94l0.29,0.96l32.51-9.94l22.23,72.68l-32.51,9.94l0.29,0.96l32.51-9.94L165.63,977l-32.51,9.94
				l0.29,0.96l32.51-9.94l22.23,72.68l-32.51,9.94l0.29,0.96l32.51-9.94l11.11,36.34l-32.51,9.94l0.29,0.96l32.51-9.94l33.63,109.97
				l-32.51,9.94l0.29,0.96l32.51-9.94l11.11,36.34l-32.51,9.94l0.29,0.96l32.51-9.94l10.82,35.38l-32.51,9.94l0.29,0.96l32.51-9.94
				l11.11,36.34l-32.51,9.94l0.29,0.96l32.51-9.94l10.82,35.38l-32.51,9.94l0.58,1.91l32.51-9.94l10.24,33.47l0.96-0.29
				l-10.24-33.47l36.34-11.11l10.24,33.47l0.96-0.29l-10.24-33.47l36.34-11.11l10.24,33.47l0.96-0.29l-10.24-33.47l35.38-10.82
				l10.24,33.47l0.96-0.29l-10.24-33.47l36.34-11.11l10.24,33.47l0.96-0.29l-10.24-33.47l72.68-22.23l10.24,33.47l0.96-0.29
				l-10.24-33.47l36.34-11.11l10.24,33.47l0.96-0.29l-10.24-33.47l72.68-22.23l10.24,33.47l0.96-0.29l-10.24-33.47l36.34-11.11
				l10.24,33.47l0.96-0.29l-10.24-33.47l72.68-22.23l10.24,33.47l0.96-0.29l-10.24-33.47l36.34-11.11l10.24,33.47l0.96-0.29
				l-10.24-33.47l72.68-22.23l10.24,33.47l0.96-0.29l-10.24-33.47l36.34-11.11l10.24,33.47l0.96-0.29l-10.24-33.47l109.97-33.63
				l10.24,33.47l0.96-0.29l-10.24-33.47l36.34-11.11l10.24,33.47l0.96-0.29l-10.24-33.47l72.68-22.23l10.24,33.47l0.96-0.29
				l-10.24-33.47l36.34-11.11l10.24,33.47l0.96-0.29l-10.24-33.47l35.38-10.82l10.24,33.47l0.96-0.29l-10.24-33.47l36.34-11.11
				l10.24,33.47l0.96-0.29l-10.24-33.47l35.38-10.82l10.24,33.47l1.91-0.58l-10.24-33.47l35.38-10.82l10.24,33.47l0.96-0.29
				l-10.24-33.47l72.68-22.23l10.24,33.47l0.96-0.29l-10.24-33.47l36.34-11.11l10.24,33.47l0.96-0.29l-10.24-33.47l72.68-22.23
				l10.24,33.47l0.96-0.29l-10.24-33.47l36.34-11.11l10.24,33.47l0.96-0.29l-10.24-33.47l36.34-11.11l10.24,33.47l0.96-0.29
				l-10.24-33.47L1607.37,941.8z M1536.02,961.53l-36.34,11.11l-10.82-35.38l36.34-11.11L1536.02,961.53z M536.95,864.48
				l72.68-22.23l22.23,72.68l-72.68,22.23L536.95,864.48z M558.22,937.45l-36.34,11.11l-22.23-72.68L536,864.78L558.22,937.45z
				 M610.59,841.96l36.34-11.11l22.23,72.68l-36.34,11.11L610.59,841.96z M647.88,830.56l72.68-22.23l22.23,72.68l-72.68,22.23
				L647.88,830.56z M721.51,808.04l36.34-11.11l22.23,72.68l-36.34,11.11L721.51,808.04z M758.81,796.63L868.78,763l22.23,72.68
				l-109.97,33.63L758.81,796.63z M869.74,762.7l36.34-11.11l22.23,72.68l-36.34,11.11L869.74,762.7z M907.03,751.3l72.68-22.23
				l22.23,72.68l-72.68,22.23L907.03,751.3z M980.66,728.78l36.34-11.11l22.23,72.68l-36.34,11.11L980.66,728.78z M1017.96,717.37
				l35.38-10.82l22.23,72.68l-35.38,10.82L1017.96,717.37z M1054.3,706.26l36.34-11.11l22.23,72.68l-36.34,11.11L1054.3,706.26z
				 M1091.59,694.85l35.38-10.82l22.23,72.68l-35.38,10.82L1091.59,694.85z M1126.68,683.07l-35.38,10.82l-11.11-36.34l35.38-10.82
				L1126.68,683.07z M1090.34,694.19l-36.34,11.11l-11.11-36.34l36.34-11.11L1090.34,694.19z M1053.05,705.59l-35.38,10.82
				l-11.11-36.34l35.38-10.82L1053.05,705.59z M1016.71,716.71l-36.34,11.11l-11.11-36.34l36.34-11.11L1016.71,716.71z
				 M979.42,728.11l-72.68,22.23L895.62,714l72.68-22.23L979.42,728.11z M905.78,750.63l-36.34,11.11l-11.11-36.34l36.34-11.11
				L905.78,750.63z M868.49,762.04l-109.97,33.63l-11.11-36.34l109.97-33.63L868.49,762.04z M757.56,795.97l-36.34,11.11
				l-11.11-36.34l36.34-11.11L757.56,795.97z M720.27,807.37l-72.68,22.23l-11.11-36.34l72.68-22.23L720.27,807.37z M646.63,829.89
				l-36.34,11.11l-11.11-36.34l36.34-11.11L646.63,829.89z M609.34,841.3l-72.68,22.23l-11.11-36.34l72.68-22.23L609.34,841.3z
				 M535.7,863.82l-36.34,11.11l-11.11-36.34l36.34-11.11L535.7,863.82z M498.41,875.23l-72.68,22.23l-11.11-36.34l72.68-22.23
				L498.41,875.23z M498.7,876.18l22.23,72.68l-72.68,22.23l-22.23-72.68L498.7,876.18z M521.22,949.81l11.11,36.34l-72.68,22.23
				l-11.11-36.34L521.22,949.81z M522.18,949.52l36.34-11.11l11.11,36.34l-36.34,11.11L522.18,949.52z M559.47,938.12l72.68-22.23
				l11.11,36.34l-72.68,22.23L559.47,938.12z M633.11,915.6l36.34-11.11l11.11,36.34l-36.34,11.11L633.11,915.6z M670.4,904.19
				l72.68-22.23l11.11,36.34l-72.68,22.23L670.4,904.19z M744.03,881.67l36.34-11.11l11.11,36.34l-36.34,11.11L744.03,881.67z
				 M781.33,870.26l109.97-33.63l11.11,36.34L792.44,906.6L781.33,870.26z M892.26,836.34l36.34-11.11l11.11,36.34l-36.34,11.11
				L892.26,836.34z M929.55,824.93l72.68-22.23l11.11,36.34l-72.68,22.23L929.55,824.93z M1003.18,802.41l36.34-11.11l11.11,36.34
				l-36.34,11.11L1003.18,802.41z M1040.48,791l35.38-10.82l11.11,36.34l-35.38,10.82L1040.48,791z M1076.82,779.89l36.34-11.11
				l11.11,36.34l-36.34,11.11L1076.82,779.89z M1114.11,768.48l35.38-10.82l11.11,36.34l-35.38,10.82L1114.11,768.48z
				 M1151.41,757.08l35.38-10.82l11.11,36.34l-35.38,10.82L1151.41,757.08z M1151.11,756.12l-22.23-72.68l35.38-10.82l22.23,72.68
				L1151.11,756.12z M1128.59,682.49l-11.11-36.34l35.38-10.82l11.11,36.34L1128.59,682.49z M1117.19,645.19l-22.23-72.68
				l35.38-10.82l22.23,72.68L1117.19,645.19z M1115.28,645.78l-35.38,10.82l-22.23-72.68l35.38-10.82L1115.28,645.78z
				 M1078.94,656.89l-36.34,11.11l-22.23-72.68l36.34-11.11L1078.94,656.89z M1041.64,668.3l-35.38,10.82l-22.23-72.68l35.38-10.82
				L1041.64,668.3z M1005.3,679.41l-36.34,11.11l-22.23-72.68l36.34-11.11L1005.3,679.41z M968.01,690.82l-72.68,22.23l-22.23-72.68
				l72.68-22.23L968.01,690.82z M894.38,713.34l-36.34,11.11l-22.23-72.68l36.34-11.11L894.38,713.34z M857.08,724.74l-109.97,33.63
				l-22.23-72.68l109.97-33.63L857.08,724.74z M746.15,758.67l-36.34,11.11l-22.23-72.68l36.34-11.11L746.15,758.67z M708.86,770.08
				l-72.68,22.23l-22.23-72.68l72.68-22.23L708.86,770.08z M635.23,792.6l-36.34,11.11l-22.23-72.68L613,719.92L635.23,792.6z
				 M597.93,804l-72.68,22.23l-22.23-72.68l72.68-22.23L597.93,804z M524.3,826.52l-36.34,11.11l-22.23-72.68l36.34-11.11
				L524.3,826.52z M487,837.93l-72.68,22.23l-22.23-72.68l72.68-22.23L487,837.93z M413.37,860.45l-36.34,11.11l-22.23-72.68
				l36.34-11.11L413.37,860.45z M413.66,861.41l11.11,36.34l-36.34,11.11l-11.11-36.34L413.66,861.41z M425.07,898.7l22.23,72.68
				l-36.34,11.11l-22.23-72.68L425.07,898.7z M447.59,972.33l11.11,36.34l-36.34,11.11l-11.11-36.34L447.59,972.33z M459,1009.63
				l33.63,109.97l-36.34,11.11l-33.63-109.97L459,1009.63z M459.95,1009.34l72.68-22.23l33.63,109.97l-72.68,22.23L459.95,1009.34z
				 M533.58,986.82l36.34-11.11l33.63,109.97l-36.34,11.11L533.58,986.82z M570.88,975.41l72.68-22.23l33.63,109.97l-72.68,22.23
				L570.88,975.41z M644.51,952.89l36.34-11.11l33.63,109.97l-36.34,11.11L644.51,952.89z M681.81,941.48l72.68-22.23l33.63,109.97
				l-72.68,22.23L681.81,941.48z M755.44,918.96l36.34-11.11l33.63,109.97l-36.34,11.11L755.44,918.96z M792.74,907.56l109.97-33.63
				l33.63,109.97l-109.97,33.63L792.74,907.56z M903.66,873.63L940,862.52l33.63,109.97L937.3,983.6L903.66,873.63z M940.96,862.23
				l72.68-22.23l33.63,109.97l-72.68,22.23L940.96,862.23z M1014.59,839.7l36.34-11.11l33.63,109.97l-36.34,11.11L1014.59,839.7z
				 M1051.89,828.3l35.38-10.82l33.63,109.97l-35.38,10.82L1051.89,828.3z M1088.22,817.18l36.34-11.11l33.63,109.97l-36.34,11.11
				L1088.22,817.18z M1125.52,805.78l35.38-10.82l33.63,109.97l-35.38,10.82L1125.52,805.78z M1162.81,794.37l35.38-10.82
				l33.63,109.97l-35.38,10.82L1162.81,794.37z M1199.15,783.26l72.68-22.23L1305.46,871l-72.68,22.23L1199.15,783.26z
				 M1198.86,782.3l-11.11-36.34l72.68-22.23l11.11,36.34L1198.86,782.3z M1187.45,745.01l-22.23-72.68l72.68-22.23l22.23,72.68
				L1187.45,745.01z M1164.93,671.37l-11.11-36.34l72.68-22.23l11.11,36.34L1164.93,671.37z M1153.53,634.08l-22.23-72.68
				l72.68-22.23l22.23,72.68L1153.53,634.08z M1131.01,560.45l-11.11-36.34l72.68-22.23l11.11,36.34L1131.01,560.45z
				 M1130.05,560.74l-35.38,10.82l-11.11-36.34l35.38-10.82L1130.05,560.74z M1092.76,572.15l-35.38,10.82l-11.11-36.34l35.38-10.82
				L1092.76,572.15z M1056.42,583.26l-36.34,11.11l-11.11-36.34l36.34-11.11L1056.42,583.26z M1019.12,594.67l-35.38,10.82
				l-11.11-36.34l35.38-10.82L1019.12,594.67z M982.78,605.78l-36.34,11.11l-11.11-36.34l36.34-11.11L982.78,605.78z M945.49,617.19
				l-72.68,22.23l-11.11-36.34l72.68-22.23L945.49,617.19z M871.86,639.71l-36.34,11.11l-11.11-36.34l36.34-11.11L871.86,639.71z
				 M834.56,651.11l-109.97,33.63l-11.11-36.34l109.97-33.63L834.56,651.11z M723.63,685.04l-36.34,11.11l-11.11-36.34l36.34-11.11
				L723.63,685.04z M686.34,696.44l-72.68,22.23l-11.11-36.34l72.68-22.23L686.34,696.44z M612.71,718.96l-36.34,11.11l-11.11-36.34
				l36.34-11.11L612.71,718.96z M575.41,730.37l-72.68,22.23l-11.11-36.34l72.68-22.23L575.41,730.37z M501.78,752.89l-36.34,11.11
				l-11.11-36.34l36.34-11.11L501.78,752.89z M464.48,764.3l-72.68,22.23l-11.11-36.34l72.68-22.23L464.48,764.3z M390.85,786.82
				l-36.34,11.11l-11.11-36.34l36.34-11.11L390.85,786.82z M353.56,798.22l-72.68,22.23l-11.11-36.34l72.68-22.23L353.56,798.22z
				 M353.85,799.18l22.23,72.68l-72.68,22.23l-22.23-72.68L353.85,799.18z M376.37,872.81l11.11,36.34l-72.68,22.23l-11.11-36.34
				L376.37,872.81z M387.77,910.11L410,982.78l-72.68,22.23l-22.23-72.68L387.77,910.11z M410.29,983.74l11.11,36.34l-72.68,22.23
				l-11.11-36.34L410.29,983.74z M421.7,1021.04l33.63,109.97l-72.68,22.23l-33.63-109.97L421.7,1021.04z M455.63,1131.96
				l11.11,36.34l-72.68,22.23l-11.11-36.34L455.63,1131.96z M456.58,1131.67l36.34-11.11l11.11,36.34l-36.34,11.11L456.58,1131.67z
				 M493.88,1120.26l72.68-22.23l11.11,36.34l-72.68,22.23L493.88,1120.26z M567.51,1097.74l36.34-11.11l11.11,36.34l-36.34,11.11
				L567.51,1097.74z M604.81,1086.34l72.68-22.23l11.11,36.34l-72.68,22.23L604.81,1086.34z M678.44,1063.82l36.34-11.11
				l11.11,36.34l-36.34,11.11L678.44,1063.82z M715.73,1052.41l72.68-22.23l11.11,36.34l-72.68,22.23L715.73,1052.41z
				 M789.37,1029.89l36.34-11.11l11.11,36.34l-36.34,11.11L789.37,1029.89z M826.66,1018.49l109.97-33.63l11.11,36.34l-109.97,33.63
				L826.66,1018.49z M937.59,984.56l36.34-11.11l11.11,36.34l-36.34,11.11L937.59,984.56z M974.88,973.15l72.68-22.23l11.11,36.34
				L986,1009.49L974.88,973.15z M1048.52,950.63l36.34-11.11l11.11,36.34l-36.34,11.11L1048.52,950.63z M1085.81,939.23l35.38-10.82
				l11.11,36.34l-35.38,10.82L1085.81,939.23z M1122.15,928.11l36.34-11.11l11.11,36.34l-36.34,11.11L1122.15,928.11z
				 M1159.44,916.71l35.38-10.82l11.11,36.34l-35.38,10.82L1159.44,916.71z M1196.74,905.3l35.38-10.82l11.11,36.34l-35.38,10.82
				L1196.74,905.3z M1233.08,894.19l72.68-22.23l11.11,36.34l-72.68,22.23L1233.08,894.19z M1306.71,871.67l36.34-11.11l11.11,36.34
				L1317.83,908L1306.71,871.67z M1306.42,870.71l-33.63-109.97l36.34-11.11l33.63,109.97L1306.42,870.71z M1272.49,759.78
				l-11.11-36.34l36.34-11.11l11.11,36.34L1272.49,759.78z M1261.09,722.49l-22.23-72.68l36.34-11.11l22.23,72.68L1261.09,722.49z
				 M1238.57,648.85l-11.11-36.34l36.34-11.11l11.11,36.34L1238.57,648.85z M1227.16,611.56l-22.23-72.68l36.34-11.11l22.23,72.68
				L1227.16,611.56z M1204.64,537.93l-11.11-36.34l36.34-11.11l11.11,36.34L1204.64,537.93z M1193.23,500.63l-22.23-72.68
				l36.34-11.11l22.23,72.68L1193.23,500.63z M1192.28,500.92l-72.68,22.23l-22.23-72.68l72.68-22.23L1192.28,500.92z
				 M1118.64,523.44l-35.38,10.82l-22.23-72.68l35.38-10.82L1118.64,523.44z M1081.35,534.85l-35.38,10.82l-22.23-72.68l35.38-10.82
				L1081.35,534.85z M1045.01,545.96l-36.34,11.11l-22.23-72.68l36.34-11.11L1045.01,545.96z M1007.72,557.37l-35.38,10.82
				l-22.23-72.68l35.38-10.82L1007.72,557.37z M971.38,568.48l-36.34,11.11l-22.23-72.68l36.34-11.11L971.38,568.48z M934.08,579.89
				l-72.68,22.23l-22.23-72.68l72.68-22.23L934.08,579.89z M860.45,602.41l-36.34,11.11l-22.23-72.68l36.34-11.11L860.45,602.41z
				 M823.15,613.82l-109.97,33.63l-22.23-72.68l109.97-33.63L823.15,613.82z M712.23,647.74l-36.34,11.11l-22.23-72.68L690,575.07
				L712.23,647.74z M674.93,659.15l-72.68,22.23l-22.23-72.68l72.68-22.23L674.93,659.15z M601.3,681.67l-36.34,11.11l-22.23-72.68
				l36.34-11.11L601.3,681.67z M564,693.08l-72.68,22.23l-22.23-72.68l72.68-22.23L564,693.08z M490.37,715.6l-36.34,11.11
				l-22.23-72.68l36.34-11.11L490.37,715.6z M453.08,727l-72.68,22.23l-22.23-72.68l72.68-22.23L453.08,727z M379.44,749.52
				l-36.34,11.11l-22.23-72.68l36.34-11.11L379.44,749.52z M342.15,760.93l-72.68,22.23l-22.23-72.68l72.68-22.23L342.15,760.93z
				 M268.52,783.45l-36.34,11.11l-22.23-72.68l36.34-11.11L268.52,783.45z M268.81,784.41l11.11,36.34l-36.34,11.11l-11.11-36.34
				L268.81,784.41z M280.21,821.7l22.23,72.68l-36.34,11.11l-22.23-72.68L280.21,821.7z M302.73,895.33l11.11,36.34l-36.34,11.11
				l-11.11-36.34L302.73,895.33z M314.14,932.63l22.23,72.68l-36.34,11.11l-22.23-72.68L314.14,932.63z M336.66,1006.26l11.11,36.34
				l-36.34,11.11l-11.11-36.34L336.66,1006.26z M348.07,1043.56l33.63,109.97l-36.34,11.11l-33.63-109.97L348.07,1043.56z
				 M381.99,1154.48l11.11,36.34l-36.34,11.11l-11.11-36.34L381.99,1154.48z M393.4,1191.78l10.82,35.38l-36.34,11.11l-10.82-35.38
				L393.4,1191.78z M394.36,1191.49l72.68-22.23l10.82,35.38l-72.68,22.23L394.36,1191.49z M467.99,1168.97l36.34-11.11l10.82,35.38
				l-36.34,11.11L467.99,1168.97z M505.28,1157.56l72.68-22.23l10.82,35.38l-72.68,22.23L505.28,1157.56z M578.92,1135.04
				l36.34-11.11l10.82,35.38l-36.34,11.11L578.92,1135.04z M616.21,1123.63l72.68-22.23l10.82,35.38l-72.68,22.23L616.21,1123.63z
				 M689.85,1101.11l36.34-11.11l10.82,35.38l-36.34,11.11L689.85,1101.11z M727.14,1089.71l72.68-22.23l10.82,35.38l-72.68,22.23
				L727.14,1089.71z M800.77,1067.19l36.34-11.11l10.82,35.38l-36.34,11.11L800.77,1067.19z M838.07,1055.78l109.97-33.63
				l10.82,35.38l-109.97,33.63L838.07,1055.78z M949,1021.85l36.34-11.11l10.82,35.38l-36.34,11.11L949,1021.85z M986.29,1010.45
				l72.68-22.23l10.82,35.38l-72.68,22.23L986.29,1010.45z M1059.92,987.93l36.34-11.11l10.82,35.38l-36.34,11.11L1059.92,987.93z
				 M1097.22,976.52l35.38-10.82l10.82,35.38l-35.38,10.82L1097.22,976.52z M1133.56,965.41l36.34-11.11l10.82,35.38l-36.34,11.11
				L1133.56,965.41z M1170.85,954l35.38-10.82l10.82,35.38l-35.38,10.82L1170.85,954z M1208.15,942.6l35.38-10.82l10.82,35.38
				l-35.38,10.82L1208.15,942.6z M1244.48,931.48l72.68-22.23l10.82,35.38l-72.68,22.23L1244.48,931.48z M1318.12,908.96
				l36.34-11.11l10.82,35.38l-36.34,11.11L1318.12,908.96z M1355.41,897.55l72.68-22.23l10.82,35.38l-72.68,22.23L1355.41,897.55z
				 M1355.12,896.6l-11.11-36.34l72.68-22.23l11.11,36.34L1355.12,896.6z M1343.71,859.3l-33.63-109.97l72.68-22.23l33.63,109.97
				L1343.71,859.3z M1309.79,748.38l-11.11-36.34l72.68-22.23l11.11,36.34L1309.79,748.38z M1298.38,711.08l-22.23-72.68
				l72.68-22.23l22.23,72.68L1298.38,711.08z M1275.86,637.45l-11.11-36.34l72.68-22.23l11.11,36.34L1275.86,637.45z
				 M1264.45,600.15l-22.23-72.68l72.68-22.23l22.23,72.68L1264.45,600.15z M1241.93,526.52l-11.11-36.34l72.68-22.23l11.11,36.34
				L1241.93,526.52z M1230.53,489.23l-22.23-72.68l72.68-22.23L1303.2,467L1230.53,489.23z M1208.01,415.59l-11.11-36.34
				l72.68-22.23l11.11,36.34L1208.01,415.59z M1207.05,415.88L1170.71,427l-11.11-36.34l36.34-11.11L1207.05,415.88z
				 M1169.76,427.29l-72.68,22.23l-11.11-36.34l72.68-22.23L1169.76,427.29z M1096.12,449.81l-35.38,10.82l-11.11-36.34l35.38-10.82
				L1096.12,449.81z M1058.83,461.22l-35.38,10.82l-11.11-36.34l35.38-10.82L1058.83,461.22z M1022.49,472.33l-36.34,11.11
				l-11.11-36.34l36.34-11.11L1022.49,472.33z M985.2,483.74l-35.38,10.82l-11.11-36.34l35.38-10.82L985.2,483.74z M948.86,494.85
				l-36.34,11.11l-11.11-36.34l36.34-11.11L948.86,494.85z M911.56,506.26l-72.68,22.23l-11.11-36.34l72.68-22.23L911.56,506.26z
				 M837.93,528.78l-36.34,11.11l-11.11-36.34l36.34-11.11L837.93,528.78z M800.63,540.18l-109.97,33.63l-11.11-36.34l109.97-33.63
				L800.63,540.18z M689.71,574.11l-36.34,11.11l-11.11-36.34l36.34-11.11L689.71,574.11z M652.41,585.52l-72.68,22.23l-11.11-36.34
				l72.68-22.23L652.41,585.52z M578.78,608.04l-36.34,11.11l-11.11-36.34l36.34-11.11L578.78,608.04z M541.48,619.44l-72.68,22.23
				l-11.11-36.34l72.68-22.23L541.48,619.44z M467.85,641.96l-36.34,11.11l-11.11-36.34l36.34-11.11L467.85,641.96z M430.56,653.37
				l-72.68,22.23l-11.11-36.34l72.68-22.23L430.56,653.37z M356.92,675.89L320.58,687l-11.11-36.34l36.34-11.11L356.92,675.89z
				 M319.63,687.3l-72.68,22.23l-11.11-36.34l72.68-22.23L319.63,687.3z M246,709.82l-36.34,11.11l-11.11-36.34l36.34-11.11
				L246,709.82z M208.7,721.22l-35.38,10.82l-11.11-36.34l35.38-10.82L208.7,721.22z M208.99,722.18l22.23,72.68l-35.38,10.82
				L173.61,733L208.99,722.18z M231.51,795.81l11.11,36.34l-35.38,10.82l-11.11-36.34L231.51,795.81z M242.92,833.11l22.23,72.68
				l-35.38,10.82l-22.23-72.68L242.92,833.11z M265.44,906.74l11.11,36.34l-35.38,10.82l-11.11-36.34L265.44,906.74z M276.85,944.03
				l22.23,72.68l-35.38,10.82l-22.23-72.68L276.85,944.03z M299.37,1017.67l11.11,36.34l-35.38,10.82l-11.11-36.34L299.37,1017.67z
				 M310.77,1054.96l33.63,109.97l-35.38,10.82l-33.63-109.97L310.77,1054.96z M344.7,1165.89l11.11,36.34l-35.38,10.82
				l-11.11-36.34L344.7,1165.89z M356.11,1203.18l10.82,35.38l-35.38,10.82l-10.82-35.38L356.11,1203.18z M367.22,1239.52
				l11.11,36.34l-35.38,10.82l-11.11-36.34L367.22,1239.52z M368.18,1239.23l36.34-11.11l11.11,36.34l-36.34,11.11L368.18,1239.23z
				 M405.47,1227.82l72.68-22.23l11.11,36.34l-72.68,22.23L405.47,1227.82z M479.1,1205.3l36.34-11.11l11.11,36.34l-36.34,11.11
				L479.1,1205.3z M516.4,1193.9l72.68-22.23l11.11,36.34l-72.68,22.23L516.4,1193.9z M590.03,1171.38l36.34-11.11l11.11,36.34
				l-36.34,11.11L590.03,1171.38z M627.33,1159.97l72.68-22.23l11.11,36.34l-72.68,22.23L627.33,1159.97z M700.96,1137.45
				l36.34-11.11l11.11,36.34l-36.34,11.11L700.96,1137.45z M738.25,1126.05l72.68-22.23l11.11,36.34l-72.68,22.23L738.25,1126.05z
				 M811.89,1103.53l36.34-11.11l11.11,36.34L823,1139.86L811.89,1103.53z M849.18,1092.12l109.97-33.63l11.11,36.34l-109.97,33.63
				L849.18,1092.12z M960.11,1058.19l36.34-11.11l11.11,36.34l-36.34,11.11L960.11,1058.19z M997.4,1046.79l72.68-22.23l11.11,36.34
				l-72.68,22.23L997.4,1046.79z M1071.04,1024.27l36.34-11.11l11.11,36.34l-36.34,11.11L1071.04,1024.27z M1108.33,1012.86
				l35.38-10.82l11.11,36.34l-35.38,10.82L1108.33,1012.86z M1144.67,1001.75l36.34-11.11l11.11,36.34l-36.34,11.11L1144.67,1001.75
				z M1181.97,990.34l35.38-10.82l11.11,36.34l-35.38,10.82L1181.97,990.34z M1219.26,978.93l35.38-10.82l11.11,36.34l-35.38,10.82
				L1219.26,978.93z M1255.6,967.82l72.68-22.23l11.11,36.34l-72.68,22.23L1255.6,967.82z M1329.23,945.3l36.34-11.11l11.11,36.34
				l-36.34,11.11L1329.23,945.3z M1366.53,933.89l72.68-22.23l11.11,36.34l-72.68,22.23L1366.53,933.89z M1440.16,911.37
				l36.34-11.11l11.11,36.34l-36.34,11.11L1440.16,911.37z M1439.87,910.42l-10.82-35.38l36.34-11.11l10.82,35.38L1439.87,910.42z
				 M1428.75,874.08l-11.11-36.34l36.34-11.11l11.11,36.34L1428.75,874.08z M1417.35,836.78l-33.63-109.97l36.34-11.11l33.63,109.97
				L1417.35,836.78z M1383.42,725.86l-11.11-36.34l36.34-11.11l11.11,36.34L1383.42,725.86z M1372.01,688.56l-22.23-72.68
				l36.34-11.11l22.23,72.68L1372.01,688.56z M1349.49,614.93l-11.11-36.34l36.34-11.11l11.11,36.34L1349.49,614.93z
				 M1338.09,577.63l-22.23-72.68l36.34-11.11l22.23,72.68L1338.09,577.63z M1315.57,504l-11.11-36.34l36.34-11.11l11.11,36.34
				L1315.57,504z M1304.16,466.71l-22.23-72.68l36.34-11.11l22.23,72.68L1304.16,466.71z M1281.64,393.07l-11.11-36.34l36.34-11.11
				l11.11,36.34L1281.64,393.07z M1270.23,355.78l-22.23-72.68l36.34-11.11l22.23,72.68L1270.23,355.78z M1269.28,356.07
				l-72.68,22.23l-22.23-72.68l72.68-22.23L1269.28,356.07z M1195.65,378.59l-36.34,11.11l-22.23-72.68l36.34-11.11L1195.65,378.59z
				 M1158.35,390l-72.68,22.23l-22.23-72.68l72.68-22.23L1158.35,390z M1084.72,412.52l-35.38,10.82l-22.23-72.68l35.38-10.82
				L1084.72,412.52z M1047.42,423.92l-35.38,10.82l-22.23-72.68l35.38-10.82L1047.42,423.92z M1011.08,435.04l-36.34,11.11
				l-22.23-72.68l36.34-11.11L1011.08,435.04z M973.79,446.44l-35.38,10.82l-22.23-72.68l35.38-10.82L973.79,446.44z M937.45,457.56
				l-36.34,11.11l-22.23-72.68l36.34-11.11L937.45,457.56z M900.16,468.96l-72.68,22.23l-22.23-72.68l72.68-22.23L900.16,468.96z
				 M826.52,491.48l-36.34,11.11l-22.23-72.68l36.34-11.11L826.52,491.48z M789.23,502.89l-109.97,33.63l-22.23-72.68L767,430.21
				L789.23,502.89z M678.3,536.82l-36.34,11.11l-22.23-72.68l36.34-11.11L678.3,536.82z M641.01,548.22l-72.68,22.23l-22.23-72.68
				l72.68-22.23L641.01,548.22z M567.37,570.74l-36.34,11.11l-22.23-72.68l36.34-11.11L567.37,570.74z M530.08,582.15l-72.68,22.23
				l-22.23-72.68l72.68-22.23L530.08,582.15z M456.45,604.67l-36.34,11.11l-22.23-72.68l36.34-11.11L456.45,604.67z M419.15,616.08
				l-72.68,22.23l-22.23-72.68l72.68-22.23L419.15,616.08z M345.52,638.6l-36.34,11.11l-22.23-72.68l36.34-11.11L345.52,638.6z
				 M308.22,650l-72.68,22.23l-22.23-72.68l72.68-22.23L308.22,650z M234.59,672.52l-36.34,11.11l-22.23-72.68l36.34-11.11
				L234.59,672.52z M197.29,683.93l-35.38,10.82l-22.23-72.68l35.38-10.82L197.29,683.93z M160.96,695.04l-36.34,11.11l-22.23-72.68
				l36.34-11.11L160.96,695.04z M161.25,696l11.11,36.34l-36.34,11.11l-11.11-36.34L161.25,696z M172.65,733.29l22.23,72.68
				l-36.34,11.11l-22.23-72.68L172.65,733.29z M195.17,806.93l11.11,36.34l-36.34,11.11l-11.11-36.34L195.17,806.93z M206.58,844.22
				l22.23,72.68l-36.34,11.11l-22.23-72.68L206.58,844.22z M229.1,917.85l11.11,36.34l-36.34,11.11l-11.11-36.34L229.1,917.85z
				 M240.51,955.15l22.23,72.68l-36.34,11.11l-22.23-72.68L240.51,955.15z M263.03,1028.78l11.11,36.34l-36.34,11.11l-11.11-36.34
				L263.03,1028.78z M274.43,1066.08l33.63,109.97l-36.34,11.11l-33.63-109.97L274.43,1066.08z M308.36,1177l11.11,36.34
				l-36.34,11.11l-11.11-36.34L308.36,1177z M319.77,1214.3l10.82,35.38l-36.34,11.11l-10.82-35.38L319.77,1214.3z M330.88,1250.64
				l11.11,36.34l-36.34,11.11l-11.11-36.34L330.88,1250.64z M342.29,1287.93l10.82,35.38l-36.34,11.11l-10.82-35.38L342.29,1287.93z
				 M343.24,1287.64l35.38-10.82l10.82,35.38l-35.38,10.82L343.24,1287.64z M379.58,1276.53l36.34-11.11l10.82,35.38l-36.34,11.11
				L379.58,1276.53z M416.88,1265.12l72.68-22.23l10.82,35.38l-72.68,22.23L416.88,1265.12z M490.51,1242.6l36.34-11.11l10.82,35.38
				l-36.34,11.11L490.51,1242.6z M527.8,1231.19l72.68-22.23l10.82,35.38l-72.68,22.23L527.8,1231.19z M601.44,1208.67l36.34-11.11
				l10.82,35.38l-36.34,11.11L601.44,1208.67z M638.73,1197.27l72.68-22.23l10.82,35.38l-72.68,22.23L638.73,1197.27z
				 M712.37,1174.75l36.34-11.11l10.82,35.38l-36.34,11.11L712.37,1174.75z M749.66,1163.34l72.68-22.23l10.82,35.38l-72.68,22.23
				L749.66,1163.34z M823.29,1140.82l36.34-11.11l10.82,35.38l-36.34,11.11L823.29,1140.82z M860.59,1129.41l109.97-33.63
				l10.82,35.38l-109.97,33.63L860.59,1129.41z M971.52,1095.49l36.34-11.11l10.82,35.38l-36.34,11.11L971.52,1095.49z
				 M1008.81,1084.08l72.68-22.23l10.82,35.38l-72.68,22.23L1008.81,1084.08z M1082.44,1061.56l36.34-11.11l10.82,35.38
				l-36.34,11.11L1082.44,1061.56z M1119.74,1050.15l35.38-10.82l10.82,35.38l-35.38,10.82L1119.74,1050.15z M1156.08,1039.04
				l36.34-11.11l10.82,35.38l-36.34,11.11L1156.08,1039.04z M1193.37,1027.63l35.38-10.82l10.82,35.38l-35.38,10.82L1193.37,1027.63
				z M1230.67,1016.23l35.38-10.82l10.82,35.38l-35.38,10.82L1230.67,1016.23z M1267,1005.11l72.68-22.23l10.82,35.38l-72.68,22.23
				L1267,1005.11z M1340.64,982.59l36.34-11.11l10.82,35.38l-36.34,11.11L1340.64,982.59z M1377.93,971.19l72.68-22.23l10.82,35.38
				l-72.68,22.23L1377.93,971.19z M1451.57,948.67l36.34-11.11l10.82,35.38l-36.34,11.11L1451.57,948.67z M1524.91,925.19
				l-36.34,11.11l-11.11-36.34l36.34-11.11L1524.91,925.19z M1513.5,887.9l-36.34,11.11l-10.82-35.38l36.34-11.11L1513.5,887.9z
				 M1502.39,851.56l-36.34,11.11l-11.11-36.34l36.34-11.11L1502.39,851.56z M1490.98,814.26l-36.34,11.11l-33.63-109.97
				l36.34-11.11L1490.98,814.26z M1457.05,703.34l-36.34,11.11l-11.11-36.34l36.34-11.11L1457.05,703.34z M1445.65,666.04
				l-36.34,11.11l-22.23-72.68l36.34-11.11L1445.65,666.04z M1423.13,592.41l-36.34,11.11l-11.11-36.34l36.34-11.11L1423.13,592.41z
				 M1411.72,555.11l-36.34,11.11l-22.23-72.68l36.34-11.11L1411.72,555.11z M1389.2,481.48l-36.34,11.11l-11.11-36.34l36.34-11.11
				L1389.2,481.48z M1377.79,444.19l-36.34,11.11l-22.23-72.68l36.34-11.11L1377.79,444.19z M1355.27,370.55l-36.34,11.11
				l-11.11-36.34l36.34-11.11L1355.27,370.55z M1343.87,333.26l-36.34,11.11l-22.23-72.68l36.34-11.11L1343.87,333.26z
				 M1310.23,223.29l11.11,36.34l-36.34,11.11l-11.11-36.34L1310.23,223.29z M1272.94,234.69l11.11,36.34l-36.34,11.11l-11.11-36.34
				L1272.94,234.69z M1235.64,246.1l11.11,36.34l-72.68,22.23l-11.11-36.34L1235.64,246.1z M1162.01,268.62l11.11,36.34
				l-36.34,11.11l-11.11-36.34L1162.01,268.62z M1124.72,280.02l11.11,36.34l-72.68,22.23l-11.11-36.34L1124.72,280.02z
				 M1051.08,302.54l11.11,36.34l-35.38,10.82l-11.11-36.34L1051.08,302.54z M1013.79,313.95l11.11,36.34l-35.38,10.82l-11.11-36.34
				L1013.79,313.95z M977.45,325.06l11.11,36.34l-36.34,11.11l-11.11-36.34L977.45,325.06z M940.16,336.47l11.11,36.34l-35.38,10.82
				l-11.11-36.34L940.16,336.47z M903.82,347.58l11.11,36.34l-36.34,11.11l-11.11-36.34L903.82,347.58z M866.52,358.99l11.11,36.34
				l-72.68,22.23l-11.11-36.34L866.52,358.99z M792.89,381.51L804,417.85l-36.34,11.11l-11.11-36.34L792.89,381.51z M755.59,392.92
				l11.11,36.34l-109.97,33.63l-11.11-36.34L755.59,392.92z M644.67,426.84l11.11,36.34l-36.34,11.11l-11.11-36.34L644.67,426.84z
				 M607.37,438.25l11.11,36.34l-72.68,22.23l-11.11-36.34L607.37,438.25z M533.74,460.77l11.11,36.34l-36.34,11.11l-11.11-36.34
				L533.74,460.77z M496.44,472.18l11.11,36.34l-72.68,22.23l-11.11-36.34L496.44,472.18z M422.81,494.7l11.11,36.34l-36.34,11.11
				l-11.11-36.34L422.81,494.7z M385.52,506.1l11.11,36.34l-72.68,22.23l-11.11-36.34L385.52,506.1z M311.88,528.62L323,564.96
				l-36.34,11.11l-11.11-36.34L311.88,528.62z M274.59,540.03l11.11,36.34l-72.68,22.23l-11.11-36.34L274.59,540.03z M200.96,562.55
				l11.11,36.34L175.73,610l-11.11-36.34L200.96,562.55z M163.66,573.96l11.11,36.34l-35.38,10.82l-11.11-36.34L163.66,573.96z
				 M127.32,585.07l11.11,36.34l-36.34,11.11l-11.11-36.34L127.32,585.07z M53.69,607.59l36.34-11.11l11.11,36.34L64.8,643.93
				L53.69,607.59z M65.1,644.88l36.34-11.11l22.23,72.68l-36.34,11.11L65.1,644.88z M87.62,718.52l36.34-11.11l11.11,36.34
				l-36.34,11.11L87.62,718.52z M99.02,755.81l36.34-11.11l22.23,72.68l-36.34,11.11L99.02,755.81z M121.54,829.45l36.34-11.11
				l11.11,36.34l-36.34,11.11L121.54,829.45z M132.95,866.74l36.34-11.11l22.23,72.68l-36.34,11.11L132.95,866.74z M155.47,940.37
				l36.34-11.11l11.11,36.34l-36.34,11.11L155.47,940.37z M166.87,977.67l36.34-11.11l22.23,72.68l-36.34,11.11L166.87,977.67z
				 M189.39,1051.3l36.34-11.11l11.11,36.34l-36.34,11.11L189.39,1051.3z M200.8,1088.6l36.34-11.11l33.63,109.97l-36.34,11.11
				L200.8,1088.6z M234.73,1199.52l36.34-11.11l11.11,36.34l-36.34,11.11L234.73,1199.52z M246.13,1236.82l36.34-11.11l10.82,35.38
				l-36.34,11.11L246.13,1236.82z M257.25,1273.16l36.34-11.11l11.11,36.34l-36.34,11.11L257.25,1273.16z M268.65,1310.45
				l36.34-11.11l10.82,35.38l-36.34,11.11L268.65,1310.45z"/>
			<path class="st6" d="M1418.72,571.16l0.43,1.41l-58.62,17.63l-4.43-11.15l25.54,104.74l-1.4,0.42l-61.03-166.99l23.25,103.44
				l-11.12-24.3c0.93,6.26,1.77,12.89,1.93,13.42l0.19,0.64l-0.56,0.22c-0.11,0.04-0.61,0.19-0.91-0.47
				c-0.03-0.05-0.04-0.14-0.08-0.24c-0.09-0.19-0.21-0.49-0.37-0.86c-0.33-0.73-0.78-1.78-1.34-3.04c-1.11-2.52-2.58-5.87-4.05-9.23
				c-1.34-3.06-2.7-6.18-3.76-8.6l1.88,13.54l-32.27,9.87l-0.04-0.14l-48.02,14.66l-4.29-11.19l25.61,104.71l-1.36,0.41
				l-61.01-167.01l23.26,103.43l-11.27-24.31c0.92,6.22,1.61,12.87,1.77,13.39l0.2,0.64l-0.42,0.17c-0.11,0.04-0.54,0.17-0.85-0.49
				c-0.02-0.05,0-0.15-0.05-0.25c-0.09-0.19-0.19-0.5-0.35-0.87c-0.33-0.74-0.78-1.8-1.33-3.06c-1.11-2.53-2.58-5.91-4.06-9.28
				c-1.36-3.11-2.71-6.21-3.78-8.66l1.74,12.72l-0.61,0.08l0.26,0.86l-73.35,22.06l-4.46-11.14l25.53,104.74l-1.41,0.43
				l-61.03-166.99l23.25,103.44l-11.16-24.29c0.93,6.26,1.72,12.9,1.89,13.43l0.19,0.64l-0.52,0.2c-0.11,0.04-0.59,0.19-0.89-0.47
				c-0.03-0.05-0.03-0.14-0.07-0.24c-0.09-0.19-0.2-0.49-0.36-0.86c-0.33-0.73-0.78-1.78-1.33-3.04c-1.11-2.52-2.58-5.87-4.05-9.23
				c-1.34-3.06-2.7-6.18-3.76-8.6l1.89,13.54l-31.4,9.6l-0.04-0.14l-48.46,14.79l-4.51-11.13l25.5,104.75l-1.42,0.43l-61.04-167
				l23.25,103.43l-10.84-24.44c0.92,6.22,2.05,12.74,2.21,13.26l0.2,0.64l-0.86,0.31c-0.11,0.04-0.76,0.24-1.06-0.43
				c-0.02-0.05-0.11-0.11-0.16-0.22c-0.09-0.19-0.24-0.48-0.41-0.85c-0.33-0.74-0.8-1.79-1.36-3.05c-1.11-2.53-2.6-5.9-4.08-9.28
				c-1.36-3.11-2.72-6.21-3.79-8.65l1.74,12.72l-0.61,0.08l0.26,0.86l-73.36,22.06l-4.46-11.14l25.53,104.74l-1.41,0.43L866.1,655.8
				l23.25,103.44l-11.2-24.27c0.93,6.26,1.69,12.92,1.85,13.44l0.19,0.64l-0.48,0.19c-0.11,0.04-0.57,0.18-0.87-0.48
				c-0.03-0.05-0.02-0.15-0.06-0.25c-0.09-0.19-0.2-0.49-0.36-0.86c-0.33-0.73-0.78-1.78-1.33-3.04c-1.11-2.52-2.58-5.87-4.05-9.23
				c-1.34-3.06-2.7-6.18-3.76-8.6l1.89,13.54l-31.48,9.63l-0.04-0.14l-48.42,14.78l-4.49-11.13l25.51,104.74l-1.41,0.43l-61.04-167
				l23.25,103.43l-11.36-24.28c0.92,6.22,1.53,12.89,1.69,13.42l0.2,0.64l-0.34,0.15c-0.11,0.04-0.5,0.16-0.81-0.51
				c-0.02-0.05,0.02-0.15-0.03-0.26c-0.09-0.19-0.18-0.5-0.34-0.87c-0.33-0.74-0.77-1.8-1.33-3.06c-1.11-2.53-2.58-5.91-4.06-9.28
				c-1.36-3.11-2.71-6.21-3.78-8.66l1.74,12.72l-0.61,0.08l0.26,0.86l-73.35,22.06l-4.46-11.14l25.53,104.74l-1.41,0.43
				l-61.03-166.99l23.25,103.44l-10.76-24.41c0.93,6.26,2.12,12.78,2.28,13.31l0.19,0.64l-0.92,0.33c-0.11,0.04-0.79,0.25-1.09-0.41
				c-0.03-0.05-0.13-0.11-0.17-0.21c-0.09-0.19-0.25-0.48-0.41-0.84c-0.33-0.73-0.8-1.78-1.36-3.04c-1.11-2.52-2.59-5.87-4.06-9.23
				c-1.34-3.06-2.7-6.18-3.77-8.6l1.88,13.54l-31.56,9.65l-0.04-0.14l-48.38,14.77l-4.47-11.14l25.52,104.74l-1.41,0.43l-61.04-167
				l23.25,103.43l-10.92-24.42c0.92,6.22,1.97,12.76,2.13,13.28l0.2,0.64l-0.78,0.28c-0.11,0.04-0.72,0.22-1.03-0.44
				c-0.02-0.05-0.09-0.12-0.14-0.22c-0.09-0.19-0.23-0.48-0.4-0.85c-0.33-0.74-0.8-1.79-1.35-3.05c-1.11-2.53-2.6-5.9-4.07-9.28
				c-1.36-3.11-2.72-6.21-3.79-8.65l1.74,12.72l-0.61,0.08l0.26,0.86l-73.36,22.06l-4.46-11.14l25.53,104.74l-1.41,0.43
				l-61.03-166.99l23.25,103.44l-11.28-24.25c0.93,6.26,1.61,12.94,1.77,13.47l0.19,0.64l-0.4,0.17c-0.11,0.04-0.53,0.17-0.83-0.49
				c-0.03-0.05,0-0.15-0.04-0.25c-0.09-0.19-0.19-0.5-0.35-0.86c-0.33-0.73-0.77-1.79-1.33-3.05c-1.11-2.52-2.57-5.88-4.05-9.23
				c-1.34-3.06-2.7-6.18-3.76-8.6l1.89,13.54l-31.64,9.68l-0.04-0.14l-48.34,14.75l-4.45-11.14l25.53,104.74l-1.4,0.42l-61.03-167
				l23.25,103.43l-10.96-24.41c0.92,6.22,1.93,12.77,2.09,13.29l0.2,0.64l-0.74,0.27c-0.11,0.04-0.7,0.22-1.01-0.44
				c-0.02-0.05-0.08-0.12-0.13-0.23c-0.09-0.19-0.23-0.48-0.39-0.85c-0.33-0.74-0.8-1.79-1.35-3.06c-1.11-2.53-2.59-5.9-4.07-9.28
				c-1.36-3.11-2.72-6.21-3.79-8.65l1.74,12.72l-0.61,0.08l0.26,0.86l-73.35,22.06l-4.46-11.14l25.53,104.74l-1.41,0.43
				l-61.03-166.99l23.25,103.44l-10.84-24.38c0.93,6.26,2.04,12.81,2.21,13.33l0.19,0.64l-0.84,0.3c-0.11,0.04-0.75,0.23-1.05-0.43
				c-0.03-0.05-0.11-0.12-0.15-0.22c-0.09-0.19-0.24-0.48-0.4-0.85c-0.33-0.73-0.8-1.78-1.35-3.04c-1.11-2.52-2.59-5.87-4.06-9.23
				c-1.34-3.06-2.7-6.18-3.77-8.6l1.88,13.54l-31.71,9.7l-0.59-1.91l30.51-9.33l-3.1-22.6l2.19,5.04
				c2.66,6.08,6.97,15.94,9.58,21.86c-0.56-3.7-1.28-8.65-1.95-13.15l-0.76-5.16l9.44,20.83L182.5,852.9l1.4-0.41l60.4,165.27
				l-24.86-102l1.4-0.45l7.81,19.53l71.32-21.45l-3.11-22.77l2.12,4.85c2.67,6.12,6.99,15.98,9.6,21.92
				c-0.55-3.68-1.28-8.64-1.94-13.11l-0.76-5.17l9.44,20.84l-22.6-100.52l1.41-0.41l60.41,165.28l-24.85-102l1.42-0.46l7.73,19.55
				l71.94-21.95l-0.12-0.39l5.57-1.7l-3.1-22.6l2.19,5.04c2.66,6.08,6.97,15.94,9.58,21.86c-0.56-3.7-1.28-8.65-1.95-13.15
				l-0.76-5.16l9.44,20.83l-22.6-100.54l1.4-0.41l60.4,165.27l-24.86-102l1.4-0.45l7.81,19.53l71.32-21.45l-3.11-22.77l2.12,4.85
				c2.67,6.12,6.99,15.98,9.6,21.92c-0.55-3.68-1.28-8.64-1.94-13.11l-0.76-5.17l9.44,20.84l-22.6-100.52l1.41-0.41L581.12,915
				l-24.85-102l1.42-0.46l7.77,19.54l71.98-21.97l-0.12-0.39l5.49-1.68l-3.1-22.6l2.19,5.04c2.66,6.08,6.97,15.94,9.58,21.86
				c-0.56-3.7-1.28-8.65-1.95-13.15l-0.76-5.16l9.44,20.83l-22.6-100.54l1.4-0.41l60.4,165.27l-24.86-102l1.4-0.45l7.81,19.53
				l71.32-21.45l-3.11-22.77l2.12,4.85c2.67,6.12,6.99,15.98,9.6,21.92c-0.55-3.68-1.28-8.64-1.94-13.11l-0.76-5.17l9.44,20.84
				l-22.6-100.52l1.41-0.41l60.41,165.28l-24.85-102l1.42-0.46l7.81,19.53l72.02-21.98l-0.12-0.39l5.41-1.66l-3.1-22.6l2.19,5.04
				c2.66,6.08,6.97,15.94,9.58,21.86c-0.56-3.7-1.28-8.65-1.95-13.15l-0.76-5.16l9.44,20.83l-22.6-100.54l1.4-0.41l60.4,165.27
				l-24.86-102l1.4-0.45l7.81,19.53l71.32-21.45l-3.11-22.77l2.12,4.85c2.67,6.12,6.99,15.98,9.6,21.92
				c-0.55-3.68-1.28-8.64-1.94-13.11l-0.76-5.17l9.44,20.84l-22.6-100.52l1.41-0.41l60.41,165.28l-24.85-102l1.42-0.46l7.85,19.52
				l72.06-21.99l-0.12-0.39l5.33-1.63l-3.1-22.6l2.19,5.04c2.66,6.08,6.97,15.94,9.58,21.86c-0.56-3.7-1.28-8.65-1.95-13.15
				l-0.76-5.16l9.44,20.83l-22.6-100.54l1.4-0.41l60.4,165.27l-24.86-102l1.4-0.45l7.81,19.53l71.32-21.45l-3.11-22.77l2.12,4.85
				c2.67,6.12,6.99,15.98,9.6,21.92c-0.55-3.68-1.28-8.64-1.94-13.11l-0.76-5.17l9.44,20.84l-22.6-100.52l1.41-0.41l60.41,165.28
				l-24.85-102l1.42-0.46l7.89,19.51l72.1-22l-0.12-0.39l5.25-1.61l-3.1-22.6l2.19,5.04c2.66,6.08,6.97,15.94,9.58,21.86
				c-0.56-3.7-1.28-8.65-1.95-13.15l-0.76-5.16l9.44,20.83l-22.6-100.54l1.4-0.41l60.4,165.27l-24.86-102l1.4-0.45l7.75,19.55
				L1418.72,571.16z"/>
		</g>
		<path class="st7" d="M2775.03,406.9l-162.16,329.24c-0.44,0.9-0.92,1.77-1.42,2.62c-9.91,16.69-31.16,23.21-48.88,14.48
			L1846.4,400.52c-17.72-8.73-25.5-29.54-18.31-47.57c0.37-0.92,0.77-1.83,1.21-2.73l162.16-329.24c0.19-0.38,0.38-0.76,0.59-1.13
			c9.5-17.78,31.48-24.95,49.71-15.97l716.17,352.73c18.24,8.98,25.95,30.77,17.64,49.14
			C2775.4,406.13,2775.22,406.52,2775.03,406.9z"/>
		<path class="st8" d="M2775.57,405.74c8.31-18.37,0.59-40.16-17.64-49.14l-109.98-54.17l-496.22-244.4L2041.76,3.88
			c-18.24-8.98-40.21-1.82-49.71,15.97c-0.2,0.37-0.4,0.75-0.59,1.13l-44.49,90.34l-73.17,148.56l0,0l-44.49,90.34
			c-0.19,0.38-0.37,0.77-0.54,1.16c0,0.01-0.01,0.02-0.01,0.03c-0.23,0.51-0.45,1.03-0.66,1.54c-0.02,0.05-0.03,0.09-0.05,0.14
			c-0.03,0.09-0.06,0.18-0.1,0.26c-0.19,0.48-0.37,0.97-0.53,1.45c-0.05,0.16-0.1,0.31-0.15,0.47c-0.14,0.42-0.27,0.84-0.39,1.26
			c-0.06,0.2-0.11,0.4-0.16,0.6c-0.1,0.38-0.2,0.76-0.29,1.14c-0.05,0.23-0.1,0.46-0.15,0.7c-0.08,0.35-0.15,0.7-0.22,1.05
			c-0.05,0.25-0.09,0.51-0.13,0.76c-0.05,0.33-0.11,0.66-0.15,0.99c-0.04,0.27-0.06,0.54-0.1,0.81c-0.04,0.31-0.07,0.63-0.1,0.94
			c-0.02,0.28-0.04,0.57-0.06,0.85c-0.02,0.3-0.04,0.61-0.05,0.91c-0.01,0.29-0.02,0.58-0.02,0.87c-0.01,0.29-0.01,0.59-0.01,0.88
			c0,0.3,0.01,0.59,0.02,0.89c0.01,0.29,0.02,0.57,0.03,0.86c0.02,0.3,0.04,0.6,0.06,0.9c0.02,0.28,0.04,0.56,0.07,0.84
			c0.03,0.3,0.07,0.6,0.1,0.9c0.03,0.28,0.07,0.55,0.11,0.83c0.04,0.3,0.09,0.6,0.15,0.9c0.05,0.27,0.09,0.54,0.15,0.81
			c0.06,0.3,0.12,0.6,0.19,0.9c0.06,0.27,0.12,0.54,0.19,0.8c0.07,0.3,0.15,0.59,0.23,0.89c0.07,0.26,0.14,0.53,0.22,0.79
			c0.09,0.29,0.18,0.59,0.27,0.88c0.08,0.26,0.17,0.52,0.26,0.78c0.1,0.29,0.2,0.58,0.31,0.86c0.1,0.26,0.19,0.51,0.3,0.77
			c0.11,0.28,0.23,0.57,0.35,0.85c0.11,0.25,0.22,0.51,0.33,0.76c0.12,0.28,0.25,0.55,0.38,0.83c0.12,0.25,0.24,0.5,0.37,0.75
			c0.14,0.27,0.27,0.54,0.42,0.81c0.13,0.25,0.27,0.49,0.41,0.74c0.15,0.26,0.3,0.52,0.45,0.78c0.15,0.24,0.3,0.48,0.45,0.73
			c0.16,0.25,0.32,0.5,0.48,0.75c0.16,0.24,0.32,0.48,0.49,0.71c0.17,0.24,0.34,0.49,0.51,0.72c0.17,0.24,0.35,0.47,0.53,0.7
			c0.18,0.23,0.36,0.47,0.54,0.7c0.19,0.23,0.38,0.46,0.57,0.68c0.19,0.22,0.37,0.45,0.57,0.66c0.2,0.22,0.41,0.44,0.61,0.66
			c0.2,0.21,0.39,0.42,0.6,0.63c0.21,0.22,0.44,0.43,0.66,0.65c0.2,0.2,0.41,0.4,0.62,0.6c0.23,0.21,0.47,0.42,0.71,0.63
			c0.21,0.18,0.42,0.37,0.63,0.55c0.25,0.21,0.5,0.41,0.76,0.61c0.22,0.17,0.43,0.35,0.65,0.52c0.27,0.2,0.54,0.4,0.82,0.6
			c0.22,0.16,0.43,0.32,0.65,0.47c0.29,0.2,0.6,0.39,0.9,0.59c0.21,0.14,0.42,0.28,0.63,0.41c0.35,0.21,0.7,0.42,1.05,0.62
			c0.18,0.1,0.36,0.21,0.54,0.32c0.54,0.3,1.09,0.59,1.64,0.86l0.01,0.01l0,0l109.98,54.17l496.22,244.4l109.98,54.17
			c0.56,0.28,1.13,0.54,1.7,0.78c0.19,0.08,0.38,0.15,0.56,0.23c0.38,0.16,0.77,0.32,1.15,0.46c0.23,0.09,0.46,0.16,0.7,0.25
			c0.34,0.12,0.69,0.25,1.03,0.36c0.25,0.08,0.5,0.15,0.75,0.22c0.33,0.1,0.66,0.2,0.99,0.29c0.26,0.07,0.52,0.13,0.78,0.19
			c0.32,0.08,0.65,0.16,0.97,0.23c0.27,0.06,0.53,0.11,0.8,0.16c0.32,0.06,0.64,0.13,0.96,0.18c0.27,0.05,0.55,0.08,0.82,0.12
			c0.31,0.05,0.62,0.09,0.94,0.13c0.28,0.03,0.56,0.06,0.84,0.08c0.31,0.03,0.62,0.06,0.93,0.08c0.28,0.02,0.56,0.03,0.84,0.05
			c0.31,0.02,0.61,0.03,0.92,0.04c0.28,0.01,0.57,0.01,0.85,0.01c0.3,0,0.6,0,0.91-0.01c0.29-0.01,0.57-0.02,0.85-0.03
			c0.3-0.01,0.6-0.03,0.9-0.05c0.29-0.02,0.57-0.05,0.86-0.07c0.29-0.03,0.59-0.06,0.88-0.09c0.29-0.03,0.57-0.07,0.86-0.11
			c0.29-0.04,0.58-0.08,0.87-0.13c0.29-0.05,0.57-0.1,0.86-0.15c0.29-0.05,0.57-0.11,0.85-0.17c0.29-0.06,0.57-0.13,0.85-0.19
			c0.28-0.07,0.56-0.14,0.84-0.21c0.28-0.07,0.56-0.15,0.84-0.23c0.28-0.08,0.55-0.16,0.83-0.25c0.28-0.09,0.56-0.18,0.83-0.27
			c0.27-0.09,0.54-0.19,0.81-0.28c0.28-0.1,0.55-0.2,0.82-0.31c0.27-0.1,0.53-0.21,0.8-0.32c0.27-0.11,0.54-0.23,0.81-0.34
			c0.26-0.12,0.53-0.24,0.79-0.36c0.26-0.12,0.53-0.25,0.79-0.38c0.26-0.13,0.52-0.26,0.77-0.4c0.26-0.14,0.51-0.27,0.77-0.42
			c0.25-0.14,0.51-0.29,0.76-0.44c0.25-0.15,0.5-0.29,0.74-0.45c0.25-0.16,0.5-0.32,0.75-0.48c0.24-0.16,0.48-0.31,0.71-0.48
			c0.25-0.17,0.49-0.35,0.74-0.52c0.23-0.17,0.46-0.33,0.68-0.5c0.25-0.19,0.49-0.38,0.73-0.57c0.22-0.17,0.43-0.34,0.65-0.52
			c0.24-0.2,0.48-0.41,0.72-0.62c0.2-0.18,0.41-0.36,0.61-0.54c0.24-0.22,0.48-0.45,0.72-0.68c0.19-0.18,0.38-0.36,0.56-0.55
			c0.24-0.24,0.48-0.5,0.71-0.75c0.17-0.18,0.34-0.36,0.51-0.54c0.25-0.27,0.48-0.55,0.72-0.84c0.15-0.17,0.3-0.34,0.44-0.52
			c0.25-0.31,0.5-0.63,0.74-0.95c0.12-0.16,0.25-0.31,0.37-0.47c0.26-0.36,0.52-0.72,0.77-1.09c0.09-0.13,0.18-0.26,0.27-0.39
			c0.29-0.43,0.56-0.87,0.83-1.31c0.05-0.08,0.1-0.16,0.15-0.24c0.02-0.04,0.05-0.08,0.08-0.12c0.28-0.48,0.56-0.97,0.82-1.47
			c0-0.01,0.01-0.01,0.01-0.02c0.2-0.37,0.4-0.75,0.59-1.13l0,0l44.49-90.34l73.17-148.56l44.49-90.34
			C2775.22,406.52,2775.4,406.13,2775.57,405.74z M2618.18,636.56c-15.56-1.9-31.9-1.94-48.6,0.17
			c-34.58,4.36-65.41,17.18-89.37,35.31l-519.22-255.72c-0.24-30.04-8.87-62.3-26.49-92.37c-10.22-17.44-22.56-32.59-36.21-45.15
			l78.6-159.59c18.28,3.16,37.81,3.72,57.86,1.19c34.65-4.37,65.54-17.24,89.53-35.42l519.07,255.65
			c0.2,30.1,8.83,62.43,26.49,92.56c8.51,14.53,18.5,27.45,29.49,38.63L2618.18,636.56z"/>
		<path class="st8" d="M2152.67,436.04c-2.2-4.87-4.17-9.87-5.91-14.99c-14.22-41.82-11.3-86.68,8.21-126.31
			c40.29-81.81,139.63-115.59,221.44-75.29c81.81,40.29,115.58,139.63,75.29,221.44c-19.52,39.63-53.3,69.29-95.13,83.51
			c-41.82,14.22-86.68,11.3-126.31-8.21C2195.49,499.04,2168.39,470.93,2152.67,436.04z M2449.42,301.82
			c-14.77-32.77-40.54-60.79-75.23-77.87c-38.43-18.93-81.92-21.75-122.48-7.97c-40.55,13.79-73.31,42.55-92.24,80.97
			c-18.93,38.43-21.75,81.92-7.97,122.48c13.79,40.56,42.55,73.31,80.97,92.24c38.43,18.93,81.92,21.75,122.48,7.96
			c40.55-13.79,73.31-42.55,92.24-80.97l0,0C2469.18,394.02,2468.43,343.99,2449.42,301.82z"/>
		
			<ellipse transform="matrix(0.7071 -0.7071 0.7071 0.7071 414.555 1736.4326)" class="st8" cx="2303.34" cy="367.8" rx="142.44" ry="142.44"/>
		<path class="st7" d="M2249.35,442.57c-17.78-9.79-33.31-22.49-46.57-38.11l20.37-41.37c7.22,9.65,15.67,18.89,25.35,27.74
			c9.68,8.85,18.8,15.37,27.35,19.59c7.06,3.48,12.65,5.17,16.77,5.09c4.12-0.08,7.16-2.12,9.13-6.11c1.35-2.74,1.31-5.65-0.11-8.73
			c-1.43-3.08-4.31-7.18-8.65-12.31c-4.34-5.13-10.36-11.71-18.07-19.74c-8.63-9.1-14.98-17.67-19.07-25.73
			c-4.09-8.05-6.12-15.81-6.1-23.29c0.02-7.47,2.23-15.7,6.65-24.67c6.75-13.71,16.43-22.25,29.04-25.64
			c12.61-3.39,28.17-1.66,46.68,5.19l13.62-27.65l25.79,12.7l-13.49,27.4c16.08,9.05,30.73,21.33,43.95,36.82l-32.32,28.21
			c-13.52-16.36-27.25-27.97-41.21-34.85c-6.65-3.27-11.72-4.77-15.21-4.47c-3.5,0.29-6.02,2.01-7.58,5.17
			c-1.35,2.74-1.49,5.49-0.42,8.23c1.07,2.75,3.47,6.41,7.21,10.98c3.73,4.57,9.16,10.42,16.29,17.54
			c14.33,14.7,23.34,27.83,27.04,39.4c3.69,11.57,2.49,23.55-3.6,35.92c-6.87,13.96-16.88,23.12-30.02,27.48
			c-13.14,4.36-28.7,3.41-46.66-2.86l-16.42,33.34l-25.79-12.7L2249.35,442.57z"/>
		<g>
			<path class="st7" d="M1626.01,1245.58L1508.6,1593.3c-0.32,0.95-0.68,1.88-1.06,2.79c-7.63,17.85-27.83,27.11-46.55,20.79
				l-756.37-255.39c-18.71-6.32-29.17-25.93-24.42-44.75c0.24-0.96,0.52-1.91,0.84-2.86l117.41-347.72c0.14-0.4,0.28-0.8,0.43-1.2
				c7.08-18.88,27.92-28.88,47.18-22.37l756.37,255.39c19.26,6.5,29.77,27.09,23.96,46.39
				C1626.28,1244.77,1626.15,1245.18,1626.01,1245.58z"/>
			<path class="st8" d="M1626.4,1244.36c5.81-19.31-4.7-39.89-23.96-46.39l-116.15-39.22L962.22,981.8l-116.15-39.22
				c-19.26-6.5-40.1,3.49-47.18,22.37c-0.15,0.4-0.3,0.8-0.43,1.2l-32.22,95.41l-52.98,156.9h0l-32.22,95.41
				c-0.14,0.4-0.26,0.81-0.38,1.22c0,0.01,0,0.02-0.01,0.03c-0.16,0.54-0.31,1.08-0.45,1.62c-0.01,0.05-0.02,0.1-0.03,0.14
				c-0.02,0.09-0.04,0.18-0.06,0.27c-0.12,0.5-0.24,1.01-0.33,1.51c-0.03,0.16-0.06,0.32-0.09,0.48c-0.08,0.43-0.16,0.87-0.22,1.3
				c-0.03,0.2-0.05,0.41-0.08,0.61c-0.05,0.39-0.1,0.78-0.14,1.17c-0.02,0.24-0.04,0.47-0.06,0.71c-0.03,0.36-0.06,0.71-0.08,1.07
				c-0.01,0.26-0.02,0.52-0.03,0.77c-0.01,0.33-0.02,0.67-0.02,1c0,0.27,0.01,0.55,0.01,0.82c0.01,0.32,0.01,0.63,0.02,0.95
				c0.01,0.28,0.03,0.57,0.05,0.85c0.02,0.3,0.04,0.61,0.07,0.91c0.03,0.29,0.06,0.58,0.09,0.87c0.03,0.29,0.07,0.59,0.11,0.88
				c0.04,0.29,0.09,0.59,0.14,0.88c0.05,0.28,0.09,0.57,0.15,0.85c0.06,0.3,0.12,0.59,0.18,0.88c0.06,0.28,0.12,0.55,0.18,0.83
				c0.07,0.29,0.14,0.59,0.22,0.88c0.07,0.27,0.14,0.54,0.22,0.81c0.08,0.29,0.17,0.59,0.26,0.88c0.08,0.26,0.17,0.52,0.25,0.79
				c0.1,0.29,0.2,0.58,0.3,0.87c0.09,0.26,0.19,0.51,0.29,0.77c0.11,0.29,0.23,0.57,0.34,0.85c0.1,0.25,0.21,0.5,0.32,0.75
				c0.12,0.28,0.25,0.56,0.38,0.84c0.12,0.25,0.24,0.49,0.36,0.74c0.14,0.27,0.28,0.55,0.42,0.82c0.13,0.24,0.26,0.48,0.39,0.72
				c0.15,0.27,0.3,0.53,0.45,0.79c0.14,0.24,0.28,0.47,0.43,0.71c0.16,0.26,0.32,0.52,0.49,0.77c0.15,0.23,0.31,0.46,0.46,0.69
				c0.17,0.25,0.34,0.5,0.52,0.74c0.16,0.23,0.33,0.45,0.5,0.68c0.18,0.24,0.36,0.48,0.55,0.71c0.18,0.22,0.36,0.44,0.54,0.66
				c0.19,0.23,0.38,0.46,0.58,0.68c0.19,0.22,0.38,0.43,0.58,0.64c0.2,0.22,0.4,0.44,0.6,0.65c0.2,0.21,0.41,0.42,0.62,0.62
				c0.21,0.21,0.42,0.42,0.63,0.62c0.21,0.2,0.44,0.4,0.66,0.6c0.22,0.2,0.43,0.39,0.65,0.58c0.23,0.2,0.46,0.39,0.69,0.58
				c0.22,0.18,0.44,0.37,0.67,0.55c0.24,0.19,0.49,0.37,0.74,0.55c0.23,0.17,0.46,0.34,0.69,0.51c0.26,0.18,0.52,0.36,0.79,0.53
				c0.23,0.16,0.46,0.31,0.7,0.47c0.27,0.17,0.55,0.34,0.83,0.51c0.24,0.14,0.47,0.29,0.71,0.43c0.29,0.17,0.59,0.32,0.89,0.48
				c0.24,0.13,0.47,0.26,0.71,0.38c0.32,0.16,0.64,0.31,0.97,0.47c0.23,0.11,0.45,0.22,0.68,0.33c0.37,0.17,0.75,0.32,1.13,0.48
				c0.19,0.08,0.38,0.17,0.58,0.24c0.57,0.22,1.15,0.44,1.74,0.64l0.01,0h0l116.15,39.22l524.07,176.95l116.15,39.22
				c0.59,0.2,1.19,0.38,1.79,0.55c0.2,0.06,0.39,0.1,0.59,0.15c0.4,0.11,0.8,0.22,1.2,0.31c0.24,0.06,0.48,0.1,0.72,0.15
				c0.36,0.07,0.71,0.15,1.07,0.22c0.26,0.05,0.52,0.08,0.78,0.12c0.34,0.05,0.68,0.11,1.02,0.16c0.27,0.04,0.53,0.06,0.8,0.09
				c0.33,0.04,0.66,0.08,0.99,0.1c0.27,0.02,0.54,0.03,0.81,0.05c0.33,0.02,0.65,0.04,0.97,0.05c0.28,0.01,0.55,0.01,0.83,0.01
				c0.32,0,0.63,0.01,0.95,0.01c0.28,0,0.56-0.02,0.84-0.03c0.31-0.01,0.62-0.02,0.93-0.04c0.28-0.02,0.56-0.04,0.84-0.07
				c0.31-0.03,0.61-0.05,0.92-0.08c0.28-0.03,0.56-0.07,0.84-0.11c0.3-0.04,0.6-0.08,0.9-0.13c0.28-0.04,0.56-0.1,0.84-0.15
				c0.29-0.05,0.59-0.11,0.88-0.17c0.28-0.06,0.56-0.12,0.84-0.19c0.29-0.07,0.58-0.13,0.87-0.21c0.28-0.07,0.56-0.15,0.83-0.23
				c0.28-0.08,0.56-0.16,0.84-0.24c0.28-0.08,0.55-0.17,0.83-0.26c0.28-0.09,0.55-0.18,0.83-0.28c0.27-0.1,0.55-0.2,0.82-0.3
				c0.27-0.1,0.54-0.21,0.81-0.32c0.27-0.11,0.54-0.22,0.81-0.34c0.26-0.11,0.53-0.23,0.79-0.35c0.27-0.12,0.53-0.25,0.79-0.38
				c0.26-0.13,0.51-0.26,0.77-0.39c0.26-0.14,0.52-0.27,0.77-0.41c0.25-0.14,0.5-0.28,0.75-0.42c0.25-0.15,0.5-0.3,0.75-0.45
				c0.25-0.15,0.49-0.3,0.73-0.46c0.25-0.16,0.49-0.32,0.73-0.48c0.24-0.16,0.48-0.33,0.71-0.5c0.24-0.17,0.47-0.34,0.71-0.51
				s0.47-0.35,0.7-0.53c0.23-0.18,0.45-0.36,0.68-0.54c0.23-0.19,0.45-0.38,0.68-0.57c0.22-0.19,0.43-0.37,0.65-0.57
				c0.22-0.2,0.44-0.41,0.66-0.62c0.2-0.19,0.41-0.39,0.61-0.59c0.22-0.22,0.43-0.44,0.65-0.66c0.19-0.2,0.38-0.4,0.57-0.6
				c0.21-0.23,0.42-0.47,0.63-0.71c0.18-0.2,0.36-0.41,0.53-0.61c0.21-0.25,0.41-0.51,0.62-0.77c0.16-0.2,0.32-0.41,0.48-0.61
				c0.21-0.27,0.41-0.56,0.61-0.84c0.14-0.2,0.29-0.4,0.43-0.6c0.21-0.3,0.41-0.61,0.61-0.92c0.12-0.19,0.25-0.38,0.37-0.57
				c0.21-0.34,0.41-0.69,0.61-1.04c0.1-0.17,0.2-0.34,0.3-0.52c0.21-0.39,0.42-0.78,0.62-1.18c0.07-0.14,0.15-0.28,0.22-0.43
				c0.23-0.46,0.44-0.93,0.65-1.41c0.04-0.09,0.08-0.17,0.12-0.25c0.02-0.05,0.04-0.09,0.06-0.13c0.22-0.51,0.42-1.04,0.62-1.56
				c0-0.01,0.01-0.01,0.01-0.02c0.15-0.4,0.3-0.8,0.43-1.2l0,0l32.22-95.41l52.98-156.9l32.22-95.41
				C1626.15,1245.18,1626.28,1244.77,1626.4,1244.36z M1500.76,1493.89c-15.67,0.17-31.88,2.28-48.16,6.57
				c-33.7,8.87-62.58,25.64-83.95,46.76l-548.36-185.15c-4.19-29.75-16.99-60.59-38.42-88.08c-12.42-15.94-26.65-29.33-41.84-39.99
				l56.91-168.54c18.53,0.73,37.97-1.29,57.51-6.44c33.78-8.89,62.71-25.71,84.08-46.9l548.2,185.1
				c4.16,29.81,16.97,60.72,38.44,88.27c10.35,13.28,21.96,24.78,34.32,34.41L1500.76,1493.89z"/>
			<path class="st8" d="M1012.9,1356.38c-2.82-4.54-5.43-9.23-7.83-14.08c-19.6-39.59-22.61-84.44-8.48-126.29
				c29.17-86.4,123.2-132.96,209.6-103.79c86.4,29.17,132.96,123.2,103.79,209.6c-14.13,41.85-43.72,75.7-83.31,95.3
				c-39.59,19.6-84.44,22.62-126.29,8.48C1063.64,1413.2,1033.08,1388.9,1012.9,1356.38z M1289.4,1184.27
				c-18.95-30.54-48.19-54.92-84.82-67.29c-40.58-13.7-84.07-10.78-122.46,8.23s-67.07,51.83-80.78,92.41
				c-13.7,40.58-10.78,84.07,8.23,122.46c19.01,38.39,51.83,67.07,92.41,80.78c40.58,13.7,84.07,10.78,122.46-8.23
				c38.39-19.01,67.07-51.83,80.78-92.41l0,0C1321.13,1273.07,1313.79,1223.57,1289.4,1184.27z"/>
			
				<ellipse transform="matrix(0.7071 -0.7071 0.7071 0.7071 -559.47 1187.1449)" class="st8" cx="1153.28" cy="1268.91" rx="142.44" ry="142.44"/>
			<path class="st7" d="M1109.6,1350.13c-18.92-7.36-35.98-17.91-51.18-31.65l14.75-43.69c8.43,8.61,18.02,16.67,28.78,24.16
				c10.76,7.5,20.66,12.77,29.7,15.82c7.46,2.52,13.22,3.46,17.29,2.83c4.07-0.63,6.82-3.05,8.24-7.26c0.98-2.9,0.56-5.77-1.26-8.64
				c-1.82-2.86-5.22-6.55-10.19-11.06c-4.98-4.51-11.81-10.24-20.51-17.19c-9.75-7.88-17.18-15.55-22.29-22.99
				c-5.11-7.44-8.15-14.87-9.11-22.28c-0.97-7.41,0.15-15.86,3.35-25.33c4.89-14.47,13.36-24.22,25.41-29.24
				c12.05-5.02,27.7-5.35,46.96-1l9.86-29.2l27.24,9.2l-9.77,28.94c17.13,6.86,33.27,17.1,48.41,30.71l-28.32,32.22
				c-15.55-14.44-30.7-24.14-45.43-29.12c-7.02-2.37-12.24-3.18-15.67-2.43c-3.43,0.75-5.71,2.79-6.83,6.12
				c-0.98,2.9-0.76,5.63,0.67,8.22c1.42,2.58,4.29,5.9,8.59,9.94c4.3,4.04,10.45,9.13,18.45,15.25
				c16.14,12.68,26.81,24.52,31.99,35.5c5.18,10.99,5.57,23.02,1.16,36.09c-4.98,14.74-13.69,25.14-26.15,31.19
				c-12.45,6.06-28,7.16-46.63,3.31l-11.89,35.21l-27.24-9.2L1109.6,1350.13z"/>
		</g>
		<path class="st9" d="M1450.95,1374.77c-8.54,7.2-121.33,309.54-389.73,532.85l3.26-522.93L1450.95,1374.77z"/>
		<path class="st10" d="M879.54,1777.26l59.52-274.62c0,0,5.77-20.99,18.19-43.41c12.94-23.36,33.89-41.26,58.92-50.56
			l330.41-122.82l-79.6,174.47l-167.67,53.28c0,0-22.53,7.47-19.29,58.99l-1.83,136.62c-0.64,47.97,29.23,91.44,74.63,106.95
			c8.2,2.8,16.67,4.62,25.19,4.94l-143.51,198.29l-110.83-116.01C923.66,1903.39,864.89,1847.96,879.54,1777.26z"/>
		<path class="st11" d="M2431.49,2288.14H1251.65c-26.43,0-47.85-21.42-47.85-47.85V451.68c0-26.43,21.42-47.85,47.85-47.85h1179.84
			c26.43,0,47.85,21.42,47.85,47.85v1788.61C2479.34,2266.72,2457.91,2288.14,2431.49,2288.14z"/>
		<rect x="1249.89" y="545.67" class="st4" width="1181.15" height="1662.85"/>
		<rect x="1376.13" y="1062.99" class="st11" width="58" height="14.63"/>
		<rect x="1499.11" y="1062.99" class="st12" width="58" height="14.63"/>
		<rect x="1626.38" y="1062.99" class="st12" width="58" height="14.63"/>
		<rect x="1757.71" y="1062.99" class="st11" width="58" height="14.63"/>
		<rect x="1887.45" y="1062.99" class="st11" width="58" height="14.63"/>
		<rect x="1376.13" y="1183.78" class="st11" width="58" height="14.63"/>
		<rect x="1499.11" y="1183.78" class="st11" width="58" height="14.63"/>
		<rect x="1626.38" y="1183.78" class="st12" width="58" height="14.63"/>
		<rect x="1757.71" y="1183.78" class="st11" width="58" height="14.63"/>
		<rect x="2014.65" y="1183.78" class="st11" width="58" height="14.63"/>
		<rect x="1887.45" y="1183.78" class="st12" width="58" height="14.63"/>
		<rect x="1376.13" y="1299.32" class="st12" width="58" height="14.63"/>
		<rect x="1499.11" y="1299.32" class="st12" width="58" height="14.63"/>
		<rect x="1626.38" y="1299.32" class="st11" width="58" height="14.63"/>
		<rect x="1757.71" y="1299.32" class="st12" width="58" height="14.63"/>
		<rect x="1887.45" y="1299.32" class="st11" width="58" height="14.63"/>
		<rect x="1498.71" y="1421.65" class="st11" width="58" height="14.63"/>
		<rect x="1627.6" y="1421.65" class="st11" width="58" height="14.63"/>
		<rect x="1887.45" y="1669.6" class="st11" width="58" height="14.63"/>
		<rect x="1886.73" y="1541.89" class="st11" width="58" height="14.63"/>
		<rect x="1757.71" y="1541.89" class="st11" width="58" height="14.63"/>
		<rect x="2020.32" y="1421.21" class="st11" width="58" height="14.63"/>
		<rect x="1757.02" y="1422.04" class="st12" width="58" height="14.63"/>
		<rect x="1885.9" y="1422.04" class="st12" width="58" height="14.63"/>
		<rect x="2140.98" y="1422.04" class="st12" width="58" height="14.63"/>
		<rect x="2014.65" y="1062.99" class="st12" width="58" height="14.63"/>
		<rect x="2140.98" y="1062.99" class="st12" width="58" height="14.63"/>
		<rect x="1567.82" y="416.82" class="st13" width="516.08" height="110.47"/>
		<path class="st14" d="M2101.8,481.98c13.46,0,24.38,10.92,24.38,24.38v60.84c0,13.46-10.92,24.38-24.38,24.38h-551.46
			c-13.46,0-24.38-10.92-24.38-24.38v-60.84c0-13.46,10.92-24.38,24.38-24.38H2101.8 M2101.8,466.44h-551.46
			c-22.01,0-39.91,17.91-39.91,39.91v60.84c0,22.01,17.91,39.91,39.91,39.91h551.46c22.01,0,39.91-17.91,39.91-39.91v-60.84
			C2141.72,484.35,2123.81,466.44,2101.8,466.44L2101.8,466.44z"/>
		<rect x="1554.87" y="456.09" class="st4" width="541.11" height="33.01"/>
		<rect x="1554.87" y="472.05" class="st15" width="541.11" height="17.04"/>
		<rect x="1336.19" y="948.84" class="st16" width="699.41" height="18.7"/>
		<rect x="1336.19" y="889.78" class="st16" width="699.41" height="18.7"/>
		<rect x="1324.34" y="1952.86" class="st16" width="699.41" height="18.7"/>
		<rect x="1328.08" y="1995.25" class="st16" width="1027.3" height="18.7"/>
		<rect x="1328.08" y="2040.13" class="st16" width="1027.3" height="18.7"/>
		<path class="st16" d="M2364.73,1852.28H1336.19v-847.51h1028.54V1852.28z M1354.89,1834.23h991.14v-811.41h-991.14V1834.23z"/>
		<rect x="1454.62" y="1020.53" class="st16" width="18.7" height="816.87"/>
		<rect x="1582.81" y="1020.53" class="st16" width="18.7" height="816.87"/>
		<rect x="1710.99" y="1020.53" class="st16" width="18.7" height="816.87"/>
		<rect x="1841.11" y="1020.53" class="st16" width="18.7" height="816.87"/>
		<rect x="1971.65" y="1020.53" class="st16" width="18.7" height="816.87"/>
		<rect x="2096.94" y="1020.53" class="st16" width="18.7" height="816.87"/>
		<rect x="2224.31" y="1018.74" class="st16" width="18.7" height="816.87"/>
		<rect x="1353.02" y="1115.36" class="st16" width="994.89" height="18.7"/>
		<rect x="1353.02" y="1236.65" class="st16" width="994.89" height="18.7"/>
		<rect x="1353.02" y="1357.93" class="st16" width="994.89" height="18.7"/>
		<rect x="1353.02" y="1479.21" class="st16" width="994.89" height="18.7"/>
		<rect x="1353.02" y="1600.5" class="st16" width="994.89" height="18.7"/>
		<rect x="1353.02" y="1715.87" class="st16" width="994.89" height="18.7"/>
		<path class="st10" d="M1267.43,1727.73c6.88-17.27,29.03-87.55,25.08-152.67l-5.43-133.54c0,0,0.14-44.95,41.47-64.99
			c1.91-0.93,3.91-1.64,5.97-2.17c11.88-3.02,53.75-10.83,86.24,18.3c3.64,3.26,6.49,7.32,8.31,11.85
			c4.12,10.21,10.03,32.15,10.57,74.57l17.98,363.14c0,0,0.39,91.69-17.24,153.97c-0.27,0.96-0.5,1.92-0.68,2.89
			c-1.77,9.53-12.16,63.88-23.15,89.2c-1.79,4.13-2.71,8.58-2.67,13.08l0.41,54.81c0.01,0.93-0.74,1.68-1.66,1.69l-291.94,3.02
			l-0.33-32.18c-0.08-7.73-2.94-15.17-8.05-20.97l-78.42-88.84l133.5-184.4c3.06-4.23,6.76-9.72,9.89-13.9
			C1180.08,1816.85,1220.71,1845.09,1267.43,1727.73z"/>
		<path class="st17" d="M1403.07,1485.9l-73.88-0.66c-6.31-0.06-11.34-5.29-11.16-11.59l1.19-40.4c0,0,2.87-32,43.35-36.7
			c0,0,34.06-2.67,49.06,27.29c0,0,5.13,12.43,2.85,37.89l-0.05,12.95C1414.41,1480.93,1409.31,1485.96,1403.07,1485.9z"/>
		
			<rect x="1237.94" y="1995.05" transform="matrix(-6.286195e-03 -1 1 -6.286195e-03 -908.2672 3445.0828)" class="st4" width="39.34" height="357.55"/>
		<polygon class="st18" points="1496.9,2183.08 1496.05,2501.39 1031.61,2501.39 1032.46,2182.2 1032.46,2181.85 		"/>
		<polygon class="st19" points="1264.69,2182.81 1263.85,2501.39 1031.25,2501.39 1032.1,2182.2 1032.46,2182.2 		"/>
		<g>
			<path class="st4" d="M1087.52,2239.42c7.65-3.53,16.72-0.18,20.24,7.47c3.53,7.65,0.18,16.72-7.47,20.24
				c-7.65,3.53-16.72,0.18-20.24-7.47C1076.53,2252.01,1079.87,2242.94,1087.52,2239.42z"/>
			<path class="st4" d="M1088.51,2288.93c7.65-3.53,16.72-0.18,20.24,7.47c3.53,7.65,0.18,16.72-7.47,20.24
				c-7.65,3.53-16.72,0.18-20.24-7.47C1077.52,2301.52,1080.86,2292.46,1088.51,2288.93z"/>
			<path class="st4" d="M1088.37,2338.97c7.65-3.53,16.72-0.18,20.24,7.47c3.53,7.65,0.18,16.72-7.47,20.24
				c-7.65,3.53-16.72,0.18-20.24-7.47C1077.37,2351.56,1080.71,2342.5,1088.37,2338.97z"/>
		</g>
		<path class="st9" d="M2160.2,1362.13c9.69,1.08,238.02,165.74,540.94,197.65l-255.79-377.75L2160.2,1362.13z"/>
		<path class="st10" d="M2710.67,1322.84l-176.26-170.36c0,0-14.36-12.43-34.23-22.68c-20.71-10.67-44.57-13.5-67.24-8.12
			l-299.2,71.04l142.29,87.99l147.45-42.61c0,0,19.96-5.5,42.58,33.44l67.53,98.22c23.71,34.48,23.11,80.5-2.3,113.75
			c-4.59,6.01-9.86,11.43-15.88,15.79l200.2,74.29l24.17-137.87C2739.78,1435.72,2755.55,1367.03,2710.67,1322.84z"/>
		<g>
			<path class="st20" d="M2044.14,1237.14l883.13,286.47c5.43,1.76,11.1-0.75,12.67-5.6l15.2-46.85c1.57-4.85-1.53-10.21-6.97-11.97
				l-883.13-286.47c-0.75-0.24-1.51-0.41-2.29-0.48l-20.75,63.96C2042.68,1236.58,2043.39,1236.89,2044.14,1237.14z"/>
			<path class="st21" d="M2948.97,1490.19l6.17-19.03c1.57-4.85-1.53-10.21-6.97-11.97l-883.13-286.47
				c-0.75-0.24-1.51-0.41-2.29-0.48l-6.18,19.04c0.58,0.06,1.16,0.16,1.72,0.32c0.19,0.04,0.38,0.11,0.56,0.17L2942,1478.22
				C2947.44,1479.98,2950.55,1485.34,2948.97,1490.19z"/>
			<path class="st22" d="M2051.51,1214.44l883.13,286.47c5.43,1.76,10.27,1.8,10.82,0.09l5.36-16.52c0.55-1.7-3.38-4.51-8.82-6.27
				l-883.13-286.47c-0.18-0.06-0.38-0.12-0.56-0.17c-0.56-0.18-1.12-0.33-1.67-0.48l-7.32,22.55
				C2050.03,1213.93,2050.75,1214.2,2051.51,1214.44z"/>
			<path class="st23" d="M2062.77,1172.2c0,0-143.91-15.35-145.25-11.74c-1.35,3.61,124.49,75.75,124.49,75.75L2062.77,1172.2z"/>
			<path class="st24" d="M1967.59,1162.89c0,0-50.91-4.83-51.14-2.83c-0.29,2.5,42.84,27.76,42.84,27.76L1967.59,1162.89z"/>
			<path class="st12" d="M2953.43,1459.21l-58.56-20.06l-23.9,69.76l58.56,20.06c21.1,7.23,43.74-2.55,50.31-21.74v0
				C2986.41,1488.05,2974.53,1466.44,2953.43,1459.21z"/>
		</g>
		<path class="st10" d="M2405.55,1475.62c-13.36-9.2-63.49-49.44-92.18-98.59l-60.78-99.5c0,0-21.89-32.54-61.57-27.04
			c-1.83,0.25-3.63,0.7-5.38,1.32c-10.08,3.57-44.24,18.19-53.69,55.07c-1.06,4.13-1.16,8.45-0.29,12.63
			c1.96,9.4,8.31,28.18,28.47,59.21l162.94,272.13c0,0,44.15,66.7,87.12,103.33c0.66,0.56,1.29,1.15,1.9,1.77
			c5.91,6.06,39.78,40.44,60.02,53.49c3.3,2.13,6.12,4.91,8.28,8.19l26.27,39.96c0.44,0.68,1.35,0.86,2.03,0.42l213.23-139.3
			l-15.36-23.51c-3.69-5.65-5.22-12.43-4.32-19.11l13.83-102.44l-186.2-69.07c-4.27-1.59-9.61-3.77-13.91-5.29
			C2512.11,1497.94,2496.32,1538.12,2405.55,1475.62z"/>
		<path class="st17" d="M2189.96,1365.94l53.27-36.28c4.55-3.1,5.67-9.33,2.47-13.82l-20.44-28.73c0,0-17.59-21.82-49.23-5.61
			c0,0-26,14.57-22.36,43.57c0,0,2.3,11.5,16.3,28.86l6.31,9.37C2179.32,1367.83,2185.46,1369.01,2189.96,1365.94z"/>
		
			<rect x="2591.19" y="1624.96" transform="matrix(-0.5375 -0.8433 0.8433 -0.5375 2493.0518 4974.8809)" class="st4" width="39.34" height="357.55"/>
		<polygon class="st18" points="3328.98,2501.39 2781.3,2501.39 2424.69,1930.65 2424.5,1930.36 2818.37,1684.24 		"/>
		<polygon class="st19" points="3055.15,2501.39 2780.89,2501.39 2424.38,1930.84 2424.69,1930.65 2621.62,1807.59 		"/>
		
			<ellipse transform="matrix(0.7071 -0.7071 0.7071 0.7071 76.6604 1810.9275)" class="st12" cx="2224.31" cy="812.93" rx="147.48" ry="147.48"/>
		<g>
			<rect x="2199.22" y="726.16" class="st4" width="50.18" height="173.54"/>
			
				<rect x="2199.22" y="726.16" transform="matrix(-1.836970e-16 1 -1 -1.836970e-16 3037.2397 -1411.3866)" class="st4" width="50.18" height="173.54"/>
		</g>
		<path class="st25" d="M2833.91,1030.84c0,50.5-40.94,91.44-91.44,91.44c-50.5,0-91.44-40.94-91.44-91.44
			c0-50.5,40.94-91.44,91.44-91.44C2792.97,939.4,2833.91,980.34,2833.91,1030.84z"/>
		<path class="st26" d="M2742.47,939.4c-50.5,0-91.44,40.94-91.44,91.44c0,50.5,40.94,91.44,91.44,91.44
			c50.5,0,91.44-40.94,91.44-91.44C2833.9,980.34,2792.97,939.4,2742.47,939.4z M2742.47,1118.96c-48.67,0-88.12-39.45-88.12-88.12
			c0-48.67,39.45-88.12,88.12-88.12c48.67,0,88.12,39.45,88.12,88.12C2830.59,1079.51,2791.14,1118.96,2742.47,1118.96z"/>
	</g>
</g>
</svg>
