<?xml version="1.0" encoding="utf-8"?>
<!-- Generator: Adobe Illustrator 23.0.1, SVG Export Plug-In . SVG Version: 6.00 Build 0)  -->
<svg version="1.1" id="栝鍣_1" xmlns="http://www.w3.org/2000/svg" xmlns:xlink="http://www.w3.org/1999/xlink" x="0px" y="0px"
	 viewBox="0 0 291.93 297.5" style="enable-background:new 0 0 291.93 297.5;" xml:space="preserve">
<style type="text/css">
	.st0{fill-rule:evenodd;clip-rule:evenodd;fill:#D3D3D1;}
	.st1{fill-rule:evenodd;clip-rule:evenodd;fill:#FFFFFF;}
	.st2{fill-rule:evenodd;clip-rule:evenodd;fill:#333333;}
	.st3{fill-rule:evenodd;clip-rule:evenodd;fill:#EBF0F3;}
	.st4{fill-rule:evenodd;clip-rule:evenodd;fill:#F58345;}
	.st5{fill-rule:evenodd;clip-rule:evenodd;fill:#71CFF3;}
	.st6{fill-rule:evenodd;clip-rule:evenodd;fill:#B3D2E7;}
	.st7{fill:#FF0000;}
	.st8{fill:#FFFFFF;}
	.st9{fill-rule:evenodd;clip-rule:evenodd;fill:#FFCC00;}
	.st10{fill-rule:evenodd;clip-rule:evenodd;fill:#FFCC99;}
	.st11{fill-rule:evenodd;clip-rule:evenodd;fill:#F6F7F7;}
	.st12{fill-rule:evenodd;clip-rule:evenodd;fill:#EFEFEF;}
	.st13{fill-rule:evenodd;clip-rule:evenodd;fill:#C99D8B;}
	.st14{fill-rule:evenodd;clip-rule:evenodd;}
	.st15{fill-rule:evenodd;clip-rule:evenodd;fill:#CD996A;}
	.st16{fill-rule:evenodd;clip-rule:evenodd;fill:#B2B2B2;}
	.st17{fill-rule:evenodd;clip-rule:evenodd;fill:#BDDFD3;}
	.st18{fill-rule:evenodd;clip-rule:evenodd;fill:#DDEEE8;}
	.st19{fill-rule:evenodd;clip-rule:evenodd;fill:#999999;}
	.st20{fill-rule:evenodd;clip-rule:evenodd;fill:#666666;}
	.st21{fill-rule:evenodd;clip-rule:evenodd;fill:#E5E5E5;}
	.st22{fill-rule:evenodd;clip-rule:evenodd;fill:#FFD6AE;}
	.st23{opacity:0.3;fill-rule:evenodd;clip-rule:evenodd;fill:#BDDFD3;}
	.st24{opacity:0.5;fill-rule:evenodd;clip-rule:evenodd;fill:#FFFFFF;}
</style>
<g>
	<g>
		<g>
			<g>
				<path class="st0" d="M244.8,181.88c8.23-0.03,14.93-6.56,14.9-14.5l-0.61-152.99C259.06,6.44,252.3-0.03,244.08,0L14.9,0.91
					C6.67,0.94-0.03,7.47,0,15.41l0.61,152.99c0.03,7.94,6.79,14.42,15.01,14.39L244.8,181.88L244.8,181.88z M257.73,165.77
					c0.03,7.78-6.57,14.17-14.67,14.2l-225.72,0.9c-8.1,0.03-14.75-6.3-14.79-14.08L1.96,17.03C1.93,9.25,8.54,2.86,16.64,2.83
					l225.72-0.9c8.1-0.03,14.75,6.3,14.79,14.08L257.73,165.77z"/>
				<path class="st1" d="M243.06,179.96c8.1-0.03,14.7-6.42,14.67-14.2l-0.59-149.75c-0.03-7.78-6.68-14.11-14.79-14.08L16.64,2.83
					c-8.1,0.03-14.7,6.42-14.67,14.2l0.59,149.75c0.03,7.78,6.68,14.11,14.79,14.08L243.06,179.96L243.06,179.96z M236.33,11.62
					l0.63,158.71l-212.33,0.84L24,12.46L236.33,11.62L236.33,11.62z M13.81,83.96c4.36-0.02,7.91,3.51,7.93,7.87
					c0.02,4.36-3.51,7.91-7.87,7.93c-4.36,0.02-7.91-3.51-7.93-7.87C5.93,87.53,9.45,83.98,13.81,83.96z"/>
				
					<rect x="24.32" y="12.04" transform="matrix(1 -3.968770e-03 3.968770e-03 1 -0.3617 0.5186)" class="st2" width="212.33" height="158.71"/>
				<path class="st3" d="M13.88,99.76c4.36-0.02,7.89-3.57,7.87-7.93c-0.02-4.36-3.57-7.88-7.93-7.87
					c-4.36,0.02-7.88,3.57-7.87,7.93C5.96,96.25,9.51,99.77,13.88,99.76z"/>
			</g>
			<g>
				
					<rect x="39.2" y="104.28" transform="matrix(1 -3.970083e-03 3.970083e-03 1 -0.514 0.1715)" class="st4" width="7.46" height="50.55"/>
				
					<rect x="51.52" y="113.21" transform="matrix(1 -3.968490e-03 3.968490e-03 1 -0.5313 0.2203)" class="st4" width="7.46" height="41.58"/>
				
					<rect x="63.85" y="132.6" transform="matrix(1 -3.971270e-03 3.971270e-03 1 -0.57 0.2695)" class="st4" width="7.46" height="22.13"/>
				
					<rect x="88.45" y="136.88" transform="matrix(1 -4.014223e-03 4.014223e-03 1 -0.5844 0.3712)" class="st4" width="7.46" height="17.76"/>
				
					<rect x="100.74" y="132.46" transform="matrix(1 -3.971288e-03 3.971288e-03 1 -0.5692 0.416)" class="st4" width="7.46" height="22.13"/>
				
					<rect x="112.96" y="93.33" transform="matrix(1 -3.956781e-03 3.956781e-03 1 -0.4895 0.4627)" class="st4" width="7.46" height="61.21"/>
				
					<rect x="125.24" y="87.27" transform="matrix(1 -3.965763e-03 3.965763e-03 1 -0.4784 0.5124)" class="st4" width="7.46" height="67.22"/>
				
					<rect x="137.51" y="72.74" transform="matrix(1 -3.967946e-03 3.967946e-03 1 -0.4496 0.5613)" class="st4" width="7.46" height="81.7"/>
				
					<rect x="149.85" y="94.01" transform="matrix(1 -3.962571e-03 3.962571e-03 1 -0.491 0.6095)" class="st5" width="7.46" height="60.39"/>
				
					<rect x="162.18" y="110.08" transform="matrix(1 -3.971091e-03 3.971091e-03 1 -0.5237 0.6599)" class="st5" width="7.46" height="44.27"/>
				
					<rect x="174.5" y="125.88" transform="matrix(1 -3.986738e-03 3.986738e-03 1 -0.5571 0.7117)" class="st5" width="7.46" height="28.42"/>
				
					<rect x="186.82" y="137.31" transform="matrix(1 -3.919154e-03 3.919154e-03 1 -0.5699 0.7479)" class="st5" width="7.46" height="16.94"/>
				
					<rect x="211.39" y="124.37" transform="matrix(1 -4.001821e-03 4.001821e-03 1 -0.5556 0.862)" class="st6" width="7.46" height="29.79"/>
				
					<rect x="223.56" y="60.1" transform="matrix(1 -3.969076e-03 3.969076e-03 1 -0.4233 0.903)" class="st5" width="7.46" height="94"/>
				
					<rect x="76.17" y="145.81" transform="matrix(1 -3.953549e-03 3.953549e-03 1 -0.5934 0.3171)" class="st4" width="7.46" height="8.88"/>
				
					<rect x="199.13" y="145.73" transform="matrix(1 -4.039120e-03 4.039120e-03 1 -0.6041 0.8206)" class="st6" width="7.46" height="8.47"/>
				<g>
					<path class="st1" d="M28.4,147.34l-0.01-3.04l-0.22,0c-0.06,0.13-0.16,0.27-0.3,0.41c-0.14,0.14-0.31,0.26-0.5,0.36l0,0.36
						c0.11-0.04,0.23-0.11,0.36-0.19c0.13-0.09,0.24-0.17,0.32-0.26l0.01,2.37L28.4,147.34z"/>
					<path class="st1" d="M29.27,145.85c0,0.57,0.1,0.98,0.28,1.23c0.15,0.21,0.37,0.31,0.63,0.31c0.2,0,0.37-0.06,0.51-0.18
						c0.13-0.12,0.23-0.29,0.3-0.51c0.07-0.22,0.1-0.5,0.1-0.86c0-0.3-0.02-0.54-0.07-0.72c-0.04-0.18-0.1-0.33-0.17-0.45
						c-0.07-0.12-0.17-0.22-0.28-0.28c-0.11-0.06-0.24-0.1-0.39-0.1c-0.2,0-0.37,0.06-0.5,0.18c-0.13,0.12-0.23,0.29-0.3,0.51
						C29.3,145.2,29.27,145.49,29.27,145.85L29.27,145.85z M30.18,147.08c-0.16,0-0.29-0.08-0.4-0.25
						c-0.11-0.16-0.16-0.49-0.16-0.99c0-0.5,0.06-0.84,0.17-1.02c0.09-0.14,0.22-0.22,0.38-0.22c0.16,0,0.29,0.08,0.4,0.24
						c0.11,0.16,0.16,0.49,0.17,0.99c0,0.5-0.05,0.83-0.16,0.99C30.47,147,30.34,147.08,30.18,147.08z"/>
					<path class="st1" d="M31.44,145.84c0,0.57,0.1,0.98,0.28,1.23c0.15,0.21,0.37,0.31,0.63,0.31c0.2,0,0.37-0.06,0.51-0.18
						c0.13-0.12,0.23-0.29,0.3-0.51c0.07-0.22,0.1-0.5,0.1-0.86c0-0.3-0.02-0.54-0.07-0.71c-0.04-0.18-0.1-0.33-0.17-0.45
						c-0.07-0.12-0.17-0.22-0.28-0.28c-0.11-0.07-0.24-0.1-0.39-0.1c-0.2,0-0.37,0.06-0.5,0.18c-0.13,0.12-0.23,0.29-0.3,0.51
						C31.47,145.19,31.44,145.48,31.44,145.84L31.44,145.84z M32.75,146.82c-0.11,0.17-0.24,0.25-0.4,0.25
						c-0.16,0-0.29-0.08-0.4-0.25c-0.11-0.16-0.16-0.49-0.17-0.99c0-0.5,0.06-0.84,0.17-1.02c0.09-0.14,0.22-0.22,0.38-0.22
						c0.16,0,0.29,0.08,0.4,0.24c0.11,0.16,0.16,0.49,0.17,0.99C32.91,146.33,32.85,146.66,32.75,146.82z"/>
				</g>
				<g>
					<path class="st1" d="M27.04,132.43c-0.03,0.08-0.04,0.17-0.04,0.26l1.85-0.01l0-0.36l-1.37,0.01c0.04-0.07,0.09-0.13,0.14-0.2
						c0.06-0.07,0.19-0.2,0.39-0.38c0.25-0.23,0.42-0.4,0.53-0.53c0.1-0.13,0.18-0.25,0.23-0.37c0.05-0.12,0.07-0.24,0.07-0.36
						c0-0.24-0.08-0.44-0.24-0.6c-0.16-0.16-0.37-0.24-0.64-0.24c-0.26,0-0.48,0.08-0.63,0.23c-0.16,0.15-0.25,0.37-0.27,0.65
						l0.35,0.04c0-0.19,0.05-0.34,0.15-0.45c0.1-0.11,0.23-0.16,0.4-0.16c0.16,0,0.28,0.05,0.38,0.15c0.1,0.1,0.15,0.22,0.15,0.37
						c0,0.14-0.05,0.29-0.16,0.45c-0.11,0.16-0.31,0.37-0.61,0.64c-0.19,0.17-0.34,0.33-0.45,0.46
						C27.16,132.16,27.09,132.29,27.04,132.43z"/>
					<path class="st1" d="M29.49,132.41c0.15,0.21,0.37,0.31,0.63,0.31c0.2,0,0.37-0.06,0.51-0.18c0.13-0.12,0.23-0.29,0.3-0.51
						c0.07-0.22,0.1-0.51,0.1-0.86c0-0.3-0.02-0.54-0.07-0.72c-0.04-0.18-0.1-0.33-0.18-0.45c-0.07-0.12-0.17-0.22-0.28-0.28
						c-0.11-0.06-0.25-0.1-0.4-0.1c-0.2,0-0.37,0.06-0.5,0.18c-0.13,0.12-0.23,0.29-0.3,0.51c-0.07,0.22-0.1,0.51-0.1,0.86
						C29.21,131.75,29.31,132.16,29.49,132.41L29.49,132.41z M30.13,132.42c-0.16,0-0.29-0.08-0.4-0.25
						c-0.11-0.17-0.16-0.5-0.17-0.99c0-0.5,0.06-0.84,0.17-1.02c0.09-0.14,0.22-0.22,0.38-0.22c0.16,0,0.29,0.08,0.4,0.24
						c0.11,0.16,0.16,0.5,0.16,0.99c0,0.5-0.05,0.83-0.16,0.99C30.41,132.34,30.28,132.42,30.13,132.42z"/>
					<path class="st1" d="M31.66,132.41c0.15,0.21,0.37,0.31,0.63,0.31c0.2,0,0.37-0.06,0.51-0.18c0.13-0.12,0.23-0.29,0.3-0.51
						c0.07-0.22,0.1-0.5,0.1-0.86c0-0.3-0.02-0.54-0.07-0.72c-0.04-0.18-0.1-0.33-0.17-0.45c-0.07-0.12-0.17-0.22-0.28-0.28
						c-0.11-0.06-0.24-0.1-0.39-0.1c-0.2,0-0.37,0.06-0.5,0.18c-0.13,0.12-0.23,0.29-0.3,0.51c-0.07,0.22-0.1,0.51-0.1,0.86
						C31.38,131.74,31.48,132.16,31.66,132.41L31.66,132.41z M32.29,132.41c-0.16,0-0.29-0.08-0.4-0.24
						c-0.11-0.16-0.16-0.5-0.17-0.99c0-0.5,0.06-0.84,0.17-1.02c0.09-0.14,0.22-0.22,0.38-0.22c0.16,0,0.29,0.08,0.4,0.24
						c0.11,0.16,0.16,0.49,0.16,0.99c0,0.5-0.05,0.83-0.16,0.99C32.58,132.33,32.45,132.41,32.29,132.41z"/>
				</g>
				<g>
					<path class="st1" d="M27.27,117.84c0.16,0.16,0.37,0.24,0.61,0.23c0.27,0,0.5-0.09,0.67-0.28c0.18-0.19,0.26-0.41,0.26-0.67
						c0-0.2-0.05-0.36-0.14-0.49c-0.09-0.13-0.22-0.22-0.39-0.26c0.13-0.06,0.22-0.15,0.29-0.26c0.06-0.11,0.1-0.23,0.1-0.36
						c0-0.14-0.04-0.27-0.1-0.39c-0.07-0.12-0.17-0.22-0.3-0.29c-0.13-0.07-0.27-0.11-0.42-0.1c-0.22,0-0.41,0.07-0.55,0.21
						c-0.15,0.14-0.24,0.33-0.28,0.58l0.34,0.07c0.02-0.18,0.08-0.32,0.17-0.41c0.09-0.09,0.2-0.14,0.33-0.14
						c0.13,0,0.24,0.04,0.33,0.13c0.09,0.09,0.13,0.2,0.13,0.34c0,0.17-0.06,0.3-0.17,0.38c-0.12,0.08-0.25,0.13-0.39,0.13
						c-0.01,0-0.03,0-0.06,0l-0.04,0.33c0.1-0.03,0.18-0.04,0.24-0.04c0.16,0,0.29,0.05,0.39,0.16c0.1,0.11,0.15,0.25,0.15,0.42
						c0,0.18-0.05,0.33-0.16,0.45c-0.11,0.12-0.25,0.18-0.41,0.18c-0.14,0-0.25-0.04-0.35-0.14c-0.09-0.09-0.16-0.24-0.2-0.45
						l-0.34,0.05C27.01,117.48,27.11,117.68,27.27,117.84z"/>
					<path class="st1" d="M29.43,117.75c0.15,0.21,0.37,0.31,0.63,0.31c0.2,0,0.37-0.06,0.51-0.18c0.13-0.12,0.23-0.29,0.3-0.51
						c0.07-0.22,0.1-0.5,0.1-0.86c0-0.3-0.02-0.54-0.07-0.71c-0.04-0.18-0.1-0.33-0.17-0.45c-0.07-0.12-0.17-0.22-0.28-0.28
						c-0.11-0.07-0.24-0.1-0.39-0.1c-0.2,0-0.37,0.06-0.5,0.18c-0.13,0.12-0.23,0.29-0.3,0.51c-0.07,0.22-0.1,0.51-0.1,0.86
						C29.15,117.09,29.25,117.5,29.43,117.75L29.43,117.75z M30.07,117.76c-0.16,0-0.29-0.08-0.4-0.25
						c-0.11-0.16-0.16-0.5-0.17-0.99c0-0.5,0.06-0.84,0.17-1.02c0.09-0.14,0.22-0.22,0.38-0.22c0.16,0,0.29,0.08,0.4,0.24
						c0.11,0.16,0.16,0.49,0.16,0.99c0,0.5-0.05,0.83-0.16,0.99C30.36,117.67,30.23,117.76,30.07,117.76z"/>
					<path class="st1" d="M31.6,117.74c0.15,0.21,0.37,0.31,0.63,0.31c0.2,0,0.37-0.06,0.51-0.18c0.13-0.12,0.23-0.29,0.3-0.51
						c0.07-0.22,0.1-0.5,0.1-0.86c0-0.3-0.02-0.54-0.07-0.71c-0.04-0.18-0.1-0.33-0.17-0.45c-0.07-0.12-0.17-0.22-0.28-0.28
						c-0.11-0.06-0.24-0.1-0.39-0.1c-0.2,0-0.37,0.06-0.5,0.18c-0.13,0.12-0.23,0.29-0.3,0.51c-0.07,0.22-0.1,0.51-0.1,0.87
						C31.32,117.08,31.42,117.49,31.6,117.74L31.6,117.74z M32.24,117.75c-0.16,0-0.29-0.08-0.4-0.25c-0.11-0.16-0.16-0.5-0.16-0.99
						c0-0.5,0.06-0.84,0.17-1.02c0.09-0.14,0.22-0.22,0.38-0.22c0.16,0,0.29,0.08,0.4,0.24c0.11,0.16,0.16,0.5,0.17,0.99
						c0,0.5-0.05,0.83-0.16,0.99C32.53,117.67,32.39,117.75,32.24,117.75z"/>
				</g>
				<g>
					<path class="st1" d="M28.03,102.63l0,0.72l0.34,0l0-0.72l0.38,0l0-0.34l-0.38,0l-0.01-1.96l-0.28,0l-1.27,1.97l0,0.34
						L28.03,102.63L28.03,102.63z M28.02,100.93l0.01,1.36l-0.87,0L28.02,100.93z"/>
					<path class="st1" d="M29.38,103.09c0.15,0.21,0.37,0.31,0.63,0.31c0.2,0,0.37-0.06,0.51-0.18c0.13-0.12,0.23-0.29,0.3-0.51
						c0.07-0.22,0.1-0.5,0.1-0.86c0-0.3-0.02-0.54-0.07-0.72c-0.04-0.18-0.1-0.33-0.17-0.45c-0.07-0.12-0.17-0.22-0.28-0.28
						c-0.11-0.07-0.24-0.1-0.39-0.1c-0.2,0-0.37,0.06-0.5,0.18c-0.13,0.12-0.23,0.29-0.3,0.51c-0.07,0.22-0.1,0.51-0.1,0.86
						C29.1,102.43,29.19,102.84,29.38,103.09L29.38,103.09z M30.01,103.1c-0.16,0-0.29-0.08-0.4-0.24c-0.11-0.17-0.16-0.5-0.17-0.99
						c0-0.5,0.06-0.84,0.17-1.02c0.09-0.15,0.22-0.22,0.38-0.22c0.16,0,0.29,0.08,0.4,0.24c0.11,0.16,0.16,0.49,0.16,0.99
						c0,0.5-0.05,0.83-0.16,0.99C30.3,103.01,30.17,103.1,30.01,103.1z"/>
					<path class="st1" d="M31.54,103.08c0.15,0.21,0.37,0.31,0.63,0.31c0.2,0,0.37-0.06,0.51-0.18c0.13-0.12,0.23-0.29,0.3-0.51
						c0.07-0.22,0.1-0.5,0.1-0.86c0-0.3-0.02-0.54-0.07-0.72c-0.04-0.18-0.1-0.33-0.17-0.45c-0.08-0.12-0.17-0.22-0.28-0.28
						c-0.11-0.07-0.24-0.1-0.39-0.1c-0.2,0-0.37,0.06-0.5,0.18c-0.13,0.12-0.23,0.29-0.3,0.51c-0.07,0.22-0.1,0.51-0.1,0.86
						C31.27,102.42,31.36,102.83,31.54,103.08L31.54,103.08z M32.18,103.09c-0.16,0-0.29-0.08-0.4-0.25
						c-0.11-0.17-0.16-0.5-0.17-0.99c0-0.5,0.06-0.84,0.17-1.02c0.09-0.15,0.22-0.22,0.38-0.22c0.16,0,0.29,0.08,0.4,0.24
						c0.11,0.16,0.16,0.49,0.17,0.99c0,0.5-0.05,0.83-0.16,0.99C32.47,103,32.34,103.09,32.18,103.09z"/>
				</g>
				<g>
					<path class="st1" d="M27.15,88.52c0.16,0.15,0.37,0.23,0.62,0.23c0.31,0,0.55-0.13,0.73-0.37c0.15-0.2,0.22-0.44,0.22-0.71
						c0-0.29-0.09-0.52-0.25-0.71c-0.17-0.18-0.37-0.27-0.62-0.27c-0.18,0-0.36,0.06-0.53,0.19l0.15-0.81l1.11,0l0-0.36l-1.39,0.01
						l-0.26,1.56l0.32,0.04c0.05-0.09,0.12-0.16,0.21-0.21c0.09-0.05,0.19-0.08,0.3-0.08c0.18,0,0.32,0.06,0.43,0.18
						c0.11,0.12,0.17,0.29,0.17,0.5c0,0.22-0.06,0.4-0.17,0.54c-0.11,0.13-0.25,0.2-0.42,0.2c-0.14,0-0.25-0.05-0.35-0.14
						c-0.1-0.1-0.16-0.24-0.19-0.43l-0.36,0.04C26.89,88.16,26.99,88.37,27.15,88.52z"/>
					<path class="st1" d="M29.32,88.43c0.15,0.21,0.37,0.31,0.63,0.31c0.2,0,0.37-0.06,0.51-0.18c0.13-0.12,0.23-0.29,0.3-0.51
						c0.07-0.22,0.1-0.51,0.1-0.86c0-0.3-0.02-0.54-0.07-0.72c-0.04-0.18-0.1-0.33-0.17-0.45c-0.07-0.12-0.17-0.22-0.28-0.28
						c-0.11-0.06-0.24-0.1-0.39-0.1c-0.2,0-0.37,0.06-0.5,0.18c-0.13,0.12-0.23,0.29-0.3,0.51c-0.07,0.22-0.1,0.51-0.1,0.86
						C29.04,87.77,29.13,88.18,29.32,88.43L29.32,88.43z M29.95,88.44c-0.16,0-0.29-0.08-0.4-0.25c-0.11-0.16-0.16-0.49-0.16-0.99
						c0-0.5,0.06-0.84,0.17-1.02c0.09-0.15,0.22-0.22,0.38-0.22c0.16,0,0.29,0.08,0.4,0.25c0.11,0.16,0.16,0.49,0.16,0.99
						c0,0.5-0.05,0.83-0.16,0.99C30.24,88.35,30.11,88.43,29.95,88.44z"/>
					<path class="st1" d="M32.52,88.18c-0.11,0.17-0.24,0.25-0.4,0.25c-0.16,0-0.29-0.08-0.4-0.25c-0.11-0.16-0.16-0.49-0.16-0.99
						c0-0.5,0.06-0.84,0.17-1.02c0.09-0.15,0.22-0.22,0.38-0.22c0.16,0,0.29,0.08,0.4,0.25c0.11,0.16,0.16,0.49,0.17,0.99
						C32.67,87.68,32.62,88.01,32.52,88.18L32.52,88.18z M31.49,88.42c0.15,0.21,0.37,0.31,0.63,0.31c0.2,0,0.37-0.06,0.51-0.18
						c0.13-0.12,0.23-0.29,0.3-0.51c0.07-0.22,0.1-0.51,0.1-0.86c0-0.3-0.02-0.54-0.07-0.72c-0.04-0.18-0.1-0.33-0.17-0.45
						c-0.07-0.12-0.17-0.22-0.28-0.28c-0.11-0.07-0.25-0.1-0.4-0.1c-0.2,0-0.37,0.06-0.5,0.18c-0.13,0.12-0.23,0.29-0.3,0.51
						c-0.07,0.22-0.1,0.51-0.1,0.86C31.21,87.76,31.3,88.17,31.49,88.42z"/>
				</g>
				<g>
					<path class="st1" d="M27.07,73.75c0.18,0.23,0.41,0.34,0.7,0.34c0.17,0,0.32-0.04,0.45-0.13c0.13-0.09,0.24-0.21,0.31-0.38
						c0.07-0.16,0.11-0.34,0.11-0.53c0-0.29-0.08-0.52-0.24-0.71c-0.16-0.18-0.36-0.27-0.58-0.27c-0.13,0-0.26,0.03-0.38,0.1
						c-0.12,0.07-0.22,0.17-0.3,0.3c0-0.3,0.03-0.54,0.09-0.7c0.06-0.16,0.15-0.29,0.25-0.37c0.08-0.07,0.18-0.1,0.29-0.1
						c0.14,0,0.25,0.05,0.34,0.16c0.06,0.07,0.1,0.17,0.13,0.32l0.34-0.03c-0.03-0.24-0.11-0.42-0.25-0.55
						c-0.14-0.13-0.32-0.2-0.54-0.2c-0.3,0-0.53,0.12-0.7,0.35c-0.2,0.27-0.3,0.69-0.29,1.28C26.8,73.15,26.89,73.52,27.07,73.75
						L27.07,73.75z M27.27,73.43c-0.05-0.12-0.08-0.24-0.08-0.37c0-0.2,0.05-0.35,0.16-0.47c0.11-0.12,0.24-0.18,0.39-0.18
						c0.16,0,0.29,0.06,0.39,0.18c0.1,0.12,0.16,0.29,0.16,0.49c0,0.22-0.05,0.39-0.15,0.52c-0.1,0.13-0.23,0.19-0.37,0.19
						c-0.1,0-0.19-0.03-0.28-0.09C27.39,73.63,27.32,73.54,27.27,73.43z"/>
					<path class="st1" d="M29.26,73.77c0.15,0.21,0.37,0.31,0.63,0.31c0.2,0,0.37-0.06,0.51-0.18c0.13-0.12,0.23-0.29,0.3-0.51
						c0.07-0.22,0.1-0.51,0.1-0.86c0-0.3-0.02-0.54-0.07-0.72c-0.04-0.18-0.1-0.33-0.17-0.45c-0.07-0.12-0.17-0.22-0.28-0.28
						c-0.11-0.07-0.24-0.1-0.4-0.1c-0.2,0-0.37,0.06-0.5,0.18c-0.13,0.12-0.23,0.29-0.3,0.51c-0.07,0.22-0.1,0.51-0.1,0.86
						C28.98,73.11,29.07,73.52,29.26,73.77L29.26,73.77z M29.5,73.53c-0.11-0.16-0.16-0.5-0.16-0.99c0-0.5,0.06-0.84,0.17-1.02
						c0.09-0.15,0.22-0.22,0.38-0.22c0.16,0,0.29,0.08,0.4,0.24c0.11,0.16,0.16,0.49,0.16,0.99c0,0.5-0.05,0.83-0.16,0.99
						c-0.11,0.16-0.24,0.25-0.4,0.25C29.74,73.78,29.6,73.69,29.5,73.53z"/>
					<path class="st1" d="M31.43,73.76c0.15,0.21,0.37,0.31,0.63,0.31c0.2,0,0.37-0.06,0.51-0.18c0.13-0.12,0.23-0.29,0.3-0.51
						c0.07-0.22,0.1-0.5,0.1-0.86c0-0.3-0.02-0.54-0.07-0.72c-0.04-0.18-0.1-0.33-0.17-0.45c-0.08-0.12-0.17-0.22-0.28-0.28
						c-0.11-0.06-0.24-0.1-0.39-0.1c-0.2,0-0.37,0.06-0.5,0.18c-0.13,0.12-0.23,0.29-0.3,0.51c-0.07,0.22-0.1,0.51-0.1,0.86
						C31.15,73.1,31.24,73.51,31.43,73.76L31.43,73.76z M32.46,73.52c-0.11,0.17-0.24,0.25-0.4,0.25c-0.16,0-0.29-0.08-0.4-0.25
						c-0.11-0.16-0.16-0.5-0.17-0.99c0-0.5,0.06-0.84,0.17-1.02c0.09-0.14,0.22-0.22,0.38-0.22c0.16,0,0.29,0.08,0.4,0.24
						c0.11,0.16,0.16,0.49,0.17,0.99C32.62,73.02,32.56,73.35,32.46,73.52z"/>
				</g>
				<g>
					<path class="st1" d="M27.3,58.51c-0.08,0.34-0.12,0.63-0.13,0.86l0.35,0c0.02-0.3,0.06-0.58,0.13-0.83
						c0.09-0.36,0.23-0.71,0.4-1.05c0.17-0.34,0.35-0.61,0.52-0.82l0-0.29l-1.81,0.01l0,0.36l1.37-0.01
						c-0.17,0.22-0.34,0.48-0.49,0.79C27.49,57.85,27.38,58.18,27.3,58.51z"/>
					<path class="st1" d="M28.92,57.88c0,0.57,0.1,0.98,0.28,1.23c0.15,0.21,0.37,0.31,0.63,0.31c0.21,0,0.37-0.06,0.51-0.18
						c0.13-0.12,0.23-0.29,0.3-0.51c0.07-0.22,0.1-0.5,0.1-0.86c0-0.3-0.02-0.54-0.07-0.72c-0.04-0.18-0.1-0.33-0.17-0.45
						c-0.08-0.12-0.17-0.22-0.28-0.28c-0.11-0.07-0.24-0.1-0.39-0.1c-0.2,0-0.37,0.06-0.5,0.18c-0.13,0.12-0.23,0.29-0.3,0.51
						C28.95,57.23,28.92,57.52,28.92,57.88L28.92,57.88z M30.23,58.86c-0.11,0.17-0.24,0.25-0.4,0.25c-0.16,0-0.29-0.08-0.4-0.25
						c-0.11-0.16-0.16-0.5-0.17-0.99c0-0.5,0.06-0.84,0.17-1.02c0.09-0.14,0.22-0.22,0.38-0.22c0.16,0,0.29,0.08,0.4,0.24
						c0.11,0.16,0.16,0.49,0.17,0.99C30.39,58.37,30.34,58.7,30.23,58.86z"/>
					<path class="st1" d="M31.09,57.87c0,0.57,0.1,0.98,0.28,1.23c0.15,0.21,0.37,0.31,0.64,0.31c0.2,0,0.37-0.06,0.51-0.18
						c0.13-0.12,0.23-0.29,0.3-0.51c0.07-0.22,0.1-0.51,0.1-0.86c0-0.3-0.02-0.54-0.07-0.72c-0.04-0.18-0.1-0.33-0.17-0.45
						c-0.07-0.12-0.17-0.22-0.28-0.28c-0.11-0.06-0.24-0.1-0.39-0.1c-0.2,0-0.37,0.06-0.5,0.18c-0.13,0.12-0.23,0.29-0.3,0.51
						C31.12,57.22,31.09,57.51,31.09,57.87L31.09,57.87z M32.4,58.85c-0.11,0.17-0.24,0.25-0.4,0.25c-0.16,0-0.29-0.08-0.4-0.25
						c-0.11-0.16-0.16-0.5-0.17-0.99c0-0.5,0.06-0.84,0.17-1.02c0.09-0.15,0.22-0.22,0.38-0.22c0.16,0,0.29,0.08,0.4,0.24
						c0.11,0.16,0.16,0.49,0.17,0.99C32.56,58.36,32.51,58.69,32.4,58.85z"/>
				</g>
				<g>
					<path class="st1" d="M26.69,43.84c0,0.26,0.09,0.48,0.26,0.66c0.17,0.18,0.39,0.26,0.67,0.26c0.28,0,0.5-0.09,0.67-0.27
						c0.17-0.18,0.25-0.39,0.25-0.65c0-0.19-0.05-0.35-0.14-0.48c-0.09-0.13-0.22-0.23-0.39-0.29c0.14-0.06,0.24-0.14,0.31-0.24
						c0.07-0.1,0.1-0.23,0.1-0.37c0-0.22-0.08-0.41-0.22-0.56c-0.15-0.15-0.35-0.23-0.59-0.23c-0.24,0-0.44,0.08-0.58,0.23
						c-0.15,0.15-0.22,0.34-0.22,0.56c0,0.15,0.04,0.27,0.1,0.38c0.07,0.1,0.17,0.18,0.32,0.24c-0.17,0.05-0.3,0.14-0.39,0.27
						C26.74,43.48,26.69,43.65,26.69,43.84L26.69,43.84z M27.11,44.15c-0.05-0.1-0.07-0.2-0.07-0.31c0-0.17,0.05-0.32,0.16-0.43
						c0.1-0.12,0.24-0.17,0.4-0.18c0.16,0,0.3,0.06,0.41,0.17c0.11,0.12,0.17,0.26,0.17,0.44c0,0.18-0.05,0.32-0.16,0.44
						c-0.11,0.12-0.24,0.17-0.4,0.17c-0.11,0-0.2-0.03-0.3-0.08C27.23,44.33,27.16,44.25,27.11,44.15L27.11,44.15z M27.28,42.8
						c-0.08-0.09-0.13-0.21-0.13-0.35c0-0.13,0.04-0.24,0.13-0.33c0.09-0.09,0.19-0.14,0.32-0.14c0.13,0,0.24,0.05,0.33,0.14
						c0.09,0.09,0.13,0.21,0.13,0.34c0,0.13-0.04,0.24-0.13,0.33c-0.08,0.09-0.19,0.14-0.32,0.14
						C27.47,42.93,27.36,42.88,27.28,42.8z"/>
					<path class="st1" d="M28.86,43.22c0,0.57,0.1,0.98,0.28,1.23c0.15,0.21,0.37,0.31,0.63,0.31c0.2,0,0.37-0.06,0.51-0.18
						c0.13-0.12,0.23-0.29,0.3-0.51c0.07-0.22,0.1-0.5,0.1-0.86c0-0.3-0.02-0.54-0.07-0.72c-0.04-0.18-0.1-0.33-0.17-0.45
						c-0.07-0.12-0.17-0.22-0.28-0.28c-0.11-0.06-0.24-0.1-0.4-0.1c-0.2,0-0.37,0.06-0.5,0.18c-0.13,0.12-0.23,0.29-0.3,0.51
						C28.89,42.57,28.86,42.86,28.86,43.22L28.86,43.22z M30.17,44.2c-0.11,0.17-0.24,0.25-0.4,0.25c-0.16,0-0.29-0.08-0.4-0.25
						c-0.11-0.16-0.16-0.5-0.16-0.99c0-0.5,0.06-0.84,0.17-1.02c0.09-0.14,0.22-0.22,0.38-0.22c0.16,0,0.29,0.08,0.4,0.24
						c0.11,0.16,0.16,0.49,0.16,0.99C30.33,43.71,30.28,44.04,30.17,44.2z"/>
					<path class="st1" d="M31.03,43.21c0,0.57,0.1,0.98,0.28,1.23c0.15,0.21,0.37,0.31,0.63,0.31c0.21,0,0.37-0.06,0.51-0.18
						c0.13-0.12,0.23-0.29,0.3-0.51c0.07-0.22,0.1-0.5,0.1-0.86c0-0.3-0.02-0.54-0.07-0.72c-0.04-0.18-0.1-0.33-0.17-0.45
						c-0.07-0.12-0.17-0.22-0.28-0.28c-0.11-0.06-0.24-0.1-0.39-0.1c-0.2,0-0.37,0.06-0.5,0.18c-0.13,0.12-0.23,0.29-0.3,0.51
						C31.06,42.56,31.03,42.85,31.03,43.21L31.03,43.21z M31.94,44.44c-0.16,0-0.29-0.08-0.4-0.24c-0.11-0.16-0.16-0.49-0.17-0.99
						c0-0.5,0.06-0.84,0.17-1.02c0.09-0.15,0.22-0.22,0.38-0.22c0.16,0,0.29,0.08,0.4,0.24c0.11,0.16,0.16,0.49,0.17,0.99
						c0,0.49-0.05,0.83-0.16,0.99C32.23,44.36,32.1,44.44,31.94,44.44z"/>
				</g>
				<path class="st7" d="M42.88,116.13c-0.16,0-0.3,0.14-0.31,0.31c-0.02,0.2,0.13,0.38,0.32,0.38l3.15-0.01
					c0.16,0,0.3-0.13,0.31-0.31c0.02-0.2-0.13-0.38-0.32-0.38L42.88,116.13L42.88,116.13z M226.47,116.08c0.16,0,0.3-0.13,0.31-0.31
					c0.02-0.2-0.13-0.38-0.32-0.38l-3.15,0.01c-0.16,0-0.3,0.13-0.31,0.31c-0.02,0.2,0.13,0.38,0.32,0.38L226.47,116.08
					L226.47,116.08z M217,116.12c0.16,0,0.3-0.13,0.31-0.31c0.02-0.2-0.13-0.38-0.32-0.38l-0.63,0c-0.16,0-0.3,0.13-0.31,0.31
					c-0.02,0.2,0.13,0.38,0.32,0.38L217,116.12L217,116.12z M210.06,116.15c0.16,0,0.3-0.13,0.31-0.31c0.02-0.2-0.13-0.38-0.32-0.38
					l-3.15,0.01c-0.16,0-0.3,0.13-0.31,0.31c-0.02,0.2,0.13,0.38,0.32,0.38L210.06,116.15L210.06,116.15z M200.6,116.18
					c0.16,0,0.3-0.13,0.31-0.31c0.02-0.2-0.13-0.38-0.32-0.38l-0.63,0c-0.16,0-0.3,0.13-0.31,0.31c-0.02,0.2,0.13,0.38,0.32,0.38
					L200.6,116.18L200.6,116.18z M193.66,116.21c0.16,0,0.3-0.13,0.31-0.31c0.02-0.2-0.13-0.38-0.32-0.38l-3.15,0.01
					c-0.16,0-0.3,0.14-0.31,0.31c-0.02,0.2,0.13,0.38,0.32,0.38L193.66,116.21L193.66,116.21z M184.2,116.25
					c0.16,0,0.3-0.13,0.31-0.31c0.02-0.2-0.13-0.38-0.32-0.38l-0.63,0c-0.16,0-0.3,0.13-0.31,0.31c-0.02,0.2,0.13,0.38,0.32,0.38
					L184.2,116.25L184.2,116.25z M177.26,116.28c0.16,0,0.3-0.13,0.31-0.31c0.02-0.2-0.13-0.38-0.32-0.38l-3.15,0.01
					c-0.16,0-0.3,0.13-0.31,0.31c-0.02,0.2,0.13,0.38,0.32,0.38L177.26,116.28L177.26,116.28z M167.79,116.31
					c0.16,0,0.3-0.13,0.31-0.31c0.02-0.2-0.13-0.38-0.32-0.38l-0.63,0c-0.16,0-0.3,0.14-0.31,0.31c-0.02,0.2,0.13,0.38,0.32,0.38
					L167.79,116.31L167.79,116.31z M160.85,116.34c0.16,0,0.3-0.14,0.31-0.31c0.02-0.2-0.13-0.38-0.32-0.38l-3.16,0.01
					c-0.16,0-0.3,0.13-0.31,0.31c-0.02,0.2,0.13,0.38,0.32,0.38L160.85,116.34L160.85,116.34z M151.39,116.38
					c0.16,0,0.3-0.13,0.31-0.31c0.02-0.2-0.13-0.38-0.32-0.38l-0.63,0c-0.16,0-0.3,0.13-0.31,0.31c-0.02,0.2,0.13,0.38,0.32,0.38
					L151.39,116.38L151.39,116.38z M144.45,116.41c0.16,0,0.3-0.13,0.31-0.31c0.02-0.2-0.13-0.38-0.32-0.38l-3.15,0.01
					c-0.16,0-0.3,0.14-0.31,0.31c-0.02,0.2,0.13,0.38,0.32,0.38L144.45,116.41L144.45,116.41z M134.99,116.45
					c0.16,0,0.3-0.13,0.31-0.31c0.02-0.2-0.13-0.38-0.32-0.38l-0.63,0c-0.16,0-0.3,0.13-0.31,0.31c-0.02,0.2,0.13,0.38,0.32,0.38
					L134.99,116.45L134.99,116.45z M128.05,116.47c0.16,0,0.3-0.13,0.31-0.31c0.02-0.2-0.13-0.38-0.32-0.38l-3.15,0.01
					c-0.16,0-0.3,0.13-0.31,0.31c-0.02,0.2,0.13,0.38,0.32,0.38L128.05,116.47L128.05,116.47z M118.59,116.51
					c0.16,0,0.3-0.13,0.31-0.31c0.02-0.2-0.13-0.38-0.32-0.38l-0.63,0c-0.16,0-0.3,0.14-0.31,0.31c-0.02,0.2,0.13,0.38,0.31,0.38
					L118.59,116.51L118.59,116.51z M111.65,116.54c0.16,0,0.3-0.14,0.31-0.31c0.02-0.2-0.13-0.38-0.32-0.38l-3.15,0.01
					c-0.16,0-0.3,0.13-0.31,0.31c-0.02,0.2,0.13,0.38,0.32,0.38L111.65,116.54L111.65,116.54z M102.18,116.58
					c0.16,0,0.3-0.13,0.31-0.31c0.02-0.2-0.13-0.38-0.31-0.38l-0.63,0c-0.16,0-0.3,0.14-0.31,0.31c-0.02,0.2,0.13,0.38,0.32,0.38
					L102.18,116.58L102.18,116.58z M95.24,116.6c0.16,0,0.3-0.13,0.31-0.31c0.02-0.2-0.13-0.38-0.32-0.38l-3.15,0.01
					c-0.16,0-0.3,0.14-0.31,0.31c-0.02,0.2,0.13,0.38,0.32,0.38L95.24,116.6L95.24,116.6z M85.78,116.64c0.16,0,0.3-0.14,0.31-0.31
					c0.02-0.2-0.13-0.38-0.32-0.38l-0.63,0c-0.16,0-0.3,0.13-0.31,0.31c-0.02,0.2,0.13,0.38,0.32,0.38L85.78,116.64L85.78,116.64z
					 M78.84,116.67c0.16,0,0.3-0.13,0.31-0.31c0.02-0.2-0.13-0.38-0.32-0.38L75.68,116c-0.16,0-0.3,0.13-0.31,0.31
					c-0.02,0.2,0.13,0.38,0.32,0.38L78.84,116.67L78.84,116.67z M69.38,116.71c0.16,0,0.3-0.13,0.31-0.31
					c0.02-0.2-0.13-0.38-0.32-0.38l-0.63,0c-0.16,0-0.3,0.13-0.31,0.31c-0.02,0.2,0.13,0.38,0.31,0.38L69.38,116.71L69.38,116.71z
					 M62.44,116.73c0.16,0,0.3-0.13,0.31-0.31c0.02-0.2-0.13-0.38-0.32-0.38l-3.15,0.01c-0.16,0-0.3,0.13-0.31,0.31
					c-0.02,0.2,0.13,0.38,0.32,0.38L62.44,116.73L62.44,116.73z M52.98,116.77c0.16,0,0.3-0.13,0.31-0.31
					c0.02-0.2-0.13-0.38-0.32-0.38l-0.63,0c-0.16,0-0.3,0.14-0.31,0.31c-0.02,0.2,0.13,0.38,0.32,0.38L52.98,116.77z"/>
				<path class="st8" d="M42.94,104.6c-0.16,0.07-0.34-0.02-0.41-0.2c-0.06-0.18,0.02-0.37,0.18-0.44l17.75-7.27
					c0.15-0.06,0.32,0.01,0.39,0.16l0,0l14.29,30.29l10.41,5.28l11.98-4.68c0.11-0.04,0.22-0.02,0.31,0.06l17.05,13.64l13.96-16.64
					c0.04-0.05,0.09-0.08,0.14-0.1l0,0l13.13-4.31l11.05-26.55c0.07-0.17,0.26-0.25,0.42-0.17c0.01,0.01,0.02,0.01,0.03,0.02l0,0
					l10.71,7.02c0.05,0.03,0.09,0.08,0.12,0.14l11.83,22.89l9.7,9.32l9.61,0.46l10.69-4.91l21.52-25.81
					c0.12-0.14,0.32-0.15,0.45-0.03c0.13,0.13,0.14,0.34,0.02,0.48l-21.56,25.85c-0.03,0.04-0.07,0.08-0.12,0.1l-10.81,4.97h0
					c-0.04,0.02-0.09,0.03-0.14,0.03l-9.79-0.47l0,0c-0.07,0-0.14-0.03-0.2-0.09l-9.81-9.43c-0.03-0.03-0.06-0.06-0.08-0.1
					l-11.82-22.87L153.6,94.5l-10.96,26.32c-0.03,0.1-0.11,0.18-0.2,0.21l-13.18,4.32l-14.09,16.79l0,0
					c-0.11,0.13-0.29,0.15-0.42,0.04l-17.16-13.72l-11.94,4.66l0,0c-0.08,0.03-0.16,0.03-0.24-0.01l-10.62-5.39l0,0
					c-0.06-0.03-0.12-0.08-0.15-0.15L60.43,97.44L42.94,104.6z"/>
				<path class="st8" d="M43.01,148.85c-0.16,0-0.3,0.14-0.31,0.31c-0.02,0.2,0.13,0.38,0.32,0.38l3.15-0.01
					c0.16,0,0.3-0.13,0.31-0.31c0.02-0.2-0.13-0.38-0.32-0.38L43.01,148.85L43.01,148.85z M226.59,148.8c0.16,0,0.3-0.14,0.31-0.31
					c0.02-0.2-0.13-0.38-0.32-0.38l-3.15,0.01c-0.16,0-0.3,0.13-0.31,0.31c-0.02,0.2,0.13,0.38,0.32,0.38L226.59,148.8L226.59,148.8
					z M217.13,148.84c0.16,0,0.3-0.13,0.31-0.31c0.02-0.2-0.13-0.38-0.32-0.38l-0.63,0c-0.16,0-0.3,0.13-0.31,0.31
					c-0.02,0.2,0.13,0.38,0.31,0.38L217.13,148.84L217.13,148.84z M210.19,148.87c0.16,0,0.3-0.13,0.31-0.31
					c0.02-0.2-0.13-0.38-0.32-0.38l-3.15,0.01c-0.16,0-0.3,0.13-0.31,0.31c-0.02,0.2,0.13,0.38,0.32,0.38L210.19,148.87
					L210.19,148.87z M200.73,148.91c0.16,0,0.3-0.14,0.31-0.31c0.02-0.2-0.13-0.38-0.32-0.38l-0.63,0c-0.16,0-0.3,0.14-0.31,0.31
					c-0.02,0.2,0.13,0.38,0.32,0.38L200.73,148.91L200.73,148.91z M193.79,148.93c0.16,0,0.3-0.13,0.31-0.31
					c0.02-0.2-0.13-0.38-0.31-0.38l-3.16,0.01c-0.16,0-0.3,0.13-0.31,0.31c-0.02,0.2,0.13,0.38,0.32,0.38L193.79,148.93
					L193.79,148.93z M184.33,148.97c0.16,0,0.3-0.13,0.31-0.31c0.02-0.2-0.13-0.38-0.31-0.38l-0.63,0c-0.16,0-0.3,0.14-0.31,0.31
					c-0.02,0.2,0.13,0.38,0.32,0.38L184.33,148.97L184.33,148.97z M177.39,149c0.16,0,0.3-0.14,0.31-0.31
					c0.02-0.2-0.13-0.38-0.32-0.38l-3.16,0.01c-0.16,0-0.3,0.13-0.31,0.31c-0.02,0.2,0.13,0.38,0.32,0.38L177.39,149L177.39,149z
					 M167.92,149.04c0.16,0,0.3-0.13,0.31-0.31c0.02-0.2-0.13-0.38-0.32-0.38l-0.63,0c-0.16,0-0.3,0.13-0.31,0.31
					c-0.02,0.2,0.13,0.38,0.32,0.38L167.92,149.04L167.92,149.04z M160.99,149.06c0.16,0,0.3-0.13,0.31-0.31
					c0.02-0.2-0.13-0.38-0.32-0.38l-3.15,0.01c-0.16,0-0.3,0.13-0.31,0.31c-0.02,0.2,0.13,0.38,0.32,0.38L160.99,149.06
					L160.99,149.06z M151.52,149.1c0.16,0,0.3-0.13,0.31-0.31c0.02-0.2-0.13-0.38-0.32-0.38l-0.63,0c-0.16,0-0.3,0.14-0.31,0.31
					c-0.02,0.2,0.13,0.38,0.31,0.38L151.52,149.1L151.52,149.1z M144.58,149.13c0.16,0,0.3-0.13,0.31-0.31
					c0.02-0.2-0.13-0.38-0.32-0.38l-3.15,0.01c-0.16,0-0.3,0.14-0.31,0.31c-0.02,0.2,0.13,0.38,0.31,0.38L144.58,149.13
					L144.58,149.13z M135.12,149.17c0.16,0,0.3-0.14,0.31-0.31c0.02-0.2-0.13-0.38-0.32-0.38l-0.63,0c-0.16,0-0.3,0.13-0.31,0.31
					c-0.02,0.2,0.13,0.38,0.32,0.38L135.12,149.17L135.12,149.17z M128.18,149.19c0.16,0,0.3-0.13,0.31-0.31
					c0.02-0.2-0.13-0.38-0.32-0.38l-3.15,0.01c-0.16,0-0.3,0.13-0.31,0.31c-0.02,0.2,0.13,0.38,0.32,0.38L128.18,149.19
					L128.18,149.19z M118.72,149.23c0.16,0,0.3-0.13,0.31-0.31c0.02-0.2-0.13-0.38-0.32-0.38l-0.63,0c-0.16,0-0.3,0.14-0.31,0.31
					c-0.02,0.2,0.13,0.38,0.32,0.38L118.72,149.23L118.72,149.23z M111.78,149.26c0.16,0,0.3-0.14,0.31-0.31
					c0.02-0.2-0.13-0.38-0.32-0.38l-3.15,0.01c-0.16,0-0.3,0.13-0.31,0.31c-0.02,0.2,0.13,0.38,0.32,0.38L111.78,149.26
					L111.78,149.26z M102.31,149.3c0.16,0,0.3-0.13,0.31-0.31c0.02-0.2-0.13-0.38-0.32-0.38l-0.63,0c-0.16,0-0.3,0.13-0.31,0.31
					c-0.02,0.2,0.13,0.38,0.32,0.38L102.31,149.3L102.31,149.3z M95.37,149.32c0.16,0,0.3-0.13,0.31-0.31
					c0.02-0.2-0.13-0.38-0.32-0.38l-3.15,0.01c-0.16,0-0.3,0.14-0.31,0.31c-0.02,0.2,0.13,0.38,0.32,0.38L95.37,149.32L95.37,149.32
					z M85.91,149.36c0.16,0,0.3-0.14,0.31-0.31c0.02-0.2-0.13-0.38-0.32-0.38l-0.63,0c-0.16,0-0.3,0.14-0.31,0.31
					c-0.02,0.2,0.13,0.38,0.31,0.38L85.91,149.36L85.91,149.36z M78.97,149.39c0.16,0,0.3-0.13,0.31-0.31
					c0.02-0.2-0.13-0.38-0.32-0.38l-3.15,0.01c-0.16,0-0.3,0.13-0.31,0.31c-0.02,0.2,0.13,0.38,0.31,0.38L78.97,149.39L78.97,149.39
					z M69.51,149.43c0.16,0,0.3-0.13,0.31-0.31c0.02-0.2-0.13-0.38-0.32-0.38l-0.63,0c-0.16,0-0.3,0.14-0.31,0.31
					c-0.02,0.2,0.13,0.38,0.32,0.38L69.51,149.43L69.51,149.43z M62.57,149.46c0.16,0,0.3-0.14,0.31-0.31
					c0.02-0.2-0.13-0.38-0.32-0.38l-3.16,0.01c-0.16,0-0.3,0.13-0.31,0.31c-0.02,0.2,0.13,0.38,0.31,0.38L62.57,149.46L62.57,149.46
					z M53.11,149.49c0.16,0,0.3-0.13,0.31-0.31c0.02-0.2-0.13-0.38-0.32-0.38l-0.63,0c-0.16,0-0.3,0.13-0.31,0.31
					c-0.02,0.2,0.13,0.38,0.32,0.38L53.11,149.49z"/>
				
					<rect x="66.71" y="83" transform="matrix(1 -3.957199e-03 3.957199e-03 1 -0.4261 0.2677)" class="st8" width="1.46" height="49.61"/>
				<path class="st8" d="M67.28,69.1c1.87-0.01,3.57,0.81,4.8,2.13c1.23,1.32,2,3.16,2,5.19c0.01,2.03-0.74,3.87-1.96,5.2
					c-1.22,1.33-2.91,2.16-4.78,2.17c-1.87,0.01-3.57-0.81-4.8-2.13c-1.23-1.32-2-3.16-2-5.19c-0.01-2.03,0.74-3.87,1.96-5.2
					C63.72,69.93,65.41,69.1,67.28,69.1L67.28,69.1z M71.06,72.35c-0.97-1.04-2.3-1.68-3.77-1.67c-1.47,0.01-2.79,0.66-3.75,1.7
					c-0.96,1.05-1.55,2.49-1.54,4.08c0.01,1.59,0.61,3.03,1.57,4.07c0.97,1.04,2.3,1.68,3.77,1.67c1.47-0.01,2.79-0.66,3.75-1.7
					c0.96-1.05,1.55-2.49,1.54-4.08C72.62,74.83,72.02,73.39,71.06,72.35z"/>
				<path class="st9" d="M67.3,72.26c2.13-0.01,3.86,1.86,3.87,4.17c0.01,2.31-1.71,4.19-3.84,4.2c-2.13,0.01-3.86-1.86-3.87-4.17
					C63.45,74.15,65.17,72.27,67.3,72.26z"/>
				
					<rect x="165.72" y="60.47" transform="matrix(1 -3.977624e-03 3.977624e-03 1 -0.3379 0.6627)" class="st8" width="1.46" height="49.61"/>
				<path class="st8" d="M166.29,46.57c1.87-0.01,3.57,0.81,4.8,2.13c1.23,1.32,2,3.16,2,5.19c0.01,2.03-0.74,3.87-1.96,5.2
					c-1.22,1.33-2.91,2.16-4.78,2.17c-1.87,0.01-3.57-0.81-4.8-2.13c-1.23-1.32-2-3.16-2-5.19c-0.01-2.03,0.74-3.87,1.96-5.2
					C162.73,47.41,164.42,46.58,166.29,46.57L166.29,46.57z M170.07,49.82c-0.97-1.04-2.3-1.68-3.77-1.67
					c-1.47,0.01-2.79,0.66-3.75,1.7c-0.96,1.05-1.55,2.49-1.54,4.08c0.01,1.59,0.61,3.03,1.57,4.07c0.97,1.04,2.3,1.68,3.77,1.67
					c1.47-0.01,2.79-0.66,3.75-1.7c0.96-1.05,1.55-2.49,1.54-4.08C171.63,52.3,171.03,50.86,170.07,49.82z"/>
				<path class="st9" d="M166.3,49.73c2.13-0.01,3.86,1.86,3.87,4.17c0.01,2.31-1.71,4.19-3.84,4.2c-2.13,0.01-3.86-1.86-3.87-4.17
					C162.46,51.62,164.18,49.74,166.3,49.73z"/>
				
					<rect x="202.02" y="96.12" transform="matrix(1 -3.977350e-03 3.977350e-03 1 -0.4794 0.8074)" class="st8" width="1.46" height="49.61"/>
				<path class="st8" d="M202.59,82.22c1.87-0.01,3.57,0.81,4.8,2.13c1.23,1.32,2,3.16,2,5.19c0.01,2.03-0.74,3.87-1.96,5.2
					c-1.22,1.33-2.91,2.16-4.78,2.17c-1.87,0.01-3.57-0.81-4.8-2.13c-1.23-1.32-2-3.16-2-5.19c-0.01-2.03,0.74-3.87,1.96-5.2
					C199.03,83.06,200.72,82.23,202.59,82.22L202.59,82.22z M206.37,85.48c-0.97-1.04-2.3-1.68-3.77-1.67
					c-1.47,0.01-2.8,0.66-3.75,1.7c-0.96,1.05-1.55,2.49-1.54,4.08c0.01,1.59,0.61,3.03,1.57,4.07c0.97,1.04,2.3,1.68,3.77,1.67
					c1.47-0.01,2.79-0.66,3.75-1.7c0.96-1.05,1.55-2.49,1.54-4.08C207.93,87.95,207.33,86.52,206.37,85.48z"/>
				<path class="st9" d="M202.61,85.39c2.13-0.01,3.86,1.86,3.87,4.17c0.01,2.31-1.71,4.19-3.84,4.2c-2.13,0.01-3.86-1.86-3.87-4.17
					C198.76,87.28,200.48,85.4,202.61,85.39z"/>
				
					<rect x="103.6" y="82.85" transform="matrix(1 -3.957191e-03 3.957191e-03 1 -0.4252 0.4137)" class="st8" width="1.46" height="49.61"/>
				<path class="st8" d="M104.17,68.95c1.87-0.01,3.57,0.81,4.8,2.13c1.23,1.32,2,3.16,2,5.19c0.01,2.03-0.74,3.87-1.96,5.2
					c-1.22,1.33-2.91,2.16-4.78,2.17c-1.87,0.01-3.57-0.81-4.8-2.13c-1.23-1.32-2-3.16-2-5.19c-0.01-2.03,0.74-3.87,1.96-5.2
					C100.61,69.79,102.3,68.96,104.17,68.95L104.17,68.95z M107.94,72.2c-0.97-1.04-2.3-1.68-3.77-1.67
					c-1.47,0.01-2.79,0.66-3.75,1.7c-0.96,1.05-1.55,2.49-1.54,4.08c0.01,1.59,0.61,3.03,1.57,4.07c0.97,1.04,2.3,1.68,3.77,1.67
					c1.47-0.01,2.79-0.66,3.75-1.7c0.96-1.05,1.55-2.49,1.54-4.08C109.51,74.68,108.91,73.24,107.94,72.2z"/>
				<path class="st9" d="M104.19,72.12c2.13-0.01,3.86,1.86,3.87,4.16c0.01,2.31-1.71,4.19-3.84,4.2c-2.13,0.01-3.86-1.86-3.87-4.17
					C100.34,74,102.06,72.12,104.19,72.12z"/>
				<path class="st8" d="M42.63,53.91c-0.16,0-0.3,0.13-0.31,0.31c-0.02,0.2,0.13,0.38,0.32,0.38l3.15-0.01
					c0.16,0,0.3-0.13,0.31-0.31c0.02-0.2-0.13-0.38-0.32-0.38L42.63,53.91L42.63,53.91z M226.11,53.87c0.16,0,0.3-0.14,0.31-0.31
					c0.02-0.2-0.13-0.38-0.31-0.38l-3.15,0.01c-0.16,0-0.3,0.13-0.31,0.31c-0.02,0.2,0.13,0.38,0.32,0.38L226.11,53.87L226.11,53.87
					z M216.66,53.9c0.16,0,0.3-0.14,0.31-0.31c0.02-0.2-0.13-0.38-0.32-0.38l-0.63,0c-0.16,0-0.3,0.13-0.31,0.31
					c-0.02,0.2,0.13,0.38,0.31,0.38L216.66,53.9L216.66,53.9z M209.72,53.93c0.16,0,0.3-0.13,0.31-0.31
					c0.02-0.2-0.13-0.38-0.32-0.38l-3.15,0.01c-0.16,0-0.3,0.14-0.31,0.31c-0.02,0.2,0.13,0.38,0.32,0.38L209.72,53.93L209.72,53.93
					z M200.26,53.97c0.16,0,0.3-0.14,0.31-0.31c0.02-0.2-0.13-0.38-0.32-0.38l-0.63,0c-0.16,0-0.3,0.14-0.31,0.31
					c-0.02,0.2,0.13,0.38,0.32,0.38L200.26,53.97L200.26,53.97z M193.33,54c0.16,0,0.3-0.13,0.31-0.31c0.02-0.2-0.13-0.38-0.32-0.38
					l-3.15,0.01c-0.16,0-0.3,0.13-0.31,0.31c-0.02,0.2,0.13,0.38,0.31,0.38L193.33,54L193.33,54z M183.87,54.03
					c0.16,0,0.3-0.13,0.31-0.31c0.02-0.2-0.13-0.38-0.32-0.38l-0.63,0c-0.16,0-0.3,0.13-0.31,0.31c-0.02,0.2,0.13,0.38,0.32,0.38
					L183.87,54.03L183.87,54.03z M176.93,54.06c0.16,0,0.3-0.14,0.31-0.31c0.02-0.2-0.13-0.38-0.32-0.38l-3.15,0.01
					c-0.16,0-0.3,0.13-0.31,0.31c-0.02,0.2,0.13,0.38,0.32,0.38L176.93,54.06L176.93,54.06z M167.48,54.1c0.16,0,0.3-0.13,0.31-0.31
					c0.02-0.2-0.13-0.38-0.32-0.38l-0.63,0c-0.16,0-0.3,0.14-0.31,0.31c-0.02,0.2,0.13,0.38,0.31,0.38L167.48,54.1L167.48,54.1z
					 M160.54,54.13c0.16,0,0.3-0.13,0.31-0.31c0.02-0.2-0.13-0.38-0.32-0.38l-3.15,0.01c-0.16,0-0.3,0.14-0.31,0.31
					c-0.02,0.2,0.13,0.38,0.32,0.38L160.54,54.13L160.54,54.13z M151.08,54.16c0.16,0,0.3-0.13,0.31-0.31
					c0.02-0.2-0.13-0.38-0.32-0.38l-0.63,0c-0.16,0-0.3,0.14-0.31,0.31c-0.02,0.2,0.13,0.38,0.31,0.38L151.08,54.16L151.08,54.16z
					 M144.15,54.19c0.16,0,0.3-0.13,0.31-0.31c0.02-0.2-0.13-0.38-0.32-0.38l-3.15,0.01c-0.16,0-0.3,0.13-0.31,0.31
					c-0.02,0.2,0.13,0.38,0.32,0.38L144.15,54.19L144.15,54.19z M134.69,54.23c0.16,0,0.3-0.14,0.31-0.31
					c0.02-0.2-0.13-0.38-0.31-0.38l-0.63,0c-0.16,0-0.3,0.13-0.31,0.31c-0.02,0.2,0.13,0.38,0.32,0.38L134.69,54.23L134.69,54.23z
					 M127.75,54.26c0.16,0,0.3-0.14,0.31-0.31c0.02-0.2-0.13-0.38-0.31-0.38l-3.15,0.01c-0.16,0-0.3,0.13-0.31,0.31
					c-0.02,0.2,0.13,0.38,0.32,0.38L127.75,54.26L127.75,54.26z M118.3,54.29c0.16,0,0.29-0.13,0.31-0.31
					c0.02-0.2-0.13-0.38-0.31-0.38l-0.63,0c-0.16,0-0.3,0.13-0.31,0.31c-0.02,0.2,0.13,0.38,0.32,0.38L118.3,54.29L118.3,54.29z
					 M111.36,54.32c0.16,0,0.29-0.13,0.31-0.31c0.02-0.2-0.13-0.38-0.31-0.38l-3.15,0.01c-0.16,0-0.3,0.14-0.31,0.31
					c-0.02,0.2,0.13,0.38,0.31,0.38L111.36,54.32L111.36,54.32z M101.9,54.36c0.16,0,0.3-0.13,0.31-0.31
					c0.02-0.2-0.13-0.38-0.31-0.38l-0.63,0c-0.16,0-0.3,0.14-0.31,0.31c-0.02,0.2,0.13,0.38,0.31,0.38L101.9,54.36L101.9,54.36z
					 M94.97,54.39c0.16,0,0.3-0.14,0.31-0.31c0.02-0.2-0.13-0.38-0.32-0.38l-3.15,0.01c-0.16,0-0.3,0.13-0.31,0.31
					c-0.02,0.2,0.13,0.38,0.32,0.38L94.97,54.39L94.97,54.39z M85.51,54.42c0.16,0,0.3-0.14,0.31-0.31c0.02-0.2-0.13-0.38-0.32-0.38
					l-0.63,0c-0.16,0-0.3,0.13-0.31,0.31c-0.02,0.2,0.13,0.38,0.32,0.38L85.51,54.42L85.51,54.42z M78.57,54.45
					c0.16,0,0.3-0.14,0.31-0.31c0.02-0.2-0.13-0.38-0.32-0.38l-3.15,0.01c-0.16,0-0.3,0.14-0.31,0.31c-0.02,0.2,0.13,0.38,0.32,0.38
					L78.57,54.45L78.57,54.45z M69.12,54.49c0.16,0,0.29-0.14,0.31-0.31c0.02-0.2-0.13-0.38-0.32-0.38l-0.63,0
					c-0.16,0-0.3,0.14-0.31,0.31c-0.02,0.2,0.13,0.38,0.32,0.38L69.12,54.49L69.12,54.49z M62.18,54.52c0.16,0,0.3-0.14,0.31-0.31
					c0.02-0.2-0.13-0.38-0.32-0.38l-3.15,0.01c-0.16,0-0.3,0.13-0.31,0.31c-0.02,0.2,0.13,0.38,0.31,0.38L62.18,54.52L62.18,54.52z
					 M52.72,54.55c0.16,0,0.3-0.13,0.31-0.31c0.02-0.2-0.13-0.38-0.31-0.38l-0.63,0c-0.16,0-0.3,0.14-0.31,0.31
					c-0.02,0.2,0.13,0.38,0.32,0.38L52.72,54.55z"/>
			</g>
		</g>
		<g>
			<polygon class="st1" points="41.24,20.54 35.75,20.52 35.68,37.17 39.1,37.18 39.15,24.49 41.73,37.19 44.81,37.2 47.5,24.52 
				47.45,37.22 50.85,37.23 50.92,20.58 45.46,20.56 43.31,30.68 			"/>
			<path class="st1" d="M57.29,20.61l-5.14,16.63l4.26,0.02l0.67-2.74l4.75,0.02l0.65,2.75l4.36,0.02l-5-16.67L57.29,20.61
				L57.29,20.61z M59.5,24.93l1.47,5.99l-2.97-0.01L59.5,24.93z"/>
			<path class="st1" d="M68.3,20.66L68.23,37.3l4.19,0.02l0.03-6.76l0.37,0c0.38,0,0.72,0.13,1.02,0.39
				c0.22,0.2,0.47,0.63,0.75,1.29l2.21,5.1l4.71,0.02l-2-4.83c-0.1-0.24-0.29-0.59-0.58-1.04c-0.29-0.45-0.51-0.74-0.66-0.88
				c-0.23-0.21-0.59-0.41-1.08-0.62c0.62-0.17,1.11-0.39,1.47-0.65c0.56-0.42,1-0.96,1.32-1.63c0.32-0.67,0.48-1.46,0.49-2.39
				c0-1.06-0.2-1.96-0.61-2.7c-0.42-0.74-0.96-1.25-1.64-1.52c-0.68-0.28-1.66-0.42-2.95-0.42L68.3,20.66L68.3,20.66z M72.45,27.42
				l0.01-3.38l1.83,0.01c0.76,0,1.28,0.15,1.55,0.44c0.28,0.29,0.41,0.7,0.41,1.24c0,0.36-0.09,0.69-0.26,0.96
				c-0.18,0.28-0.4,0.45-0.68,0.52c-0.55,0.15-0.92,0.22-1.1,0.22L72.45,27.42z"/>
			<polygon class="st1" points="82.92,20.72 82.85,37.36 87.01,37.38 87.03,33.32 89.2,30.54 92.01,37.4 97.15,37.42 92.06,27.04 
				97,20.78 91.46,20.75 87.06,27.03 87.08,20.74 			"/>
			<polygon class="st1" points="98.59,20.78 98.52,37.43 109.89,37.48 109.91,33.71 102.71,33.68 102.73,30.4 109.21,30.43 
				109.23,27.03 102.74,27 102.75,24.36 109.74,24.39 109.76,20.83 			"/>
			<polygon class="st1" points="111.26,20.84 111.24,24.95 115.49,24.97 115.44,37.5 119.61,37.52 119.66,24.99 123.91,25 
				123.93,20.89 			"/>
			
				<rect x="119.71" y="27.14" transform="matrix(4.169133e-03 -1 1 4.169133e-03 98.2692 157.1424)" class="st1" width="16.65" height="4.18"/>
			<polygon class="st1" points="133.18,20.93 133.11,37.58 137.03,37.59 137.06,28.45 142.08,37.61 146.01,37.63 146.08,20.98 
				142.15,20.97 142.11,30.18 137.07,20.95 			"/>
			<path class="st1" d="M148.3,29.32c-0.01,1.73,0.27,3.25,0.82,4.59c0.55,1.34,1.33,2.34,2.33,3.02c1.01,0.68,2.31,1.02,3.91,1.03
				c1.3,0.01,2.43-0.18,3.38-0.55c0.95-0.37,2.04-1.07,3.28-2.1l0.03-7.1l-6.44-0.03l-0.01,3.46l2.79,0.01l-0.01,1.57
				c-0.55,0.4-1.03,0.68-1.46,0.84c-0.42,0.17-0.87,0.25-1.33,0.25c-0.98,0-1.75-0.4-2.29-1.17c-0.55-0.77-0.82-2.06-0.81-3.86
				c0.01-1.7,0.29-2.93,0.83-3.72c0.55-0.78,1.28-1.17,2.19-1.17c0.61,0,1.12,0.17,1.51,0.51c0.39,0.33,0.67,0.82,0.84,1.45
				l4.02-0.87c-0.24-1.08-0.6-1.97-1.09-2.67c-0.49-0.7-1.1-1.22-1.83-1.56c-0.74-0.34-1.85-0.51-3.34-0.51
				c-1.54-0.01-2.78,0.26-3.69,0.79c-1.17,0.69-2.07,1.71-2.68,3.05C148.61,25.92,148.3,27.5,148.3,29.32z"/>
			<path class="st1" d="M170.81,21.09l-0.07,16.65l4.19,0.02l0.03-6.18l2.28,0.01c1.68,0.01,2.93-0.46,3.76-1.4
				c0.82-0.94,1.24-2.25,1.24-3.94c0.01-1.63-0.36-2.9-1.11-3.78c-0.75-0.89-1.88-1.34-3.38-1.34L170.81,21.09L170.81,21.09z
				 M174.97,28.2l0.02-3.71l1.19,0c0.78,0,1.31,0.19,1.59,0.55c0.28,0.36,0.42,0.81,0.42,1.33c0,0.54-0.17,0.98-0.49,1.32
				c-0.33,0.34-0.89,0.51-1.7,0.51L174.97,28.2z"/>
			<polygon class="st1" points="184.44,21.14 184.37,37.79 195.04,37.84 195.06,33.74 188.56,33.71 188.61,21.16 			"/>
			<path class="st1" d="M200.72,21.21l-5.14,16.62l4.26,0.02l0.67-2.75l4.75,0.02l0.65,2.75l4.36,0.02l-5-16.67L200.72,21.21
				L200.72,21.21z M202.92,25.54l1.47,5.99l-2.97-0.01L202.92,25.54z"/>
			<polygon class="st1" points="211.69,21.26 211.62,37.91 215.55,37.92 215.58,28.78 220.6,37.94 224.54,37.96 224.61,21.31 
				220.67,21.3 220.63,30.51 215.59,21.28 			"/>
		</g>
	</g>
	<g>
		<path class="st10" d="M43.1,182.19c6.04,5.4,7.71,11.75,10.33,19.28c1.03,2.97-0.44,1.55-1.83,0.08
			C46.43,196.1,47.65,188.18,43.1,182.19L43.1,182.19z M78.26,234.34l51.36,0.1l-1.93-31.06c-1.9-7.03,3.83-16.9-7.87-21.2H77.27
			c-11.4-1.48-9.67-7.33-20.29-20.74c-12.46-15.73-37.65-10.75-23.12,5.01c7.53,8.16,3.33,6.29,9.2,15.68l-14.14,0.05
			c5.43,8.52,5.97,9.84,14.17,15.61c11.45,8.07,11.96,13.21,23.24,17.82C77.67,220.27,75.16,224.71,78.26,234.34L78.26,234.34z
			 M38.94,156.19c5.7,1.63,1.06,3.95-1.49,8.75C34.22,171.01,27.76,153,38.94,156.19z"/>
		<path class="st11" d="M37.45,164.94c2.56-4.8,7.19-7.12,1.49-8.75C27.76,153,34.22,171.01,37.45,164.94z"/>
		<rect x="75.06" y="234.34" class="st12" width="60.72" height="20.99"/>
		<path class="st13" d="M53.43,201.46c-2.62-7.52-4.29-13.88-10.33-19.28c4.55,5.99,3.33,13.92,8.49,19.35
			C52.98,203.01,54.46,204.44,53.43,201.46z"/>
	</g>
	<rect x="70.39" y="255.34" class="st14" width="70.22" height="42.37"/>
	<g>
		<path class="st10" d="M219.83,160.15l-1.18,0.96l-6.93-13.82l-9.03-3.03l-6.44,5.76c2.63,0.1,5.5,1.08,8.11,3.21
			c2.24,1.83,4.88,4.63,8.13,8.87c6.08,7.92,54.68,23.32,46.9,49.31c-2.55,8.51-13.79,8.38-20.73,5.1
			c-5.66-2.68-9.86-5.45-13.03-8.23c0.38,6.27-0.75,12.46,6.92,14.63v11.33h41.56c0-9.05,0-18.1,0-27.15
			c-7.78-38.87-18.57-79.29-65.43-92.62c-2.4-0.43-21.08-2.8-24.31,0.67c-4.22,4.54,3.33,10.99,11.96,12.99l1.21,0.16l7.42-1.03
			l14.8,7.12l9.35,14.02l-0.81,1.28l-9.34-14.02l-14.8-7.12l-2.7,0.27l-11.39,5.33c-11.26,7.65-6.93,20.6,7.17,13.11
			c0.27-0.14,0.54-0.29,0.81-0.45l3.56-2.88l1.18-0.96l10.09,3.39L219.83,160.15z"/>
		<path class="st10" d="M211.55,181.93c-4.31-6.2-14.42-11.84-20.27-17.54c-1.32-1.29-2.27-2.55-2.91-3.75
			c-2.77,0.16-6.2-0.28-7.15,3.64c-1.87,7.72,11.95,6.66,11.96,6.66l15.66,12.4l8.24,13.07
			C214.78,190.88,214.24,185.81,211.55,181.93z"/>
		<polygon class="st15" points="202.7,144.26 211.72,147.29 218.65,161.11 219.83,160.15 212.91,146.34 202.81,142.95 201.63,143.9 
					"/>
		<polygon class="st15" points="218.98,135.64 228.32,149.67 229.14,148.39 219.79,134.36 204.99,127.25 197.57,128.28 
			201.48,128.79 204.18,128.52 		"/>
	</g>
	<g>
		<path class="st16" d="M218.21,182.59l5.2-3.57l4.03,5.87l-5.71,3.93l-4.04-5.87L218.21,182.59L218.21,182.59z M225.88,177.31
			l4.03,5.87l3.24-2.23l-4.03-5.87l-0.52,0.36L225.88,177.31z"/>
		<path class="st14" d="M228.6,175.44l-2.72,1.87l-31.24-45.42l2.72-1.87L228.6,175.44L228.6,175.44z M223.41,179.01l-31.24-45.42
			l-5.2,3.57l31.24,45.42L223.41,179.01z"/>
		<path class="st16" d="M197.37,130.02l-2.72,1.87l-1.4-2.04l3.88-2.67l1.4,2.04L197.37,130.02L197.37,130.02z M192.17,133.6
			l-5.2,3.57l-1.16,0.8l-1.4-2.04l6.35-4.37L192.17,133.6z"/>
		<path class="st14" d="M197.13,127.19l-3.88,2.67l-4.49-6.53l-0.03,0.02c1.5-1.29,2.82-2.72,3.97-4.26l5.21,7.57L197.13,127.19
			L197.13,127.19z M190.77,131.56l-4.4-6.4c-2.49,1.71-5.17,2.95-7.93,3.73l5.21,7.57l0.77-0.53L190.77,131.56L190.77,131.56z
			 M186.72,124.92c0.07-0.05,0.15-0.1,0.22-0.16C186.87,124.82,186.79,124.87,186.72,124.92L186.72,124.92z M188.06,123.9l0.09-0.08
			l-0.02,0.02L188.06,123.9z"/>
		<path class="st14" d="M199.4,65.46c10.6,19.86,4.81,44.96-14.18,58.02c-20.4,14.03-48.33,8.87-62.36-11.54
			c-12.79-18.6-9.63-43.44,6.48-58.32c-0.01,3.75,0.56,7.53,1.74,11.18c-9.1,12.04-9.96,29.02-0.94,42.14
			c11.27,16.38,33.7,20.53,50.08,9.26c13.44-9.24,18.65-25.99,13.87-40.76C196.39,72.39,198.17,69.02,199.4,65.46z"/>
		<path class="st17" d="M194.08,75.45c4.78,14.77-0.42,31.52-13.87,40.76c-16.38,11.27-38.81,7.12-50.08-9.26
			c-9.02-13.12-8.16-30.1,0.94-42.14c1.05,3.24,2.58,6.38,4.6,9.32c11.27,16.38,33.7,20.53,50.08,9.26
			C189.03,81.15,191.81,78.45,194.08,75.45z"/>
		<path class="st18" d="M185.76,83.39c-16.39,11.27-38.81,7.12-50.08-9.26c-2.03-2.94-3.55-6.09-4.6-9.32
			c2.27-3,5.05-5.69,8.32-7.94c16.38-11.27,38.81-7.12,50.08,9.26c2.03,2.94,3.55,6.09,4.6,9.32
			C191.81,78.45,189.03,81.15,185.76,83.39z"/>
		<path class="st2" d="M189.48,66.13c-11.27-16.39-33.7-20.53-50.08-9.26c-3.27,2.25-6.05,4.94-8.32,7.94
			c-1.18-3.65-1.75-7.43-1.74-11.18c1.57-1.45,3.25-2.8,5.06-4.04c20.4-14.03,48.33-8.87,62.36,11.54c0.97,1.41,1.85,2.86,2.64,4.34
			c-1.22,3.55-3,6.93-5.32,9.99C193.03,72.22,191.5,69.07,189.48,66.13z"/>
		<path class="st19" d="M196.76,61.13c-14.03-20.4-41.96-25.57-62.36-11.54c-1.81,1.24-3.5,2.59-5.06,4.04l0,0v0
			c-16.11,14.88-19.27,39.73-6.48,58.32c14.03,20.4,41.96,25.57,62.36,11.54c18.99-13.06,24.78-38.16,14.18-58.02
			C198.61,63.99,197.73,62.54,196.76,61.13L196.76,61.13z M129.45,50.81c1.2-1.02,2.46-1.98,3.79-2.9
			c21.33-14.67,50.52-9.27,65.19,12.06c0.63,0.92,1.22,1.84,1.78,2.79c9.75,16.54,8.23,36.99-2.81,51.8
			c-2.99,4.01-6.68,7.61-11.03,10.6c-4.35,2.99-9.03,5.15-13.85,6.51c-18.79,5.29-39.67-1.59-51.34-18.57
			C107.42,93.1,111.32,66.18,129.45,50.81z"/>
		<path class="st20" d="M186.37,125.16c0.61-0.42,1.2-0.86,1.76-1.32c0.21-0.17,0.41-0.34,0.61-0.52l4.49,6.53l-2.47,1.7
			L186.37,125.16z"/>
		
			<rect x="191.21" y="130.49" transform="matrix(0.8239 -0.5667 0.5667 0.8239 -40.7191 132.4105)" class="st21" width="3" height="2.47"/>
		
			<rect x="207.53" y="127.89" transform="matrix(0.8239 -0.5667 0.5667 0.8239 -51.292 145.8376)" class="st20" width="3" height="55.12"/>
		
			<rect x="225.16" y="177.54" transform="matrix(0.8239 -0.5667 0.5667 0.8239 -62.7178 160.3474)" class="st21" width="3" height="7.12"/>
	</g>
	<g>
		<path class="st22" d="M204.36,153.24c-2.61-2.13-5.48-3.11-8.11-3.21c-0.88-0.03-1.72,0.03-2.53,0.18
			c-4.93,0.93-8.15,5.16-5.37,10.43c0.64,1.21,1.59,2.47,2.91,3.75c5.85,5.7,15.96,11.34,20.27,17.54c2.7,3.88,3.23,8.95,5.52,14.47
			c1.58,3.82,4.01,7.87,8.58,11.88c3.17,2.78,7.37,5.56,13.03,8.23c6.93,3.28,18.18,3.41,20.73-5.1
			c7.78-25.99-40.82-41.39-46.9-49.31C209.24,157.87,206.6,155.06,204.36,153.24L204.36,153.24z M200.66,160.34l-4.18,3.89
			c-1.67-0.83-7.18-3.31-7.91-5.22c-0.99-2.59,4.28-8.01,7.22-6.52C198.78,154,199.76,157.66,200.66,160.34z"/>
		<path class="st11" d="M200.66,160.34c-0.9-2.68-1.88-6.34-4.87-7.85c-2.94-1.49-8.2,3.93-7.22,6.52c0.73,1.91,6.24,4.39,7.91,5.22
			L200.66,160.34z"/>
	</g>
	<polygon class="st1" points="222.23,257.6 222.23,234.11 238.59,234.11 284.53,234.11 287.49,234.11 287.49,257.6 	"/>
	<rect x="220.02" y="257.67" class="st14" width="71.92" height="40.04"/>
	<g>
		<g>
			<g>
				<path class="st0" d="M244.8,181.88c8.23-0.03,14.93-6.56,14.9-14.5l-0.61-152.99C259.06,6.44,252.3-0.03,244.08,0L14.9,0.91
					C6.67,0.94-0.03,7.47,0,15.41l0.61,152.99c0.03,7.95,6.79,14.42,15.01,14.39L244.8,181.88L244.8,181.88z M257.73,165.77
					c0.03,7.78-6.57,14.17-14.67,14.2l-225.72,0.9c-8.1,0.03-14.75-6.3-14.79-14.08L1.96,17.03C1.93,9.25,8.53,2.86,16.64,2.83
					l225.72-0.9c8.1-0.03,14.75,6.3,14.79,14.08L257.73,165.77z"/>
				<path class="st1" d="M243.06,179.96c8.1-0.03,14.7-6.42,14.67-14.2l-0.59-149.75c-0.03-7.78-6.68-14.11-14.79-14.08L16.64,2.83
					c-8.1,0.03-14.7,6.42-14.67,14.2l0.59,149.75c0.03,7.78,6.68,14.11,14.79,14.08L243.06,179.96L243.06,179.96z M236.33,11.62
					l0.63,158.71l-212.33,0.84L24,12.46L236.33,11.62L236.33,11.62z M13.81,83.96c4.36-0.02,7.91,3.51,7.93,7.87
					c0.02,4.36-3.51,7.91-7.87,7.93c-4.36,0.02-7.91-3.51-7.93-7.87C5.93,87.53,9.45,83.98,13.81,83.96z"/>
				
					<rect x="24.32" y="12.04" transform="matrix(1 -3.968783e-03 3.968783e-03 1 -0.3617 0.5186)" class="st2" width="212.33" height="158.71"/>
				<path class="st3" d="M13.88,99.76c4.36-0.02,7.88-3.57,7.87-7.93c-0.02-4.36-3.57-7.88-7.93-7.87
					c-4.36,0.02-7.88,3.57-7.87,7.93C5.96,96.25,9.51,99.77,13.88,99.76z"/>
			</g>
			<g>
				
					<rect x="39.2" y="104.28" transform="matrix(1 -3.977995e-03 3.977995e-03 1 -0.515 0.1718)" class="st4" width="7.46" height="50.55"/>
				
					<rect x="51.52" y="113.21" transform="matrix(1 -3.968490e-03 3.968490e-03 1 -0.5313 0.2203)" class="st4" width="7.46" height="41.58"/>
				
					<rect x="63.85" y="132.6" transform="matrix(1 -3.971270e-03 3.971270e-03 1 -0.57 0.2695)" class="st4" width="7.46" height="22.13"/>
				
					<rect x="88.45" y="136.88" transform="matrix(1 -4.014223e-03 4.014223e-03 1 -0.5844 0.3712)" class="st4" width="7.46" height="17.76"/>
				
					<rect x="100.74" y="132.46" transform="matrix(1 -3.971288e-03 3.971288e-03 1 -0.5692 0.416)" class="st4" width="7.46" height="22.13"/>
				
					<rect x="112.96" y="93.33" transform="matrix(1 -3.973182e-03 3.973182e-03 1 -0.4915 0.4646)" class="st4" width="7.46" height="61.21"/>
				
					<rect x="125.24" y="87.27" transform="matrix(1 -3.965763e-03 3.965763e-03 1 -0.4784 0.5124)" class="st4" width="7.46" height="67.22"/>
				
					<rect x="137.51" y="72.74" transform="matrix(1 -3.967946e-03 3.967946e-03 1 -0.4496 0.5613)" class="st4" width="7.46" height="81.7"/>
				
					<rect x="149.85" y="94.01" transform="matrix(1 -3.962506e-03 3.962506e-03 1 -0.4909 0.6095)" class="st5" width="7.46" height="60.39"/>
				
					<rect x="162.18" y="110.08" transform="matrix(1 -3.971270e-03 3.971270e-03 1 -0.5237 0.6599)" class="st5" width="7.46" height="44.27"/>
				
					<rect x="174.5" y="125.88" transform="matrix(1 -3.951551e-03 3.951551e-03 1 -0.5522 0.7054)" class="st5" width="7.46" height="28.42"/>
				
					<rect x="186.82" y="137.31" transform="matrix(1 -3.978388e-03 3.978388e-03 1 -0.5785 0.7592)" class="st5" width="7.46" height="16.94"/>
				
					<rect x="211.39" y="124.37" transform="matrix(1 -3.968383e-03 3.968383e-03 1 -0.5509 0.8548)" class="st6" width="7.46" height="29.79"/>
				
					<rect x="223.56" y="60.1" transform="matrix(1 -3.969076e-03 3.969076e-03 1 -0.4233 0.903)" class="st5" width="7.46" height="94"/>
				
					<rect x="76.17" y="145.81" transform="matrix(1 -3.953549e-03 3.953549e-03 1 -0.5934 0.3171)" class="st4" width="7.46" height="8.88"/>
				
					<rect x="199.13" y="145.73" transform="matrix(1 -4.039120e-03 4.039120e-03 1 -0.6041 0.8206)" class="st6" width="7.46" height="8.47"/>
				<g>
					<path class="st1" d="M28.4,147.34l-0.01-3.04l-0.22,0c-0.06,0.13-0.16,0.27-0.3,0.41c-0.14,0.14-0.31,0.26-0.5,0.36l0,0.36
						c0.11-0.04,0.23-0.11,0.36-0.19c0.13-0.09,0.24-0.17,0.32-0.26l0.01,2.37L28.4,147.34z"/>
					<path class="st1" d="M29.27,145.85c0,0.57,0.1,0.98,0.28,1.23c0.15,0.21,0.37,0.31,0.63,0.31c0.2,0,0.37-0.06,0.51-0.18
						c0.13-0.12,0.23-0.29,0.3-0.51c0.07-0.22,0.1-0.5,0.1-0.86c0-0.3-0.02-0.54-0.07-0.72c-0.04-0.18-0.1-0.33-0.17-0.45
						c-0.07-0.12-0.17-0.22-0.28-0.28c-0.11-0.07-0.25-0.1-0.39-0.1c-0.2,0-0.37,0.06-0.5,0.18c-0.13,0.12-0.23,0.29-0.3,0.51
						C29.3,145.2,29.27,145.49,29.27,145.85L29.27,145.85z M30.18,147.08c-0.16,0-0.29-0.08-0.4-0.25
						c-0.11-0.16-0.16-0.49-0.16-0.99c0-0.5,0.06-0.84,0.17-1.02c0.09-0.14,0.22-0.22,0.38-0.22c0.16,0,0.29,0.08,0.4,0.24
						c0.11,0.16,0.16,0.49,0.17,0.99c0,0.5-0.05,0.83-0.16,0.99C30.47,147,30.34,147.08,30.18,147.08z"/>
					<path class="st1" d="M31.44,145.84c0,0.57,0.1,0.98,0.28,1.23c0.15,0.21,0.37,0.31,0.63,0.31c0.2,0,0.37-0.06,0.51-0.18
						c0.13-0.12,0.23-0.29,0.3-0.51c0.07-0.22,0.1-0.5,0.1-0.86c0-0.3-0.02-0.54-0.07-0.71c-0.04-0.18-0.1-0.33-0.17-0.45
						c-0.07-0.12-0.17-0.22-0.28-0.28c-0.11-0.07-0.25-0.1-0.4-0.1c-0.2,0-0.37,0.06-0.5,0.18c-0.13,0.12-0.23,0.29-0.3,0.51
						C31.47,145.19,31.44,145.48,31.44,145.84L31.44,145.84z M32.75,146.82c-0.11,0.17-0.24,0.25-0.4,0.25
						c-0.16,0-0.29-0.08-0.4-0.25c-0.11-0.16-0.16-0.49-0.17-0.99c0-0.5,0.06-0.84,0.17-1.02c0.09-0.14,0.22-0.22,0.38-0.22
						c0.16,0,0.29,0.08,0.4,0.24c0.11,0.16,0.16,0.49,0.17,0.99C32.91,146.33,32.85,146.66,32.75,146.82z"/>
				</g>
				<g>
					<path class="st1" d="M27.04,132.43c-0.03,0.08-0.04,0.17-0.04,0.26l1.84-0.01l0-0.36l-1.37,0.01c0.04-0.07,0.09-0.13,0.14-0.2
						c0.06-0.07,0.19-0.19,0.39-0.38c0.25-0.23,0.42-0.4,0.53-0.54c0.11-0.13,0.18-0.25,0.23-0.37c0.05-0.12,0.07-0.24,0.07-0.36
						c0-0.24-0.08-0.44-0.24-0.6c-0.16-0.16-0.37-0.24-0.64-0.24c-0.26,0-0.48,0.08-0.63,0.23c-0.16,0.15-0.25,0.37-0.27,0.65
						l0.35,0.04c0-0.19,0.05-0.34,0.15-0.45c0.1-0.11,0.23-0.16,0.4-0.16c0.16,0,0.28,0.05,0.38,0.15c0.1,0.1,0.15,0.22,0.15,0.37
						c0,0.14-0.05,0.29-0.16,0.45c-0.11,0.16-0.31,0.37-0.61,0.64c-0.19,0.17-0.34,0.33-0.45,0.46
						C27.16,132.16,27.09,132.29,27.04,132.43z"/>
					<path class="st1" d="M29.49,132.41c0.15,0.21,0.37,0.31,0.63,0.31c0.2,0,0.37-0.06,0.51-0.18c0.13-0.12,0.23-0.29,0.3-0.51
						c0.07-0.22,0.1-0.5,0.1-0.86c0-0.3-0.02-0.54-0.07-0.71c-0.04-0.18-0.1-0.33-0.17-0.45c-0.07-0.12-0.17-0.22-0.28-0.28
						c-0.11-0.06-0.24-0.1-0.39-0.1c-0.2,0-0.37,0.06-0.5,0.18c-0.13,0.12-0.23,0.29-0.3,0.51c-0.07,0.22-0.1,0.51-0.1,0.86
						C29.21,131.75,29.31,132.16,29.49,132.41L29.49,132.41z M30.13,132.42c-0.16,0-0.29-0.08-0.4-0.25
						c-0.11-0.17-0.16-0.5-0.17-0.99c0-0.5,0.06-0.84,0.17-1.02c0.09-0.14,0.22-0.22,0.38-0.22c0.16,0,0.29,0.08,0.4,0.25
						c0.11,0.16,0.16,0.49,0.16,0.99c0,0.5-0.05,0.83-0.16,0.99C30.41,132.34,30.28,132.42,30.13,132.42z"/>
					<path class="st1" d="M31.66,132.41c0.15,0.21,0.37,0.31,0.63,0.31c0.2,0,0.37-0.06,0.51-0.18s0.23-0.29,0.3-0.51
						c0.07-0.22,0.1-0.51,0.1-0.86c0-0.3-0.02-0.54-0.07-0.72c-0.04-0.18-0.1-0.33-0.17-0.45c-0.07-0.12-0.17-0.22-0.28-0.28
						c-0.11-0.06-0.24-0.1-0.39-0.1c-0.2,0-0.37,0.06-0.5,0.18c-0.13,0.12-0.23,0.29-0.3,0.51c-0.07,0.22-0.1,0.51-0.1,0.86
						C31.38,131.74,31.48,132.15,31.66,132.41L31.66,132.41z M32.29,132.41c-0.16,0-0.29-0.08-0.4-0.25
						c-0.11-0.16-0.16-0.5-0.17-0.99c0-0.5,0.06-0.84,0.17-1.02c0.09-0.14,0.22-0.22,0.38-0.22c0.16,0,0.29,0.08,0.4,0.25
						c0.11,0.16,0.16,0.49,0.16,0.99c0,0.5-0.05,0.83-0.16,0.99C32.58,132.33,32.45,132.41,32.29,132.41z"/>
				</g>
				<g>
					<path class="st1" d="M27.27,117.84c0.16,0.16,0.37,0.24,0.61,0.23c0.27,0,0.5-0.09,0.67-0.28c0.18-0.18,0.26-0.41,0.26-0.67
						c0-0.2-0.05-0.36-0.14-0.49c-0.09-0.13-0.22-0.22-0.39-0.26c0.13-0.06,0.22-0.15,0.29-0.26c0.06-0.11,0.1-0.23,0.1-0.36
						c0-0.14-0.04-0.27-0.1-0.39c-0.07-0.12-0.17-0.22-0.29-0.29c-0.13-0.07-0.27-0.11-0.42-0.1c-0.22,0-0.41,0.07-0.55,0.21
						c-0.15,0.14-0.24,0.33-0.28,0.58l0.34,0.06c0.02-0.18,0.08-0.32,0.17-0.41c0.09-0.09,0.2-0.14,0.33-0.14
						c0.13,0,0.24,0.04,0.33,0.13c0.08,0.09,0.13,0.2,0.13,0.34c0,0.17-0.06,0.3-0.17,0.38c-0.12,0.08-0.25,0.13-0.39,0.13
						c-0.01,0-0.03,0-0.06,0l-0.04,0.33c0.1-0.03,0.18-0.04,0.24-0.04c0.16,0,0.29,0.05,0.39,0.16c0.1,0.11,0.16,0.25,0.16,0.42
						c0,0.18-0.05,0.33-0.16,0.45c-0.11,0.12-0.25,0.18-0.41,0.18c-0.14,0-0.25-0.05-0.35-0.14c-0.09-0.09-0.16-0.24-0.2-0.45
						l-0.34,0.05C27.01,117.48,27.11,117.68,27.27,117.84z"/>
					<path class="st1" d="M29.43,117.75c0.15,0.21,0.37,0.31,0.63,0.31c0.2,0,0.37-0.06,0.51-0.18c0.13-0.12,0.23-0.29,0.3-0.51
						c0.07-0.22,0.1-0.5,0.1-0.86c0-0.3-0.02-0.54-0.07-0.71c-0.04-0.18-0.1-0.33-0.17-0.45c-0.07-0.12-0.17-0.22-0.28-0.28
						c-0.11-0.07-0.24-0.1-0.39-0.1c-0.2,0-0.37,0.06-0.5,0.18c-0.13,0.12-0.23,0.29-0.3,0.51c-0.07,0.22-0.1,0.51-0.1,0.87
						C29.15,117.09,29.25,117.5,29.43,117.75L29.43,117.75z M30.07,117.76c-0.16,0-0.29-0.08-0.4-0.25
						c-0.11-0.17-0.16-0.5-0.17-0.99c0-0.5,0.06-0.84,0.17-1.02c0.09-0.14,0.22-0.22,0.38-0.22c0.16,0,0.29,0.08,0.4,0.24
						c0.11,0.16,0.16,0.49,0.16,0.99c0,0.5-0.05,0.83-0.16,0.99C30.36,117.67,30.23,117.76,30.07,117.76z"/>
					<path class="st1" d="M31.6,117.74c0.15,0.21,0.37,0.31,0.63,0.31c0.2,0,0.37-0.06,0.51-0.18c0.13-0.12,0.23-0.29,0.3-0.51
						c0.07-0.22,0.1-0.5,0.1-0.86c0-0.3-0.02-0.54-0.07-0.71c-0.04-0.18-0.1-0.33-0.17-0.45c-0.07-0.12-0.17-0.22-0.28-0.28
						c-0.11-0.07-0.24-0.1-0.39-0.1c-0.2,0-0.37,0.06-0.5,0.18c-0.13,0.12-0.23,0.29-0.3,0.51c-0.07,0.22-0.1,0.51-0.1,0.87
						C31.32,117.08,31.42,117.49,31.6,117.74L31.6,117.74z M32.24,117.75c-0.16,0-0.29-0.08-0.4-0.25c-0.11-0.16-0.16-0.5-0.16-0.99
						c0-0.5,0.06-0.84,0.17-1.02c0.09-0.14,0.22-0.22,0.38-0.22c0.16,0,0.29,0.08,0.4,0.24c0.11,0.16,0.16,0.5,0.17,0.99
						c0,0.5-0.05,0.83-0.16,0.99C32.53,117.67,32.39,117.75,32.24,117.75z"/>
				</g>
				<g>
					<path class="st1" d="M28.03,102.63l0,0.72l0.34,0l0-0.72l0.38,0l0-0.34l-0.38,0l-0.01-1.96l-0.28,0l-1.27,1.97l0,0.34
						L28.03,102.63L28.03,102.63z M28.02,100.93l0.01,1.36l-0.87,0L28.02,100.93z"/>
					<path class="st1" d="M29.38,103.09c0.15,0.21,0.37,0.31,0.63,0.31c0.2,0,0.37-0.06,0.51-0.18c0.13-0.12,0.23-0.29,0.3-0.51
						c0.07-0.22,0.1-0.5,0.1-0.86c0-0.3-0.02-0.54-0.07-0.71c-0.04-0.18-0.1-0.33-0.17-0.45c-0.07-0.12-0.17-0.22-0.28-0.28
						c-0.11-0.07-0.24-0.1-0.4-0.1c-0.2,0-0.37,0.06-0.5,0.18c-0.13,0.12-0.23,0.29-0.3,0.51c-0.07,0.22-0.1,0.51-0.1,0.86
						C29.1,102.43,29.19,102.84,29.38,103.09L29.38,103.09z M30.01,103.1c-0.16,0-0.29-0.08-0.4-0.25
						c-0.11-0.16-0.16-0.49-0.17-0.99c0-0.5,0.06-0.84,0.17-1.02c0.09-0.14,0.22-0.22,0.38-0.22c0.16,0,0.29,0.08,0.4,0.24
						c0.11,0.16,0.16,0.49,0.16,0.99c0,0.5-0.05,0.83-0.16,0.99C30.3,103.01,30.17,103.1,30.01,103.1z"/>
					<path class="st1" d="M31.54,103.08c0.15,0.21,0.37,0.31,0.64,0.31c0.2,0,0.37-0.06,0.51-0.18c0.13-0.12,0.23-0.29,0.3-0.51
						c0.07-0.22,0.1-0.5,0.1-0.86c0-0.3-0.02-0.54-0.07-0.71c-0.04-0.18-0.1-0.33-0.17-0.45c-0.07-0.12-0.17-0.22-0.28-0.28
						c-0.11-0.07-0.24-0.1-0.39-0.1c-0.2,0-0.37,0.06-0.5,0.18c-0.13,0.12-0.23,0.29-0.3,0.51c-0.07,0.22-0.1,0.51-0.1,0.86
						C31.27,102.42,31.36,102.83,31.54,103.08L31.54,103.08z M32.18,103.09c-0.16,0-0.29-0.08-0.4-0.25
						c-0.11-0.17-0.16-0.5-0.17-0.99c0-0.5,0.06-0.84,0.17-1.02c0.09-0.15,0.22-0.22,0.38-0.22c0.16,0,0.29,0.08,0.4,0.24
						c0.11,0.16,0.16,0.49,0.17,0.99c0,0.5-0.05,0.83-0.16,0.99C32.47,103,32.34,103.09,32.18,103.09z"/>
				</g>
				<g>
					<path class="st1" d="M27.15,88.52c0.16,0.15,0.37,0.23,0.62,0.23c0.31,0,0.55-0.13,0.73-0.37c0.15-0.2,0.22-0.44,0.22-0.71
						c0-0.29-0.09-0.52-0.25-0.71c-0.17-0.18-0.37-0.27-0.62-0.27c-0.18,0-0.36,0.06-0.53,0.19l0.15-0.81l1.11,0l0-0.36l-1.39,0.01
						l-0.26,1.56l0.32,0.04c0.05-0.09,0.12-0.16,0.21-0.21c0.09-0.05,0.19-0.08,0.3-0.08c0.18,0,0.32,0.06,0.43,0.18
						c0.11,0.12,0.17,0.29,0.17,0.5c0,0.22-0.06,0.4-0.17,0.54c-0.11,0.13-0.25,0.2-0.42,0.2c-0.14,0-0.25-0.05-0.35-0.14
						c-0.1-0.1-0.16-0.24-0.19-0.43l-0.36,0.04C26.89,88.16,26.99,88.37,27.15,88.52z"/>
					<path class="st1" d="M29.32,88.43c0.15,0.21,0.37,0.31,0.63,0.31c0.2,0,0.37-0.06,0.51-0.18c0.13-0.12,0.23-0.29,0.3-0.51
						c0.07-0.22,0.1-0.51,0.1-0.86c0-0.3-0.02-0.54-0.07-0.72c-0.04-0.18-0.1-0.33-0.17-0.45c-0.07-0.12-0.17-0.22-0.28-0.28
						c-0.11-0.06-0.24-0.1-0.4-0.1c-0.2,0-0.37,0.06-0.5,0.18c-0.13,0.12-0.23,0.29-0.3,0.51c-0.07,0.22-0.1,0.51-0.1,0.86
						C29.04,87.77,29.13,88.18,29.32,88.43L29.32,88.43z M29.95,88.44c-0.16,0-0.29-0.08-0.4-0.25c-0.11-0.16-0.16-0.5-0.16-0.99
						c0-0.5,0.06-0.84,0.17-1.02c0.09-0.14,0.22-0.22,0.38-0.22c0.16,0,0.29,0.08,0.4,0.25c0.11,0.16,0.16,0.49,0.16,0.99
						c0,0.5-0.05,0.83-0.16,0.99C30.24,88.35,30.11,88.44,29.95,88.44z"/>
					<path class="st1" d="M32.52,88.18c-0.11,0.17-0.24,0.25-0.4,0.25c-0.16,0-0.29-0.08-0.4-0.25c-0.11-0.16-0.16-0.49-0.17-0.99
						c0-0.5,0.06-0.84,0.17-1.02c0.09-0.15,0.22-0.22,0.38-0.22c0.16,0,0.29,0.08,0.4,0.24c0.11,0.16,0.16,0.49,0.17,0.99
						C32.67,87.68,32.62,88.01,32.52,88.18L32.52,88.18z M31.49,88.42c0.15,0.21,0.37,0.31,0.64,0.31c0.2,0,0.37-0.06,0.51-0.18
						c0.13-0.12,0.23-0.29,0.3-0.51c0.07-0.22,0.1-0.5,0.1-0.86c0-0.3-0.02-0.54-0.07-0.72c-0.04-0.18-0.1-0.33-0.17-0.45
						c-0.07-0.12-0.17-0.22-0.28-0.28c-0.11-0.07-0.24-0.1-0.4-0.1c-0.2,0-0.37,0.06-0.5,0.18c-0.13,0.12-0.23,0.29-0.3,0.51
						c-0.07,0.22-0.1,0.51-0.1,0.86C31.21,87.76,31.3,88.17,31.49,88.42z"/>
				</g>
				<g>
					<path class="st1" d="M27.07,73.75c0.18,0.23,0.41,0.34,0.7,0.34c0.17,0,0.32-0.04,0.45-0.13c0.13-0.09,0.24-0.21,0.31-0.38
						c0.07-0.16,0.11-0.34,0.11-0.53c0-0.29-0.08-0.52-0.24-0.71c-0.16-0.18-0.36-0.27-0.58-0.27c-0.13,0-0.26,0.03-0.37,0.1
						c-0.12,0.07-0.22,0.17-0.3,0.31c0-0.3,0.03-0.54,0.09-0.7c0.06-0.16,0.15-0.29,0.25-0.37c0.08-0.07,0.18-0.1,0.29-0.1
						c0.14,0,0.25,0.05,0.34,0.16c0.06,0.07,0.1,0.17,0.13,0.32l0.34-0.03c-0.03-0.24-0.11-0.42-0.25-0.55
						c-0.14-0.13-0.32-0.2-0.54-0.2c-0.29,0-0.53,0.12-0.7,0.35c-0.2,0.27-0.3,0.69-0.29,1.28C26.8,73.15,26.89,73.52,27.07,73.75
						L27.07,73.75z M27.27,73.43c-0.05-0.12-0.08-0.24-0.08-0.37c0-0.2,0.05-0.35,0.16-0.47c0.11-0.12,0.24-0.18,0.39-0.18
						c0.16,0,0.29,0.06,0.39,0.18c0.1,0.12,0.16,0.29,0.16,0.49c0,0.22-0.05,0.39-0.15,0.52c-0.1,0.13-0.23,0.19-0.37,0.19
						c-0.1,0-0.19-0.03-0.28-0.09C27.39,73.63,27.32,73.54,27.27,73.43z"/>
					<path class="st1" d="M29.26,73.77c0.15,0.21,0.37,0.31,0.63,0.31c0.2,0,0.37-0.06,0.51-0.18c0.13-0.12,0.23-0.29,0.3-0.51
						c0.07-0.22,0.1-0.51,0.1-0.86c0-0.3-0.02-0.54-0.07-0.72c-0.04-0.18-0.1-0.33-0.17-0.45c-0.07-0.12-0.17-0.22-0.28-0.28
						c-0.11-0.07-0.24-0.1-0.4-0.1c-0.2,0-0.37,0.06-0.5,0.18c-0.13,0.12-0.23,0.29-0.3,0.51c-0.07,0.22-0.1,0.51-0.1,0.86
						C28.98,73.11,29.07,73.52,29.26,73.77L29.26,73.77z M29.5,73.53c-0.11-0.16-0.16-0.5-0.16-0.99c0-0.5,0.06-0.84,0.17-1.02
						c0.09-0.15,0.22-0.22,0.38-0.22c0.16,0,0.29,0.08,0.4,0.24c0.11,0.16,0.16,0.49,0.17,0.99c0,0.5-0.05,0.83-0.16,0.99
						c-0.11,0.16-0.24,0.25-0.4,0.25C29.74,73.78,29.6,73.69,29.5,73.53z"/>
					<path class="st1" d="M31.43,73.76c0.15,0.21,0.37,0.31,0.63,0.31c0.2,0,0.37-0.06,0.51-0.18c0.13-0.12,0.23-0.29,0.3-0.51
						c0.07-0.22,0.1-0.5,0.1-0.86c0-0.3-0.02-0.54-0.07-0.72c-0.04-0.18-0.1-0.33-0.17-0.45c-0.07-0.12-0.17-0.22-0.28-0.28
						c-0.11-0.07-0.25-0.1-0.4-0.1c-0.2,0-0.37,0.06-0.5,0.18c-0.13,0.12-0.23,0.29-0.3,0.51c-0.07,0.22-0.1,0.51-0.1,0.86
						C31.15,73.1,31.24,73.51,31.43,73.76L31.43,73.76z M32.46,73.52c-0.11,0.17-0.24,0.25-0.4,0.25c-0.16,0-0.29-0.08-0.4-0.25
						c-0.11-0.16-0.16-0.49-0.17-0.99c0-0.5,0.06-0.84,0.17-1.02c0.09-0.14,0.22-0.22,0.38-0.22c0.16,0,0.29,0.08,0.4,0.24
						c0.11,0.16,0.16,0.49,0.17,0.99C32.62,73.02,32.56,73.35,32.46,73.52z"/>
				</g>
				<g>
					<path class="st1" d="M27.3,58.51c-0.08,0.34-0.12,0.63-0.13,0.86l0.35,0c0.02-0.3,0.06-0.58,0.13-0.83
						c0.09-0.36,0.23-0.71,0.4-1.05c0.17-0.34,0.35-0.61,0.53-0.82l0-0.29l-1.81,0.01l0,0.36l1.37-0.01
						c-0.17,0.21-0.34,0.48-0.49,0.79C27.49,57.85,27.38,58.18,27.3,58.51z"/>
					<path class="st1" d="M28.92,57.88c0,0.57,0.1,0.98,0.28,1.23c0.15,0.21,0.37,0.31,0.63,0.31c0.2,0,0.37-0.06,0.51-0.18
						c0.13-0.12,0.23-0.29,0.3-0.51c0.07-0.22,0.1-0.5,0.1-0.86c0-0.3-0.02-0.54-0.07-0.72c-0.04-0.18-0.1-0.33-0.17-0.45
						c-0.07-0.12-0.17-0.22-0.28-0.28c-0.11-0.07-0.25-0.1-0.4-0.1c-0.2,0-0.37,0.06-0.5,0.18c-0.13,0.12-0.23,0.29-0.3,0.51
						C28.95,57.23,28.92,57.52,28.92,57.88L28.92,57.88z M30.23,58.86c-0.11,0.17-0.24,0.25-0.4,0.25c-0.16,0-0.29-0.08-0.4-0.25
						c-0.11-0.16-0.16-0.5-0.16-0.99c0-0.5,0.06-0.84,0.17-1.02c0.09-0.15,0.22-0.22,0.38-0.22c0.16,0,0.29,0.08,0.4,0.24
						c0.11,0.16,0.16,0.49,0.17,0.99C30.39,58.37,30.34,58.7,30.23,58.86z"/>
					<path class="st1" d="M31.09,57.87c0,0.57,0.1,0.98,0.28,1.23c0.15,0.21,0.37,0.31,0.63,0.31c0.2,0,0.37-0.06,0.51-0.18
						c0.13-0.12,0.23-0.29,0.3-0.51c0.07-0.22,0.1-0.5,0.1-0.86c0-0.3-0.02-0.54-0.07-0.72c-0.04-0.18-0.1-0.33-0.17-0.45
						c-0.08-0.12-0.17-0.22-0.28-0.28c-0.11-0.06-0.25-0.1-0.39-0.1c-0.2,0-0.37,0.06-0.5,0.18c-0.13,0.12-0.23,0.29-0.3,0.51
						C31.12,57.22,31.09,57.51,31.09,57.87L31.09,57.87z M32.4,58.85c-0.11,0.17-0.24,0.25-0.4,0.25c-0.16,0-0.29-0.08-0.4-0.25
						c-0.11-0.16-0.16-0.5-0.17-0.99c0-0.5,0.06-0.84,0.17-1.02c0.09-0.15,0.22-0.22,0.38-0.22c0.16,0,0.29,0.08,0.4,0.24
						c0.11,0.16,0.16,0.49,0.16,0.99C32.56,58.36,32.51,58.69,32.4,58.85z"/>
				</g>
				<g>
					<path class="st1" d="M26.69,43.84c0,0.26,0.09,0.48,0.26,0.66c0.17,0.18,0.39,0.26,0.67,0.26c0.28,0,0.5-0.09,0.67-0.27
						c0.17-0.18,0.25-0.39,0.25-0.65c0-0.19-0.05-0.35-0.14-0.48c-0.09-0.13-0.22-0.23-0.39-0.29c0.14-0.06,0.24-0.14,0.31-0.24
						c0.07-0.1,0.1-0.23,0.1-0.37c0-0.22-0.08-0.41-0.22-0.56c-0.15-0.15-0.35-0.23-0.59-0.23c-0.24,0-0.44,0.08-0.58,0.23
						c-0.15,0.15-0.22,0.34-0.22,0.56c0,0.15,0.04,0.27,0.1,0.38c0.07,0.1,0.17,0.18,0.32,0.24c-0.17,0.05-0.3,0.14-0.39,0.27
						C26.74,43.48,26.69,43.65,26.69,43.84L26.69,43.84z M27.11,44.15c-0.05-0.1-0.07-0.2-0.07-0.31c0-0.17,0.05-0.32,0.16-0.43
						c0.11-0.12,0.24-0.17,0.4-0.18c0.16,0,0.3,0.06,0.41,0.17c0.11,0.12,0.17,0.26,0.17,0.44c0,0.18-0.05,0.32-0.16,0.44
						c-0.11,0.12-0.24,0.17-0.4,0.17c-0.1,0-0.2-0.03-0.3-0.08C27.23,44.33,27.16,44.25,27.11,44.15L27.11,44.15z M27.28,42.79
						c-0.08-0.09-0.13-0.21-0.13-0.35c0-0.13,0.04-0.24,0.13-0.33c0.09-0.09,0.19-0.14,0.33-0.14c0.13,0,0.24,0.05,0.33,0.14
						c0.09,0.09,0.13,0.21,0.13,0.34c0,0.13-0.04,0.24-0.13,0.33c-0.08,0.09-0.19,0.14-0.32,0.14
						C27.47,42.93,27.36,42.88,27.28,42.79z"/>
					<path class="st1" d="M28.86,43.22c0,0.57,0.1,0.98,0.28,1.23c0.15,0.21,0.37,0.31,0.64,0.31c0.2,0,0.37-0.06,0.51-0.18
						c0.13-0.12,0.23-0.29,0.3-0.51c0.07-0.22,0.1-0.5,0.1-0.86c0-0.3-0.02-0.54-0.07-0.71c-0.04-0.18-0.1-0.33-0.17-0.45
						c-0.07-0.12-0.17-0.22-0.28-0.28c-0.11-0.07-0.24-0.1-0.4-0.1c-0.2,0-0.37,0.06-0.5,0.18c-0.13,0.12-0.23,0.29-0.3,0.51
						C28.89,42.57,28.86,42.86,28.86,43.22L28.86,43.22z M30.17,44.2c-0.11,0.17-0.24,0.25-0.4,0.25c-0.16,0-0.29-0.08-0.4-0.25
						c-0.11-0.16-0.16-0.5-0.17-0.99c0-0.5,0.06-0.84,0.17-1.02c0.09-0.14,0.22-0.22,0.38-0.22c0.16,0,0.29,0.08,0.4,0.24
						c0.11,0.16,0.16,0.49,0.16,0.99C30.33,43.71,30.28,44.04,30.17,44.2z"/>
					<path class="st1" d="M31.03,43.21c0,0.57,0.1,0.98,0.28,1.23c0.15,0.21,0.37,0.31,0.63,0.31c0.2,0,0.37-0.06,0.51-0.18
						c0.13-0.12,0.23-0.29,0.3-0.51c0.07-0.22,0.1-0.5,0.1-0.86c0-0.3-0.02-0.54-0.07-0.72c-0.04-0.18-0.1-0.33-0.17-0.45
						c-0.07-0.12-0.17-0.22-0.28-0.28c-0.11-0.06-0.24-0.1-0.4-0.1c-0.2,0-0.37,0.06-0.5,0.18c-0.13,0.12-0.23,0.29-0.3,0.51
						C31.06,42.56,31.03,42.85,31.03,43.21L31.03,43.21z M31.94,44.44c-0.16,0-0.29-0.08-0.4-0.25c-0.11-0.16-0.16-0.49-0.17-0.99
						c0-0.5,0.06-0.84,0.17-1.02c0.09-0.14,0.22-0.22,0.38-0.22c0.16,0,0.29,0.08,0.4,0.24c0.11,0.16,0.16,0.49,0.17,0.99
						c0,0.5-0.05,0.83-0.16,0.99C32.23,44.36,32.1,44.44,31.94,44.44z"/>
				</g>
				<path class="st7" d="M42.88,116.13c-0.16,0-0.3,0.14-0.31,0.31c-0.02,0.2,0.13,0.38,0.31,0.38l3.15-0.01
					c0.16,0,0.3-0.13,0.31-0.31c0.02-0.2-0.13-0.38-0.32-0.38L42.88,116.13L42.88,116.13z M226.47,116.08c0.16,0,0.3-0.13,0.31-0.31
					c0.02-0.2-0.13-0.38-0.32-0.38l-3.15,0.01c-0.16,0-0.3,0.13-0.31,0.31c-0.02,0.2,0.13,0.38,0.32,0.38L226.47,116.08
					L226.47,116.08z M217,116.12c0.16,0,0.3-0.13,0.31-0.31c0.02-0.2-0.13-0.38-0.32-0.38l-0.63,0c-0.16,0-0.3,0.13-0.31,0.31
					c-0.02,0.2,0.13,0.38,0.32,0.38L217,116.12L217,116.12z M210.06,116.15c0.16,0,0.3-0.14,0.31-0.31c0.02-0.2-0.13-0.38-0.32-0.38
					l-3.15,0.01c-0.16,0-0.3,0.13-0.31,0.31c-0.02,0.2,0.13,0.38,0.32,0.38L210.06,116.15L210.06,116.15z M200.6,116.18
					c0.16,0,0.3-0.13,0.31-0.31c0.02-0.2-0.13-0.38-0.32-0.38l-0.63,0c-0.16,0-0.3,0.13-0.31,0.31c-0.02,0.2,0.13,0.38,0.32,0.38
					L200.6,116.18L200.6,116.18z M193.66,116.21c0.16,0,0.3-0.13,0.31-0.31c0.02-0.2-0.13-0.38-0.32-0.38l-3.15,0.01
					c-0.16,0-0.3,0.14-0.31,0.31c-0.02,0.2,0.13,0.38,0.31,0.38L193.66,116.21L193.66,116.21z M184.2,116.25
					c0.16,0,0.3-0.14,0.31-0.31c0.02-0.2-0.13-0.38-0.32-0.38l-0.63,0c-0.16,0-0.3,0.13-0.31,0.31c-0.02,0.2,0.13,0.38,0.31,0.38
					L184.2,116.25L184.2,116.25z M177.26,116.28c0.16,0,0.3-0.13,0.31-0.31c0.02-0.2-0.13-0.38-0.32-0.38l-3.15,0.01
					c-0.16,0-0.3,0.13-0.31,0.31c-0.02,0.2,0.13,0.38,0.32,0.38L177.26,116.28L177.26,116.28z M167.79,116.31
					c0.16,0,0.3-0.13,0.31-0.31c0.02-0.2-0.13-0.38-0.32-0.38l-0.63,0c-0.16,0-0.3,0.13-0.31,0.31c-0.02,0.2,0.13,0.38,0.32,0.38
					L167.79,116.31L167.79,116.31z M160.86,116.34c0.16,0,0.3-0.14,0.31-0.31c0.02-0.2-0.13-0.38-0.32-0.38l-3.15,0.01
					c-0.16,0-0.3,0.13-0.31,0.31c-0.02,0.2,0.13,0.38,0.32,0.38L160.86,116.34L160.86,116.34z M151.39,116.38
					c0.16,0,0.3-0.13,0.31-0.31c0.02-0.2-0.13-0.38-0.32-0.38l-0.63,0c-0.16,0-0.3,0.13-0.31,0.31c-0.02,0.2,0.13,0.38,0.32,0.38
					L151.39,116.38L151.39,116.38z M144.45,116.41c0.16,0,0.3-0.13,0.31-0.31c0.02-0.2-0.13-0.38-0.32-0.38l-3.15,0.01
					c-0.16,0-0.3,0.14-0.31,0.31c-0.02,0.2,0.13,0.38,0.32,0.38L144.45,116.41L144.45,116.41z M134.99,116.45
					c0.16,0,0.3-0.14,0.31-0.31c0.02-0.2-0.13-0.38-0.32-0.38l-0.63,0c-0.16,0-0.3,0.13-0.31,0.31c-0.02,0.2,0.13,0.38,0.32,0.38
					L134.99,116.45L134.99,116.45z M128.05,116.47c0.16,0,0.3-0.13,0.31-0.31c0.02-0.2-0.13-0.38-0.32-0.38l-3.15,0.01
					c-0.16,0-0.3,0.13-0.31,0.31c-0.02,0.2,0.13,0.38,0.32,0.38L128.05,116.47L128.05,116.47z M118.59,116.51
					c0.16,0,0.3-0.13,0.31-0.31c0.02-0.2-0.13-0.38-0.32-0.38l-0.63,0c-0.16,0-0.3,0.13-0.31,0.31c-0.02,0.2,0.13,0.38,0.32,0.38
					L118.59,116.51L118.59,116.51z M111.65,116.54c0.16,0,0.3-0.13,0.31-0.31c0.02-0.2-0.13-0.38-0.32-0.38l-3.16,0.01
					c-0.16,0-0.3,0.13-0.31,0.31c-0.02,0.2,0.13,0.38,0.31,0.38L111.65,116.54L111.65,116.54z M102.18,116.58
					c0.16,0,0.3-0.13,0.31-0.31c0.02-0.2-0.13-0.38-0.31-0.38l-0.63,0c-0.16,0-0.3,0.13-0.31,0.31c-0.02,0.2,0.13,0.38,0.32,0.38
					L102.18,116.58L102.18,116.58z M95.24,116.6c0.16,0,0.3-0.13,0.31-0.31c0.02-0.2-0.13-0.38-0.32-0.38l-3.15,0.01
					c-0.16,0-0.3,0.14-0.31,0.31c-0.02,0.2,0.13,0.38,0.32,0.38L95.24,116.6L95.24,116.6z M85.78,116.64c0.16,0,0.3-0.14,0.31-0.31
					c0.02-0.2-0.13-0.38-0.32-0.38l-0.63,0c-0.16,0-0.3,0.13-0.31,0.31c-0.02,0.2,0.13,0.38,0.32,0.38L85.78,116.64L85.78,116.64z
					 M78.84,116.67c0.16,0,0.3-0.13,0.31-0.31c0.02-0.2-0.13-0.38-0.32-0.38L75.68,116c-0.16,0-0.3,0.13-0.31,0.31
					c-0.02,0.2,0.13,0.38,0.31,0.38L78.84,116.67L78.84,116.67z M69.38,116.71c0.16,0,0.3-0.13,0.31-0.31
					c0.02-0.2-0.13-0.38-0.32-0.38l-0.63,0c-0.16,0-0.3,0.13-0.31,0.31c-0.02,0.2,0.13,0.38,0.31,0.38L69.38,116.71L69.38,116.71z
					 M62.44,116.73c0.16,0,0.3-0.14,0.31-0.31c0.02-0.2-0.13-0.38-0.32-0.38l-3.15,0.01c-0.16,0-0.3,0.13-0.31,0.31
					c-0.02,0.2,0.13,0.38,0.32,0.38L62.44,116.73L62.44,116.73z M52.98,116.77c0.16,0,0.3-0.13,0.31-0.31
					c0.02-0.2-0.13-0.38-0.32-0.38l-0.63,0c-0.16,0-0.3,0.13-0.31,0.31c-0.02,0.2,0.13,0.38,0.32,0.38L52.98,116.77z"/>
				<path class="st8" d="M42.94,104.6c-0.16,0.07-0.34-0.02-0.41-0.2c-0.06-0.18,0.02-0.37,0.18-0.44l17.75-7.27
					c0.15-0.06,0.32,0.01,0.39,0.16h0l14.28,30.29l10.41,5.28l11.98-4.68c0.11-0.04,0.22-0.02,0.31,0.06l17.05,13.64l13.96-16.64
					c0.04-0.05,0.09-0.08,0.14-0.1l0,0l13.13-4.31l11.06-26.55c0.07-0.17,0.26-0.25,0.42-0.17c0.01,0.01,0.02,0.01,0.03,0.02v0
					l10.71,7.02c0.05,0.03,0.09,0.08,0.12,0.14l11.83,22.89l9.7,9.32l9.6,0.46l10.69-4.91l21.52-25.81
					c0.12-0.14,0.32-0.15,0.44-0.02c0.13,0.13,0.14,0.34,0.02,0.48l-21.56,25.85c-0.03,0.04-0.07,0.08-0.12,0.1l-10.82,4.97l0,0
					c-0.04,0.02-0.09,0.03-0.14,0.03l-9.79-0.47l0,0c-0.07,0-0.14-0.03-0.2-0.09l-9.81-9.43c-0.03-0.03-0.06-0.06-0.08-0.1
					l-11.82-22.87L153.6,94.5l-10.96,26.32c-0.03,0.1-0.11,0.18-0.2,0.21l-13.18,4.32l-14.09,16.79h0
					c-0.11,0.13-0.29,0.15-0.42,0.04l-17.16-13.72l-11.94,4.66l0,0c-0.08,0.03-0.16,0.03-0.24-0.01l-10.62-5.39l0,0
					c-0.06-0.03-0.11-0.08-0.15-0.15L60.43,97.44L42.94,104.6z"/>
				<path class="st8" d="M43.01,148.85c-0.16,0-0.3,0.13-0.31,0.31c-0.02,0.2,0.13,0.38,0.32,0.38l3.15-0.01
					c0.16,0,0.3-0.13,0.31-0.31c0.02-0.2-0.13-0.38-0.32-0.38L43.01,148.85L43.01,148.85z M226.59,148.8c0.16,0,0.3-0.14,0.31-0.31
					c0.02-0.2-0.13-0.38-0.32-0.38l-3.15,0.01c-0.16,0-0.3,0.13-0.31,0.31c-0.02,0.2,0.13,0.38,0.32,0.38L226.59,148.8L226.59,148.8
					z M217.13,148.84c0.16,0,0.3-0.13,0.31-0.31c0.02-0.2-0.13-0.38-0.32-0.38l-0.63,0c-0.16,0-0.3,0.13-0.31,0.31
					c-0.02,0.2,0.13,0.38,0.31,0.38L217.13,148.84L217.13,148.84z M210.19,148.87c0.16,0,0.3-0.14,0.31-0.31
					c0.02-0.2-0.13-0.38-0.32-0.38l-3.15,0.01c-0.16,0-0.3,0.13-0.31,0.31c-0.02,0.2,0.13,0.38,0.31,0.38L210.19,148.87
					L210.19,148.87z M200.73,148.91c0.16,0,0.3-0.13,0.31-0.31c0.02-0.2-0.13-0.38-0.31-0.38l-0.63,0c-0.16,0-0.3,0.13-0.31,0.31
					c-0.02,0.2,0.13,0.38,0.31,0.38L200.73,148.91L200.73,148.91z M193.79,148.93c0.16,0,0.3-0.13,0.31-0.31
					c0.02-0.2-0.13-0.38-0.31-0.38l-3.16,0.01c-0.16,0-0.3,0.14-0.31,0.31c-0.02,0.2,0.13,0.38,0.31,0.38L193.79,148.93
					L193.79,148.93z M184.33,148.97c0.16,0,0.3-0.14,0.31-0.31c0.02-0.2-0.13-0.38-0.31-0.38l-0.63,0c-0.16,0-0.3,0.13-0.31,0.31
					c-0.02,0.2,0.13,0.38,0.31,0.38L184.33,148.97L184.33,148.97z M177.39,149c0.16,0,0.3-0.13,0.31-0.31
					c0.02-0.2-0.13-0.38-0.31-0.38l-3.16,0.01c-0.16,0-0.3,0.13-0.31,0.31c-0.02,0.2,0.13,0.38,0.31,0.38L177.39,149L177.39,149z
					 M167.92,149.04c0.16,0,0.3-0.13,0.31-0.31c0.02-0.2-0.13-0.38-0.31-0.38l-0.63,0c-0.16,0-0.3,0.13-0.31,0.31
					c-0.02,0.2,0.13,0.38,0.31,0.38L167.92,149.04L167.92,149.04z M160.98,149.06c0.16,0,0.3-0.14,0.31-0.31
					c0.02-0.2-0.13-0.38-0.32-0.38l-3.15,0.01c-0.16,0-0.3,0.13-0.31,0.31c-0.02,0.2,0.13,0.38,0.32,0.38L160.98,149.06
					L160.98,149.06z M151.52,149.1c0.16,0,0.3-0.13,0.31-0.31c0.02-0.2-0.13-0.38-0.32-0.38l-0.63,0c-0.16,0-0.3,0.13-0.31,0.31
					c-0.02,0.2,0.13,0.38,0.32,0.38L151.52,149.1L151.52,149.1z M144.58,149.13c0.16,0,0.3-0.13,0.31-0.31
					c0.02-0.2-0.13-0.38-0.32-0.38l-3.15,0.01c-0.16,0-0.3,0.14-0.31,0.31c-0.02,0.2,0.13,0.38,0.32,0.38L144.58,149.13
					L144.58,149.13z M135.12,149.17c0.16,0,0.3-0.14,0.31-0.31c0.02-0.2-0.13-0.38-0.32-0.38l-0.63,0c-0.16,0-0.3,0.13-0.31,0.31
					c-0.02,0.2,0.13,0.38,0.32,0.38L135.12,149.17L135.12,149.17z M128.18,149.19c0.16,0,0.3-0.13,0.31-0.31
					c0.02-0.2-0.13-0.38-0.32-0.38l-3.15,0.01c-0.16,0-0.3,0.13-0.31,0.31c-0.02,0.2,0.13,0.38,0.32,0.38L128.18,149.19
					L128.18,149.19z M118.72,149.23c0.16,0,0.3-0.13,0.31-0.31c0.02-0.2-0.13-0.38-0.32-0.38l-0.63,0c-0.16,0-0.3,0.13-0.31,0.31
					c-0.02,0.2,0.13,0.38,0.32,0.38L118.72,149.23L118.72,149.23z M111.78,149.26c0.16,0,0.3-0.14,0.31-0.31
					c0.02-0.2-0.13-0.38-0.32-0.38l-3.15,0.01c-0.16,0-0.3,0.13-0.31,0.31c-0.02,0.2,0.13,0.38,0.32,0.38L111.78,149.26
					L111.78,149.26z M102.31,149.3c0.16,0,0.3-0.13,0.31-0.31c0.02-0.2-0.13-0.38-0.32-0.38l-0.63,0c-0.16,0-0.3,0.13-0.31,0.31
					c-0.02,0.2,0.13,0.38,0.32,0.38L102.31,149.3L102.31,149.3z M95.37,149.32c0.16,0,0.3-0.13,0.31-0.31
					c0.02-0.2-0.13-0.38-0.32-0.38l-3.15,0.01c-0.16,0-0.3,0.14-0.31,0.31c-0.02,0.2,0.13,0.38,0.32,0.38L95.37,149.32L95.37,149.32
					z M85.91,149.36c0.16,0,0.3-0.14,0.31-0.31c0.02-0.2-0.13-0.38-0.32-0.38l-0.63,0c-0.16,0-0.3,0.13-0.31,0.31
					c-0.02,0.2,0.13,0.38,0.32,0.38L85.91,149.36L85.91,149.36z M78.97,149.39c0.16,0,0.3-0.13,0.31-0.31
					c0.02-0.2-0.13-0.38-0.32-0.38l-3.15,0.01c-0.16,0-0.3,0.13-0.31,0.31c-0.02,0.2,0.13,0.38,0.32,0.38L78.97,149.39L78.97,149.39
					z M69.51,149.43c0.16,0,0.3-0.13,0.31-0.31c0.02-0.2-0.13-0.38-0.32-0.38l-0.63,0c-0.16,0-0.3,0.13-0.31,0.31
					c-0.02,0.2,0.13,0.38,0.32,0.38L69.51,149.43L69.51,149.43z M62.57,149.46c0.16,0,0.3-0.14,0.31-0.31
					c0.02-0.2-0.13-0.38-0.32-0.38l-3.15,0.01c-0.16,0-0.3,0.13-0.31,0.31c-0.02,0.2,0.13,0.38,0.31,0.38L62.57,149.46L62.57,149.46
					z M53.11,149.49c0.16,0,0.3-0.13,0.31-0.31c0.02-0.2-0.13-0.38-0.32-0.38l-0.63,0c-0.16,0-0.3,0.13-0.31,0.31
					c-0.02,0.2,0.13,0.38,0.31,0.38L53.11,149.49z"/>
				
					<rect x="66.71" y="83" transform="matrix(1 -3.977358e-03 3.977358e-03 1 -0.4282 0.2691)" class="st8" width="1.46" height="49.61"/>
				<path class="st8" d="M67.28,69.1c1.87-0.01,3.57,0.81,4.8,2.13c1.23,1.32,2,3.16,2,5.19c0.01,2.03-0.74,3.87-1.96,5.2
					c-1.22,1.33-2.91,2.16-4.78,2.17c-1.87,0.01-3.57-0.81-4.8-2.13c-1.23-1.32-2-3.16-2-5.19c-0.01-2.03,0.74-3.87,1.96-5.2
					C63.72,69.93,65.41,69.1,67.28,69.1L67.28,69.1z M71.06,72.35c-0.97-1.04-2.3-1.68-3.77-1.67c-1.47,0.01-2.79,0.66-3.75,1.7
					c-0.96,1.05-1.55,2.49-1.54,4.08c0.01,1.59,0.61,3.03,1.57,4.07c0.97,1.04,2.3,1.68,3.77,1.67c1.47-0.01,2.79-0.66,3.75-1.7
					c0.96-1.05,1.55-2.49,1.54-4.08C72.62,74.83,72.02,73.39,71.06,72.35z"/>
				<path class="st9" d="M67.3,72.26c2.13-0.01,3.86,1.86,3.87,4.17c0.01,2.31-1.71,4.19-3.84,4.2c-2.13,0.01-3.86-1.86-3.87-4.17
					C63.45,74.15,65.17,72.27,67.3,72.26z"/>
				
					<rect x="165.72" y="60.47" transform="matrix(1 -3.957466e-03 3.957466e-03 1 -0.3362 0.6594)" class="st8" width="1.46" height="49.61"/>
				<path class="st8" d="M166.29,46.57c1.87-0.01,3.57,0.81,4.8,2.13c1.23,1.32,2,3.16,2,5.19c0.01,2.03-0.74,3.87-1.96,5.2
					c-1.22,1.33-2.91,2.16-4.78,2.17c-1.87,0.01-3.57-0.81-4.8-2.13c-1.23-1.32-2-3.16-2-5.19c-0.01-2.03,0.74-3.87,1.96-5.2
					C162.73,47.4,164.42,46.58,166.29,46.57L166.29,46.57z M170.06,49.82c-0.97-1.04-2.3-1.68-3.77-1.67
					c-1.47,0.01-2.79,0.66-3.75,1.7c-0.96,1.05-1.55,2.49-1.54,4.08c0.01,1.59,0.61,3.03,1.57,4.07c0.97,1.04,2.3,1.68,3.77,1.67
					c1.47-0.01,2.79-0.66,3.75-1.7c0.96-1.05,1.55-2.49,1.54-4.08C171.63,52.3,171.03,50.86,170.06,49.82z"/>
				<path class="st9" d="M166.3,49.73c2.13-0.01,3.86,1.86,3.87,4.17c0.01,2.31-1.71,4.19-3.84,4.2c-2.13,0.01-3.86-1.86-3.87-4.17
					C162.46,51.62,164.18,49.74,166.3,49.73z"/>
				
					<rect x="202.02" y="96.12" transform="matrix(1 -3.977278e-03 3.977278e-03 1 -0.4794 0.8073)" class="st8" width="1.46" height="49.61"/>
				<path class="st8" d="M202.59,82.22c1.87-0.01,3.57,0.81,4.8,2.13c1.23,1.32,2,3.16,2,5.19c0.01,2.03-0.74,3.87-1.96,5.2
					c-1.22,1.33-2.91,2.16-4.78,2.17c-1.87,0.01-3.57-0.81-4.8-2.13c-1.23-1.32-2-3.16-2-5.19c-0.01-2.03,0.74-3.87,1.96-5.2
					C199.03,83.06,200.72,82.23,202.59,82.22L202.59,82.22z M206.37,85.48c-0.97-1.04-2.3-1.68-3.77-1.67
					c-1.47,0.01-2.79,0.66-3.75,1.7c-0.96,1.05-1.55,2.49-1.54,4.08c0.01,1.59,0.61,3.03,1.57,4.07c0.97,1.04,2.3,1.68,3.77,1.67
					c1.47-0.01,2.79-0.66,3.75-1.7c0.96-1.05,1.55-2.49,1.54-4.08C207.93,87.95,207.33,86.51,206.37,85.48z"/>
				<path class="st9" d="M202.61,85.39c2.13-0.01,3.86,1.86,3.87,4.17c0.01,2.31-1.71,4.19-3.84,4.2c-2.13,0.01-3.86-1.86-3.87-4.17
					C198.76,87.28,200.48,85.4,202.61,85.39z"/>
				
					<rect x="103.6" y="82.85" transform="matrix(1 -3.977349e-03 3.977349e-03 1 -0.4274 0.4158)" class="st8" width="1.46" height="49.61"/>
				<path class="st8" d="M104.17,68.95c1.87-0.01,3.57,0.81,4.8,2.13c1.23,1.32,2,3.16,2,5.19c0.01,2.03-0.74,3.87-1.96,5.2
					c-1.22,1.33-2.91,2.16-4.78,2.17c-1.87,0.01-3.57-0.81-4.8-2.13c-1.23-1.32-2-3.16-2-5.19c-0.01-2.03,0.74-3.87,1.96-5.2
					C100.61,69.79,102.3,68.96,104.17,68.95L104.17,68.95z M107.94,72.2c-0.97-1.04-2.3-1.68-3.77-1.67
					c-1.47,0.01-2.79,0.66-3.75,1.7c-0.96,1.05-1.55,2.49-1.54,4.08c0.01,1.59,0.61,3.03,1.57,4.07c0.97,1.04,2.3,1.68,3.77,1.67
					c1.47-0.01,2.79-0.66,3.75-1.7c0.96-1.05,1.55-2.49,1.54-4.08C109.51,74.68,108.91,73.24,107.94,72.2z"/>
				<path class="st9" d="M104.18,72.12c2.13-0.01,3.86,1.86,3.87,4.16c0.01,2.31-1.71,4.19-3.84,4.2c-2.13,0.01-3.86-1.86-3.87-4.17
					C100.34,74,102.06,72.12,104.18,72.12z"/>
				<path class="st8" d="M42.63,53.91c-0.16,0-0.3,0.13-0.31,0.31c-0.02,0.2,0.13,0.38,0.31,0.38l3.15-0.01
					c0.16,0,0.3-0.14,0.31-0.31c0.02-0.2-0.13-0.38-0.31-0.38L42.63,53.91L42.63,53.91z M226.11,53.87c0.16,0,0.3-0.13,0.31-0.31
					c0.02-0.2-0.13-0.38-0.32-0.38l-3.15,0.01c-0.16,0-0.3,0.13-0.31,0.31c-0.02,0.2,0.13,0.38,0.31,0.38L226.11,53.87L226.11,53.87
					z M216.66,53.9c0.16,0,0.3-0.13,0.31-0.31c0.02-0.2-0.13-0.38-0.32-0.38l-0.63,0c-0.16,0-0.3,0.14-0.31,0.31
					c-0.02,0.2,0.13,0.38,0.31,0.38L216.66,53.9L216.66,53.9z M209.72,53.93c0.16,0,0.3-0.14,0.31-0.31
					c0.02-0.2-0.13-0.38-0.32-0.38l-3.15,0.01c-0.16,0-0.3,0.13-0.31,0.31c-0.02,0.2,0.13,0.38,0.32,0.38L209.72,53.93L209.72,53.93
					z M200.26,53.97c0.16,0,0.3-0.13,0.31-0.31c0.02-0.2-0.13-0.38-0.31-0.38l-0.63,0c-0.16,0-0.3,0.14-0.31,0.31
					c-0.02,0.2,0.13,0.38,0.32,0.38L200.26,53.97L200.26,53.97z M193.33,54c0.16,0,0.3-0.13,0.31-0.31c0.02-0.2-0.13-0.38-0.32-0.38
					l-3.15,0.01c-0.16,0-0.3,0.14-0.31,0.31c-0.02,0.2,0.13,0.38,0.32,0.38L193.33,54L193.33,54z M183.87,54.03
					c0.16,0,0.3-0.14,0.31-0.31c0.02-0.2-0.13-0.38-0.31-0.38l-0.63,0c-0.16,0-0.3,0.14-0.31,0.31c-0.02,0.2,0.13,0.38,0.32,0.38
					L183.87,54.03L183.87,54.03z M176.93,54.06c0.16,0,0.3-0.13,0.31-0.31c0.02-0.2-0.13-0.38-0.31-0.38l-3.15,0.01
					c-0.16,0-0.3,0.13-0.31,0.31c-0.02,0.2,0.13,0.38,0.31,0.38L176.93,54.06L176.93,54.06z M167.48,54.1c0.16,0,0.3-0.13,0.31-0.31
					c0.02-0.2-0.13-0.38-0.31-0.38l-0.63,0c-0.16,0-0.3,0.13-0.31,0.31c-0.02,0.2,0.13,0.38,0.32,0.38L167.48,54.1L167.48,54.1z
					 M160.54,54.13c0.16,0,0.3-0.13,0.31-0.31c0.02-0.2-0.13-0.38-0.32-0.38l-3.15,0.01c-0.16,0-0.3,0.14-0.31,0.31
					c-0.02,0.2,0.13,0.38,0.31,0.38L160.54,54.13L160.54,54.13z M151.08,54.16c0.16,0,0.3-0.13,0.31-0.31
					c0.02-0.2-0.13-0.38-0.32-0.38l-0.63,0c-0.16,0-0.3,0.14-0.31,0.31c-0.02,0.2,0.13,0.38,0.31,0.38L151.08,54.16L151.08,54.16z
					 M144.15,54.19c0.16,0,0.3-0.13,0.31-0.31c0.02-0.2-0.13-0.38-0.32-0.38l-3.15,0.01c-0.16,0-0.3,0.13-0.31,0.31
					c-0.02,0.2,0.13,0.38,0.32,0.38L144.15,54.19L144.15,54.19z M134.69,54.23c0.16,0,0.3-0.13,0.31-0.31
					c0.02-0.2-0.13-0.38-0.32-0.38l-0.63,0c-0.16,0-0.3,0.14-0.31,0.31c-0.02,0.2,0.13,0.38,0.32,0.38L134.69,54.23L134.69,54.23z
					 M127.75,54.26c0.16,0,0.3-0.14,0.31-0.31c0.02-0.2-0.13-0.38-0.32-0.38l-3.15,0.01c-0.16,0-0.3,0.14-0.31,0.31
					c-0.02,0.2,0.13,0.38,0.32,0.38L127.75,54.26L127.75,54.26z M118.3,54.29c0.16,0,0.3-0.13,0.31-0.31
					c0.02-0.2-0.13-0.38-0.31-0.38l-0.63,0c-0.16,0-0.3,0.13-0.31,0.31c-0.02,0.2,0.13,0.38,0.32,0.38L118.3,54.29L118.3,54.29z
					 M111.36,54.32c0.16,0,0.3-0.13,0.31-0.31c0.02-0.2-0.13-0.38-0.31-0.38l-3.15,0.01c-0.16,0-0.3,0.14-0.31,0.31
					c-0.02,0.2,0.13,0.38,0.31,0.38L111.36,54.32L111.36,54.32z M101.9,54.36c0.16,0,0.3-0.13,0.31-0.31
					c0.02-0.2-0.13-0.38-0.31-0.38l-0.63,0c-0.16,0-0.3,0.14-0.31,0.31c-0.02,0.2,0.13,0.38,0.32,0.38L101.9,54.36L101.9,54.36z
					 M94.97,54.39c0.16,0,0.3-0.14,0.31-0.31c0.02-0.2-0.13-0.38-0.32-0.38l-3.15,0.01c-0.16,0-0.3,0.13-0.31,0.31
					c-0.02,0.2,0.13,0.38,0.32,0.38L94.97,54.39L94.97,54.39z M85.51,54.42c0.16,0,0.3-0.14,0.31-0.31c0.02-0.2-0.13-0.38-0.32-0.38
					l-0.63,0c-0.16,0-0.3,0.14-0.31,0.31c-0.02,0.2,0.13,0.38,0.31,0.38L85.51,54.42L85.51,54.42z M78.57,54.45
					c0.16,0,0.3-0.14,0.31-0.31c0.02-0.2-0.13-0.38-0.32-0.38l-3.15,0.01c-0.16,0-0.3,0.14-0.31,0.31c-0.02,0.2,0.13,0.38,0.32,0.38
					L78.57,54.45L78.57,54.45z M69.12,54.49c0.16,0,0.3-0.13,0.31-0.31c0.02-0.2-0.13-0.38-0.31-0.38l-0.63,0
					c-0.16,0-0.3,0.13-0.31,0.31c-0.02,0.2,0.13,0.38,0.32,0.38L69.12,54.49L69.12,54.49z M62.18,54.52c0.16,0,0.3-0.13,0.31-0.31
					c0.02-0.2-0.13-0.38-0.32-0.38l-3.15,0.01c-0.16,0-0.3,0.14-0.31,0.31c-0.02,0.2,0.13,0.38,0.32,0.38L62.18,54.52L62.18,54.52z
					 M52.72,54.55c0.16,0,0.3-0.13,0.31-0.31c0.02-0.2-0.13-0.38-0.31-0.38l-0.63,0c-0.16,0-0.3,0.14-0.31,0.31
					c-0.02,0.2,0.13,0.38,0.32,0.38L52.72,54.55z"/>
			</g>
		</g>
		<g>
			<polygon class="st1" points="41.24,20.54 35.75,20.52 35.68,37.17 39.1,37.18 39.15,24.49 41.73,37.19 44.81,37.2 47.5,24.52 
				47.45,37.22 50.86,37.23 50.92,20.58 45.46,20.56 43.31,30.68 			"/>
			<path class="st1" d="M57.29,20.61l-5.14,16.63l4.26,0.02l0.67-2.75l4.75,0.02l0.65,2.75l4.36,0.02l-5-16.67L57.29,20.61
				L57.29,20.61z M59.5,24.93l1.47,5.99l-2.97-0.01L59.5,24.93z"/>
			<path class="st1" d="M68.3,20.66L68.23,37.3l4.19,0.02l0.03-6.76l0.37,0c0.38,0,0.72,0.13,1.02,0.39
				c0.22,0.2,0.47,0.63,0.75,1.29l2.21,5.1l4.71,0.02l-2-4.83c-0.1-0.24-0.29-0.59-0.58-1.04c-0.29-0.45-0.51-0.74-0.66-0.88
				c-0.23-0.21-0.59-0.41-1.08-0.62c0.62-0.17,1.11-0.39,1.47-0.65c0.56-0.42,1-0.96,1.32-1.63c0.32-0.67,0.48-1.46,0.49-2.39
				c0-1.06-0.2-1.96-0.61-2.7c-0.41-0.74-0.96-1.25-1.64-1.52c-0.68-0.28-1.66-0.42-2.95-0.42L68.3,20.66L68.3,20.66z M72.45,27.42
				l0.01-3.38l1.83,0.01c0.76,0,1.28,0.15,1.55,0.44c0.28,0.29,0.41,0.7,0.41,1.24c0,0.36-0.09,0.69-0.26,0.96
				c-0.18,0.28-0.4,0.45-0.68,0.52c-0.55,0.15-0.92,0.22-1.1,0.22L72.45,27.42z"/>
			<polygon class="st1" points="82.92,20.72 82.85,37.36 87.02,37.38 87.03,33.32 89.2,30.54 92.01,37.4 97.15,37.42 92.06,27.04 
				97,20.78 91.46,20.75 87.06,27.03 87.08,20.74 			"/>
			<polygon class="st1" points="98.59,20.78 98.52,37.43 109.89,37.48 109.91,33.71 102.71,33.68 102.73,30.4 109.21,30.43 
				109.23,27.03 102.74,27 102.75,24.36 109.74,24.39 109.76,20.83 			"/>
			<polygon class="st1" points="111.26,20.84 111.24,24.95 115.49,24.97 115.44,37.5 119.61,37.52 119.66,24.99 123.91,25 
				123.93,20.89 			"/>
			
				<rect x="119.71" y="27.14" transform="matrix(4.169008e-03 -1 1 4.169008e-03 98.2691 157.1425)" class="st1" width="16.65" height="4.18"/>
			<polygon class="st1" points="133.18,20.93 133.11,37.58 137.03,37.59 137.06,28.45 142.08,37.61 146.01,37.63 146.08,20.98 
				142.15,20.97 142.11,30.18 137.07,20.95 			"/>
			<path class="st1" d="M148.3,29.32c-0.01,1.72,0.27,3.25,0.82,4.59c0.55,1.34,1.33,2.34,2.33,3.02c1.01,0.68,2.31,1.02,3.91,1.03
				c1.3,0.01,2.43-0.18,3.38-0.55c0.95-0.37,2.04-1.07,3.28-2.1l0.03-7.1l-6.44-0.03l-0.01,3.46l2.79,0.01l-0.01,1.57
				c-0.54,0.4-1.03,0.68-1.46,0.84c-0.42,0.17-0.87,0.25-1.33,0.25c-0.98,0-1.75-0.4-2.29-1.17c-0.55-0.77-0.82-2.06-0.81-3.86
				c0.01-1.7,0.29-2.93,0.83-3.72c0.55-0.78,1.28-1.17,2.19-1.16c0.61,0,1.12,0.17,1.51,0.51c0.39,0.33,0.67,0.82,0.84,1.45
				l4.02-0.87c-0.24-1.08-0.6-1.97-1.09-2.67c-0.49-0.7-1.1-1.22-1.83-1.56c-0.74-0.34-1.85-0.51-3.34-0.51
				c-1.54-0.01-2.78,0.26-3.69,0.79c-1.17,0.69-2.07,1.71-2.68,3.05C148.61,25.92,148.3,27.5,148.3,29.32z"/>
			<path class="st1" d="M170.81,21.09l-0.07,16.65l4.19,0.02l0.03-6.18l2.28,0.01c1.68,0.01,2.93-0.46,3.76-1.4
				c0.82-0.94,1.24-2.25,1.24-3.94c0.01-1.63-0.37-2.9-1.11-3.78c-0.75-0.89-1.88-1.34-3.38-1.34L170.81,21.09L170.81,21.09z
				 M174.97,28.2l0.02-3.71l1.19,0c0.78,0,1.31,0.19,1.59,0.55c0.28,0.36,0.42,0.81,0.42,1.33c0,0.53-0.17,0.98-0.49,1.32
				c-0.33,0.34-0.89,0.51-1.7,0.51L174.97,28.2z"/>
			<polygon class="st1" points="184.44,21.15 184.37,37.79 195.04,37.84 195.06,33.74 188.56,33.71 188.61,21.16 			"/>
			<path class="st1" d="M200.72,21.21l-5.14,16.62l4.26,0.02l0.67-2.75l4.75,0.02l0.65,2.75l4.36,0.02l-5-16.67L200.72,21.21
				L200.72,21.21z M202.92,25.54l1.47,5.99l-2.97-0.01L202.92,25.54z"/>
			<polygon class="st1" points="211.69,21.26 211.62,37.91 215.55,37.92 215.58,28.78 220.6,37.94 224.54,37.96 224.61,21.31 
				220.67,21.3 220.63,30.51 215.59,21.28 			"/>
		</g>
	</g>
	<g>
		<path class="st10" d="M43.1,182.19c6.04,5.4,7.71,11.75,10.33,19.28c1.03,2.97-0.44,1.55-1.83,0.08
			C46.43,196.1,47.65,188.18,43.1,182.19L43.1,182.19z M78.26,234.34l51.36,0.1l-1.93-31.06c-1.9-7.03,3.83-16.9-7.87-21.2H77.27
			c-11.4-1.48-9.67-7.33-20.29-20.74c-12.46-15.73-37.65-10.75-23.12,5.01c7.53,8.16,3.33,6.29,9.2,15.68l-14.14,0.05
			c5.43,8.52,5.97,9.84,14.17,15.61c11.45,8.07,11.96,13.21,23.24,17.82C77.67,220.27,75.16,224.71,78.26,234.34L78.26,234.34z
			 M38.94,156.19c5.7,1.63,1.06,3.95-1.49,8.75C34.22,171.01,27.76,153,38.94,156.19z"/>
		<path class="st11" d="M37.45,164.94c2.56-4.8,7.19-7.12,1.49-8.75C27.76,153,34.22,171.01,37.45,164.94z"/>
		<rect x="75.06" y="234.34" class="st12" width="60.72" height="20.99"/>
		<path class="st13" d="M53.43,201.46c-2.62-7.52-4.29-13.88-10.33-19.28c4.55,5.99,3.33,13.92,8.49,19.35
			C52.98,203.01,54.46,204.44,53.43,201.46z"/>
	</g>
	<rect x="70.39" y="255.34" class="st14" width="70.22" height="42.37"/>
	<g>
		<path class="st10" d="M219.83,160.15l-1.18,0.96l-6.93-13.82l-9.03-3.03l-6.44,5.76c2.63,0.1,5.5,1.08,8.11,3.21
			c2.24,1.83,4.88,4.63,8.13,8.87c6.08,7.92,54.68,23.32,46.9,49.31c-2.55,8.51-13.79,8.38-20.73,5.1
			c-5.66-2.68-9.86-5.45-13.03-8.23c0.38,6.27-0.75,12.46,6.92,14.63v11.33h41.56c0-9.05,0-18.1,0-27.15
			c-7.78-38.87-18.57-79.29-65.43-92.62c-2.4-0.43-21.08-2.8-24.31,0.67c-4.22,4.54,3.33,10.99,11.96,12.99l1.21,0.16l7.42-1.03
			l14.8,7.12l9.35,14.02l-0.81,1.28l-9.34-14.02l-14.8-7.12l-2.7,0.27l-11.39,5.33c-11.26,7.65-6.93,20.6,7.17,13.11
			c0.27-0.14,0.54-0.29,0.81-0.45l3.56-2.88l1.18-0.96l10.09,3.39L219.83,160.15z"/>
		<path class="st10" d="M211.55,181.93c-4.31-6.2-14.42-11.84-20.27-17.54c-1.32-1.29-2.27-2.55-2.91-3.75
			c-2.77,0.16-6.2-0.28-7.15,3.64c-1.87,7.72,11.95,6.66,11.96,6.66l15.66,12.4l8.24,13.07
			C214.78,190.88,214.24,185.81,211.55,181.93z"/>
		<polygon class="st15" points="202.7,144.26 211.72,147.29 218.65,161.11 219.83,160.15 212.91,146.34 202.81,142.95 201.63,143.9 
					"/>
		<polygon class="st15" points="218.98,135.64 228.32,149.67 229.14,148.39 219.79,134.36 204.99,127.25 197.57,128.28 
			201.48,128.79 204.18,128.52 		"/>
	</g>
	<g>
		<path class="st16" d="M218.21,182.59l5.2-3.57l4.03,5.87l-5.71,3.93l-4.04-5.87L218.21,182.59L218.21,182.59z M225.88,177.31
			l4.03,5.87l3.24-2.23l-4.03-5.87l-0.52,0.36L225.88,177.31z"/>
		<path class="st14" d="M228.6,175.44l-2.72,1.87l-31.24-45.42l2.72-1.87L228.6,175.44L228.6,175.44z M223.41,179.01l-31.24-45.42
			l-5.2,3.57l31.24,45.42L223.41,179.01z"/>
		<path class="st16" d="M197.37,130.02l-2.72,1.87l-1.4-2.04l3.88-2.67l1.4,2.04L197.37,130.02L197.37,130.02z M192.17,133.6
			l-5.2,3.57l-1.16,0.8l-1.4-2.04l6.35-4.37L192.17,133.6z"/>
		<path class="st14" d="M197.13,127.19l-3.88,2.67l-4.49-6.53l-0.03,0.02c1.5-1.29,2.82-2.72,3.97-4.26l5.21,7.57L197.13,127.19
			L197.13,127.19z M190.77,131.56l-4.4-6.4c-2.49,1.71-5.17,2.95-7.93,3.73l5.21,7.57l0.77-0.53L190.77,131.56L190.77,131.56z
			 M186.72,124.92c0.07-0.05,0.15-0.1,0.22-0.16C186.86,124.82,186.79,124.87,186.72,124.92L186.72,124.92z M188.06,123.9l0.09-0.08
			l-0.02,0.02L188.06,123.9z"/>
		<path class="st14" d="M199.4,65.46c10.6,19.86,4.81,44.96-14.18,58.02c-20.4,14.03-48.33,8.87-62.36-11.54
			c-12.79-18.6-9.63-43.44,6.48-58.32c-0.01,3.75,0.56,7.53,1.74,11.18c-9.1,12.04-9.96,29.02-0.94,42.14
			c11.27,16.38,33.7,20.53,50.08,9.26c13.44-9.24,18.65-25.99,13.87-40.76C196.39,72.39,198.17,69.02,199.4,65.46z"/>
		<path class="st23" d="M194.08,75.45c4.78,14.77-0.42,31.52-13.87,40.76c-16.38,11.27-38.81,7.12-50.08-9.26
			c-9.02-13.12-8.16-30.1,0.94-42.14c1.05,3.24,2.58,6.38,4.6,9.32c11.27,16.39,33.7,20.53,50.08,9.26
			C189.03,81.15,191.81,78.45,194.08,75.45z"/>
		<path class="st24" d="M185.76,83.39c-16.39,11.27-38.81,7.12-50.08-9.26c-2.03-2.95-3.55-6.09-4.6-9.32
			c2.27-3,5.05-5.69,8.32-7.94c16.39-11.27,38.81-7.12,50.08,9.26c2.03,2.94,3.55,6.09,4.6,9.32
			C191.81,78.45,189.03,81.15,185.76,83.39z"/>
		<path class="st2" d="M189.48,66.13c-11.27-16.39-33.7-20.53-50.08-9.26c-3.27,2.25-6.05,4.94-8.32,7.94
			c-1.18-3.65-1.75-7.43-1.74-11.18c1.56-1.45,3.25-2.8,5.06-4.04c20.4-14.03,48.33-8.87,62.36,11.54c0.97,1.41,1.85,2.86,2.64,4.34
			c-1.22,3.55-3,6.93-5.32,9.99C193.03,72.22,191.5,69.07,189.48,66.13z"/>
		<path class="st19" d="M196.76,61.13c-14.03-20.4-41.96-25.57-62.36-11.54c-1.81,1.24-3.49,2.59-5.06,4.04l0,0l0,0
			c-16.11,14.88-19.27,39.73-6.48,58.32c14.03,20.4,41.96,25.57,62.36,11.54c18.99-13.06,24.78-38.16,14.18-58.02
			C198.61,63.99,197.73,62.54,196.76,61.13L196.76,61.13z M129.45,50.81c1.2-1.02,2.46-1.98,3.79-2.89
			c21.33-14.67,50.52-9.27,65.19,12.06c0.63,0.92,1.22,1.85,1.78,2.79c9.75,16.54,8.23,36.99-2.81,51.8
			c-2.99,4.01-6.68,7.61-11.03,10.6c-4.35,2.99-9.03,5.15-13.85,6.51c-18.79,5.29-39.67-1.59-51.34-18.57
			C107.42,93.1,111.32,66.18,129.45,50.81z"/>
		<path class="st20" d="M186.37,125.16c0.61-0.42,1.2-0.86,1.76-1.32c0.21-0.17,0.41-0.34,0.61-0.52l4.49,6.53l-2.47,1.7
			L186.37,125.16z"/>
		
			<rect x="191.21" y="130.49" transform="matrix(0.8239 -0.5667 0.5667 0.8239 -40.7191 132.4105)" class="st21" width="3" height="2.47"/>
		
			<rect x="207.53" y="127.89" transform="matrix(0.8239 -0.5667 0.5667 0.8239 -51.292 145.8376)" class="st20" width="3" height="55.12"/>
		
			<rect x="225.16" y="177.54" transform="matrix(0.8239 -0.5667 0.5667 0.8239 -62.7178 160.3474)" class="st21" width="3" height="7.12"/>
	</g>
	<g>
		<path class="st10" d="M204.36,153.24c-2.61-2.13-5.48-3.11-8.11-3.21c-0.88-0.03-1.72,0.03-2.53,0.18
			c-4.93,0.93-8.15,5.16-5.37,10.43c0.64,1.21,1.59,2.47,2.91,3.75c5.85,5.7,15.96,11.34,20.27,17.54c2.7,3.88,3.23,8.95,5.52,14.47
			c1.58,3.82,4.01,7.87,8.58,11.88c3.17,2.78,7.37,5.56,13.03,8.23c6.93,3.28,18.18,3.41,20.73-5.1
			c7.78-25.99-40.82-41.39-46.9-49.31C209.24,157.87,206.6,155.06,204.36,153.24L204.36,153.24z M200.66,160.34l-4.18,3.89
			c-1.67-0.83-7.18-3.31-7.91-5.22c-0.99-2.59,4.28-8.01,7.22-6.52C198.78,154,199.76,157.66,200.66,160.34z"/>
		<path class="st11" d="M200.66,160.34c-0.9-2.68-1.88-6.34-4.87-7.85c-2.94-1.49-8.2,3.93-7.22,6.52c0.73,1.91,6.24,4.39,7.91,5.22
			L200.66,160.34z"/>
	</g>
	<polygon class="st1" points="222.23,257.6 222.23,234.11 238.59,234.11 284.53,234.11 287.49,234.11 287.49,257.6 	"/>
	<rect x="220.02" y="257.67" class="st14" width="71.92" height="40.04"/>
</g>
</svg>
