<?xml version="1.0" encoding="utf-8"?>
<!-- Generator: Adobe Illustrator 23.0.1, SVG Export Plug-In . SVG Version: 6.00 Build 0)  -->
<svg version="1.1" id="栝鍣_1" xmlns="http://www.w3.org/2000/svg" xmlns:xlink="http://www.w3.org/1999/xlink" x="0px" y="0px"
	 viewBox="0 0 202.36 239.96" style="enable-background:new 0 0 202.36 239.96;" xml:space="preserve">
<style type="text/css">
	.st0{fill-rule:evenodd;clip-rule:evenodd;fill:#FFFFFF;}
	.st1{fill-rule:evenodd;clip-rule:evenodd;fill:#CCCCCC;}
	.st2{fill-rule:evenodd;clip-rule:evenodd;fill:#C8CECE;}
	.st3{fill-rule:evenodd;clip-rule:evenodd;fill:#FCFDFF;}
	.st4{fill:#DC735E;}
	.st5{fill-rule:evenodd;clip-rule:evenodd;fill:#E5E5E5;}
	.st6{fill-rule:evenodd;clip-rule:evenodd;fill:#F0BD88;}
	.st7{fill-rule:evenodd;clip-rule:evenodd;fill:#CD996A;}
	.st8{fill-rule:evenodd;clip-rule:evenodd;fill:#F7EECF;}
	.st9{fill-rule:evenodd;clip-rule:evenodd;fill:#FDD4A6;}
	.st10{fill-rule:evenodd;clip-rule:evenodd;fill:#E7A13F;}
	.st11{fill-rule:evenodd;clip-rule:evenodd;}
</style>
<g>
	<g>
		
			<rect x="34.77" y="63.94" transform="matrix(0.7903 -0.6127 0.6127 0.7903 -66.6521 88.1805)" class="st0" width="121.49" height="155.06"/>
		<g>
			
				<rect x="96.85" y="183.39" transform="matrix(0.7903 -0.6127 0.6127 0.7903 -85.5304 118.6892)" class="st1" width="67.59" height="1.83"/>
			
				<rect x="95.54" y="182.86" transform="matrix(0.7903 -0.6127 0.6127 0.7903 -86.1943 115.6891)" class="st1" width="60.79" height="1.83"/>
			
				<rect x="95.22" y="185.25" transform="matrix(0.7903 -0.6127 0.6127 0.7903 -89.431 110.9985)" class="st1" width="44.47" height="1.83"/>
		</g>
		<g>
			
				<rect x="84.42" y="170.04" transform="matrix(0.7903 -0.6127 0.6127 0.7903 -81.675 103.2794)" class="st1" width="51.27" height="1.85"/>
			
				<rect x="84.68" y="167.45" transform="matrix(0.7903 -0.6127 0.6127 0.7903 -78.2392 108.1286)" class="st1" width="68.36" height="1.85"/>
			
				<rect x="89.82" y="179.13" transform="matrix(0.7903 -0.6127 0.6127 0.7903 -87.4101 104.6966)" class="st1" width="38.87" height="1.85"/>
		</g>
		<g>
			
				<rect x="67.45" y="145.4" transform="matrix(0.7903 -0.6127 0.6127 0.7903 -68.4174 92.7138)" class="st1" width="67.59" height="1.83"/>
			
				<rect x="66.14" y="144.87" transform="matrix(0.7903 -0.6127 0.6127 0.7903 -69.0808 89.7121)" class="st1" width="60.78" height="1.83"/>
			
				<rect x="65.82" y="147.25" transform="matrix(0.7903 -0.6127 0.6127 0.7903 -72.3173 85.0214)" class="st1" width="44.47" height="1.83"/>
		</g>
		<g>
			
				<rect x="72.62" y="151.8" transform="matrix(0.7903 -0.6127 0.6127 0.7903 -71.0748 97.74)" class="st1" width="69.28" height="1.83"/>
			
				<rect x="75.38" y="156.55" transform="matrix(0.7903 -0.6127 0.6127 0.7903 -74.1387 98.2881)" class="st1" width="62.31" height="1.83"/>
			
				<rect x="79.16" y="164.29" transform="matrix(0.7903 -0.6127 0.6127 0.7903 -79.8408 97.1082)" class="st1" width="45.59" height="1.83"/>
		</g>
		
			<rect x="91.65" y="187.71" transform="matrix(0.7903 -0.6127 0.6127 0.7903 -87.9675 119.314)" class="st2" width="77.37" height="0.93"/>
		<path class="st2" d="M94.67,212.13l6.6-5.12l-4.69-6.05l-6.6,5.12L94.67,212.13L94.67,212.13z M100.2,206.92l-5.35,4.14l-3.8-4.9
			l5.34-4.14L100.2,206.92z"/>
		
			<rect x="92.25" y="203.45" transform="matrix(0.7904 -0.6126 0.6126 0.7904 -106.4903 101.8832)" class="st3" width="6.76" height="6.2"/>
		
			<rect x="81.87" y="175.1" transform="matrix(0.7903 -0.6127 0.6127 0.7903 -82.2879 110.674)" class="st2" width="77.37" height="0.93"/>
		<path class="st2" d="M84.89,199.51l6.6-5.12l-4.69-6.05l-6.6,5.12L84.89,199.51L84.89,199.51z M90.42,194.31l-5.34,4.14l-3.8-4.9
			l5.34-4.14L90.42,194.31z"/>
		
			<rect x="82.47" y="190.83" transform="matrix(0.7902 -0.6128 0.6128 0.7902 -100.8324 93.2855)" class="st0" width="6.76" height="6.2"/>
		
			<rect x="72.09" y="162.48" transform="matrix(0.7903 -0.6127 0.6127 0.7903 -76.6088 102.0362)" class="st2" width="77.37" height="0.93"/>
		<path class="st2" d="M75.11,186.9l6.6-5.12l-4.69-6.05l-6.6,5.12L75.11,186.9L75.11,186.9z M80.64,181.69l-5.34,4.14l-3.8-4.9
			l5.34-4.14L80.64,181.69z"/>
		
			<rect x="72.68" y="178.21" transform="matrix(0.7902 -0.6128 0.6128 0.7902 -95.1527 84.6458)" class="st0" width="6.76" height="6.2"/>
		
			<rect x="62.31" y="149.87" transform="matrix(0.7903 -0.6127 0.6127 0.7903 -70.9297 93.3987)" class="st2" width="77.37" height="0.93"/>
		<path class="st2" d="M65.33,174.28l6.6-5.12l-4.69-6.05l-6.6,5.12L65.33,174.28L65.33,174.28z M70.86,169.08l-5.35,4.14l-3.8-4.9
			l5.34-4.14L70.86,169.08z"/>
		
			<rect x="62.9" y="165.6" transform="matrix(0.7904 -0.6126 0.6126 0.7904 -89.453 75.972)" class="st0" width="6.76" height="6.2"/>
		
			<rect x="52.53" y="137.25" transform="matrix(0.7903 -0.6127 0.6127 0.7903 -65.2514 84.7628)" class="st2" width="77.37" height="0.93"/>
		<path class="st2" d="M62.15,156.55l-4.69-6.05l-6.6,5.12l4.69,6.05L62.15,156.55L62.15,156.55z M61.08,156.46l-5.35,4.14l-3.8-4.9
			l5.34-4.14L61.08,156.46z"/>
		
			<rect x="53.12" y="152.98" transform="matrix(0.7903 -0.6127 0.6127 0.7903 -83.7861 67.354)" class="st0" width="6.76" height="6.2"/>
		
			<rect x="42.75" y="124.63" transform="matrix(0.7903 -0.6127 0.6127 0.7903 -59.5724 76.1248)" class="st2" width="77.37" height="0.93"/>
		<path class="st2" d="M45.77,149.05l6.6-5.12l-4.69-6.05l-6.6,5.12L45.77,149.05L45.77,149.05z M51.3,143.84l-5.35,4.14l-3.8-4.9
			l5.35-4.14L51.3,143.84z"/>
		
			<rect x="43.34" y="140.37" transform="matrix(0.7904 -0.6126 0.6126 0.7904 -78.0955 58.699)" class="st0" width="6.76" height="6.2"/>
		
			<rect x="32.97" y="112.02" transform="matrix(0.7903 -0.6127 0.6127 0.7903 -53.8927 67.4851)" class="st2" width="77.37" height="0.93"/>
		<path class="st2" d="M42.59,131.32l-4.69-6.05l-6.6,5.12l4.69,6.05L42.59,131.32L42.59,131.32z M41.52,131.23l-5.35,4.14l-3.8-4.9
			l5.35-4.14L41.52,131.23z"/>
		
			<rect x="33.56" y="127.75" transform="matrix(0.7903 -0.6127 0.6127 0.7903 -72.4276 50.0772)" class="st0" width="6.76" height="6.2"/>
		<path class="st4" d="M91.74,207.55c-0.55-0.23-0.81-0.86-0.59-1.41c0.23-0.55,0.85-0.81,1.4-0.59l3.01,1.23l1.08-8.52
			c0.08-0.59,0.62-1.01,1.21-0.94c0.59,0.08,1.01,0.62,0.94,1.21l-1.25,9.92l0,0c-0.01,0.09-0.04,0.18-0.07,0.27
			c-0.23,0.55-0.85,0.81-1.4,0.59L91.74,207.55z"/>
		
			<rect x="11.15" y="89.09" transform="matrix(0.7903 -0.6127 0.6127 0.7903 -45.4018 54.2586)" class="st5" width="90.85" height="8.74"/>
		<g>
			
				<rect x="34.17" y="102.45" transform="matrix(0.7903 -0.6127 0.6127 0.7903 -49.0803 63.3122)" class="st1" width="67.59" height="1.83"/>
			
				<rect x="36.91" y="107.15" transform="matrix(0.7903 -0.6127 0.6127 0.7903 -52.0987 63.8935)" class="st1" width="60.79" height="1.83"/>
			
				<rect x="40.64" y="114.76" transform="matrix(0.7903 -0.6127 0.6127 0.7903 -57.6881 62.7802)" class="st1" width="44.47" height="1.83"/>
		</g>
		<g>
			
				<rect x="45.51" y="119.96" transform="matrix(0.7903 -0.6127 0.6127 0.7903 -59.143 68.9353)" class="st1" width="51.27" height="1.85"/>
			
				<rect x="45.77" y="117.36" transform="matrix(0.7903 -0.6127 0.6127 0.7903 -55.7081 73.7861)" class="st1" width="68.36" height="1.85"/>
			
				<rect x="50.91" y="129.04" transform="matrix(0.7903 -0.6127 0.6127 0.7903 -64.8763 70.3477)" class="st1" width="38.87" height="1.85"/>
		</g>
		<g>
			
				<rect x="55.1" y="132.22" transform="matrix(0.7903 -0.6127 0.6127 0.7903 -64.6507 77.3804)" class="st1" width="51.27" height="1.85"/>
			
				<rect x="55.35" y="129.63" transform="matrix(0.7903 -0.6127 0.6127 0.7903 -61.2157 82.2315)" class="st1" width="68.36" height="1.85"/>
			
				<rect x="60.49" y="141.31" transform="matrix(0.7903 -0.6127 0.6127 0.7903 -70.384 78.793)" class="st1" width="38.87" height="1.85"/>
		</g>
		<path class="st4" d="M89.13,190.43c0.42-0.33,1.03-0.25,1.36,0.17c0.33,0.42,0.25,1.03-0.17,1.36c-1.29,1-2.7,2-4.1,2.99
			c-1.34,0.95-2.68,1.9-4.08,2.99c-0.42,0.33-1.03,0.25-1.36-0.17c-0.33-0.42-0.25-1.03,0.17-1.36c1.32-1.02,2.73-2.03,4.15-3.03
			C86.42,192.44,87.75,191.5,89.13,190.43z"/>
		<path class="st4" d="M71.41,181.38c-0.55-0.23-0.81-0.86-0.59-1.41c0.23-0.55,0.85-0.81,1.4-0.59l3.01,1.23l1.08-8.52
			c0.08-0.59,0.62-1.01,1.21-0.94c0.59,0.08,1.01,0.62,0.94,1.21l-1.26,9.92l0,0c-0.01,0.09-0.04,0.18-0.07,0.27
			c-0.23,0.55-0.86,0.81-1.41,0.59L71.41,181.38z"/>
		<path class="st4" d="M62.12,169.58c-0.55-0.23-0.81-0.85-0.59-1.4c0.23-0.55,0.85-0.81,1.4-0.59l3.01,1.23l1.08-8.52
			c0.08-0.59,0.62-1.01,1.21-0.94c0.59,0.08,1.01,0.62,0.94,1.21l-1.25,9.92l0,0c-0.01,0.09-0.04,0.18-0.07,0.27
			c-0.23,0.55-0.85,0.81-1.4,0.59L62.12,169.58z"/>
		<path class="st4" d="M42.32,143.99c-0.55-0.23-0.81-0.85-0.59-1.4c0.23-0.55,0.85-0.81,1.4-0.59l3.01,1.23l1.08-8.52
			c0.08-0.59,0.62-1.01,1.21-0.94c0.59,0.08,1.01,0.62,0.94,1.21l-1.25,9.92l0,0c-0.01,0.09-0.04,0.18-0.07,0.27
			c-0.23,0.55-0.85,0.81-1.4,0.59L42.32,143.99z"/>
		<path class="st4" d="M33.11,131.61c-0.55-0.23-0.81-0.85-0.59-1.4c0.23-0.55,0.85-0.81,1.4-0.59l3.01,1.23l1.08-8.52
			c0.08-0.59,0.62-1.01,1.21-0.94c0.59,0.08,1.01,0.62,0.94,1.21l-1.26,9.92h0c-0.01,0.09-0.04,0.18-0.07,0.27
			c-0.23,0.55-0.86,0.81-1.41,0.59L33.11,131.61z"/>
		<path class="st4" d="M60,152.32c0.42-0.33,1.03-0.25,1.36,0.17c0.33,0.42,0.25,1.03-0.17,1.36c-1.29,1-2.7,2-4.1,2.99
			c-1.34,0.95-2.68,1.9-4.08,2.99c-0.42,0.33-1.03,0.25-1.36-0.17c-0.33-0.42-0.25-1.03,0.17-1.36c1.32-1.02,2.73-2.02,4.15-3.03
			C57.3,154.33,58.63,153.39,60,152.32z"/>
	</g>
	<g>
		<path class="st6" d="M55.9,100.24c6.05-0.88,5.38-8.55,5.16-13.67c-2.51,2.05-4.28,3.41-6.94,5.28
			C54.98,94.48,55.61,97.48,55.9,100.24z"/>
		<path class="st7" d="M55.9,100.24c-0.29-2.76-0.91-5.76-1.77-8.39c2.65-1.87,4.42-3.23,6.94-5.28c-0.02-0.46-0.04-0.9-0.04-1.31
			c-1.73,1.39-4.66,3.98-7.82,6.04c0.06,0.24,0.14,0.55,0.25,0.93c0.62,2.29,1.84,6.74,1.82,8.07
			C55.48,100.29,55.69,100.27,55.9,100.24z"/>
		<path class="st6" d="M55.25,100.3c0.02-1.34-1.2-5.78-1.82-8.07c-1.78,1.07-3.09,1.83-5.1,2.46c1.87,5.26,1.47,8.37-0.84,12.87
			c2.61,2.2,6.11-0.1,7.05-4.01L55.25,100.3z"/>
		<path class="st7" d="M47.5,107.56c2.32-4.5,2.71-7.61,0.84-12.87c2.01-0.63,3.32-1.39,5.1-2.46c-0.1-0.38-0.18-0.69-0.25-0.93
			c-1.94,1.26-3.96,2.32-5.85,2.79c0.1,0.28,0.19,0.56,0.28,0.83c1.45,4.43,1.53,7.69-0.6,12.19
			C47.18,107.28,47.34,107.43,47.5,107.56z"/>
		<path class="st6" d="M47.03,107.11c2.13-4.49,2.05-7.75,0.6-12.19c-2.38,0.52-4.62,0.48-6.06-1.37c0.35,3.86,0.36,6.96-2.33,10.28
			C40.49,107.82,43.2,111.58,47.03,107.11z"/>
		<path class="st7" d="M39.24,103.83c2.69-3.32,2.68-6.42,2.33-10.28c1.44,1.86,3.68,1.89,6.06,1.37c-0.09-0.27-0.18-0.55-0.28-0.83
			c-2.17,0.54-4.16,0.28-5.61-1.37c-0.68-0.78-1.19-1.58-1.53-2.4c0.7,4.87,1.77,8.42-1.2,12.73
			C39.08,103.31,39.15,103.57,39.24,103.83z"/>
		<path class="st6" d="M57.35,63.92l5.42-5.07c3.6-3.37,3.32-3.23,3.5-7.61c-0.63-0.22-2.1-0.73-2.69-0.86
			c-5.5-1.19-7.99,1.93-11.06,5.17c-2.23,2.36-3.1,3.06-6.11,3.65c-0.1,6.87-1.77,7.89-5.81,12.86c1.12,5.55,1.11,5.13,0.21,10.73
			c0.86-1.81,2.14-3.65,3.69-5.48c3.9-4.63,9.46-9.23,14.05-13.26C58.12,64,57.72,63.96,57.35,63.92z"/>
		<path class="st7" d="M62.77,58.85l-5.39,5.03c-6.26,5.43-12.63,10-16.13,17.38c-0.07,0.4-0.14,0.85-0.21,1.33
			c0.86-1.81,2.14-3.65,3.69-5.48c3.83-4.56,9.28-9.08,13.82-13.06l0,0l0.21-0.19l0.01-0.01l0,0c3.65-3.21,6.65-6.04,7.65-8.23
			c0.29-0.62,0.55-4.39,0.61-5.28c-12.62-5.08-13.22,6.98-21.21,8.35c0.22,6.26-1.58,7.67-5.88,13.09c1.3,6.49,1.28,5.82,0.04,13.21
			c0.2-0.73,0.48-1.46,0.83-2.2c0.9-5.6,0.91-5.18-0.21-10.73c4.04-4.97,5.71-5.99,5.81-12.86c3.01-0.59,3.88-1.29,6.11-3.65
			c3.07-3.24,5.56-6.37,11.06-5.17c0.59,0.13,2.06,0.64,2.69,0.86C66.09,55.61,66.37,55.47,62.77,58.85z"/>
		<path class="st8" d="M30.61,94.23c0.99,3.13,1.67,5.62,3.31,8.49c0.01-0.49,0.07-0.64-0.09-0.97
			C31.48,96.86,33.23,95.16,30.61,94.23z"/>
		<path class="st9" d="M67.03,50.35c15.32-10.57,41.87-20.6,37.06,10.15c2.14-2.34,1.97-3.88,8.12-5.89l13.61-2.84V5.35
			c-8.64,2.21-79.5,19.67-82.45,21.95c-2.29,1.77-14.11,31.85-14.72,34.02c-3.6,12.76-1.37,19.62,1.52,31.17
			c0.15,0.59,0.29,1.17,0.43,1.74c2.63,0.93,0.88,2.63,3.22,7.51c0.16,0.33,0.1,0.48,0.09,0.97c1.18,1.21,2.76,1.49,5.09,0.33
			c2.97-4.31,1.9-7.86,1.2-12.73c-0.71-1.7-0.73-3.49-0.23-5.32c1.25-7.39,1.26-6.72-0.04-13.21c4.3-5.42,6.11-6.83,5.88-13.09
			C53.81,57.33,54.42,45.27,67.03,50.35z"/>
	</g>
	<g>
		<path class="st10" d="M14.77,18.58l4.7-1.85l-1.63-4.15c-0.33-0.85-1.66-1.13-2.95-0.62c-1.29,0.51-2.08,1.62-1.75,2.46
			L14.77,18.58z"/>
		<polygon class="st11" points="19.47,16.73 14.77,18.58 12.73,19.38 15.52,29.61 26.42,25.33 21.5,15.93 		"/>
		
			<rect x="15.75" y="27.35" transform="matrix(0.9309 -0.3654 0.3654 0.9309 -9.1313 9.9041)" class="st10" width="11.71" height="3.45"/>
		<polygon class="st11" points="27.68,28.55 16.79,32.82 19.46,39.64 43.55,101 54.45,96.73 		"/>
		
			<rect x="43.78" y="98.75" transform="matrix(0.9308 -0.3654 0.3654 0.9308 -33.2809 25.0829)" class="st10" width="11.71" height="3.45"/>
		<polygon class="st11" points="55.71,99.94 44.81,104.22 49.73,113.62 58.5,110.17 		"/>
		<polygon class="st10" points="57.74,124.74 58.97,124.26 60.2,123.78 58.5,110.17 49.73,113.62 		"/>
		<path class="st11" d="M60.2,123.78l-1.23,0.48l-1.23,0.48c0.4,1.03,1.28,1.65,1.96,1.38C60.38,125.86,60.6,124.81,60.2,123.78z"/>
	</g>
	<polygon class="st0" points="146.54,1.95 125.82,1.95 125.82,15.08 125.82,51.94 125.82,54.31 146.54,54.31 	"/>
	<rect x="146.54" class="st11" width="55.82" height="56.26"/>
	<g>
		<path class="st9" d="M104.09,60.5c4.81-30.76-21.74-20.72-37.06-10.15c-0.06,0.89-0.32,4.66-0.61,5.28
			c-1.03,2.23-4.13,5.14-7.88,8.43c-4.59,4.03-10.15,8.63-14.05,13.26c-1.54,1.83-2.83,3.67-3.69,5.48
			c-0.35,0.74-0.63,1.47-0.83,2.2c-0.5,1.83-0.48,3.62,0.23,5.32c0.34,0.82,0.85,1.62,1.53,2.4c1.45,1.65,3.44,1.91,5.61,1.37
			c1.88-0.47,3.91-1.53,5.85-2.79c3.16-2.06,6.09-4.64,7.82-6.04C81.85,64.85,87.68,78.4,104.09,60.5L104.09,60.5z M45.06,81.98
			c1.84,2.44,4.1,5.18,5.78,7.63c0.62,1.64-6.56,6.81-9.61,1.24c-2.15-3.87-0.29-6.46,1.73-9.12
			C43.74,80.72,44.23,80.88,45.06,81.98z"/>
		<path class="st8" d="M41.23,90.86c3.05,5.57,10.24,0.4,9.61-1.24c-1.68-2.46-3.94-5.19-5.78-7.63c-0.83-1.1-1.32-1.26-2.1-0.24
			C40.93,84.4,39.08,86.99,41.23,90.86z"/>
	</g>
	<g>
		
			<rect x="34.77" y="63.94" transform="matrix(0.7903 -0.6127 0.6127 0.7903 -66.6521 88.1805)" class="st0" width="121.49" height="155.06"/>
		<g>
			
				<rect x="96.85" y="183.39" transform="matrix(0.7903 -0.6127 0.6127 0.7903 -85.5304 118.6892)" class="st1" width="67.59" height="1.83"/>
			
				<rect x="95.54" y="182.86" transform="matrix(0.7903 -0.6127 0.6127 0.7903 -86.1943 115.6891)" class="st1" width="60.79" height="1.83"/>
			
				<rect x="95.22" y="185.25" transform="matrix(0.7903 -0.6127 0.6127 0.7903 -89.4299 110.9958)" class="st1" width="44.47" height="1.83"/>
		</g>
		<g>
			
				<rect x="84.42" y="170.05" transform="matrix(0.7903 -0.6127 0.6127 0.7903 -81.6744 103.2776)" class="st1" width="51.27" height="1.85"/>
			
				<rect x="84.68" y="167.45" transform="matrix(0.7903 -0.6127 0.6127 0.7903 -78.2396 108.1294)" class="st1" width="68.36" height="1.85"/>
			
				<rect x="89.82" y="179.13" transform="matrix(0.7903 -0.6127 0.6127 0.7903 -87.409 104.6937)" class="st1" width="38.87" height="1.85"/>
		</g>
		<g>
			
				<rect x="67.45" y="145.4" transform="matrix(0.7903 -0.6127 0.6127 0.7903 -68.4168 92.7125)" class="st1" width="67.59" height="1.83"/>
			
				<rect x="66.14" y="144.87" transform="matrix(0.7903 -0.6127 0.6127 0.7903 -69.0808 89.7121)" class="st1" width="60.78" height="1.83"/>
			
				<rect x="65.82" y="147.25" transform="matrix(0.7903 -0.6127 0.6127 0.7903 -72.3173 85.0214)" class="st1" width="44.47" height="1.83"/>
		</g>
		<g>
			
				<rect x="72.62" y="151.8" transform="matrix(0.7903 -0.6127 0.6127 0.7903 -71.0743 97.738)" class="st1" width="69.28" height="1.83"/>
			
				<rect x="75.38" y="156.55" transform="matrix(0.7903 -0.6127 0.6127 0.7903 -74.1387 98.2881)" class="st1" width="62.31" height="1.83"/>
			
				<rect x="79.16" y="164.29" transform="matrix(0.7903 -0.6127 0.6127 0.7903 -79.8392 97.1026)" class="st1" width="45.59" height="1.83"/>
		</g>
		
			<rect x="91.65" y="187.71" transform="matrix(0.7903 -0.6127 0.6127 0.7903 -87.9675 119.314)" class="st2" width="77.37" height="0.93"/>
		<path class="st2" d="M94.67,212.13l6.6-5.12l-4.69-6.05l-6.6,5.12L94.67,212.13L94.67,212.13z M100.2,206.92l-5.34,4.14l-3.8-4.9
			l5.34-4.14L100.2,206.92z"/>
		
			<rect x="92.25" y="203.45" transform="matrix(0.7903 -0.6127 0.6127 0.7903 -106.4997 101.9016)" class="st3" width="6.76" height="6.2"/>
		
			<rect x="81.87" y="175.1" transform="matrix(0.7903 -0.6127 0.6127 0.7903 -82.2879 110.674)" class="st2" width="77.37" height="0.93"/>
		<path class="st2" d="M84.89,199.51l6.6-5.12l-4.69-6.05l-6.6,5.12L84.89,199.51L84.89,199.51z M90.42,194.31l-5.34,4.14l-3.8-4.9
			l5.34-4.14L90.42,194.31z"/>
		
			<rect x="82.47" y="190.83" transform="matrix(0.7902 -0.6128 0.6128 0.7902 -100.8324 93.2855)" class="st0" width="6.76" height="6.2"/>
		
			<rect x="72.09" y="162.48" transform="matrix(0.7903 -0.6127 0.6127 0.7903 -76.6084 102.0346)" class="st2" width="77.37" height="0.93"/>
		<path class="st2" d="M75.11,186.9l6.6-5.12l-4.69-6.05l-6.6,5.12L75.11,186.9L75.11,186.9z M80.64,181.69l-5.34,4.14l-3.8-4.9
			l5.34-4.14L80.64,181.69z"/>
		
			<rect x="72.69" y="178.21" transform="matrix(0.7903 -0.6127 0.6127 0.7903 -95.1416 84.6259)" class="st0" width="6.76" height="6.2"/>
		
			<rect x="62.31" y="149.87" transform="matrix(0.7903 -0.6127 0.6127 0.7903 -70.9302 93.399)" class="st2" width="77.37" height="0.93"/>
		<path class="st2" d="M65.33,174.28l6.6-5.12l-4.69-6.05l-6.6,5.12L65.33,174.28L65.33,174.28z M70.86,169.08l-5.35,4.14l-3.8-4.9
			l5.35-4.14L70.86,169.08z"/>
		
			<rect x="62.9" y="165.6" transform="matrix(0.7904 -0.6126 0.6126 0.7904 -89.4532 75.9719)" class="st0" width="6.76" height="6.2"/>
		
			<rect x="52.53" y="137.25" transform="matrix(0.7903 -0.6127 0.6127 0.7903 -65.2507 84.76)" class="st2" width="77.37" height="0.93"/>
		<path class="st2" d="M62.15,156.55l-4.69-6.05l-6.6,5.12l4.69,6.05L62.15,156.55L62.15,156.55z M61.08,156.46l-5.35,4.14l-3.8-4.9
			l5.35-4.14L61.08,156.46z"/>
		
			<rect x="53.12" y="152.98" transform="matrix(0.7903 -0.6127 0.6127 0.7903 -83.7861 67.3539)" class="st0" width="6.76" height="6.2"/>
		
			<rect x="42.75" y="124.63" transform="matrix(0.7903 -0.6127 0.6127 0.7903 -59.5717 76.1226)" class="st2" width="77.37" height="0.93"/>
		<path class="st2" d="M45.77,149.05l6.6-5.12l-4.69-6.05l-6.6,5.12L45.77,149.05L45.77,149.05z M51.3,143.84l-5.34,4.14l-3.8-4.9
			l5.35-4.14L51.3,143.84z"/>
		
			<rect x="43.34" y="140.37" transform="matrix(0.7902 -0.6128 0.6128 0.7902 -78.1133 58.7248)" class="st0" width="6.76" height="6.2"/>
		
			<rect x="32.97" y="112.02" transform="matrix(0.7903 -0.6127 0.6127 0.7903 -53.8927 67.4851)" class="st2" width="77.37" height="0.93"/>
		<path class="st2" d="M42.59,131.32l-4.69-6.05l-6.6,5.12l4.69,6.05L42.59,131.32L42.59,131.32z M41.52,131.23l-5.34,4.14l-3.8-4.9
			l5.35-4.14L41.52,131.23z"/>
		
			<rect x="33.56" y="127.75" transform="matrix(0.7904 -0.6126 0.6126 0.7904 -72.4175 50.0632)" class="st0" width="6.76" height="6.2"/>
		<path class="st4" d="M91.74,207.55c-0.55-0.23-0.81-0.86-0.59-1.41c0.23-0.55,0.85-0.81,1.4-0.59l3.01,1.23l1.08-8.52
			c0.08-0.59,0.62-1.01,1.21-0.94c0.59,0.08,1.01,0.62,0.94,1.21l-1.25,9.92l0,0c-0.01,0.09-0.04,0.18-0.07,0.27
			c-0.23,0.55-0.85,0.81-1.4,0.59L91.74,207.55z"/>
		
			<rect x="11.15" y="89.09" transform="matrix(0.7903 -0.6127 0.6127 0.7903 -45.402 54.259)" class="st5" width="90.85" height="8.74"/>
		<g>
			
				<rect x="34.17" y="102.45" transform="matrix(0.7903 -0.6127 0.6127 0.7903 -49.0804 63.312)" class="st1" width="67.59" height="1.83"/>
			
				<rect x="36.91" y="107.15" transform="matrix(0.7903 -0.6127 0.6127 0.7903 -52.0987 63.8935)" class="st1" width="60.79" height="1.83"/>
			
				<rect x="40.64" y="114.76" transform="matrix(0.7903 -0.6127 0.6127 0.7903 -57.6883 62.7795)" class="st1" width="44.47" height="1.83"/>
		</g>
		<g>
			
				<rect x="45.51" y="119.96" transform="matrix(0.7903 -0.6127 0.6127 0.7903 -59.1431 68.9352)" class="st1" width="51.27" height="1.85"/>
			
				<rect x="45.77" y="117.36" transform="matrix(0.7903 -0.6127 0.6127 0.7903 -55.708 73.7863)" class="st1" width="68.36" height="1.85"/>
			
				<rect x="50.91" y="129.04" transform="matrix(0.7903 -0.6127 0.6127 0.7903 -64.8773 70.3497)" class="st1" width="38.87" height="1.85"/>
		</g>
		<g>
			
				<rect x="55.1" y="132.22" transform="matrix(0.7903 -0.6127 0.6127 0.7903 -64.6509 77.3803)" class="st1" width="51.27" height="1.85"/>
			
				<rect x="55.35" y="129.63" transform="matrix(0.7903 -0.6127 0.6127 0.7903 -61.2154 82.2303)" class="st1" width="68.36" height="1.85"/>
			
				<rect x="60.5" y="141.31" transform="matrix(0.7903 -0.6127 0.6127 0.7903 -70.3842 78.793)" class="st1" width="38.87" height="1.85"/>
		</g>
		<path class="st4" d="M89.13,190.43c0.42-0.33,1.03-0.25,1.36,0.17c0.33,0.42,0.25,1.03-0.17,1.36c-1.29,1-2.7,2-4.1,2.99
			c-1.34,0.95-2.68,1.9-4.08,2.99c-0.42,0.33-1.03,0.25-1.36-0.17c-0.33-0.42-0.25-1.03,0.17-1.36c1.32-1.02,2.73-2.03,4.15-3.03
			C86.42,192.44,87.75,191.5,89.13,190.43z"/>
		<path class="st4" d="M71.41,181.38c-0.55-0.23-0.81-0.86-0.59-1.41c0.23-0.55,0.85-0.81,1.4-0.59l3.01,1.23l1.08-8.52
			c0.08-0.59,0.62-1.01,1.21-0.94c0.59,0.08,1.01,0.62,0.94,1.21l-1.25,9.92l0,0c-0.01,0.09-0.04,0.18-0.07,0.27
			c-0.23,0.55-0.85,0.81-1.4,0.59L71.41,181.38z"/>
		<path class="st4" d="M62.12,169.58c-0.55-0.23-0.81-0.85-0.59-1.4c0.23-0.55,0.85-0.81,1.4-0.59l3.01,1.23l1.08-8.52
			c0.08-0.59,0.62-1.01,1.21-0.94c0.59,0.08,1.01,0.62,0.94,1.21l-1.25,9.92l0,0c-0.01,0.09-0.04,0.18-0.07,0.27
			c-0.23,0.55-0.85,0.81-1.4,0.59L62.12,169.58z"/>
		<path class="st4" d="M42.32,143.99c-0.55-0.23-0.81-0.85-0.59-1.4c0.23-0.55,0.85-0.81,1.4-0.59l3.01,1.23l1.08-8.52
			c0.08-0.59,0.62-1.01,1.21-0.94c0.59,0.08,1.01,0.62,0.94,1.21l-1.26,9.92l0,0c-0.01,0.09-0.04,0.18-0.07,0.27
			c-0.23,0.55-0.85,0.81-1.4,0.59L42.32,143.99z"/>
		<path class="st4" d="M33.11,131.61c-0.55-0.23-0.81-0.85-0.59-1.4c0.23-0.55,0.85-0.81,1.4-0.59l3.01,1.23l1.08-8.52
			c0.08-0.59,0.62-1.01,1.21-0.94c0.59,0.08,1.01,0.62,0.94,1.21l-1.26,9.92h0c-0.01,0.09-0.04,0.18-0.07,0.27
			c-0.23,0.55-0.86,0.81-1.41,0.59L33.11,131.61z"/>
		<path class="st4" d="M60,152.33c0.42-0.33,1.03-0.25,1.36,0.17c0.33,0.42,0.25,1.03-0.17,1.36c-1.29,1-2.7,2-4.1,2.99
			c-1.34,0.95-2.68,1.9-4.08,2.99c-0.42,0.33-1.03,0.25-1.36-0.17c-0.33-0.42-0.25-1.03,0.17-1.36c1.32-1.02,2.73-2.02,4.15-3.03
			C57.3,154.33,58.63,153.39,60,152.33z"/>
	</g>
	<g>
		<path class="st6" d="M55.9,100.24c6.05-0.88,5.38-8.55,5.16-13.67c-2.51,2.05-4.28,3.41-6.94,5.28
			C54.98,94.48,55.61,97.48,55.9,100.24z"/>
		<path class="st7" d="M55.9,100.24c-0.29-2.76-0.92-5.76-1.78-8.39c2.65-1.87,4.42-3.23,6.94-5.28c-0.02-0.46-0.04-0.9-0.04-1.31
			c-1.73,1.39-4.66,3.98-7.82,6.04c0.06,0.24,0.14,0.55,0.25,0.93c0.62,2.29,1.84,6.74,1.82,8.07
			C55.48,100.29,55.69,100.27,55.9,100.24z"/>
		<path class="st6" d="M55.25,100.3c0.02-1.34-1.2-5.78-1.82-8.07c-1.78,1.07-3.09,1.83-5.1,2.46c1.87,5.26,1.47,8.37-0.84,12.87
			c2.61,2.2,6.11-0.1,7.05-4.01L55.25,100.3z"/>
		<path class="st7" d="M47.5,107.56c2.32-4.5,2.71-7.61,0.84-12.87c2.01-0.63,3.32-1.39,5.1-2.46c-0.1-0.37-0.19-0.69-0.25-0.93
			c-1.94,1.26-3.96,2.32-5.85,2.79c0.1,0.28,0.19,0.56,0.28,0.83c1.45,4.43,1.53,7.69-0.6,12.19
			C47.18,107.28,47.34,107.43,47.5,107.56z"/>
		<path class="st6" d="M47.03,107.11c2.13-4.49,2.05-7.75,0.6-12.19c-2.38,0.52-4.62,0.48-6.06-1.37c0.35,3.86,0.36,6.96-2.33,10.28
			C40.49,107.82,43.2,111.58,47.03,107.11z"/>
		<path class="st7" d="M39.23,103.83c2.69-3.32,2.68-6.42,2.33-10.28c1.44,1.86,3.68,1.89,6.06,1.37c-0.09-0.27-0.18-0.55-0.28-0.83
			c-2.17,0.54-4.16,0.28-5.61-1.37c-0.68-0.78-1.19-1.58-1.53-2.4c0.7,4.87,1.77,8.42-1.2,12.73
			C39.08,103.31,39.15,103.57,39.23,103.83z"/>
		<path class="st6" d="M57.35,63.92l5.42-5.07c3.6-3.37,3.32-3.23,3.5-7.61c-0.63-0.22-2.1-0.73-2.69-0.86
			c-5.5-1.19-7.99,1.93-11.06,5.17c-2.23,2.36-3.1,3.06-6.11,3.65c-0.1,6.87-1.77,7.89-5.81,12.86c1.12,5.55,1.11,5.13,0.21,10.73
			c0.86-1.81,2.14-3.65,3.69-5.48c3.9-4.63,9.46-9.23,14.05-13.26C58.12,64,57.72,63.96,57.35,63.92z"/>
		<path class="st7" d="M62.77,58.85l-5.39,5.03c-6.26,5.43-12.63,10-16.13,17.39c-0.06,0.4-0.14,0.85-0.21,1.33
			c0.86-1.81,2.14-3.65,3.69-5.48c3.83-4.56,9.28-9.08,13.82-13.06h0l0.21-0.19l0.01-0.01l0,0c3.65-3.21,6.65-6.04,7.65-8.23
			c0.29-0.62,0.55-4.39,0.61-5.28c-12.62-5.08-13.22,6.98-21.21,8.35c0.22,6.26-1.58,7.67-5.89,13.09c1.3,6.49,1.29,5.82,0.04,13.21
			c0.2-0.73,0.48-1.46,0.83-2.2c0.9-5.6,0.91-5.18-0.21-10.73c4.04-4.97,5.7-5.99,5.81-12.86c3.01-0.59,3.88-1.29,6.11-3.65
			c3.07-3.24,5.56-6.37,11.06-5.17c0.59,0.13,2.06,0.64,2.69,0.86C66.09,55.61,66.37,55.47,62.77,58.85z"/>
		<path class="st8" d="M30.61,94.23c0.99,3.13,1.67,5.62,3.31,8.49c0.01-0.49,0.07-0.64-0.09-0.97
			C31.48,96.86,33.23,95.16,30.61,94.23z"/>
		<path class="st9" d="M67.03,50.35c15.32-10.57,41.87-20.6,37.06,10.15c2.14-2.34,1.97-3.88,8.12-5.89l13.61-2.84V5.35
			c-8.64,2.21-79.5,19.67-82.45,21.95c-2.29,1.77-14.11,31.85-14.72,34.02c-3.6,12.76-1.37,19.62,1.52,31.17
			c0.15,0.59,0.29,1.17,0.43,1.74c2.63,0.93,0.88,2.63,3.22,7.51c0.16,0.33,0.1,0.48,0.09,0.97c1.18,1.21,2.76,1.49,5.09,0.33
			c2.97-4.31,1.9-7.86,1.2-12.73c-0.71-1.7-0.73-3.49-0.23-5.32c1.25-7.39,1.26-6.72-0.04-13.21c4.3-5.42,6.11-6.83,5.89-13.09
			C53.81,57.33,54.42,45.27,67.03,50.35z"/>
	</g>
	<g>
		<path class="st10" d="M14.77,18.58l4.7-1.85l-1.63-4.15c-0.33-0.85-1.66-1.13-2.96-0.62c-1.29,0.51-2.08,1.62-1.75,2.46
			L14.77,18.58z"/>
		<polygon class="st11" points="19.47,16.73 14.77,18.58 12.73,19.38 15.52,29.61 26.42,25.33 21.5,15.93 		"/>
		
			<rect x="15.75" y="27.35" transform="matrix(0.9309 -0.3654 0.3654 0.9309 -9.1312 9.9041)" class="st10" width="11.71" height="3.45"/>
		<polygon class="st11" points="27.68,28.55 16.79,32.82 19.46,39.64 43.55,101 54.45,96.73 		"/>
		
			<rect x="43.78" y="98.75" transform="matrix(0.9308 -0.3654 0.3654 0.9308 -33.281 25.0829)" class="st10" width="11.71" height="3.45"/>
		<polygon class="st11" points="55.71,99.94 44.81,104.22 49.73,113.62 58.5,110.17 		"/>
		<polygon class="st10" points="57.74,124.74 58.97,124.26 60.2,123.78 58.5,110.17 49.73,113.62 		"/>
		<path class="st11" d="M60.2,123.78l-1.23,0.48l-1.23,0.48c0.4,1.03,1.28,1.65,1.96,1.38C60.38,125.86,60.6,124.81,60.2,123.78z"/>
	</g>
	<polygon class="st0" points="146.54,1.95 125.82,1.95 125.82,15.08 125.82,51.94 125.82,54.31 146.54,54.31 	"/>
	<rect x="146.54" class="st11" width="55.82" height="56.26"/>
	<g>
		<path class="st9" d="M104.09,60.5c4.81-30.76-21.74-20.72-37.06-10.15c-0.06,0.89-0.32,4.66-0.61,5.28
			c-1.03,2.23-4.13,5.14-7.88,8.43c-4.59,4.03-10.15,8.63-14.05,13.26c-1.54,1.83-2.83,3.67-3.69,5.48
			c-0.35,0.74-0.63,1.47-0.83,2.2c-0.5,1.83-0.48,3.62,0.23,5.32c0.34,0.82,0.85,1.62,1.53,2.4c1.45,1.65,3.44,1.91,5.61,1.37
			c1.88-0.47,3.91-1.53,5.85-2.79c3.16-2.06,6.09-4.64,7.82-6.04C81.85,64.85,87.68,78.4,104.09,60.5L104.09,60.5z M45.06,81.98
			c1.84,2.44,4.1,5.18,5.78,7.63c0.62,1.64-6.56,6.81-9.61,1.24c-2.15-3.87-0.29-6.46,1.73-9.12
			C43.74,80.72,44.23,80.88,45.06,81.98z"/>
		<path class="st8" d="M41.23,90.86c3.05,5.57,10.24,0.4,9.61-1.24c-1.68-2.46-3.94-5.19-5.78-7.63c-0.83-1.1-1.32-1.26-2.1-0.24
			C40.93,84.4,39.08,86.99,41.23,90.86z"/>
	</g>
</g>
</svg>
