<?xml version="1.0" encoding="utf-8"?>
<!-- Generator: Adobe Illustrator 23.0.1, SVG Export Plug-In . SVG Version: 6.00 Build 0)  -->
<svg version="1.1" id="Layer_1" xmlns="http://www.w3.org/2000/svg" xmlns:xlink="http://www.w3.org/1999/xlink" x="0px" y="0px"
	 viewBox="0 0 454.94 548.9" style="enable-background:new 0 0 454.94 548.9;" xml:space="preserve">
<style type="text/css">
	.st0{fill-rule:evenodd;clip-rule:evenodd;fill:#CCCCCC;}
	.st1{fill-rule:evenodd;clip-rule:evenodd;fill:#EDEDED;}
	.st2{fill-rule:evenodd;clip-rule:evenodd;fill:#808080;}
	.st3{fill-rule:evenodd;clip-rule:evenodd;fill:#AFB1B4;}
	.st4{fill-rule:evenodd;clip-rule:evenodd;fill:#4D4D4D;}
	.st5{fill-rule:evenodd;clip-rule:evenodd;fill:#B5B3B3;}
	.st6{fill-rule:evenodd;clip-rule:evenodd;fill:#D9D9D9;}
	.st7{fill-rule:evenodd;clip-rule:evenodd;fill:#5E5C5C;}
	.st8{fill-rule:evenodd;clip-rule:evenodd;fill:#96999E;}
	.st9{fill-rule:evenodd;clip-rule:evenodd;fill:#383737;}
	.st10{fill-rule:evenodd;clip-rule:evenodd;fill:#979899;}
	.st11{fill-rule:evenodd;clip-rule:evenodd;fill:#424141;}
</style>
<g>
	<path class="st0" d="M452.77,53.82l-38.08,63.54l-52.59,58.29l17.37,16.66l-9.1,14.94l-18.38,17.39l-32.97,53.82l12.94,183.32
		c-8.43,15.54-38.4,16.14-43.7,16.35l-35.19-48.1l-40.23-39.4l-19.32,15.06l-0.23,29.99l5.94-3.43l-0.76,56.28
		c0.84,18.32-13.73,18.89-29.85,17.66l-32.33-50.24l-5.24,1.64l12.8-38.99c0,0-5.59,2.14-3.46,3.11
		c2.13,0.96-21.72-20.99-21.72-20.99l-0.28-3.71l-3.53-3.51L452.77,53.82z"/>
	<path class="st1" d="M452.77,53.82l-35.75,59.65c-1.93,2.62-3.89,5.22-5.88,7.82l-49.04,54.36l0.86,0.83
		c-49.76,50.77-99.28,84.95-100.08,68.19L452.77,53.82z"/>
	<path class="st1" d="M143.66,364.51c-0.97-0.96,4.16,5.38,4.16,5.38l-29.3,28.95l-0.14-1.86l-2.93-2.91L143.66,364.51z"/>
	<path class="st1" d="M150.53,370.41l14.39-18.09l31.12-28.55c40.03-31.53,64.15-20.93,24.57,25.38l-41.21,42.5l-22.21-23.04
		L150.53,370.41z"/>
	<polygon class="st2" points="179.39,391.65 171.18,400.62 140.37,421.69 118.65,400.7 118.37,396.99 147.81,369.89 150.53,370.41 
		157.18,368.61 	"/>
	<polygon class="st0" points="142.59,375.05 168.43,402.5 140.37,421.69 118.65,400.7 119.3,396.14 	"/>
	<path class="st3" d="M384.94,122l-77.43,77.83l5.11,4.31l-1.48,3.67l1.18,1.17l3.54-4.11c5.42,3.88,25.51-16.38,44.25-35.27
		c13.67-13.78,27.63-25.98,29.7-31.79C392.03,131.57,390.16,127,384.94,122z"/>
	<path class="st4" d="M337.66,169.52l7.69,10.92c0,0-8.75,8.07-12.8,11.95c-13.18,12.63-21.19,4.86-21.83,4.22L337.66,169.52z"/>
	<path class="st4" d="M339.52,167.65c3.62,3.39,6.76,7.25,7.99,10.6l25.77-26.08c-1.65-3.4-4.42-6.68-8.21-10.2L339.52,167.65z"/>
	<path class="st4" d="M383.42,123.53l-15.57,15.66c4.61,4.07,6.55,6.88,8,10.14C379.19,146.07,396.47,135.17,383.42,123.53z"/>
	<polygon class="st3" points="362.1,175.65 319.73,219.56 338.61,237.6 370.37,207.25 379.47,192.31 	"/>
	<path class="st0" d="M243.79,330.59L172.2,399.5c9.56-7.04,20.81-15.63,32.15-17.64l2.09,2.83l-27.47,30.51l14.52-9.52l19.32-15.06
		L243.79,330.59z"/>
	<polygon class="st4" points="136.28,455.93 178.99,415.2 206.45,384.69 205.4,383.28 167.74,419.71 145.22,439.44 	"/>
	<polygon class="st1" points="145.22,439.44 160.78,416.28 180.27,393.63 169.8,401.56 143.52,419.53 131.04,457.57 136.28,455.93 	
		"/>
	<polygon class="st2" points="180.28,413.76 189.42,491.15 166.02,502.14 137.09,457.19 	"/>
	<path class="st2" d="M137.46,380.12l24.8,26.6l-21.89,14.97l-21.72-20.99l0.64-4.56C119.3,396.14,137.69,380.36,137.46,380.12z"/>
	<polygon class="st2" points="212.83,390.62 215.98,384.5 230.9,370.88 272.13,410.15 296.82,459.65 284.37,472.83 253.06,430.02 	
		"/>
	<path class="st1" d="M285.89,474.9l38.46-37.72l-14.94-148.73c-23.75,21.15-43.75,28.09-65.62,42.13l-25.26,48.98l12.37-8.69
		l41.23,39.27l24.7,49.5l-12.45,13.17L285.89,474.9z"/>
	<polygon class="st0" points="451.49,55.96 414.69,117.36 410.09,122.45 397.22,109.65 451.07,55.54 	"/>
	<path class="st4" d="M451.49,55.96l-34.47,57.51c-1.93,2.62-3.89,5.22-5.88,7.82l-1.05,1.16l-12.87-12.8l53.84-54.12L451.49,55.96z
		"/>
	<path class="st5" d="M452.78,53.83l-63.34,38.41l-58.03,52.89l-16.75-17.28l-14.9,9.17l-17.29,18.47l-53.65,33.25L45.45,176.72
		c-15.5,8.51-15.95,38.48-16.13,43.79l48.27,34.94l39.61,40.03l-14.96,19.4l-29.99,0.39l3.4-5.96l-56.27,1.04
		C1.06,309.6,0.57,324.17,1.87,340.28l50.41,32.08l-1.61,5.25l38.93-13c0,0-2.12,5.6-3.09,3.48c-0.97-2.12,21.1,21.62,21.1,21.62
		l3.71,0.26l3.53,3.51L452.78,53.83z"/>
	<path class="st6" d="M452.78,53.83l-59.47,36.06c-2.61,1.94-5.2,3.91-7.79,5.92l-54.11,49.31l-0.83-0.86
		c-50.51,50.02-84.44,99.71-67.68,100.42L452.78,53.83z"/>
	<path class="st1" d="M143.66,364.52c0.97,0.96-5.4-4.13-5.4-4.13l-28.8,29.45l1.86,0.13l2.93,2.91L143.66,364.52z"/>
	<path class="st6" d="M137.73,357.68l18.02-14.48l28.4-31.26c31.32-40.19,20.6-64.26-25.51-24.44l-42.29,41.43l23.15,22.1
		L137.73,357.68z"/>
	<polygon class="st7" points="116.34,328.92 107.42,337.18 86.51,368.09 107.6,389.71 111.31,389.97 138.26,360.39 137.73,357.68 
		139.49,351.02 	"/>
	<polygon class="st0" points="133.13,365.64 105.55,339.93 86.51,368.09 107.6,389.71 112.16,389.04 	"/>
	<path class="st8" d="M384.95,122l-77.43,77.83l-4.33-5.09l-3.66,1.5l-1.18-1.17l4.09-3.57c-3.91-5.4,16.25-25.59,35.05-44.43
		c13.71-13.74,25.84-27.76,31.64-29.86C375.34,114.97,379.89,117.11,384.95,122z"/>
	<path class="st9" d="M337.66,169.53l-10.96-7.63c0,0-8.02,8.79-11.89,12.86c-12.56,13.24-4.75,21.22-4.1,21.86L337.66,169.53z"/>
	<path class="st9" d="M339.53,167.65c-3.41-3.6-7.29-6.73-10.64-7.94l25.95-25.91c3.41,1.63,6.7,4.38,10.24,8.16L339.53,167.65z"/>
	<path class="st9" d="M383.42,123.54l-15.58,15.66c-4.1-4.59-6.92-6.52-10.19-7.96C360.9,127.88,371.72,110.54,383.42,123.54z"/>
	<polygon class="st10" points="331.41,145.12 287.72,187.71 269.58,168.92 299.77,137.01 314.67,127.83 	"/>
	<path class="st0" d="M177.07,264.21l-68.55,71.94c6.99-9.59,15.52-20.89,17.48-32.24l-2.84-2.08L92.8,329.45l9.45-14.57l14.96-19.4
		L177.07,264.21z"/>
	<polygon class="st11" points="52.28,372.36 92.8,329.45 123.16,301.83 124.59,302.87 88.34,340.72 68.73,363.34 	"/>
	<polygon class="st6" points="68.73,363.34 91.81,347.66 114.36,328.05 106.48,338.56 88.64,364.93 50.67,377.61 52.28,372.36 	"/>
	<polygon class="st7" points="94.23,328.14 16.8,319.39 5.92,342.85 51.02,371.56 	"/>
	<path class="st7" d="M128.09,370.79l-26.72-24.67l-14.86,21.97l21.1,21.62l4.56-0.67C112.16,389.04,127.85,370.57,128.09,370.79z"
		/>
	<polygon class="st7" points="117.2,295.48 123.3,292.29 136.85,277.31 97.37,236.28 47.74,211.84 34.63,224.35 77.6,255.45 	"/>
	<path class="st6" d="M32.55,222.84l37.52-38.65l148.8,14.19c-21.03,23.86-27.86,43.89-41.8,65.83l-48.85,25.51l8.63-12.42
		l-39.48-41.03l-49.63-24.44l-13.11,12.52L32.55,222.84z"/>
	<polygon class="st0" points="450.65,55.12 389.44,92.23 384.36,96.86 397.23,109.66 451.07,55.54 	"/>
	<path class="st4" d="M450.65,55.12l-57.34,34.77c-2.61,1.94-5.2,3.91-7.79,5.92l-1.16,1.05l12.87,12.8l53.84-54.12L450.65,55.12z"
		/>
</g>
</svg>
