<?xml version="1.0" encoding="utf-8"?>
<!-- Generator: Adobe Illustrator 23.0.1, SVG Export Plug-In . SVG Version: 6.00 Build 0)  -->
<svg version="1.1" id="栝鍣_1" xmlns="http://www.w3.org/2000/svg" xmlns:xlink="http://www.w3.org/1999/xlink" x="0px" y="0px"
	 viewBox="0 0 193.73 170.6" style="enable-background:new 0 0 193.73 170.6;" xml:space="preserve">
<style type="text/css">
	.st0{fill-rule:evenodd;clip-rule:evenodd;fill:#FFFFFF;}
	.st1{fill-rule:evenodd;clip-rule:evenodd;fill:#B3D2E7;}
	.st2{fill-rule:evenodd;clip-rule:evenodd;fill:#BCC751;}
	.st3{fill-rule:evenodd;clip-rule:evenodd;fill:#DC735E;}
	.st4{fill-rule:evenodd;clip-rule:evenodd;fill:#333333;}
	.st5{fill:#FF0000;}
	.st6{fill:#669999;}
	.st7{fill:#333333;}
	.st8{fill-rule:evenodd;clip-rule:evenodd;fill:#E5E5E5;}
	.st9{fill-rule:evenodd;clip-rule:evenodd;fill:#C96064;}
</style>
<g>
	<polygon class="st0" points="193.73,66.3 147.25,170.6 0,106.02 0,95.54 42.57,0 	"/>
	<g>
		<polygon class="st1" points="120.47,52.79 148.82,65.23 150.27,61.96 121.92,49.53 		"/>
		<polygon class="st1" points="149.3,67.97 119.53,54.91 118.07,58.17 147.85,71.23 		"/>
		<polygon class="st1" points="133.32,67.4 117.13,60.29 115.67,63.56 131.87,70.66 		"/>
		<polygon class="st1" points="122.29,75.43 112.33,71.06 110.87,74.32 120.83,78.69 		"/>
		<polygon class="st1" points="122.34,81.89 109.93,76.44 108.47,79.71 120.89,85.15 		"/>
		<polygon class="st1" points="110.89,83.3 107.53,81.83 106.08,85.09 109.43,86.56 		"/>
		<polygon class="st1" points="117.41,92.6 105.13,87.21 103.68,90.47 115.96,95.86 		"/>
		<polygon class="st2" points="120.5,100.38 102.73,92.59 101.28,95.86 119.04,103.65 		"/>
		<polygon class="st2" points="130.11,111.04 100.33,97.98 98.88,101.24 128.65,114.3 		"/>
		<polygon class="st2" points="122.76,114.25 97.93,103.36 96.48,106.62 121.3,117.51 		"/>
		<polygon class="st2" points="111.47,115.73 95.54,108.74 94.08,112.01 110.02,119 		"/>
		<polygon class="st2" points="102.64,118.29 93.14,114.13 91.68,117.39 101.18,121.56 		"/>
		<polygon class="st2" points="105.04,132.22 88.34,124.89 86.88,128.16 103.59,135.48 		"/>
		<polygon class="st3" points="121.72,145.97 85.94,130.28 84.49,133.54 120.27,149.23 		"/>
		<polygon class="st1" points="119.71,67.86 114.73,65.68 113.27,68.94 118.25,71.13 		"/>
		<polygon class="st2" points="95.49,121.59 90.74,119.51 89.28,122.77 94.03,124.86 		"/>
		<g>
			<path class="st4" d="M127.46,46.26l1.37,0.6l0.04-0.1c-0.05-0.05-0.09-0.12-0.12-0.21c-0.03-0.09-0.06-0.19-0.06-0.29l-0.16-0.07
				c0,0.06,0,0.12,0.02,0.2c0.01,0.08,0.03,0.14,0.05,0.19l-1.07-0.47L127.46,46.26z"/>
			<path class="st4" d="M127.96,46.94c-0.26-0.11-0.46-0.15-0.61-0.12c-0.12,0.03-0.21,0.1-0.27,0.22
				c-0.04,0.09-0.05,0.17-0.02,0.26c0.03,0.08,0.08,0.16,0.17,0.23c0.09,0.07,0.21,0.14,0.37,0.21c0.14,0.06,0.25,0.1,0.34,0.11
				c0.09,0.02,0.17,0.02,0.24,0.01c0.07-0.01,0.13-0.03,0.18-0.07c0.05-0.04,0.09-0.09,0.12-0.15c0.04-0.09,0.05-0.17,0.02-0.26
				c-0.03-0.08-0.08-0.16-0.17-0.23C128.25,47.08,128.12,47.01,127.96,46.94L127.96,46.94z M127.23,47.09
				c0.03-0.07,0.09-0.11,0.19-0.12c0.1-0.01,0.26,0.03,0.48,0.13c0.22,0.1,0.37,0.19,0.43,0.28c0.05,0.07,0.06,0.14,0.02,0.21
				c-0.03,0.07-0.09,0.11-0.19,0.13c-0.09,0.01-0.25-0.03-0.48-0.13c-0.22-0.1-0.36-0.19-0.42-0.27
				C127.21,47.24,127.19,47.16,127.23,47.09z"/>
			<path class="st4" d="M127.54,47.89c-0.26-0.11-0.46-0.15-0.61-0.12c-0.12,0.03-0.21,0.1-0.27,0.22
				c-0.04,0.09-0.05,0.17-0.02,0.26c0.03,0.08,0.08,0.16,0.17,0.23c0.09,0.07,0.21,0.14,0.37,0.21c0.14,0.06,0.25,0.1,0.34,0.11
				c0.09,0.02,0.17,0.02,0.24,0.01c0.07-0.01,0.13-0.03,0.18-0.07c0.05-0.04,0.09-0.09,0.12-0.15c0.04-0.09,0.05-0.17,0.02-0.26
				c-0.03-0.08-0.08-0.16-0.17-0.23C127.83,48.03,127.7,47.96,127.54,47.89L127.54,47.89z M126.84,48.27
				c-0.05-0.08-0.07-0.15-0.03-0.22c0.03-0.07,0.09-0.11,0.19-0.13c0.1-0.01,0.26,0.03,0.48,0.13c0.23,0.1,0.37,0.19,0.43,0.28
				c0.05,0.07,0.06,0.14,0.02,0.21c-0.03,0.07-0.09,0.11-0.19,0.13c-0.09,0.01-0.25-0.03-0.48-0.13
				C127.03,48.44,126.89,48.35,126.84,48.27z"/>
		</g>
		<g>
			<path class="st4" d="M134.45,48.65c-0.03-0.03-0.07-0.05-0.11-0.07l-0.36,0.81l0.16,0.07l0.27-0.6c0.02,0.03,0.04,0.06,0.06,0.1
				c0.02,0.04,0.05,0.12,0.09,0.25c0.05,0.15,0.1,0.26,0.14,0.34c0.04,0.07,0.08,0.13,0.12,0.17c0.04,0.04,0.09,0.08,0.15,0.1
				c0.11,0.05,0.21,0.05,0.32,0.02c0.1-0.04,0.18-0.11,0.23-0.23c0.05-0.12,0.06-0.22,0.02-0.32c-0.04-0.1-0.12-0.18-0.24-0.25
				l-0.09,0.15c0.09,0.04,0.14,0.09,0.17,0.16c0.03,0.06,0.03,0.13,0,0.21c-0.03,0.07-0.08,0.11-0.14,0.14
				c-0.06,0.02-0.13,0.02-0.2-0.01c-0.06-0.03-0.12-0.08-0.17-0.16c-0.05-0.08-0.11-0.21-0.17-0.4c-0.04-0.12-0.08-0.22-0.12-0.29
				C134.55,48.76,134.51,48.7,134.45,48.65z"/>
			<path class="st4" d="M133.98,49.72c-0.12,0.03-0.21,0.1-0.27,0.21c-0.04,0.09-0.05,0.18-0.02,0.26s0.08,0.16,0.17,0.23
				c0.09,0.07,0.21,0.14,0.37,0.21c0.14,0.06,0.25,0.1,0.34,0.11c0.09,0.02,0.17,0.02,0.24,0.01c0.07-0.01,0.13-0.03,0.18-0.07
				c0.05-0.04,0.09-0.09,0.12-0.15c0.04-0.09,0.05-0.17,0.02-0.26c-0.03-0.08-0.08-0.16-0.17-0.23c-0.08-0.07-0.21-0.14-0.37-0.22
				C134.33,49.74,134.13,49.69,133.98,49.72L133.98,49.72z M133.85,50c0.03-0.07,0.09-0.11,0.19-0.13c0.1-0.01,0.26,0.03,0.48,0.13
				c0.22,0.1,0.37,0.19,0.43,0.28c0.05,0.07,0.06,0.14,0.02,0.21c-0.03,0.07-0.09,0.11-0.19,0.13c-0.09,0.01-0.25-0.03-0.48-0.13
				c-0.22-0.1-0.36-0.19-0.42-0.27C133.83,50.14,133.82,50.07,133.85,50z"/>
			<path class="st4" d="M133.56,50.67c-0.12,0.03-0.21,0.1-0.27,0.22c-0.04,0.09-0.05,0.17-0.02,0.26c0.03,0.08,0.08,0.16,0.17,0.23
				c0.09,0.07,0.21,0.14,0.37,0.21c0.14,0.06,0.25,0.1,0.34,0.11c0.09,0.02,0.17,0.02,0.24,0.01c0.07-0.01,0.13-0.03,0.18-0.07
				c0.05-0.04,0.09-0.09,0.12-0.15c0.04-0.09,0.05-0.17,0.02-0.26c-0.03-0.08-0.08-0.16-0.17-0.23c-0.09-0.07-0.21-0.14-0.37-0.22
				C133.91,50.68,133.71,50.64,133.56,50.67L133.56,50.67z M133.43,50.95c0.03-0.07,0.09-0.11,0.19-0.13
				c0.1-0.01,0.26,0.03,0.48,0.13c0.23,0.1,0.37,0.19,0.43,0.28c0.05,0.07,0.06,0.14,0.02,0.21c-0.03,0.07-0.09,0.11-0.19,0.13
				c-0.1,0.01-0.26-0.03-0.48-0.13c-0.22-0.1-0.36-0.19-0.42-0.27C133.41,51.09,133.4,51.02,133.43,50.95z"/>
		</g>
		<g>
			<path class="st4" d="M140.99,51.67c-0.1,0.04-0.18,0.11-0.23,0.22c-0.05,0.12-0.06,0.24-0.01,0.35c0.05,0.11,0.13,0.2,0.25,0.25
				c0.09,0.04,0.17,0.05,0.25,0.04c0.08-0.01,0.14-0.05,0.19-0.12c0,0.07,0.02,0.13,0.06,0.18c0.04,0.05,0.08,0.09,0.14,0.11
				c0.06,0.03,0.13,0.04,0.2,0.03c0.07-0.01,0.13-0.03,0.19-0.07c0.06-0.04,0.1-0.1,0.13-0.16c0.04-0.1,0.05-0.19,0.02-0.28
				c-0.03-0.09-0.1-0.17-0.21-0.24l-0.1,0.14c0.08,0.05,0.13,0.1,0.15,0.16c0.02,0.06,0.02,0.11,0,0.17
				c-0.03,0.06-0.07,0.1-0.13,0.12c-0.06,0.02-0.12,0.02-0.18-0.01c-0.08-0.03-0.12-0.08-0.14-0.15c-0.01-0.07-0.01-0.13,0.02-0.2
				c0-0.01,0.01-0.01,0.01-0.02l-0.14-0.08c-0.01,0.05-0.02,0.09-0.03,0.11c-0.03,0.07-0.08,0.12-0.15,0.14
				c-0.07,0.02-0.14,0.02-0.22-0.02c-0.08-0.04-0.14-0.09-0.17-0.16c-0.03-0.07-0.03-0.14,0-0.21c0.03-0.06,0.07-0.1,0.13-0.12
				c0.06-0.02,0.14-0.02,0.25,0l0.04-0.16C141.21,51.63,141.09,51.63,140.99,51.67z"/>
			<path class="st4" d="M140.6,52.63c-0.12,0.03-0.21,0.1-0.27,0.22c-0.04,0.09-0.05,0.17-0.02,0.26c0.03,0.08,0.08,0.16,0.17,0.23
				c0.09,0.07,0.21,0.14,0.37,0.21c0.14,0.06,0.25,0.1,0.34,0.11c0.09,0.02,0.17,0.02,0.24,0.01c0.07-0.01,0.13-0.03,0.18-0.07
				c0.05-0.04,0.09-0.09,0.12-0.15c0.04-0.09,0.05-0.17,0.02-0.26c-0.03-0.08-0.08-0.16-0.17-0.23c-0.08-0.07-0.21-0.14-0.37-0.22
				C140.96,52.64,140.75,52.6,140.6,52.63L140.6,52.63z M140.48,52.91c0.03-0.07,0.09-0.11,0.19-0.13c0.1-0.01,0.26,0.03,0.48,0.13
				c0.22,0.1,0.37,0.19,0.43,0.28c0.05,0.07,0.06,0.14,0.02,0.21c-0.03,0.07-0.09,0.11-0.19,0.13c-0.09,0.01-0.26-0.03-0.48-0.13
				c-0.22-0.1-0.36-0.19-0.42-0.27C140.46,53.05,140.45,52.98,140.48,52.91z"/>
			<path class="st4" d="M140.18,53.58c-0.12,0.03-0.21,0.1-0.27,0.22c-0.04,0.09-0.05,0.17-0.02,0.26c0.03,0.08,0.08,0.16,0.17,0.23
				c0.09,0.07,0.21,0.14,0.37,0.21c0.14,0.06,0.25,0.1,0.34,0.11c0.09,0.02,0.17,0.02,0.24,0.01c0.07-0.01,0.13-0.03,0.18-0.07
				c0.05-0.04,0.09-0.09,0.12-0.15c0.04-0.09,0.05-0.17,0.02-0.26c-0.03-0.08-0.08-0.16-0.17-0.23c-0.08-0.07-0.21-0.15-0.37-0.22
				C140.53,53.59,140.33,53.55,140.18,53.58L140.18,53.58z M140.05,53.86c0.03-0.07,0.09-0.11,0.19-0.13
				c0.1-0.01,0.26,0.03,0.48,0.13c0.23,0.1,0.37,0.19,0.43,0.28c0.05,0.07,0.06,0.14,0.02,0.21c-0.03,0.07-0.09,0.11-0.19,0.13
				c-0.09,0.01-0.25-0.03-0.48-0.13c-0.22-0.1-0.36-0.19-0.42-0.27C140.04,54,140.02,53.93,140.05,53.86z"/>
		</g>
		<g>
			<path class="st4" d="M147.7,55.04l-0.33-0.14l-0.07,0.15l0.33,0.14l-0.07,0.17l0.15,0.07l0.07-0.17l0.89,0.39l0.06-0.12
				l-0.64-0.95l-0.15-0.07L147.7,55.04L147.7,55.04z M148.47,55.38l-0.62-0.27l0.17-0.38L148.47,55.38z"/>
			<path class="st4" d="M147.23,55.54c-0.12,0.03-0.21,0.1-0.27,0.22c-0.04,0.09-0.05,0.17-0.02,0.26c0.03,0.08,0.08,0.16,0.17,0.23
				c0.09,0.07,0.21,0.14,0.37,0.21c0.14,0.06,0.25,0.1,0.34,0.11c0.09,0.02,0.17,0.02,0.24,0.01c0.07-0.01,0.13-0.03,0.18-0.07
				c0.05-0.04,0.09-0.09,0.12-0.15c0.04-0.09,0.05-0.17,0.02-0.26c-0.03-0.08-0.08-0.16-0.17-0.23c-0.08-0.07-0.21-0.15-0.37-0.22
				C147.58,55.55,147.38,55.51,147.23,55.54L147.23,55.54z M147.1,55.81c0.03-0.07,0.09-0.11,0.19-0.12
				c0.1-0.01,0.26,0.03,0.48,0.13c0.22,0.1,0.37,0.19,0.43,0.28c0.05,0.07,0.06,0.14,0.02,0.21c-0.03,0.07-0.09,0.11-0.19,0.13
				c-0.09,0.01-0.26-0.03-0.48-0.13c-0.22-0.1-0.36-0.19-0.42-0.27C147.08,55.96,147.07,55.88,147.1,55.81z"/>
			<path class="st4" d="M146.81,56.49c-0.12,0.03-0.21,0.1-0.27,0.22c-0.04,0.09-0.05,0.17-0.02,0.26c0.03,0.08,0.08,0.16,0.17,0.23
				c0.09,0.07,0.21,0.14,0.37,0.21c0.14,0.06,0.25,0.1,0.34,0.11c0.09,0.02,0.17,0.02,0.24,0.01c0.07-0.01,0.13-0.03,0.18-0.07
				c0.05-0.04,0.09-0.09,0.12-0.15c0.04-0.09,0.05-0.17,0.02-0.26c-0.03-0.08-0.08-0.16-0.17-0.23c-0.09-0.07-0.21-0.15-0.37-0.22
				C147.16,56.5,146.96,56.46,146.81,56.49L146.81,56.49z M146.68,56.76c0.03-0.07,0.09-0.11,0.19-0.13
				c0.1-0.01,0.26,0.03,0.48,0.13c0.23,0.1,0.37,0.19,0.43,0.28c0.05,0.07,0.06,0.14,0.02,0.21c-0.03,0.07-0.09,0.11-0.19,0.13
				c-0.09,0.01-0.25-0.03-0.48-0.13c-0.22-0.1-0.36-0.19-0.42-0.27C146.66,56.91,146.65,56.83,146.68,56.76z"/>
		</g>
		<g>
			<path class="st4" d="M154.24,57.48c-0.1,0.04-0.18,0.12-0.23,0.23c-0.06,0.13-0.05,0.27,0.02,0.39c0.06,0.1,0.15,0.18,0.28,0.24
				c0.13,0.06,0.25,0.07,0.37,0.03c0.12-0.04,0.2-0.11,0.24-0.22c0.04-0.08,0.04-0.17,0.02-0.27l0.34,0.23l-0.22,0.49l0.16,0.07
				l0.27-0.61l-0.65-0.43l-0.08,0.13c0.03,0.04,0.05,0.08,0.05,0.13c0.01,0.05,0,0.1-0.02,0.15c-0.03,0.08-0.09,0.13-0.17,0.15
				c-0.08,0.02-0.16,0.01-0.26-0.03c-0.1-0.04-0.17-0.1-0.21-0.18c-0.04-0.08-0.04-0.15-0.01-0.22c0.03-0.06,0.07-0.1,0.13-0.13
				c0.06-0.02,0.14-0.02,0.23,0l0.06-0.16C154.45,57.44,154.34,57.44,154.24,57.48z"/>
			<path class="st4" d="M153.86,58.44c-0.12,0.03-0.21,0.1-0.27,0.21c-0.04,0.09-0.05,0.18-0.02,0.26c0.03,0.08,0.08,0.16,0.17,0.23
				c0.09,0.07,0.21,0.14,0.37,0.21c0.14,0.06,0.25,0.1,0.34,0.11c0.09,0.02,0.17,0.02,0.24,0.01c0.07-0.01,0.13-0.03,0.18-0.07
				c0.05-0.04,0.09-0.09,0.12-0.15c0.04-0.09,0.05-0.17,0.02-0.26c-0.03-0.08-0.08-0.16-0.17-0.23c-0.09-0.07-0.21-0.14-0.37-0.22
				C154.21,58.45,154.01,58.41,153.86,58.44L153.86,58.44z M153.73,58.72c0.03-0.07,0.09-0.11,0.19-0.13
				c0.1-0.01,0.26,0.03,0.48,0.13c0.22,0.1,0.37,0.19,0.43,0.28c0.05,0.07,0.06,0.14,0.02,0.21c-0.03,0.07-0.09,0.11-0.19,0.13
				c-0.09,0.01-0.26-0.03-0.48-0.13c-0.22-0.1-0.36-0.19-0.42-0.27C153.71,58.86,153.7,58.79,153.73,58.72z"/>
			<path class="st4" d="M153.34,59.89c-0.05-0.08-0.07-0.15-0.03-0.22c0.03-0.07,0.09-0.11,0.19-0.13c0.1-0.01,0.26,0.03,0.48,0.13
				c0.23,0.1,0.37,0.19,0.43,0.28c0.05,0.07,0.06,0.14,0.02,0.21c-0.03,0.07-0.09,0.11-0.19,0.13c-0.09,0.01-0.25-0.03-0.48-0.13
				C153.53,60.06,153.39,59.97,153.34,59.89L153.34,59.89z M153.43,59.39c-0.12,0.03-0.21,0.1-0.27,0.22
				c-0.04,0.09-0.05,0.17-0.02,0.26c0.03,0.08,0.08,0.16,0.17,0.23c0.09,0.07,0.21,0.14,0.37,0.21c0.14,0.06,0.25,0.1,0.34,0.11
				c0.09,0.02,0.17,0.02,0.24,0.01c0.07-0.01,0.13-0.03,0.18-0.07c0.05-0.04,0.09-0.09,0.12-0.15c0.04-0.09,0.05-0.17,0.02-0.26
				c-0.03-0.08-0.08-0.16-0.17-0.23c-0.08-0.07-0.21-0.14-0.37-0.21C153.79,59.4,153.58,59.36,153.43,59.39z"/>
		</g>
		<path class="st5" d="M142.9,60.68c0.03-0.07-0.02-0.16-0.11-0.21c-0.11-0.06-0.24-0.04-0.27,0.04l-0.62,1.38
			c-0.03,0.07,0.02,0.16,0.11,0.21c0.11,0.06,0.24,0.04,0.27-0.04L142.9,60.68L142.9,60.68z M106.7,140.89
			c-0.03,0.07,0.02,0.16,0.11,0.21c0.11,0.06,0.24,0.04,0.27-0.04l0.62-1.38c0.03-0.07-0.02-0.16-0.11-0.21
			c-0.11-0.06-0.24-0.04-0.27,0.04L106.7,140.89L106.7,140.89z M108.55,136.74c-0.03,0.07,0.02,0.16,0.11,0.21
			c0.11,0.06,0.24,0.04,0.27-0.04l0.12-0.28c0.03-0.07-0.02-0.16-0.11-0.21c-0.11-0.06-0.24-0.04-0.27,0.04L108.55,136.74
			L108.55,136.74z M109.9,133.71c-0.03,0.07,0.02,0.16,0.11,0.21c0.11,0.06,0.24,0.04,0.27-0.04l0.62-1.38
			c0.03-0.07-0.02-0.16-0.11-0.21c-0.11-0.06-0.24-0.04-0.27,0.04L109.9,133.71L109.9,133.71z M111.75,129.56
			c-0.03,0.07,0.02,0.16,0.11,0.21c0.11,0.06,0.24,0.04,0.27-0.04l0.12-0.28c0.03-0.07-0.02-0.16-0.11-0.21
			c-0.11-0.06-0.24-0.04-0.27,0.04L111.75,129.56L111.75,129.56z M113.1,126.52c-0.03,0.07,0.02,0.16,0.11,0.21
			c0.11,0.06,0.24,0.04,0.27-0.04l0.62-1.38c0.03-0.07-0.02-0.16-0.11-0.21c-0.11-0.06-0.24-0.04-0.27,0.04L113.1,126.52
			L113.1,126.52z M114.95,122.38c-0.03,0.07,0.02,0.16,0.11,0.21c0.11,0.06,0.24,0.04,0.27-0.04l0.12-0.28
			c0.03-0.07-0.02-0.16-0.11-0.21c-0.11-0.06-0.24-0.04-0.27,0.04L114.95,122.38L114.95,122.38z M116.3,119.34
			c-0.03,0.07,0.02,0.16,0.11,0.21c0.11,0.06,0.24,0.04,0.27-0.04l0.62-1.38c0.03-0.07-0.02-0.16-0.11-0.21
			c-0.11-0.06-0.24-0.04-0.27,0.04L116.3,119.34L116.3,119.34z M118.15,115.2c-0.03,0.07,0.02,0.16,0.11,0.21
			c0.11,0.06,0.24,0.04,0.27-0.04l0.12-0.28c0.03-0.07-0.02-0.16-0.11-0.21c-0.11-0.06-0.24-0.04-0.27,0.04L118.15,115.2
			L118.15,115.2z M119.5,112.16c-0.03,0.07,0.02,0.16,0.11,0.21c0.11,0.06,0.24,0.04,0.27-0.04l0.62-1.38
			c0.03-0.07-0.02-0.16-0.11-0.21c-0.11-0.06-0.24-0.04-0.27,0.04L119.5,112.16L119.5,112.16z M121.35,108.02
			c-0.03,0.07,0.02,0.16,0.11,0.21c0.11,0.06,0.24,0.04,0.27-0.04l0.12-0.28c0.03-0.07-0.02-0.16-0.11-0.21
			c-0.11-0.06-0.24-0.04-0.27,0.04L121.35,108.02L121.35,108.02z M122.7,104.98c-0.03,0.07,0.02,0.16,0.11,0.21
			c0.11,0.06,0.24,0.04,0.27-0.04l0.62-1.38c0.03-0.07-0.02-0.16-0.11-0.21c-0.11-0.06-0.24-0.04-0.27,0.04L122.7,104.98
			L122.7,104.98z M124.55,100.84c-0.03,0.07,0.02,0.16,0.11,0.21c0.11,0.06,0.24,0.04,0.27-0.04l0.12-0.28
			c0.03-0.07-0.02-0.16-0.11-0.21c-0.11-0.06-0.24-0.04-0.27,0.04L124.55,100.84L124.55,100.84z M125.9,97.8
			c-0.03,0.07,0.02,0.16,0.11,0.21c0.11,0.06,0.24,0.04,0.27-0.04l0.62-1.38c0.03-0.07-0.02-0.16-0.11-0.21
			c-0.11-0.06-0.24-0.04-0.27,0.04L125.9,97.8L125.9,97.8z M127.75,93.66c-0.03,0.07,0.02,0.16,0.11,0.21
			c0.11,0.06,0.24,0.04,0.27-0.04l0.12-0.28c0.03-0.07-0.02-0.16-0.11-0.21c-0.11-0.06-0.24-0.04-0.27,0.04L127.75,93.66
			L127.75,93.66z M129.1,90.62c-0.03,0.07,0.02,0.16,0.11,0.21c0.11,0.06,0.24,0.04,0.27-0.04l0.62-1.38
			c0.03-0.07-0.02-0.16-0.11-0.21c-0.11-0.06-0.24-0.04-0.27,0.04L129.1,90.62L129.1,90.62z M130.95,86.47
			c-0.03,0.07,0.02,0.16,0.11,0.21c0.11,0.06,0.24,0.04,0.27-0.04l0.12-0.28c0.03-0.07-0.02-0.16-0.11-0.21
			c-0.11-0.06-0.24-0.04-0.27,0.05L130.95,86.47L130.95,86.47z M132.3,83.44c-0.03,0.07,0.02,0.16,0.11,0.21
			c0.11,0.06,0.24,0.04,0.27-0.04l0.62-1.38c0.03-0.07-0.02-0.16-0.11-0.21c-0.11-0.06-0.24-0.04-0.27,0.04L132.3,83.44L132.3,83.44
			z M134.15,79.29c-0.03,0.07,0.02,0.16,0.11,0.21c0.11,0.06,0.24,0.04,0.27-0.04l0.12-0.28c0.03-0.07-0.02-0.16-0.11-0.21
			c-0.11-0.06-0.24-0.04-0.27,0.04L134.15,79.29L134.15,79.29z M135.5,76.25c-0.03,0.07,0.02,0.16,0.11,0.21
			c0.11,0.06,0.24,0.04,0.27-0.04l0.62-1.38c0.03-0.07-0.02-0.16-0.11-0.21c-0.11-0.06-0.24-0.04-0.27,0.04L135.5,76.25L135.5,76.25
			z M137.35,72.11c-0.03,0.07,0.02,0.16,0.11,0.21c0.11,0.06,0.24,0.04,0.27-0.04l0.12-0.28c0.03-0.07-0.02-0.16-0.11-0.21
			c-0.11-0.06-0.24-0.04-0.27,0.04L137.35,72.11L137.35,72.11z M138.7,69.07c-0.03,0.07,0.02,0.16,0.11,0.21
			c0.11,0.06,0.24,0.04,0.27-0.04l0.62-1.38c0.03-0.07-0.02-0.16-0.11-0.21c-0.11-0.06-0.24-0.04-0.27,0.04L138.7,69.07L138.7,69.07
			z M140.55,64.93c-0.03,0.07,0.02,0.16,0.11,0.21c0.11,0.06,0.24,0.04,0.27-0.04l0.12-0.28c0.03-0.07-0.02-0.16-0.11-0.21
			c-0.11-0.06-0.24-0.04-0.27,0.04L140.55,64.93z"/>
		<path class="st6" d="M149.35,63.56c0-0.09,0.08-0.14,0.19-0.13c0.11,0.02,0.2,0.1,0.21,0.19l0.57,9.55c0,0.08-0.07,0.14-0.17,0.13
			l0,0l-19.78-1.26l-5.01,3.24l0.26,6.39c0,0.06-0.04,0.1-0.09,0.12l-11,4.07l6.56,10.22c0.02,0.03,0.03,0.06,0.03,0.08l0,0
			l-0.18,6.8l12.69,11.41c0.08,0.07,0.09,0.17,0.01,0.22c-0.01,0-0.01,0.01-0.02,0.01l0,0l-6.04,2.94c-0.03,0.01-0.06,0.02-0.1,0.02
			l-15.15-0.5l-7.13,1.93l-2.15,4.08l0.64,5.89l10.21,15.79c0.06,0.09,0.02,0.17-0.07,0.2c-0.1,0.03-0.22-0.02-0.27-0.11
			l-10.22-15.82c-0.02-0.02-0.03-0.05-0.03-0.08l-0.65-5.96h0c0-0.02,0-0.05,0.01-0.07l2.19-4.16h0c0.02-0.03,0.04-0.05,0.09-0.06
			l7.22-1.95c0.02-0.01,0.04-0.01,0.07-0.01l15.14,0.5l5.83-2.84l-12.58-11.31c-0.05-0.04-0.08-0.09-0.08-0.14l0.18-6.83
			l-6.62-10.31l0,0c-0.05-0.08-0.03-0.16,0.06-0.19l11.07-4.1l-0.25-6.37l0,0c0-0.04,0.02-0.08,0.05-0.1l5.12-3.3l0,0
			c0.03-0.02,0.07-0.03,0.12-0.03l19.67,1.26L149.35,63.56z"/>
		<path class="st7" d="M124.55,52.63c0.03-0.07-0.02-0.16-0.11-0.21c-0.11-0.06-0.24-0.04-0.27,0.04l-0.62,1.38
			c-0.03,0.07,0.02,0.16,0.11,0.21c0.11,0.06,0.24,0.04,0.27-0.04L124.55,52.63L124.55,52.63z M88.35,132.84
			c-0.03,0.07,0.02,0.16,0.11,0.21c0.11,0.06,0.24,0.04,0.27-0.04l0.62-1.38c0.03-0.07-0.02-0.16-0.11-0.21
			c-0.11-0.06-0.24-0.04-0.27,0.04L88.35,132.84L88.35,132.84z M90.2,128.69c-0.03,0.07,0.02,0.16,0.11,0.21
			c0.11,0.06,0.24,0.04,0.27-0.04l0.12-0.28c0.03-0.07-0.02-0.16-0.11-0.21c-0.11-0.06-0.24-0.04-0.27,0.04L90.2,128.69L90.2,128.69
			z M91.55,125.66c-0.03,0.07,0.02,0.16,0.11,0.21c0.11,0.06,0.24,0.04,0.27-0.04l0.62-1.38c0.03-0.07-0.02-0.16-0.11-0.21
			c-0.11-0.06-0.24-0.04-0.27,0.04L91.55,125.66L91.55,125.66z M93.4,121.51c-0.03,0.07,0.02,0.16,0.11,0.21
			c0.11,0.06,0.24,0.04,0.27-0.04l0.12-0.28c0.03-0.07-0.02-0.16-0.11-0.21c-0.11-0.06-0.24-0.04-0.27,0.04L93.4,121.51L93.4,121.51
			z M94.75,118.47c-0.03,0.07,0.02,0.16,0.11,0.21c0.11,0.06,0.24,0.04,0.27-0.04l0.62-1.38c0.03-0.07-0.02-0.16-0.11-0.21
			c-0.11-0.06-0.24-0.04-0.27,0.04L94.75,118.47L94.75,118.47z M96.6,114.33c-0.03,0.07,0.02,0.16,0.11,0.21
			c0.11,0.06,0.24,0.04,0.27-0.04l0.12-0.28c0.03-0.07-0.02-0.16-0.11-0.21c-0.11-0.06-0.24-0.04-0.27,0.04L96.6,114.33L96.6,114.33
			z M97.95,111.29c-0.03,0.07,0.02,0.16,0.11,0.21c0.11,0.06,0.24,0.04,0.27-0.04l0.62-1.38c0.03-0.07-0.02-0.16-0.11-0.21
			c-0.11-0.06-0.24-0.04-0.27,0.04L97.95,111.29L97.95,111.29z M99.8,107.15c-0.03,0.07,0.02,0.16,0.11,0.21
			c0.11,0.06,0.24,0.04,0.27-0.04l0.12-0.28c0.03-0.07-0.02-0.16-0.11-0.21c-0.11-0.06-0.24-0.04-0.27,0.04L99.8,107.15L99.8,107.15
			z M101.15,104.11c-0.03,0.07,0.02,0.16,0.11,0.21c0.11,0.06,0.24,0.04,0.27-0.04l0.62-1.38c0.03-0.07-0.02-0.16-0.11-0.21
			c-0.11-0.06-0.24-0.04-0.27,0.04L101.15,104.11L101.15,104.11z M103,99.97c-0.03,0.07,0.02,0.16,0.11,0.21
			c0.11,0.06,0.24,0.04,0.27-0.04l0.12-0.28c0.03-0.07-0.02-0.16-0.11-0.21c-0.11-0.06-0.24-0.04-0.27,0.04L103,99.97L103,99.97z
			 M104.35,96.93c-0.03,0.07,0.02,0.16,0.11,0.21c0.11,0.06,0.24,0.04,0.27-0.04l0.62-1.38c0.03-0.07-0.02-0.16-0.11-0.21
			c-0.11-0.06-0.24-0.04-0.27,0.04L104.35,96.93L104.35,96.93z M106.2,92.79c-0.03,0.07,0.02,0.16,0.11,0.21
			c0.11,0.06,0.24,0.04,0.27-0.04l0.12-0.28c0.03-0.07-0.02-0.16-0.11-0.21c-0.11-0.06-0.24-0.04-0.27,0.04L106.2,92.79L106.2,92.79
			z M107.55,89.75c-0.03,0.07,0.02,0.16,0.11,0.21c0.11,0.06,0.24,0.04,0.27-0.04l0.62-1.38c0.03-0.07-0.02-0.16-0.11-0.21
			c-0.11-0.06-0.24-0.04-0.27,0.04L107.55,89.75L107.55,89.75z M109.4,85.61c-0.03,0.07,0.02,0.16,0.11,0.21
			c0.11,0.06,0.24,0.04,0.27-0.04l0.12-0.28c0.03-0.07-0.02-0.16-0.11-0.21c-0.11-0.06-0.24-0.04-0.27,0.04L109.4,85.61L109.4,85.61
			z M110.75,82.57c-0.03,0.07,0.02,0.16,0.11,0.21c0.11,0.06,0.24,0.04,0.27-0.04l0.62-1.38c0.03-0.07-0.02-0.16-0.11-0.21
			c-0.11-0.06-0.24-0.04-0.27,0.04L110.75,82.57L110.75,82.57z M112.6,78.43c-0.03,0.07,0.02,0.16,0.11,0.21
			c0.11,0.06,0.24,0.04,0.27-0.04l0.12-0.28c0.03-0.07-0.02-0.16-0.11-0.21c-0.11-0.06-0.24-0.04-0.27,0.04L112.6,78.43L112.6,78.43
			z M113.96,75.39c-0.03,0.07,0.02,0.16,0.11,0.21c0.11,0.06,0.24,0.04,0.27-0.04l0.62-1.38c0.03-0.07-0.02-0.16-0.11-0.21
			c-0.11-0.06-0.24-0.04-0.27,0.04L113.96,75.39L113.96,75.39z M115.8,71.25c-0.03,0.07,0.02,0.16,0.11,0.21
			c0.11,0.06,0.24,0.04,0.27-0.04l0.12-0.28c0.03-0.07-0.02-0.16-0.11-0.21c-0.11-0.06-0.24-0.04-0.27,0.04L115.8,71.25L115.8,71.25
			z M117.16,68.21c-0.03,0.07,0.02,0.16,0.11,0.21c0.11,0.06,0.24,0.04,0.27-0.04l0.62-1.38c0.03-0.07-0.02-0.16-0.11-0.21
			c-0.11-0.06-0.24-0.04-0.27,0.04L117.16,68.21L117.16,68.21z M119,64.06c-0.03,0.07,0.02,0.16,0.11,0.21
			c0.11,0.06,0.24,0.04,0.27-0.04l0.12-0.28c0.03-0.07-0.02-0.16-0.11-0.21c-0.11-0.06-0.24-0.04-0.27,0.04L119,64.06L119,64.06z
			 M120.36,61.03c-0.03,0.07,0.02,0.16,0.11,0.21c0.11,0.06,0.24,0.04,0.27-0.04l0.62-1.38c0.03-0.07-0.02-0.16-0.11-0.21
			c-0.11-0.06-0.24-0.04-0.27,0.04L120.36,61.03L120.36,61.03z M122.2,56.88c-0.03,0.07,0.02,0.16,0.11,0.21
			c0.11,0.06,0.24,0.04,0.27-0.04l0.12-0.28c0.03-0.07-0.02-0.16-0.11-0.21c-0.11-0.06-0.24-0.04-0.27,0.04L122.2,56.88z"/>
	</g>
	<g>
		<polygon class="st8" points="117.92,44.8 79.35,131.36 80.88,132.03 119.45,45.47 		"/>
		<polygon class="st8" points="81.99,122.1 116.68,44.25 115.15,43.58 80.45,121.43 		"/>
		<polygon class="st8" points="88.52,99.99 113.9,43.04 112.37,42.36 86.99,99.32 		"/>
		<polygon class="st8" points="83.5,97.79 108.88,40.83 107.35,40.16 81.97,97.12 		"/>
		<polygon class="st8" points="104.57,38.94 70.73,114.89 72.26,115.57 106.11,39.62 		"/>
		<polygon class="st8" points="84.09,81.58 103.33,38.4 101.8,37.72 82.55,80.91 		"/>
		<polygon class="st8" points="99.02,36.51 60.45,123.07 61.98,123.75 100.55,37.18 		"/>
	</g>
	<g>
		<polygon class="st8" points="52.89,18.55 27.51,75.51 29.05,76.18 54.43,19.22 		"/>
		<polygon class="st8" points="50.12,17.33 16.27,93.28 17.81,93.95 51.65,18 		"/>
		<polygon class="st8" points="29.63,59.97 48.88,16.79 47.34,16.11 28.1,59.3 		"/>
		<polygon class="st8" points="44.57,14.9 5.99,101.46 7.53,102.13 46.1,15.57 		"/>
	</g>
	<polygon class="st3" points="163.48,81.8 137.64,139.79 131.9,137.27 157.74,79.29 	"/>
	<polygon class="st2" points="174.08,66.12 170.16,74.92 180.02,79.24 183.94,70.45 	"/>
	<g>
		<polygon class="st8" points="176.53,82.96 143.72,156.58 145.26,157.25 178.06,83.64 		"/>
		<polygon class="st8" points="175.29,82.42 173.75,81.75 144.25,147.95 145.78,148.63 		"/>
		<polygon class="st8" points="172.51,81.2 170.98,80.53 149.39,128.97 150.93,129.64 		"/>
	</g>
	<g>
		<path class="st9" d="M37.87,91.85c0.2,0.02,0.84,0.36,0.82-0.03c-0.03-0.64-3.13-0.55-0.72-1.85c0.48-0.26,0.26,0.27,0.28,0.35
			c0.07,0.16,0.23,0.35,0.43,0.37c0.32,0.03,0.35-0.16,0.51-0.49c0.25-0.5-0.28-0.37,0.25-0.66c0.11-0.06,0.17-0.11,0.2-0.18
			c0.06-0.1,0.05-0.34-0.15-0.29c-0.15,0.04-0.2,0.42-0.51,0c-0.25-0.34-0.27-0.05-0.47-0.29c-0.06-0.07-0.05-0.36,0.21-0.26
			c0.21,0.08,0.41,0.16,0.54-0.1c0.29-0.59-0.38-0.67-0.34-1.1c0.06-0.58-0.65-0.43-0.67-0.97c-0.02-0.38,0.25-1.43-0.12-1.79
			c-0.21-0.21-0.95-0.58-1.26-0.55c-0.2,0.02-0.43,0.25-0.84,0.05c-0.48-0.23-0.24-0.21-0.6-0.09c-0.16,0.05-0.44-0.13-0.54-0.23
			c0.03-0.63-0.82-0.1-0.81,0.22c0,0.28,0.58,0.61,0.33,0.86c-0.07,0.07-0.56,0-0.43,0.41c0.1,0.31,0.21,0.2,0.24,0.87
			c-0.05,0.5-0.06,1.21-0.68,1.45c-0.43,0.16-1.02-0.12-0.66,0.46c0.13,0.2,0.2,0.3,0.36,0.45c-0.64-0.32-0.4-0.4-0.81-0.7
			c-0.44-0.32-0.29,0.37-0.31,0.43c-0.1,0.34-0.52-0.11-0.88,0.08c-0.12,0.06-0.24,0.17-0.35,0.3c-0.09,0.11,0.26,0.46,0.2,0.59
			c-0.06,0.13-0.53,0.04-0.55,0.16c-0.01,0.07-0.01,0.13,0,0.19c0.06,0.38,0.06,0.35-0.07,0.76c1.11,0.28,0.93,1.13,2.11,1.67
			c0.2,0.09,0.71,0.21,0.91,0.41c0.14,0.14,0.25,0.28,0.51,0.05c0.62-0.56,1.02-0.33,1.83-0.52c0.41-0.09,0.14-0.12,0.43-0.02
			C36.9,92.05,37.63,91.83,37.87,91.85z"/>
		<path class="st9" d="M30.8,88.83c0.01-0.09-0.11,0.02-0.09-0.17c-0.17-0.18-0.49,0.01-0.2,0.12
			C30.63,88.82,30.79,88.96,30.8,88.83z"/>
		<path class="st9" d="M29.49,88.63c-0.53,0.01-0.42,0.44-0.12,0.64c0.31,0.22,0.86,0.55,0.87,0.27c0.01-0.18-0.4-0.13-0.21-0.48
			c0.11-0.21,0.14-0.01,0.23-0.21c0.01-0.05,0.03-0.12-0.04-0.17C30.15,88.64,29.59,88.63,29.49,88.63z"/>
		<path class="st9" d="M28.19,94.96c-0.28-0.56-0.34,0.28-0.66-0.01c-0.24-0.22,0.25-0.46,0.25-0.46c-0.02-0.34-0.54-0.58-0.52-0.78
			c0.11-1.12-0.71-1.65-1.04-1.07c-0.49,0.88,0.94,1.05,0.6,1.36c-0.07,0-0.19-0.08-0.24-0.01c-0.05,0.06,0.02,0.44,0.46,0.19
			c-0.09,0.12-0.19,0.26-0.02,0.4c0.49,0.43-0.39-0.05,0.19,0.63c0.47,0.54,0.12,0.5,0.37,0.75c0.45,0.43,0.72-0.2,0.74-0.22
			c0.08-0.13,0.8-0.23,0.8-0.23c0.13-0.04,0.51-0.37,0.49-0.49C29.53,94.66,28.6,95.77,28.19,94.96z"/>
		<path class="st9" d="M25.35,91.82c-0.04,0.09,0,0.19,0.08,0.23c0.09,0.04,0.19,0,0.23-0.09c0.04-0.09,0-0.19-0.08-0.23
			C25.49,91.69,25.39,91.73,25.35,91.82z"/>
		<path class="st9" d="M34.24,95c-0.28-0.05-0.36,0.19-0.84,0.27c-0.14,0.02-0.32,0.04-0.28,0.22c0.02,0.09,0.12,0.1,0.21,0.09
			c0.18-0.01,0.2,0.12,0.02,0.11c-0.26,0.23-0.04,0.39,0.09,0.15c0.1-0.18,0.29,0.11,0.32-0.23c-0.06-0.08-0.13-0.09-0.25-0.13
			C33.65,95.48,34.84,95.23,34.24,95z"/>
		<path class="st9" d="M34.42,96.23c-0.26-0.18-0.2,0.09-0.15,0.12c0.53,0.39,0.61,0.07,0.7,0.11c0.01,0.29,0.13,0.15,0.2,0.03
			c0.1-0.15,0.26,0.08,0.3-0.22C35.19,95.95,34.76,96.47,34.42,96.23z"/>
		<path class="st9" d="M33.95,96.21c-0.16,0.06-0.36-0.1-0.35,0.19c0.12,0.1,0.16,0.09,0.24-0.01c0.15,0,0.23,0.18,0.34,0.06
			l-0.06-0.2C34.08,96.2,33.99,96.21,33.95,96.21z"/>
		<path class="st9" d="M33.75,98.49c-0.01-0.05,0.1-0.39-0.18-0.41c-0.14-0.01-0.14,0.14-0.33,0.02c-0.26-0.16-0.21,0.15-0.21,0.15
			c0.03,0.08,0.23,0.14,0.32,0.16c0.29,0.11,0.07,0.19,0.08,0.36c0.01,0.16,0.25,0.27,0.33,0.26c0.13-0.02,0.17-0.2,0.13-0.3
			L33.75,98.49z"/>
		<path class="st9" d="M36.89,95.5c0.04-0.08,0-0.19-0.09-0.23c-0.09-0.04-0.19,0-0.23,0.08c-0.04,0.08,0,0.19,0.09,0.23
			C36.75,95.62,36.85,95.59,36.89,95.5z"/>
		<path class="st9" d="M38.06,95.52c-0.41,0.16-0.22,0.12-0.37,0.25c-0.1,0.09-0.17,0.04-0.24-0.04c0.02-0.09,0.11-0.22-0.07-0.25
			c-0.13-0.02-0.19,0.25-0.45,0.3c-0.11,0.03-0.2,0.03-0.18,0.16c0.25,0.17,0.27-0.11,0.58-0.02c0.29,0.09,0.28,0.17,0.48-0.04
			c0.15-0.16,0.09-0.12,0.32-0.16c0.13-0.02,0.17-0.05,0.19-0.18C38.21,95.45,38.24,95.47,38.06,95.52z"/>
		<path class="st9" d="M39.21,95.04c-0.32-0.26-0.39-0.06-0.66,0.06c-0.2,0.09-0.24-0.16-0.64-0.05c-0.42,0.12-0.34,0.35-0.08,0.34
			c0.1,0,0.14-0.06,0.27-0.02c0.58,0.17,0.39-0.24,0.64-0.22C38.88,95.16,39.25,95.38,39.21,95.04z"/>
		<path class="st9" d="M36.53,96.58c-0.08-0.04-0.18-0.01-0.21,0.05c-0.03,0.06,0.02,0.15,0.1,0.18c0.08,0.04,0.18,0.01,0.21-0.05
			C36.66,96.7,36.62,96.61,36.53,96.58z"/>
		<path class="st9" d="M35.93,99.57c-0.07-0.03-0.15-0.03-0.17,0.01c-0.02,0.04,0.03,0.1,0.1,0.13c0.07,0.03,0.15,0.03,0.17-0.01
			C36.05,99.66,36.01,99.6,35.93,99.57z"/>
		<path class="st9" d="M37.3,94.03c-0.04,0.09-0.01,0.19,0.07,0.22c0.08,0.03,0.17-0.01,0.21-0.1c0.04-0.09,0.01-0.19-0.07-0.22
			C37.43,93.9,37.34,93.94,37.3,94.03z"/>
		<path class="st9" d="M38.28,94.26c0.03-0.06,0-0.14-0.06-0.17c-0.06-0.03-0.14,0-0.17,0.07c-0.03,0.06,0,0.14,0.06,0.17
			C38.18,94.36,38.25,94.33,38.28,94.26z"/>
		<path class="st9" d="M42.28,90.61c-0.08,0.15,0.04,0.28-0.19,0.38c-0.29-0.11-0.02-0.31-0.41-0.29c-0.4,0.02-0.44-0.11-0.54,0.37
			c-0.05,0.22-0.09,0.37-0.4,0.5c-0.81,0.33-0.73-0.46-1.05-0.39c-0.27,0.07-0.04,0.42-0.04,0.44c0,0.31-0.45-0.2-0.63,0.29
			c-0.14,0.38,0.36,0.38,0.24,0.77c-0.1,0.32-0.81,0.17-1.07,0.41c-0.66,0.61,0.04,1.01,0.32,0.62c0.05-0.07,0.32-0.56,0.66-0.45
			c0.46,0.15-0.29,0.64,0.06,1.42c0.1,0.21,0.29,0.39,0.54,0.29c0.34-0.13,0.53-0.22,0.63-0.5c-0.26-0.38-0.44,0.42-0.84,0.06
			c-0.31-0.27,0.31-1.03,0.41-1.1l0.24-0.13l0.88-0.55c0.06-0.05,0.3-0.41,0.3-0.41c0.15-0.11,0.22-0.09,0.26-0.11
			c0.09-0.04,0.13-0.07,0.08-0.18c-0.02-0.04-0.18-0.02-0.17-0.15c0.01-0.26,0.59,0.29,0.57-0.22c-0.4-0.3-0.38,0.29-0.76-0.13
			c-0.21-0.23,0.22-0.5,0.42-0.3c0.1,0.09-0.01,0.22,0.34,0.24c0.08-0.08,0.6-0.67,0.61-0.78C42.78,90.41,42.42,90.59,42.28,90.61z"
			/>
		<path class="st9" d="M39.13,98.06c-0.02,0.05,0,0.12,0.05,0.14c0.05,0.02,0.12,0,0.14-0.05c0.02-0.05,0-0.12-0.05-0.14
			C39.22,97.99,39.16,98.01,39.13,98.06z"/>
		<path class="st9" d="M40.79,90.13c0.01-0.18-0.24-0.28-0.14-0.33c0.22-0.11,0.2-0.18-0.04-0.32c-0.08,0.17-0.39,0.08-0.38,0.35
			C40.23,90.07,40.76,90.53,40.79,90.13z"/>
		<path class="st9" d="M41.13,90.4c-0.19-0.18-0.12,0.12-0.44,0.16c-0.2-0.1-0.39-0.01-0.22,0.15c0.13,0.13,0.08,0.35,0.3,0.36
			c0,0,0.22-0.06,0.06-0.31C40.89,90.62,41.14,90.67,41.13,90.4z"/>
		<path class="st9" d="M41.74,90.34c-0.22-0.01-0.15-0.04-0.26-0.01c-0.02,0.05,0,0.05,0.06,0.09c0.37,0.11,0.2,0.06,0.42-0.04
			c0.16,0.05,0.07,0.09,0.18,0.17c0.31-0.03,0.07-0.24,0-0.34c0.08-0.5-0.13-0.21,0.08-0.59c0.15-0.03,0.94,0.27,0.6-0.33
			c-0.2-0.07-0.25,0.16-0.63,0.11c-0.27-0.04-0.29,0.13-0.26,0.31C41.31,89.77,42.17,89.91,41.74,90.34z"/>
		<path class="st9" d="M43.63,90.46c-0.01-0.13-0.05-0.15-0.18-0.2c-0.53-0.24-0.2-0.12-0.44-0.29c-0.21-0.15-0.23-0.02-0.4-0.07
			c-0.03-0.01-0.24-0.13-0.3,0.13c-0.02,0.09,0.06,0.17,0.16,0.12c0.09-0.04,0.16-0.05,0.3,0.02c0.29,0.14-0.11,0.21,0.26,0.4
			c0.33,0.17,0.21-0.01,0.33-0.07c0.03-0.01,0.15,0,0.07,0.14c-0.01,0.01-0.12,0.13,0.03,0.21c0.23,0.12,0.3-0.14,0.25-0.25
			C43.67,90.54,43.65,90.61,43.63,90.46z"/>
		<path class="st9" d="M43.41,88.22c-0.19-0.16-0.42-0.4-0.63-0.4c-0.05,0.06-0.11,0.24-0.29,0.16c-0.18-0.08,0.01-0.21-0.18-0.32
			c-0.23-0.14-0.44,0.15-0.24,0.32c0.24,0.21,0.61,0.13,0.43,0.37c-0.24,0.01-0.55-0.36-0.75,0c-0.16,0.29,0.13,0.42,0.43,0.51
			c0.12,0.04,0.33-0.01,0.4-0.04c0.07-0.03,0.2-0.16,0.29-0.08c0.1,0.09-0.2,0.27-0.03,0.37c0.23,0.14,0.34,0.17,0.51-0.12
			c0.1-0.17-0.06-0.39,0.17-0.37c0.18,0.15-0.31,0.65-0.28,0.89c0.01,0.04,0.11,0.28,0.11,0.28c0,0-0.01,0.13,0.13,0.19
			c0.22,0.09,0.32-0.18,0.26-0.33c-0.01-0.03-0.11-0.1-0.08-0.22c0.02-0.07,0.11-0.28,0.18-0.31c0.04-0.02,0.12-0.03,0.14-0.14
			c0.04-0.15-0.08-0.25-0.19-0.37C43.6,88.35,43.71,88.47,43.41,88.22z"/>
		<path class="st9" d="M40.68,89.29c0.2,0.12,0.49,0.02,0.43-0.46l-0.01-0.1c0.33-0.65-0.31-0.8,0.41-0.88
			c-0.51-0.36-0.28-0.44,0.17-0.36c-0.4-0.38,0.28-0.82,0.39-1.01c0.17-0.29,0.16-0.07,0.14-0.02c-0.03,0.09-0.28,0.56-0.08,0.55
			c0.16-0.01,0.09-0.62,0.76-1.38c0.13-0.14,0.68-0.96,1.02-0.47c0.13,0.19-0.51,0.78,0.07,0.84c0.3,0.03,0.22-0.3,0.43-0.34
			c0.11-0.02,0.21,0.13,0.28-0.26c0.05-0.26,0.25-0.02,0.37-0.02c0.05,0,1.06-0.48,1.31-0.56c0.27-0.08,1.34-0.13,1.16-0.63
			c-0.2-0.56-1.19,0.4-2.4,0.18c-0.88-0.17-1.35,0.22-1.48,0.25c-0.15,0.03-0.55-0.21-1.16,0.6c-0.46,0.6-0.48,0.59-0.8,1.2
			c-0.54,1.03-0.5,0.3-1,1.01c-0.07,0.11-0.01,0.49,0.41-0.02c-0.27,0.69-0.11,0.38-0.15,0.72c-0.01,0.08-0.04,0.13-0.1,0.18
			c-0.21-0.05-0.23-0.58-0.5-0.48c-0.09,0.03-0.25,0.25,0.01,0.58C40.83,89.03,40.37,89.11,40.68,89.29z"/>
		<path class="st9" d="M44.85,88.8c0.2,0.58,0.7,0.15,0.7,0.15c0.18-0.1,0.26,0.02,0.38-0.05c0.28-0.16-0.42-0.81-0.56-1.15
			c-0.06-0.14-0.13-0.58-0.09-0.81c0.02-0.02,0.05-0.05,0.07-0.08c0.16-0.23-0.11-0.48-0.36-0.55c-0.37-0.1-0.79-0.2-1.18-0.06
			c-0.45,0.15-0.51,0.54-0.59,0.58c-0.07,0.03-0.34-0.02-0.39,0.34c-0.05,0.4,0.62,0.47,0.79,0.64c0.4,0.41,0.22,0.61,0.53,0.68
			c0.33,0.08,0.25-0.24,0.66-0.07L44.85,88.8z"/>
		<path class="st9" d="M47.62,85.24l-0.27,0.05c-0.45,0.02-0.46-0.17-0.92-0.19c-0.22-0.01-0.26,0.01-0.48,0.07
			c-0.31,0.08-0.5,0.21-0.69,0.44l-0.09,0.11c0.71-0.24,0.79,0.16,1.4,0.25c0.48,0.08,0.54-0.36,0.97-0.39
			c0.21-0.01,0.36,0.16,0.6,0.11c0.4-0.08,0.32-0.63-0.14-0.59C47.78,85.12,47.7,85.21,47.62,85.24z"/>
		<path class="st9" d="M48.15,90.44c-0.69-0.28-0.52,0.08-0.92-0.21c-0.46-0.34-0.86-1.01-1.08-1.51c0.06,0.36,0.2,0.88,0.46,1.18
			c0.13,0.15,0.41,0.24,0.24,0.53c-0.57-0.15-0.7-0.06-0.95-0.19c-0.49-0.26-0.45-0.42-0.69-0.81c-0.14-0.23-0.14-0.2-0.38-0.35
			c0.33,0.35,0.17,0.18,0.36,0.68c0.12,0.3,0.09,0.17,0.21,0.28c0.05,0.05,0.01,0.05,0.28,0.29c-0.51-0.11-0.94-0.37-1.01-0.02
			c-0.08,0.4,0.45,0.55,0.77,0.67c0.39,0.14,1.01,0.31,1.39,0.26c0.26-0.03,0.36-0.16,0.48-0.28c0.16-0.11,0.34-0.24,0.61,0.07
			c0.31,0.35,0.7,0.37,0.86,0.12C49.08,90.69,48.39,90.54,48.15,90.44z"/>
		<path class="st9" d="M50.52,91.77c-0.38-0.18-0.14-0.44-0.55-0.52c-0.32-0.06-0.45,0.19-0.34,0.36c0,0.01,0.18,0.13,0.31,0.28
			C50.44,92.45,50.93,92.05,50.52,91.77z"/>
		<path class="st9" d="M49.16,81.17c-0.53-0.22-0.59,0.4,0.14,0.68c0.33,0.13,0.57,0.04,0.78-0.19c-0.25-0.13-0.21-0.3-0.44-0.36
			C49.43,81.25,49.69,81.39,49.16,81.17z"/>
		<path class="st9" d="M53.71,98.74c0.27-0.09,0.39,0.08,0.53-0.17c-0.21-0.38-0.49-0.07-0.44-0.61c0.02-0.21-0.15-0.34-0.39-0.32
			l-0.01,0.17c-1.8-0.69-0.65-1.06-1.24-1.56l-0.3-0.19c0.18-0.09,0.37-0.2,0.42-0.4c0.06-0.23-0.07-0.33-0.23-0.5
			c-0.12-0.12-0.1-0.1-0.25-0.2c0.31-0.27,0.13-0.4-0.23-0.49c-0.22-0.05-0.63,0.02-0.35,0.28c0.18,0.17,0.65,0.23,0.47,0.5
			c-0.1,0.15-0.54,0.52-0.02,0.94c-0.53,0.2-0.03,0.82,0.25,1.04c0.62,0.5,0.37,0.7,0.74,0.77c0.19,0.03,0.25-0.2,0.66,0.07
			c0.01,0.26-0.17,0.16-0.33,0.3c0.01,0.14,0.09,0.15,0.19,0.26c-0.02,0.23-0.19,0.35,0.01,0.49c0.24,0.17,0.18,0.09,0.14,0.73
			c-0.01,0.16-0.1,0.59,0.19,0.62C54.1,100.54,53.11,98.93,53.71,98.74z"/>
		<path class="st9" d="M54.6,99.59c0.34-0.07,0.66-0.07,1.03-0.01c0.37,0.06,0.81,0.68,1.02,0.38c0.24-0.33-0.57-0.61-0.75-0.68
			c-0.43,0.11-0.53-0.25-1.25-0.61c-0.42-0.21-0.14,0.24-0.67,0.3c0.58,0.27,0.26,0.13,0.67,0.12c0.24-0.01,0.44,0.14,0.14,0.34
			C54.66,99.51,54.72,99.45,54.6,99.59z"/>
		<path class="st9" d="M63.01,100.77c-0.18-0.04-0.89,0.49-0.68,0.8c-0.44,0.04-0.33,0.02-0.55,0.42c-0.14,0.23-0.29,0.45,0,0.53
			c0.28-0.15,0.14-0.63,0.51-0.71c-0.39,0.59,0.11,0.48-0.71,1.36c-0.74,0.8-0.07,0.92,0.11,0.72c0.13-0.15,0.3-0.61,0.73-1.16
			C62.58,102.52,63.57,100.88,63.01,100.77z"/>
		<path class="st9" d="M68.23,92.21c-0.23-0.01-0.18,0.17-0.54,0.55c-0.3,0.32-0.45,1.13-0.61,1.21c-0.2,0.1-0.08-0.34-0.07-0.41
			c-0.16,0.35-0.27,0.59-0.4,0.95c-0.07,0.22-0.25,0.57-0.09,0.67c0.4,0.25,0.71-1.01,0.76-1.05c0,0,1.14-0.17,1.14-1.3
			C68.43,92.67,68.5,92.23,68.23,92.21z"/>
		<path class="st9" d="M69.94,83.92c-0.02-0.14,0.1-0.75-0.45-0.75c-0.36,0-0.69,0.55-0.69,0.85c0,0.23,0.01,0.18-0.01,0.43
			c0.23-0.2,0.39-0.54,0.6-0.33c0.17,0.17,0.14,0.8,0.22,1.22c0.17,0.88-0.77,2.01-0.16,2.09c0.39,0.05,0.21-0.71,0.34-1.09
			c0.15-0.42,0.51-1.03,0.36-1.66L69.94,83.92z"/>
		<path class="st9" d="M62.24,73.07c-0.38,0.13-0.49,0.37-0.49,0.78c0,0.25,0.02,0.32,0.22,0.44c0.15-0.16,0.22-0.16,0.38-0.17
			c-0.17-0.07-0.55,0-0.37-0.46C62.12,73.32,62.43,73.33,62.24,73.07z"/>
		<path class="st9" d="M63.39,74.96c0.11,0,0.05-0.16,0.2-0.15c0.11,0.01,0.13-0.06,0.11-0.13c-0.22-0.16-0.08-0.22-0.23-0.27
			c-0.25-0.08-0.15,0.2-0.16,0.31C63.3,74.74,63.22,74.97,63.39,74.96z"/>
		<path class="st9" d="M61.24,74.82c-0.18-0.13-0.42,0.14-0.15,0.42c0.11,0.12,0.15,0.09,0.15,0.33c0.05-0.15,0.02-0.1,0.11-0.23
			C61.22,75.17,61.45,74.96,61.24,74.82z"/>
		<path class="st9" d="M64.31,70.59c0.65,0.82,0.64,0.29,0.85,0.45c0,0,0.36,0.51,0.52,0.14c-0.08-0.11-0.06-0.07-0.07-0.17
			l-0.11-0.08c-0.56-0.17-0.09-0.29-0.92-0.48C64.39,70.42,64.35,70.46,64.31,70.59z"/>
		<path class="st9" d="M64.94,69.45c0.01,0.09,0.12,0.07,0.08,0.24c-0.02,0.09-0.06,0.16,0.11,0.24c0.17,0.08,0.21-0.23,0.22-0.31
			c0.16-0.2,0.05-0.26,0.04-0.3c-0.03-0.07,0-0.28-0.02-0.31c-0.02-0.04-0.31-0.23-0.36-0.06c-0.05,0.14,0.17,0.16,0.09,0.33
			C65.06,69.36,64.93,69.33,64.94,69.45z"/>
		<path class="st9" d="M71.84,75.67c-0.07-0.1,0.07-0.04-0.16-0.29c0.02-0.23,0.1-0.47-0.18-0.73c-0.03-0.03-0.17-0.07-0.24-0.23
			l-0.07-0.25c-0.16-0.32-0.11,0.04-0.05-0.54c0.05-0.4-0.06-0.29,0.04-0.72c0.08-0.33-0.09-0.5-0.5-0.19
			c-0.45-0.57-0.91-0.41-0.95-0.05c-0.01,0.14,0.11,0.83,0.13,1.03c-0.44-0.63-0.56,0-1-0.23c0-0.13,0-0.12-0.02-0.19
			c-0.08-0.29-0.85,1.05,0.16,1.14l0.21,0c-0.43,0.71,0.08,1.08,0.51,0.56c0.74-0.04,0.32,0.78,0.58,1.06
			c0.03,0.04,0.32,0.17,0.3,0.3c-0.04,0.25-0.33,0.25-0.07,0.65c-0.13,0.06-0.15,0.23-0.46,0.15c-0.18-0.27,0.28-1.24-0.67-1.38
			c-0.75-0.11-0.57,0.95-0.59,1.05c-0.05,0.25-0.08,0.27-0.2,0.49c-0.09-0.05-0.22,0.01-0.45,0.25c0.05-0.17,0.09-0.36,0.08-0.51
			l0.15-0.21c0.23-0.25,0.17-0.05,0.23-0.5c0.04-0.34,0.16-0.37,0.2-0.68c-0.26-0.3-0.26,0.2-0.49,0.4
			c-0.02,0.02-0.19,0.1-0.32,0.24c0.13-0.37-0.14-0.35,0.19-0.58c0.26-0.19,0.1-0.46-0.14-0.58c-0.01-0.02-0.01-0.03-0.02-0.05
			c-0.13-0.18-0.32-0.07-0.46,0c0.07-0.13,0.09-0.26,0.08-0.34c-0.02-0.08-0.09-0.16-0.14-0.23c0.24,0.07,0.45,0.08,0.55-0.16
			c0.16-0.39-0.23-0.14-0.1-0.92c0.1-0.04-0.03-0.05,0.18-0.08c0.46-0.05-0.02-0.32,0.35-0.59c0.12-0.09,0.2-0.14,0.2-0.29
			c-0.15-0.1-0.17,0.1-0.34,0c-0.01-0.34,0.23-0.19,0.16-0.58l0.06-0.13c0.02-0.1-0.09-0.21-0.09-0.21
			c-0.1-0.15,0.19-0.22-0.11-0.48c0.04-0.09,0.05-0.19-0.02-0.33c0.09-0.32-0.58-0.52-0.06-0.84c0.05-0.03,0.27-0.16,0.14-0.29
			c-0.17-0.17-0.18,0.1-0.43,0.02l-0.02-0.04c0.08-0.21,0.3-0.21,0.4-0.4c0.12-0.24-0.11-0.35-0.27-0.24
			c-0.03,0.02-0.27,0.35-0.53,0.4c-0.13,0.03-0.44,0.01-0.55-0.09c-0.02-0.02-0.15-0.25-0.34-0.29c0.07-0.46,0.03-0.42,0.33-0.62
			c0.08-0.05,0.54-1.11,0.04-0.94c-0.18-0.06-0.45-0.13-0.52-0.25c-0.02-0.04-0.03-0.27-0.31-0.31c-0.09-0.01-0.41,0.07-0.56-0.07
			c0,0-0.14-0.21-0.26-0.08c-0.1,0.11-0.04,0.29-0.01,0.43c-0.12,0.01-0.22,0.09-0.29,0.27c-0.19,0.53-0.46,0.25-0.16,1.09
			c0.2,0.56,0.58,0.21,0.63,0.69c0.04,0.38-0.13,0.55,0.45,0.76c0.05,0.07,0.1,0.14,0.07,0.25c-0.07,0.25-0.49,0.21-0.28,0.57
			c0.11,0.18,0.01,0.11,0.12,0.43c-0.03,0.13-0.1,0.25-0.46,0.3c-0.81,0.12-0.75,0.28-1.13,0.54c-0.31,0.21-0.55-0.01-0.57-0.08
			c-0.07-0.17,0.11-0.63,0.11-0.8c-0.09,0.14-0.23,0.28-0.44,0.29c-0.12,0.01-0.43-0.24-0.47-0.06c-0.02,0.11,0.56,0.39,0.55,0.58
			c0,0.07-0.18,0.34,0.22,0.38c0.1,0.01,0.1,0,0.18,0.07c-0.02,0.13-0.15,0.03-0.2,0.18c0.33,0.42,0.61-0.43,1.28-0.41
			c0.46,0.02,0.23,0,0.53-0.2c0.2-0.13,0.54,0,0.4,0.39c-0.16-0.06-0.24,0.11-0.44,0.15c-0.3,0.06-0.42,0.21-0.63,0.29
			c-0.05,0.02-0.36,0.05-0.32,0.17c0.01,0.02,0.13,0.1,0.18,0.24c0.01,0.02,0,0.22,0.21,0.23c0.23,0.01,0.09-0.12,0.56,0.15
			l-0.01,0.09c-0.31,0.12-0.16,0.19-0.6,0.3c-0.09,0.02-0.16,0.04-0.23,0.07c-0.11-0.05-0.26-0.13-0.42-0.18
			c-0.09-0.43,0.48-0.63,0.07-0.84c-0.1-0.05-0.42,0.03-0.65-0.13c-0.14-0.1-0.17,0.09-0.4-0.05c-0.25-0.15-0.57,0-0.77,0.12
			c-0.09,0.06-0.14,0.12-0.14,0.22c0.21,0.18,0.35,0.08,0.25,0.36c-0.19,0.55,0.65-0.17,0.87-0.04c0.08,0.3-0.27,0.14,0.09,0.56
			c-0.02,0.04-0.03,0.09-0.04,0.15c-0.05,0.35,0.21,0.33,0.22,0.57c0.01,0.26-0.17,0.33,0.42,0.56c0.03,0.04,0.07,0.08,0.11,0.13
			c-0.03,0.13,0,0.28,0.07,0.37l0.17,0.15c0,0,0.14,0.22-0.05,0.3c-0.13,0.06-0.17-0.08-0.35,0.16c0.01-0.32-0.16-0.22-0.38-0.17
			c-0.11,0.03-0.04,0.11-0.02,0.29c0.03,0.24,0.19,0.16,0.31,0.06c-0.04,0.38,0.12,0.53-0.02,1.02C64,77.84,64,77.68,64.01,77.95
			c-0.12-0.13-0.21-0.3-0.26-0.47c-0.18-0.6-0.69-0.14-0.99,0.22l-0.54-0.26c-0.01-0.06-0.26-0.57,0.23-0.81
			c0.24-0.11,0.49-0.07,0.67-0.56c0.11-0.32-0.05-0.47-0.04-0.75l0.02-0.17c0.01-0.24-0.09-0.21,0.07-0.6
			c0.04-0.1,0.16-0.37-0.14-0.4c-0.08-0.01-0.22,0.03-0.42,0.03c-0.76-0.02-0.4,0.1-0.77,0.19c-0.24,0.05-0.23,0.31-0.19,0.36
			c0,0,0.25,0.15,0.04,0.29c-0.06,0.04-0.26,0.09-0.24,0.36c0.03,0.33,0.18,0.2-0.03,0.65c-0.21-0.05-0.16-0.06-0.28-0.2
			c-0.17-0.21-0.35-0.2-0.42-0.29c-0.04-0.04-0.05-0.22-0.2-0.25c-0.16-0.18-0.2-0.12-0.27-0.17c-0.08-0.06-0.13-0.28-0.48-0.28
			c-0.17,0-0.27-0.07-0.36-0.03c-0.19-0.14-0.27-0.2-0.53-0.21c-0.5-0.01-1.29,0.17-1.46,0.16c-0.15-0.02-0.59-0.15-0.79-0.12
			c-0.3,0.05,0.16,0.05-0.64,0.09c-0.58,0.03-0.19,0.06-0.94,0.01c-1.11-0.43-1.21-0.49-0.98,1.53c0.04,0.34,0.1,0.34,0.42,0.63
			c-0.28,0.03-0.38,0.14-0.34,0.58c0.06,0.62,0.5,0.69,0.74,1.07c0.08,0.13,0.21,0.75,0.74,0.5c0.4-0.19,0.46-0.57,0.98-0.28
			c0-0.68-0.65-0.41-0.08-1.34c0,0,0.87,0.07,1.28-0.02c0.15-0.03,0.13-0.07,0.52-0.14c0.02,0.07,0.07,0.14,0.11,0.21
			c-0.27,0.39-0.09,0.54-0.56,0.47c-1.19-0.16-1.09,0.78-1.13,0.85c-0.27,0.46-0.26-0.3-0.89,0.79c-0.02,0-0.04,0-0.05,0.01
			c-0.36,0.1,0.09,1.02-0.71,1.2l-0.49,0.03c-0.05-0.09-0.16-0.15-0.38-0.12c-0.23,0.03-0.52,0.26-0.15,0.61
			c0.28,0.27,0.01,0.39-0.19,0.31c-0.44-0.18-0.5-0.49-1.97-0.63c-1.31-0.13-0.64-0.06-1.68-0.27c-0.93-0.19-0.39,0.7-0.12,0.89
			c0.98,0.67,1.25,0.5,1.41,0.99l0.26,0.59c0.11,0.33,0.22,1.07,0.45,1.23c0.29,0.2,0.25,0.16,0.25,0.54
			c-0.07,0.06-0.3,0.43-0.36,0.51c-0.12-0.07-0.28-0.07-0.63,0.03c-0.2,0.06-0.33,0.09-0.43,0.1c-0.29,0.02-0.24-0.15-0.45-0.28
			c-0.23-0.15-0.52-0.08-0.36,0.33c0.06,0.16-0.07,0.33-0.29,0.24c-0.27-0.11-0.35-0.14-0.63-0.23l0,0
			c-0.11-0.02-0.36-0.04-0.45-0.01l-0.13,0.09c0,0,0,0,0,0l0,0c-0.08,0-0.14,0.04-0.15,0.12c-0.05,0.23,0.41,0.2,0.5,0.39
			c-0.03,0.06-0.56,0.16-0.62,0.18c-0.07,0-0.14,0-0.19,0.02c-0.18,0.06-0.21,0.18-0.47,0.07c-0.18-0.08-0.52-0.23-0.51,0.19
			c0.01,0.24,0.44,1.04,0.57,1.17c0.23,0.24,0.65,0.28,0.78,0.32c0.07,0.02,0.49,0.23,0.71-0.02c0.05-0.06,0.07-0.12,0.06-0.17
			c0.62,0.05,0.56,0.01,0.65-0.18c0.44,0.77,0.39,0.57,0.54,0.79c0.1,0.14,0,0.4-0.15,0.43c-0.55,0.11-0.33-0.49-0.49-0.63
			c-0.08-0.07-0.83-0.17-0.41,0.57c0.09,0.17,0.12,0.3,0.44,0.26c0.82-0.1,0.24,0.78,0.29,1.41c0.04,0.52,0.55,1.09,0.96,1.56
			c0.39,0.45,1.22,0.83,1.9,0.45c0.49-0.27,0.3,0.49,0.32,0.55c0.08,0.25-0.1,0.24-0.04,0.45c0.37,0.25,0.72-0.37,0.4-0.76
			c0.36-0.01,0.49-0.04,0.75-0.29l0.01,0.26c0,0.54,0.48,0.96,0.15,1.11c-0.34,0.15-0.33-0.35-0.51-0.46c-0.4,0.08-0.05,0.35,0,0.57
			c-0.41,0.72-0.4-0.33-0.75,0.24c-0.23,0.38-0.47-0.09-0.57-0.17c-0.74-0.63-0.75,0.43-0.41,0.69c0.13,0.1,0.48,0.21,0.62,0.21
			c0.13,0,0.43-0.17,0.58,0.06c0.17,0.26-0.13,0.3,0.77,0.58c0.05,0.13-0.04,0.24,0.04,0.32c-0.37,0.29-0.49,0.72-0.2,1.14
			c0.51,0.75,0.37,1.06,1.36,1.64c0.5,0.3,0.4,0.63,1.08,0.42c0.13-0.28-0.01-0.78,0.32-0.96c0.48-0.27,0.33,0.76,0.93,2.16
			c-0.21,0.32-0.4,0.64-0.51,1.01c-0.28,0.99-0.04,0.28-0.5,0.81c-0.24,0.27,0.06,1.14,0.39,1.3c-0.1,0.22-0.18,0.45-0.26,0.68
			c-0.12-0.19-0.21-0.25-0.43-0.19c-0.11,0.29,0.02,0.42,0.18,0.69c0.5,0.84-0.36,1.18-0.33,0.47c0.02-0.65-0.29-1.53-0.45-2.19
			c-0.18-0.78-0.85-0.51-1.45-0.71c-0.41-0.14-0.31-0.94-0.61-0.89c-0.04,0.01-0.1,0.03-0.16,0.08c-0.01,0.25,0.27,0.35,0.37,0.59
			c0.2,0.48,0.04,0.22,0.34,0.71c0.34,0.55-0.17,0.59,0.49,1.1c-0.04,0.14-0.05,0.19,0.03,0.33c0.47,0.14,0.58,0.26,0.76,0.69
			c-0.01-0.13-0.15-0.69-0.12-0.74c0.32,0,0.61,1.08,0.11,1.18c0.27,0.39,0.05,0.65-0.41,0.65c0.45,0.96,0.19,1.32-0.15,1.83
			c-0.22,0.32,0.3,1.14,1.27-0.48c-0.19,0.63-1.11,1.64,0.17,1.91c0.7,0.15,1.42-1.4,1.55-1.93c-0.22-0.06-0.29-0.09-0.3-0.29
			c0.06-0.36,1.69-1.15,0.95-1.74c0.82-0.18,0.78-0.61,1.14-1.28c0.28-0.53,0.61-0.45,0.92-0.81c0.98-1.17,0.55-2.07,0.72-2.42
			c0.42-0.85,0.42-0.33,0.32-1.33c-0.07-0.66,1.34,0.42,1.06-0.64c0.12-0.09,0.3-0.18,0.38-0.31c0.04-0.06,0.07-0.12,0.09-0.16
			c0.01-0.05,0.02-0.08,0.01-0.12c-0.01-0.1-0.09-0.16-0.07-0.3c0.02-0.13,0.13-0.34,0.49-0.72c0.96-1.02,0.71-2.2,1.05-3.1
			c-0.07,0.72,0.07,1.14-0.11,1.91c-0.1,0.41,0.22,0.94,0.67-0.1c0.33-0.76,0.88-1.3,0.91-1.39c0.17-0.56,0.05-0.87-0.54-1.13
			c0.39-0.02,0.59-0.03,0.71-0.38c0.2-0.6,0.82-1.67,0.55-2.27c-0.29-0.65,0.65-1.25-0.01-1.33c-0.3,0.23-0.72,0.52-1.01,0.03
			c0.09-0.27,0.33-0.22,0.6-0.18c0.3,0.04,1.14-0.48-0.06-0.48c0.05-0.53,0.97-0.59,0.73-1.25c-0.33,0.45-0.12-0.01-0.53-0.09
			c-0.09,0.06-0.12,0.29-0.15,0.4c-0.17,0.57-0.67,0.8-0.88,0.39c-0.21-0.44,1.02-0.06,0.65-0.68c-0.61-1-0.22-0.82,0.03-1.62
			c0.01,0.29-0.35,1.22,0.16,1.3c0.55,0.09,0.69,0.35,0.88-0.09c0.04,0.3,0.19,0.8,0.57,0.39c0.26-0.29,0.23-0.47-0.05-0.74
			c-0.12-0.12-0.07-1.18-0.71-0.44c-0.16,0.19-0.57,0.23-0.49-0.13c0.1-0.45,0.22,0.15,0.76-0.8c0.16-0.29,0.45-0.12,0.59-0.62
			c-0.17-0.2-0.31-0.18-0.55-0.23c0.92-0.39,0.34-0.59,0.5-1.06c0.24-0.74,0.52-0.04,0.37-1.17c0.05-0.04,0.1-0.06,0.15-0.06
			c0.13,0.01,0.21,0.18,0.21,0.32c0.09,0.05,0.16,0.06,0.27,0.08c0.17-0.25,0.18-0.49-0.21-0.48c-0.32,0.01-0.58-0.56-0.41-0.78
			c0.02-0.03,0.06-0.06,0.1-0.07c0.09,0.04,0.15,0.08,0.23,0.14l0,0.24c0.08,0.08,0.16,0.09,0.27,0.09
			c0.72-0.83-1.18-0.56-0.43-1.09c0.19-0.14,0.38-0.57,0.02-0.62c-0.6-0.08,0.1-0.48,0.22-0.75c-0.23,0.06-0.5,0.01-0.37-0.27
			c0.23-0.5,0.48,0.06,1.47-0.52c-0.27,0.25-1.22,1.52-0.9,1.84c0.48,0.47,0.94-0.64,1.18-0.88c0.28-0.28,0.46-0.5,0.55-0.67
			c0.23-0.12,0.34-0.22,0.37-0.34c1.11-1.43,0.52-1.37,0.71-1.95C72.3,75.86,71.87,75.71,71.84,75.67z"/>
		<path class="st9" d="M42.89,66.01c0.12,0.47,0.49,0.6,0.74,0.98c0.18,0.26,0.16,0.25,0.42,0.37c-0.02,0.05-0.04,0.1-0.07,0.14
			l0.57,0.29c0.02,0.48,0.13,0.97,1.12,1.01c0.58,0.02,0.31,1.38,1.03,1.79l1.37,0.49c0.15,0.09,0.37-0.12,1.03,0.17l0.6,0.31
			l0.38,0.52c0.21,0.42,0.11,0.21,0.28,0.47l0.53,0.99l0.66,1.17c0.05,0.06,0.47,0.41,0.56,0.49c0.14,0.13,0.63,0.67,0.76,0.75
			c0.08,0.05,0.27,0.09,0.35,0.06c0.27-0.11,0.08-0.55,0.07-0.62c-0.02-0.21,0.12-0.83,0.24-0.99c0.07-0.1,0.15-0.12,0.25-0.14
			c0.19,0.29,0.21,0.26,0.49,0.17c0.35-0.11,0.42-0.12,0.8-0.21l1.03-0.11c0.25-0.05,0.21-0.13,0.67,0.07l0.39,0.17
			c0.44-0.07,0.22-0.22,0.48-0.21c0.13,0.01,0.24,0.09,0.37,0.11c0.06,0.01,0.66,0.04,0.75,0.03l0.54-0.03
			c0.36-0.05,0.25-0.12,0.61,0.04c-0.6-0.09-0.73,0.31-0.29,0.45c0.13,0.04,0.45,0,0.58-0.12c0.47-0.42,0.07-0.66,0.4-1.08
			c0.08-0.11,0.44-0.49,0.54-0.59c0.14,0.03,0.41-0.14,0.5-0.22c0.27-0.24,0.11-0.78-0.24-0.79c-0.31,0-0.24-0.33-0.12-0.41
			c0.51-0.38,1.24-0.27,1.33-1.08c0.17,0.06,0.27-0.03,0.39-0.11c0.02,0.3,0.27,0.51,0.56,0.33c-0.08,0.33,0.44,0.44,0.45,0.03
			l-0.06-0.29c0.22-0.44,0.52-0.9,0.52-1.41c0-0.27,0.04-0.23,0.04-0.33c0-0.07-0.11-0.57-0.13-0.81c0.28-0.03,0.21-0.32,0.46-0.43
			c0,0,0.18-0.02,0.21-0.15c0.04-0.17-0.25-0.2-0.36-0.34c-0.14-0.17-0.12-0.29-0.14-0.44c-0.03-0.28-0.07-0.59-0.42-0.74
			c-0.09-0.04-0.15,0.04-0.28-0.01c-0.2-0.08-0.38-0.39-0.44-0.57l-0.07-0.28c-0.03-0.26-0.01-0.3-0.21-0.53
			c-0.1-0.12-0.7-0.68-0.83-0.87c-0.12-0.17-0.01-0.11-0.31-0.42l-0.04,0.1c-0.55,0.07-0.64-0.05-1.28-0.34
			c-0.44-0.32-0.13-0.51-0.39-0.62c-0.08-0.04-0.21-0.03-0.25,0c-0.58-0.23-0.49-0.14-1.12,0.05l-0.5,0.12
			c-0.04-0.03-0.09-0.05-0.17-0.06c-0.08-0.02-0.27,0-0.33,0.02l-0.26,0.19l-1.11,0.4c-0.16-0.03-0.2,0.22-0.14,0.33
			c0.07,0.13,0.23,0.14,0.15,0.39l-0.21,0.48c-0.05,0.01-0.1,0.02-0.15,0.03c-0.38,0.09-0.13,0.71-0.05,0.93l-0.08,0.24
			c-0.26,0.72-0.21,0.43-0.68,0.43c-0.26,0-0.3,0.28-0.46,0.62c-0.14,0.01-0.29,0.05-0.55,0.04c-0.64-0.76-0.93-0.96-1.88-0.51
			c-0.08-0.02-0.17-0.02-0.24,0.02c-0.11-0.13-0.42-0.15-0.67-0.11c-0.39-0.12-1.15,0.01-1.49-0.41c-0.31-0.4,0.06-0.59-1.41-1.09
			c-0.12-0.06-0.32-0.08-0.64-0.02c-0.6,0.11-0.62-0.02-1.42-0.16l-1.12-0.18c-1.98,0.2-1.29-0.35-1.87-0.32
			c-0.32,0.02-0.72,0.5-0.4,0.9C42.98,65.05,42.73,65.39,42.89,66.01z"/>
		<path class="st9" d="M45.57,70.76c-0.79-0.17-0.84-0.89-1.78-0.82c-0.25,0.02-0.31,0.14-0.45,0.29c-0.18,0.52,0.3,0.58,0.76,1.01
			c0.92,0.85,0.34,0.45,1.44,1.12c0.19,0.11,1.38,0.95,1.46,0.37c0.04-0.28-0.8-0.68-0.87-0.99C46.1,71.63,46.35,70.93,45.57,70.76z
			"/>
		<path class="st9" d="M70.86,69.81c0.12-0.21,0.4,0.38,0.49,0.1c0.06-0.18-0.04-0.18-0.13-0.42c-0.11-0.31-0.33,0.02-0.42,0.04
			c-0.09,0.02-0.16-0.09-0.42,0.01C70.55,69.78,70.73,69.58,70.86,69.81z"/>
		<path class="st9" d="M69.31,69.41c-0.33-0.01-0.09,0.33-0.21,0.4l-0.06,0.02c-0.17-0.1-0.08-0.32-0.1-0.7
			c-0.01-0.16,0.14-0.36-0.18-0.37c-0.09,0.11-0.09,0.12-0.06,0.24c0.28,0.21-0.18,0.26,0.07,0.49c-0.08,0.05-0.51,0.56-0.26,0.89
			c0.24,0.33,0.18,0.59,0.54,0.36c0.57-0.37,0.96-0.21,1.09-0.48c0.04-0.08,0.04-0.17,0.13-0.22c0.05,0.02,0.03,0,0.08,0.04
			c0,0.1-0.19,0.45,0.09,0.49c0.23,0.03,0.14-0.28,0.38-0.43c0.03,0.21,0.08,0.53,0.27,0.56c0.43-0.29-0.23-0.8-0.23-0.8
			c-0.11-0.14,0.03-0.15-0.23-0.2c-0.17-0.03-0.22-0.06-0.28-0.17c0.4-0.37,0.05-0.56,0.06-0.78c0.01-0.16,0.16-0.27-0.21-0.36
			c-0.18,0.11-0.73-0.65-0.79,0.04c-0.01,0.15,0.1,0.2,0.1,0.45c0,0.33,0.07,0.44,0.48,0.61c0.08,0.09,0.2,0.16,0.14,0.34
			c-0.14,0.43-0.57,0.19-0.57,0.05C69.56,69.89,69.76,69.43,69.31,69.41z"/>
		<path class="st9" d="M69.52,72.55c-0.06-0.19-0.48-0.39-0.61-0.14l-0.07,0.27c0.26,0.11-0.02,0.4,0.23,0.42
			c0.19,0.01,0.07-0.12,0.34,0.07c0.15,0.11,0.28-0.01,0.16-0.21C69.43,72.71,69.58,72.73,69.52,72.55z"/>
		<path class="st9" d="M68.95,51.15c-0.2,0.36-0.51,0.2-0.71,0.27c-0.18,0.06-0.03,0.08-0.4-0.02c-0.32-0.09-0.2,0.13-0.43,0.12
			c-0.1-0.01-0.13,0.1-0.07,0.16c0.07,0.08,0.2,0.29,0.29,0.14c0.25-0.44,0.1,0.13,1.13-0.27c0.51,0.32,0.45-0.03,0.55-0.47
			C69.06,50.8,68.99,51.05,68.95,51.15z"/>
		<path class="st9" d="M67.68,50.43c-0.11,0.1-0.27,0.39-0.46,0.29c-0.04-0.11-0.04-0.11-0.11-0.16c-0.29,0.06-0.01,0.32-0.23,0.42
			c-0.43,0.2,0.26,0.8,0.33,0.3c0.35-0.55,0.85-0.43,1.22-1.05c0.13-0.21,0.24-0.87-0.14-0.9c-0.17,0.17-0.04,0.14-0.25,0.23
			c-0.17,0.07-0.17,0.02-0.18,0.21c0.14,0.14,0.59-0.12,0.42,0.2C67.87,50.04,68.12,50.05,67.68,50.43z"/>
		<path class="st9" d="M66.65,50.28c-0.19,0.02-0.31,0.22-0.26,0.37c0.16,0.08,0.17-0.02,0.27-0.04c0.03,0,0.21,0.02,0.28-0.22
			C67.02,50.13,66.75,50.27,66.65,50.28z"/>
		<path class="st9" d="M65.72,52.17c-0.04,0.09,0.18,0.28,0.35,0.19c0.14-0.07,0.09-0.1,0.33-0.15c0.47-0.09,0.15-0.34,0.24-0.44
			c0,0,0.27-0.19-0.01-0.34c-0.16-0.08-0.03-0.09-0.08-0.24c-0.03-0.09-0.25-0.16-0.36-0.03c0,0-0.09,0.17-0.13,0.21
			c-0.04,0.03-0.26,0.09-0.22,0.31c0.02,0.11,0.13,0.19,0,0.33C65.74,52.11,65.79,52.01,65.72,52.17z"/>
		<path class="st9" d="M65.38,52.74c0.02,0.27-0.35,0.13,0.01,0.41c0.39,0.29,0.51-0.03,0.13-0.18c0.19,0,0.36,0,0.42-0.25
			C66.04,52.34,65.34,52.28,65.38,52.74z"/>
		<path class="st9" d="M63.81,53.08c-0.27-0.14-0.35,0.3,0.23,0.4c0.26,0.04,0.03-0.08,0.27,0.06c0.15,0.1,0.18-0.01,0.25-0.11
			c-0.14,0.31,0.33,0.27,0.38,0.24c0.03-0.02,0.14-0.13,0.02-0.25c0.18,0.01,0.48,0.23,0.53,0.03c0.04-0.17-0.22-0.23-0.34-0.25
			C64.7,53.41,64.37,53.37,63.81,53.08z"/>
		<path class="st9" d="M88.62,38.88c0.03-0.11,0.23-0.58-0.14-0.66c-0.39-0.09-0.58,1.22-0.97,0.97c-0.21-0.14,0.72-0.78,0.56-1.29
			c-0.06-0.19-0.67-0.4-0.82,0.48c-0.05,0.31,0.01,0.35-0.25,0.48c-0.53-0.2,0.23-0.94-0.24-1.28c-0.17-0.12-0.34,0.01-0.38,0.02
			c-0.36,0.14-0.25-0.13-0.53,0.34c-0.22,0.38-0.36-0.22-0.65,0.65c-0.07,0.22-0.08,0.47-0.05,0.7c-0.31-0.4-0.34-0.45-0.42-0.99
			c-0.11-0.75,0.01-0.5,0.01-0.9l-0.05-0.32c-0.02-0.25,0.08-1.39-0.22-1.28c-0.17,0.07,0.05,0.62,0.01,1.11
			c-0.04,0.45-0.03,0.44-0.12,0.86c-0.1,0.52,0.09,1.31,0.37,1.81c0.17,0.3,0.47,0.64,0.39,0.98c-0.27-0.13-0.25-0.28-0.32-0.35
			l-0.18-0.1c-0.29,0.57,0.33,0.67,0.23,1.11c-0.14,0.62-0.77,0.11-0.86,1.37c-0.34,0.77-0.47,0.1-0.63,0.57l0.18,0.33
			c-0.13,0.28-0.18,0.24-0.44,0.29c-1.01,0.19-1.11,0.62-1.45,0.52c-0.59-0.18-0.17-0.24-0.68,0.04c-0.35,0.19-0.56-0.13-0.76,0.06
			c-0.7,0.67-0.14-0.01-0.94,0.54l-0.38-0.05c-0.34-0.46,0.84-0.21,1.16-0.65l0.02-0.04c0.18-0.36-0.14-0.18-0.32-0.1
			c-0.03,0.01-0.78,0.17-0.82,0.17c-0.19,0.01-0.63-0.05-0.79-0.16c-0.13-0.1-0.44-0.42-0.86-0.54c-0.17-0.05-0.62-0.09-0.79-0.04
			c-0.15,0.04-0.22,0.15-0.55,0.01c-0.15-0.06-0.24-0.12-0.46-0.11c-0.58,0.03-0.53,0.31-0.74,0.45l-0.28,0.12
			c-0.76-0.01-0.81,0.01-1.49,0.15c-0.33,0.06-0.27-0.13-0.23-0.18l0.27-0.19c-0.85,0.28-0.8,0.63-1.42,0.45
			c-0.49-0.14-1.06,0.16-0.62,0.41c0.29,0.17,0.33-0.2,0.57-0.19c0.48,0.01,0.17,0.12,0.87-0.03c0.2-0.04,0.21,0.07,0.71-0.03
			c0.33-0.07,0.5-0.1,0.79,0.08c-0.52,0.24-0.25,0.15-0.86,0.2c-1.16,0.1-2.32,0.5-2.41,0.51c-0.55,0.05-0.92-0.52-1.76,0.04
			c-0.02,0.01-1.13,0.82-1.18,0.89c-0.18,0.27,0.26,0.42-0.13,0.68c-0.14,0.09-0.42,0.11-0.59,0.12c-0.27-0.09-0.34,0.06-0.41,0.2
			c-0.19,0.35-0.21,0.31-0.6,0.5l-0.45,0.25c-0.12-0.15-0.39-0.24-0.58-0.13c-0.07,0.04-0.27,0.29-0.47,0.43
			c-0.08,0.05-0.15,0.09-0.22,0.09c0,0-0.44-0.08-0.44,0.19c0,0.16,0.33,0.2,0.43,0.28c0.1,0.12,0.11,0.2-0.02,0.3
			c-0.37-0.05-0.3-0.18-0.68-0.01c-0.04-0.01-0.09-0.03-0.13-0.04c-1.13-0.3-0.77-0.44-1.2-0.92c0.02-0.05,0.03-0.1,0.04-0.17
			c0.04-0.26-0.24-0.54-0.71-0.57c-0.39-0.02-0.38-0.05-0.68-0.24c0.05-0.07,0.06-0.14-0.03-0.24c-0.26-0.29-0.88,0.06-0.88,0.06
			c-0.03,0.01-1.11-0.01-1.24-0.03c-0.25-0.02-1.08-0.21-1.29-0.15c-0.16,0.04-0.54,0.4-1.59,0.67c-0.08-0.05-0.18-0.08-0.29-0.09
			c-0.59-0.04-0.55-0.34-0.84-0.45c-0.05-0.02-0.14,0.01-0.27-0.11c-0.28-0.26-0.04,0.04-0.66-0.32c-0.59-0.34-0.03-0.27-1.34-0.79
			c-0.33-0.13-1.12-0.81-1.19-0.91c-0.11-0.18,0-0.32-0.41-0.28c-0.47,0.04-0.43-0.39-1.17-0.59c-0.47-0.13-0.44-0.02-0.74-0.44
			c-0.3-0.42-1.13-1.04-1.63-0.92c0,0-0.5,0.25-0.56,0.26c-0.27,0.06-0.26-0.1-0.59,0.26c-0.39,0.42-0.46,0.18-0.68,0.86
			c-0.05,0.1-0.1,0.22-0.15,0.36c-0.02,0.06-0.05,0.56,0.42-0.11c0.25-0.36,1.02-0.58,1.24-0.23c0.4,0.63,0.41,1.41,0.8,1
			c0.53-0.55,0.37,0.31,0.67,0.58c0.19,0.17-0.03,0.58,0.29,0.61c0.17,0.01,0.23-0.27,0.26-0.38c0.36-0.07,0.64,0.23,0.2,0.25
			c-0.12,0-0.49,0.34-0.11,0.55c0.65,0.36-0.32,1.36,0.51,1.64c0.24,0.08,0.19-0.06,0.5,0.1c-0.14,0.22-0.13,0.58,0.15,1.03
			c0.68,1.04,0.73,1.47,1.37,1.65c1.03,0.29,0.45,1.78,0.46,1.85c0.12,0.49,1.19,1.19,1.65,1.41l0.82,0.38
			c0.09,0.55,0.51,1.15,1.04,1.46c0.9,0.37,1.02,0.04,1.22-0.18c0.61,0.03,0.7-0.48,0.94-0.79c0.19-0.25,0.14-0.29,0.09-0.53
			c0.54,0.38,0.88-0.29,0.87-0.36c0,0-0.42-0.98,0.07-1.05c0.46-0.06,0.37,1,0.92,0.85c0.18-0.05,0.01-0.2,0.63,0L60.56,54
			c0.28,0.01,0.45-0.09,0.57-0.22c0.14-0.15,0.2-0.34,0.26-0.43c0.43-0.61,0.66,0.03,1.04-0.56c0.4,0.18,0.65-0.35,0.65-0.35
			c0.18-0.17,0.31,0.03,0.33-0.33c0.02-0.31,0.33-0.54,0.47-0.56c0.67-0.11,0.38-0.12,0.33-0.73c0.07,0.2,0.17,0.36,0.34,0.27
			c0.21-0.11-0.03-0.48-0.04-0.65c-0.02-0.65-0.18-0.43-0.38-0.74c-0.05-0.08-0.06-0.16-0.09-0.24c0.11-0.26,0.17-0.08,0.32-0.18
			c0.25-0.17,0.04-0.56,0.21-0.72l0.31-0.17c0.17-0.05,0.29,0.03,0.41-0.09c0.92,0.44,0.77,0.81,1.24,0.66l0.15-0.13
			c0.11-0.14,0.24-0.57,0.31-0.83l0.07,0.02c0.69,0.19,0.75,0.83,1.39,0.89c0.19-0.07,0.27-0.16,0.29-0.37
			c0.07-0.62-0.94-0.59-0.62-1.23c0.12-0.25,0.38-0.51,0.69-0.55l0.62,0.02c0.52,0.08,0.77,0.43,1.04,0.48
			c0.26,0.27,0.26,0.06,0.55,0.2c0.29,0.14,0.29,0.33,0.36,0.69c0.11,0.59-0.73,0.91-0.51,1.2c0.15,0.21,0.33,0.07,0.05,0.69
			c-0.1,0.21-0.33,0.54-0.6,0.54c0,0-1.16-0.24-1.34-0.2c-0.09,0.02-0.49,0.31-0.05,0.46c0.61,0.22,1.58,0.07,1.89,0.75
			c0.14,0.3,0.23,1.42,1.14,1.54l0.32,0c-0.17,0.04-0.52,0.1-0.21,0.44c0.1,0.11,0.44,0.27,0.45,0.49l-0.2,0.78
			c0.97-0.25,0.63,0.57,0.66,1.06c0.01,0.16,0,0.35,0.15,0.46c0.21,0.16,0.46,0.06,0.63-0.06c-0.02,0.3-0.24,0.26-0.17,0.48
			c0.34,0.19,0.49-0.09,0.55-0.33c0.07-0.24,0.03-0.33-0.01-0.58c-0.05-0.29-0.01-0.22-0.15-0.41c-0.05-0.09-0.14-0.14-0.22-0.2
			c0.58-0.13,0.44,0.38,0.58,0.69c0.33,0.69,0.21,0.52-0.26,1.44c-0.29,0.57-0.07,0.58-0.1,1.18c-0.02,0.42,0.41,0.71,1.09,0.07
			c0.44-0.41,1.67-0.35,1.79-0.53c0.13-0.19-0.61-1.05-0.04-1.3c0.37-0.16,0.57,0.62,1.1,0.17c0.41-0.35,0.58-0.16,0.84-0.79
			c0.19-0.45,0.2-0.51-0.15-0.63c-0.3,0.13-0.74,0.21-0.56-0.26l-0.11-0.15l-0.17,0.1c-0.81,0.47-0.92-0.57-0.92-0.57
			c-0.22-0.56-0.51-0.03-0.91-0.67c0.06-0.15,0.1-0.34,0.31-0.42c0.68-0.26,0.76,0.8,1.33-0.31c0.34-0.67,1.48-0.65,0.81-1.38
			c0.36,0.02,0.15,0.01,0.44,0.09c0.45,0.13,0.48-0.12,0.58-0.16c0.27-0.11,0.69,0.28,0.83,0.68c0.06,0.17-0.1,1.53,0.32,1.26
			c-0.26,0.52,0.4,0.58,0.77,0.3c0.05,0.67,0.75,0.25,0.44-0.19c0.44-0.04,0.45-0.46,0.32-0.65c-0.2-0.3,0.26-0.59-0.36-0.53
			c-0.15,0.02-0.45-0.2,0.04-0.35c0.71-0.23,0.45-0.72,0.96-1.47c0.58-0.86,0.11-0.7-0.5-0.7c1.09-0.15,1.03-0.82,1.37-1.37
			c0.19-0.31,0.26,0.04,0.52-0.29c0.36-0.46,0.81-0.78,0.78-1.42c-0.03-0.54,0.39-0.5,0.52-0.55c0.85-0.35-0.66-1.17,1.17-2.82
			c0.11-0.17,0.75-1.12,0.81-1.24c0.2-0.37,0.11-0.35,0.47-0.82c0.46-0.59,0.66-0.96,0.75-1.76l0.05-0.63
			C88.62,39.11,88.55,39.13,88.62,38.88z"/>
		<path class="st9" d="M73.07,56.45c-0.26-0.28-0.06-0.65-0.44-0.7c-0.24-0.03-0.35,0.21-0.29,0.38c0.08,0.21,0.15,0.06,0.18,0.72
			c0.01,0.29,0,0.53,0.28,0.65c0.3,0.12,0.31-0.18,0.31-0.2c-0.02-0.11-0.13-0.08-0.06-0.32C73.13,56.71,73.16,56.7,73.07,56.45z"/>
		<path class="st9" d="M73.61,58.75c0.13,0.07,0.12,0.09,0.16,0.22l0.07-0.41c-0.21-0.13-0.08-0.08-0.29-0.33
			c-0.11-0.14-0.05-0.53-0.47-0.58c-0.24-0.03-0.16,0.28-0.45,0.51c-0.3,0.23-0.03,0.4-0.31,0.5c-0.13,0.04-0.4,0.13-0.08,0.37
			c0.23,0.16,0.48,0.24,0.75,0.13C73.31,59.02,73.01,58.41,73.61,58.75z"/>
		<path class="st9" d="M86.44,47.56c-0.24-0.16-0.31-0.11-0.42-0.33c-0.18-0.37-0.41,0.02-0.47,0.07c-0.09,0.07-0.18,0.04-0.33,0.31
			c-0.28,0.49,0.08,0.53,0.22,0.95c0.06,0.19-0.08,0.23-0.1,0.47c0,0.08,0.07,0.3,0.3,0.1c0.27-0.3,0.11-0.32,0.21-0.49
			c0.09-0.16,0.25,0.03,0.43-0.31c0.11-0.21-0.05-0.13,0.12-0.51C86.46,47.66,86.45,47.72,86.44,47.56z"/>
		<path class="st9" d="M86.73,48.03c-0.23-0.09-0.45,0.81-0.45,0.88c0,0.11,0.03,0.24-0.09,0.3c-0.19-0.06-0.08-0.06-0.24-0.08
			c-0.09,0.07-0.15,0.28-0.12,0.34c0,0,0.24,0.31,0.33,0.33l0.19-0.02c0.38-0.46,0.3-0.82,0.42-1.27
			C86.8,48.4,86.93,48.11,86.73,48.03z"/>
		<path class="st9" d="M86.11,49.87c-0.14-0.13-0.4-0.53-0.53-0.27c-0.05,0.1,0.02,0.1-0.12,0.15c-0.26,0.1-0.65,0.77-0.05,0.77
			c0.27,0,0.25-0.25,0.43-0.32C85.84,50.19,86.27,50.13,86.11,49.87z"/>
		<path class="st9" d="M82.98,51.12c-0.04,0.14-0.01,0.21,0.14,0.28c-0.15,0.36,0.12,0.36,0.21,0.14c0.15-0.36,0.12-0.58,0.42-0.45
			c0.04,0.09,0.03,0.09,0.01,0.19c0.05,0.06,0.07,0.07,0.15,0.08c0.29-0.28,0.44,0.03,0.55-0.43c0.09-0.35-0.27,0.04-0.46-0.18
			c0.12-0.37,0.23-0.02,0.47-0.45c0.16-0.29,0.06-0.29,0.31-0.31c0.39-0.03,0.12-0.53,0.04-0.69c0.28,0.32,0.46,0.07,0.36-0.21
			c-0.06-0.2,0.19-0.53-0.04-0.61c-0.32-0.11-0.15,0.73-0.46,0.57c0.02-0.07,0.26-0.46,0.05-0.48c-0.24-0.02-0.31,0.94-0.6,1.27
			c-0.5,0,0.1-0.52,0.4-1.54c-0.29,0.36-0.37,0.42-0.69,0.75c-0.27,0.42-0.72,1.04-0.47,1.57l0.07,0.13
			C83.21,50.67,83.09,50.78,82.98,51.12z"/>
		<path class="st9" d="M85.99,50.54c-0.15,0.33-0.21,0.63-0.15,0.66c0.07,0.03,0.24-0.22,0.39-0.55c0.15-0.33,0.21-0.63,0.15-0.66
			C86.31,49.96,86.14,50.21,85.99,50.54z"/>
		<path class="st9" d="M85.68,50.72c-0.19-0.09-0.16-0.01-0.27-0.11l0-0.07c-0.58,0.01-0.09-0.22-0.46,0.48
			c-0.11,0.2-0.36,0.64,0.05,0.71c0.34,0.05,0.09-0.6,0.43-0.54C85.65,51.22,85.91,51.06,85.68,50.72z"/>
		<path class="st9" d="M85.3,51.86c-0.09,0.2-0.1,0.39-0.03,0.42c0.07,0.03,0.2-0.11,0.29-0.3c0.09-0.2,0.1-0.39,0.03-0.42
			C85.52,51.52,85.39,51.66,85.3,51.86z"/>
		<path class="st9" d="M85.09,52.09c0.03-0.07-0.07-0.18-0.22-0.25c-0.15-0.07-0.31-0.07-0.34,0c-0.03,0.07,0.07,0.18,0.22,0.25
			C84.91,52.17,85.06,52.17,85.09,52.09z"/>
		<path class="st9" d="M83.97,51.79c-0.19-0.06-0.3,0.22-0.34,0.3c-0.17,0.41-0.29,0.08-0.43,0.5c-0.2,0.6,0.54,0.53,0.68,0.42
			c0.12-0.09,0.09-0.34,0.09-0.38C84,52.38,84.33,51.91,83.97,51.79z"/>
		<path class="st9" d="M82.44,51.93c-0.15,0.05-0.23,0.38-0.5,0.46c-0.05,0.01-0.36,0.01-0.36,0.23c0.03,0.03,0.02,0.02,0.09,0.04
			c0.34,0.01,0.26-0.07,0.57,0.04C83.02,52.96,82.89,51.78,82.44,51.93z"/>
		<path class="st9" d="M82.79,52.9c-0.05-0.02-0.13-0.03-0.18-0.04c-0.32-0.04-0.33,0.32-0.36,0.48c-0.02,0.12-0.12,0.38,0.19,0.41
			c0.12,0.01,0.14-0.02,0.27-0.1c0.17-0.1,0.5-0.25,0.24-0.51C82.8,52.98,82.95,52.97,82.79,52.9z"/>
		<path class="st9" d="M82.98,54.25c0.07,0.11,0.2,0.14,0.3,0.06c0.19-0.15,0.23-0.35,0.54-0.37l0.11,0
			c0.08-0.16,0.15-0.28,0.15-0.46c-0.26-0.26-0.23,0.3-0.44,0.3c-0.08,0-0.19-0.05-0.24-0.11c0.02-0.12,0.03-0.2-0.14-0.26
			c-0.15-0.05-0.29,0.1-0.3,0.15c-0.03,0.16,0.18,0.1,0.26,0.08C83.06,53.81,82.83,54.01,82.98,54.25z"/>
		<path class="st9" d="M84.31,52.69c-0.14,0.32-0.16,0.62-0.03,0.67c0.12,0.05,0.34-0.16,0.48-0.48c0.14-0.32,0.16-0.62,0.03-0.67
			C84.66,52.16,84.45,52.37,84.31,52.69z"/>
		<path class="st9" d="M85.59,52.21c-0.09,0.16-0.1,0.19-0.26,0.29c-0.08,0.05-0.13-0.04-0.33,0.36c-0.05,0.09-0.14,0.25-0.03,0.34
			c0.25,0.08,0.28-0.08,0.4-0.14c0.23-0.13,0.22-0.39,0.32-0.44c0.23-0.1,0.46-0.61,0.19-0.63C85.84,51.99,85.63,52.13,85.59,52.21z
			"/>
		<path class="st9" d="M85.41,53.41c-0.06,0.14-0.06,0.28,0.01,0.31c0.07,0.03,0.17-0.06,0.24-0.2c0.06-0.14,0.06-0.28-0.01-0.31
			C85.58,53.18,85.48,53.27,85.41,53.41z"/>
		<path class="st9" d="M84.79,54.07c0.11,0.05,0.27-0.09,0.37-0.3c0.09-0.21,0.08-0.42-0.02-0.47c-0.11-0.05-0.27,0.09-0.37,0.3
			C84.67,53.81,84.68,54.02,84.79,54.07z"/>
		<path class="st9" d="M84.4,54.02c0.09-0.21,0.11-0.4,0.03-0.44c-0.07-0.03-0.21,0.11-0.3,0.32c-0.09,0.21-0.11,0.4-0.03,0.44
			C84.17,54.37,84.31,54.23,84.4,54.02z"/>
		<path class="st9" d="M81.98,55.52c-0.29-0.23,0.23-0.65,0.59-0.33c0.07,0.06,0.08,0.14,0.1,0.24c0.1-0.21,0.27-0.51,0-0.8
			c-0.24-0.26-0.72-0.38-0.92,0.13c-0.27,0.68-0.36,1.27-0.85,1.94c-0.03,0.05-0.03,0.07-0.03,0.07c-0.01,0-0.07,0.04-0.34,0.34
			c-0.06,0.04-0.46,0.31-0.65,0.26c-0.49-0.12,0.08-0.58-0.41-0.71c-0.25-0.07-0.42,0.18-0.71,0.39c-0.39,0.28-0.21,0.14-0.36,0.19
			c0,0-1.17,0.62-0.79,0.82c0.35,0.19,0.57-0.68,0.82-0.46c0.24,0.21-0.41,0.42-0.51,0.51c-0.34,0.31,0.19,0.59,0.41,0.33
			c0.02-0.02,0.54-0.75,0.73-0.38c0.18,0.35-0.58,0.72-0.64,0.8c-0.07,0.11,0.01,0.18,0.02,0.26c0,0-0.05,0.33,0.22,0.29
			c0.14-0.02,0.24-0.43,0.24-0.43c0.04-0.07,0.68-0.84,1.04-0.87c0.19-0.02,0.27,0.09,0.43-0.2c0.15-0.26,0.12-0.18,0.39-0.41
			c0.72-0.59,0.5-0.25,0.74-0.36c0.06-0.03,0.21-0.2,0.06-0.28c-0.17-0.09-0.2-0.13-0.14-0.3c0.17-0.58,0.58,0.14,0.85-0.41
			C82.55,55.64,82.03,55.55,81.98,55.52z"/>
		<path class="st9" d="M81.94,58.35c-0.22,0.11-0.37,0.66-0.73,0.74c-0.83,0.17-0.67,1.38-1.2,1.78c-0.04,0.03-0.81,0.37-0.89,0.41
			c-1.05-0.3-0.72,0.03-1.17,0.33c-0.2,0.13-0.79,0.18-1.13-0.22c0.08-0.44,0.13-0.5-0.25-0.75c-2.05,0.16-0.63-0.04-2.07-0.07
			c-1.06-0.02-0.5,0.36-1.04,0.54c-0.32,0.11-0.79,0.15-0.34,0.8c0.67,0.98,1.48,0.78,1.36,1.82c-0.31,1.07,0.73,0.78,0.31,1.64
			c-0.45,0.92-0.27,1.12-0.11,1.56c-0.17,0.09-0.33,0.22-0.37,0.24c0,0-0.45-0.33-0.36,0.11c0.02,0.08-0.03,0.14-0.07,0.21
			c-0.43,0.49-0.24,0.75-0.31,1.29c-0.07,0.56,0.16,0.5,0.62,0.3c0.69-0.29,0.27-1.17,0.4-1.32c0.08-0.09,0.17-0.08,0.25-0.13
			c0,0.01,0,0.02,0,0.03c1.24,0.46,0.66-0.74,1.24-0.27c0.04,0.52-0.31,0.6,0.3,0.95c0.46,0.26,1.11,0.04,1.27,0.78
			c0.09,0.38-0.08,0.22,0.27,0.53c0.38,0.35-0.09,1.18-0.06,1.41l0.15,0.37c0.14-0.27,0.6-1.22,0.63-1.45
			c0.03-0.22-0.16-0.58,0.23-0.68l0.18,0.09c0.18,0.47,0.44,0.31,0.48,0.25l1.04-2.43c0.2-0.37,0.44-0.47,0.3-0.96
			c-0.18-0.64,0.29-0.43-0.03-1.2c-0.21-0.51,0.24-0.38,0.67-1.31c0.47-1.02,0.37-0.89,0.59-1.87c0.09-0.41,0.27-0.39,0.02-1.11
			c-0.45-1.26-0.16-0.76,0.2-1.8C82.53,58.3,82.02,58.31,81.94,58.35z"/>
		<path class="st9" d="M79.17,56.04c-0.07,0.16-0.03,0.34,0.1,0.4c0.13,0.06,0.29-0.03,0.37-0.19c0.07-0.17,0.03-0.34-0.1-0.4
			C79.41,55.79,79.24,55.88,79.17,56.04z"/>
		<path class="st9" d="M80.01,56.55c-0.05,0.11-0.04,0.23,0.03,0.26c0.07,0.03,0.17-0.04,0.22-0.15c0.05-0.12,0.04-0.23-0.03-0.26
			C80.16,56.37,80.06,56.44,80.01,56.55z"/>
		<path class="st9" d="M79.14,55.89c0.07-0.15,0.08-0.29,0.04-0.31c-0.04-0.02-0.14,0.09-0.2,0.24c-0.07,0.15-0.08,0.29-0.04,0.31
			C78.99,56.14,79.08,56.04,79.14,55.89z"/>
		<path class="st9" d="M78.72,55.18c-0.04,0.09,0,0.2,0.09,0.24c0.09,0.04,0.2,0,0.24-0.1c0.04-0.09,0-0.2-0.09-0.24
			C78.87,55.05,78.77,55.09,78.72,55.18z"/>
		<path class="st9" d="M79.23,54.33c-0.22,0.12-0.22,0.38-0.07,0.53c0.27,0.28,0.09,0.19,0.14,0.46c0.03,0.17,0.4,0.38,0.43-0.19
			c-0.12-0.06-0.13-0.05-0.16-0.15c-0.33-0.15-0.04-0.25-0.07-0.44C79.47,54.45,79.31,54.37,79.23,54.33z"/>
		<path class="st9" d="M79.82,55.06c0.23-0.03,0.24-0.39,0.5-0.38c0.24,0.01,0.3-0.12,0.21-0.31c-0.23-0.11-0.48-0.6-0.78-0.18
			c-0.15,0.22-0.03,0.35-0.05,0.54C79.71,54.73,79.55,55.09,79.82,55.06z"/>
		<path class="st9" d="M80.36,55.13c-0.13,0.38,0.23,0.56,0.48,0.52c0.09-0.02,0.48-0.1,0.53-0.16l0.16-0.34
			c-0.58-0.16-0.07-0.5-0.54-0.71c-0.23-0.1-0.32,0.23-0.29,0.35l0.05,0.16C80.52,54.89,80.44,54.88,80.36,55.13z"/>
		<path class="st9" d="M83.76,54.64c0.25-0.1,0.23-0.21,0.16-0.41c-0.35,0.46-0.31-0.54-1.14,1.63c-0.09,0.24-0.59,0.65-0.19,0.79
			C83.39,56.94,82.82,55.01,83.76,54.64z"/>
		<path class="st9" d="M85,55.66c-0.35-0.06-0.2,1.02-0.54,1.27c-0.14,0.11-0.28,0.14-0.36,0.48c-0.1,0.41,0.11,0.14-0.29,0.94
			c-0.1-0.44-0.02-0.5,0.15-1c0,0,0.51-1.23,0.16-1.08c-0.04,0.02-0.23,0.27-0.29,0.39l-0.16,0.36c-0.3-0.65-0.06-0.3,0.18-0.62
			c0.03-0.04,0.05-0.07,0.06-0.09c0.04-0.1-0.06-0.17-0.14-0.08c-0.25,0.3-0.38-0.09-0.17-0.34c0,0,0.28-0.24,0.04-0.3
			c-0.27-0.07-0.3,0.61-0.52,0.94c-0.03,0.05-0.08,0.11,0.02,0.15c0.24-0.11,0.3,0.09,0.21,0.17c-0.14,0.11-0.53,0.34-0.17,0.68
			c-0.02,0.05-0.25,0.46-0.07,0.48c0.22,0.02,0.17-0.78,0.43-0.65c0.08,0.04,0.17,0.44-0.09,0.69c-0.31,0.3-0.13,0.34-0.24,0.66
			c-0.11,0.34,0.06,0.13-0.05,0.42c-0.04,0.09-0.2,0.63-0.12,0.69c0.18,0.15,0.21-0.45,0.4-0.32c0.17,0.12-0.35,0.8-0.49,0.94
			c-0.28,0.27-0.39,0.89-0.04,0.8c0.07-0.02,0.08-0.06,0.11-0.12c0.42-1.06,0.45-0.68,0.82-1.56c0.32-0.74,0.64-1.22,0.67-1.9
			C84.55,56.88,85.43,55.73,85,55.66z"/>
		<path class="st9" d="M85.04,54.16c-0.07,0.05-0.07,0.21-0.27,0.29c-0.23,0.09-0.28,0.03-0.46,0.43c-0.23,0.5-0.06,0.53-0.14,0.86
			c-0.07,0.26-0.13,0.36,0.13,0.36c0.24-0.43,0.18-0.15,0.43-0.53c0.15-0.24,0.05-0.19,0.3-0.24c0.28-0.06,0.4-0.33,0.47-0.57
			C85.69,54.12,85.14,54.09,85.04,54.16z"/>
	</g>
</g>
</svg>
