<?xml version="1.0" encoding="utf-8"?>
<!-- Generator: Adobe Illustrator 23.0.1, SVG Export Plug-In . SVG Version: 6.00 Build 0)  -->
<svg version="1.1" xmlns="http://www.w3.org/2000/svg" xmlns:xlink="http://www.w3.org/1999/xlink" x="0px" y="0px"
	 viewBox="0 0 1850.87 1195.52" style="enable-background:new 0 0 1850.87 1195.52;" xml:space="preserve">
<style type="text/css">
	.st0{opacity:0.19;}
	.st1{fill:#FA5A3A;}
	.st2{fill:#FFFFFF;}
	.st3{fill:#3D4D5C;}
	.st4{fill:#606C7A;}
	.st5{fill:#3F4C51;}
	.st6{fill:#FDFFFF;}
</style>
<g id="Layer_3">
</g>
<g id="Layer_12">
</g>
<g id="Layer_13">
	<g>
		<g>
			<path class="st0" d="M883.31,735.14L883.31,735.14c-14.91,3.83-30.25-5.23-34.08-20.14l-18.89-73.46
				c-3.83-14.91,5.23-30.25,20.14-34.08l0,0c14.91-3.83,30.25,5.23,34.08,20.14l18.89,73.46
				C907.29,715.97,898.22,731.3,883.31,735.14z"/>
			<path class="st1" d="M878.65,732.84L878.65,732.84c-14.91,3.83-30.25-5.23-34.08-20.14l-18.89-73.46
				c-3.83-14.91,5.23-30.25,20.14-34.08h0c14.91-3.83,30.25,5.23,34.08,20.14l18.89,73.46C902.62,713.67,893.56,729,878.65,732.84z"
				/>
			<path class="st2" d="M889.41,662.01l-54.35,13.98l-9.44-36.72c-3.84-14.95,5.24-30.32,20.19-34.16l0,0
				c14.95-3.84,30.32,5.24,34.17,20.19L889.41,662.01z"/>
			<path class="st0" d="M845.82,611.34c0,0-18.62,9.24-10.2,35.26C835.62,646.6,831.29,625.28,845.82,611.34z"/>
		</g>
		<g>
			<path class="st0" d="M910.41,676.36L910.41,676.36c-11.39-10.36-12.23-28.15-1.88-39.54l51.03-56.12
				c10.36-11.39,28.15-12.23,39.54-1.88l0,0c11.39,10.36,12.23,28.15,1.88,39.54l-51.03,56.12
				C939.59,685.88,921.8,686.72,910.41,676.36z"/>
			<path class="st1" d="M909.77,671.2L909.77,671.2c-11.39-10.36-12.23-28.15-1.88-39.54l51.03-56.12
				c10.36-11.39,28.15-12.23,39.54-1.88l0,0c11.39,10.36,12.23,28.15,1.88,39.54l-51.03,56.12
				C938.95,680.72,921.16,681.56,909.77,671.2z"/>
			<path class="st2" d="M974.88,641.31l-41.52-37.76l25.51-28.05c10.38-11.42,28.22-12.27,39.64-1.88l0,0
				c11.42,10.38,12.27,28.22,1.88,39.64L974.88,641.31z"/>
			<path class="st0" d="M993.3,577.07c0,0-17.95-10.49-35.07,10.83C958.23,587.9,973.67,572.58,993.3,577.07z"/>
		</g>
		<path class="st2" d="M207.03,387.15c-10.6,2.91-21.64-3.39-24.57-14.08l0,0c-2.91-10.6,3.37-21.63,13.96-24.54l146.04-40.12
			c10.63-2.92,21.66,3.36,24.57,13.96l0,0c2.93,10.68-3.33,21.74-13.96,24.66L207.03,387.15z"/>
		<path class="st3" d="M133.73,501.72C77.46,517.17,19.27,484.1,3.8,427.79c-15.46-56.29,17.67-114.45,73.94-129.9
			c56.32-15.47,114.46,17.61,129.92,73.9C223.13,428.11,190.05,486.25,133.73,501.72z"/>
		<path class="st4" d="M138.04,1050.55l-6.11,102.04l0,0l0,0.06c-0.41,6.78,4.78,12.62,11.56,13.03l309.2,18.52
			c6.78,0.41,12.62-4.78,13.03-11.56c0.41-6.78-4.78-12.62-11.56-13.03l-296.93-17.79l5.38-89.81c0.41-6.83-4.75-12.62-11.53-13.02
			C144.29,1038.59,138.45,1043.72,138.04,1050.55z"/>
		<path class="st4" d="M160.52,675.3l6.11-102.02l0-0.06l0-0.06c0.4-6.72,6.25-11.93,13.03-11.53l309.2,18.52
			c6.78,0.41,11.96,6.28,11.56,13c-0.41,6.78-6.25,11.96-13.03,11.56l-296.93-17.79l-5.38,89.84c-0.41,6.78-6.22,11.93-13,11.53
			C165.3,687.89,160.11,682.08,160.52,675.3z"/>
		<path class="st3" d="M135.39,722.77l4.05-67.61c0.03-0.46,0.17-0.85,0.22-1.31l66.6,3.99c0,0.46,0.09,0.87,0.07,1.33l-4.05,67.61
			c-1.1,18.44-16.99,32.5-35.46,31.4C148.35,757.06,134.29,741.21,135.39,722.77z"/>
		<path class="st3" d="M123.45,992.03l-4.05,67.64c-0.03,0.46,0.06,0.87,0.07,1.33l66.6,3.99c0.06-0.46,0.2-0.85,0.22-1.31
			l4.05-67.64c1.1-18.41-12.99-34.33-31.46-35.43C140.42,959.5,124.55,973.62,123.45,992.03z"/>
		<path class="st3" d="M1549.91,953.51c343.49-56.92,299.08-502.31,299.08-502.31s-41.95-428.87-424.58-422.98
			c-42.2,0.65-85.14,4.72-127.89,16.47l-19.76,5.43l-987.9,271.36c-0.75,0.21-1.65-0.12-2.45,0.1
			c-12.21,3.35-19.45,15.86-16.1,28.07c3.38,12.32,15.9,19.39,28.11,16.03c0.78-0.21,2.07-0.77,2.05-0.85l0.14,0.5l988.18-271.44
			l19.76-5.43c55.24-15.17,110.72-15.45,164.65-10.93c291.59,24.43,331.23,359.08,333.39,379.68l-0.05,0.01
			c0,0,39.73,369.54-232.38,443.62c-57.22,15.58-95.24,13.16-158.08,9.4l-20.45-1.23l-619.97-37.14l-2.71,45.31l619.97,37.14
			l20.45,1.23C1460.2,958.35,1505.86,960.81,1549.91,953.51z"/>
		
			<ellipse transform="matrix(0.7071 -0.7071 0.7071 0.7071 -251.7322 191.8635)" class="st2" cx="105.73" cy="399.8" rx="79.96" ry="79.96"/>
		<circle class="st4" cx="105.73" cy="399.8" r="67.04"/>
		<path class="st2" d="M476.37,616.37l18.44,1.1c145.67,8.73,257.07,134.32,248.34,280.02c-8.72,145.58-134.32,257.01-279.99,248.28
			l-18.44-1.1l-2.95,49.17l18.44,1.1C633,1205.3,781.95,1073.16,792.29,900.44c10.35-172.75-121.76-321.73-294.54-332.08l-18.44-1.1
			L476.37,616.37z"/>
		<g>
			
				<rect x="1191.27" y="141.46" transform="matrix(0.6732 -0.7395 0.7395 0.6732 197.9066 1022.0933)" class="st4" width="128.11" height="291.37"/>
			<path class="st3" d="M1200.8,130.62l-106.42,116.89c-2.82,3.1-7.62,3.32-10.72,0.5l-8.29-7.55c-3.1-2.82-3.32-7.62-0.5-10.72
				l106.42-116.89c2.82-3.1,7.62-3.32,10.72-0.5l8.29,7.55C1203.4,122.72,1203.62,127.52,1200.8,130.62z"/>
			
				<rect x="1017.45" y="23.67" transform="matrix(0.6732 -0.7395 0.7395 0.6732 264.5847 822.4962)" class="st4" width="90.78" height="176.47"/>
			<path class="st3" d="M1031.65,15.1l-69.7,76.55c-2.65,2.91-7.16,3.12-10.07,0.47l-3.48-3.17c-2.91-2.65-3.12-7.16-0.47-10.07
				l69.7-76.55c2.65-2.91,7.16-3.12,10.07-0.47l3.48,3.17C1034.09,7.68,1034.3,12.19,1031.65,15.1z"/>
			
				<rect x="1339.82" y="381.88" transform="matrix(0.6732 -0.7395 0.7395 0.6732 157.9127 1141.8136)" class="st5" width="61.91" height="20.74"/>
			<polygon class="st2" points="1577.56,587.6 1381.23,408.86 1388.29,401.1 1500.39,503.15 			"/>
			
				<rect x="1059.35" y="23.67" transform="matrix(0.6732 -0.7395 0.7395 0.6732 264.5873 822.499)" class="st2" width="6.98" height="176.47"/>
			
				<rect x="1220.64" y="211.2" transform="matrix(0.6732 -0.7395 0.7395 0.6732 188.2979 1050.3226)" class="st1" width="123.64" height="201.85"/>
			
				<rect x="1117.2" y="217.24" transform="matrix(0.6732 -0.7395 0.7395 0.6732 207.9801 911.4335)" class="st6" width="35.92" height="6.34"/>
			
				<rect x="1131.94" y="230.66" transform="matrix(0.6732 -0.7395 0.7395 0.6732 202.8748 926.7164)" class="st6" width="35.92" height="6.34"/>
			
				<rect x="1146.68" y="244.08" transform="matrix(0.6732 -0.7395 0.7395 0.6732 197.7694 941.9993)" class="st6" width="35.92" height="6.34"/>
			
				<rect x="1161.42" y="257.5" transform="matrix(0.6732 -0.7395 0.7395 0.6732 192.6654 957.2841)" class="st6" width="35.92" height="6.34"/>
			
				<rect x="1176.16" y="270.91" transform="matrix(0.6732 -0.7395 0.7395 0.6732 187.5599 972.5668)" class="st6" width="35.92" height="6.34"/>
			
				<rect x="1190.89" y="284.33" transform="matrix(0.6732 -0.7395 0.7395 0.6732 182.4547 987.8499)" class="st6" width="35.92" height="6.34"/>
			
				<rect x="1205.63" y="297.75" transform="matrix(0.6732 -0.7395 0.7395 0.6732 177.3493 1003.1328)" class="st6" width="35.92" height="6.34"/>
			
				<rect x="1220.37" y="311.17" transform="matrix(0.6732 -0.7395 0.7395 0.6732 172.244 1018.4157)" class="st6" width="35.92" height="6.34"/>
			
				<rect x="1235.11" y="324.58" transform="matrix(0.6732 -0.7395 0.7395 0.6732 167.1386 1033.6986)" class="st6" width="35.92" height="6.34"/>
			
				<rect x="1249.85" y="338" transform="matrix(0.6732 -0.7395 0.7395 0.6732 162.0331 1048.9813)" class="st6" width="35.92" height="6.34"/>
			
				<rect x="1264.58" y="351.42" transform="matrix(0.6732 -0.7395 0.7395 0.6732 156.9278 1064.2643)" class="st6" width="35.92" height="6.34"/>
			
				<rect x="1279.32" y="364.84" transform="matrix(0.6732 -0.7395 0.7395 0.6732 151.8212 1079.5453)" class="st6" width="35.92" height="6.34"/>
			
				<rect x="1294.06" y="378.25" transform="matrix(0.6732 -0.7395 0.7395 0.6732 146.7159 1094.8281)" class="st6" width="35.92" height="6.34"/>
			
				<rect x="1308.8" y="391.67" transform="matrix(0.6732 -0.7395 0.7395 0.6732 141.6119 1110.1133)" class="st6" width="35.92" height="6.34"/>
			
				<rect x="1366.86" y="397.29" transform="matrix(0.6732 -0.7395 0.7395 0.6732 153.7337 1154.323)" class="st3" width="31.96" height="11.89"/>
		</g>
	</g>
</g>
</svg>
