<?xml version="1.0" encoding="utf-8"?>
<!-- Generator: Adobe Illustrator 23.0.1, SVG Export Plug-In . SVG Version: 6.00 Build 0)  -->
<svg version="1.1" id="圖層_1" xmlns="http://www.w3.org/2000/svg" xmlns:xlink="http://www.w3.org/1999/xlink" x="0px" y="0px"
	 viewBox="0 0 303 145" style="enable-background:new 0 0 303 145;" xml:space="preserve">
<style type="text/css">
	.st0{fill:#231815;}
</style>
<g>
	<path class="st0" d="M11.2,107c-0.26-0.99-0.49-1.66-0.91-2.16c-0.49-0.62-1.14-0.83-2.81-0.83H5.95c-0.86,0-0.96,0.05-0.96,0.88
		v5.9h2.34c2.31,0,2.52-0.23,2.83-1.9h0.86v5.1h-0.86c-0.29-1.74-0.52-2-2.83-2H4.99v4.34c0,2.37,0.21,2.52,2.52,2.71v0.83h-7.72
		v-0.83c1.95-0.18,2.18-0.34,2.18-2.71v-9.88c0-2.31-0.23-2.47-2.16-2.63v-0.86H11.8c0,0.62,0.13,2.47,0.26,3.9L11.2,107z
		 M30.7,120.1c-0.21,0-0.49-0.03-0.81-0.03c-2.81-0.13-3.82-0.8-4.94-2.47c-0.75-1.14-1.53-2.63-2.29-3.95
		c-0.44-0.75-0.88-1.09-1.92-1.09h-0.6v3.93c0,2.16,0.23,2.37,2.24,2.55v0.83h-7.46v-0.83c2-0.18,2.26-0.39,2.26-2.55v-10.17
		c0-2.13-0.23-2.34-2.16-2.52v-0.83h6.97c2.16,0,3.46,0.23,4.47,0.94c1.04,0.7,1.74,1.85,1.74,3.46c0,2.26-1.46,3.56-3.28,4.32
		c0.42,0.81,1.43,2.52,2.21,3.72c0.91,1.4,1.46,2.18,2.03,2.78c0.6,0.65,1.09,0.96,1.69,1.14L30.7,120.1z M21.03,111.6
		c1.17,0,2.03-0.18,2.65-0.7c0.91-0.75,1.3-1.79,1.3-3.15c0-2.81-1.69-3.82-3.33-3.82c-0.7,0-1.09,0.1-1.27,0.26
		c-0.18,0.16-0.23,0.44-0.23,1.04v6.37H21.03z M42.11,119.87v-0.83c1.56-0.23,1.74-0.52,1.35-1.61c-0.29-0.86-0.73-2.08-1.2-3.33
		h-5.17c-0.34,0.94-0.7,1.95-1.01,2.99c-0.44,1.4-0.31,1.72,1.59,1.95v0.83h-5.75v-0.83c1.69-0.21,2.03-0.47,2.91-2.71l5.36-13.44
		l1.14-0.31c1.64,4.52,3.28,9.21,4.97,13.68c0.86,2.29,1.2,2.6,2.86,2.78v0.83H42.11z M39.77,106.84h-0.05
		c-0.78,2-1.48,4.03-2.21,5.98h4.34L39.77,106.84z M69.43,103.8c-1.4,0.08-1.97,0.42-2.11,1.59c-0.1,0.8-0.21,2-0.21,4.34v10.4
		h-1.09L55.1,106.92h-0.05V113c0,2.34,0.11,3.51,0.18,4.29c0.13,1.22,0.65,1.64,2.5,1.74v0.83h-6.27v-0.83
		c1.46-0.1,2.08-0.49,2.18-1.66c0.1-0.86,0.23-2.03,0.23-4.37v-5.51c0-1.8-0.05-2.13-0.52-2.73c-0.52-0.65-1.09-0.86-2.24-0.96
		v-0.83h4.45l10.27,12.01h0.08v-5.25c0-2.31-0.13-3.54-0.18-4.29c-0.13-1.14-0.7-1.53-2.57-1.64v-0.83h6.27V103.8z M84.08,119.87
		c-1.43-1.79-3.59-4.65-5.59-7.38c-0.57-0.75-0.91-0.88-1.33-0.83v4.79c0,2.23,0.23,2.42,2.29,2.6v0.83h-7.41v-0.83
		c1.92-0.18,2.16-0.37,2.16-2.6V106.4c0-2.26-0.24-2.42-2.24-2.6v-0.83h7.33v0.83c-1.92,0.18-2.13,0.34-2.13,2.6v4.47
		c0.55-0.16,1.14-0.55,1.92-1.3c1.64-1.61,2.94-3.09,3.9-4.37c0.68-0.83,0.63-1.17-0.57-1.33l-0.52-0.08v-0.83h6.58v0.83
		c-1.74,0.18-2.65,0.47-4.16,1.87c-1.33,1.25-2.7,2.68-4.08,4.11c1.77,2.5,4.03,5.33,5.7,7.33c1.2,1.4,1.82,1.77,2.94,1.92v0.83
		H84.08z M104.05,115.58c-0.21,1.01-0.73,3.56-0.96,4.29H90.76v-0.83c2.24-0.18,2.47-0.34,2.47-2.55v-10.14
		c0-2.21-0.21-2.37-2.26-2.55v-0.83h7.52v0.83c-2,0.18-2.24,0.31-2.24,2.55v10.22c0,1.27,0.1,1.77,0.62,2
		c0.47,0.21,1.22,0.26,2.13,0.26c1.25,0,2.16-0.16,2.76-0.86c0.49-0.52,0.96-1.35,1.4-2.63L104.05,115.58z M106.23,119.87v-0.83
		c2-0.18,2.23-0.34,2.23-2.55v-10.14c0-2.21-0.23-2.37-2.23-2.55v-0.83h7.46v0.83c-2,0.18-2.21,0.34-2.21,2.55v10.14
		c0,2.21,0.21,2.37,2.21,2.55v0.83H106.23z M134.51,103.8c-1.4,0.08-1.98,0.42-2.11,1.59c-0.1,0.8-0.21,2-0.21,4.34v10.4h-1.09
		l-10.92-13.21h-0.05V113c0,2.34,0.1,3.51,0.18,4.29c0.13,1.22,0.65,1.64,2.5,1.74v0.83h-6.27v-0.83c1.46-0.1,2.08-0.49,2.18-1.66
		c0.1-0.86,0.23-2.03,0.23-4.37v-5.51c0-1.8-0.05-2.13-0.52-2.73c-0.52-0.65-1.09-0.86-2.23-0.96v-0.83h4.45l10.27,12.01h0.08v-5.25
		c0-2.31-0.13-3.54-0.18-4.29c-0.13-1.14-0.7-1.53-2.57-1.64v-0.83h6.27V103.8z M157.76,107.26c-0.31-1.3-0.62-2.11-1.04-2.55
		c-0.44-0.52-1.01-0.7-2.71-0.7h-1.4v12.51c0,2.13,0.23,2.34,2.6,2.52v0.83h-8.11v-0.83c2.26-0.18,2.5-0.37,2.5-2.52v-12.51h-1.14
		c-2.16,0-2.65,0.26-3.02,0.75c-0.39,0.44-0.68,1.28-0.99,2.52h-0.88c0.1-1.79,0.26-3.62,0.31-4.97h0.6
		c0.39,0.6,0.73,0.65,1.46,0.65h10.4c0.68,0,0.99-0.16,1.43-0.65h0.6c0,1.12,0.13,3.28,0.26,4.89L157.76,107.26z M174.92,115.63
		c-0.16,1.07-0.68,3.46-0.91,4.24h-13v-0.83c2.26-0.18,2.5-0.37,2.5-2.55v-10.11c0-2.29-0.23-2.42-2.16-2.57v-0.83h12.01
		c0.03,0.52,0.16,2.31,0.26,3.85l-0.88,0.13c-0.23-0.99-0.55-1.74-0.96-2.23c-0.42-0.52-1.12-0.7-2.73-0.7h-1.53
		c-0.91,0-0.99,0.05-0.99,0.88v5.69h2c2.29,0,2.55-0.16,2.89-1.98h0.86v5.15h-0.86c-0.34-1.85-0.63-1.97-2.86-1.97h-2.03v4.63
		c0,1.25,0.13,1.87,0.63,2.13c0.49,0.26,1.4,0.29,2.5,0.29c1.59,0,2.42-0.18,3.02-0.86c0.49-0.55,0.96-1.4,1.4-2.5L174.92,115.63z
		 M191.33,119.87v-0.83c2-0.21,2.13-0.39,2.11-2.91l-0.05-10.22h-0.13l-5.95,13.78h-0.65l-5.49-13.5h-0.1l-0.34,7.02
		c-0.11,2.16-0.11,3.33-0.03,4.24c0.08,1.2,0.63,1.4,2.37,1.56v0.86h-6.19v-0.86c1.48-0.13,1.98-0.54,2.16-1.51
		c0.16-0.86,0.34-2.13,0.52-4.86l0.39-5.23c0.23-3.12,0.05-3.41-2.21-3.61v-0.83h4.96l5.33,11.96l5.44-11.96h4.94v0.83
		c-2.16,0.21-2.26,0.36-2.21,2.7l0.23,9.62c0.08,2.52,0.18,2.7,2.29,2.91v0.83H191.33z M208.51,102.97c1.98,0,3.46,0.29,4.5,1.01
		c1.14,0.83,1.85,2.08,1.85,3.79c0,3.43-2.57,5.04-5.25,5.36c-0.39,0.05-0.8,0.05-1.12,0.05l-1.82-0.47v3.77
		c0,2.21,0.23,2.37,2.5,2.55v0.83h-7.72v-0.83c2-0.18,2.24-0.37,2.24-2.55v-10.14c0-2.24-0.23-2.37-2.08-2.55v-0.83H208.51z
		 M206.67,111.75c0.31,0.16,0.91,0.29,1.59,0.29c1.22,0,3.3-0.75,3.3-4.19c0-2.91-1.72-3.95-3.48-3.95c-0.6,0-0.99,0.13-1.14,0.29
		c-0.18,0.16-0.26,0.44-0.26,0.96V111.75z M230.66,115.58c-0.21,1.01-0.73,3.56-0.96,4.29h-12.32v-0.83
		c2.24-0.18,2.47-0.34,2.47-2.55v-10.14c0-2.21-0.21-2.37-2.26-2.55v-0.83h7.52v0.83c-2,0.18-2.24,0.31-2.24,2.55v10.22
		c0,1.27,0.1,1.77,0.62,2c0.47,0.21,1.22,0.26,2.13,0.26c1.25,0,2.16-0.16,2.76-0.86c0.49-0.52,0.96-1.35,1.4-2.63L230.66,115.58z
		 M246.47,115.63c-0.16,1.07-0.68,3.46-0.91,4.24h-13v-0.83c2.26-0.18,2.5-0.37,2.5-2.55v-10.11c0-2.29-0.23-2.42-2.16-2.57v-0.83
		h12.01c0.03,0.52,0.16,2.31,0.26,3.85l-0.88,0.13c-0.23-0.99-0.55-1.74-0.96-2.23c-0.42-0.52-1.12-0.7-2.73-0.7h-1.53
		c-0.91,0-0.99,0.05-0.99,0.88v5.69h2c2.29,0,2.55-0.16,2.89-1.98h0.86v5.15h-0.86c-0.34-1.85-0.63-1.97-2.86-1.97h-2.03v4.63
		c0,1.25,0.13,1.87,0.62,2.13c0.49,0.26,1.4,0.29,2.5,0.29c1.59,0,2.42-0.18,3.02-0.86c0.49-0.55,0.96-1.4,1.4-2.5L246.47,115.63z
		 M262.67,107.26c-0.31-1.3-0.63-2.11-1.04-2.55c-0.44-0.52-1.01-0.7-2.7-0.7h-1.4v12.51c0,2.13,0.23,2.34,2.6,2.52v0.83h-8.11
		v-0.83c2.26-0.18,2.5-0.37,2.5-2.52v-12.51h-1.14c-2.16,0-2.65,0.26-3.02,0.75c-0.39,0.44-0.68,1.28-0.99,2.52h-0.88
		c0.1-1.79,0.26-3.62,0.31-4.97h0.6c0.39,0.6,0.73,0.65,1.46,0.65h10.4c0.68,0,0.99-0.16,1.43-0.65h0.6c0,1.12,0.13,3.28,0.26,4.89
		L262.67,107.26z M282.9,111.23c0,5.62-4,9.02-8.84,9.02c-5.02,0-8.68-3.74-8.68-8.74c0-4.55,3.22-8.92,9-8.92
		C279,102.6,282.9,106.09,282.9,111.23z M268.88,110.92c0,4.6,2.21,8.29,5.67,8.29c2.63,0,4.84-2.42,4.84-7.25
		c0-5.3-2.37-8.32-5.54-8.32C271.15,103.64,268.88,106.29,268.88,110.92z M303,103.8c-1.4,0.08-1.97,0.42-2.11,1.59
		c-0.1,0.8-0.21,2-0.21,4.34v10.4h-1.09l-10.92-13.21h-0.05V113c0,2.34,0.1,3.51,0.18,4.29c0.13,1.22,0.65,1.64,2.5,1.74v0.83h-6.27
		v-0.83c1.46-0.1,2.08-0.49,2.19-1.66c0.1-0.86,0.23-2.03,0.23-4.37v-5.51c0-1.8-0.05-2.13-0.52-2.73
		c-0.52-0.65-1.09-0.86-2.24-0.96v-0.83h4.45l10.27,12.01h0.08v-5.25c0-2.31-0.13-3.54-0.18-4.29c-0.13-1.14-0.7-1.53-2.57-1.64
		v-0.83H303V103.8z M59.47,145.13v-0.83c2-0.18,2.24-0.34,2.24-2.55v-10.14c0-2.21-0.23-2.37-2.24-2.55v-0.83h7.46v0.83
		c-2,0.18-2.21,0.34-2.21,2.55v10.14c0,2.21,0.21,2.37,2.21,2.55v0.83H59.47z M87.73,129.06c-1.4,0.08-1.98,0.42-2.11,1.59
		c-0.1,0.8-0.21,2-0.21,4.34v10.4h-1.09L73.4,132.18h-0.05v6.08c0,2.34,0.1,3.51,0.18,4.29c0.13,1.22,0.65,1.64,2.5,1.74v0.83h-6.27
		v-0.83c1.46-0.1,2.08-0.49,2.18-1.66c0.1-0.86,0.23-2.03,0.23-4.37v-5.51c0-1.79-0.05-2.13-0.52-2.73
		c-0.52-0.65-1.09-0.86-2.23-0.96v-0.83h4.45l10.27,12.01h0.08v-5.25c0-2.31-0.13-3.54-0.18-4.29c-0.13-1.14-0.7-1.53-2.57-1.64
		v-0.83h6.27V129.06z M106.37,129.08c-1.71,0.18-2.13,0.47-3.17,2.91c-0.78,1.9-3.3,8.06-5.3,13.42h-1.12
		c-1.77-4.76-4.08-10.79-5.33-13.88c-0.78-1.97-1.2-2.29-2.78-2.44v-0.86h7.26v0.86c-1.87,0.23-1.9,0.49-1.51,1.64
		c0.73,2,2.71,7.18,3.95,10.35h0.08c1.38-3.59,2.81-7.33,3.56-9.72c0.54-1.69,0.49-2-1.64-2.26v-0.86h6.01V129.08z M121.53,140.89
		c-0.16,1.07-0.68,3.46-0.91,4.24h-13v-0.83c2.26-0.18,2.5-0.37,2.5-2.55v-10.11c0-2.29-0.23-2.42-2.16-2.57v-0.83h12.01
		c0.03,0.52,0.16,2.31,0.26,3.85l-0.88,0.13c-0.23-0.99-0.54-1.74-0.96-2.23c-0.42-0.52-1.12-0.7-2.73-0.7h-1.53
		c-0.91,0-0.99,0.05-0.99,0.88v5.69h2c2.29,0,2.55-0.16,2.89-1.98h0.86v5.15h-0.86c-0.34-1.85-0.63-1.97-2.86-1.97h-2.03v4.63
		c0,1.25,0.13,1.87,0.62,2.13c0.49,0.26,1.4,0.29,2.5,0.29c1.59,0,2.42-0.18,3.02-0.86c0.49-0.55,0.96-1.4,1.4-2.5L121.53,140.89z
		 M133.28,132.33c-0.49-1.64-1.38-3.51-3.54-3.51c-1.66,0-2.68,1.2-2.68,2.65c0,1.61,1.07,2.47,3.28,3.59
		c2.47,1.22,4.55,2.6,4.55,5.3c0,2.88-2.45,5.15-6.14,5.15c-0.99,0-1.87-0.15-2.57-0.36c-0.7-0.23-1.17-0.42-1.48-0.57
		c-0.23-0.62-0.57-2.81-0.75-4.26l0.88-0.26c0.47,1.64,1.87,4.45,4.42,4.45c1.74,0,2.81-1.14,2.81-2.88c0-1.66-1.25-2.63-3.2-3.67
		c-2.31-1.17-4.45-2.55-4.45-5.2c0-2.73,2.16-4.91,5.75-4.91c1.48,0,2.83,0.42,3.48,0.65c0.1,0.94,0.26,2.03,0.49,3.67
		L133.28,132.33z M151.49,132.52c-0.31-1.3-0.63-2.11-1.04-2.55c-0.44-0.52-1.01-0.7-2.7-0.7h-1.4v12.51c0,2.13,0.23,2.34,2.6,2.52
		v0.83h-8.11v-0.83c2.26-0.18,2.5-0.37,2.5-2.52v-12.51h-1.14c-2.16,0-2.65,0.26-3.02,0.75c-0.39,0.44-0.68,1.28-0.99,2.52h-0.88
		c0.1-1.79,0.26-3.62,0.31-4.97h0.6c0.39,0.6,0.73,0.65,1.46,0.65h10.4c0.68,0,0.99-0.16,1.43-0.65h0.6c0,1.12,0.13,3.28,0.26,4.89
		L151.49,132.52z M168.83,145.13v-0.83c2-0.21,2.13-0.39,2.11-2.91l-0.05-10.22h-0.13l-5.95,13.78h-0.65l-5.49-13.5h-0.1l-0.34,7.02
		c-0.1,2.16-0.1,3.33-0.03,4.24c0.08,1.2,0.62,1.4,2.37,1.56v0.86h-6.19v-0.86c1.48-0.13,1.97-0.54,2.16-1.51
		c0.15-0.86,0.34-2.13,0.52-4.86l0.39-5.23c0.23-3.12,0.05-3.41-2.21-3.61v-0.83h4.97l5.33,11.96l5.43-11.96h4.94v0.83
		c-2.16,0.21-2.26,0.36-2.21,2.7l0.23,9.62c0.08,2.52,0.18,2.7,2.29,2.91v0.83H168.83z M192.6,140.89
		c-0.16,1.07-0.68,3.46-0.91,4.24h-13v-0.83c2.26-0.18,2.5-0.37,2.5-2.55v-10.11c0-2.29-0.23-2.42-2.16-2.57v-0.83h12.01
		c0.03,0.52,0.16,2.31,0.26,3.85l-0.88,0.13c-0.23-0.99-0.55-1.74-0.96-2.23c-0.42-0.52-1.12-0.7-2.73-0.7h-1.53
		c-0.91,0-0.99,0.05-0.99,0.88v5.69h2c2.29,0,2.55-0.16,2.89-1.98h0.86v5.15h-0.86c-0.34-1.85-0.63-1.97-2.86-1.97h-2.03v4.63
		c0,1.25,0.13,1.87,0.62,2.13c0.49,0.26,1.4,0.29,2.5,0.29c1.59,0,2.42-0.18,3.02-0.86c0.49-0.55,0.96-1.4,1.4-2.5L192.6,140.89z
		 M212.75,129.06c-1.4,0.08-1.98,0.42-2.11,1.59c-0.11,0.8-0.21,2-0.21,4.34v10.4h-1.09l-10.92-13.21h-0.05v6.08
		c0,2.34,0.1,3.51,0.18,4.29c0.13,1.22,0.65,1.64,2.5,1.74v0.83h-6.27v-0.83c1.46-0.1,2.08-0.49,2.18-1.66
		c0.1-0.86,0.23-2.03,0.23-4.37v-5.51c0-1.79-0.05-2.13-0.52-2.73c-0.52-0.65-1.09-0.86-2.24-0.96v-0.83h4.45l10.27,12.01h0.08
		v-5.25c0-2.31-0.13-3.54-0.18-4.29c-0.13-1.14-0.7-1.53-2.57-1.64v-0.83h6.27V129.06z M229.22,132.52
		c-0.31-1.3-0.63-2.11-1.04-2.55c-0.44-0.52-1.01-0.7-2.7-0.7h-1.4v12.51c0,2.13,0.23,2.34,2.6,2.52v0.83h-8.11v-0.83
		c2.26-0.18,2.5-0.37,2.5-2.52v-12.51h-1.14c-2.16,0-2.65,0.26-3.02,0.75c-0.39,0.44-0.68,1.28-0.99,2.52h-0.88
		c0.1-1.79,0.26-3.62,0.31-4.97h0.6c0.39,0.6,0.73,0.65,1.46,0.65h10.4c0.68,0,0.99-0.16,1.43-0.65h0.6c0,1.12,0.13,3.28,0.26,4.89
		L229.22,132.52z M241.31,132.33c-0.49-1.64-1.38-3.51-3.54-3.51c-1.66,0-2.68,1.2-2.68,2.65c0,1.61,1.07,2.47,3.28,3.59
		c2.47,1.22,4.55,2.6,4.55,5.3c0,2.88-2.44,5.15-6.13,5.15c-0.99,0-1.87-0.15-2.57-0.36c-0.7-0.23-1.17-0.42-1.48-0.57
		c-0.23-0.62-0.57-2.81-0.75-4.26l0.88-0.26c0.47,1.64,1.87,4.45,4.42,4.45c1.74,0,2.81-1.14,2.81-2.88c0-1.66-1.25-2.63-3.2-3.67
		c-2.31-1.17-4.45-2.55-4.45-5.2c0-2.73,2.16-4.91,5.75-4.91c1.48,0,2.83,0.42,3.48,0.65c0.11,0.94,0.26,2.03,0.49,3.67
		L241.31,132.33z"/>
	<g>
		<path class="st0" d="M225.87,84.42c0-1.58,1.2-2.78,2.7-2.78c1.51,0,2.71,1.2,2.71,2.78c0,1.59-1.19,2.76-2.71,2.76
			C227.06,87.18,225.87,86.01,225.87,84.42 M228.57,87.68c1.79,0,3.3-1.38,3.3-3.26c0-1.87-1.51-3.26-3.3-3.26
			c-1.78,0-3.3,1.39-3.3,3.26C225.27,86.29,226.79,87.68,228.57,87.68 M227.94,84.65h0.61l0.92,1.51h0.59l-0.99-1.54
			c0.52-0.06,0.9-0.33,0.9-0.96c0-0.69-0.4-0.99-1.23-0.99h-1.33v3.48h0.53V84.65z M227.94,84.2v-1.07h0.72
			c0.37,0,0.75,0.08,0.75,0.52c0,0.53-0.4,0.55-0.84,0.55H227.94z"/>
		<g>
			<defs>
				<path id="SVGID_1_" d="M58.49,94.19v-0.87c0,0,0.11-0.14,0.39-0.33c0.19-0.13,0.55-0.34,0.82-0.48
					c0.61-0.32,1.34-0.54,1.61-0.64c2.02-0.74,3.57-1.02,3.65-1.04c0.11-0.03,2.03-0.35,3.53-0.41h17.12c0,0-0.85-0.52-1.04-0.64
					c-0.11-0.06-0.93-0.59-1.85-1.44c-0.77-0.71-1.61-1.64-2.14-2.72c-0.56-1.01-0.87-2.26-0.87-2.26h2.49c0,0,2.29-0.15,4.63-0.75
					c2.33-0.61,4.22-0.91,4.57-0.98c0.35-0.07,1.29-0.11,1.33-0.11c0.02-0.01,0.31-0.23,0.55-0.48c0.27-0.27,0.49-0.62,0.49-0.62
					s-1.2-2.37-1.62-3.64c-0.42-1.27-1.11-3.85-1.21-5.32c-0.06-0.88-0.08-3.02,0.06-4.51c0.09-1.01,0.4-1.74,0.4-1.74
					s0.64,0.47,1.79,0.92c1.16,0.46,3.85,1.32,4.22,1.45c0.38,0.13,2.05,0.58,2.08,0.58c0.04-0.01,0.16-0.05,0.17-0.11
					c0.02-0.07,0.22-1.23,0.23-1.39c0.01-0.16,0.07-1.44,0.06-1.56c-0.01-0.12-0.12-1.01-0.17-1.16c-0.06-0.15-0.12-0.29-0.12-0.29
					s1.06,0.17,1.62,0.4c0.56,0.23,1.27,0.52,1.27,0.52s-0.15-1.81-0.17-2.02c-0.01-0.05-0.05-0.42-0.12-1.1
					c-0.02-0.22-0.04-0.47-0.06-0.75c-0.09-1.26-0.15-3.18-0.04-5.81c0.05-1.16,0.04-2.37,0.16-3.73c0.13-1.57,0.39-3.33,0.7-5.38
					c0.41-2.8,1.4-6.73,2.8-10.62c1.03-2.85,2.3-5.65,3.62-8.12c0.79-1.47,1.62-2.94,2.47-4.28c2.16-3.4,4.45-6.22,6.44-8.27
					c2.97-3.06,7.2-6.81,12.78-9.72c5.45-2.84,12-4.86,20.24-4.86c7.43,0,14.73,2.08,20.18,4.92c2.83,1.47,5.3,3.17,7.46,4.86
					c2.1,1.65,3.86,3.35,5.32,4.86c1.99,2.05,4.31,4.88,6.48,8.27c0.85,1.33,1.7,2.75,2.49,4.22c1.31,2.46,2.5,5.25,3.53,8.1
					c1.4,3.9,2.42,7.9,2.83,10.7c0.3,2.05,0.56,3.81,0.69,5.38c0.12,1.36,0.17,2.52,0.21,3.67c0.11,2.64-0.01,4.55-0.1,5.81
					c0-0.06-0.35,3.81-0.35,3.81s0.65-0.23,1.21-0.46c0.56-0.23,1.54-0.47,1.56-0.46c0.03,0.01,0.1-0.04,0,0.29
					c-0.1,0.33-0.15,0.78-0.17,0.98c-0.03,0.2-0.02,1.33,0,1.56c0.02,0.23,0.16,1.54,0.35,1.68c0.1,0.08,1.23-0.29,1.45-0.35
					c0.22-0.06,1.96-0.63,2.66-0.87c0.7-0.24,2.69-0.96,3.01-1.1c0.32-0.14,1.1-0.58,1.1-0.58s0.25,1.08,0.29,1.45
					c0.04,0.36,0.17,2.01,0.18,2.2c0,0.18-0.06,2.47-0.12,2.89c-0.06,0.42-0.46,2.74-0.58,3.18c-0.12,0.44-0.55,1.85-1.04,3.01
					c-0.49,1.16-1.21,2.49-1.21,2.49l0.92,1.04c0,0,0.84,0.05,0.93,0.06c0.09,0.01,2.77,0.49,3.35,0.64
					c0.59,0.15,2.89,0.7,3.53,0.81c0.63,0.11,1.84,0.3,2.43,0.35c0.59,0.05,2.95,0.06,2.95,0.06s-0.58,1.9-1.45,3.18
					c-0.74,1.09-1.35,1.62-1.91,2.08c-0.28,0.23-0.52,0.43-0.8,0.64c-0.53,0.37-1.18,0.76-1.5,0.98c-0.14,0.1-0.17,0.17-0.17,0.17
					h16.13c0,0,3.52,0.16,5.15,0.58c1.62,0.42,3.71,1.09,4.63,1.5c0.91,0.42,1.33,0.92,1.33,0.92v0.75H58.49z"/>
			</defs>
			<clipPath id="SVGID_2_">
				<use xlink:href="#SVGID_1_"  style="overflow:visible;"/>
			</clipPath>
			<g style="clip-path:url(#SVGID_2_);">
				
					<image style="overflow:visible;" width="1550" height="793" xlink:href="logo-head.png" transform="matrix(0.12 0 0 0.12 58.3672 -0.8369)">
				</image>
			</g>
		</g>
	</g>
</g>
</svg>
