<?xml version="1.0" encoding="utf-8"?>
<!-- Generator: Adobe Illustrator 23.0.1, SVG Export Plug-In . SVG Version: 6.00 Build 0)  -->
<svg version="1.1" id="圖層_1" xmlns="http://www.w3.org/2000/svg" xmlns:xlink="http://www.w3.org/1999/xlink" x="0px" y="0px"
	 viewBox="0 0 494 650" style="enable-background:new 0 0 494 650;" xml:space="preserve">
<style type="text/css">
	.st0{fill:#FFFFFF;}
	.st1{fill:#BB133E;}
	.st2{fill:#002664;}
</style>
<rect y="0" class="st0" width="494" height="650"/>
<g>
	<rect id="stripe" y="0" class="st1" width="494" height="50"/>
</g>
<g>
	<rect y="100" class="st1" width="494" height="50"/>
</g>
<g>
	<rect y="200" class="st1" width="494" height="50"/>
</g>
<g>
	<rect y="300" class="st1" width="494" height="50"/>
</g>
<g>
	<rect y="400" class="st1" width="494" height="50"/>
</g>
<g>
	<rect y="500" class="st1" width="494" height="50"/>
</g>
<g>
	<rect y="600" class="st1" width="494" height="50"/>
</g>
<rect y="0" class="st2" width="494" height="350"/>
<g>
	<polygon class="st0" points="42.25,14.58 37.76,28.41 23.21,28.41 34.98,36.96 30.48,50.8 42.25,42.25 54.02,50.8 49.52,36.96 
		61.29,28.41 46.74,28.41 	"/>
	<polygon class="st0" points="124.15,14.58 119.66,28.41 105.11,28.41 116.88,36.96 112.38,50.8 124.15,42.25 135.92,50.8 
		131.42,36.96 143.19,28.41 128.64,28.41 	"/>
	<polygon class="st0" points="206.05,14.58 201.56,28.41 187.01,28.41 198.78,36.96 194.28,50.8 206.05,42.25 217.82,50.8 
		213.32,36.96 225.09,28.41 210.54,28.41 	"/>
	<polygon class="st0" points="287.95,14.58 283.46,28.41 268.91,28.41 280.68,36.96 276.18,50.8 287.95,42.25 299.72,50.8 
		295.22,36.96 306.99,28.41 292.44,28.41 	"/>
	<polygon class="st0" points="369.85,14.58 365.36,28.41 350.81,28.41 362.58,36.96 358.08,50.8 369.85,42.25 381.62,50.8 
		377.12,36.96 388.89,28.41 374.34,28.41 	"/>
	<polygon class="st0" points="444.48,36.96 439.98,50.8 451.75,42.25 463.52,50.8 459.02,36.96 470.79,28.41 456.24,28.41 
		451.75,14.58 447.26,28.41 432.71,28.41 	"/>
	<polygon class="st0" points="83.2,49.68 78.71,63.51 64.16,63.51 75.93,72.06 71.43,85.9 83.2,77.35 94.97,85.9 90.47,72.06 
		102.24,63.51 87.69,63.51 	"/>
	<polygon class="st0" points="165.1,49.68 160.61,63.51 146.06,63.51 157.83,72.06 153.33,85.9 165.1,77.35 176.87,85.9 
		172.37,72.06 184.14,63.51 169.59,63.51 	"/>
	<polygon class="st0" points="247,49.68 242.51,63.51 227.96,63.51 239.73,72.06 235.23,85.9 247,77.35 258.77,85.9 254.27,72.06 
		266.04,63.51 251.49,63.51 	"/>
	<polygon class="st0" points="328.9,49.68 324.41,63.51 309.86,63.51 321.63,72.06 317.13,85.9 328.9,77.35 340.67,85.9 
		336.17,72.06 347.94,63.51 333.39,63.51 	"/>
	<polygon class="st0" points="410.8,49.68 406.31,63.51 391.76,63.51 403.53,72.06 399.03,85.9 410.8,77.35 422.57,85.9 
		418.07,72.06 429.84,63.51 415.29,63.51 	"/>
	<path class="st0" d="M42.25,84.78l-4.49,13.83H23.21l11.77,8.55L30.48,121l11.77-8.55L54.02,121l-4.49-13.83l11.77-8.55H46.74
		L42.25,84.78z M42.25,104.8L42.25,104.8L42.25,104.8L42.25,104.8L42.25,104.8z"/>
	<path class="st0" d="M124.15,84.78l-4.49,13.83h-14.55l11.77,8.55L112.38,121l11.77-8.55l11.77,8.55l-4.49-13.83l11.77-8.55h-14.55
		L124.15,84.78z M124.15,104.8L124.15,104.8L124.15,104.8L124.15,104.8L124.15,104.8z"/>
	<path class="st0" d="M206.05,84.78l-4.49,13.83h-14.55l11.77,8.55L194.28,121l11.77-8.55l11.77,8.55l-4.49-13.83l11.77-8.55h-14.55
		L206.05,84.78z M206.05,104.8L206.05,104.8L206.05,104.8L206.05,104.8L206.05,104.8z"/>
	<path class="st0" d="M287.95,84.78l-4.49,13.83h-14.55l11.77,8.55L276.18,121l11.77-8.55l11.77,8.55l-4.49-13.83l11.77-8.55h-14.55
		L287.95,84.78z M287.95,104.8L287.95,104.8L287.95,104.8L287.95,104.8L287.95,104.8z"/>
	<path class="st0" d="M369.85,84.78l-4.49,13.83h-14.55l11.77,8.55L358.08,121l11.77-8.55l11.77,8.55l-4.49-13.83l11.77-8.55h-14.55
		L369.85,84.78z M369.85,104.8L369.85,104.8L369.85,104.8L369.85,104.8L369.85,104.8z"/>
	<path class="st0" d="M451.75,84.78l-4.49,13.83h-14.55l11.77,8.55L439.98,121l11.77-8.55l11.77,8.55l-4.49-13.83l11.77-8.55h-14.55
		L451.75,84.78z M451.75,104.8L451.75,104.8L451.75,104.8L451.75,104.8L451.75,104.8z"/>
	<polygon class="st0" points="83.2,119.88 78.71,133.71 64.16,133.71 75.93,142.26 71.43,156.1 83.2,147.55 94.97,156.1 
		90.47,142.26 102.24,133.71 87.69,133.71 	"/>
	<polygon class="st0" points="165.1,119.88 160.61,133.71 146.06,133.71 157.83,142.26 153.33,156.1 165.1,147.55 176.87,156.1 
		172.37,142.26 184.14,133.71 169.59,133.71 	"/>
	<polygon class="st0" points="247,119.88 242.51,133.71 227.96,133.71 239.73,142.26 235.23,156.1 247,147.55 258.77,156.1 
		254.27,142.26 266.04,133.71 251.49,133.71 	"/>
	<polygon class="st0" points="328.9,119.88 324.41,133.71 309.86,133.71 321.63,142.26 317.13,156.1 328.9,147.55 340.67,156.1 
		336.17,142.26 347.94,133.71 333.39,133.71 	"/>
	<polygon class="st0" points="410.8,119.88 406.31,133.71 391.76,133.71 403.53,142.26 399.03,156.1 410.8,147.55 422.57,156.1 
		418.07,142.26 429.84,133.71 415.29,133.71 	"/>
	<polygon class="st0" points="42.25,154.98 37.76,168.81 23.21,168.81 34.98,177.36 30.48,191.2 42.25,182.65 54.02,191.2 
		49.52,177.36 61.29,168.81 46.74,168.81 	"/>
	<polygon class="st0" points="124.15,154.98 119.66,168.81 105.11,168.81 116.88,177.36 112.38,191.2 124.15,182.65 135.92,191.2 
		131.42,177.36 143.19,168.81 128.64,168.81 	"/>
	<polygon class="st0" points="206.05,154.98 201.56,168.81 187.01,168.81 198.78,177.36 194.28,191.2 206.05,182.65 217.82,191.2 
		213.32,177.36 225.09,168.81 210.54,168.81 	"/>
	<polygon class="st0" points="287.95,154.98 283.46,168.81 268.91,168.81 280.68,177.36 276.18,191.2 287.95,182.65 299.72,191.2 
		295.22,177.36 306.99,168.81 292.44,168.81 	"/>
	<polygon class="st0" points="369.85,154.98 365.36,168.81 350.81,168.81 362.58,177.36 358.08,191.2 369.85,182.65 381.62,191.2 
		377.12,177.36 388.89,168.81 374.34,168.81 	"/>
	<polygon class="st0" points="451.75,154.98 447.26,168.81 432.71,168.81 444.48,177.36 439.98,191.2 451.75,182.65 463.52,191.2 
		459.02,177.36 470.79,168.81 456.24,168.81 	"/>
	<polygon class="st0" points="83.2,190.08 78.71,203.91 64.16,203.91 75.93,212.46 71.43,226.3 83.2,217.75 94.97,226.3 
		90.47,212.46 102.24,203.91 87.69,203.91 	"/>
	<polygon class="st0" points="165.1,190.08 160.61,203.91 146.06,203.91 157.83,212.46 153.33,226.3 165.1,217.75 176.87,226.3 
		172.37,212.46 184.14,203.91 169.59,203.91 	"/>
	<polygon class="st0" points="247,190.08 242.51,203.91 227.96,203.91 239.73,212.46 235.23,226.3 247,217.75 258.77,226.3 
		254.27,212.46 266.04,203.91 251.49,203.91 	"/>
	<polygon class="st0" points="328.9,190.08 324.41,203.91 309.86,203.91 321.63,212.46 317.13,226.3 328.9,217.75 340.67,226.3 
		336.17,212.46 347.94,203.91 333.39,203.91 	"/>
	<polygon class="st0" points="410.8,190.08 406.31,203.91 391.76,203.91 403.53,212.46 399.03,226.3 410.8,217.75 422.57,226.3 
		418.07,212.46 429.84,203.91 415.29,203.91 	"/>
	<polygon class="st0" points="42.25,225.18 37.76,239.01 23.21,239.01 34.98,247.56 30.48,261.4 42.25,252.85 54.02,261.4 
		49.52,247.56 61.29,239.01 46.74,239.01 	"/>
	<polygon class="st0" points="124.15,225.18 119.66,239.01 105.11,239.01 116.88,247.56 112.38,261.4 124.15,252.85 135.92,261.4 
		131.42,247.56 143.19,239.01 128.64,239.01 	"/>
	<polygon class="st0" points="206.05,225.18 201.56,239.01 187.01,239.01 198.78,247.56 194.28,261.4 206.05,252.85 217.82,261.4 
		213.32,247.56 225.09,239.01 210.54,239.01 	"/>
	<polygon class="st0" points="287.95,225.18 283.46,239.01 268.91,239.01 280.68,247.56 276.18,261.4 287.95,252.85 299.72,261.4 
		295.22,247.56 306.99,239.01 292.44,239.01 	"/>
	<polygon class="st0" points="369.85,225.18 365.36,239.01 350.81,239.01 362.58,247.56 358.08,261.4 369.85,252.85 381.62,261.4 
		377.12,247.56 388.89,239.01 374.34,239.01 	"/>
	<polygon class="st0" points="451.75,225.18 447.26,239.01 432.71,239.01 444.48,247.56 439.98,261.4 451.75,252.85 463.52,261.4 
		459.02,247.56 470.79,239.01 456.24,239.01 	"/>
	<polygon class="st0" points="87.69,274.11 83.2,260.28 78.71,274.11 64.16,274.11 75.93,282.66 71.43,296.5 83.2,287.95 
		94.97,296.5 90.47,282.66 102.24,274.11 	"/>
	<polygon class="st0" points="169.59,274.11 165.1,260.28 160.61,274.11 146.06,274.11 157.83,282.66 153.33,296.5 165.1,287.95 
		176.87,296.5 172.37,282.66 184.14,274.11 	"/>
	<polygon class="st0" points="251.49,274.11 247,260.28 242.51,274.11 227.96,274.11 239.73,282.66 235.23,296.5 247,287.95 
		258.77,296.5 254.27,282.66 266.04,274.11 	"/>
	<polygon class="st0" points="333.39,274.11 328.9,260.28 324.41,274.11 309.86,274.11 321.63,282.66 317.13,296.5 328.9,287.95 
		340.67,296.5 336.17,282.66 347.94,274.11 	"/>
	<polygon class="st0" points="415.29,274.11 410.8,260.28 406.31,274.11 391.76,274.11 403.53,282.66 399.03,296.5 410.8,287.95 
		422.57,296.5 418.07,282.66 429.84,274.11 	"/>
	<polygon class="st0" points="46.74,309.21 42.25,295.38 37.76,309.21 23.21,309.21 34.98,317.76 30.48,331.6 42.25,323.05 
		54.02,331.6 49.52,317.76 61.29,309.21 	"/>
	<polygon class="st0" points="128.64,309.21 124.15,295.38 119.66,309.21 105.11,309.21 116.88,317.76 112.38,331.6 124.15,323.05 
		135.92,331.6 131.42,317.76 143.19,309.21 	"/>
	<polygon class="st0" points="210.54,309.21 206.05,295.38 201.56,309.21 187.01,309.21 198.78,317.76 194.28,331.6 206.05,323.05 
		217.82,331.6 213.32,317.76 225.09,309.21 	"/>
	<polygon class="st0" points="292.44,309.21 287.95,295.38 283.46,309.21 268.91,309.21 280.68,317.76 276.18,331.6 287.95,323.05 
		299.72,331.6 295.22,317.76 306.99,309.21 	"/>
	<polygon class="st0" points="374.34,309.21 369.85,295.38 365.36,309.21 350.81,309.21 362.58,317.76 358.08,331.6 369.85,323.05 
		381.62,331.6 377.12,317.76 388.89,309.21 	"/>
	<polygon class="st0" points="456.24,309.21 451.75,295.38 447.26,309.21 432.71,309.21 444.48,317.76 439.98,331.6 451.75,323.05 
		463.52,331.6 459.02,317.76 470.79,309.21 	"/>
</g>
</svg>
