<?xml version="1.0" encoding="utf-8"?>
<!-- Generator: Adobe Illustrator 24.1.3, SVG Export Plug-In . SVG Version: 6.00 Build 0)  -->
<svg version="1.1" id="圖層_1" xmlns="http://www.w3.org/2000/svg" xmlns:xlink="http://www.w3.org/1999/xlink" x="0px" y="0px"
	 viewBox="0 0 561.6 438" style="enable-background:new 0 0 561.6 438;" xml:space="preserve">
<style type="text/css">
	.st0{fill:#1C1C1C;}
	.st1{fill:none;stroke:#CCCCCC;stroke-width:2;stroke-miterlimit:10;}
	.st2{fill:#2EB9FF;}
	.st3{fill:#527BFF;}
</style>
<g>
	<g>
		<path class="st0" d="M52,28.5l2.5-3.3c1.6,1.5,3.5,2.7,5.9,2.7c2.7,0,4.5-1.3,4.5-3.5c0-2.5-1.5-4.1-7.3-4.1v-3.8
			c4.9,0,6.5-1.6,6.5-3.9c0-2-1.3-3.2-3.6-3.2c-1.9,0-3.5,0.9-5,2.4l-2.7-3.2c2.3-2,4.9-3.3,8-3.3c5.1,0,8.6,2.5,8.6,7
			c0,2.8-1.7,4.8-4.4,5.9v0.2c3,0.8,5.3,3,5.3,6.4c0,4.8-4.3,7.5-9.4,7.5C56.7,32.2,53.9,30.6,52,28.5z"/>
		<path class="st0" d="M73.2,28.5l2.4-3.4c1.5,1.5,3.4,2.7,5.9,2.7c2.8,0,4.7-1.6,4.7-4.5c0-2.9-1.8-4.5-4.5-4.5
			c-1.6,0-2.4,0.4-4,1.4l-2.4-1.5l0.7-13h14.3v4.4h-9.7l-0.5,5.7c1.1-0.5,2-0.7,3.2-0.7c4.5,0,8.2,2.5,8.2,8.1c0,5.7-4.4,9-9.3,9
			C78,32.2,75.2,30.5,73.2,28.5z"/>
		<path class="st0" d="M94.6,12.9c0-5.3,2.7-8.4,6.5-8.4c3.8,0,6.5,3.1,6.5,8.4c0,5.4-2.7,8.5-6.5,8.5
			C97.3,21.4,94.6,18.3,94.6,12.9z M103.9,12.9c0-3.9-1.2-5.4-2.8-5.4s-2.7,1.5-2.7,5.4c0,3.9,1.2,5.5,2.7,5.5
			S103.9,16.9,103.9,12.9z M116.5,4.5h3.1l-14.5,27.6H102L116.5,4.5z M114,23.7c0-5.4,2.7-8.4,6.5-8.4c3.8,0,6.5,3.1,6.5,8.4
			c0,5.3-2.7,8.5-6.5,8.5C116.7,32.2,114,29,114,23.7z M123.3,23.7c0-3.9-1.2-5.4-2.8-5.4s-2.7,1.5-2.7,5.4c0,3.9,1.2,5.5,2.7,5.5
			S123.3,27.6,123.3,23.7z"/>
	</g>
	<g>
		<path class="st0" d="M190,99.6c6.9-6.6,11.5-11.2,11.5-15c0-2.6-1.4-4.2-4-4.2c-1.9,0-3.5,1.3-4.9,2.8l-2.9-2.9
			c2.4-2.6,4.8-4.1,8.5-4.1c5,0,8.4,3.2,8.4,8.1c0,4.5-4.2,9.2-8.9,14.2c1.3-0.1,3.1-0.3,4.4-0.3h5.8v4.5H190V99.6z"/>
		<path class="st0" d="M211.4,96.1c0-3.2,2.1-5.3,4.6-6.6v-0.1c-2-1.5-3.5-3.4-3.5-6.1c0-4.3,3.4-7,8-7c4.7,0,7.7,2.8,7.7,7.1
			c0,2.6-1.7,4.6-3.4,5.8v0.2c2.4,1.4,4.5,3.3,4.5,6.8c0,4-3.6,7.1-9,7.1C215.2,103.2,211.4,100.2,211.4,96.1z M224.3,95.9
			c0-2.6-2.5-3.5-5.9-4.9c-1.4,1.1-2.4,2.7-2.4,4.5c0,2.4,2,4,4.5,4C222.7,99.4,224.3,98.2,224.3,95.9z M223.9,83.6
			c0-2.2-1.3-3.7-3.5-3.7c-1.8,0-3.2,1.2-3.2,3.3c0,2.4,2.1,3.5,4.9,4.6C223.2,86.5,223.9,85.1,223.9,83.6z"/>
		<path class="st0" d="M232,83.9c0-5.3,2.7-8.4,6.5-8.4c3.8,0,6.5,3.1,6.5,8.4c0,5.4-2.7,8.5-6.5,8.5C234.7,92.4,232,89.3,232,83.9z
			 M241.3,83.9c0-3.9-1.2-5.4-2.8-5.4s-2.7,1.5-2.7,5.4c0,3.9,1.2,5.5,2.7,5.5S241.3,87.9,241.3,83.9z M253.9,75.5h3.1l-14.5,27.6
			h-3.1L253.9,75.5z M251.4,94.7c0-5.4,2.7-8.4,6.5-8.4c3.8,0,6.5,3.1,6.5,8.4c0,5.3-2.7,8.5-6.5,8.5
			C254.1,103.2,251.4,100,251.4,94.7z M260.7,94.7c0-3.9-1.2-5.4-2.8-5.4s-2.7,1.5-2.7,5.4c0,3.9,1.2,5.5,2.7,5.5
			S260.7,98.6,260.7,94.7z"/>
	</g>
	<g>
		<path class="st0" d="M335.6,119.6c6.9-6.6,11.5-11.2,11.5-15c0-2.6-1.4-4.2-4-4.2c-1.9,0-3.5,1.3-4.9,2.8l-2.9-2.9
			c2.4-2.6,4.8-4.1,8.5-4.1c5,0,8.4,3.2,8.4,8.1c0,4.5-4.2,9.2-8.9,14.2c1.3-0.1,3.1-0.3,4.4-0.3h5.8v4.5h-17.9V119.6z"/>
		<path class="st0" d="M369.1,101.2h-12v-4.4h17.7v3.2c-6,7.4-7,12.6-7.5,22.7H362C362.5,113.7,364.1,108.1,369.1,101.2z"/>
		<path class="st0" d="M377.6,103.9c0-5.3,2.7-8.4,6.5-8.4c3.8,0,6.5,3.1,6.5,8.4c0,5.4-2.7,8.5-6.5,8.5
			C380.3,112.4,377.6,109.3,377.6,103.9z M386.9,103.9c0-3.9-1.2-5.4-2.8-5.4s-2.7,1.5-2.7,5.4c0,3.9,1.2,5.5,2.7,5.5
			S386.9,107.9,386.9,103.9z M399.5,95.5h3.1l-14.5,27.6H385L399.5,95.5z M397,114.7c0-5.4,2.7-8.4,6.5-8.4c3.8,0,6.5,3.1,6.5,8.4
			c0,5.3-2.7,8.5-6.5,8.5C399.7,123.2,397,120,397,114.7z M406.3,114.7c0-3.9-1.2-5.4-2.8-5.4c-1.5,0-2.7,1.5-2.7,5.4
			c0,3.9,1.2,5.5,2.7,5.5C405,120.2,406.3,118.6,406.3,114.7z"/>
	</g>
	<g>
		<path class="st0" d="M465.6,209.4h5.7v-16.2h-4.8V190c2.7-0.5,4.5-1.2,6.2-2.2h3.9v21.7h5v4.3h-16V209.4z"/>
		<path class="st0" d="M486.8,209.4h5.7v-16.2h-4.8V190c2.7-0.5,4.5-1.2,6.2-2.2h3.9v21.7h5v4.3h-16V209.4z"/>
		<path class="st0" d="M506.2,194.9c0-5.3,2.7-8.4,6.5-8.4c3.8,0,6.5,3.1,6.5,8.4c0,5.4-2.7,8.5-6.5,8.5
			C508.9,203.4,506.2,200.3,506.2,194.9z M515.5,194.9c0-3.9-1.2-5.4-2.8-5.4s-2.7,1.5-2.7,5.4c0,3.9,1.2,5.5,2.7,5.5
			S515.5,198.9,515.5,194.9z M528.1,186.5h3.1l-14.5,27.6h-3.1L528.1,186.5z M525.6,205.7c0-5.4,2.7-8.4,6.5-8.4s6.5,3.1,6.5,8.4
			c0,5.3-2.7,8.5-6.5,8.5S525.6,211,525.6,205.7z M534.9,205.7c0-3.9-1.2-5.4-2.8-5.4s-2.7,1.5-2.7,5.4c0,3.9,1.2,5.5,2.7,5.5
			S534.9,209.6,534.9,205.7z"/>
	</g>
	<g>
		<path class="st0" d="M20.7,378.3L7.3,391.7l-4.2-4.2l13.4-13.4L20.7,378.3z M8.5,385.2l-2,2l1.2,1.2l2-2L8.5,385.2z M25,390.2
			c2.4-1.2,5.1-2.4,6.8-3.1l-1.2,3.2c-1.6,0.5-4.3,1.6-6.7,2.8l0.5-2.3l-4.7,4.7l2.1-0.8c-0.5,2.4-1.9,5.4-3.2,7.7
			c-0.7-0.1-2.2-0.1-3,0c1.4-2,2.7-4.4,3.3-6.1l-2.6,2.6l-7.5-7.5l11.6-11.6l7.5,7.5L25,390.2z M12.2,381.4l-2.1,2.1l1.2,1.2
			l2.1-2.1L12.2,381.4z M13,391.6l7.4-7.4l-0.8-0.8l-7.4,7.4L13,391.6z M16.1,377.6l-2.1,2.1l1.2,1.2l2.1-2.1L16.1,377.6z
			 M15.1,393.6l7.4-7.4l-0.8-0.8l-7.4,7.4L15.1,393.6z M17.1,395.6l7.4-7.4l-0.8-0.8l-7.4,7.4L17.1,395.6z"/>
		<path class="st0" d="M27.1,366.4l-6.3,6.3l-1.3-1.3l6.3-6.3l-0.8-0.8l2-2l0.8,0.8l6.4-6.4l1.3,1.3l-6.4,6.4l0.5,0.5l5.3-5.3
			l1.2,1.2l-12.3,12.3l-1.2-1.2l5-5L27.1,366.4z M23.8,374.1l13.1-13.1l3,3L26.8,377L23.8,374.1z M27.4,374.1l2-2l-0.7-0.7l-2,2
			L27.4,374.1z M42.3,374.1c2.2-1.4,4.9-2.9,6.6-3.8l-1.5,3.3c-1.4,0.6-3.7,1.8-6,3.2l0.8-2.6l-5.1,5.1l2.2-0.8
			c-0.8,2.1-2.5,4.9-3.9,7c-0.7-0.1-2.1,0-2.8,0.1c1.5-1.9,3.1-4.1,4-5.8l-2.5,2.5l-5.9-5.9l11.3-11.3l5.9,5.9L42.3,374.1z
			 M31.1,370.5l2.1-2.1l-0.7-0.7l-2.1,2.1L31.1,370.5z M31.8,376.2l7.3-7.3l-0.6-0.6l-7.3,7.3L31.8,376.2z M33.4,377.8l7.3-7.3
			l-0.6-0.6l-7.3,7.3L33.4,377.8z M34.8,366.8l2.1-2.1l-0.7-0.7L34,366L34.8,366.8z M35,379.3l7.3-7.3l-0.6-0.6l-7.3,7.3L35,379.3z"
			/>
		<path class="st0" d="M53.5,360.9l-3.4,3.4l1.5,1.5l-1.9,1.9l-13-13l5.3-5.3L53.5,360.9z M40.3,354.6l3,3l1.6-1.6l-3-3L40.3,354.6z
			 M50.6,345.8l1.6,1.6l3.4-3.4l1.7,1.7l-1.2,1.2l1.3,1.3l1.6-1.6l1.7,1.7l-1.6,1.6l3.7,3.7c1,1,1.3,1.7,0.9,2.6
			c-0.4,0.9-1.2,1.9-2.5,3.2c-0.6-0.5-1.7-1-2.5-1.3c0.8-0.8,1.8-1.7,2-2c0.3-0.3,0.3-0.4,0.1-0.7l-3.6-3.6l-5.9,5.9l-1.7-1.7
			l5.9-5.9l-1.3-1.3l-5.4,5.4l-1.7-1.7l3.3-3.3l-1.6-1.6l-3.8,3.8l-1.8-1.8l3.8-3.8l-1.8-1.8l2-2l1.8,1.8l3.8-3.8l1.8,1.8
			L50.6,345.8z M49.8,361l-3.2-3.2l-1.6,1.6l3.2,3.2L49.8,361z M53.8,355.9c1.5,0.1,3.6,0.4,4.8,0.7l-0.7,2.8
			c-1.1-0.3-3.2-0.7-4.8-0.9L53.8,355.9z"/>
		<path class="st0" d="M61.6,341.2l9.1,9.1l-2,2L53.5,337l6.5-6.5l6.1,6.1L61.6,341.2z M57,336.5l0.9,0.9l2.6-2.6l-0.9-0.9L57,336.5
			z M62.8,337.1l-1-1l-2.6,2.6l1,1L62.8,337.1z M80.6,335.5c1.1,1.1,1.5,1.9,1.1,2.9c-0.3,1-1.3,2-2.7,3.5c-0.5-0.4-1.3-0.8-2-1.1
			l-4.2,4.2l0.9,0.9l-1.8,1.8l-7.3-7.3l0.8-0.8l0,0l5.7-5.7l6,6c0.7-0.6,1.3-1.3,1.5-1.5c0.3-0.3,0.3-0.5,0-0.8l-6.6-6.6l-4.6,4.6
			l-6.2-6.2l6.7-6.7L80.6,335.5z M64.5,328.9l0.9,0.9l2.7-2.7l-0.9-0.9L64.5,328.9z M70.5,329.5l-1-1l-2.7,2.7l1,1L70.5,329.5z
			 M70.6,337.2l-2.8,2.8l1,1l2.8-2.8L70.6,337.2z M74.1,340.7l-1.1-1.1l-2.8,2.8l1.1,1.1L74.1,340.7z"/>
		<path class="st0" d="M88.5,323.8l-7.7,7.7l-1.5-1.5l3-3l-0.8-0.8l-2.6,2.6l-1.5-1.5l2.6-2.6l-0.7-0.7l-2.6,2.6l-6.4-6.4l7.2-7.2
			l6.4,6.4l-2.7,2.8l0.7,0.7l2.7-2.7l1.5,1.5l-2.7,2.7l0.8,0.8l3-3L88.5,323.8z M76.7,323.7l1.4-1.4l-3.7-3.7L73,320l0.7,0.7l0.6-1
			c1,0.5,2.3,1.3,3,1.9l-0.6,1.2c-0.7-0.6-1.8-1.4-2.8-1.9L76.7,323.7z M77.1,315.9l-1.5,1.5l2.8,2.8c-0.4-0.9-1.1-2.2-1.7-3
			l1.1-0.5L77.1,315.9z M80.8,319.6l-2.4-2.4c0.4,1,0.9,2,1.2,2.7l-1,0.4l0.7,0.7L80.8,319.6z M86.9,313.1l2.6,2.6l2.7-2.7l7.8,7.8
			l-1.9,1.9l-0.6-0.6l-3.1,3.1l0.6,0.6l-1.8,1.8l-1.2-1.2l-0.7,1.7c-0.9-0.6-2.5-1.3-3.9-1.6l0.8-1.6c1.3,0.3,2.8,0.8,3.7,1.4
			l-6.5-6.5l2.2-2.2l-7.9-7.9l2-2l3.5,3.5l3.3-3.3l1.9,1.9L86.9,313.1z M83.9,335.4c-0.3-1.3-1.2-2.9-2-4.1l1.8-0.8
			c0.8,1.3,1.8,2.9,2.1,4.1L83.9,335.4z M85.1,328.7c1.1,0.8,2.4,1.9,3.2,2.7l-1.1,1.4c-0.8-0.8-2.1-2-3.1-2.8L85.1,328.7z
			 M86.7,326.9c1.2,0.6,2.6,1.4,3.5,2.1l-1,1.5c-0.8-0.7-2.3-1.6-3.5-2.2L86.7,326.9z M92.2,316.7l-3.1,3.1l3.5,3.5l3.1-3.1
			L92.2,316.7z"/>
	</g>
	<g>
		<path class="st0" d="M311.8,366.5l0.5-0.6l1.9,1.9l-0.5,0.6c1.9,2,4.1,4.7,5.1,8.3c1.6-0.1,3.1-0.1,4.2-0.1l0,3
			c-1-0.1-2.3-0.1-3.7-0.1c0.2,1.8,0,3.8-0.6,6c-0.7-0.2-2.2-0.2-3-0.1c0.6-2.2,0.8-4.1,0.6-5.8c-1.8,0.1-3.6,0.2-5.2,0.3
			c-0.8-1.5-1.9-3.3-3.2-5.1l-1.2,1.3l-2.2-1.8c0.5-0.6,1.1-1.2,1.7-1.9c-0.9-1.2-1.8-2.3-2.6-3.3l2.3-2c0.8,1,1.6,2.1,2.4,3.1
			l1.5-1.7l-0.8-0.8l2-2L311.8,366.5z M310,372.7c1.1,1.6,2.1,3.1,2.9,4.5c0.9-0.1,1.9-0.2,2.9-0.2c-0.9-2.7-2.5-4.8-4-6.4
			L310,372.7z M318.3,357.9l13.4,13.4l-2,2l-1-1l-2.7,2.7l1.3,1.3l-1.9,1.9l-13.6-13.6L318.3,357.9z M326.8,370.4l-8.6-8.6l-2.7,2.7
			l8.6,8.6L326.8,370.4z"/>
		<path class="st0" d="M324.7,349.2c0.6,1.4,1.2,2.9,1.7,4.5l12.1,12.1l-2,2l-8.9-8.9c0.1,0.9,0.2,1.8,0.2,2.6
			c-0.7-0.3-2.3-0.9-3.2-1c0-3-0.9-6.8-2.5-10L324.7,349.2z M337.8,341.7l-1,1l10.1,10.1c1.2,1.2,1.5,2,1.1,3
			c-0.4,1-1.5,2.2-3.1,3.8c-0.7-0.5-1.9-1.1-2.8-1.4c1.2-1.1,2.3-2.2,2.7-2.6s0.3-0.5,0-0.9l-10-10l-7.4,7.4l-1.9-1.9l10.5-10.5
			L337.8,341.7z M337.4,358.1l1.1,1.1l-1.9,1.9l-7.2-7.2l5.7-5.7l6.1,6.1L337.4,358.1z M333,353.7l2.6,2.6l1.9-1.9l-2.6-2.6
			L333,353.7z"/>
		<path class="st0" d="M343.4,329.8l1.9-1.9l7.4,7.4c3.4,3.4,5.9,6.8,4.4,12c-0.7-0.1-2.1-0.1-2.8,0c0.9-3.1,0.3-5.3-1-7.3
			c-0.1,1.2-0.3,2.4-0.4,3.5l-2.7-0.7c0.3-1.3,0.7-3.3,1.1-5.2l0.1,0l-0.5-0.5l-1.7-1.7l-0.4,1.6c-1.1-0.6-3-1.3-4.6-1.7l1.8,1.8
			l-1.4,1.4l2.2,2.2l0.8-1.8l2.2,1.4c-0.3,0.8-0.7,1.5-1,2.3l4.5,4.5c0.9,0.9,1.3,1.6,1.1,2.4c-0.2,0.8-0.8,1.6-2,2.7
			c-0.5-0.4-1.6-1.1-2.4-1.4c0.6-0.6,1.2-1.2,1.4-1.4c0.2-0.2,0.2-0.4,0-0.6l-3.8-3.8l-1,2.1L344,346c0.4-0.8,0.8-1.7,1.4-2.7
			l-2.8-2.8l-1.8,1.8l-1.9-1.9l1.8-1.8l-3.2-3.2l1.9-1.9l3.2,3.2l1.4-1.4l-0.4-0.1l0.7-2.3c1,0.2,2.2,0.6,3.2,0.9L343.4,329.8z
			 M363.3,337.3c0.3-0.3-0.1-0.9-1.7-2.7c0.8-0.1,1.8-0.5,2.5-0.9c2.1,2.5,2.5,3.9,1.2,5.2l-1.5,1.5c-1.5,1.5-2.5,1.4-4.7-0.8
			l-12.8-12.8l1.9-1.9l5,5c-0.5-1.5-1.2-3.3-1.8-4.6l2.7-0.9c0.6,2,1.2,4.1,1.5,5.7l-1.7,0.5l1.9,1.9l0-1c2-0.2,4.6-0.2,6-0.1
			l0.1,2.7c-1.2-0.2-3-0.3-4.8-0.3l3.9,3.9c0.8,0.8,0.9,0.8,1.3,0.5L363.3,337.3z"/>
		<path class="st0" d="M358.8,321.3c-1.2-0.3-3.3-0.5-4.9-0.5l0.6-2.4c1.6,0,3.6,0.1,4.8,0.3L358.8,321.3z M365.5,323.9
			c1.1,1.5,2,2.9,2.7,4.3c2.8,0.8,4.9-0.9,7.7-3.7c1.8-1.8,4.5-4.7,6.2-6.8c0.1,0.7,0.8,1.8,1.2,2.5c-1.6,1.9-3.8,4.1-5.8,6.1
			c-3.1,3.1-5.4,4.8-8.5,4.3c0.5,1.6,0.6,3,0.4,4.4c-0.7-0.2-2-0.2-2.6-0.1c0.4-2.4-0.3-5-2.1-7.8l-1.1,1.1
			c-0.4,0.4-0.7,0.9-0.7,1.2c-0.5-0.3-1.7-0.8-2.3-1c0.2-0.3,0.3-0.7,0.3-1.4c0-0.5-0.4-2.1-0.8-3.5l-1.9,1.9l-1.6-1.6l3-3l0.2-0.4
			l1.7-0.7c0.4,1.5,1.1,4,1.5,5.9l0.9-0.9l0.3-0.4L365.5,323.9z M366.5,314.6c0.3,0.5,0.8,1.3,1.1,1.7c-2.9,4-3.3,4.7-3.5,5.2
			c-0.5-0.3-1.5-0.7-2.2-0.8c0.1-0.4,0.1-1-0.5-1.7l-3.2-3.2l4.7-4.7l3.2,3.2l-3.1,3.1l0.8,0.8L366.5,314.6z M360.9,315.4l0.8,0.8
			l1.5-1.5l-0.8-0.8L360.9,315.4z M370.7,313.8c-1.5,1.5-2.5,1.3-3.9-0.1l-3.3-3.3l4.8-4.8l3.2,3.2l-3.2,3.2l0.1,0.1
			c0.5,0.5,0.7,0.6,1.1,0.2l1.7-1.7c0.3-0.3,0.9-0.9,1.1-1.3c0.5,0.4,1.1,0.9,1.5,1.2c-0.2,0.4-0.7,0.9-1.1,1.4L370.7,313.8z
			 M379.1,315.7l-3.1,3.1c1.6-0.5,3.3-1,4.4-1.2l-1,2.6c-1.1,0.1-3,0.4-4.5,1l0.4-1.7l-3.6,3.6l1.9-1c-0.1,1.6-0.6,3.8-1.3,5.4
			c-0.7,0-2,0.1-2.7,0.3c0.7-1.4,1.4-3,1.6-4.2l-3.1,3.1l-1.5-1.5l2.7-2.7l-1.1-1.1l-2.1,2.1l-1.5-1.5l2.1-2.1l-0.9-0.9l1.9-1.9
			l0.9,0.9l1.8-1.8l-0.9-0.9l1.9-1.9l0.9,0.9l2.1-2.1l1.5,1.5l-2.1,2.1l1.1,1.1l2.7-2.7L379.1,315.7z M366.3,310l0.8,0.8l1.5-1.5
			l-0.8-0.8L366.3,310z M371.2,320.6l1.8-1.8l-1.1-1.1l-1.8,1.8L371.2,320.6z"/>
	</g>
	<g>
		<path class="st0" d="M447.6,370.5c-1.2,0-3.4,0.6-5,1.2l-0.4-2.6c1.5-0.7,3.6-1.3,4.9-1.4L447.6,370.5z M451.2,376
			c-1.3,0.1-3.4,0.7-5,1.3l-0.5-2.6c1.5-0.7,3.6-1.4,4.9-1.5L451.2,376z M452.3,365.5c1.3,2.4,2,4.8,1.9,7.1c-0.7,0-2.3,0.3-3,0.5
			c0.4-3.1-1.1-6.3-3.5-9.5l2.3-1.9c0.4,0.5,0.7,1,1,1.5l5.5-5.5c0,0,0.5,0.5,0.7,0.8c2.6,2.9,3.6,4.3,3.6,5.3
			c0.1,0.8-0.2,1.3-0.7,2c-0.4,0.5-1.3,1.4-2.2,2.2c-0.6-0.5-1.6-1.1-2.5-1.3c0.8-0.7,1.6-1.4,2-1.8c0.3-0.3,0.4-0.5,0.4-0.8
			c0-0.4-0.5-1.2-1.6-2.6L452.3,365.5z M455.5,376.3c0.9,2.6,1.9,5.6,2.5,8.2l-3.1,0.4c-0.4-2.1-1.3-5.5-2.3-8.4L455.5,376.3z
			 M463.4,364.5c1.3,2.4,1.7,4.8,1.6,7.2c1.7-0.6,3.4-1.4,5.1-2.5c0,0.9,0.2,2.3,0.5,3.1c-2,1.2-4,2-6,2.5c-0.6,2.3-1.7,4.5-3.2,6.8
			c-0.7-0.4-2-0.7-2.8-0.8c1.3-1.8,2.4-3.7,3-5.6c-1.6,0-3.1-0.2-4.7-0.6l0.9-1.7l-2.3,2.3l-1.8-1.8l7.5-7.5l0.3-0.4L463.4,364.5z
			 M458.4,372.2c1.2,0.3,2.5,0.3,3.8,0.2c0.2-1.3,0.1-2.5-0.2-3.7L458.4,372.2z"/>
		<path class="st0" d="M467.4,351.8c0.3,0.6,0.5,1.3,0.7,2l7.9-7.9l8.4,8.4c1,1,1.4,1.7,1,2.7c-0.3,1-1.3,2-2.7,3.3
			c-0.6-0.5-1.8-1.1-2.6-1.3c0.9-0.8,1.9-1.8,2.2-2.1c0.3-0.3,0.3-0.5,0.1-0.7l-1-1l-6.4,6.4c1,1.6,1.7,3.3,1.5,5.3
			c-0.7-0.2-2.3-0.2-3-0.1c0.2-2.7-1.5-4.7-3.1-6.2l-1.4-1.4c0,1.3,0,2.6-0.3,4c-0.8-0.2-2.1-0.3-2.9-0.2c0.6-2.9,0.2-5.9-0.7-8.8
			l-3.7,3.7l-1.9-1.9l4.5-4.5c-0.4-1-0.9-1.9-1.4-2.7l2.6-1.6c0.4,0.7,0.7,1.4,1,2.1l8.3-8.3l1.9,1.9L467.4,351.8z M475.7,349.6
			l-6.1,6.1l1.1,1.1l6.1-6.1L475.7,349.6z M479.6,353.5l-1.1-1.1l-6.1,6.1c0.4,0.4,0.7,0.7,1.1,1.1L479.6,353.5z"/>
		<path class="st0" d="M483.8,341.3l8.9,8.9l-2,2L475.5,337l6.5-6.5l6.3,6.3L483.8,341.3z M479.1,336.6l0.9,0.9l2.6-2.6l-0.9-0.9
			L479.1,336.6z M484.9,337.2l-1-1l-2.6,2.6l1,1L484.9,337.2z M502.6,335.5c1.1,1.1,1.5,1.9,1.1,3c-0.4,1-1.4,2.2-2.9,3.7
			c-0.6-0.5-1.9-1.1-2.8-1.4c1.1-0.9,2.2-2.1,2.5-2.4c0.3-0.3,0.3-0.5,0-0.8l-6.4-6.4l-4.6,4.6l-6.3-6.3l6.6-6.6L502.6,335.5z
			 M486.6,329l0.9,0.9l2.7-2.7l-0.9-0.9L486.6,329z M494,344.2l1,0.9L493,347l-6.3-6.3l6.6-6.6l5.3,5.3L494,344.2z M492.6,329.6
			l-1-1l-2.7,2.7l1,1L492.6,329.6z M490.3,340.5l2,2l2.8-2.8l-2-2L490.3,340.5z"/>
		<path class="st0" d="M504.3,319.4l-6.1,6.1l-5.6-5.6l6.1-6.1L504.3,319.4z M498.2,317l-2.4,2.4l0.8,0.8l2.4-2.4L498.2,317z
			 M500.3,319.1l-2.4,2.4l0.8,0.8l2.4-2.4L500.3,319.1z M509.6,328.7c1.3-0.7,2.6-1.9,4.1-3.4c1.2-1.2,5.8-5.8,7.1-7.2
			c0.1,0.7,0.6,1.7,1,2.3l-6.5,6.5c-3.2,3.2-5.6,5-8.8,4.5c0.8,1.3,1.3,2.5,1.4,3.8c-0.7-0.2-1.8-0.3-2.5-0.2
			c-0.2-2.1-2.1-4.3-4-6.4l1.6-1.6c0.6,0.6,1.2,1.3,1.7,2c0.8,0.3,1.5,0.5,2.2,0.5l-3.9-3.9l-3.1,3.1l-1.5-1.5l7.6-7.6l1.5,1.5
			l-2.8,2.8l1.4,1.4l2.4-2.4l1.5,1.5l-2.4,2.4L509.6,328.7z M504.5,312.8c-0.2-0.4-0.4-0.8-0.6-1.2l-3,3l-1.4-1.4l7.8-7.8l1.4,1.4
			l-3,3l0.5,1.3l2.9-2.9l7.7,7.7l-6.8,6.8l-7.7-7.7L504.5,312.8z M508.6,311.5l-3.1,3.1l0.8,0.8l3.1-3.1L508.6,311.5z M510.6,313.6
			l-3.1,3.1l0.8,0.8l3.1-3.1L510.6,313.6z M512.7,315.6l-3.1,3.1l0.8,0.8l3.1-3.1L512.7,315.6z M513.7,320.3c0.2,1.7,0,3.8-0.5,5.4
			c-0.6,0-1.8,0-2.5,0.1c0.5-1.5,0.9-3.1,0.8-4.4L513.7,320.3z M515.2,317.6c1.5-0.3,3.4-0.5,4.6-0.3l-0.6,2.3
			c-1.2-0.1-3.2-0.1-4.7,0.2L515.2,317.6z"/>
	</g>
	<g>
		<path class="st0" d="M111.2,420.8c0.9,1.4,1.7,2.8,2.5,4.3l3.2-3.2l7.8,7.8l-3.2,3.2l1.2,1.2l-1.7,1.7l-5.3-5.3
			c0.1,0.5,0.2,1.1,0.2,1.6c-0.6-0.5-2.3-1.4-3.1-1.7c-0.4-2.4-1.7-5.2-3.5-7.8l-1.8,1.8l-1.8-1.8l6.2-6.2l1.8,1.8L111.2,420.8z
			 M129.3,415l-1.8,1.8l7.1,7.1l-1.9,1.9l-7.1-7.1l-1.9,1.9c2.4,2.6,4.7,5.9,4.8,9.5c-0.7,0-2,0.2-2.7,0.4c-0.1-3-2.1-5.8-4-8
			l-1.6,1.6l-1.9-1.9l1.6-1.6l-4.2-4.2l-1.2,1.2l-1.9-1.9l8.3-8.3l1.9,1.9l-1.4,1.4l4.2,4.2l1.8-1.8L129.3,415z M116.9,425.4
			l-1.5,1.5l4.2,4.2l1.5-1.5L116.9,425.4z M123.7,416.8l-4.2-4.2l-1.9,1.9l4.2,4.2L123.7,416.8z"/>
		<path class="st0" d="M129.3,407.3l-2,2l-3.5-3.5l6.2-6.2c-0.5-0.3-1.1-0.6-1.6-0.8l1.8-2.5c0.6,0.3,1.4,0.7,2.1,1l6.2-6.2l3.3,3.3
			l-2.1,2.1l-1.5-1.5l-2.4,2.4l2.2,2.2c0.4,0.4,0.7,0.6,1.1,0.1l2.1-2.1c0.5-0.5,1.1-1.2,1.3-1.6c0.6,0.5,1.3,1.1,1.9,1.5
			c-0.2,0.4-0.8,1.1-1.4,1.7l-2.3,2.3c-1.9,1.9-3.1,1.7-4.7,0l-2.2-2.2l-1.7,1.7c2.1,2.7,2.6,5.1-0.5,9.8c-0.7-0.3-1.9-0.6-2.7-0.6
			c2.7-3.7,2.4-5.3,1.1-7.1l-2.2,2.2L129.3,407.3z M148.8,405.1c0.4-0.4,0.2-0.8-1.9-2.9c0.8-0.1,2-0.6,2.8-1c2.6,3,2.8,4.3,1.3,5.7
			l-1.6,1.6c-1.7,1.7-2.8,1.6-4.8-0.4l-2.2-2.2l-2.2,2.2c1.6,2.4,2.1,5.9-1.1,11.5c-0.8-0.2-2.2-0.3-3.2-0.3c2.6-4.4,2.8-7.1,2-8.9
			l-4.2,4.2l-1.9-1.9l4.4-4.4l-1.9-1.9l2.1-2.1l1.9,1.9l4.2-4.2l4,4c0.5,0.5,0.7,0.5,1.1,0.2L148.8,405.1z"/>
		<path class="st0" d="M160.9,385c1.7-0.1,3.6-0.5,5.3-1.3c-0.1,0.8,0,2.1,0.2,2.9c-1.3,0.5-2.9,0.8-4.4,0.9l1.3,1.3l-3.1,3.1
			l1.1,1.1l5.5-5.5l1.7,1.7L155.5,402l-1.7-1.7l5.3-5.3l-1.1-1.1l-3,3l-1.1-1.1c-0.1,1.5-0.4,3.1-1,4.4c-0.8-0.2-2-0.3-2.8-0.3
			c0.8-1.7,1.3-3.7,1.3-5.6l-3.3,3.3l-1.6-1.6l3.2-3.2l-5.1-5.1l-2.3,2.3l-1.6-1.6l2.3-2.3l-1.3-1.3l2-2l1.3,1.3l5.3-5.3l-1.3-1.3
			l2.1-2.1l1.3,1.3l2.3-2.3l1.6,1.6l-2.3,2.3l5.1,5.1l3.1-3.1l1.6,1.6L160.9,385z M146.8,385.7l0.7,0.7l5.3-5.3l-0.7-0.7
			L146.8,385.7z M149.7,388.6l5.3-5.3l-0.7-0.7l-5.3,5.3L149.7,388.6z M151.9,390.8l5.3-5.3l-0.8-0.8l-5.3,5.3L151.9,390.8z
			 M161.3,387.5c-0.9,0-1.8-0.1-2.6-0.2l-4.8,4.8c0.2,0.8,0.2,1.7,0.2,2.6l2.4-2.4l-1.1-1.1l2.1-2.1l1.1,1.1L161.3,387.5z"/>
		<path class="st0" d="M171.3,368.9l1.8,1.8l5.4-5.4l1.8,1.8l-2.7,2.7l2.3-1.1c0.4,1.5,0.7,3.2,0.9,4.5l3.6-3.6l1.8,1.8L171.7,386
			l-1.8-1.8l3.3-3.3c-1.1-0.5-2.8-1.1-4.2-1.3l0.8-1.9l-2.5,2.5l-1.8-1.8l5.4-5.4l-1.8-1.8l-3.4,3.4l-0.8-0.8
			c-0.4,1.1-0.8,2.1-1.3,3.1c-0.9-0.3-2.2-0.5-3.2-0.5c2.3-4.1,3.6-8.9,2.7-13l2.8-1.1c0.1,0.4,0.1,0.7,0.2,1.2
			c3.2-0.2,7.3-1.5,10.6-3.3c0,0.9,0.2,2.3,0.4,3.2c-1,0.5-2.2,0.9-3.3,1.3l1,1L171.3,368.9z M171.4,365.1c-1.7,0.4-3.5,0.7-5.1,0.7
			c0,1.7-0.2,3.3-0.5,5L171.4,365.1z M170.2,377.2c1.4,0.2,3.2,0.7,4.2,1.2l-0.8,2l2.5-2.5l-3.3-3.3L170.2,377.2z M174.9,372.5
			l3.3,3.3l2.1-2.1l-1.6,0.7c-0.2-1.3-0.8-3.1-1.3-4.3L174.9,372.5z"/>
		<path class="st0" d="M193.3,345c1.6,3,2.6,6,3.1,8.9c1.7,0.8,2.9,1,3.3,0.6c0.4-0.4-0.3-1.4-2.4-3.6c0.9,0,2.1-0.2,2.9-0.5
			c2.9,3.5,3,4.9,1.4,6.5c-1.1,1.1-2.8,1.1-4.9,0.5c0.1,1.7-0.1,3.4-0.4,5c-0.7-0.1-2.3-0.1-3.1,0c0.2-0.8,0.4-1.7,0.5-2.6
			c-2,3.1-4.1,6.3-5.7,8.8l-2.4-1.7c1.6-2.2,4-5.7,6.1-9l2,1.6c0.1-1.1,0.1-2.3,0-3.4c-2.5-1.4-5.4-3.5-8.2-5.8l-8.2,8.2l-2-2
			l8.1-8.1c-0.9-0.8-1.7-1.6-2.5-2.4l2.2-2.2c0.8,0.8,1.6,1.6,2.5,2.4l2.7-2.7c-1,0.1-2.3,0.4-3.3,0.7l-0.1-2.5c1.3-0.5,3.1-1,4.2-1
			l0.1,1.8l1.3-1.3l2,2l-4.8,4.8c1.8,1.5,3.6,2.9,5.3,4c-0.5-1.8-1.3-3.6-2.2-5.4L193.3,345z M185.6,352.2l5.3,5.3l-6.3,6.3
			l-5.3-5.3L185.6,352.2z M185.3,355.9l-2.5,2.5l2,2l2.5-2.5L185.3,355.9z"/>
		<path class="st0" d="M202.7,332.5l1.9,1.9l5.5-5.5l5.7,5.7c1,1,1.4,1.8,1,2.8c-0.4,1-1.3,2-2.6,3.3c-0.7-0.5-1.8-1.1-2.7-1.3
			c0.9-0.8,1.9-1.8,2.1-2.1c0.3-0.3,0.3-0.4,0.1-0.7l-3.7-3.7l-3.4,3.4l7.6,7.6l-2.1,2.1l-7.6-7.6l-3.1,3.1l6,6l-2,2l-7.9-7.9
			l5.2-5.2l-1.9-1.9l-6.6,6.6l-2-2l6.8-6.8c-0.9-0.4-1.9-0.7-2.7-1l1.4-2.6c1.2,0.4,2.8,0.8,3.8,1.2l6.3-6.3l2,2L202.7,332.5z"/>
		<path class="st0" d="M224.1,319.6c0.1,0.4,0.2,0.8,0.3,1.3l6.9-6.9c0,0,0.4,0.5,0.7,0.7c3.1,3.5,4.2,5.2,4.2,6.1
			c0.1,0.7-0.2,1.2-0.5,1.7c-0.3,0.4-1,1.1-1.7,1.7c-0.5-0.4-1.4-1-2-1.1c0.6-0.5,1-0.9,1.3-1.2c0.2-0.2,0.3-0.4,0.3-0.7
			c0-0.5-0.7-1.6-2.5-3.8l-0.7,0.7c1.2,2.6,1.9,6,1.6,8.4c-0.7-0.1-1.8,0.1-2.5,0.3c0.5-2.1,0.1-4.8-0.7-7.1l-1,1
			c0.7,2.5,0.8,5.8,0.3,8.2c-0.7-0.1-1.7-0.1-2.5,0.1c0.6-1.9,0.7-4.4,0.4-6.5l-1,1c0,1.3-0.1,2.5-0.3,3.6c-0.6-0.1-1.8,0-2.5,0.1
			c-0.6,1.8-1.2,3.7-1.7,5.2l-2.8-1.3c0.4-0.8,0.8-1.8,1.3-2.9l-4.8-4.8l-1.7,1.7l-1.9-1.9l1.7-1.7l-3.3-3.3l1.9-1.9l3.3,3.3
			l1.6-1.6l1.9,1.9l-1.6,1.6l4,4l0.8-2l1.8,1.1c0.1-1.1,0-2.3-0.2-3.4l-1.9,1.9l-1.7-1.7l10.7-10.7l1.7,1.7L224.1,319.6z
			 M227.3,311.7l-8,8l-5.7-5.7l8-8L227.3,311.7z M221.1,309.2l-4.4,4.4l0.8,0.8l4.4-4.4L221.1,309.2z M223.3,311.4l-4.4,4.4l0.8,0.8
			l4.4-4.4L223.3,311.4z"/>
	</g>
	<line class="st1" x1="19.6" y1="293.9" x2="561.6" y2="293.9"/>
	<rect x="60.6" y="41.9" class="st2" width="58" height="250"/>
	<rect x="197.3" y="112.9" class="st3" width="58" height="179"/>
	<rect x="333.9" y="131.9" class="st3" width="58" height="160"/>
	<rect x="470.6" y="225.9" class="st3" width="58" height="66"/>
</g>
<g>
	
		<text transform="matrix(1 0 0 1 51.085 538.6802)" class="st0" style="font-family:'SourceHanSansTW-Bold-B5pc-H'; font-size:36px;">35%</text>
	
		<text transform="matrix(1 0 0 1 188.485 609.6802)" class="st0" style="font-family:'SourceHanSansTW-Bold-B5pc-H'; font-size:36px;">28%</text>
	
		<text transform="matrix(1 0 0 1 334.085 629.6802)" class="st0" style="font-family:'SourceHanSansTW-Bold-B5pc-H'; font-size:36px;">27%</text>
	
		<text transform="matrix(1 0 0 1 462.685 720.6802)" class="st0" style="font-family:'SourceHanSansTW-Bold-B5pc-H'; font-size:36px;">11%</text>
	
		<text transform="matrix(0.7071 -0.7071 0.7071 0.7071 14.9341 910.0573)" class="st0" style="font-family:'SourceHanSansTW-Bold-B5pc-H'; font-size:24px;">買賣時間點</text>
	
		<text transform="matrix(0.7071 -0.7071 0.7071 0.7071 315.4096 893.0866)" class="st0" style="font-family:'SourceHanSansTW-Bold-B5pc-H'; font-size:24px;">如何挑選</text>
	
		<text transform="matrix(0.7071 -0.7071 0.7071 0.7071 453.9047 893.0866)" class="st0" style="font-family:'SourceHanSansTW-Bold-B5pc-H'; font-size:24px;">沒有問題</text>
	
		<text transform="matrix(0.7071 -0.7071 0.7071 0.7071 118.4586 943.9985)" class="st0" style="font-family:'SourceHanSansTW-Bold-B5pc-H'; font-size:24px;">研究基金或市場</text>
	<line class="st1" x1="19.6" y1="800.9" x2="561.6" y2="800.9"/>
	<rect x="60.6" y="548.9" class="st2" width="58" height="250"/>
	<rect x="197.3" y="619.9" class="st3" width="58" height="179"/>
	<rect x="333.9" y="638.9" class="st3" width="58" height="160"/>
	<rect x="470.6" y="732.9" class="st3" width="58" height="66"/>
</g>
</svg>
