<?xml version="1.0" encoding="utf-8"?>
<!-- Generator: Adobe Illustrator 24.1.3, SVG Export Plug-In . SVG Version: 6.00 Build 0)  -->
<svg version="1.1" id="圖層_1" xmlns="http://www.w3.org/2000/svg" xmlns:xlink="http://www.w3.org/1999/xlink" x="0px" y="0px"
	 viewBox="0 0 561.6 498" style="enable-background:new 0 0 561.6 498;" xml:space="preserve">
<style type="text/css">
	.st0{fill:#1C1C1C;}
	.st1{fill:none;stroke:#CCCCCC;stroke-width:2;stroke-miterlimit:10;}
	.st2{fill:#2EB9FF;}
	.st3{fill:#527BFF;}
</style>
<g>
	<g>
		<path class="st0" d="M36.9,19.4c0-9.9,4.9-14.2,10.3-14.2c3.2,0,5.6,1.4,7.2,3l-2.8,3.2c-0.9-1-2.6-1.9-4.1-1.9
			c-3.1,0-5.6,2.3-5.8,9c1.5-1.8,3.7-2.9,5.5-2.9c4.5,0,7.7,2.6,7.7,8c0,5.3-3.8,8.6-8.4,8.6C41.4,32.2,36.9,28.3,36.9,19.4z
			 M41.8,22.1c0.5,4.4,2.3,6,4.5,6c2,0,3.6-1.5,3.6-4.6c0-2.9-1.5-4.2-3.8-4.2C44.8,19.3,43.2,20.1,41.8,22.1z"/>
		<path class="st0" d="M57.9,18.6c0-8.8,3.6-13.4,9-13.4s9,4.6,9,13.4c0,8.8-3.5,13.6-9,13.6S57.9,27.4,57.9,18.6z M70.9,18.6
			c0-7.2-1.7-9.2-4-9.2s-4,2-4,9.2c0,7.2,1.7,9.5,4,9.5S70.9,25.8,70.9,18.6z"/>
		<path class="st0" d="M78.7,12.9c0-5.3,2.7-8.4,6.5-8.4c3.8,0,6.5,3.1,6.5,8.4c0,5.4-2.7,8.5-6.5,8.5
			C81.3,21.4,78.7,18.3,78.7,12.9z M87.9,12.9c0-3.9-1.2-5.4-2.8-5.4s-2.7,1.5-2.7,5.4c0,3.9,1.2,5.5,2.7,5.5S87.9,16.9,87.9,12.9z
			 M100.5,4.5h3.1L89.2,32.2h-3.1L100.5,4.5z M98,23.7c0-5.4,2.7-8.4,6.5-8.4c3.8,0,6.5,3.1,6.5,8.4c0,5.3-2.7,8.5-6.5,8.5
			C100.7,32.2,98,29,98,23.7z M107.3,23.7c0-3.9-1.2-5.4-2.8-5.4s-2.7,1.5-2.7,5.4c0,3.9,1.2,5.5,2.7,5.5S107.3,27.6,107.3,23.7z"/>
	</g>
	<g>
		<path class="st0" d="M133.2,99.2h-11.4v-3.6l9.9-15.9h6.4v15.4h3.1v4.1h-3.1v6.4h-4.9V99.2z M133.2,95.2V90c0-1.5,0.1-4,0.2-5.5
			h-0.1c-0.6,1.4-1.4,2.7-2.1,4.2l-4.1,6.6H133.2z"/>
		<path class="st0" d="M143.3,102.5l2.4-3.4c1.5,1.5,3.4,2.7,5.9,2.7c2.8,0,4.7-1.6,4.7-4.5c0-2.9-1.8-4.5-4.5-4.5
			c-1.6,0-2.4,0.4-4,1.4l-2.4-1.5l0.7-13h14.3v4.4h-9.7l-0.5,5.7c1.1-0.5,2-0.7,3.2-0.7c4.5,0,8.2,2.5,8.2,8.1c0,5.7-4.4,9-9.3,9
			C148,106.2,145.2,104.5,143.3,102.5z"/>
		<path class="st0" d="M164.7,86.9c0-5.3,2.7-8.4,6.5-8.4c3.8,0,6.5,3.1,6.5,8.4c0,5.4-2.7,8.5-6.5,8.5
			C167.3,95.4,164.7,92.3,164.7,86.9z M173.9,86.9c0-3.9-1.2-5.4-2.8-5.4s-2.7,1.5-2.7,5.4c0,3.9,1.2,5.5,2.7,5.5
			S173.9,90.9,173.9,86.9z M186.5,78.5h3.1l-14.5,27.6h-3.1L186.5,78.5z M184,97.7c0-5.4,2.7-8.4,6.5-8.4c3.8,0,6.5,3.1,6.5,8.4
			c0,5.3-2.7,8.5-6.5,8.5C186.7,106.2,184,103,184,97.7z M193.3,97.7c0-3.9-1.2-5.4-2.8-5.4s-2.7,1.5-2.7,5.4c0,3.9,1.2,5.5,2.7,5.5
			S193.3,101.6,193.3,97.7z"/>
	</g>
	<g>
		<path class="st0" d="M207.1,138.5l2.5-3.3c1.6,1.5,3.5,2.7,5.9,2.7c2.7,0,4.5-1.3,4.5-3.5c0-2.5-1.5-4.1-7.3-4.1v-3.8
			c4.9,0,6.5-1.6,6.5-3.9c0-2-1.3-3.2-3.6-3.2c-1.9,0-3.5,0.9-5,2.4l-2.7-3.2c2.3-2,4.9-3.3,8-3.3c5.1,0,8.6,2.5,8.6,7
			c0,2.8-1.7,4.8-4.4,5.9v0.2c3,0.8,5.3,3,5.3,6.4c0,4.8-4.3,7.5-9.4,7.5C211.8,142.2,208.9,140.6,207.1,138.5z"/>
		<path class="st0" d="M228.3,138.5l2.4-3.4c1.5,1.5,3.4,2.7,5.9,2.7c2.8,0,4.7-1.6,4.7-4.5c0-2.9-1.8-4.5-4.5-4.5
			c-1.6,0-2.4,0.4-4,1.4l-2.4-1.5l0.7-13h14.3v4.4h-9.7l-0.5,5.7c1.1-0.5,2-0.7,3.2-0.7c4.5,0,8.2,2.5,8.2,8.1c0,5.7-4.4,9-9.3,9
			C233,142.2,230.2,140.5,228.3,138.5z"/>
		<path class="st0" d="M249.7,122.9c0-5.3,2.7-8.4,6.5-8.4c3.8,0,6.5,3.1,6.5,8.4c0,5.4-2.7,8.5-6.5,8.5
			C252.3,131.4,249.7,128.3,249.7,122.9z M258.9,122.9c0-3.9-1.2-5.4-2.8-5.4s-2.7,1.5-2.7,5.4c0,3.9,1.2,5.5,2.7,5.5
			S258.9,126.9,258.9,122.9z M271.5,114.5h3.1l-14.5,27.6h-3.1L271.5,114.5z M269,133.7c0-5.4,2.7-8.4,6.5-8.4
			c3.8,0,6.5,3.1,6.5,8.4c0,5.3-2.7,8.5-6.5,8.5C271.7,142.2,269,139,269,133.7z M278.3,133.7c0-3.9-1.2-5.4-2.8-5.4
			s-2.7,1.5-2.7,5.4c0,3.9,1.2,5.5,2.7,5.5S278.3,137.6,278.3,133.7z"/>
	</g>
	<g>
		<path class="st0" d="M303.1,153.5l2.5-3.3c1.6,1.5,3.5,2.7,5.9,2.7c2.7,0,4.5-1.3,4.5-3.5c0-2.5-1.5-4.1-7.3-4.1v-3.8
			c4.9,0,6.5-1.6,6.5-3.9c0-2-1.3-3.2-3.6-3.2c-1.9,0-3.5,0.9-5,2.4l-2.7-3.2c2.3-2,4.9-3.3,8-3.3c5.1,0,8.6,2.5,8.6,7
			c0,2.8-1.7,4.8-4.4,5.9v0.2c3,0.8,5.3,3,5.3,6.4c0,4.8-4.3,7.5-9.4,7.5C307.8,157.2,304.9,155.6,303.1,153.5z"/>
		<path class="st0" d="M324.3,153.5l2.5-3.3c1.6,1.5,3.5,2.7,5.9,2.7c2.7,0,4.5-1.3,4.5-3.5c0-2.5-1.5-4.1-7.3-4.1v-3.8
			c4.9,0,6.5-1.6,6.5-3.9c0-2-1.3-3.2-3.6-3.2c-1.9,0-3.5,0.9-5,2.4l-2.7-3.2c2.3-2,4.9-3.3,8-3.3c5.1,0,8.6,2.5,8.6,7
			c0,2.8-1.7,4.8-4.4,5.9v0.2c3,0.8,5.3,3,5.3,6.4c0,4.8-4.3,7.5-9.4,7.5C329,157.2,326.1,155.6,324.3,153.5z"/>
		<path class="st0" d="M345.7,137.9c0-5.3,2.7-8.4,6.5-8.4c3.8,0,6.5,3.1,6.5,8.4c0,5.4-2.7,8.5-6.5,8.5
			C348.3,146.4,345.7,143.3,345.7,137.9z M354.9,137.9c0-3.9-1.2-5.4-2.8-5.4s-2.7,1.5-2.7,5.4c0,3.9,1.2,5.5,2.7,5.5
			S354.9,141.9,354.9,137.9z M367.5,129.5h3.1l-14.5,27.6h-3.1L367.5,129.5z M365,148.7c0-5.4,2.7-8.4,6.5-8.4
			c3.8,0,6.5,3.1,6.5,8.4c0,5.3-2.7,8.5-6.5,8.5C367.7,157.2,365,154,365,148.7z M374.3,148.7c0-3.9-1.2-5.4-2.8-5.4
			c-1.5,0-2.7,1.5-2.7,5.4c0,3.9,1.2,5.5,2.7,5.5C373.1,154.2,374.3,152.6,374.3,148.7z"/>
	</g>
	<g>
		<path class="st0" d="M391.1,268.4h5.7v-16.2H392V249c2.7-0.5,4.5-1.2,6.2-2.2h3.9v21.7h5v4.3h-16V268.4z"/>
		<path class="st0" d="M410.3,269.5l2.5-3.3c1.6,1.5,3.5,2.7,5.9,2.7c2.7,0,4.5-1.3,4.5-3.5c0-2.5-1.5-4.1-7.3-4.1v-3.8
			c4.9,0,6.5-1.6,6.5-3.9c0-2-1.3-3.2-3.6-3.2c-1.9,0-3.5,0.9-5,2.4l-2.7-3.2c2.3-2,4.9-3.3,8-3.3c5.1,0,8.6,2.5,8.6,7
			c0,2.8-1.7,4.8-4.4,5.9v0.2c3,0.8,5.3,3,5.3,6.4c0,4.8-4.3,7.5-9.4,7.5C415,273.2,412.1,271.6,410.3,269.5z"/>
		<path class="st0" d="M431.7,253.9c0-5.3,2.7-8.4,6.5-8.4c3.8,0,6.5,3.1,6.5,8.4c0,5.4-2.7,8.5-6.5,8.5
			C434.3,262.4,431.7,259.3,431.7,253.9z M440.9,253.9c0-3.9-1.2-5.4-2.8-5.4s-2.7,1.5-2.7,5.4c0,3.9,1.2,5.5,2.7,5.5
			S440.9,257.9,440.9,253.9z M453.5,245.5h3.1l-14.5,27.6h-3.1L453.5,245.5z M451,264.7c0-5.4,2.7-8.4,6.5-8.4
			c3.8,0,6.5,3.1,6.5,8.4c0,5.3-2.7,8.5-6.5,8.5C453.7,273.2,451,270,451,264.7z M460.3,264.7c0-3.9-1.2-5.4-2.8-5.4
			c-1.5,0-2.7,1.5-2.7,5.4c0,3.9,1.2,5.5,2.7,5.5C459.1,270.2,460.3,268.6,460.3,264.7z"/>
	</g>
	<g>
		<path class="st0" d="M489.1,324.5l2.5-3.3c1.6,1.5,3.5,2.7,5.9,2.7c2.7,0,4.5-1.3,4.5-3.5c0-2.5-1.5-4.1-7.3-4.1v-3.8
			c4.9,0,6.5-1.6,6.5-3.9c0-2-1.3-3.2-3.6-3.2c-1.9,0-3.5,0.9-5,2.4l-2.7-3.2c2.3-2,4.9-3.3,8-3.3c5.1,0,8.6,2.5,8.6,7
			c0,2.8-1.7,4.8-4.4,5.9v0.2c3,0.8,5.3,3,5.3,6.4c0,4.8-4.3,7.5-9.4,7.5C493.8,328.2,490.9,326.6,489.1,324.5z"/>
		<path class="st0" d="M510.5,308.9c0-5.3,2.7-8.4,6.5-8.4c3.8,0,6.5,3.1,6.5,8.4c0,5.4-2.7,8.5-6.5,8.5
			C513.1,317.4,510.5,314.3,510.5,308.9z M519.7,308.9c0-3.9-1.2-5.4-2.8-5.4c-1.5,0-2.7,1.5-2.7,5.4c0,3.9,1.2,5.5,2.7,5.5
			C518.5,314.4,519.7,312.8,519.7,308.9z M532.3,300.5h3.1L521,328.2h-3.1L532.3,300.5z M529.8,319.7c0-5.4,2.7-8.4,6.5-8.4
			s6.5,3.1,6.5,8.4c0,5.3-2.7,8.5-6.5,8.5S529.8,325,529.8,319.7z M539.1,319.7c0-3.9-1.2-5.4-2.8-5.4s-2.7,1.5-2.7,5.4
			s1.2,5.5,2.7,5.5S539.1,323.6,539.1,319.7z"/>
	</g>
	<g>
		<path class="st0" d="M8.3,427.6L4,431.9l-1.5-1.5l4.3-4.3L8.3,427.6z M14.9,422.4c1.8,0,4-1.4,6.4-3.6c0,0.8,0.2,2,0.5,2.7
			c-2.1,1.7-4.2,2.6-6.2,2.7c0.1,1.4-0.6,3.5-3.2,6.6c-0.5-0.2-1.2-0.3-1.8-0.4L6.3,435l-1.5-1.5l5.1-5.1l1,1
			c2.9-3.6,2.6-4.8,1.9-5.4l-0.3-0.3l-1,1c0.2,0.9,0.3,1.8,0.3,2.6c-0.6,0-1.9,0.3-2.5,0.5c0.2-1.6-0.3-3.5-1-5l2.2-1.4
			c0.2,0.3,0.3,0.7,0.5,1l4.8-4.8l0.2-0.4l1.8-1c0.5,1.4,1,3,1.1,4.2l-2.1,1c-0.1-0.5-0.2-1-0.4-1.6l-1.9,1.9l0.3,0.3L14.9,422.4z
			 M25.4,431.9c2.1-1,4.5-2,6-2.5l-0.7,2.9c-1.5,0.4-4.1,1.3-6.4,2.4l0.2-1.9l-4.8,4.8l2.2-0.8c-0.5,2.3-1.9,5.3-3.1,7.5
			c-0.7-0.1-2.2-0.1-3,0c1.3-1.9,2.6-4.3,3.2-6l-2.4,2.4l-6.9-6.9L21,422.5l6.9,6.9L25.4,431.9z M13.5,433.9l7.3-7.3l-0.7-0.7
			l-7.3,7.3L13.5,433.9z M15.4,435.7l7.3-7.3l-0.7-0.7l-7.3,7.3L15.4,435.7z M17.3,437.6l7.3-7.3l-0.8-0.8l-7.3,7.3L17.3,437.6z"/>
		<path class="st0" d="M33.8,410.9l1.8,1.8l5.4-5.4l1.8,1.8l-2.7,2.7l2.3-1.1c0.4,1.5,0.7,3.2,0.9,4.5l3.6-3.6l1.8,1.8l-14.7,14.7
			l-1.8-1.8l3.3-3.3c-1.1-0.5-2.8-1.1-4.2-1.3l0.8-1.9l-2.5,2.5l-1.8-1.8l5.4-5.4l-1.8-1.8l-3.4,3.4l-0.8-0.8
			c-0.4,1.1-0.8,2.1-1.3,3.1c-0.9-0.3-2.2-0.5-3.2-0.5c2.3-4.1,3.6-8.9,2.7-13l2.8-1.1c0.1,0.4,0.1,0.7,0.2,1.2
			c3.2-0.2,7.3-1.5,10.6-3.3c0,0.9,0.2,2.3,0.4,3.2c-1,0.5-2.2,0.9-3.3,1.3l1,1L33.8,410.9z M33.9,407.2c-1.7,0.4-3.5,0.7-5.1,0.7
			c0,1.7-0.2,3.3-0.5,5L33.9,407.2z M32.7,419.3c1.4,0.2,3.2,0.7,4.2,1.2l-0.8,2l2.5-2.5l-3.3-3.3L32.7,419.3z M37.4,414.5l3.3,3.3
			l2.1-2.1l-1.6,0.7c-0.2-1.3-0.8-3.1-1.3-4.3L37.4,414.5z"/>
		<path class="st0" d="M50.8,391.4c3.1-0.5,7.7-1.2,10.3-1.1l-0.2,3.3c-2.3-0.2-6.6,0.2-9.8,0.6l8.8,8.8l-2.2,2.2l-8.3-8.3
			c0.1,3.2-0.2,6.5-1.2,9.6c-0.9-0.2-2.3-0.4-3.2-0.4c1.6-4.5,1.7-9.8,0.6-14l-6.8,6.8l-2.1-2.1l14.7-14.7l2.1,2.1l-5.3,5.3
			c0.2,0.8,0.4,1.7,0.6,2.5l1.8,1.8L50.8,391.4z"/>
		<path class="st0" d="M74.7,383.7c1-0.7,1.9-1.5,2.8-2.4c0.7-0.7,3.2-3.2,4.2-4.2c0.2,0.7,0.8,2,1.3,2.6l-3.6,3.6
			c-3.4,3.4-6.7,5.4-11,4.6c0.7,1.9,1.2,3.8,1,5.7c-0.7-0.1-2.1-0.1-2.8,0.1c0.4-3.3-1.6-6.8-3.7-9.3l2.3-1.9
			c0.6,0.8,1.1,1.6,1.6,2.4c1.9,0.8,3.6,0.8,5.2,0.3l-6-6l-4.9,4.9l-6.2-6.2l11.9-11.9L73,372l-5,5l2.1,2.1l5.5-5.5l1.9,1.9L72,381
			L74.7,383.7z M61.2,380.1l7.8-7.8l-2.3-2.3l-7.8,7.8L61.2,380.1z"/>
	</g>
	<g>
		<path class="st0" d="M49,476.3c3.1-0.5,7.7-1.2,10.3-1.1l-0.2,3.3c-2.3-0.2-6.6,0.2-9.8,0.6l8.8,8.8l-2.2,2.2l-8.3-8.3
			c0.1,3.2-0.2,6.5-1.2,9.6c-0.9-0.2-2.3-0.4-3.2-0.4c1.6-4.5,1.7-9.8,0.6-14l-6.8,6.8l-2.1-2.1l14.7-14.7l2.1,2.1l-5.3,5.3
			c0.2,0.8,0.4,1.7,0.6,2.5l1.8,1.8L49,476.3z"/>
		<path class="st0" d="M68.5,470.7c-1.2,2.5-2.6,5.2-3.7,7.4l-2.5-1.6c0.4-0.7,1-1.6,1.5-2.6l-4-4l-1.7,1.7l-1.9-1.9L58,468l-3-3
			l-1.9,1.9l-1.9-1.9l5.6-5.6l1.9,1.9l-1.8,1.8l3,3l1.5-1.5l1.8,1.9l-1.5,1.5l3.4,3.4c0.4-0.7,0.8-1.5,1.1-2.2L68.5,470.7z
			 M79.6,461.6l1.8,1.8l-10.9,10.9l-1.8-1.8l4.7-4.7l-1.6-1.6l-3.5,3.5l-1.8-1.8l3.5-3.5l-1.5-1.5l-3.4,3.4l-7.9-7.9l8.9-8.9
			l7.9,7.9l-3.4,3.4l1.5,1.5l3.6-3.6l1.8,1.8l-3.6,3.6l1.6,1.6L79.6,461.6z M62.2,459.8l1.7-1.7l-1.4-1.4l-1.7,1.7L62.2,459.8z
			 M65.2,462.8l1.7-1.7l-1.5-1.5l-1.7,1.7L65.2,462.8z M65.9,453.2l-1.7,1.7l1.4,1.4l1.7-1.7L65.9,453.2z M68.9,456.3l-1.7,1.7
			l1.5,1.5l1.7-1.7L68.9,456.3z"/>
		<path class="st0" d="M96,444.2l-2.9,2.9l2.8,2.8l-1.9,1.9l-2.8-2.8l-3.1,3.1l-1.7-1.7l3.1-3.1l-1.5-1.5l-1.4,1.4
			c0.3,0.7,0.5,1.4,0.6,2c-0.5,0.1-1.4,0.4-2,0.6l3.6,3.6c0.8,0.8,1.2,1.4,1,2.2c-0.2,0.8-0.9,1.6-1.9,2.6c-0.5-0.4-1.6-0.9-2.3-1.1
			c0.7-0.6,1.4-1.3,1.6-1.5c0.2-0.2,0.2-0.4,0-0.6l-2.4-2.4l-3.4,3.4c1.4,1.8,2.7,3.8,3.1,5.8c-0.6,0-1.7,0.3-2.3,0.5
			c-0.6-2.9-3.1-5.5-5-7.4l-2.5-2.5c-0.7,0-1.8,0.1-2.4,0.2c-0.1-2.4-1.2-5.3-2.7-7.7l2.2-1.4c0.3,0.5,0.6,1,0.8,1.6l1.5-1.5
			l0.2-0.3l1.9-0.4c0.4,0.9,0.9,2,1.2,3.1l1.9-1.9l1,1c0.8-2.1,0.3-3.5-0.7-5l-1.9,1.9l-1.6-1.6l7.5-7.5c0,0,0.4,0.4,0.6,0.7
			c2.6,2.8,3.6,4.1,3.7,4.9c0.1,0.6-0.1,1.1-0.5,1.6c-0.3,0.4-1,1.1-1.7,1.8c-0.6-0.5-1.4-1-2.1-1.2c0.6-0.5,1.1-0.9,1.3-1.2
			c0.2-0.2,0.3-0.4,0.3-0.6c0-0.3-0.5-1-1.9-2.5l-2,2c1.5,2.1,2.2,4.1,1.5,6.8l1.8-1.2c0.3,0.4,0.6,0.9,0.8,1.3l0.8-0.8l-1.5-1.5
			l1.9-1.9l1.5,1.5l2.5-2.5l1.7,1.7l-2.5,2.5l1.5,1.5l2.9-2.9L96,444.2z M73.4,447c0.2,0.6,0.5,1.2,0.7,1.8l1.5-1.5
			c-0.2-0.5-0.5-1.1-0.8-1.7L73.4,447z M77,451.5l1-1l-1.3-1.3l-1,1L77,451.5z M79.3,449.2l1-1l-1.3-1.3l-1,1L79.3,449.2z
			 M78.7,453.2c0.4,0.4,0.7,0.7,1.1,1.1l1-1l-1.4-1.4l-1,1L78.7,453.2z M84.9,449.5c-0.3-1.4-1.1-3.1-2.1-4.5
			c-0.1,0.2-0.1,0.4-0.2,0.5c-0.5-0.2-1.3-0.3-2-0.3L84.9,449.5z M83.1,451l-1.4-1.4l-1,1l1.4,1.4L83.1,451z"/>
		<path class="st0" d="M99.9,427.9l1.8,1.8l5.4-5.4l1.8,1.8l-2.7,2.7l2.3-1.1c0.4,1.5,0.7,3.2,0.9,4.5l3.6-3.6l1.8,1.8L100.2,445
			l-1.8-1.8l3.3-3.3c-1.1-0.5-2.8-1.1-4.2-1.3l0.8-1.9l-2.5,2.5l-1.8-1.8l5.4-5.4l-1.8-1.8l-3.4,3.4l-0.8-0.8
			c-0.4,1.1-0.8,2.1-1.3,3.1c-0.9-0.3-2.2-0.5-3.2-0.5c2.3-4.1,3.6-8.9,2.7-13l2.8-1.1c0.1,0.4,0.1,0.7,0.2,1.2
			c3.2-0.2,7.3-1.5,10.6-3.3c0,0.9,0.2,2.3,0.4,3.2c-1,0.5-2.2,0.9-3.3,1.3l1,1L99.9,427.9z M99.9,424.1c-1.7,0.4-3.5,0.7-5.1,0.7
			c0,1.7-0.2,3.3-0.5,5L99.9,424.1z M98.7,436.2c1.4,0.2,3.2,0.7,4.2,1.2l-0.8,2l2.5-2.5l-3.3-3.3L98.7,436.2z M103.5,431.5l3.3,3.3
			l2.1-2.1l-1.6,0.7c-0.2-1.3-0.8-3.1-1.3-4.3L103.5,431.5z"/>
		<path class="st0" d="M101.9,413.7l8.4-8.4l1.7,1.7l-8.4,8.4L101.9,413.7z M115.5,412l-6.8,6.8l-3.7-3.7l6.8-6.8L115.5,412z
			 M111.4,411.5l-3.3,3.3l1,1l3.3-3.3L111.4,411.5z M123.2,418.8c0.7,0.7,1.1,1.3,0.8,2c-0.2,0.7-0.8,1.3-1.6,2.2
			c-0.5-0.4-1.3-0.8-1.9-1.1c0.5-0.4,0.9-0.9,1.1-1c0.2-0.2,0.2-0.3,0-0.4l-5.2-5.2l-4.7,4.7l7.1,7.1l-1.5,1.5l-8.6-8.6l7.8-7.8
			L123.2,418.8z M131.4,414.6c-0.4-0.3-0.9-0.7-1.5-1.1c-1.5,2.2-3,4.4-4.2,6.1l-2.3-1.4c0.6-0.8,1.4-1.8,2.2-2.9l-3.1-3.1l-2.3,2.3
			l-7-7l2.3-2.3l-3-3l1.7-1.7l3,3l2.3-2.3l7,7l-2.3,2.3l2.8,2.8l0.8-1.1c-0.7-0.4-1.5-0.9-2.2-1.3l1.1-1.6c2,1,4.4,2.4,5.8,3.4
			L131.4,414.6z M115.4,421.2c-0.6-0.4-1.7-0.8-2.6-1l0.7-1.4c0.9,0.2,2,0.6,2.6,0.9L115.4,421.2z M118.5,420.6l2.9,2.9l-1.4,1.4
			l-2.9-2.9l-1.2,1.2l-1.2-1.2l1.9-1.9c-0.4-1-0.9-2.3-1.4-3.2l1.7-0.7c0.3,0.9,0.6,1.9,0.9,2.7l0.7-0.7l1.2,1.2L118.5,420.6z
			 M119.8,411.3l1-1l-3.5-3.5l-1,1L119.8,411.3z M119.7,404.4l-1,1l3.5,3.5l1-1L119.7,404.4z"/>
		<path class="st0" d="M136.9,384l-5,5l1.9-1.3c0.3,0.9,0.5,1.9,0.7,2.8l3.6-3.6l8.6,8.6c0.9,0.9,1.1,1.5,0.7,2.4
			c-0.4,0.8-1.3,1.8-2.6,3.1c-0.5-0.4-1.4-0.8-2-0.9c0.8-0.8,1.8-1.7,2.1-2c0.3-0.3,0.3-0.5,0-0.7l-6.9-6.9l-2.6,2.6l0.4,0.4
			c0.3,0.3,0.5,0.5,0.8,0.2l0.8-0.8c0.3-0.3,0.7-0.8,0.9-1.1c0.5,0.4,0.9,0.8,1.5,1.2c-0.2,0.3-0.6,0.8-1,1.2l-1.4,1.4
			c-1.4,1.4-2.3,1-3.5-0.2l-0.4-0.4l-1.2,1.2c1.1,1.5,1.3,2.8,0.4,4.8l6.1-6.1l4.1,4.1l-4.9,4.9l0.7,0.7l-1.7,1.7l-4.7-4.7
			c-0.2,0.3-0.3,0.5-0.5,0.8c-0.5-0.3-1.4-0.5-2.1-0.5l7.1,7.1l-1.9,1.9l-10.4-10.4l3.5-3.5c-0.7-0.3-1.7-0.7-2.5-0.9l0.8-1.5
			l-4.7,4.7l-1.7-1.7l6.7-6.7c-0.5-0.3-1.1-0.6-1.7-0.9l1.5-2.4c0.7,0.3,1.6,0.8,2.4,1.2l6.2-6.2L136.9,384z M132.6,392.4
			c-0.3-1-0.7-2.1-1.2-2.9l-4.3,4.3c0.9,0.3,1.9,0.6,2.5,0.8L129,396L132.6,392.4z M129.8,401.6c1.3-1.8,1.4-2.9,0.8-3.9l-2.3,2.3
			L129.8,401.6z M135.3,401l1.4,1.4l3.3-3.3l-1.4-1.4L135.3,401z"/>
		<path class="st0" d="M154.8,373.1l-9.9,9.9l-6.1-6.1l9.9-9.9L154.8,373.1z M148.5,370.9l-5.9,5.9l2.3,2.3l5.9-5.9L148.5,370.9z
			 M143.9,386.8l6.4-6.4l7.6,7.6l-2,2l-0.8-0.8l-2.5,2.5l0.8,0.8l-1.9,1.9L143.9,386.8z M147.8,386.8l2.9,2.9l2.5-2.5l-2.9-2.9
			L147.8,386.8z M158.5,372.2l7.6,7.6l-2,2l-0.8-0.8l-2.7,2.7l0.8,0.8l-1.9,1.9l-7.6-7.6L158.5,372.2z M161.3,379.1l-2.9-2.9
			l-2.7,2.7l2.9,2.9L161.3,379.1z"/>
	</g>
	<g>
		<path class="st0" d="M194.3,423.3l1.6,1.6L180.8,440l-1.6-1.6l6.6-6.6l-0.7-0.7l-5,5l-1.5-1.5l5-5L183,429c-1.6,1.7-3.3,3.5-4.9,5
			c-0.3-0.3-0.8-0.6-1.2-0.8l-1,1l-3.5-3.5l6.3-6.3c-0.6-0.2-1.1-0.4-1.6-0.5l1.4-2.5c0.8,0.2,1.8,0.4,2.5,0.7l5.7-5.7l3.5,3.5
			l-1.2,1.2l0.4,0c-1.2,1.8-2.8,3.8-4.6,5.9l0.7,0.7l5.1-5.1l1.5,1.5l-5.1,5.1l0.7,0.7L194.3,423.3z M177.5,432
			c1.4-1.4,2.8-2.9,4.1-4.3l-1-1l1.9-1.9l0.9,0.9c1.5-1.7,2.8-3.3,3.6-4.5h0.2l-0.8-0.8l-10.3,10.3L177.5,432z M183.8,438.3
			l10.6-10.6l4.9,4.9l-2,2l-0.5-0.5l-6.6,6.6l0.5,0.5l-1.9,1.9L183.8,438.3z M187.3,438l1.3,1.3l6.6-6.6l-1.3-1.3L187.3,438z"/>
		<path class="st0" d="M205.4,400.8l12.7,12.7l-2.1,2.1l-0.7-0.7l-4.8,4.8l0.8,0.8l-2,2l-9.8-9.8l-0.8,2.2c-0.8-0.6-2.2-1.3-3.5-1.8
			l11.7,11.7l-2,2L189.3,411l2-2l3.3,3.3l0.7-1.6c1.5,0.6,3.3,1.3,4.4,2l-3-3l2.9-2.9c-0.7-1.2-1.6-2.5-2.4-3.4l2.6-2.1
			c0.7,1.2,1.3,2.4,1.9,3.5L205.4,400.8z M194.7,421.1c-0.7-1.6-2.3-3.7-3.6-5.3l1.7-1.3c1.4,1.5,3.1,3.9,4,5.5L194.7,421.1z
			 M200.5,409.6l3.1,3.1l4.8-4.8l-3.1-3.1L200.5,409.6z M213.5,413l-3.2-3.2l-4.8,4.8l3.2,3.2L213.5,413z"/>
		<path class="st0" d="M225.6,403.1l1.7-1.7l1.2,1.2L224,407l0.4,0.4l-1.5,1.5l-4.1-4.1l0,0.4c-0.3,0-0.8-0.1-1.2-0.1
			c1.5,1.8,2.8,3.8,3.4,5.6c-0.6,0-1.9,0.2-2.5,0.4c-1.2-3-4.1-6.1-6.2-8.2l-4.6-4.6l3.1-3.1l-2.9-2.9l1.8-1.8l0.8,0.8l2.5-2.5
			l1.5,1.5l-2.5,2.5l0.5,0.5l2-2l0.2-0.3l1.4-0.9c0.8,1.1,1.6,2.5,2,3.5l-1.8,1.1c-0.2-0.4-0.5-0.8-0.8-1.3l-2,2l0.6,0.6l1.4-1.7
			l1.3,1l-1.5,1.9c0.3,0.3,0.5,0.3,0.7,0.1l1.5-1.5c0.3-0.3,0.8-0.8,1-1.2c0.4,0.4,0.9,0.8,1.3,1.1c-0.2,0.3-0.6,0.8-1,1.2l-1.7,1.7
			c-1.2,1.2-2,1.2-3,0.2l-1.2,1.4l1,1c0.8,0.8,1.8,1.8,2.7,2.9c-0.2-1.2-0.6-2.6-1.1-3.7l1.7-0.8c0.2,0.4,0.4,0.9,0.5,1.3l1.2-1.2
			c-0.4-0.2-0.8-0.5-1.2-0.6l1.1-1.7c0.5,0.3,1.1,0.5,1.6,0.8l1.7-1.7l1.1,1.1l-1.7,1.7l0.6,0.6l1.3-1.3l1,1l-1.3,1.3l0.6,0.6
			l1.3-1.3l1,1l-1.3,1.3L225.6,403.1z M211,398.1l0.9,0.9l1.1-1.4l-0.7-0.7L211,398.1z M222.1,383.2l-6.4,6.4l-1.8-1.8l6.4-6.4
			L222.1,383.2z M222.5,390.4c0.5,0.6,0.9,1.3,1.4,1.9l3.6-3.6c0,0,0.5,0.6,0.7,0.8c3.7,4.2,5.1,6.1,5.2,7.2
			c0.1,0.9-0.2,1.4-0.7,2.1c-0.4,0.5-1.2,1.4-2.1,2.2c-0.6-0.5-1.5-1.1-2.4-1.2c0.8-0.7,1.6-1.4,1.9-1.8c0.3-0.3,0.4-0.5,0.4-0.8
			c0-0.6-0.9-2-3.3-4.7l-3.9,3.9c-0.7-1.2-1.8-2.7-2.8-4.1l-1.4,1.4l-1.8-1.8l7-7l1.8,1.8L222.5,390.4z M220.1,400.7l-1.3,1.3
			l0.6,0.6l1.3-1.3L220.1,400.7z M221.7,402.3l-1.3,1.3l0.6,0.6l1.3-1.3L221.7,402.3z M222.8,405.9l1.3-1.3l-0.7-0.7l-1.3,1.3
			L222.8,405.9z"/>
		<path class="st0" d="M236.2,382c-0.5,0.8-0.9,1.7-1.4,2.5l4.1,4.1c1,1,1.3,1.7,1.1,2.5c-0.3,0.9-1,1.7-2.2,2.9
			c-0.6-0.5-1.6-1-2.4-1.3c0.7-0.6,1.4-1.3,1.6-1.5c0.2-0.2,0.2-0.4,0-0.6l-3.6-3.6l-1.4,2.4l-2.4-1.4c0.5-0.8,1.2-1.8,1.8-2.9l-3-3
			l-2.1,2.1l-1.9-1.9l2.1-2.1l-3.2-3.2l2-2l3.2,3.2l1.7-1.7l1.9,1.9l-1.7,1.7l2.5,2.5c0.4-0.7,0.9-1.4,1.3-2.2L236.2,382z
			 M240.2,368.9l-7.7,7.7l-3.9-3.9l7.7-7.7L240.2,368.9z M235.7,368.4l-3.9,3.9l1.1,1.1l3.9-3.9L235.7,368.4z M247.2,378.8
			c1.7-0.4,3.6-0.6,4.8-0.7l-1.1,3c-1.2-0.1-3.3,0.1-4.9,0.4l0.3-1.8l-3.4,3.4l1.9-0.4c-0.1,1.8-0.8,4.4-1.7,6.2
			c-0.7-0.1-1.9-0.1-2.8,0.1c0.7-1.5,1.3-3.4,1.5-4.8l-1.3,1.3l-7.8-7.8l8.5-8.5l7.8,7.8L247.2,378.8z M236.8,377.9l4.6-4.6
			l-0.8-0.8l-4.6,4.6L236.8,377.9z M238.9,380.1l4.6-4.6l-0.8-0.8l-4.6,4.6L238.9,380.1z M241,382.2l4.6-4.6l-0.8-0.8l-4.6,4.6
			L241,382.2z"/>
	</g>
	<g>
		<path class="st0" d="M358.5,430.1c-1.2,0-3.4,0.5-5,1l-0.4-2.6c1.5-0.6,3.6-1.2,4.9-1.2L358.5,430.1z M362.5,435.2
			c-1.2,0.1-3.4,0.7-5,1.3l-0.5-2.6c1.5-0.7,3.6-1.4,4.9-1.5L362.5,435.2z M373.6,424.1c-0.5-0.1-1.1-0.2-1.8-0.4
			c-5.9,6.7-6.7,7.7-7.1,8.6c-0.5-0.3-1.8-1-2.5-1.2c0.3-0.5,0.3-1.3,0.2-2.4c0-0.4-0.1-1.1-0.2-2.1L360,429l-1.8-1.8l3.4-3.4
			c-0.3-1.1-0.6-2.2-1-3.3l2.7-1.2c0.2,0.7,0.4,1.4,0.6,2.2l4.8-4.8l1.8,1.8l-2.3,2.3c2,0.2,4.5,0.4,6,0.7L373.6,424.1z
			 M366.4,435.4c0.9,2.7,1.7,5.7,2.4,8.3l-3.1,0.4c-0.4-2.2-1.2-5.6-2.1-8.6L366.4,435.4z M364.4,424.5c0.2,1.2,0.3,2.4,0.4,3.5
			l4.2-4.6c-0.6-0.1-1.3-0.2-1.8-0.2l0.5-1.9L364.4,424.5z M365.6,432l1.8-1.8l1.6,1.6c1.9,1.9,4,4.5,3.5,8.5
			c-0.7-0.1-2-0.1-2.8,0.1c0.5-3.3-1.1-5.4-2.6-6.8L365.6,432z M368.6,429.3l1.8-1.8l6.8,6.8l-1.8,1.8L368.6,429.3z M379.8,429.3
			c0.2-0.2,0.6-0.6,0.7-0.9c0.5,0.4,1.2,1,1.7,1.4c-0.2,0.4-0.5,0.7-0.8,1.1l-0.8,0.8c-1.6,1.6-2.6,1.2-4.2-0.4l-5-5l1.9-1.9l5,5
			c0.5,0.5,0.7,0.7,1,0.5L379.8,429.3z"/>
		<path class="st0" d="M384.6,418.5c-0.6-0.2-1.7-0.5-2.7-0.7l6.6,6.6l-2,2l-6.1-6.1c0.8,1.9,1.3,3.7,1.5,5.2c-0.8-0.4-2-0.8-2.9-1
			c-0.2-2.1-1-4.8-2-7.1l-2.2,2.2l-1.9-1.9l2.4-2.4l-2-2c-0.6,0.8-1.2,1.6-1.7,2.4c-0.5-0.3-1.5-0.8-2.1-1c1.6-2.2,3.2-4.8,4-6.8
			l2.9,0.2c-0.4,0.9-0.9,1.9-1.5,2.8l2.4,2.4l1.8-1.8l1.9,1.9l-1.8,1.8l0.5,0.5c0.8-0.1,3.7,0,4.4,0.1L384.6,418.5z M389.6,404.8
			l-7.9,7.9l-5.8-5.8l7.9-7.9L389.6,404.8z M383.5,402.6l-4,4l2.4,2.4l4-4L383.5,402.6z M397.5,411.2l1.8,1.8l-9.5,9.5l-1.8-1.8
			l3.9-3.9l-1.6-1.6l-3,3l-1.7-1.7l3-3l-1.4-1.4c-0.9,1.1-1.9,2.2-2.8,3.1c-0.5-0.4-1.4-0.8-2-1.1c2.5-2.8,5.2-6.2,6.6-8.5l2.8,0.3
			c-0.7,1.2-1.7,2.5-2.8,3.9l1.6,1.6l3-3l1.7,1.7l-3,3l1.6,1.6L397.5,411.2z"/>
		<path class="st0" d="M406.3,399.6l1.8,1.8c0.9,0.9,1.1,1.4,0.7,2.4c-0.4,0.9-1.2,1.7-2.3,2.9c-0.6-0.4-1.6-0.7-2.3-0.9
			c0.8-0.7,1.7-1.6,1.9-1.8c0.3-0.3,0.3-0.4,0.1-0.6l-1.6-1.6c-3.8,4.3-4.4,5.1-4.7,5.8c-0.4-0.3-1.3-0.8-1.9-1.1
			c0.6-0.7,1.1-1.5,1.7-2.8c0.2-0.4,0.6-1.2,1.1-2.2c-1.9,2-2.2,2.4-2.4,2.8c-0.3-0.2-1.3-0.7-1.8-1c0.4-0.5,0.8-1,1.2-1.8
			c0.2-0.4,0.6-1,1-1.9c-0.3,0.3-0.5,0.5-0.8,0.7c-0.3-0.2-0.8-0.5-1.2-0.7c0.5-0.4,1-0.8,1.2-1.1c0.2-0.2,0.3-0.4,0.3-0.6
			c0-0.1,0-0.1-0.1-0.2l-4.7,4.7c-0.4-0.6-1-1.4-1.6-2.2l-1.2,1.2l-1.1-1.1l1.3-1.3c-0.3-0.4-0.6-0.8-0.9-1.1c0,0.2,0,0.4-0.1,0.5
			c-0.6,0.1-1.7,0.3-2.2,0.5c0.3-1.7,0.2-3.5-0.4-5l1.9-1.2c0.1,0.2,0.2,0.5,0.3,0.7l4.8-4.8l1.1,1.1l-5.5,5.5
			c0,0.3,0.1,0.6,0.1,0.9l5.5-5.5c0,0,0.4,0.4,0.5,0.6c0.4,0.5,0.8,1,1.2,1.4l1-1l1.1,1.1L398,394c0.3,0.4,0.6,0.7,0.8,1l0.7-0.7
			l1,1l-0.9,0.9c0.1,0.3,0.2,0.4,0.3,0.6c0.2-0.4,0.3-0.9,0.5-1.3l2.1,0c-0.4,1-0.9,2.1-1.4,3.1l1.6-1.7c0.4-1.2,0.9-2.4,1.2-3.4
			l2.2,0.1c-0.8,2.3-1.8,4.6-2.9,6.8l4.1-4.6l-1.4,0.1l0.6-2.1c1.8-0.2,4.5-0.4,6.1-0.4l-0.6,2.3c-0.5,0-1.3,0-2.2,0L406.3,399.6z
			 M391.4,396.7l0.9,1.1l2-2c-0.6,0.2-1.3,0.5-1.9,0.7l-0.1-0.6L391.4,396.7z M393,398.7c0.3,0.4,0.6,0.8,0.9,1.2l2.1-2.1
			c-0.6,0.2-1.5,0.5-2.1,0.7l-0.1-0.6L393,398.7z M395.7,394.3c-0.3-0.3-0.6-0.7-0.9-1.1l-1.6,1.6c0.5-0.2,1.1-0.4,1.4-0.5l0.2,0.9
			L395.7,394.3z M397.3,396.4c-0.3-0.3-0.5-0.7-0.9-1.2l-1.7,1.7c0.6-0.2,1.2-0.4,1.5-0.5l0.1,0.9L397.3,396.4z M402.2,384.2
			c0.7,1.4,1.1,2.9,1.2,4.3c1.4-0.2,2.9-0.7,4.4-1.6c0,0.7,0.1,1.9,0.3,2.6c-1.5,0.8-3.1,1.2-4.8,1.4c-0.2,1.3-0.6,2.7-1.1,4
			c-0.5-0.2-1.7-0.3-2.4-0.3c0.6-1.3,1.1-2.5,1.3-3.8c-0.8-0.1-1.5-0.3-2.3-0.5c0.1,0.5,0.1,1,0,1.5c-0.6-0.1-1.8-0.1-2.5,0
			c0.2-1.8-0.4-3.9-1.4-5.7l2-1.3c0.2,0.4,0.4,0.7,0.6,1.1l4.3-4.3l1.4,1.4L402.2,384.2z M398.4,388.1c0.9,0.3,1.8,0.5,2.8,0.6
			c-0.1-0.9-0.3-1.8-0.7-2.7L398.4,388.1L398.4,388.1z M404.4,403.8c-0.3,2-1.2,4.5-2.1,6.4c-0.7,0-2,0-2.8,0.1
			c1.1-1.8,2.1-3.9,2.4-5.4L404.4,403.8z M409.2,397.4c1.7-0.8,4.2-1.8,5.8-2.2l-0.5,2.6c-1.3,0.3-3.9,1.2-5.8,2L409.2,397.4z"/>
		<path class="st0" d="M420.5,385.8c-1.4,2.6-2.9,5.3-4.1,7.4l-2.3-1.6c0.5-0.7,1-1.6,1.6-2.6l-4-4l-1.7,1.7l-1.8-1.8l1.7-1.7l-3-3
			L405,382l-1.9-1.9l5.6-5.6l1.9,1.9l-1.9,1.9l3,3l1.6-1.6l1.9,1.8l-1.6,1.6l3.5,3.5c0.5-0.8,0.9-1.6,1.3-2.4L420.5,385.8z
			 M413.1,376.2c-0.9-0.6-2.7-1.4-4.1-1.8l1.3-2.2c1.5,0.4,3.3,1.1,4.3,1.7l-1.2,2.1l2.2-2.2l-4-4l2-2l4,4l1.8-1.8
			c-0.7,0.2-1.4,0.5-1.9,0.7c-0.3-1.2-0.9-2.9-1.6-4.1l2.4-1.4c0.7,1.3,1.3,3,1.7,4.3l0.8-0.8l8.3,8.3l-8.4,8.4l-8.3-8.3
			L413.1,376.2z M416.6,377.4l4.3-4.3l-0.8-0.8l-4.3,4.3L416.6,377.4z M418.8,379.6l4.3-4.3l-0.8-0.8l-4.3,4.3L418.8,379.6z
			 M421.1,381.8l4.3-4.3l-0.8-0.8l-4.3,4.3L421.1,381.8z M425.2,382.4c0.1,2.1-0.5,4.8-1.3,6.8c-0.7,0-2.2,0.1-3,0.3
			c1-1.9,1.6-4.1,1.6-5.8L425.2,382.4z M427,379.2c2.1-0.5,4.7-0.9,6.3-0.9l-1.5,2.8c-1.3-0.1-3.6,0.2-5.5,0.5L427,379.2z"/>
	</g>
	<g>
		<path class="st0" d="M491.7,403l2.9-0.3c-0.6,2.4-2,5.7-3.3,8c-0.7-0.1-2-0.2-2.8-0.2c1.3-2.2,2.6-5.4,3-7.3l-5,5l-1.8-1.8
			l2.9-2.9l-6.8-6.8l-2.4,2.4l-1.8-1.9l2.4-2.4l-1.6-1.6l2-2l1.6,1.6l5.3-5.3l-1.6-1.6l2.1-2.1l1.6,1.6l2.5-2.5l1.9,1.8l-2.5,2.5
			l6.8,6.8l2.9-2.9l1.8,1.8L491.7,403z M482.8,394.5l1.1,1.1l5.3-5.3l-1.1-1.1L482.8,394.5z M486.7,398.4l5.3-5.3l-1.1-1.1l-5.3,5.3
			L486.7,398.4z M489.6,401.4l5.3-5.3l-1.2-1.2l-5.3,5.3L489.6,401.4z M496.6,398.3c2.6-1.3,5.7-2.5,7.6-3.2l-0.7,3.2
			c-1.7,0.4-4.6,1.5-7.1,2.6L496.6,398.3z"/>
		<path class="st0" d="M497.2,374.4c0.7,1.7,1.4,3.5,1.9,5.3l11.5,11.5l-1.9,1.9l-8.6-8.6c0.1,0.8,0.2,1.6,0.2,2.3
			c-0.7-0.3-2.4-0.9-3.2-1c0-3.1-0.9-6.9-2.5-10.2L497.2,374.4z M517.7,380.3c1-1,0.8-1.6-1-3.6c0.8-0.2,1.9-0.6,2.5-1
			c2.3,2.8,2.5,4.2,0.4,6.3l-3.9,3.9c-2.4,2.4-3.7,2.4-6,0.1l-4.8-4.8l-0.8,1.8l-2.5-1l1.3-2.9l-4-4l1.9-1.9l3.2,3.2l1-2.4l-4.4-4.4
			l1.8-1.8l3.7,3.7l1.4-3.2l0.1-0.3l2-1.1l0.3,0.4c2.3,2.5,5.3,5.9,7,8.4l-2.1,1.2c-1.2-1.6-3.4-4-5.4-6.1l-1.1,2.7l6,6l-1.8,1.8
			l-5.3-5.3l-1,2.4l5.5,5.5c1,1,1.3,1,2.5-0.1L517.7,380.3z"/>
	</g>
	<g>
		<path class="st0" d="M221.7,480.5c-1.2,0-3.4,0.6-5,1.2l-0.4-2.6c1.5-0.7,3.6-1.3,4.9-1.4L221.7,480.5z M225.3,485.9
			c-1.3,0.1-3.4,0.7-5,1.3l-0.5-2.6c1.5-0.7,3.6-1.4,4.9-1.5L225.3,485.9z M226.5,475.4c1.3,2.4,2,4.8,1.9,7.1c-0.7,0-2.3,0.3-3,0.5
			c0.4-3.1-1.1-6.3-3.5-9.5l2.3-1.8c0.4,0.5,0.7,1,1,1.5l5.5-5.5c0,0,0.5,0.5,0.7,0.8c2.6,2.9,3.6,4.3,3.6,5.3
			c0.1,0.8-0.2,1.3-0.7,2c-0.4,0.5-1.3,1.4-2.2,2.2c-0.6-0.5-1.6-1.1-2.5-1.3c0.8-0.7,1.6-1.4,2-1.8c0.3-0.3,0.4-0.5,0.4-0.8
			c0-0.4-0.5-1.2-1.6-2.6L226.5,475.4z M229.6,486.2c0.9,2.6,1.9,5.6,2.5,8.2l-3.1,0.4c-0.4-2.1-1.3-5.5-2.3-8.4L229.6,486.2z
			 M237.5,474.4c1.3,2.4,1.7,4.8,1.6,7.2c1.7-0.6,3.4-1.4,5.1-2.5c0,0.9,0.2,2.3,0.5,3.1c-2,1.2-4,2-6,2.5c-0.6,2.3-1.7,4.5-3.2,6.8
			c-0.7-0.4-2-0.7-2.8-0.8c1.3-1.8,2.4-3.7,3-5.6c-1.6,0-3.1-0.2-4.7-0.6l0.9-1.7l-2.3,2.3l-1.8-1.8l7.5-7.5l0.3-0.4L237.5,474.4z
			 M232.5,482.1c1.2,0.3,2.5,0.3,3.8,0.2c0.2-1.3,0.1-2.5-0.2-3.7L232.5,482.1z"/>
		<path class="st0" d="M249.6,470.8l-3.4,3.4l1.5,1.5l-1.9,1.9l-13-13l5.3-5.3L249.6,470.8z M236.4,464.5l3,3l1.6-1.6l-3-3
			L236.4,464.5z M246.7,455.7l1.6,1.6l3.4-3.4l1.7,1.7l-1.2,1.2l1.3,1.3l1.6-1.6l1.7,1.7l-1.6,1.6l3.7,3.7c1,1,1.3,1.7,0.9,2.6
			c-0.4,0.9-1.2,1.9-2.5,3.2c-0.6-0.5-1.7-1-2.5-1.3c0.8-0.8,1.8-1.7,2-2c0.3-0.3,0.3-0.4,0.1-0.7l-3.6-3.6l-5.9,5.9l-1.7-1.7
			l5.9-5.9l-1.3-1.3l-5.4,5.4l-1.7-1.7l3.3-3.3l-1.6-1.6l-3.8,3.8l-1.8-1.8l3.8-3.8l-1.8-1.8l2-2l1.8,1.8l3.8-3.8l1.8,1.8
			L246.7,455.7z M245.9,470.9l-3.2-3.2l-1.6,1.6l3.2,3.2L245.9,470.9z M249.9,465.8c1.5,0.1,3.6,0.4,4.8,0.7l-0.7,2.8
			c-1.1-0.3-3.2-0.7-4.8-0.9L249.9,465.8z"/>
		<path class="st0" d="M257.7,451.1l9.1,9.1l-2,2L249.6,447l6.5-6.5l6.1,6.1L257.7,451.1z M253.1,446.4l0.9,0.9l2.6-2.6l-0.9-0.9
			L253.1,446.4z M258.9,447l-1-1l-2.6,2.6l1,1L258.9,447z M276.7,445.4c1.1,1.1,1.5,1.9,1.1,2.9c-0.3,1-1.3,2-2.7,3.5
			c-0.5-0.4-1.3-0.8-2-1.1l-4.2,4.2l0.9,0.9l-1.8,1.8l-7.3-7.3l0.8-0.8l0,0l5.7-5.7l6,6c0.7-0.6,1.3-1.3,1.5-1.5
			c0.3-0.3,0.3-0.5,0-0.8l-6.6-6.6l-4.6,4.6l-6.2-6.2l6.7-6.7L276.7,445.4z M260.7,438.8l0.9,0.9l2.7-2.7l-0.9-0.9L260.7,438.8z
			 M266.6,439.4l-1-1l-2.7,2.7l1,1L266.6,439.4z M266.7,447.1l-2.8,2.8l1,1l2.8-2.8L266.7,447.1z M270.2,450.6l-1.1-1.1l-2.8,2.8
			l1.1,1.1L270.2,450.6z"/>
		<path class="st0" d="M271.7,428.9c0.9,1.4,1.7,2.8,2.5,4.3l3.2-3.2l7.8,7.8l-3.2,3.2l1.2,1.2l-1.7,1.7l-5.3-5.3
			c0.1,0.5,0.2,1.1,0.2,1.6c-0.6-0.5-2.3-1.4-3.1-1.7c-0.4-2.4-1.7-5.2-3.5-7.8l-1.8,1.8l-1.8-1.8l6.2-6.2l1.8,1.8L271.7,428.9z
			 M289.8,423.1l-1.8,1.8l7.1,7.1l-1.9,1.9l-7.1-7.1l-1.9,1.9c2.4,2.6,4.7,5.9,4.8,9.5c-0.7,0-2,0.2-2.7,0.4c-0.1-3-2.1-5.8-4-8
			l-1.6,1.6l-1.9-1.9l1.6-1.6l-4.2-4.2l-1.2,1.2l-1.9-1.9l8.3-8.3l1.9,1.9l-1.4,1.4l4.2,4.2l1.8-1.8L289.8,423.1z M277.4,433.5
			l-1.5,1.5l4.2,4.2l1.5-1.5L277.4,433.5z M284.2,424.9l-4.2-4.2l-1.9,1.9l4.2,4.2L284.2,424.9z"/>
		<path class="st0" d="M289.8,415.4l-2,2l-3.5-3.5l6.2-6.2c-0.5-0.3-1.1-0.6-1.6-0.8l1.8-2.5c0.6,0.3,1.4,0.7,2.1,1l6.2-6.2l3.3,3.3
			l-2.1,2.1l-1.5-1.5l-2.4,2.4l2.2,2.2c0.4,0.4,0.7,0.6,1.1,0.1l2.1-2.1c0.5-0.5,1.1-1.2,1.3-1.6c0.6,0.5,1.3,1.1,1.9,1.5
			c-0.2,0.4-0.8,1.1-1.4,1.7l-2.3,2.3c-1.9,1.9-3.1,1.7-4.7,0l-2.2-2.2l-1.7,1.7c2.1,2.7,2.6,5.1-0.5,9.8c-0.7-0.3-1.9-0.6-2.7-0.6
			c2.7-3.7,2.4-5.3,1.1-7.1l-2.2,2.2L289.8,415.4z M309.2,413.2c0.4-0.4,0.2-0.8-1.9-2.9c0.8-0.1,2-0.6,2.8-1c2.6,3,2.8,4.3,1.3,5.7
			l-1.6,1.6c-1.7,1.7-2.8,1.6-4.8-0.4l-2.2-2.2l-2.2,2.2c1.6,2.4,2.1,5.9-1.1,11.5c-0.8-0.2-2.2-0.3-3.2-0.3c2.6-4.4,2.8-7.1,2-8.9
			l-4.2,4.2l-1.9-1.9l4.4-4.4l-1.9-1.9l2.1-2.1l1.9,1.9l4.2-4.2l4,4c0.5,0.5,0.7,0.5,1.1,0.2L309.2,413.2z"/>
		<path class="st0" d="M312.2,391.5l1.9,1.9l5.5-5.5l5.7,5.7c1,1,1.4,1.8,1,2.8c-0.4,1-1.3,2-2.6,3.3c-0.7-0.5-1.8-1.1-2.7-1.3
			c0.9-0.8,1.9-1.8,2.1-2.1c0.3-0.3,0.3-0.4,0.1-0.7l-3.7-3.7l-3.4,3.4l7.6,7.6l-2.1,2.1l-7.6-7.6l-3.1,3.1l6,6l-2,2l-7.9-7.9
			l5.2-5.2l-1.9-1.9l-6.6,6.6l-2-2l6.8-6.8c-0.9-0.4-1.9-0.7-2.7-1l1.4-2.6c1.2,0.4,2.8,0.8,3.8,1.2l6.3-6.3l2,2L312.2,391.5z"/>
		<path class="st0" d="M333.6,378.6c0.1,0.4,0.2,0.8,0.3,1.3l6.9-6.9c0,0,0.4,0.5,0.7,0.7c3.1,3.5,4.2,5.2,4.2,6.1
			c0.1,0.7-0.2,1.2-0.5,1.7c-0.3,0.4-1,1.1-1.7,1.7c-0.5-0.4-1.4-1-2-1.1c0.6-0.5,1-0.9,1.3-1.2c0.2-0.2,0.3-0.4,0.3-0.7
			c0-0.5-0.7-1.6-2.5-3.8l-0.7,0.7c1.2,2.6,1.9,6,1.6,8.4c-0.7-0.1-1.8,0.1-2.5,0.3c0.5-2.1,0.1-4.8-0.7-7.1l-1,1
			c0.7,2.5,0.8,5.8,0.3,8.2c-0.7-0.1-1.7-0.1-2.5,0.1c0.6-1.9,0.7-4.4,0.4-6.5l-1,1c0,1.3-0.1,2.5-0.3,3.6c-0.6-0.1-1.8,0-2.5,0.1
			c-0.6,1.8-1.2,3.7-1.7,5.2l-2.8-1.3c0.4-0.8,0.8-1.8,1.3-2.9l-4.8-4.8l-1.7,1.7l-1.9-1.9l1.7-1.7l-3.3-3.3l1.9-1.9l3.3,3.3
			l1.6-1.6l1.9,1.9l-1.6,1.6l4,4l0.8-2l1.8,1.1c0.1-1.1,0-2.3-0.2-3.4l-1.9,1.9l-1.7-1.7l10.7-10.7l1.7,1.7L333.6,378.6z
			 M336.9,370.7l-8,8l-5.7-5.7l8-8L336.9,370.7z M330.7,368.2l-4.4,4.4l0.8,0.8l4.4-4.4L330.7,368.2z M332.8,370.4l-4.4,4.4l0.8,0.8
			l4.4-4.4L332.8,370.4z"/>
	</g>
	<line class="st1" x1="19.6" y1="352.9" x2="561.6" y2="352.9"/>
	<rect x="41.6" y="43.9" class="st2" width="58" height="307"/>
	<rect x="130.2" y="125.9" class="st3" width="58" height="225"/>
	<rect x="218.8" y="156.9" class="st3" width="58" height="194"/>
	<rect x="307.4" y="168.9" class="st3" width="58" height="182"/>
	<rect x="396" y="284.9" class="st3" width="58" height="66"/>
	<rect x="484.6" y="338.9" class="st3" width="58" height="12"/>
</g>
<g>
	
		<text transform="matrix(1 0 0 1 35.1143 627.6802)" class="st0" style="font-family:'SourceHanSansTW-Bold-B5pc-H'; font-size:36px;">60%</text>
	
		<text transform="matrix(1 0 0 1 121.1143 701.6802)" class="st0" style="font-family:'SourceHanSansTW-Bold-B5pc-H'; font-size:36px;">45%</text>
	
		<text transform="matrix(1 0 0 1 206.1143 737.6802)" class="st0" style="font-family:'SourceHanSansTW-Bold-B5pc-H'; font-size:36px;">35%</text>
	
		<text transform="matrix(1 0 0 1 302.1143 752.6802)" class="st0" style="font-family:'SourceHanSansTW-Bold-B5pc-H'; font-size:36px;">33%</text>
	
		<text transform="matrix(1 0 0 1 388.1143 868.6802)" class="st0" style="font-family:'SourceHanSansTW-Bold-B5pc-H'; font-size:36px;">13%</text>
	
		<text transform="matrix(1 0 0 1 488.1143 923.6802)" class="st0" style="font-family:'SourceHanSansTW-Bold-B5pc-H'; font-size:36px;">3%</text>
	
		<text transform="matrix(0.7071 -0.7071 0.7071 0.7071 14.934 1041.0876)" class="st0" style="font-family:'SourceHanSansTW-Bold-B5pc-H'; font-size:24px;">資金不足</text>
	
		<text transform="matrix(0.7071 -0.7071 0.7071 0.7071 47.0221 1091.9995)" class="st0" style="font-family:'SourceHanSansTW-Bold-B5pc-H'; font-size:24px;">不理解金融商品</text>
	
		<text transform="matrix(0.7071 -0.7071 0.7071 0.7071 183.934 1041.0876)" class="st0" style="font-family:'SourceHanSansTW-Bold-B5pc-H'; font-size:24px;">害怕虧損</text>
	
		<text transform="matrix(0.7071 -0.7071 0.7071 0.7071 364.934 1041.0876)" class="st0" style="font-family:'SourceHanSansTW-Bold-B5pc-H'; font-size:24px;">流程繁瑣</text>
	
		<text transform="matrix(0.7071 -0.7071 0.7071 0.7071 487.8753 1007.1463)" class="st0" style="font-family:'SourceHanSansTW-Bold-B5pc-H'; font-size:24px;">其他</text>
	
		<text transform="matrix(0.7071 -0.7071 0.7071 0.7071 228.0221 1091.9995)" class="st0" style="font-family:'SourceHanSansTW-Bold-B5pc-H'; font-size:24px;">沒時間研究市場</text>
	<line class="st1" x1="19.6" y1="948.9" x2="561.6" y2="948.9"/>
	<rect x="41.6" y="639.9" class="st2" width="58" height="307"/>
	<rect x="130.2" y="721.9" class="st3" width="58" height="225"/>
	<rect x="218.8" y="752.9" class="st3" width="58" height="194"/>
	<rect x="307.4" y="764.9" class="st3" width="58" height="182"/>
	<rect x="396" y="880.9" class="st3" width="58" height="66"/>
	<rect x="484.6" y="934.9" class="st3" width="58" height="12"/>
</g>
</svg>
