<?xml version="1.0" encoding="utf-8"?>
<!-- Generator: Adobe Illustrator 24.0.2, SVG Export Plug-In . SVG Version: 6.00 Build 0)  -->
<svg version="1.1" id="圖層_1" xmlns="http://www.w3.org/2000/svg" xmlns:xlink="http://www.w3.org/1999/xlink" x="0px" y="0px"
	 viewBox="0 0 500 600" style="enable-background:new 0 0 500 600;" xml:space="preserve">
<style type="text/css">
	.st0{fill:#004790;}
	.st1{fill-rule:evenodd;clip-rule:evenodd;fill:#123352;}
	
		.st2{fill-rule:evenodd;clip-rule:evenodd;fill:none;stroke:#FBAF13;stroke-width:2;stroke-linecap:round;stroke-linejoin:round;stroke-miterlimit:3;}
	
		.st3{fill-rule:evenodd;clip-rule:evenodd;fill:none;stroke:#66B3BD;stroke-width:2;stroke-linecap:round;stroke-linejoin:round;stroke-miterlimit:3;}
	
		.st4{fill-rule:evenodd;clip-rule:evenodd;fill:none;stroke:#F3DD45;stroke-width:2;stroke-linecap:round;stroke-linejoin:round;stroke-miterlimit:3;}
	.st5{fill:#FFFFFF;}
</style>
<text transform="matrix(1 0 0 1 152.4211 979.5447)"><tspan x="0" y="0" class="st0" style="font-family:'NotoSansCJKtc-Black-B5pc-H'; font-size:49.4632px;">電子商務</tspan><tspan x="-64.3" y="46" class="st0" style="font-family:'NotoSansCJKtc-Black-B5pc-H'; font-size:49.4632px; letter-spacing:-2;">(E-commerce)</tspan></text>
<text transform="matrix(1 0 0 1 91.0722 1075.614)"><tspan x="0" y="0" style="font-family:'NotoSansCJKtc-Regular-B5pc-H'; font-size:36px;">2020年預估成長率</tspan><tspan x="295.9" y="0" style="font-family:'NotoSansCJKtc-Regular-B5pc-H'; font-size:18px;">(3)</tspan></text>
<path class="st0" d="M384.9,1171.4H115.4c-12.5,0-22.7-10.2-22.7-22.7v-32.1c0-12.5,10.2-22.7,22.7-22.7h269.5
	c12.5,0,22.7,10.2,22.7,22.7v32.1C407.5,1161.2,397.4,1171.4,384.9,1171.4z"/>
<text transform="matrix(1 0 0 1 152.7368 1157.3542)" class="st5" style="font-family:'NotoSansCJKtc-Black-B5pc-H'; font-size:69.2571px;">+19%</text>
<g>
	<circle class="st1" cx="250.1" cy="772.2" r="131.2"/>
	<g>
		<path class="st2" d="M210.4,706.3c2.2-3.7,4.9-7.2,8.1-10.4c10-10,22.1-15,36.3-15c14.2,0,26.2,5,36.2,15c3.2,3.2,6,6.7,8.2,10.4
			 M223,713.6c1.6-2.6,3.5-5.1,5.8-7.5c7.2-7.1,15.8-10.7,25.9-10.7c10.1,0,18.7,3.6,25.8,10.7c2.3,2.3,4.3,4.8,5.9,7.5
			 M244.6,755.6c0-2.6,0.9-4.8,2.8-6.6c1.8-1.8,4.1-2.8,6.7-2.8c2.6,0,4.8,0.9,6.6,2.8c1.8,1.8,2.8,4,2.8,6.6c0,2.6-0.9,4.8-2.8,6.7
			c-1.8,1.8-4,2.8-6.6,2.8c-2.6,0-4.8-0.9-6.7-2.8C245.6,760.4,244.6,758.2,244.6,755.6z"/>
		<path class="st3" d="M261.3,720.2c-0.6-0.6-1-1.3-1.3-2c-0.3-0.7-0.4-1.5-0.4-2.3c0-1.7,0.6-3.1,1.8-4.3c1.2-1.2,2.6-1.8,4.3-1.8
			c1.7,0,3.1,0.6,4.3,1.8c1.2,1.2,1.8,2.6,1.8,4.3c0,0.8-0.2,1.6-0.5,2.3c-0.3,0.7-0.7,1.4-1.3,2c-1.2,1.2-2.6,1.8-4.3,1.8
			C263.9,722,262.5,721.4,261.3,720.2l-7.1,7.1l-7.1-7.1c-1.2,1.2-2.6,1.8-4.3,1.8c-1.7,0-3.1-0.6-4.3-1.8c-0.6-0.6-1-1.3-1.3-2
			c-0.3-0.7-0.5-1.5-0.5-2.3c0-1.7,0.6-3.1,1.8-4.3c1.2-1.2,2.6-1.8,4.3-1.8c1.7,0,3.1,0.6,4.3,1.8c1.2,1.2,1.8,2.6,1.8,4.3
			c0,0.8-0.1,1.6-0.4,2.3c-0.3,0.7-0.7,1.4-1.3,2 M227,736.7c0-0.4,0-0.8,0.2-1.2c0.2-0.6,0.5-1.2,1-1.7c0.8-0.8,1.7-1.2,2.9-1.2
			c1.4,0,2.9,0,4.4,0c0.8,0,3.9,0,9.3,0c3.1,0,6.3,0,9.4,0c0,0,0.1,0,0.1,0c7.6,0,15.3,0,22.9,0c1.1,0,2.1,0.4,2.9,1.2
			c0.5,0.5,0.8,1.1,1,1.7c0.1,0.4,0.2,0.7,0.2,1.2c0,1.1-0.4,2.1-1.2,2.9c-0.8,0.8-1.7,1.2-2.9,1.2h-0.7l7.5,26.8
			c1.1,4,0.6,7.4-1.4,10.3c-2.1,2.8-5.1,4.3-9.1,4.2h-38.5c-4,0-7.1-1.4-9.1-4.2c-2-2.8-2.5-6.3-1.4-10.3l7.4-26.8h-0.7
			c-1.1,0-2.1-0.4-2.9-1.2C227.4,738.8,227,737.8,227,736.7z"/>
		<path class="st4" d="M330.4,833.6h-8.3c0,5.7-2,10.5-6,14.5c-4,4-8.9,6-14.5,6c-0.1,0-0.2,0-0.3,0c-5.5-0.1-10.3-2.1-14.2-6
			c-4-4-6-8.9-6-14.5h-46.5c0,5.7-2,10.5-6,14.5c-4,4-8.9,6-14.5,6s-10.5-2-14.5-6c-4-4-6-8.9-6-14.5c0-5.7,2-10.5,6-14.5
			c2.9-2.9,6.1-4.7,9.8-5.5l-2-8.6l-16.9-72.3l-1.9-8.2c-2.8-10.4-8.5-15.2-16.9-14.6h-16.1 M215.1,732.7h-24.7 M209.3,813.6
			c1.5-0.3,3.1-0.5,4.7-0.5c5.7,0,10.5,2,14.5,6c4,4,6,8.9,6,14.5 M207.3,805l94.4-10.2c13.6-1.6,20-9.9,19.2-25v-37.1h-27.4
			 M322.1,833.6c0-5.7-2-10.5-6-14.5c-4-4-8.9-6-14.5-6c-0.1,0-0.2,0-0.3,0c-5.5,0.1-10.3,2.1-14.2,6c-4,4-6,8.9-6,14.5"/>
	</g>
</g>
<g>
	<path class="st0" d="M172.7,351.6c-3.7,0.9-7.3,1.8-10.4,2.6l-1.3-3.8h-6.1v-11.5h18.6v-1.3h-16.4v-4.6h39.9v4.6h-16.4v1.3h19v11.5
		h-6.4l-1,3.5c-2.6-0.9-7.8-2.2-11.5-2.8l1.3-3.9c0.4,0,0.8,0.1,1.3,0.1l-1.8-2.7c1.2-0.2,2.8-0.7,4.3-1.2h-5.3v9.7h-7v-9.7h-5.4
		c1.6,0.3,3.1,0.7,4.2,1.1l-1.6,3.4l1.8-0.2L172.7,351.6z M191.9,372.2c2.4,0,2.9-0.7,3.2-4.5c1.4,1,4.1,1.9,5.9,2.2
		c-0.8,6-2.7,7.6-8.6,7.6h-9.8c-7.3,0-9.5-1.6-9.6-6.9h-6.6v2h-6.9v-18.5h34.9v16.5H180c0.1,1.3,0.8,1.5,3.4,1.5H191.9z
		 M161.7,349.2c2.3-0.2,5.1-0.6,8.1-1.1c-2-0.6-5-1.5-7.3-2l1.4-2.7h-2.2V349.2z M166.5,358.9v1.5h6.6v-1.5H166.5z M166.5,366h6.6
		v-1.5h-6.6V366z M187.4,358.9H180v1.5h7.4V358.9z M187.4,366v-1.5H180v1.5H187.4z M192.4,343.4h-2l1.7,2.3
		c-2.1,0.8-4.6,1.4-6.8,1.9c2.5,0.4,5.1,1,7,1.6V343.4z"/>
	<path class="st0" d="M249.4,359.6h-18.7V370c0,3.8-0.8,5.8-3.5,6.9c-2.7,1.1-6.2,1.3-10.6,1.3c-0.4-2.1-1.9-5.4-3.1-7.4
		c3.2,0.2,7.1,0.2,8.2,0.1c1.1,0,1.4-0.2,1.4-1.1v-10.1H204v-7.2h19.2v-6.7c2.7-1.2,5.5-3,8-4.8h-22.3v-7.1h30.4l1.6-0.4l5.5,4.3
		c-4.2,4.2-9.9,8.6-15.6,11.8v3h18.7V359.6z"/>
	<path class="st0" d="M298.4,341.6h-13.8l4.1,0.8c-0.9,1.6-1.8,3.2-2.6,4.6h10.3V372c0,3-0.7,4.3-2.7,5.1c-2,0.8-4.8,0.9-8.6,0.9
		c-0.3-1.6-1.1-3.8-1.9-5.2c2.1,0.1,4.9,0.1,5.6,0c0.8,0,1.1-0.2,1.1-0.9v-19.2h-6.4v0.2c0,0.8,0.1,1.3,0.9,1.3h1.3
		c0.7,0,2.3-0.1,3-0.3c0.1,1.6,0.1,3.1,0.4,4.7c-0.7,0.3-2.2,0.4-3.3,0.4h-3.3c-4.6,0-5.3-2.2-5.3-6.1v-0.2h-2.3
		c-0.5,3.1-1.9,5.4-5.5,6.9h16.5v12.7h-14v1.8h-5.9v-13.4l-0.5,0.1c-0.4-1.2-1.6-3-2.6-4.2v21.5h-6.8V347h9.9
		c-0.5-1.4-1.2-3.1-1.8-4.4l3.2-1h-13.4v-6H273c-0.3-1.1-0.6-2.2-0.9-3.2l7-1.7c0.5,1.5,1.1,3.4,1.6,4.9h17.8V341.6z M262.8,355.9
		c3.7-0.6,5.1-1.6,5.8-3.2h-5.8V355.9z M279.5,347c0.7-1.7,1.5-3.7,1.9-5.4h-10.6c0.8,1.5,1.6,3.3,2.1,4.5l-2.8,0.9H279.5z
		 M271.9,364.5v3h8.3v-3H271.9z"/>
	<path class="st0" d="M345.8,342c-1.1,2.5-2.6,4.6-4.3,6.4c2.4,1,5.1,1.8,8.1,2.3c-1.5,1.4-3.6,4.3-4.5,6.1
		c-3.6-0.9-6.7-2.2-9.5-3.8c-1.2,0.6-2.4,1.2-3.7,1.8h5.5c-0.1,1.4-0.2,2.8-0.4,4.2h10.7c0,0-0.1,1.7-0.2,2.6
		c-0.7,8.2-1.6,12.1-3,13.7c-1.2,1.3-2.4,1.8-3.9,2c-1.3,0.2-3.3,0.2-5.6,0.2c-0.1-2-0.8-4.8-1.9-6.6c1.6,0.1,3.1,0.2,3.9,0.2
		c0.7,0,1.1-0.1,1.6-0.6c0.5-0.5,1.1-2.2,1.5-5.6h-4.3c-1.7,5.7-5.2,10.3-13.1,13.5c-0.8-1.7-2.6-4.3-4.1-5.6
		c5.4-1.9,8.2-4.7,9.6-7.9h-4.9V359c-0.4,1.6-0.8,3-1.2,4.3l-4.7-2.2c0.4-1.7,0.8-3.9,1.1-6.2h-1.5v15.8c0,3.1-0.4,5-2.4,6.1
		c-1.9,1.1-4.4,1.2-7.5,1.2c-0.2-2-1.1-4.9-2-6.9c1.7,0.1,3.7,0.1,4.4,0.1c0.6,0,0.8-0.1,0.8-0.7v-7.8c-1.5,3-3.4,5.7-5.5,7.6
		c-0.6-2.1-2.1-5-3.2-7c2.6-2.1,4.8-5.2,6.5-8.5h-5.4v-6.2h9.9c-2.6-1.4-5.8-2.8-8.4-3.8l4.5-4.6c1,0.3,2.2,0.7,3.4,1.2
		c0.7-0.6,1.4-1.3,2.1-2.1h-10.7v-6H319l1.1-0.2l4.6,2.8c-1.6,2.7-4.2,5.6-6.8,8c1.3,0.6,2.4,1.2,3.3,1.8l-2.7,2.9h1.7l0.9-0.3
		l4.3,1.4l0,0.3c1.6-0.4,3.1-0.9,4.5-1.5c-0.9-0.9-1.7-1.9-2.5-2.9c-0.5,0.5-1,0.9-1.4,1.3c-1.4-1.1-4.2-3.1-5.8-4
		c3.9-2.8,7.5-7.3,9.5-11.8l6.7,1.9c-0.5,1-1,2.1-1.6,3.1h13.7v5.9H345.8z M330,359c0.1-1.1,0.2-2.3,0.3-3.5c-1.4,0.5-2.9,1-4.5,1.4
		c-0.3-0.6-0.8-1.4-1.4-2.2c-0.3,1.5-0.6,2.9-1,4.3H330z M332.2,342c0.9,1.1,1.9,2.1,3.2,3c0.9-0.9,1.7-1.9,2.3-3H332.2z"/>
	<path class="st0" d="M94.1,403.8c0-9.9,2.7-18.1,7.5-25.9l5.5,2.3c-4.1,7.3-5.9,15.7-5.9,23.6c0,8,1.8,16.3,5.9,23.6l-5.5,2.3
		C96.8,421.9,94.1,413.8,94.1,403.8z"/>
	<path class="st0" d="M111.6,382.7H135v7.3h-14.5v6.8h12.3v7.4h-12.3v7.8h15v7.4h-23.9V382.7z"/>
	<path class="st0" d="M138.5,402.1h14v6.2h-14V402.1z"/>
	<path class="st0" d="M154.5,405.5c0-9.3,6.9-14.8,14.8-14.8c3.4,0,6.1,1.2,8.2,3l-4.1,5.6c-1.3-1.1-2.4-1.5-3.6-1.5
		c-3.9,0-6.3,3-6.3,7.7c0,4.6,2.5,7.6,6,7.6c1.8,0,3.5-0.8,4.9-2l3.4,5.8c-2.7,2.4-6.3,3.3-9.3,3.3
		C160.6,420.2,154.5,414.8,154.5,405.5z"/>
	<path class="st0" d="M177,405.5c0-9.3,6.6-14.8,13.8-14.8c7.1,0,13.8,5.4,13.8,14.8c0,9.3-6.6,14.7-13.8,14.7
		C183.6,420.2,177,414.8,177,405.5z M195.5,405.5c0-4.7-1.5-7.7-4.7-7.7c-3.3,0-4.8,3-4.8,7.7c0,4.6,1.5,7.6,4.8,7.6
		C194,413.1,195.5,410.1,195.5,405.5z"/>
	<path class="st0" d="M207.6,391.4h7.2l0.6,3.6h0.2c2.3-2.3,4.7-4.3,8.6-4.3c3.9,0,6.3,1.6,7.7,4.7c2.4-2.5,5-4.7,8.8-4.7
		c6.1,0,8.8,4.4,8.8,11.4v17.4h-8.8v-16.3c0-3.9-1-5-3.2-5c-1.3,0-2.8,0.8-4.5,2.5v18.8H224v-16.3c0-3.9-1-5-3.2-5
		c-1.3,0-2.8,0.8-4.5,2.5v18.8h-8.8V391.4z"/>
	<path class="st0" d="M253.8,391.4h7.2l0.6,3.6h0.2c2.3-2.3,4.7-4.3,8.6-4.3c3.9,0,6.3,1.6,7.7,4.7c2.4-2.5,5-4.7,8.8-4.7
		c6.1,0,8.8,4.4,8.8,11.4v17.4h-8.8v-16.3c0-3.9-1-5-3.2-5c-1.3,0-2.8,0.8-4.5,2.5v18.8h-8.9v-16.3c0-3.9-1-5-3.2-5
		c-1.3,0-2.8,0.8-4.5,2.5v18.8h-8.8V391.4z"/>
	<path class="st0" d="M298.5,405.5c0-9.2,6.5-14.8,13.4-14.8c8.1,0,12.1,5.9,12.1,13.6c0,1.5-0.2,3.1-0.4,3.8H307
		c0.8,3.9,3.5,5.4,7,5.4c2,0,3.9-0.6,5.9-1.8l2.9,5.3c-2.9,2.1-6.8,3.2-10.1,3.2C304.7,420.2,298.5,414.8,298.5,405.5z M316.4,402.3
		c0-2.8-1.2-4.9-4.5-4.9c-2.4,0-4.6,1.5-5.1,4.9H316.4z"/>
	<path class="st0" d="M327.1,391.4h7.2l0.6,4.9h0.2c2.1-3.8,5.2-5.6,8-5.6c1.7,0,2.6,0.2,3.4,0.6l-1.5,7.6c-1-0.2-1.8-0.4-3.1-0.4
		c-2.1,0-4.6,1.3-6.1,5v16.1h-8.8V391.4z"/>
	<path class="st0" d="M345.4,405.5c0-9.3,6.9-14.8,14.8-14.8c3.4,0,6.1,1.2,8.2,3l-4.1,5.6c-1.3-1.1-2.4-1.5-3.6-1.5
		c-3.9,0-6.3,3-6.3,7.7c0,4.6,2.5,7.6,6,7.6c1.8,0,3.5-0.8,4.9-2l3.4,5.8c-2.7,2.4-6.3,3.3-9.3,3.3
		C351.5,420.2,345.4,414.8,345.4,405.5z"/>
	<path class="st0" d="M367.8,405.5c0-9.2,6.5-14.8,13.4-14.8c8.1,0,12.1,5.9,12.1,13.6c0,1.5-0.2,3.1-0.4,3.8h-16.5
		c0.8,3.9,3.5,5.4,7,5.4c2,0,3.9-0.6,5.9-1.8l2.9,5.3c-2.9,2.1-6.8,3.2-10.1,3.2C374.1,420.2,367.8,414.8,367.8,405.5z M385.8,402.3
		c0-2.8-1.2-4.9-4.5-4.9c-2.4,0-4.6,1.5-5.1,4.9H385.8z"/>
	<path class="st0" d="M395.7,427.4c4.1-7.3,5.9-15.6,5.9-23.6c0-7.9-1.8-16.3-5.9-23.6l5.5-2.3c4.7,7.8,7.5,15.9,7.5,25.9
		c0,10-2.7,18.1-7.5,25.9L395.7,427.4z"/>
</g>
<g>
	<path d="M92.7,467.7c8.3-7.2,12.1-12.5,12.1-17c0-3-1.6-5.2-4.9-5.2c-2.2,0-4,1.3-5.5,3.1l-1.9-1.9c2.2-2.3,4.4-3.9,7.8-3.9
		c4.7,0,7.7,3.1,7.7,7.8c0,5.3-4.1,10.6-10.3,16.5c1.4-0.1,3-0.3,4.3-0.3h7.3v2.8H92.7V467.7z"/>
	<path d="M112.8,456.3c0-9.2,3.2-13.6,8.2-13.6c5,0,8.2,4.5,8.2,13.6c0,9.2-3.2,13.8-8.2,13.8C116,470.1,112.8,465.5,112.8,456.3z
		 M126.1,456.3c0-7.7-2-10.9-5-10.9c-3,0-5,3.2-5,10.9c0,7.8,2,11.1,5,11.1C124,467.5,126.1,464.1,126.1,456.3z"/>
	<path d="M132.6,467.7c8.3-7.2,12.1-12.5,12.1-17c0-3-1.6-5.2-4.9-5.2c-2.2,0-4,1.3-5.5,3.1l-1.9-1.9c2.2-2.3,4.4-3.9,7.8-3.9
		c4.7,0,7.7,3.1,7.7,7.8c0,5.3-4.1,10.6-10.3,16.5c1.4-0.1,3-0.3,4.3-0.3h7.3v2.8h-16.6V467.7z"/>
	<path d="M152.8,456.3c0-9.2,3.2-13.6,8.2-13.6c5,0,8.2,4.5,8.2,13.6c0,9.2-3.2,13.8-8.2,13.8C156,470.1,152.8,465.5,152.8,456.3z
		 M166,456.3c0-7.7-2-10.9-5-10.9c-3,0-5,3.2-5,10.9c0,7.8,2,11.1,5,11.1C164,467.5,166,464.1,166,456.3z"/>
	<path d="M205.2,464.1h-13v8.2h-2.7v-8.2h-16.6v-2.6h5.9v-9.6h10.7v-5.5h-8.7c-1.6,2.8-3.5,5.2-5.5,7.1c-0.5-0.4-1.6-1.3-2.3-1.7
		c3.4-3,6.4-7.6,8.1-12.4l2.7,0.6c-0.5,1.3-1.1,2.6-1.7,3.8h21.5v2.6h-11.4v5.5h10.5v2.5h-10.5v7.1h13V464.1z M189.5,461.6v-7.1
		h-8.1v7.1H189.5z"/>
	<path d="M218.8,460.2c0.6-1.3,1.3-3.3,1.9-5.3H217v14.3c0,1.4-0.3,2.2-1.3,2.6c-1,0.4-2.6,0.5-5.1,0.5c-0.1-0.7-0.5-1.8-0.8-2.5
		c1.8,0,3.5,0,4,0c0.5,0,0.7-0.1,0.7-0.6V455h-5.9v-2.4h9.2c-1.9-1.7-4.8-3.8-7.4-5.1l1.4-1.7c1.2,0.6,2.4,1.4,3.6,2.1
		c1.2-1.2,2.5-2.7,3.6-4.2h-9.6v-2.4h11.3l0.5-0.2l1.7,1.2c-1.5,2.4-3.6,5-5.6,6.9c1.1,0.8,2.1,1.6,2.8,2.3l-0.9,1.1h2.6l0.4-0.1
		l1.7,0.4c-1,2.8-2.1,5.9-3.1,7.8L218.8,460.2z M230.4,467.6c-2,1.9-5.3,3.8-8.2,4.9c-0.4-0.5-1.3-1.3-1.8-1.8c2.8-1,6-2.8,7.6-4.4
		L230.4,467.6z M229.9,446.9c0.3-1.1,0.5-2.3,0.7-3.4h-7.5v-2.3h18.1v2.3h-7.7c-0.3,1.2-0.7,2.4-1,3.4h7.5v18.6h-15.5v-18.6H229.9z
		 M237.4,449h-10.5v3.5h10.5V449z M237.4,454.4h-10.5v3.5h10.5V454.4z M237.4,459.9h-10.5v3.5h10.5V459.9z M235.6,466.4
		c2.2,1.3,4.9,3.2,6.4,4.5l-2.1,1.5c-1.4-1.3-4.1-3.3-6.3-4.7L235.6,466.4z"/>
	<path d="M255.2,440.4c-1,2.7-2.3,5.4-3.8,7.9v24h-2.6v-20.1c-1.1,1.6-2.3,3.1-3.6,4.4c-0.3-0.6-1-2-1.5-2.6
		c3.5-3.4,6.9-8.8,8.9-14.3L255.2,440.4z M267.2,450v7.3h8v15h-2.7v-1.4h-13.1v1.5h-2.6v-15.1h7.7V450h-9.8v-2.6h9.8v-7.9h2.7v7.9
		h10.2v2.6H267.2z M272.5,459.8h-13.1v8.5h13.1V459.8z"/>
	<path d="M310.9,451.7c-1.5,4.6-3.7,8.7-6.3,12.2c1.3,3.5,3,5.6,4.8,5.6c1,0,1.4-1.9,1.7-6.7c0.6,0.6,1.6,1.2,2.3,1.4
		c-0.5,6.1-1.5,7.9-4.2,7.9c-2.8,0-4.9-2.2-6.6-5.9c-2.2,2.3-4.6,4.4-7.4,6c-0.4-0.5-1.3-1.6-1.9-2.1c3.2-1.7,6-4,8.3-6.7
		c-1.3-4.1-2.2-9.4-2.6-15.2h-12.4v4.7h9.2v1.2c-0.2,8.1-0.4,11.1-1.2,12c-0.5,0.7-1.2,0.9-2.2,1c-0.9,0.1-2.5,0.1-4.3,0
		c0-0.8-0.3-1.8-0.8-2.5c1.7,0.1,3.2,0.2,3.8,0.2c0.5,0,0.9-0.1,1.1-0.4c0.5-0.5,0.7-2.8,0.8-9h-6.6v0.3c0,5-0.5,12.3-3.8,17
		c-0.5-0.5-1.6-1.5-2.2-1.8c3-4.4,3.3-10.5,3.3-15.2v-10h15c-0.1-2-0.2-4-0.2-6h2.8c0,2.1,0,4.1,0.1,6h11.6v2.6h-11.4
		c0.4,4.8,1,9.1,2,12.5c1.9-2.8,3.5-6.1,4.6-9.7L310.9,451.7z M304.7,439.7c2.2,1.1,5,2.8,6.4,4.1l-1.7,1.8
		c-1.4-1.3-4.1-3.1-6.4-4.3L304.7,439.7z"/>
	<path d="M347.4,460.9c-2.3,1.7-5.2,3.4-7.8,4.7c2.7,2,6.2,3.3,10.2,4.1c-0.5,0.6-1.3,1.7-1.7,2.4c-8.2-1.8-13.8-6.2-16.9-13h-5.8
		v9.6l9.7-2.3c0,0.7-0.1,1.8-0.1,2.3c-10.1,2.6-11.8,3.1-12.7,3.5l-0.1,0.1c-0.2-0.6-0.8-1.9-1.2-2.6c0.7-0.4,1.8-1.1,1.8-2.6v-8.1
		H317v-2.4h6.3v-15.8h22.1v2.3H326v3.1h18.4v2.2H326v3h18.4v2.2H326v3.1H349v2.4h-15c1,1.9,2.3,3.6,3.9,5c2.6-1.4,5.5-3.3,7.4-4.8
		L347.4,460.9z"/>
	<path d="M385,464.8h-14.7v7.6h-2.8v-7.6H353v-2.5h14.6v-3h2.8v3H385V464.8z M362.5,455.4c-2.7,1.5-5.7,3-8,4.2l-1.3-2.2
		c2.2-0.9,5.6-2.5,8.8-4L362.5,455.4z M374.8,459.9c-0.2-0.6-0.5-1.2-1-1.9c-9.4,0.9-10.6,1.1-11.3,1.4c-0.1-0.5-0.5-1.7-0.8-2.3
		c0.8-0.1,1.7-0.8,3-1.8c0.7-0.6,2.2-2,4-3.7c-4.1,0.3-4.9,0.5-5.5,0.7c-0.1-0.5-0.5-1.7-0.8-2.3c0.5-0.1,1-0.5,1.6-1.2
		c0.5-0.5,1.7-1.9,2.8-3.7h-13.1v-2.4h14.7c-0.5-0.9-1.1-2-1.7-2.8l2.6-0.7c0.8,1,1.7,2.5,2.1,3.5h13.4v2.4h-15.2
		c-1.1,1.6-2.3,3.1-3.4,4.4l4.6-0.3c0.8-0.9,1.7-1.9,2.4-3l2.2,1.3c-2.8,3.3-6,6.5-9.1,9l6.3-0.5c-0.6-0.8-1.2-1.6-1.8-2.3l2-0.8
		c1.6,1.8,3.4,4.4,4.1,6L374.8,459.9z M356,446.6c1.9,1.2,4.3,2.8,5.5,4.1l-1.9,1.6c-1.1-1.2-3.5-3-5.4-4.2L356,446.6z M382.3,460
		c-1.5-1.4-4.5-3.6-7.1-5l1.9-1.4c2.4,1.4,5.5,3.4,7.1,4.9L382.3,460z M383,447.9c-1.6,1.7-3.7,3.4-5.4,4.5l-1.9-1.3
		c1.6-1.2,3.9-3.1,5.1-4.6L383,447.9z"/>
	<path d="M388.6,464c0-3.5,1-6.4,2.6-9.1l1,0.5c-1.6,2.6-2.3,5.6-2.3,8.7s0.7,6.1,2.3,8.7l-1,0.5C389.6,470.5,388.6,467.6,388.6,464
		z"/>
	<path d="M393.6,468l0.8-1.1c0.8,0.8,1.8,1.5,3.3,1.5c1.6,0,2.7-0.9,2.7-2.4c0-1.6-1.1-2.6-4.1-2.6v-1.3c2.7,0,3.7-1.1,3.7-2.5
		c0-1.3-0.9-2.1-2.2-2.1c-1.1,0-2,0.6-2.7,1.3l-0.9-1c1-0.9,2.2-1.6,3.7-1.6c2.2,0,3.8,1.2,3.8,3.3c0,1.6-1,2.7-2.4,3.2v0.1
		c1.6,0.4,2.8,1.5,2.8,3.3c0,2.4-1.9,3.8-4.2,3.8C395.8,469.8,394.5,469,393.6,468z"/>
	<path d="M403.8,472.7c1.5-2.6,2.3-5.6,2.3-8.7s-0.8-6.1-2.3-8.7l1-0.5c1.7,2.7,2.7,5.6,2.7,9.1c0,3.5-1,6.4-2.7,9.1L403.8,472.7z"
		/>
</g>
<path class="st0" d="M384.9,565.4H115.4c-12.5,0-22.7-10.2-22.7-22.7v-32.1c0-12.5,10.2-22.7,22.7-22.7h269.5
	c12.5,0,22.7,10.2,22.7,22.7v32.1C407.5,555.2,397.4,565.4,384.9,565.4z"/>
<g>
	<path class="st5" d="M169.3,529.5h-13.9v-8.7h13.9v-14.5h9v14.5h13.9v8.7h-13.9v14.5h-9V529.5z"/>
	<path class="st5" d="M200.3,541.4h10.9v-29.3h-9.5v-7.6c5.5-1,9.1-2.4,12.7-4.6h9.1v41.6h9.3v10h-32.6V541.4z"/>
	<path class="st5" d="M246.9,538.8c1.7,1.9,4.9,3.5,7.9,3.5c5.3,0,9.4-3.7,9.9-15c-2.5,3.3-6.9,5.2-9.8,5.2
		c-8.7,0-15.1-5.1-15.1-16.2c0-10.9,7.8-17.5,17-17.5c9.8,0,19.3,7.4,19.3,26.1s-9.8,27.4-20.4,27.4c-6.9,0-11.9-2.9-15.2-6.2
		L246.9,538.8z M264.4,519c-1-8.5-4.3-10.9-7.5-10.9c-3.3,0-6,2.3-6,8.2c0,5.5,2.8,7.5,6.2,7.5C259.7,523.9,262.4,522.5,264.4,519z"
		/>
	<path class="st5" d="M281.2,515.1c0-10.3,5.5-16.3,13-16.3c7.5,0,13.1,6,13.1,16.3c0,10.3-5.5,16.5-13.1,16.5
		C286.7,531.6,281.2,525.5,281.2,515.1z M298.7,515.1c0-7.2-2.1-9.5-4.5-9.5c-2.4,0-4.5,2.3-4.5,9.5s2.1,9.7,4.5,9.7
		C296.7,524.8,298.7,522.3,298.7,515.1z M323.8,498.9h7.1L303,552.3h-7L323.8,498.9z M319.6,535.8c0-10.3,5.5-16.3,13-16.3
		c7.5,0,13,6,13,16.3c0,10.3-5.5,16.5-13,16.5C325.1,552.3,319.6,546.2,319.6,535.8z M337,535.8c0-7.3-2-9.5-4.4-9.5
		s-4.6,2.2-4.6,9.5c0,7.2,2.1,9.6,4.6,9.6S337,543,337,535.8z"/>
</g>
<g>
	<circle class="st1" cx="250.1" cy="166.2" r="131.2"/>
	<g>
		<path class="st2" d="M210.4,100.3c2.2-3.7,4.9-7.2,8.1-10.4c10-10,22.1-15,36.3-15c14.2,0,26.2,5,36.2,15c3.2,3.2,6,6.7,8.2,10.4
			 M223,107.6c1.6-2.6,3.5-5.1,5.8-7.5c7.2-7.1,15.8-10.7,25.9-10.7c10.1,0,18.7,3.6,25.8,10.7c2.3,2.3,4.3,4.8,5.9,7.5
			 M244.6,149.6c0-2.6,0.9-4.8,2.8-6.6c1.8-1.8,4.1-2.8,6.7-2.8c2.6,0,4.8,0.9,6.6,2.8c1.8,1.8,2.8,4,2.8,6.6c0,2.6-0.9,4.8-2.8,6.7
			c-1.8,1.8-4,2.8-6.6,2.8c-2.6,0-4.8-0.9-6.7-2.8C245.6,154.4,244.6,152.2,244.6,149.6z"/>
		<path class="st3" d="M261.3,114.2c-0.6-0.6-1-1.3-1.3-2c-0.3-0.7-0.4-1.5-0.4-2.3c0-1.7,0.6-3.1,1.8-4.3c1.2-1.2,2.6-1.8,4.3-1.8
			c1.7,0,3.1,0.6,4.3,1.8c1.2,1.2,1.8,2.6,1.8,4.3c0,0.8-0.2,1.6-0.5,2.3c-0.3,0.7-0.7,1.4-1.3,2c-1.2,1.2-2.6,1.8-4.3,1.8
			C263.9,116,262.5,115.4,261.3,114.2l-7.1,7.1l-7.1-7.1c-1.2,1.2-2.6,1.8-4.3,1.8c-1.7,0-3.1-0.6-4.3-1.8c-0.6-0.6-1-1.3-1.3-2
			c-0.3-0.7-0.5-1.5-0.5-2.3c0-1.7,0.6-3.1,1.8-4.3c1.2-1.2,2.6-1.8,4.3-1.8c1.7,0,3.1,0.6,4.3,1.8c1.2,1.2,1.8,2.6,1.8,4.3
			c0,0.8-0.1,1.6-0.4,2.3c-0.3,0.7-0.7,1.4-1.3,2 M227,130.7c0-0.4,0-0.8,0.2-1.2c0.2-0.6,0.5-1.2,1-1.7c0.8-0.8,1.7-1.2,2.9-1.2
			c1.4,0,2.9,0,4.4,0c0.8,0,3.9,0,9.3,0c3.1,0,6.3,0,9.4,0c0,0,0.1,0,0.1,0c7.6,0,15.3,0,22.9,0c1.1,0,2.1,0.4,2.9,1.2
			c0.5,0.5,0.8,1.1,1,1.7c0.1,0.4,0.2,0.7,0.2,1.2c0,1.1-0.4,2.1-1.2,2.9c-0.8,0.8-1.7,1.2-2.9,1.2h-0.7l7.5,26.8
			c1.1,4,0.6,7.4-1.4,10.3c-2.1,2.8-5.1,4.3-9.1,4.2h-38.5c-4,0-7.1-1.4-9.1-4.2c-2-2.8-2.5-6.3-1.4-10.3l7.4-26.8h-0.7
			c-1.1,0-2.1-0.4-2.9-1.2C227.4,132.8,227,131.8,227,130.7z"/>
		<path class="st4" d="M330.4,227.6h-8.3c0,5.7-2,10.5-6,14.5c-4,4-8.9,6-14.5,6c-0.1,0-0.2,0-0.3,0c-5.5-0.1-10.3-2.1-14.2-6
			c-4-4-6-8.9-6-14.5h-46.5c0,5.7-2,10.5-6,14.5c-4,4-8.9,6-14.5,6s-10.5-2-14.5-6c-4-4-6-8.9-6-14.5c0-5.7,2-10.5,6-14.5
			c2.9-2.9,6.1-4.7,9.8-5.5l-2-8.6l-16.9-72.3l-1.9-8.2c-2.8-10.4-8.5-15.2-16.9-14.6h-16.1 M215.1,126.7h-24.7 M209.3,207.6
			c1.5-0.3,3.1-0.5,4.7-0.5c5.7,0,10.5,2,14.5,6c4,4,6,8.9,6,14.5 M207.3,199l94.4-10.2c13.6-1.6,20-9.9,19.2-25v-37.1h-27.4
			 M322.1,227.6c0-5.7-2-10.5-6-14.5c-4-4-8.9-6-14.5-6c-0.1,0-0.2,0-0.3,0c-5.5,0.1-10.3,2.1-14.2,6c-4,4-6,8.9-6,14.5"/>
	</g>
</g>
</svg>
