<?xml version="1.0" encoding="utf-8"?>
<!-- Generator: Adobe Illustrator 24.0.2, SVG Export Plug-In . SVG Version: 6.00 Build 0)  -->
<svg version="1.1" id="圖層_1" xmlns="http://www.w3.org/2000/svg" xmlns:xlink="http://www.w3.org/1999/xlink" x="0px" y="0px"
	 viewBox="0 0 710 586" style="enable-background:new 0 0 710 586;" xml:space="preserve">
<style type="text/css">
	.st0{enable-background:new    ;}
	.st1{fill:none;stroke:#5A5C5C;stroke-width:3;stroke-miterlimit:10;}
	.st2{fill:#004790;}
	.st3{fill:#FFFFFF;}
	.st4{fill:none;stroke:#47433A;stroke-width:3;stroke-linecap:round;stroke-miterlimit:10;}
	.st5{fill:none;stroke:#47433A;stroke-width:3;stroke-linecap:round;stroke-miterlimit:10;stroke-dasharray:7.9302,9.9127;}
	.st6{fill:none;stroke:#004790;stroke-width:3;stroke-linecap:round;stroke-miterlimit:10;}
	.st7{fill:#47433A;}
</style>
<g class="st0">
	<path d="M93.8,569.1c0.5,0.5,1.3,0.9,2.1,0.9c1.5,0,2.7-1.1,2.8-4.5c-0.7,0.9-1.8,1.5-2.7,1.5c-2.2,0-3.8-1.4-3.8-4.2
		c0-2.7,1.9-4.4,4.2-4.4c2.5,0,4.8,2,4.8,6.6c0,5-2.5,7.2-5.1,7.2c-1.7,0-2.9-0.7-3.7-1.5L93.8,569.1z M98.7,563.7
		c-0.2-2.4-1.2-3.3-2.3-3.3c-1,0-1.8,0.8-1.8,2.4c0,1.6,0.7,2.3,1.9,2.3C97.2,565.1,98,564.7,98.7,563.7z"/>
	<path d="M102.5,570.4l1.2-1.7c0.8,0.7,1.7,1.4,2.9,1.4c1.4,0,2.4-0.9,2.4-2.4c0-1.5-0.9-2.4-2.3-2.4c-0.8,0-1.2,0.2-2,0.7l-1.2-0.8
		l0.4-6.5h7.1v2.2h-4.8l-0.3,2.8c0.5-0.3,1-0.4,1.6-0.4c2.2,0,4.1,1.3,4.1,4.2c0,3-2.2,4.7-4.7,4.7
		C104.9,572.2,103.5,571.4,102.5,570.4z"/>
</g>
<g class="st0">
	<path d="M214.1,565.2c0-4.6,1.8-6.9,4.5-6.9c2.7,0,4.5,2.3,4.5,6.9c0,4.6-1.8,7-4.5,7C215.9,572.2,214.1,569.8,214.1,565.2z
		 M220.7,565.2c0-3.7-0.9-4.8-2-4.8c-1.2,0-2,1.1-2,4.8c0,3.7,0.9,4.9,2,4.9C219.8,570.1,220.7,569,220.7,565.2z"/>
	<path d="M224.7,565.2c0-4.6,1.8-6.9,4.5-6.9c2.7,0,4.5,2.3,4.5,6.9c0,4.6-1.8,7-4.5,7C226.5,572.2,224.7,569.8,224.7,565.2z
		 M231.3,565.2c0-3.7-0.9-4.8-2-4.8c-1.2,0-2,1.1-2,4.8c0,3.7,0.9,4.9,2,4.9C230.4,570.1,231.3,569,231.3,565.2z"/>
</g>
<g class="st0">
	<path d="M339.2,565.2c0-4.6,1.8-6.9,4.5-6.9c2.7,0,4.5,2.3,4.5,6.9c0,4.6-1.8,7-4.5,7C341,572.2,339.2,569.8,339.2,565.2z
		 M345.7,565.2c0-3.7-0.9-4.8-2-4.8c-1.2,0-2,1.1-2,4.8c0,3.7,0.9,4.9,2,4.9C344.8,570.1,345.7,569,345.7,565.2z"/>
	<path d="M349.5,570.4l1.2-1.7c0.8,0.7,1.7,1.4,2.9,1.4c1.4,0,2.4-0.9,2.4-2.4c0-1.5-0.9-2.4-2.3-2.4c-0.8,0-1.2,0.2-2,0.7l-1.2-0.8
		l0.4-6.5h7.1v2.2h-4.8l-0.3,2.8c0.5-0.3,1-0.4,1.6-0.4c2.2,0,4.1,1.3,4.1,4.2c0,3-2.2,4.7-4.7,4.7
		C351.9,572.2,350.5,571.4,349.5,570.4z"/>
</g>
<g class="st0">
	<path d="M462.8,569.8h2.9v-8.4h-2.4v-1.6c1.3-0.3,2.3-0.6,3.1-1.1h2v11.2h2.5v2.1h-8V569.8z"/>
	<path d="M472.7,565.2c0-4.6,1.8-6.9,4.5-6.9c2.7,0,4.5,2.3,4.5,6.9c0,4.6-1.8,7-4.5,7C474.5,572.2,472.7,569.8,472.7,565.2z
		 M479.3,565.2c0-3.7-0.9-4.8-2-4.8c-1.2,0-2,1.1-2,4.8c0,3.7,0.9,4.9,2,4.9C478.4,570.1,479.3,569,479.3,565.2z"/>
</g>
<g class="st0">
	<path d="M587.1,569.8h2.9v-8.4h-2.4v-1.6c1.3-0.3,2.3-0.6,3.1-1.1h2v11.2h2.5v2.1h-8V569.8z"/>
	<path d="M596.7,570.4l1.2-1.7c0.8,0.7,1.7,1.4,2.9,1.4c1.4,0,2.4-0.9,2.4-2.4c0-1.5-0.9-2.4-2.3-2.4c-0.8,0-1.2,0.2-2,0.7l-1.2-0.8
		l0.4-6.5h7.1v2.2h-4.8l-0.3,2.8c0.5-0.3,1-0.4,1.6-0.4c2.2,0,4.1,1.3,4.1,4.2c0,3-2.2,4.7-4.7,4.7
		C599.1,572.2,597.7,571.4,596.7,570.4z"/>
</g>
<g class="st0">
	<path d="M60,121.7c3.6-3.2,5.8-5.7,5.8-7.8c0-1.3-0.7-2.2-2-2.2c-1,0-1.8,0.6-2.4,1.4l-1.4-1.4c1.2-1.3,2.4-2,4.2-2
		c2.5,0,4.2,1.6,4.2,4.1c0,2.4-2,5-4.4,7.4c0.7-0.1,1.5-0.1,2.2-0.1h2.9v2.2H60V121.7z"/>
	<path d="M70.3,121.7l1.2-1.7c0.8,0.7,1.7,1.4,2.9,1.4c1.4,0,2.4-0.9,2.4-2.4c0-1.5-0.9-2.4-2.3-2.4c-0.8,0-1.2,0.2-2,0.7l-1.2-0.8
		l0.4-6.5h7.1v2.2H74l-0.3,2.8c0.5-0.3,1-0.4,1.6-0.4c2.2,0,4.1,1.3,4.1,4.2c0,3-2.2,4.7-4.7,4.7C72.7,123.5,71.3,122.7,70.3,121.7z
		"/>
</g>
<g class="st0">
	<path d="M87.8,96.5c0-2.7,1.3-4.2,3.2-4.2c1.9,0,3.3,1.5,3.3,4.2c0,2.7-1.4,4.2-3.3,4.2C89.2,100.7,87.8,99.1,87.8,96.5z
		 M92.5,96.5c0-2-0.6-2.7-1.4-2.7c-0.8,0-1.4,0.7-1.4,2.7s0.6,2.8,1.4,2.8C91.8,99.2,92.5,98.4,92.5,96.5z M98.8,92.3h1.6l-7.3,13.8
		h-1.5L98.8,92.3z M97.5,101.9c0-2.7,1.4-4.2,3.2-4.2s3.3,1.5,3.3,4.2c0,2.7-1.4,4.2-3.3,4.2S97.5,104.5,97.5,101.9z M102.1,101.9
		c0-2-0.6-2.7-1.4-2.7c-0.8,0-1.4,0.8-1.4,2.7s0.6,2.7,1.4,2.7C101.5,104.6,102.1,103.8,102.1,101.9z"/>
</g>
<g class="st0">
	<path d="M60,207.4c3.6-3.2,5.8-5.7,5.8-7.8c0-1.3-0.7-2.2-2-2.2c-1,0-1.8,0.6-2.4,1.4l-1.4-1.4c1.2-1.3,2.4-2,4.2-2
		c2.5,0,4.2,1.6,4.2,4.1c0,2.4-2,5-4.4,7.4c0.7-0.1,1.5-0.1,2.2-0.1h2.9v2.2H60V207.4z"/>
	<path d="M70.6,202.2c0-4.6,1.8-6.9,4.5-6.9c2.7,0,4.5,2.3,4.5,6.9c0,4.6-1.8,7-4.5,7C72.4,209.1,70.6,206.8,70.6,202.2z
		 M77.1,202.2c0-3.7-0.9-4.8-2-4.8c-1.2,0-2,1.1-2,4.8c0,3.7,0.9,4.9,2,4.9C76.3,207.1,77.1,205.9,77.1,202.2z"/>
</g>
<g class="st0">
	<path d="M60.7,292.4h2.9v-8.4h-2.4v-1.6c1.3-0.3,2.3-0.6,3.1-1.1h2v11.2h2.5v2.1h-8V292.4z"/>
	<path d="M70.3,292.9l1.2-1.7c0.8,0.7,1.7,1.4,2.9,1.4c1.4,0,2.4-0.9,2.4-2.4c0-1.5-0.9-2.4-2.3-2.4c-0.8,0-1.2,0.2-2,0.7l-1.2-0.8
		l0.4-6.5h7.1v2.2H74l-0.3,2.8c0.5-0.3,1-0.4,1.6-0.4c2.2,0,4.1,1.3,4.1,4.2c0,3-2.2,4.7-4.7,4.7C72.7,294.8,71.3,293.9,70.3,292.9z
		"/>
</g>
<g class="st0">
	<path d="M60.7,378h2.9v-8.4h-2.4v-1.6c1.3-0.3,2.3-0.6,3.1-1.1h2V378h2.5v2.1h-8V378z"/>
	<path d="M70.6,373.4c0-4.6,1.8-6.9,4.5-6.9c2.7,0,4.5,2.3,4.5,6.9c0,4.6-1.8,7-4.5,7C72.4,380.4,70.6,378,70.6,373.4z M77.1,373.4
		c0-3.7-0.9-4.8-2-4.8c-1.2,0-2,1.1-2,4.8c0,3.7,0.9,4.9,2,4.9C76.3,378.3,77.1,377.1,77.1,373.4z"/>
</g>
<g class="st0">
	<path d="M59.7,464.2l1.2-1.7c0.8,0.7,1.7,1.4,2.9,1.4c1.4,0,2.4-0.9,2.4-2.4c0-1.5-0.9-2.4-2.3-2.4c-0.8,0-1.2,0.2-2,0.7l-1.2-0.8
		l0.4-6.5h7.1v2.2h-4.8l-0.3,2.8c0.5-0.3,1-0.4,1.6-0.4c2.2,0,4.1,1.3,4.1,4.2c0,3-2.2,4.7-4.7,4.7C62.1,466,60.7,465.2,59.7,464.2z
		"/>
</g>
<g class="st0">
	<path d="M60,544.6c0-4.6,1.8-6.9,4.5-6.9c2.7,0,4.5,2.3,4.5,6.9c0,4.6-1.8,7-4.5,7C61.8,551.6,60,549.2,60,544.6z M66.5,544.6
		c0-3.7-0.9-4.8-2-4.8c-1.2,0-2,1.1-2,4.8c0,3.7,0.9,4.9,2,4.9C65.7,549.5,66.5,548.4,66.5,544.6z"/>
</g>
<line class="st1" x1="99.5" y1="545.7" x2="687.3" y2="545.7"/>
<line class="st1" x1="99.5" y1="116.8" x2="99.5" y2="545.7"/>
<line class="st1" x1="91.4" y1="461.7" x2="99.5" y2="461.7"/>
<line class="st1" x1="91.4" y1="372.9" x2="99.5" y2="372.9"/>
<line class="st1" x1="91.4" y1="289.2" x2="99.5" y2="289.2"/>
<line class="st1" x1="91.4" y1="203" x2="99.5" y2="203"/>
<line class="st1" x1="91.4" y1="116.8" x2="99.5" y2="116.8"/>
<g>
	<path class="st2" d="M634,86.4H74.7c-22,0-40-18-40-40l0,0c0-22,18-40,40-40H634c22,0,40,18,40,40l0,0C674,68.4,656,86.4,634,86.4z
		"/>
	<g class="st0">
		<path class="st3" d="M81.6,52.8c-0.4-1-1.3-2.6-2.2-4.1v15h-4.3V50.5c-1.2,2.8-2.6,5.5-4,7.3c-0.4-1.3-1.4-3.1-2-4.2
			c2.1-2.4,4.1-6.3,5.5-9.9h-5v-4.1h5.6v-4.2c-1.4,0.2-2.8,0.4-4.2,0.6c-0.1-1-0.7-2.4-1.2-3.4c4.2-0.7,8.8-1.8,11.9-3l2.5,3.6
			c-1.4,0.6-3.1,1-4.8,1.4v5.1h4.9v4.1h-4.9V44c1.1,1,4.1,4.5,4.8,5.4L81.6,52.8z M99.8,54.4v9.3h-4.3v-8.5l-11.2,1.9l-0.7-4.2
			l11.9-2V29.2h4.3v20.9l3.7-0.6l0.7,4.1L99.8,54.4z M90.5,49.3c-1.1-1.6-3.7-4-5.9-5.7l2.8-2.5c2.1,1.5,4.8,3.8,6.1,5.4L90.5,49.3z
			 M91.5,39.5c-1-1.6-3.4-4-5.5-5.5l2.9-2.5c2,1.5,4.6,3.7,5.7,5.3L91.5,39.5z"/>
		<path class="st3" d="M119.3,49c-1.3,0.4-2.6,0.7-4,1.1v8.8c0,2.1-0.4,3.2-1.7,3.9c-1.2,0.7-3,0.8-5.6,0.8c-0.1-1.1-0.7-2.8-1.2-4
			c1.4,0,3,0,3.4,0c0.5,0,0.7-0.2,0.7-0.7v-7.6l-3.6,0.9l-1.1-4.2c1.4-0.3,3-0.6,4.7-1.1v-6.5h-4.3v-4.1h4.3v-7h4.4v7h3.6v4.1h-3.6
			v5.5l3.4-0.8L119.3,49z M139.7,44c-1.4,5.1-3.8,9.2-6.9,12.3c2.4,1.7,5.3,2.9,8.6,3.7c-0.9,0.9-2.2,2.7-2.8,3.8
			c-3.6-1.1-6.6-2.6-9.2-4.7c-2.9,2-6.1,3.5-9.8,4.5c-0.5-1.2-1.5-3-2.3-4c3.3-0.8,6.2-2,8.8-3.6c-2.1-2.5-3.9-5.4-5.2-8.8l1.1-0.3
			h-1.9v-4h7.3v-4.4h-7.9v-4.1h7.9v-5.3h4.4v5.3h8.3v4.1h-8.3V43h4.4l0.8-0.2L139.7,44z M125.2,46.9c1,2.4,2.5,4.7,4.4,6.5
			c1.9-1.8,3.5-4,4.7-6.5H125.2z"/>
		<path class="st3" d="M176.8,46.1c-1.2,4.7-3.3,8.3-6.1,11.1c2.1,1.2,4.5,2.1,7.2,2.7c-1,0.9-2.2,2.7-2.8,3.8
			c-3.1-0.9-5.7-2.1-7.9-3.7c-2.4,1.5-5.1,2.7-8.1,3.5c-0.4-1.1-1.4-2.7-2.2-3.7c-0.1,1.3-0.5,2.2-1.4,2.7c-1,0.7-2.5,0.8-4.7,0.8
			c-0.1-1.1-0.6-3-1.1-4.1c1.1,0,2.3,0,2.7,0c0.4,0,0.6-0.1,0.6-0.6v-7.4c-1,0.6-2,1.3-2.8,1.8l-1.1-2.7c-0.3,4.6-0.9,9.6-2.3,13.2
			c-0.8-0.7-2.6-1.6-3.5-2c1.9-5.1,2-12.5,2-17.8V30.5h11.6v11c4-2,4.5-4.7,4.5-7.1v-4h12.4v8.1c0,1.1,0.1,1.5,0.5,1.5h1.4
			c0.5,0,1.3-0.1,1.8-0.3c0.1,1.1,0.2,2.5,0.3,3.5c-0.6,0.2-1.4,0.3-2.1,0.3h-1.9c-3.5,0-4.2-1.5-4.2-5v-4h-4.3
			c0,3.5-1.1,7.6-5.9,10.1c-0.4-0.7-1.7-2.1-2.5-2.8v16.9c0,0.3,0,0.6,0,0.9c2.5-0.6,4.8-1.5,6.9-2.6c-1.9-2.1-3.5-4.5-4.7-7.2
			l1.8-0.6h-2.7v-4.1h15L174,45L176.8,46.1z M149.2,43.9c0,1.5,0,3.3-0.1,5c1.1-0.4,2.4-0.8,3.8-1.4v-4l-1.5,1.2
			c-0.5-0.7-1.3-1.8-2.3-2.8V43.9z M149.2,34.5v4.6l1-0.7c0.9,0.8,1.9,1.8,2.7,2.8v-6.6H149.2z M163.1,49.3c1,2,2.4,3.7,4,5.2
			c1.6-1.4,3-3.2,4-5.2H163.1z"/>
		<path class="st3" d="M190.6,47.4c-0.4,2.9-1,5.4-1.7,7.6c2.1,3.8,6.3,4.3,12.3,4.3c4,0,10-0.2,14.2-0.6c-0.6,0.9-1.2,2.8-1.4,4.1
			c-3.8,0.2-8.5,0.3-12.9,0.3c-6.8,0-11-0.7-13.9-4.5c-1.2,2.3-2.7,4-4.4,5.2c-0.5-0.9-2-2.4-2.8-2.9c3.1-2.1,5.2-5.8,6.3-10.8h-2.6
			c-0.9,0-1.9,0.3-2.3,0.6c-0.2-0.9-1-2.8-1.4-3.5c0.6-0.1,1.2-0.4,1.9-1.2c0.6-0.7,2.1-2.7,3.5-4.7h-4.7v-3.5h7.5l0.4-0.2l2.7,1.2
			c-1.4,2-3.7,5.4-5.6,7.9h2.4l0.7-0.1L190.6,47.4z M186.1,37.2c-0.9-1.6-2.9-4.1-4.4-6l3.3-2c1.6,1.8,3.6,4.1,4.6,5.6L186.1,37.2z
			 M195.5,57.7h-3.8V41.6h2.6V30.3h15.9v11.3h2.8V54c0,1.7-0.3,2.7-1.4,3.3c-1.1,0.6-2.6,0.6-4.6,0.6c-0.1-1-0.6-2.2-1-3.2h-5.5v1.1
			h-3.1v-9.3h9.6v7.9c0.7,0,1.3,0,1.5,0c0.4,0,0.5-0.1,0.5-0.5v-9h-13.6V57.7z M198.2,41.6h2.1v-5.8h6v-2.3h-8.2V41.6z M203.9,49.3
			h-3.3v2.6h3.3V49.3z M206.3,38.6h-2.8v3.1h2.8V38.6z"/>
		<path class="st3" d="M233.8,48.4c-2,3.3-4.5,6.4-6.9,9.1l15-0.9c-1.3-1.9-2.7-3.7-4-5.3l4.1-1.8c3.2,3.7,6.6,8.5,8.2,11.9
			l-4.3,2.2c-0.4-0.9-0.9-2-1.6-3.1c-18.6,1.5-21.2,1.6-23.1,2.3c-0.3-0.9-1-3.1-1.5-4.3c1-0.2,1.7-1,2.8-2.2
			c0.9-0.9,3.5-4.3,5.6-7.9h-10.4V44h14.4v-5.2h-11.6v-4.4h11.6v-5.1h4.7v5.1h11.9v4.4h-11.9V44h14.6v4.4H233.8z"/>
		<path class="st3" d="M256,56.2h5.9V39.6h-5v-3.4c2.7-0.5,4.6-1.2,6.4-2.3h4v22.2h5.1v4.4H256V56.2z"/>
		<path class="st3" d="M276.3,57.4c7.1-6.8,11.8-11.5,11.8-15.4c0-2.7-1.5-4.3-4.1-4.3c-2,0-3.6,1.3-5,2.8l-3-3
			c2.5-2.7,5-4.2,8.7-4.2c5.2,0,8.6,3.3,8.6,8.3c0,4.7-4.3,9.5-9.2,14.6c1.4-0.1,3.2-0.3,4.5-0.3h6v4.6h-18.3V57.4z"/>
		<path class="st3" d="M308.6,30.6c-0.8,2.3-1.8,4.7-2.9,7v26.2h-4.2V44.9c-0.8,1.1-1.6,2.2-2.5,3.2c-0.3-1.1-1.4-3.7-2.1-4.8
			c3.1-3.4,5.9-8.6,7.5-14L308.6,30.6z M331.2,31.1v32.3H327v-1.8h-13.9v2.1h-4V31.1H331.2z M327,57.8V34.9h-13.9v22.8H327z
			 M321.7,42.7v3.2h3.5v9.9H315v-9.9h3.3v-3.2H314v-3.2h4.3v-3.8h3.4v3.8h4.5v3.2H321.7z M321.9,48.9h-3.8v3.9h3.8V48.9z"/>
		<path class="st3" d="M364.5,58.1c0,2.7-0.6,3.9-2.3,4.7c-1.8,0.8-4.4,0.9-8.2,0.9c-0.3-1.3-1.1-3.4-1.8-4.6
			c2.6,0.1,5.7,0.1,6.5,0.1c0.9,0,1.2-0.3,1.2-1.1v-5.4H344c-1,4.1-2.8,8.2-6.2,11c-0.7-0.9-2.4-2.5-3.4-3.2
			c5.6-4.8,6.1-11.8,6.1-17.4V31h24V58.1z M359.8,48.5V44H345c0,1.4-0.1,3-0.3,4.5H359.8z M345,35.3v4.5h14.8v-4.5H345z"/>
		<path class="st3" d="M371.7,60c1.3-2.1,2.7-5.2,3.5-7.8l3.9,1.6c-0.9,2.5-2.2,5.9-3.4,8.1L371.7,60z M387.8,50.6h-10.6V32.5h8.5
			c0.4-1.2,0.8-2.6,1-3.6l5.3,0.7c-0.5,1.1-1.1,2.1-1.6,3h10.1v18.1h-10.6c1.6,1.5,3.1,3.4,3.9,4.9l-3.6,2.1
			c-0.7-1.6-2.7-4.1-4.4-5.8L387.8,50.6z M393,59.1c1.8,0,2.1-0.5,2.3-4c0.9,0.7,2.8,1.3,4,1.6c-0.5,5.2-1.8,6.4-6,6.4h-7
			c-5.2,0-6.5-1.2-6.5-5.2v-5.1h4.5v5.1c0,1.1,0.4,1.2,2.5,1.2H393z M381.4,37.6H396v-1.7h-14.6V37.6z M381.4,42.4H396v-1.7h-14.6
			V42.4z M381.4,47.3H396v-1.7h-14.6V47.3z M401.7,51.6c1.7,2.4,3.5,5.7,4.1,7.9l-4.2,1.8c-0.5-2.1-2.1-5.5-3.8-8.1L401.7,51.6z"/>
		<path class="st3" d="M425.8,59.4c0,1.9-0.4,2.9-1.6,3.5c-1.2,0.6-2.9,0.7-5.1,0.7c-0.2-1.1-0.8-2.7-1.4-3.7c1.4,0.1,2.8,0.1,3.3,0
			c0.4,0,0.6-0.1,0.6-0.6v-3.3H415c-0.4,2.8-1.3,5.6-2.7,7.7c-0.7-0.7-2.4-2-3.3-2.5c2.3-3.3,2.5-8,2.5-11.6v-8.5h14.3V59.4z
			 M442.6,34.7v4h-33.4v-4h7.9c-0.7-1.3-1.7-2.8-2.8-4.1l4.2-1.4c1.3,1.4,2.8,3.4,3.4,4.8l-2,0.7h10.3c1.1-1.7,2.3-3.9,3-5.6
			l4.8,1.4c-0.9,1.4-1.9,2.9-2.8,4.2H442.6z M421.5,52.9v-2.4h-6.1c0,0.8,0,1.6-0.1,2.4H421.5z M415.4,44.7v2.5h6.1v-2.5H415.4z
			 M433,56.7h-4V41.6h4V56.7z M436.3,40.6h4.3v18.4c0,2.2-0.4,3.3-1.9,4c-1.4,0.7-3.4,0.8-6.1,0.7c-0.2-1.2-0.9-3-1.6-4.1
			c1.9,0.1,3.8,0.1,4.4,0c0.6,0,0.8-0.1,0.8-0.7V40.6z"/>
		<path class="st3" d="M475.4,59.4c0.6,0,0.7-0.5,0.8-4c0.8,0.7,2.6,1.4,3.8,1.7c-0.4,5-1.5,6.3-4.1,6.3h-2.5
			c-3.4,0-4.1-1.3-4.1-5.2v-7.4h-1.8c-0.6,5.9-2,10.5-8.2,13.1c-0.5-1-1.6-2.6-2.5-3.4c5.1-2,6.1-5.4,6.4-9.7h-2.3v-9.9
			c-0.3,0.3-0.6,0.5-0.8,0.7c-0.3-0.4-0.9-1.1-1.5-1.7v3.8h-3.8v0.6c0.9,0.9,3.7,4.2,4.3,5l-2.5,3.5c-0.4-0.9-1.1-2.4-1.8-3.7v14.6
			h-4V50.1c-1,3-2.3,5.9-3.6,7.9c-0.4-1.3-1.4-3.2-2-4.3c1.7-2.4,3.4-6.4,4.5-9.9h-4v-4.1h5.1v-4.5c-1.2,0.2-2.4,0.4-3.6,0.6
			c-0.2-1-0.7-2.4-1.2-3.4c3.8-0.6,8-1.8,10.7-3l2.6,3.6c-1.4,0.6-2.9,1-4.5,1.4v5.3h3.5c-0.5-0.5-0.9-0.9-1.3-1.2
			c2.8-2,5.6-5.4,7.2-8.6l4.1,1.3c-1.4,2.8-3.4,5.7-5.5,8h13.1c-1.7-2.4-4.1-5.4-6.2-7.7l3.1-2.1c2.8,2.9,6.3,6.9,7.8,9.6l-3.3,2.4
			c-0.1-0.3-0.3-0.6-0.6-1v10.5h-3v7.4c0,1.1,0.1,1.2,0.6,1.2H475.4z M465,47.1h7.1V43H465V47.1z"/>
		<path class="st3" d="M499.7,59.4c0,1.9-0.4,2.9-1.6,3.5c-1.2,0.6-2.9,0.7-5.1,0.7c-0.2-1.1-0.8-2.7-1.4-3.7c1.4,0.1,2.8,0.1,3.3,0
			c0.4,0,0.6-0.1,0.6-0.6v-3.3h-6.5c-0.4,2.8-1.3,5.6-2.7,7.7c-0.7-0.7-2.4-2-3.3-2.5c2.3-3.3,2.5-8,2.5-11.6v-8.5h14.3V59.4z
			 M516.5,34.7v4H483v-4h7.9c-0.7-1.3-1.7-2.8-2.8-4.1l4.2-1.4c1.3,1.4,2.8,3.4,3.4,4.8l-2,0.7H504c1.1-1.7,2.3-3.9,3-5.6l4.8,1.4
			c-0.9,1.4-1.9,2.9-2.8,4.2H516.5z M495.4,52.9v-2.4h-6.1c0,0.8,0,1.6-0.1,2.4H495.4z M489.4,44.7v2.5h6.1v-2.5H489.4z M506.9,56.7
			h-4V41.6h4V56.7z M510.2,40.6h4.3v18.4c0,2.2-0.4,3.3-1.9,4c-1.4,0.7-3.4,0.8-6.1,0.7c-0.2-1.2-0.9-3-1.6-4.1
			c1.9,0.1,3.8,0.1,4.4,0c0.6,0,0.8-0.1,0.8-0.7V40.6z"/>
		<path class="st3" d="M531.3,46.2c1.8,1.4,5.5,4.5,6.5,5.3l-2.6,3.8c-0.9-1.1-2.4-2.8-3.9-4.3v12.8H527V50.5
			c-1.7,3.4-3.6,6.5-5.7,8.7c-0.4-1.3-1.5-3.2-2.2-4.3c2.7-2.6,5.4-6.8,7-10.6H520v-4h7v-4.6c-2.1,0.4-4.2,0.7-6.2,1
			c-0.2-1-0.7-2.5-1.3-3.4c5.3-0.8,11.3-2.2,14.9-3.8l3.1,3.4c-1.8,0.7-4,1.4-6.2,1.9v5.5h6.4v4h-6.4V46.2z M543.7,54.4h-4.3V33.7
			h4.3V54.4z M552.4,29.9v28.5c0,2.5-0.5,3.8-2,4.5c-1.5,0.7-4,0.9-7.4,0.9c-0.2-1.3-0.8-3.3-1.5-4.5c2.4,0.1,4.8,0.1,5.5,0.1
			c0.7,0,1-0.3,1-0.9V29.9H552.4z"/>
		<path class="st3" d="M562.1,46.1c-1.2-1.1-3.7-2.6-5.8-3.5l2.4-3.2c2,0.8,4.7,2.1,5.9,3.2L562.1,46.1z M556.7,61.1
			c1.4-2.8,3.4-7.5,4.8-11.9l3.5,2.3c-1.3,4-2.8,8.2-4.4,11.8L556.7,61.1z M560,29.5c2,0.9,4.6,2.3,5.9,3.4l-2.6,3.5
			c-1.2-1.2-3.7-2.8-5.8-3.7L560,29.5z M570.1,43.9v19.9h-3.9V30.7h10.7v13.2H570.1z M570.1,33.9v1.8h3.3v-1.8H570.1z M573.3,40.6
			v-1.9h-3.3v1.9H573.3z M584.6,59.7h-13.3v-3.2h4.7V54h-3.6v-3.1h3.6v-2.1h-4.2v-3.2H584v3.2h-4.4v2.1h3.7V54h-3.7v2.5h5V59.7z
			 M589.7,59.3c0,2-0.3,3.1-1.5,3.7c-1.2,0.7-2.7,0.8-5.2,0.8c-0.1-1.1-0.5-2.9-1.1-4c1.3,0.1,2.7,0,3.1,0s0.6-0.1,0.6-0.6V43.9
			h-7.1V30.7h11.1V59.3z M582.3,33.9v1.8h3.4v-1.8H582.3z M585.7,40.6v-1.9h-3.4v1.9H585.7z"/>
		<path class="st3" d="M616.1,51.1c-0.1-0.5-0.4-1.1-0.7-1.8c-8.8,0.9-10.2,1.1-11.2,1.5c-0.2-0.7-0.7-2.5-1.2-3.5
			c-2.4,1.3-5,2.6-7.2,3.7l-2.1-3.5c2.3-0.8,5.8-2.3,9.2-3.7l0.8,3.2l-0.7,0.4c0.9-0.2,1.8-0.8,3.1-1.9c0.6-0.4,1.6-1.3,2.9-2.6
			c-2.8,0.2-3.7,0.4-4.2,0.6c-0.2-0.8-0.8-2.5-1.2-3.4c0.6-0.1,1.1-0.6,1.7-1.3c0.3-0.4,1.1-1.4,2-2.6h-12.6v-4h13.7
			c-0.4-0.7-0.9-1.5-1.3-2.1l4.5-1c0.7,0.9,1.5,2.1,2,3.1H627v4h-15.3c-0.8,1.1-1.6,2.3-2.5,3.3l3.4-0.1c0.8-1,1.7-2,2.4-3l3.4,2
			c-2.5,3-5.5,5.8-8.4,8.2l3.9-0.3c-0.4-0.7-0.8-1.3-1.3-1.8l3.2-1.1c0.6,0.7,1.2,1.6,1.7,2.4l2.4-2c2.4,1.3,5.7,3.3,7.4,4.7
			l-3.2,2.7c-1.3-1.2-3.7-3-5.9-4.3c0.6,1.1,1.1,2.1,1.4,3L616.1,51.1z M627.5,57H613v6.7h-4.7V57h-14.5v-4.1h14.5v-2.5h4.7v2.5
			h14.5V57z M600.3,43.5c-1.1-1.2-3.5-3-5.4-4.2l2.9-2.3c1.9,1,4.4,2.7,5.7,3.9L600.3,43.5z M617.6,41.4c1.5-1.1,3.6-3.1,4.7-4.6
			L626,39c-1.6,1.7-3.6,3.4-5.1,4.5L617.6,41.4z"/>
	</g>
</g>
<path class="st4" d="M686.3,343.3c0,0-17.7,1.6-22.7,2.9s-8.3,2.8-12.8,2.9c-4.4,0.1-8.5-0.5-13.1,2.3c-4.7,2.8-19.7,15-24.5,15.7
	c-4.8,0.6-7.3,2.9-14.4-3.5s-17.6-21.6-22.9-23.2c-5.3-1.6-9-6.7-17.4-3.5c-8.5,3.2-10.7,5.7-14.8,6.1c-4,0.4-16.2-1.9-24.6-5.7
	c-8.5-3.8-10.5-6.9-22.6-7.1c-12.1-0.1-19.3,7.6-24.4,11.2c-5.1,3.6-13.6,17.6-19.8,19.6c-6.2,2-6.9,4.5-15.7-4.4
	c-8.7-9-14.4-20.6-21.9-19.7c-7.5,0.9-4.8,1.9-9.3,1c-4.5-0.9-14.3-5.7-22.1-5.8s-5.1,1.3-14.4,4.7c-9.3,3.4-21.6,6.1-29.3,6.2
	s-12.6,6.2-16.2,8.6c-3.5,2.4-11.2,6.1-22.7,7.2c-11.5,1.1-15.4-0.4-26.9,0.4c-11.5,0.8-12.8,5.3-31.6-7.6s-30.7-2.9-32.5-2.4
	c-1.8,0.5-11,12.7-21.6,7.6c-10.6-5.2-13.9-14.7-25.1-13.6c-11.2,1-42.6,0.3-51.5,3.2s-11,5.7-11,5.7"/>
<g>
	<g>
		<line class="st4" x1="100.4" y1="354.7" x2="104.4" y2="354.7"/>
		<line class="st5" x1="114.3" y1="354.7" x2="680.4" y2="354.7"/>
		<line class="st4" x1="685.3" y1="354.7" x2="689.3" y2="354.7"/>
	</g>
</g>
<path class="st6" d="M100.4,324.1c0,0,3.8-11.1,11.4-8.1c7.6,3,12.1,14.2,15.7,15.2c3.5,1,7.6,6.1,13.6,0c6.1-6.1,5.9-12.5,6.3-13.5
	c0.4-0.9,3-8,8.1-8.5s10.2,2.1,13.8,5.3c3.6,3.2,7.6,8.3,13.8,7.2c6.3-1.1,8.7-3.8,14-8.1c5.3-4.4,19.5-15.3,23.5-13.5
	c4,1.9,8.5,8.9,8.5,14.8c0,5.9,11.4,42.3,14,69.7c2.7,27.5,7.6,70.7,9.5,77c1.9,6.3,2.5,23.6,8.3,16.4c5.9-7.2,9.3-15.5,11.7-27.7
	s7.8-45.1,12.9-54.4s26.9-50.9,27.7-54.7c0.8-3.8,9.1-32,21.2-38.5s22.7-11.4,35.1-6.4c12.3,4.9,14.2,10.8,25.2,0
	c11-10.8,22.7-22.7,24.1-23.3c1.3-0.6,2.1-4.2,16.3,2.3c14.2,6.4,14-13.6,17.8-17.2c3.8-3.6,11.4-46.6,20.7-55.3s11.2-8.9,19.1-9.9
	c8-0.9,12.1-7.2,21-5.9c8.9,1.3,14.8,8.3,19.5,10.4c4.7,2.1,10.8,0.4,17.2-4.9c6.4-5.3,11.9-6.3,15.7-9.1
	c3.8-2.8,11.4-9.3,16.9-11.7c5.5-2.5,9.3-5.1,18.9,4.7s11,16.1,22.5,12.7c11.6-3.4,16.9-13.1,26.1-19.7c9.3-6.6,12.3-11.9,21.8-12.9
	c9.5-0.9,12.9,3,14.8,5.5"/>
<g>
	<g>
		<line class="st6" x1="501.9" y1="184" x2="666.6" y2="140.9"/>
		<g>
			<polygon class="st2" points="666.1,156.5 687.4,135.5 658.6,127.6 			"/>
		</g>
	</g>
</g>
<g>
	<path class="st7" d="M415.9,388.9c-0.1,1.4-0.5,2.8-1.4,3.9c2.2,1,5.1,1.2,8.8,1.2c-0.4,0.5-0.8,1.5-1,2.2c-3.9-0.2-7-0.6-9.5-1.9
		c-1.2,0.9-2.9,1.6-5.3,2.1c-0.3-0.5-0.8-1.4-1.3-1.9c2.1-0.4,3.6-0.9,4.6-1.5c-1-0.9-1.8-1.9-2.5-3.3l2-0.7c0.6,1.1,1.3,2,2.2,2.6
		c0.6-0.9,0.9-1.8,1-2.8h-5.9v-6.6h5.9v-2.5h2.2v2.5h6v6.6H415.9z M409.9,386.8h3.8v-2.5h-3.8V386.8z M415.9,384.3v2.5h3.7v-2.5
		H415.9z"/>
	<path class="st7" d="M430.7,392.1c-1.9,0.8-4,1.6-5.7,2.3l-0.7-2.2c0.6-0.2,1.4-0.4,2.2-0.7V386h-1.9v-2h1.9v-4h2.1v4h1.9v2h-1.9
		v4.8c0.6-0.2,1.2-0.4,1.7-0.6L430.7,392.1z M441,393.9v2h-10.9v-2H441z M440.1,392.1h-9v-11.3h9V392.1z M437.8,382.8h-4.6v2.7h4.6
		V382.8z M437.8,387.4h-4.6v2.7h4.6V387.4z"/>
	<path class="st7" d="M459,386.4v1.7h-16.4v-1.7h2.7c-0.2-0.7-0.6-1.7-1.1-2.4l1.4-0.5h-2v-1.7h3.1c-0.3-0.5-0.6-1-0.9-1.4l1.9-0.7
		c0.5,0.5,1,1.3,1.2,1.8l-0.8,0.3h4.4c0.4-0.6,0.9-1.5,1.2-2.1l2.1,0.6c-0.3,0.5-0.6,1-1,1.5h3.2v1.7h-2.3l1.5,0.4
		c-0.5,0.9-0.9,1.8-1.3,2.5H459z M444.8,388.9h11.9v7.5h-2.2v-0.5h-7.7v0.5h-2.1V388.9z M446,383.4c0.5,0.7,1,1.7,1.2,2.3l-1.4,0.6
		h2.3v-2.9H446z M446.9,390.5v1.1h7.7v-1.1H446.9z M454.6,394.3v-1.1h-7.7v1.1H454.6z M451.5,383.4H450v2.9h1.5V383.4z M454.2,385.9
		c0.4-0.7,0.8-1.7,1-2.5h-1.8v2.9h2.1L454.2,385.9z"/>
	<path class="st7" d="M460.3,393.3l1.2-1.7c0.8,0.7,1.7,1.4,2.9,1.4c1.4,0,2.4-0.9,2.4-2.4c0-1.5-0.9-2.4-2.3-2.4
		c-0.8,0-1.2,0.2-2,0.7l-1.2-0.8l0.4-6.5h7.1v2.2H464l-0.3,2.8c0.5-0.3,1-0.4,1.6-0.4c2.2,0,4.1,1.3,4.1,4.2c0,3-2.2,4.7-4.7,4.7
		C462.6,395.2,461.2,394.3,460.3,393.3z"/>
	<path class="st7" d="M471.2,388.2c0-4.6,1.8-6.9,4.5-6.9c2.7,0,4.5,2.3,4.5,6.9c0,4.6-1.8,7-4.5,7
		C473,395.2,471.2,392.8,471.2,388.2z M477.7,388.2c0-3.7-0.9-4.8-2-4.8c-1.2,0-2,1.1-2,4.8c0,3.7,0.9,4.9,2,4.9
		C476.8,393.1,477.7,391.9,477.7,388.2z"/>
	<path class="st7" d="M481.8,388.2c0-4.6,1.8-6.9,4.5-6.9c2.7,0,4.5,2.3,4.5,6.9c0,4.6-1.8,7-4.5,7
		C483.6,395.2,481.8,392.8,481.8,388.2z M488.3,388.2c0-3.7-0.9-4.8-2-4.8c-1.2,0-2,1.1-2,4.8c0,3.7,0.9,4.9,2,4.9
		C487.4,393.1,488.3,391.9,488.3,388.2z"/>
	<path class="st7" d="M502.2,380.4c-0.1,0.2-0.3,0.3-0.4,0.5c2.4,2.5,4.9,3.7,7.4,4.6c-0.5,0.5-1.1,1.2-1.4,1.9
		c-2.5-1.1-4.9-2.4-7.3-5c-2,2.1-4.6,3.8-7.2,5c-0.3-0.6-0.9-1.3-1.5-1.8c3.2-1.3,6.5-3.4,8.3-6.1L502.2,380.4z M501.8,394.1h6.4
		v1.9H493v-1.9h1.9v-6.3h2.1v6.3h2.5v-9.2h2.3v3.7h4.8v1.9h-4.8V394.1z"/>
	<path class="st7" d="M517.1,393.7c-1.2,1-3.4,2-5.2,2.4c-0.3-0.5-0.8-1.2-1.3-1.5c1.8-0.3,3.9-0.9,5-1.5L517.1,393.7z M526.6,390.6
		v1.8h-7v4.1h-2.1v-4.1h-6.9v-1.8h6.9v-0.8h-5.2v-1.5h5.2v-0.8h-6.1v-1.6h3.3c-0.2-0.4-0.4-0.9-0.7-1.3l1.2-0.3h-4.6v-1.7h2.4
		c-0.3-0.7-0.7-1.5-1.2-2.2l1.8-0.6c0.5,0.8,1.1,1.8,1.4,2.5l-0.9,0.3h1.7v-2.9h2v2.9h1.4v-2.9h2v2.9h1.6l-0.6-0.2
		c0.4-0.7,0.9-1.8,1.2-2.6l2.3,0.5c-0.5,0.8-1,1.6-1.4,2.3h2.3v1.7h-4.8l1.7,0.4c-0.4,0.4-0.8,0.8-1.1,1.2h3.5v1.6h-6.2v0.8h5.4v1.5
		h-5.4v0.8H526.6z M516.2,384.3c0.3,0.5,0.6,1,0.7,1.4l-1,0.2h4.9l-0.6-0.2c0.3-0.4,0.7-1,0.9-1.4H516.2z M521.9,392.9
		c1.5,0.5,3.6,1.4,4.7,2l-1.5,1.2c-1-0.6-3.2-1.5-4.7-2.2L521.9,392.9z"/>
	<path class="st7" d="M539.1,385.5c1.9,1.4,4.7,3.5,6,4.9l-1.8,1.6c-1.1-1.3-3.6-3.4-5.5-4.9v9.3h-2.3v-8.8
		c-1.6,1.7-3.6,3.3-5.7,4.4c-0.3-0.6-1-1.5-1.5-1.9c3.3-1.5,6.1-4.3,7.8-7.1h-7.2v-2.2h15.6v2.2h-5.6c-0.3,0.6-0.7,1.1-1,1.7v1.9
		L539.1,385.5z"/>
	<path class="st7" d="M556.3,380.6c-0.1,0.1-0.3,0.3-0.4,0.4c1.7,1.4,4.7,2.7,7.3,3.4c-0.5,0.4-1.1,1.3-1.5,1.9
		c-1.4-0.5-2.9-1.1-4.3-2v1.1h-6.2v-0.8c-1.2,0.7-2.5,1.3-3.7,1.7c-0.3-0.6-0.9-1.4-1.5-1.9c3-1,6.5-2.7,8.4-4.8L556.3,380.6z
		 M560.2,386.6c-0.6,1.1-1.3,2.3-2,3.4h2.2v6.5h-2.2v-0.6h-7.2v0.6H549V390h6.7c0.4-0.6,0.8-1.4,1.2-2h-8.4v-1.9h9.7l0.4-0.1
		L560.2,386.6z M558.3,391.8h-7.2v2.3h7.2V391.8z M556.4,383.6c-0.6-0.4-1.2-0.9-1.8-1.4c-0.6,0.5-1.2,0.9-1.9,1.4H556.4z"/>
	<path class="st7" d="M573.7,386.8v1.9h5.7v1.9h-2.8l1.8,0.6c-0.6,1-1.3,2.1-1.9,2.9h3.9v2h-15.6v-2h3.5c-0.3-0.8-0.9-2-1.5-2.9
		l1.4-0.6h-2.6v-1.9h5.7v-1.9h-3.7v-0.9c-0.8,0.4-1.5,0.7-2.3,1c-0.3-0.6-0.9-1.4-1.4-2c3.4-1,6.6-2.8,8.3-5.5l2,0.9
		c-0.2,0.2-0.3,0.5-0.5,0.7c1.8,1.6,4.7,3.1,7.4,3.8c-0.5,0.5-1.2,1.3-1.5,1.9c-0.8-0.3-1.6-0.6-2.4-1v1.1H573.7z M568.7,390.6
		c0.6,0.9,1.3,2.1,1.6,2.9l-1.5,0.6h2.6v-3.5H568.7z M575.8,384.9c-1.1-0.7-2.2-1.5-3.1-2.3c-0.9,0.9-1.9,1.7-2.9,2.3H575.8z
		 M573.7,390.6v3.5h2.3l-1.2-0.5c0.6-0.8,1.2-2.1,1.6-3H573.7z"/>
	<path class="st7" d="M582.3,380.3h8.9v1.8h-8.9V380.3z M590.9,394.4c0,0.8-0.1,1.2-0.6,1.5c-0.5,0.3-1.1,0.3-2,0.3
		c-0.1-0.5-0.3-1.1-0.5-1.6c0.5,0,1,0,1.1,0c0.2,0,0.2-0.1,0.2-0.2v-5.5h-5v7.6h-1.6v-9.1h8.3V394.4z M590.4,386.7h-7.2v-3.9h7.2
		V386.7z M585.5,391.5c-0.1-0.5-0.5-1.3-0.8-1.9l1.1-0.4c0.4,0.6,0.8,1.4,0.9,1.9L585.5,391.5z M587.5,392.8v3H586v-3h-1.3v-1.3h2
		c0.3-0.7,0.8-1.7,1-2.4l1.3,0.5c-0.3,0.6-0.7,1.3-1,1.9h0.8v1.3H587.5z M588.5,384.2H585v1h3.5V384.2z M597.5,396.5
		c-0.1-0.4-0.1-0.9-0.2-1.4c-1.9,0.4-3.9,0.7-5.5,1l-0.5-1.9c0.8-0.1,1.7-0.2,2.7-0.4v-3.3h-2.4v-7.4h2.4v-3.1h1.9v3.1h2.4v7.4h-2.4
		v3l1-0.2c-0.2-0.6-0.3-1.3-0.5-1.8l1.4-0.3c0.5,1.6,1.1,3.7,1.2,4.9L597.5,396.5z M593.1,388.6h1.1v-3.7h-1.1V388.6z M596.7,384.9
		h-1v3.7h1V384.9z"/>
	<path class="st7" d="M616.2,386c-0.7,2.8-1.9,5-3.5,6.6c1.3,0.8,2.7,1.4,4.4,1.8c-0.5,0.5-1.2,1.4-1.5,2c-1.8-0.5-3.4-1.3-4.7-2.3
		c-1.5,1.1-3.3,1.9-5.3,2.5c-0.3-0.6-0.8-1.5-1.2-2c1.8-0.4,3.5-1.1,4.9-2.1c-1.2-1.4-2.2-3.1-2.9-5.1H606c-0.4,2.9-1.5,6.2-4.4,8.7
		c-0.3-0.6-1.1-1.4-1.5-1.9c3.6-3,3.9-7.6,3.9-10.5v-1.4h-2.8v-2.1h11.4c-0.3,1.7-0.7,3.6-1,5.1h2.7l0.4-0.1L616.2,386z
		 M606.3,383.9c0,0.5,0,1,0,1.6h2.9c0.3-0.9,0.5-1.9,0.7-3h-3.6V383.9z M608.4,387.5c0.6,1.4,1.4,2.7,2.5,3.7c1-1,1.8-2.3,2.4-3.7
		H608.4z"/>
	<path class="st7" d="M624.1,391.1c-0.2-0.5-0.6-1.3-1.1-2v7.3H621V390c-0.6,1.4-1.3,2.7-2,3.6c-0.2-0.6-0.7-1.5-1-2
		c1-1.2,2-3.1,2.7-4.8h-2.4v-2h2.7v-2c-0.7,0.1-1.4,0.2-2,0.3c-0.1-0.5-0.3-1.2-0.6-1.7c2.1-0.3,4.3-0.9,5.8-1.5l1.2,1.7
		c-0.7,0.3-1.5,0.5-2.3,0.7v2.5h2.4v2H623v0.1c0.5,0.5,2,2.2,2.3,2.6L624.1,391.1z M633,391.9v4.5h-2.1v-4.2l-5.4,0.9l-0.3-2l5.8-1
		v-10.6h2.1v10.2l1.8-0.3l0.3,2L633,391.9z M628.5,389.4c-0.6-0.8-1.8-1.9-2.9-2.8l1.4-1.2c1,0.7,2.4,1.8,3,2.6L628.5,389.4z
		 M628.9,384.7c-0.5-0.8-1.7-1.9-2.7-2.7l1.4-1.2c1,0.7,2.2,1.8,2.8,2.6L628.9,384.7z"/>
	<path class="st7" d="M642.5,389.3c-0.6,0.2-1.3,0.4-1.9,0.5v4.3c0,1-0.2,1.5-0.8,1.9c-0.6,0.3-1.5,0.4-2.7,0.4
		c-0.1-0.5-0.4-1.4-0.6-1.9c0.7,0,1.4,0,1.7,0c0.3,0,0.3-0.1,0.3-0.4v-3.7l-1.7,0.4l-0.6-2c0.7-0.1,1.4-0.3,2.3-0.5v-3.2h-2.1v-2
		h2.1v-3.4h2.1v3.4h1.8v2h-1.8v2.7l1.7-0.4L642.5,389.3z M652.4,386.8c-0.7,2.5-1.8,4.5-3.3,6c1.2,0.8,2.6,1.4,4.2,1.8
		c-0.5,0.4-1.1,1.3-1.4,1.9c-1.7-0.5-3.2-1.3-4.5-2.3c-1.4,1-3,1.7-4.7,2.2c-0.2-0.6-0.8-1.5-1.2-1.9c1.6-0.4,3-1,4.3-1.8
		c-1.1-1.2-1.9-2.6-2.6-4.3l0.5-0.2h-0.9v-1.9h3.5v-2.2h-3.9v-2h3.9v-2.6h2.1v2.6h4v2h-4v2.2h2.2l0.4-0.1L652.4,386.8z M645.3,388.3
		c0.5,1.2,1.2,2.3,2.1,3.2c0.9-0.9,1.7-2,2.3-3.2H645.3z"/>
	<path class="st7" d="M657.9,389.1h-3.6v-1.9h3.6v-3.8h2v3.8h3.6v1.9h-3.6v3.8h-2V389.1z"/>
</g>
<polygon class="st7" points="391,380.1 380.9,397.6 401.1,397.6 "/>
<g>
	<path class="st2" d="M247.7,205.1c-0.2-0.5-0.6-1.3-1.1-2v7.3h-2.1V204c-0.6,1.4-1.3,2.7-2,3.6c-0.2-0.6-0.7-1.5-1-2
		c1-1.2,2-3.1,2.7-4.8h-2.4v-2h2.7v-2c-0.7,0.1-1.4,0.2-2,0.3c-0.1-0.5-0.3-1.2-0.6-1.7c2.1-0.3,4.3-0.9,5.8-1.5l1.2,1.7
		c-0.7,0.3-1.5,0.5-2.3,0.7v2.5h2.4v2h-2.4v0.1c0.5,0.5,2,2.2,2.3,2.6L247.7,205.1z M256.6,205.9v4.5h-2.1v-4.2l-5.4,0.9l-0.3-2
		l5.8-1v-10.6h2.1v10.2l1.8-0.3l0.3,2L256.6,205.9z M252,203.4c-0.6-0.8-1.8-1.9-2.9-2.8l1.4-1.2c1,0.7,2.4,1.8,3,2.6L252,203.4z
		 M252.5,198.6c-0.5-0.8-1.7-1.9-2.7-2.7l1.4-1.2c1,0.7,2.2,1.8,2.8,2.6L252.5,198.6z"/>
	<path class="st2" d="M267.8,203.3c-0.6,0.2-1.3,0.4-1.9,0.5v4.3c0,1-0.2,1.5-0.8,1.9c-0.6,0.3-1.5,0.4-2.7,0.4
		c-0.1-0.5-0.4-1.4-0.6-1.9c0.7,0,1.4,0,1.7,0c0.3,0,0.3-0.1,0.3-0.4v-3.7l-1.7,0.4l-0.6-2c0.7-0.1,1.4-0.3,2.3-0.5V199h-2.1v-2h2.1
		v-3.4h2.1v3.4h1.8v2h-1.8v2.7l1.7-0.4L267.8,203.3z M277.8,200.8c-0.7,2.5-1.8,4.5-3.3,6c1.2,0.8,2.6,1.4,4.2,1.8
		c-0.4,0.4-1.1,1.3-1.4,1.9c-1.7-0.5-3.2-1.3-4.5-2.3c-1.4,1-3,1.7-4.7,2.2c-0.2-0.6-0.8-1.5-1.2-1.9c1.6-0.4,3-1,4.3-1.8
		c-1.1-1.2-1.9-2.6-2.6-4.3l0.5-0.2h-0.9v-1.9h3.5v-2.2h-3.9v-2h3.9v-2.6h2.1v2.6h4v2h-4v2.2h2.2l0.4-0.1L277.8,200.8z M270.7,202.3
		c0.5,1.2,1.2,2.3,2.1,3.2c0.9-0.9,1.7-2,2.3-3.2H270.7z"/>
	<path class="st2" d="M285.1,203.1h-3.6v-1.9h3.6v-3.8h2v3.8h3.6v1.9h-3.6v3.8h-2V203.1z"/>
	<path class="st2" d="M295.9,205.7c-0.1,1.6-0.4,3.3-0.8,4.4c-0.3-0.2-1.1-0.4-1.5-0.5c0.4-1.1,0.6-2.7,0.7-4.1L295.9,205.7z
		 M310.2,208.4c0,1-0.2,1.4-0.7,1.7s-1.4,0.4-2.5,0.4c-0.1-0.5-0.3-1.3-0.5-1.8c0.6,0,1.3,0,1.5,0c0.2,0,0.3-0.1,0.3-0.3v-12.1h-5.8
		v14.2h-1.9v-6.4l-1.4,0.6c-0.1-0.2-0.1-0.5-0.2-0.8c-3.5,0.6-4.1,0.8-4.5,0.9c-0.1-0.3-0.4-1.2-0.6-1.7c0.5-0.1,0.8-0.5,1.4-1.2
		c0.2-0.3,0.6-0.8,1.2-1.6c-1.4,0.2-1.8,0.3-2,0.4c-0.1-0.4-0.4-1.2-0.6-1.7c0.3-0.1,0.6-0.4,1-1c0.4-0.5,1.4-2.5,2.1-4.4l1.7,0.7
		c-0.6,1.5-1.5,3.1-2.4,4.4l1.3-0.1c0.5-0.8,0.9-1.7,1.3-2.5l1.5,1c-1,1.9-2.3,4-3.7,5.6l2-0.3c-0.1-0.4-0.3-0.9-0.4-1.2l1.4-0.5
		c0.4,1,0.9,2.4,1.1,3.2v-9.6h9.6V208.4z M297.7,205.3c0.2,1.2,0.4,2.7,0.5,3.7l-1.5,0.4c0-1-0.2-2.6-0.4-3.8L297.7,205.3z
		 M299.5,204.8c0.4,1.1,0.8,2.5,1,3.4l-1.4,0.5c-0.2-0.9-0.6-2.4-0.9-3.5L299.5,204.8z M306.7,205.7c0.3,0,0.8,0,1-0.1
		c0,0.4,0.1,1,0.1,1.4c-0.3,0.1-0.7,0.1-1.1,0.1h-1.5c-1.5,0-1.8-0.6-1.8-2v-1.1h-0.5v-1.6h1.8c-0.1-0.4-0.3-0.8-0.5-1.2l1.1-0.3
		h-2.5v-1.6h1c-0.1-0.7-0.4-1.6-0.7-2.3l1.2-0.4c0.4,0.7,0.7,1.7,0.8,2.4l-1,0.4h1.6c0.2-0.8,0.5-1.9,0.6-2.7l1.4,0.4
		c-0.3,0.8-0.5,1.6-0.7,2.3h0.9v1.6h-2.1c0.2,0.4,0.5,0.9,0.5,1.2l-0.7,0.3h2.2v1.6h-2.7v1.1c0,0.4,0.1,0.6,0.3,0.6H306.7z"/>
	<path class="st2" d="M329.4,195.9c-0.6,1.9-1.4,3.5-2.5,4.8c1,0.8,2.3,1.5,3.7,2c-0.4,0.4-1,1.2-1.3,1.8l0,0v5.9h-2.1v-0.6h-3.4
		v0.6h-2v-5.9l-0.4,0.2c-0.1-0.3-0.4-0.7-0.7-1v0.5h-2v2.4l2.1-0.5l0.2,1.9c-2.5,0.6-5.3,1.3-7.3,1.7l-0.4-2.1l0.8-0.1v-6h1.7v5.7
		l0.9-0.2v-6.8h-2.5v-6h6.2v4.5c1.3-1.3,2.4-3.2,3-5.1l2,0.5c-0.1,0.4-0.3,0.8-0.5,1.2h2.5l0.4-0.1L329.4,195.9z M316.3,198.4h2.4
		v-2.3h-2.4L316.3,198.4z M320.8,202.9c1.2-0.5,2.4-1.3,3.4-2.3c-0.4-0.5-0.8-1.1-1.1-1.6c-0.3,0.5-0.7,0.9-1.1,1.2
		c-0.3-0.3-1-0.9-1.4-1.2v1.2h-1.8v2.1h2V202.9z M327.8,203.8c-0.8-0.5-1.6-1-2.3-1.6c-0.7,0.6-1.4,1.2-2.2,1.6H327.8z M327.2,208
		v-2.4h-3.4v2.4H327.2z M324.3,197.2l-0.1,0.3c0.4,0.6,0.8,1.2,1.3,1.9c0.5-0.7,1-1.4,1.3-2.1H324.3z"/>
	<path class="st2" d="M343.5,201.2c-0.1,0.1-0.2,0.1-0.3,0.2c1.7,0.7,4.6,1.4,7.1,1.6c-0.4,0.4-1,1.2-1.3,1.7
		c-1.1-0.2-2.3-0.5-3.5-0.9v0.6h-7.7v-0.6c-1,0.4-2,0.7-2.9,0.9c-0.4-0.4-1.2-1.1-1.7-1.4c2.9-0.6,6-1.6,7.9-2.8h-0.5v-2.8h-4.9v2
		h-1.9v-3.3h6.8v-0.6h-5.6v-1.5h13.3v1.5h-5.6v0.6h6.9v3.3h-2v-2h-1l0.8,1.1c-0.8,0.3-1.9,0.5-2.7,0.7c1.2,0.3,2.5,0.7,3.3,1
		l-0.5,1.3c-1-0.4-3-1-4.4-1.4l0.5-1.1l0.1,0l-0.4-0.6c0.9-0.2,2.3-0.6,3.2-0.9h-3.7v2.8h-0.6L343.5,201.2z M335.3,200.3
		c1-0.2,2.3-0.5,3.7-0.7c-0.8-0.3-2.1-0.6-3-0.8l0.6-1.1c1.1,0.2,2.6,0.6,3.4,0.8l-0.4,0.9l0.4-0.1l0.1,1.2c-1.5,0.5-3,0.9-4.4,1.2
		L335.3,200.3z M346.1,204.9l1.4,0.8c-0.8,1-2,2.1-3.3,2.8c0.5,0.2,1,0.4,1.4,0.5l-0.9,1.5c-1.5-0.7-4.6-1.8-6.7-2.6l0.9-1.3
		c0.9,0.3,2.1,0.7,3.2,1c0.7-0.3,1.5-0.8,2.1-1.2h-8.6V205h10.3L346.1,204.9z M343.8,203.3c-0.8-0.3-1.5-0.7-2.1-1
		c-0.7,0.3-1.4,0.7-2.2,1H343.8z"/>
	<path class="st2" d="M369.1,202.2v1.6h-11.4v0.6h-2.1v-4.9c-0.4,0.4-0.8,0.8-1.1,1.1c-0.3-0.4-1-1.3-1.5-1.7c1.6-1.3,3.1-3.3,4-5.3
		l2,0.6c-0.2,0.4-0.4,0.8-0.6,1.2h3c-0.2-0.5-0.4-0.9-0.6-1.3l2-0.6c0.3,0.6,0.7,1.2,0.9,1.9h5v1.5h-5.1v0.8h4.2v1.4h-4.2v0.8h4.2
		v1.4h-4.2v0.9H369.1z M355.5,204.7H368v5.8h-2.2v-0.7h-8.2v0.7h-2.1V204.7z M357.6,206.4v1.7h8.2v-1.7H357.6z M361.4,197h-3.8v0.8
		h3.8V197z M361.4,199.1h-3.8v0.8h3.8V199.1z M357.6,202.2h3.8v-0.9h-3.8V202.2z"/>
	<path class="st2" d="M376.7,203.1h-3.6v-1.9h3.6v-3.8h2v3.8h3.6v1.9h-3.6v3.8h-2V203.1z"/>
	<path class="st2" d="M402,207.9v2.1h-16.4v-2.1h9.9c0.1-0.7,0.2-1.5,0.4-2.3h-8c0.7-2.4,1.5-6.2,2.1-9.2h-3.8v-2.1h15.3v2.1h-9.1
		c-0.2,0.8-0.3,1.5-0.5,2.4h5.2l0.4-0.1l1.6,0.2c-0.3,2.6-0.8,6.1-1.3,9H402z M396.3,203.6c0.1-1,0.3-2,0.4-2.8h-5.1
		c-0.2,1-0.4,2-0.6,2.8H396.3z"/>
	<path class="st2" d="M421.6,197.7c0,0,0,0.7,0,1c-0.2,7.4-0.3,10-0.9,10.8c-0.4,0.6-0.8,0.8-1.4,0.9c-0.5,0.1-1.4,0.1-2.2,0.1
		c0-0.6-0.3-1.5-0.6-2.1c0.8,0.1,1.5,0.1,1.8,0.1c0.3,0,0.5-0.1,0.6-0.3c0.4-0.5,0.6-2.7,0.7-8.5h-1.6c-0.2,4.8-1.1,8.5-4.1,10.9
		c-0.3-0.4-0.8-1-1.3-1.4c-2.6,0.3-5.2,0.5-7.1,0.7l-0.3-1.8c1-0.1,2.3-0.2,3.7-0.3v-1.1h-3.2v-1.5h3.2v-0.7h-3.1V199h3.1v-0.7h-3.5
		v-1.5h3.5V196c-1,0.1-2.1,0.1-3,0.1c-0.1-0.4-0.3-1.1-0.5-1.5c2.7-0.1,5.8-0.5,7.8-0.9l0.9,1.6c-1,0.2-2.1,0.4-3.2,0.5v0.9h3.5v1
		h1.7c0-1.2,0-2.4,0-3.8h2.1c0,1.3,0,2.6,0,3.8H421.6z M407.4,201.1h1.4v-0.8h-1.4V201.1z M408.8,203.2v-0.8h-1.4v0.8H408.8z
		 M410.8,207.7c1-0.1,2.1-0.2,3.1-0.3c1.4-1.9,1.8-4.5,2-7.7h-1.6v-1.4h-3.5v0.7h3.2v5.6h-3.2v0.7h3.3v1.5h-3.3V207.7z M412.2,201.1
		v-0.8h-1.4v0.8H412.2z M410.8,202.4v0.8h1.4v-0.8H410.8z"/>
	<path class="st2" d="M254.4,230.4v5.1h-2.1v-5.1h-4.1v-1.8h4.1v-1.1h-2.6v-5.2h-1.3v1.7l-0.7,0.1c-0.1,1.9-0.3,4.2-1.2,6.5
		c0.7,0.8,1.4,1.5,1.9,2.1l-1.3,1.6c-0.4-0.5-0.9-1.2-1.5-1.9c-0.6,1-1.5,2.1-2.6,3c-0.3-0.4-0.9-1-1.4-1.3c1.2-1,2-2,2.6-3.1
		c-0.8-0.8-1.6-1.6-2.3-2.3c0.3-1.2,0.6-2.6,0.9-4.2l-0.9,0.1l-0.2-1.9l1.4-0.1c0.2-1.3,0.3-2.5,0.4-3.7l1.8,0.1
		c-0.1,1.1-0.2,2.3-0.4,3.5l0.9-0.1v-1.1h1.8v1l0.7,0v-1.7h1.3v-1.9h1.9v1.9h3.2v-1.9h2v1.9h1.4v1.8h-1.4v5.2h-2.4v1.1h3.9v1.8
		H254.4z M244.6,224.3c-0.2,1.3-0.5,2.6-0.7,3.8c0.4,0.3,0.7,0.7,1.1,1.1c0.6-1.7,0.8-3.4,0.8-4.9L244.6,224.3z M251.9,231.3
		c-0.6,1.4-1.6,3-2.6,3.9c-0.3-0.5-0.9-1.1-1.4-1.5c1-0.6,2-1.9,2.5-3L251.9,231.3z M251.6,222.3v0.9h3.2v-0.9H251.6z M251.6,225.8
		h3.2v-1h-3.2V225.8z M256.3,230.7c0.8,1.1,1.8,2.6,2.3,3.5L257,235c-0.4-0.9-1.4-2.5-2.2-3.6L256.3,230.7z"/>
	<path class="st2" d="M268.2,227.1v6.5c0,0.8-0.1,1.2-0.6,1.5c-0.5,0.3-1.1,0.3-2.1,0.3c-0.1-0.5-0.3-1.1-0.5-1.6c0.5,0,1,0,1.2,0
		c0.2,0,0.2-0.1,0.2-0.2v-1.6c-0.6,0.4-1.2,0.8-1.7,1.1l-0.5-1c-0.1,1.2-0.4,2.5-1.1,3.5c-0.3-0.3-1.1-0.8-1.5-1
		c0.9-1.4,1-3.2,1-4.6v-2.8h-0.9v-2.8h0.7v-5.1h5.9v5.1h0.8v2.8H268.2z M267.4,225.8h-4.1v0.7h4.1V225.8z M264.1,224.3h0.7v-2.9h1.7
		v-0.7h-2.4V224.3z M264.3,229.9c0,0.5,0,1.1-0.1,1.7c0.6-0.3,1.4-0.6,2.2-1v-0.8l-0.7,0.8c-0.3-0.3-0.9-0.8-1.4-1.2V229.9z
		 M264.3,228.9l0.6-0.6c0.5,0.3,1.1,0.7,1.5,1.1v-1.5h-2.1V228.9z M266.5,224.3v-1.7h-0.7v1.7H266.5z M278.4,233.6v1.5h-9.5v-1.5
		h2.1c-0.1-0.5-0.3-0.9-0.5-1.3l1.1-0.3h-1.9v-3.5h7.8v3.5h-2.1l1.4,0.4c-0.3,0.5-0.5,0.9-0.8,1.3H278.4z M278.3,227.9h-9.2v-1.5
		h9.2V227.9z M277.9,225.7h-8.6v-5.8h2.1v-1.3h1.7v1.3h0.8v-1.3h1.7v1.3h2.3V225.7z M270.9,222.2h0.9v-0.8h-0.9V222.2z M270.9,224.3
		h0.9v-0.8h-0.9V224.3z M271.6,230.7h3.9v-0.9h-3.9V230.7z M272.2,232c0.2,0.5,0.5,1.2,0.6,1.7h1.5c0.2-0.5,0.5-1.2,0.6-1.7H272.2z
		 M274,222.2v-0.8h-0.9v0.8H274z M273.1,223.5v0.8h0.9v-0.8H273.1z M276.3,221.3h-1v0.8h1V221.3z M276.3,223.5h-1v0.8h1V223.5z"/>
	<path class="st2" d="M298.1,231.3H293c1.7,0.8,3.5,1.7,4.6,2.4l-1.4,1.6c-1.2-0.8-3.1-1.9-4.9-2.8l1-1.2h-5.3l1.5,1.2
		c-1.5,1-3.8,2.2-5.6,2.9c-0.3-0.5-0.8-1.2-1.2-1.6c1.6-0.6,3.7-1.6,4.9-2.5h-4.9v-2h1.6l-0.3-9.3c1.1-0.4,2.5-0.9,3.4-1.3l0.9,1.7
		c-0.8,0.3-1.6,0.5-2.4,0.7l0.1,1.6h2.1v1.7h-2l0.1,1.5h2v1.7H285l0.1,1.5h9.4c0-0.5,0.1-0.9,0.1-1.5h-1.8v-1.8h1.9
		c0-0.5,0-1,0.1-1.5h-1.8v-1.8h1.9c0-0.5,0-1,0-1.5h-2.1v-1.8h4c0,3.2-0.1,7.2-0.2,9.9h1.6V231.3z M289.5,225.5
		c-0.1,1.2-0.4,2.4-0.9,3.1c-0.3-0.2-1-0.6-1.4-0.8c0.5-0.7,0.6-1.6,0.7-2.5L289.5,225.5z M290.3,224.8h-2.7v-6h1.8v1.2h2.8v1.8
		h-2.8v1.3h2v0h0.7v4.6c0,0.7-0.1,1-0.6,1.3c-0.5,0.2-1.2,0.2-2.1,0.2c-0.1-0.4-0.3-0.9-0.5-1.3c0.5,0,1,0,1.2,0
		c0.2,0,0.2,0,0.2-0.2V224.8z"/>
	<path class="st2" d="M307.9,233.1c0,1-0.1,1.6-0.7,1.9c-0.6,0.3-1.3,0.4-2.5,0.4c-0.1-0.6-0.3-1.5-0.6-2.1c0.6,0,1.3,0,1.5,0
		c0.2,0,0.3-0.1,0.3-0.3v-3.6H304c-0.2,2.1-0.5,4.3-1.3,6c-0.4-0.3-1.3-0.8-1.7-1c1.1-2.4,1.2-6,1.2-8.7v-6.5h5.7V233.1z
		 M305.9,227.5v-2.2h-1.8v0.5c0,0.5,0,1.1,0,1.7H305.9z M304.2,221.3v2.1h1.8v-2.1H304.2z M317.7,225.9c-0.4,2.4-1.2,4.4-2.2,6
		c0.8,0.8,1.7,1.5,2.7,1.9c-0.4,0.4-1,1.2-1.3,1.7c-0.9-0.5-1.8-1.2-2.6-2c-0.7,0.8-1.5,1.4-2.4,1.9c-0.2-0.4-0.7-1-1.1-1.4v1.5h-2
		v-16.2h8.3v3.5c0,0.9-0.2,1.4-1,1.7c-0.7,0.3-1.7,0.3-3.1,0.3c-0.1-0.6-0.4-1.3-0.6-1.8c0.9,0.1,2,0.1,2.3,0s0.4-0.1,0.4-0.3v-1.4
		h-4.2v4.3h5.2l0.3-0.1L317.7,225.9z M310.9,233.8c0.8-0.5,1.5-1.1,2.2-1.8c-0.9-1.3-1.5-2.8-2.1-4.5h-0.1V233.8z M312.9,227.5
		c0.4,1,0.8,1.9,1.4,2.8c0.5-0.8,0.9-1.8,1.2-2.8H312.9z"/>
	<path class="st2" d="M336.5,222.2c-0.5,1-1.1,1.9-1.8,2.6c1,0.5,2.1,0.8,3.3,1.1c-0.5,0.4-1.1,1.3-1.4,1.8
		c-1.4-0.3-2.6-0.9-3.7-1.5c-1.1,0.6-2.3,1.1-3.7,1.5c-0.1-0.2-0.3-0.5-0.5-0.8c-0.3,1.1-0.6,2.2-0.9,3l-1.4-0.7
		c0.2-0.7,0.4-1.6,0.6-2.5h-1v6.3c0,1-0.1,1.5-0.8,1.9c-0.6,0.3-1.4,0.4-2.5,0.4c-0.1-0.6-0.3-1.5-0.6-2c0.7,0,1.4,0,1.6,0
		c0.2,0,0.3-0.1,0.3-0.3v-3.9c-0.6,1.3-1.4,2.5-2.3,3.3c-0.2-0.6-0.6-1.5-1-2.1c1-0.9,1.9-2.3,2.6-3.7h-2.3v-1.9h4.1
		c-1-0.6-2.4-1.3-3.5-1.7l1.4-1.4c0.4,0.2,0.9,0.4,1.4,0.6c0.4-0.3,0.8-0.7,1.1-1.1h-4.3v-1.8h5.8l0.3-0.1l1.4,0.9
		c-0.6,1-1.6,2.1-2.6,3c0.5,0.3,1,0.5,1.3,0.8l-0.9,0.9h0.9l0.3-0.1l1.3,0.4l-0.1,0.4c0.8-0.2,1.5-0.5,2.2-0.8
		c-0.5-0.5-0.9-1-1.3-1.5c-0.3,0.3-0.5,0.5-0.8,0.8c-0.4-0.3-1.2-0.9-1.7-1.2c1.4-1,2.7-2.6,3.4-4.3l2,0.5c-0.2,0.4-0.4,0.8-0.7,1.3
		h5.3v1.8H336.5z M337.3,228.7c0,0,0,0.6-0.1,0.8c-0.3,3.1-0.6,4.5-1.1,5.1c-0.4,0.4-0.8,0.6-1.3,0.6c-0.5,0.1-1.2,0.1-2,0
		c0-0.6-0.3-1.4-0.6-2c0.6,0.1,1.3,0.1,1.5,0.1c0.3,0,0.4,0,0.6-0.2c0.3-0.2,0.5-1,0.7-2.7h-2.1c-0.6,2.1-1.9,3.9-4.7,5
		c-0.2-0.5-0.8-1.3-1.2-1.7c2.2-0.8,3.2-1.9,3.8-3.3h-2.2v-1.8h2.6c0.1-0.5,0.1-1,0.2-1.6h2.1c-0.1,0.5-0.1,1.1-0.2,1.6H337.3z
		 M331.4,222.2c0.4,0.6,0.9,1.1,1.5,1.5c0.5-0.4,0.9-1,1.2-1.5H331.4z"/>
	<path class="st2" d="M344.5,228.1h-3.6v-1.9h3.6v-3.8h2v3.8h3.6v1.9h-3.6v3.8h-2V228.1z"/>
	<path class="st2" d="M369.8,232.9v2.1h-16.4v-2.1h9.9c0.1-0.7,0.2-1.5,0.4-2.3h-8c0.7-2.4,1.5-6.2,2.1-9.2H354v-2.1h15.3v2.1h-9.1
		c-0.2,0.8-0.3,1.5-0.5,2.4h5.2l0.4-0.1l1.6,0.2c-0.3,2.6-0.8,6.1-1.3,9H369.8z M364.1,228.6c0.1-1,0.3-2,0.4-2.8h-5.1
		c-0.2,1-0.4,2-0.6,2.8H364.1z"/>
	<path class="st2" d="M389.4,222.7c0,0,0,0.7,0,1c-0.2,7.4-0.3,10-0.9,10.8c-0.4,0.6-0.8,0.8-1.4,0.9c-0.5,0.1-1.4,0.1-2.2,0.1
		c0-0.6-0.3-1.5-0.6-2.1c0.8,0.1,1.5,0.1,1.8,0.1c0.3,0,0.5-0.1,0.6-0.3c0.4-0.5,0.6-2.7,0.7-8.5h-1.6c-0.2,4.8-1.1,8.5-4.1,10.9
		c-0.3-0.4-0.8-1-1.3-1.4c-2.6,0.3-5.2,0.5-7.1,0.7l-0.3-1.8c1-0.1,2.3-0.2,3.7-0.3v-1.1h-3.2v-1.5h3.2v-0.7h-3.1V224h3.1v-0.7h-3.5
		v-1.5h3.5V221c-1,0.1-2.1,0.1-3,0.1c-0.1-0.4-0.3-1.1-0.5-1.5c2.7-0.1,5.8-0.5,7.8-0.9l0.9,1.6c-1,0.2-2.1,0.4-3.2,0.5v0.9h3.5v1
		h1.7c0-1.2,0-2.4,0-3.8h2.1c0,1.3,0,2.6,0,3.8H389.4z M375.2,226.1h1.4v-0.8h-1.4V226.1z M376.6,228.2v-0.8h-1.4v0.8H376.6z
		 M378.6,232.7c1-0.1,2.1-0.2,3.1-0.3c1.4-1.9,1.8-4.5,2-7.7H382v-1.4h-3.5v0.7h3.2v5.6h-3.2v0.7h3.3v1.5h-3.3V232.7z M380,226.1
		v-0.8h-1.4v0.8H380z M378.6,227.4v0.8h1.4v-0.8H378.6z"/>
	<path class="st2" d="M398,234.2c-0.4-0.5-0.9-1.2-1.5-1.9c-0.6,1.1-1.5,2.1-2.6,3c-0.3-0.4-0.9-1-1.4-1.3c1.2-0.9,2-2,2.6-3.1
		c-0.8-0.8-1.6-1.6-2.3-2.3c0.3-1.1,0.6-2.6,0.9-4.2l-0.9,0.1l-0.2-1.9l1.4-0.1c0.2-1.3,0.3-2.5,0.4-3.7l1.8,0.1
		c-0.1,1.1-0.2,2.3-0.4,3.5l0.9,0v-1.1h1.8v1l0.6,0v1.8l-0.6,0.1c0,1.9-0.3,4.2-1.2,6.4c0.7,0.8,1.4,1.5,1.9,2.1L398,234.2z
		 M395.6,224.3c-0.2,1.4-0.5,2.6-0.7,3.8c0.4,0.3,0.7,0.7,1.1,1.1c0.6-1.7,0.8-3.4,0.8-4.9L395.6,224.3z M404.4,231
		c-0.6,2.1-1.9,3.5-4.7,4.5c-0.2-0.5-0.8-1.4-1.2-1.8c2.1-0.6,3.1-1.5,3.7-2.7h-3.1v-1.9h3.6c0.1-0.6,0.1-1.2,0.2-1.8h-3.3v-7h1.9
		v5.2h7.2v3.7h0.8v1.9H404.4z M408.2,224.7h-5.8v-5.3h5.8V224.7z M405.3,231.4c1.3,0.7,3.3,1.9,4.4,2.5l-1.2,1.6
		c-0.9-0.7-2.9-1.9-4.3-2.7L405.3,231.4z M406.3,220.9h-2.2v2.2h2.2V220.9z M405,227.3c0,0.6-0.1,1.3-0.1,1.8h2.1v-1.8H405z"/>
	<path class="st2" d="M419.3,231.5c-1.3,1.5-3.4,2.9-5.5,3.5c-0.3-0.5-1-1.4-1.4-1.8c2-0.4,4.1-1.3,5.2-2.3L419.3,231.5z
		 M416.9,227.9c0-0.2-0.1-0.5-0.1-0.7c-2.7,0.4-3.2,0.5-3.5,0.6c-0.1-0.3-0.4-1.1-0.6-1.5c0.4-0.1,0.7-0.4,1.2-1
		c0.2-0.2,0.6-0.7,1-1.3c-1.1,0.1-1.4,0.2-1.6,0.3c-0.1-0.3-0.4-1.1-0.6-1.5c0.3-0.1,0.5-0.3,0.8-0.7c0.3-0.4,1-1.8,1.4-3.2l1.7,0.6
		c-0.5,1-1.1,2.2-1.7,3.1l0.9-0.1c0.3-0.5,0.6-1,0.8-1.5l1.5,0.8c-0.8,1.5-2,3-3.1,4.2l1.4-0.1c-0.1-0.4-0.2-0.8-0.3-1.2l1.4-0.3
		c0.3,1,0.5,2.3,0.6,3.2L416.9,227.9z M422.1,230.3v5.1H420v-5.1h-7.1v-1.8h7.1v-0.9h2.1v0.9h7v1.8H422.1z M423.5,220.2v7.1h-5.1
		v-7.1h1.4c0.1-0.6,0.3-1.2,0.3-1.7l1.9,0.3l-0.6,1.4H423.5z M421.6,221.8h-1.4v1.2h1.4V221.8z M421.6,224.4h-1.4v1.3h1.4V224.4z
		 M424.3,230.6c1.6,0.8,3.7,2.1,4.8,2.9l-1.4,1.5c-1-0.9-3.1-2.2-4.7-3.1L424.3,230.6z M428.5,224.5c0.3,1,0.6,2.3,0.8,3.1l-1.4,0.4
		c0-0.2-0.1-0.5-0.1-0.7c-2.7,0.3-3.2,0.4-3.5,0.6c-0.1-0.3-0.4-1.2-0.6-1.6c0.4-0.1,0.7-0.4,1.2-0.9c0.2-0.2,0.6-0.7,1.1-1.4
		c-1.2,0.2-1.6,0.3-1.8,0.4c-0.1-0.4-0.4-1.2-0.6-1.6c0.3-0.1,0.5-0.3,0.7-0.7c0.3-0.4,1.1-1.8,1.5-3.2l1.7,0.5
		c-0.4,1.1-1.1,2.3-1.7,3.2l1.2-0.1c0.3-0.5,0.5-0.9,0.8-1.4l1.5,0.9c-0.9,1.5-2.1,3-3.2,4.2l1.4-0.1c-0.1-0.4-0.2-0.8-0.3-1.1
		L428.5,224.5z"/>
</g>
<polygon class="st2" points="454.7,225 437.2,214.9 437.2,235.1 "/>
<g>
	<rect x="236.1" y="146" class="st2" width="79.3" height="39.4"/>
	<g>
		<path class="st3" d="M251.2,170.2c-0.3-0.7-0.9-1.8-1.5-2.8v10.4h-3v-9.3c-0.8,2-1.8,3.8-2.8,5.1c-0.3-0.9-1-2.1-1.4-2.9
			c1.4-1.6,2.9-4.4,3.8-6.9h-3.5V161h3.9v-2.9c-1,0.2-2,0.3-2.9,0.4c-0.1-0.7-0.5-1.7-0.8-2.4c2.9-0.4,6.1-1.2,8.3-2.1l1.7,2.5
			c-1,0.4-2.1,0.7-3.3,1v3.5h3.4v2.9h-3.4v0.2c0.7,0.7,2.9,3.1,3.3,3.7L251.2,170.2z M263.9,171.3v6.5h-3v-5.9l-7.8,1.3l-0.5-2.9
			l8.3-1.4v-15.1h3v14.6l2.5-0.4l0.5,2.9L263.9,171.3z M257.5,167.7c-0.8-1.1-2.6-2.8-4.1-3.9l2-1.7c1.5,1,3.4,2.6,4.2,3.7
			L257.5,167.7z M258.1,160.9c-0.7-1.1-2.4-2.8-3.8-3.9l2-1.7c1.4,1.1,3.2,2.6,4,3.7L258.1,160.9z"/>
		<path class="st3" d="M277.5,167.5c-0.9,0.3-1.8,0.5-2.8,0.7v6.1c0,1.5-0.3,2.2-1.2,2.7c-0.8,0.5-2.1,0.5-3.9,0.5
			c-0.1-0.8-0.5-2-0.9-2.8c1,0,2.1,0,2.4,0c0.4,0,0.5-0.1,0.5-0.5v-5.3l-2.5,0.6l-0.8-2.9c1-0.2,2.1-0.4,3.3-0.7v-4.6h-3v-2.8h3
			v-4.9h3v4.9h2.5v2.8h-2.5v3.8l2.4-0.6L277.5,167.5z M291.7,164c-1,3.6-2.6,6.4-4.8,8.5c1.7,1.2,3.7,2,5.9,2.6
			c-0.6,0.6-1.5,1.9-2,2.6c-2.5-0.7-4.6-1.8-6.4-3.2c-2,1.4-4.3,2.4-6.8,3.2c-0.3-0.8-1.1-2.1-1.6-2.8c2.3-0.5,4.3-1.4,6.1-2.5
			c-1.5-1.7-2.7-3.8-3.7-6.1l0.8-0.2H278v-2.8h5.1v-3.1h-5.5v-2.8h5.5v-3.7h3v3.7h5.8v2.8h-5.8v3.1h3.1l0.5-0.1L291.7,164z
			 M281.6,166.1c0.7,1.7,1.7,3.2,3,4.6c1.3-1.3,2.4-2.8,3.2-4.6H281.6z"/>
		<path class="st3" d="M299.5,167.3h-5.2v-2.7h5.2v-5.5h2.8v5.5h5.2v2.7h-5.2v5.5h-2.8V167.3z"/>
	</g>
</g>
<text transform="matrix(1 0 0 1 91.4501 1177.175)" style="font-family:'NotoSansCJKtc-Bold-B5pc-H'; font-size:18px;">95</text>
<text transform="matrix(1 0 0 1 213.3499 1177.175)" style="font-family:'NotoSansCJKtc-Bold-B5pc-H'; font-size:18px;">00</text>
<text transform="matrix(1 0 0 1 338.4025 1177.175)" style="font-family:'NotoSansCJKtc-Bold-B5pc-H'; font-size:18px;">05</text>
<text transform="matrix(1 0 0 1 461.3501 1177.175)" style="font-family:'NotoSansCJKtc-Bold-B5pc-H'; font-size:18px;">10</text>
<text transform="matrix(1 0 0 1 585.631 1177.175)" style="font-family:'NotoSansCJKtc-Bold-B5pc-H'; font-size:18px;">15</text>
<text transform="matrix(1 0 0 1 59.211 728.5176)" style="font-family:'NotoSansCJKtc-Bold-B5pc-H'; font-size:18px;">25</text>
<text transform="matrix(1 0 0 1 87.2531 711.0861)" style="font-family:'NotoSansCJKtc-Bold-B5pc-H'; font-size:18px;">%</text>
<text transform="matrix(1 0 0 1 59.211 814.1307)" style="font-family:'NotoSansCJKtc-Bold-B5pc-H'; font-size:18px;">20</text>
<text transform="matrix(1 0 0 1 59.211 899.7429)" style="font-family:'NotoSansCJKtc-Bold-B5pc-H'; font-size:18px;">15</text>
<text transform="matrix(1 0 0 1 59.211 985.3553)" style="font-family:'NotoSansCJKtc-Bold-B5pc-H'; font-size:18px;">10</text>
<text transform="matrix(1 0 0 1 59.211 1070.9683)" style="font-family:'NotoSansCJKtc-Bold-B5pc-H'; font-size:18px;">5</text>
<text transform="matrix(1 0 0 1 59.211 1156.5808)" style="font-family:'NotoSansCJKtc-Bold-B5pc-H'; font-size:18px;">0</text>
<line class="st1" x1="99.5" y1="1150.9" x2="687.3" y2="1150.9"/>
<line class="st1" x1="99.5" y1="722" x2="99.5" y2="1150.9"/>
<line class="st1" x1="91.4" y1="1066.9" x2="99.5" y2="1066.9"/>
<line class="st1" x1="91.4" y1="978.1" x2="99.5" y2="978.1"/>
<line class="st1" x1="91.4" y1="894.5" x2="99.5" y2="894.5"/>
<line class="st1" x1="91.4" y1="808.2" x2="99.5" y2="808.2"/>
<line class="st1" x1="91.4" y1="722" x2="99.5" y2="722"/>
<g>
	<path class="st2" d="M634,691.6H74.7c-22,0-40-18-40-40l0,0c0-22,18-40,40-40H634c22,0,40,18,40,40l0,0
		C674,673.6,656,691.6,634,691.6z"/>
	
		<text transform="matrix(1 0 0 1 68.1903 665.7874)" class="st3" style="font-family:'SourceHanSansTW-Bold-B5pc-H'; font-size:36.9579px;">科技股過去12個月息前稅前利潤率</text>
</g>
<path class="st4" d="M686.3,948.6c0,0-17.7,1.6-22.7,2.9c-5.1,1.3-8.3,2.8-12.8,2.9c-4.4,0.1-8.5-0.5-13.1,2.3
	c-4.7,2.8-19.7,15-24.5,15.7c-4.8,0.6-7.3,2.9-14.4-3.5c-7.1-6.4-17.6-21.6-22.9-23.2c-5.3-1.6-9-6.7-17.4-3.5
	c-8.5,3.2-10.7,5.7-14.8,6.1c-4,0.4-16.2-1.9-24.6-5.7c-8.5-3.8-10.5-6.9-22.6-7.1c-12.1-0.1-19.3,7.6-24.4,11.2
	c-5.1,3.6-13.6,17.6-19.8,19.6c-6.2,2-6.9,4.5-15.7-4.4c-8.7-9-14.4-20.6-21.9-19.7c-7.5,0.9-4.8,1.9-9.3,1
	c-4.5-0.9-14.3-5.7-22.1-5.8c-7.8-0.1-5.1,1.3-14.4,4.7s-21.6,6.1-29.3,6.2c-7.7,0.1-12.6,6.2-16.2,8.6c-3.5,2.4-11.2,6.1-22.7,7.2
	c-11.5,1.1-15.4-0.4-26.9,0.4c-11.5,0.8-12.8,5.3-31.6-7.6s-30.7-2.9-32.5-2.4c-1.8,0.5-11,12.7-21.6,7.6
	c-10.6-5.2-13.9-14.7-25.1-13.6c-11.2,1-42.6,0.3-51.5,3.2s-11,5.7-11,5.7"/>
<g>
	<g>
		<line class="st4" x1="100.4" y1="960" x2="104.4" y2="960"/>
		<line class="st5" x1="114.3" y1="960" x2="680.4" y2="960"/>
		<line class="st4" x1="685.3" y1="960" x2="689.3" y2="960"/>
	</g>
</g>
<path class="st6" d="M100.4,929.4c0,0,3.8-11.1,11.4-8.1c7.6,3,12.1,14.2,15.7,15.2s7.6,6.1,13.6,0c6.1-6.1,5.9-12.5,6.3-13.5
	s3-8,8.1-8.5s10.2,2.1,13.8,5.3c3.6,3.2,7.6,8.3,13.8,7.2c6.3-1.1,8.7-3.8,14-8.1c5.3-4.4,19.5-15.3,23.5-13.5
	c4,1.9,8.5,8.9,8.5,14.8s11.4,42.3,14,69.7s7.6,70.7,9.5,77c1.9,6.3,2.5,23.6,8.3,16.4c5.9-7.2,9.3-15.5,11.7-27.7
	s7.8-45.1,12.9-54.4c5.1-9.3,26.9-50.9,27.7-54.7c0.8-3.8,9.1-32,21.2-38.5c12.1-6.4,22.7-11.4,35.1-6.4s14.2,10.8,25.2,0
	s22.7-22.7,24.1-23.3c1.3-0.6,2.1-4.2,16.3,2.3c14.2,6.4,14-13.6,17.8-17.2c3.8-3.6,11.4-46.6,20.7-55.3c9.3-8.7,11.2-8.9,19.1-9.9
	s12.1-7.2,21-5.9c8.9,1.3,14.8,8.3,19.5,10.4c4.7,2.1,10.8,0.4,17.2-4.9c6.4-5.3,11.9-6.3,15.7-9.1c3.8-2.8,11.4-9.3,16.9-11.7
	c5.5-2.5,9.3-5.1,18.9,4.7c9.7,9.9,11,16.1,22.5,12.7s16.9-13.1,26.1-19.7c9.3-6.6,12.3-11.9,21.8-12.9c9.5-0.9,12.9,3,14.8,5.5"/>
<g>
	<g>
		<line class="st6" x1="501.9" y1="789.2" x2="666.6" y2="746.2"/>
		<g>
			<polygon class="st2" points="666.1,761.8 687.4,740.7 658.6,732.8 			"/>
		</g>
	</g>
</g>
<text transform="matrix(1 0 0 1 405.7829 1000.1426)" class="st7" style="font-family:'NotoSansCJKtc-Bold-B5pc-H'; font-size:18px;">史坦普500企業不含金融及科技+</text>
<polygon class="st7" points="391,985.4 380.9,1002.8 401.1,1002.8 "/>
<text transform="matrix(1 0 0 1 241.1676 814.1309)"><tspan x="0" y="0" class="st2" style="font-family:'NotoSansCJKtc-Bold-B5pc-H'; font-size:18px; letter-spacing:1;">科技+網路零售+互動</tspan><tspan x="0" y="25" class="st2" style="font-family:'NotoSansCJKtc-Bold-B5pc-H'; font-size:18px; letter-spacing:1;">媒體與服務+互動娛樂</tspan></text>
<polygon class="st2" points="454.7,830.2 437.2,820.2 437.2,840.3 "/>
<g>
	<rect x="236.1" y="751.2" class="st2" width="79.3" height="39.4"/>
	
		<text transform="matrix(1 0 0 1 241.9411 780.7966)" class="st3" style="font-family:'NotoSansCJKtc-Bold-B5pc-H'; font-size:25.7138px;">科技+</text>
</g>
</svg>
