<?xml version="1.0" encoding="utf-8"?>
<!-- Generator: Adobe Illustrator 23.0.6, SVG Export Plug-In . SVG Version: 6.00 Build 0)  -->
<svg version="1.1" id="圖層_1" xmlns="http://www.w3.org/2000/svg" xmlns:xlink="http://www.w3.org/1999/xlink" x="0px" y="0px"
	 viewBox="0 0 542.41 457.35" style="enable-background:new 0 0 542.41 457.35;" xml:space="preserve">
<style type="text/css">
	.st0{fill:#184F87;}
	.st1{fill:#FFFFFF;}
	.st2{fill:#5A5C5C;}
	.st3{fill:none;stroke:#5A5C5C;stroke-width:3;stroke-miterlimit:10;}
	.st4{fill:none;stroke:#000000;stroke-width:3;stroke-miterlimit:10;}
	.st5{fill:none;stroke:#000000;stroke-width:3;stroke-miterlimit:10;stroke-dasharray:5;}
	.st6{fill:none;stroke:#5A5C5C;stroke-width:3;stroke-miterlimit:10;stroke-dasharray:5;}
</style>
<g>
	<rect class="st0" width="542.41" height="57.53"/>
	<g>
		<path class="st1" d="M160.13,34.21c-0.35-0.83-1.06-2.06-1.77-3.24v11.96h-3.39V32.32c-0.97,2.27-2.06,4.36-3.21,5.83
			c-0.32-1-1.09-2.45-1.62-3.33c1.65-1.89,3.3-5.04,4.36-7.9h-3.98v-3.27h4.45v-3.33c-1.15,0.18-2.24,0.35-3.33,0.47
			c-0.12-0.8-0.56-1.94-0.94-2.71c3.36-0.53,7.04-1.41,9.49-2.42l1.97,2.86c-1.15,0.44-2.45,0.79-3.8,1.09v4.04h3.89v3.27h-3.89
			v0.24c0.85,0.83,3.27,3.59,3.83,4.27L160.13,34.21z M174.66,35.48v7.43h-3.45v-6.81l-8.9,1.53l-0.56-3.33l9.46-1.62V15.41h3.45
			v16.68l2.92-0.5l0.56,3.27L174.66,35.48z M167.26,31.38c-0.91-1.3-2.98-3.18-4.69-4.51l2.24-2c1.68,1.18,3.86,3,4.83,4.27
			L167.26,31.38z M168.03,23.6c-0.83-1.27-2.74-3.15-4.39-4.42l2.3-2c1.59,1.21,3.65,2.95,4.54,4.24L168.03,23.6z"/>
		<path class="st1" d="M191.16,31.14c-1.03,0.29-2.09,0.59-3.15,0.85v7.04c0,1.71-0.32,2.53-1.33,3.09
			c-0.97,0.53-2.39,0.62-4.48,0.62c-0.12-0.88-0.56-2.27-0.97-3.18c1.15,0.03,2.36,0.03,2.74,0.03c0.41,0,0.56-0.15,0.56-0.59v-6.07
			l-2.86,0.71l-0.91-3.33c1.09-0.24,2.36-0.5,3.77-0.85v-5.21h-3.39v-3.24h3.39v-5.57H188v5.57h2.89v3.24H188v4.36l2.71-0.68
			L191.16,31.14z M207.48,27.17c-1.12,4.07-3.01,7.31-5.51,9.78c1.94,1.36,4.21,2.33,6.84,2.98c-0.74,0.71-1.74,2.12-2.24,3.04
			c-2.86-0.85-5.27-2.09-7.34-3.71c-2.3,1.59-4.89,2.77-7.78,3.63c-0.38-0.94-1.21-2.42-1.86-3.18c2.59-0.62,4.98-1.56,7.04-2.89
			c-1.71-1.97-3.09-4.3-4.18-7.01l0.88-0.26h-1.53v-3.15h5.8v-3.54h-6.33v-3.24h6.33v-4.21h3.48v4.21h6.6v3.24h-6.6v3.54h3.54
			l0.62-0.15L207.48,27.17z M195.87,29.52c0.83,1.94,2,3.71,3.48,5.21c1.53-1.44,2.83-3.21,3.71-5.21H195.87z"/>
		<path class="st1" d="M237.97,28.82c-0.94,3.74-2.65,6.6-4.89,8.84c1.68,0.94,3.62,1.68,5.75,2.18c-0.77,0.74-1.77,2.12-2.24,3.04
			c-2.45-0.68-4.54-1.68-6.33-2.95c-1.89,1.21-4.04,2.12-6.42,2.83c-0.32-0.88-1.12-2.18-1.74-2.92c-0.09,1.03-0.38,1.74-1.09,2.18
			c-0.82,0.56-2,0.65-3.71,0.65c-0.09-0.88-0.47-2.39-0.88-3.27c0.91,0.03,1.8,0.03,2.12,0.03c0.32,0,0.44-0.12,0.44-0.47v-5.86
			c-0.8,0.5-1.56,1-2.27,1.44l-0.85-2.12c-0.21,3.68-0.71,7.63-1.83,10.52c-0.62-0.53-2.06-1.3-2.8-1.59
			c1.53-4.04,1.62-9.93,1.62-14.2v-10.7h9.28v8.81c3.18-1.59,3.56-3.71,3.56-5.63v-3.15h9.9v6.45c0,0.85,0.06,1.18,0.41,1.18h1.15
			c0.38,0,1.06-0.09,1.44-0.21c0.09,0.85,0.15,2,0.27,2.77c-0.44,0.18-1.09,0.21-1.68,0.21h-1.5c-2.8,0-3.36-1.18-3.36-4.01v-3.15
			h-3.45c0,2.83-0.85,6.04-4.71,8.01c-0.35-0.56-1.38-1.65-2.03-2.21v13.5c0,0.24,0,0.47-0.03,0.68c2-0.47,3.86-1.18,5.48-2.09
			c-1.53-1.65-2.8-3.57-3.77-5.75l1.44-0.44h-2.12v-3.27h11.99l0.65-0.15L237.97,28.82z M215.99,27.11c0,1.21-0.03,2.59-0.09,4.01
			c0.88-0.29,1.92-0.68,3.06-1.12v-3.21l-1.18,0.94c-0.38-0.56-1.06-1.41-1.8-2.24V27.11z M215.99,19.59v3.65l0.83-0.59
			c0.71,0.68,1.5,1.47,2.15,2.21v-5.27H215.99z M227.07,31.41c0.77,1.56,1.89,2.98,3.21,4.18c1.3-1.15,2.39-2.56,3.18-4.18H227.07z"
			/>
		<path class="st1" d="M261.6,36.63c2.89,1.27,5.89,2.68,7.75,3.77l-2.89,2.56c-1.94-1.27-5.39-3.15-8.57-4.51l1.62-1.83h-8.81
			l2.48,1.77c-2.3,1.68-5.95,3.51-8.9,4.57c-0.62-0.74-1.77-1.86-2.56-2.53c2.65-0.88,5.77-2.42,7.72-3.8h-7.25v-3.15h4.6V16.77
			h17.71v16.71h4.45v3.15H261.6z M250.17,19.54v1.62h10.75v-1.62H250.17z M260.92,23.63h-10.75v1.56h10.75V23.63z M250.17,27.67
			v1.62h10.75v-1.62H250.17z M250.17,33.47h10.75v-1.71h-10.75V33.47z"/>
		<path class="st1" d="M298.9,18.15v2.95h-26.02v-2.95h11.34c-0.24-0.71-0.47-1.44-0.71-2.06l3.62-0.88c0.32,0.91,0.8,2,1.15,2.95
			H298.9z M298.22,39.72c0,1.53-0.38,2.15-1.5,2.59c-1.06,0.35-2.65,0.38-4.69,0.35c-0.18-0.77-0.65-1.77-1.03-2.47h-8.43v1.24
			h-3.24v-7.78h12.82v6.54h-0.41c1.03,0.03,2.06,0.03,2.36,0c0.41,0,0.59-0.12,0.59-0.5v-7.13H277.1V42.9h-3.39V29.73h24.51V39.72z
			 M295.4,28.52H276.8v-6.31h18.59V28.52z M291.71,24.57h-11.4v1.62h11.4V24.57z M289.06,36.09h-6.48v1.68h6.48V36.09z"/>
		<path class="st1" d="M312.01,28.93c1.44,1.09,4.36,3.59,5.16,4.21l-2.03,3c-0.71-0.91-1.94-2.24-3.12-3.45v10.17h-3.39V32.32
			c-1.33,2.68-2.89,5.21-4.51,6.92c-0.35-1.03-1.21-2.53-1.77-3.42c2.12-2.06,4.27-5.42,5.6-8.49h-4.92v-3.21h5.6v-3.65
			c-1.68,0.32-3.36,0.59-4.95,0.8c-0.15-0.77-0.59-2-1-2.74c4.24-0.62,8.99-1.74,11.84-3.04l2.48,2.71
			c-1.47,0.59-3.18,1.09-4.98,1.53v4.39h5.07v3.21h-5.07V28.93z M321.88,35.45h-3.42V18.98h3.42V35.45z M328.9,15.97v22.69
			c0,2.03-0.41,3.01-1.62,3.57c-1.21,0.59-3.18,0.71-5.86,0.68c-0.15-1-0.68-2.62-1.21-3.62c1.92,0.09,3.8,0.09,4.42,0.09
			c0.56-0.03,0.8-0.21,0.8-0.74V15.97H328.9z"/>
		<path class="st1" d="M337.59,28.88c-0.97-0.91-2.98-2.09-4.6-2.83l1.92-2.56c1.62,0.62,3.71,1.65,4.71,2.56L337.59,28.88z
			 M333.28,40.81c1.12-2.27,2.68-6.01,3.83-9.46l2.83,1.83c-1,3.15-2.27,6.54-3.48,9.43L333.28,40.81z M335.91,15.65
			c1.62,0.68,3.65,1.86,4.68,2.74l-2.06,2.83c-0.94-0.94-2.98-2.24-4.6-2.98L335.91,15.65z M343.92,27.08v15.85h-3.12v-26.4h8.54
			v10.55H343.92z M343.92,19.09v1.47h2.59v-1.47H343.92z M346.51,24.46v-1.53h-2.59v1.53H346.51z M355.47,39.72h-10.61v-2.53h3.77
			v-2h-2.89v-2.5h2.89v-1.65h-3.33v-2.53H355v2.53h-3.54v1.65h2.98v2.5h-2.98v2h4.01V39.72z M359.54,39.34
			c0,1.56-0.27,2.45-1.18,2.98c-0.94,0.56-2.18,0.62-4.13,0.62c-0.09-0.85-0.41-2.3-0.85-3.15c1.03,0.06,2.15,0.03,2.5,0.03
			s0.47-0.12,0.47-0.5V27.08h-5.66V16.53h8.84V39.34z M353.64,19.09v1.47h2.71v-1.47H353.64z M356.35,24.46v-1.53h-2.71v1.53H356.35
			z"/>
		<path class="st1" d="M381.6,32.85c-0.12-0.41-0.32-0.91-0.56-1.44c-7.04,0.71-8.16,0.88-8.9,1.21c-0.15-0.56-0.59-2.03-0.94-2.8
			c-1.94,1.03-4.01,2.09-5.75,2.92l-1.68-2.8c1.86-0.68,4.63-1.86,7.34-2.98l0.65,2.56l-0.53,0.29c0.74-0.15,1.47-0.68,2.5-1.5
			c0.44-0.35,1.3-1.06,2.33-2.06c-2.27,0.18-2.92,0.32-3.36,0.5c-0.18-0.62-0.62-1.97-0.94-2.74c0.44-0.12,0.91-0.47,1.36-1
			c0.27-0.32,0.88-1.09,1.56-2.09h-10.05v-3.15h10.96c-0.32-0.59-0.68-1.21-1-1.68l3.57-0.82c0.59,0.74,1.21,1.68,1.62,2.5h10.49
			v3.15H378.1c-0.62,0.91-1.3,1.8-2.03,2.62l2.68-0.09c0.68-0.77,1.33-1.56,1.89-2.39l2.68,1.59c-2,2.36-4.36,4.66-6.72,6.54
			l3.09-0.24c-0.32-0.53-0.65-1.03-1-1.47l2.56-0.91c0.47,0.59,0.94,1.24,1.38,1.94l1.94-1.56c1.92,1,4.57,2.62,5.86,3.74
			l-2.53,2.12c-1.03-0.97-2.98-2.36-4.71-3.42c0.47,0.85,0.91,1.71,1.15,2.42L381.6,32.85z M390.68,37.51h-11.55v5.36h-3.74v-5.36
			h-11.52v-3.24h11.52v-1.97h3.74v1.97h11.55V37.51z M368.96,26.78c-0.88-0.97-2.83-2.39-4.33-3.33l2.3-1.86
			c1.5,0.82,3.54,2.18,4.51,3.12L368.96,26.78z M382.75,25.13c1.21-0.91,2.86-2.5,3.77-3.65l2.92,1.68
			c-1.27,1.36-2.89,2.68-4.1,3.59L382.75,25.13z"/>
	</g>
	<g>
		<path d="M130.54,90.03c2.72,0.97,6.31,2.37,8.19,3.38l-1.27,2.35c-2-1.15-6.15-2.92-9.08-4l1.02-1.73h-0.82
			c-1.09,2.83-3.52,4.65-9.57,5.66c-0.18-0.74-0.82-1.89-1.34-2.46c4.56-0.62,6.69-1.66,7.76-3.2h-6.76V87.7h7.65
			c0.07-0.37,0.14-0.78,0.18-1.2h-8.35v-2.37h8.71v-1.22h-6.72v-2.3h6.72v-1.17h-8.01v-2.41h4.31c-0.34-0.69-0.82-1.43-1.27-2.02
			l2.41-0.97c0.7,0.81,1.41,1.91,1.7,2.69l-0.66,0.3h4.99c0.57-0.9,1.25-2.09,1.61-2.99l2.9,0.76c-0.5,0.81-1.02,1.56-1.52,2.23
			h4.36v2.41h-8.03v1.17h6.94v2.3h-6.94v1.22h9.03v2.37h-9.33c-0.05,0.41-0.11,0.8-0.18,1.2h8.85v2.32H130.54z"/>
		<path d="M161.67,84.69c-0.73,2.92-2.04,5.15-3.77,6.9c1.29,0.74,2.79,1.31,4.42,1.7c-0.59,0.58-1.36,1.66-1.72,2.37
			c-1.88-0.53-3.49-1.31-4.88-2.3c-1.45,0.94-3.11,1.66-4.95,2.21c-0.25-0.69-0.86-1.7-1.34-2.28c-0.07,0.8-0.29,1.36-0.84,1.7
			c-0.64,0.44-1.54,0.51-2.86,0.51c-0.07-0.69-0.36-1.86-0.68-2.55c0.7,0.02,1.38,0.02,1.63,0.02s0.34-0.09,0.34-0.37v-4.58
			c-0.61,0.39-1.2,0.78-1.75,1.13l-0.66-1.66c-0.16,2.88-0.54,5.96-1.41,8.21c-0.48-0.41-1.59-1.01-2.16-1.24
			c1.18-3.15,1.25-7.75,1.25-11.08v-8.35h7.15v6.88c2.45-1.24,2.75-2.9,2.75-4.39v-2.46h7.62v5.04c0,0.67,0.05,0.92,0.32,0.92h0.89
			c0.29,0,0.82-0.07,1.11-0.16c0.07,0.67,0.11,1.56,0.2,2.16c-0.34,0.14-0.84,0.16-1.29,0.16h-1.16c-2.16,0-2.59-0.92-2.59-3.13
			v-2.46h-2.65c0,2.21-0.66,4.71-3.63,6.25c-0.27-0.44-1.07-1.29-1.57-1.72v10.53c0,0.18,0,0.37-0.02,0.53
			c1.54-0.37,2.97-0.92,4.22-1.63c-1.18-1.29-2.16-2.78-2.9-4.48l1.11-0.34h-1.63v-2.55h9.23l0.5-0.12L161.67,84.69z M144.75,83.36
			c0,0.94-0.02,2.02-0.07,3.13c0.68-0.23,1.47-0.53,2.36-0.87v-2.51l-0.91,0.74c-0.29-0.44-0.82-1.1-1.38-1.75V83.36z M144.75,77.49
			v2.85l0.64-0.46c0.54,0.53,1.16,1.15,1.66,1.72v-4.12H144.75z M153.28,86.72c0.59,1.22,1.45,2.32,2.47,3.26
			c1-0.9,1.84-2,2.45-3.26H153.28z"/>
		<path d="M165.76,86.44c0-4.58,1.25-8.35,3.38-11.89l2.09,0.9c-1.91,3.36-2.77,7.24-2.77,10.99c0,3.79,0.86,7.66,2.77,11.01
			l-2.09,0.9C167.01,94.79,165.76,91.06,165.76,86.44z"/>
		<path d="M187.66,81.66c2.43,1.77,5.92,4.42,7.56,6.23l-2.29,2.09c-1.41-1.7-4.49-4.32-6.94-6.23v11.91h-2.95V84.44
			c-2.06,2.23-4.49,4.23-7.22,5.66c-0.43-0.74-1.27-1.86-1.86-2.48c4.13-1.95,7.67-5.52,9.78-9.04h-9.05v-2.81h19.67v2.81h-7.06
			c-0.39,0.71-0.84,1.43-1.32,2.12v2.39L187.66,81.66z"/>
		<path d="M210.15,75.45c-0.16,0.18-0.32,0.34-0.5,0.51c2.18,1.79,5.88,3.47,9.17,4.3c-0.59,0.55-1.43,1.66-1.84,2.37
			c-1.77-0.57-3.65-1.45-5.4-2.51v1.36h-7.87v-1.08c-1.54,0.87-3.15,1.61-4.72,2.23c-0.41-0.71-1.16-1.72-1.86-2.39
			c3.83-1.27,8.21-3.47,10.57-6.16L210.15,75.45z M215.07,83.06c-0.73,1.45-1.61,2.97-2.5,4.35h2.81v8.35h-2.77v-0.78h-9.05v0.78
			h-2.65v-8.35h8.46c0.52-0.83,1.07-1.72,1.57-2.6h-10.62v-2.39h12.16l0.48-0.11L215.07,83.06z M212.62,89.75h-9.05v2.87h9.05V89.75
			z M210.21,79.22c-0.82-0.55-1.54-1.15-2.22-1.75c-0.75,0.6-1.52,1.2-2.36,1.75H210.21z"/>
		<path d="M232.82,83.38v2.39h7.24v2.46h-3.58l2.27,0.83c-0.79,1.29-1.68,2.67-2.38,3.66h4.88v2.51h-19.63v-2.51h4.47
			c-0.36-1.06-1.13-2.58-1.88-3.72l1.79-0.76h-3.29v-2.46h7.22v-2.39h-4.61v-1.13c-0.95,0.46-1.93,0.87-2.93,1.24
			c-0.36-0.8-1.11-1.84-1.79-2.53c4.27-1.24,8.35-3.56,10.51-6.99l2.56,1.17c-0.2,0.3-0.41,0.6-0.64,0.92
			c2.22,2.02,5.9,3.93,9.3,4.9c-0.61,0.6-1.45,1.68-1.86,2.39c-1.02-0.37-2.06-0.83-3.09-1.33v1.36H232.82z M226.49,88.23
			c0.79,1.13,1.66,2.64,1.97,3.66l-1.86,0.83h3.31v-4.48H226.49z M235.38,80.88c-1.43-0.9-2.77-1.91-3.93-2.99
			c-1.09,1.15-2.34,2.12-3.68,2.99H235.38z M232.82,88.23v4.48h2.84l-1.52-0.64c0.7-1.03,1.54-2.64,2-3.84H232.82z"/>
		<path d="M244.44,75.08h11.28v2.3h-11.28V75.08z M255.26,93.06c0,0.99-0.14,1.56-0.77,1.91c-0.57,0.34-1.38,0.37-2.52,0.37
			c-0.05-0.6-0.29-1.45-0.54-2.05c0.59,0.02,1.23,0.02,1.41,0.02c0.2,0,0.27-0.07,0.27-0.28v-7.01h-6.24v9.66h-2.04V84.03h10.44
			V93.06z M254.65,83.22h-9.08v-4.99h9.08V83.22z M248.39,89.36c-0.16-0.67-0.59-1.68-1.04-2.44l1.38-0.51
			c0.48,0.74,0.95,1.72,1.13,2.37L248.39,89.36z M250.93,91.04v3.86h-1.91v-3.86h-1.63v-1.66h2.54c0.43-0.94,0.95-2.18,1.23-3.1
			l1.63,0.67c-0.43,0.78-0.84,1.68-1.25,2.44h1v1.66H250.93z M252.24,80.05h-4.42v1.33h4.42V80.05z M263.52,95.68
			c-0.07-0.51-0.16-1.13-0.29-1.79c-2.45,0.46-4.92,0.92-6.88,1.31l-0.57-2.48c0.95-0.11,2.11-0.28,3.36-0.48v-4.21h-3.04v-9.45
			h3.04v-4h2.34v4h3.09v9.45h-3.09v3.84l1.25-0.21c-0.2-0.78-0.41-1.61-0.64-2.34l1.82-0.37c0.66,2,1.34,4.67,1.57,6.23
			L263.52,95.68z M257.98,85.68h1.38V80.9h-1.38V85.68z M262.57,80.9h-1.32v4.78h1.32V80.9z"/>
		<path d="M268.11,97.45c1.91-3.36,2.77-7.22,2.77-11.01c0-3.75-0.86-7.63-2.77-10.99l2.06-0.9c2.16,3.54,3.4,7.31,3.4,11.89
			c0,4.62-1.25,8.35-3.4,11.91L268.11,97.45z"/>
		<path d="M278.32,76.67h10.3v2.85h-6.94v3.93h5.9v2.85h-5.9v4.55h7.19v2.85h-10.55V76.67z"/>
		<path d="M293.02,76.67h5.56c3.45,0,6.08,1.03,6.08,4.21c0,1.56-0.86,3.17-2.29,3.68v0.12c1.81,0.44,3.15,1.72,3.15,4.02
			c0,3.43-2.81,5.01-6.51,5.01h-5.99V76.67z M298.33,83.61c2.13,0,3.06-0.87,3.06-2.23c0-1.5-1-2.09-3.02-2.09h-2v4.32H298.33z
			 M298.72,91.09c2.29,0,3.54-0.83,3.54-2.6c0-1.66-1.23-2.37-3.54-2.37h-2.34v4.97H298.72z"/>
		<path d="M309.23,76.67h3.36v17.04h-3.36V76.67z"/>
		<path d="M320.8,79.52h-4.72v-2.85h12.84v2.85h-4.76v14.19h-3.36V79.52z"/>
		<path d="M332.4,76.67H337c5.13,0,8.3,2.71,8.3,8.46c0,5.73-3.18,8.58-8.12,8.58h-4.79V76.67z M336.8,90.97
			c3.13,0,5.08-1.7,5.08-5.84c0-4.16-1.95-5.73-5.08-5.73h-1.04v11.57H336.8z"/>
		<path d="M352.3,76.67h3.95l5.4,17.04h-3.52l-1.18-4.37h-5.45l-1.18,4.37h-3.4L352.3,76.67z M352.23,86.69h3.99l-0.5-1.86
			c-0.52-1.77-0.98-3.73-1.45-5.56h-0.11c-0.43,1.86-0.93,3.79-1.43,5.56L352.23,86.69z"/>
		<path d="M370.29,84.78c1.11,0.85,3.36,2.81,3.97,3.29l-1.57,2.35c-0.54-0.71-1.5-1.75-2.41-2.69v7.93h-2.61v-8.23
			c-1.02,2.09-2.22,4.07-3.47,5.4c-0.27-0.8-0.93-1.98-1.36-2.67c1.63-1.61,3.29-4.23,4.31-6.62h-3.79v-2.51h4.31v-2.85
			c-1.29,0.25-2.59,0.46-3.81,0.62c-0.11-0.6-0.45-1.56-0.77-2.14c3.27-0.48,6.92-1.36,9.12-2.37l1.91,2.12
			c-1.13,0.46-2.45,0.85-3.83,1.2v3.43h3.9v2.51h-3.9V84.78z M377.89,89.87h-2.63V77.01h2.63V89.87z M383.29,74.67v17.71
			c0,1.59-0.32,2.35-1.25,2.78c-0.93,0.46-2.45,0.55-4.52,0.53c-0.11-0.78-0.52-2.05-0.93-2.83c1.48,0.07,2.93,0.07,3.4,0.07
			c0.43-0.02,0.61-0.16,0.61-0.57V74.67H383.29z"/>
		<path d="M389.99,84.74c-0.75-0.71-2.29-1.63-3.54-2.21l1.47-2c1.25,0.48,2.86,1.29,3.63,2L389.99,84.74z M386.68,94.05
			c0.86-1.77,2.06-4.69,2.95-7.38l2.18,1.43c-0.77,2.46-1.75,5.1-2.68,7.36L386.68,94.05z M388.7,74.41
			c1.25,0.53,2.81,1.45,3.61,2.14l-1.59,2.21c-0.73-0.74-2.29-1.75-3.54-2.32L388.7,74.41z M394.87,83.34v12.37h-2.4V75.1h6.58v8.23
			H394.87z M394.87,77.1v1.15h2V77.1H394.87z M396.87,81.29v-1.2h-2v1.2H396.87z M403.76,93.2h-8.17v-1.98h2.9v-1.56h-2.22V87.7
			h2.22v-1.29h-2.56v-1.98h7.47v1.98h-2.72v1.29h2.29v1.96h-2.29v1.56h3.09V93.2z M406.89,92.9c0,1.22-0.2,1.91-0.91,2.32
			c-0.73,0.44-1.68,0.48-3.18,0.48c-0.07-0.67-0.32-1.79-0.66-2.46c0.79,0.05,1.66,0.02,1.93,0.02c0.27,0,0.36-0.09,0.36-0.39v-9.54
			h-4.36V75.1h6.81V92.9z M402.36,77.1v1.15h2.09V77.1H402.36z M404.44,81.29v-1.2h-2.09v1.2H404.44z"/>
		<path d="M423.89,87.84c-0.09-0.32-0.25-0.71-0.43-1.13c-5.42,0.55-6.29,0.69-6.85,0.94c-0.11-0.44-0.45-1.59-0.73-2.18
			c-1.5,0.8-3.09,1.63-4.42,2.28l-1.29-2.18c1.43-0.53,3.56-1.45,5.65-2.32l0.5,2l-0.41,0.23c0.57-0.12,1.13-0.53,1.93-1.17
			c0.34-0.28,1-0.83,1.79-1.61c-1.75,0.14-2.25,0.25-2.59,0.39c-0.14-0.48-0.48-1.54-0.73-2.14c0.34-0.09,0.7-0.37,1.04-0.78
			c0.2-0.25,0.68-0.85,1.2-1.63h-7.74v-2.46h8.44c-0.25-0.46-0.52-0.94-0.77-1.31l2.75-0.64c0.45,0.58,0.93,1.31,1.25,1.96h8.08
			v2.46h-9.37c-0.48,0.71-1,1.4-1.57,2.05l2.06-0.07c0.52-0.6,1.02-1.22,1.45-1.86l2.06,1.24c-1.54,1.84-3.36,3.63-5.17,5.11
			l2.38-0.18c-0.25-0.41-0.5-0.8-0.77-1.15l1.97-0.71c0.36,0.46,0.73,0.97,1.07,1.52l1.5-1.22c1.48,0.78,3.52,2.05,4.52,2.92
			l-1.95,1.66c-0.79-0.76-2.29-1.84-3.63-2.67c0.36,0.67,0.7,1.33,0.88,1.88L423.89,87.84z M430.88,91.48h-8.89v4.18h-2.88v-4.18
			h-8.87v-2.53h8.87v-1.54h2.88v1.54h8.89V91.48z M414.16,83.11c-0.68-0.76-2.18-1.86-3.34-2.6l1.77-1.45
			c1.16,0.64,2.72,1.7,3.47,2.44L414.16,83.11z M424.78,81.82c0.93-0.71,2.2-1.95,2.9-2.85l2.25,1.31c-0.98,1.06-2.22,2.09-3.15,2.8
			L424.78,81.82z"/>
	</g>
	<g>
		<path d="M186.69,419.59c-0.14,0.16-0.28,0.3-0.43,0.44c1.89,1.56,5.11,3.02,7.97,3.74c-0.51,0.48-1.24,1.44-1.6,2.06
			c-1.54-0.5-3.18-1.26-4.7-2.18v1.18h-6.85v-0.94c-1.34,0.76-2.74,1.4-4.1,1.94c-0.36-0.62-1.01-1.5-1.62-2.08
			c3.33-1.1,7.14-3.02,9.19-5.36L186.69,419.59z M190.97,426.21c-0.63,1.26-1.4,2.58-2.17,3.78h2.45v7.26h-2.41v-0.68h-7.87v0.68
			h-2.31v-7.26h7.36c0.45-0.72,0.93-1.5,1.36-2.26h-9.23v-2.08h10.57l0.41-0.1L190.97,426.21z M188.84,432.03h-7.87v2.5h7.87V432.03
			z M186.75,422.87c-0.71-0.48-1.34-1-1.93-1.52c-0.65,0.52-1.32,1.04-2.05,1.52H186.75z"/>
		<path d="M202.44,431.29c-0.24-0.56-0.71-1.4-1.18-2.2v8.12h-2.27v-7.2c-0.65,1.54-1.38,2.96-2.15,3.96
			c-0.22-0.68-0.73-1.66-1.09-2.26c1.1-1.28,2.21-3.42,2.92-5.36H196v-2.22h2.98v-2.26c-0.77,0.12-1.5,0.24-2.23,0.32
			c-0.08-0.54-0.38-1.32-0.63-1.84c2.25-0.36,4.72-0.96,6.35-1.64l1.32,1.94c-0.77,0.3-1.64,0.54-2.54,0.74v2.74h2.6v2.22h-2.6v0.16
			c0.57,0.56,2.19,2.44,2.56,2.9L202.44,431.29z M212.16,432.15v5.04h-2.31v-4.62l-5.96,1.04l-0.38-2.26l6.33-1.1v-11.72h2.31v11.32
			l1.95-0.34l0.37,2.22L212.16,432.15z M207.21,429.37c-0.61-0.88-1.99-2.16-3.14-3.06l1.5-1.36c1.12,0.8,2.58,2.04,3.24,2.9
			L207.21,429.37z M207.72,424.09c-0.55-0.86-1.83-2.14-2.94-3l1.54-1.36c1.07,0.82,2.45,2,3.04,2.88L207.72,424.09z"/>
		<path d="M223.22,429.21c-0.69,0.2-1.4,0.4-2.11,0.58v4.78c0,1.16-0.22,1.72-0.89,2.1c-0.65,0.36-1.6,0.42-3,0.42
			c-0.08-0.6-0.38-1.54-0.65-2.16c0.77,0.02,1.58,0.02,1.83,0.02c0.28,0,0.38-0.1,0.38-0.4v-4.12l-1.91,0.48l-0.61-2.26
			c0.73-0.16,1.58-0.34,2.53-0.58v-3.54h-2.27v-2.2h2.27v-3.78h2.33v3.78h1.93v2.2h-1.93v2.96l1.81-0.46L223.22,429.21z
			 M234.15,426.51c-0.75,2.76-2.01,4.96-3.69,6.64c1.3,0.92,2.82,1.58,4.58,2.02c-0.49,0.48-1.16,1.44-1.5,2.06
			c-1.91-0.58-3.53-1.42-4.91-2.52c-1.54,1.08-3.28,1.88-5.21,2.46c-0.26-0.64-0.81-1.64-1.24-2.16c1.74-0.42,3.33-1.06,4.72-1.96
			c-1.14-1.34-2.07-2.92-2.8-4.76l0.59-0.18h-1.03v-2.14h3.89v-2.4h-4.24v-2.2h4.24v-2.86h2.33v2.86h4.42v2.2h-4.42v2.4h2.37
			l0.41-0.1L234.15,426.51z M226.37,428.11c0.55,1.32,1.34,2.52,2.33,3.54c1.03-0.98,1.89-2.18,2.49-3.54H226.37z"/>
	</g>
	<g>
		<path class="st2" d="M374.74,424.99c2.11,1.54,5.15,3.84,6.57,5.42l-1.99,1.82c-1.22-1.48-3.91-3.76-6.04-5.42v10.36h-2.56v-9.76
			c-1.8,1.94-3.91,3.68-6.27,4.92c-0.38-0.64-1.1-1.62-1.62-2.16c3.59-1.7,6.67-4.8,8.5-7.86h-7.87v-2.44h17.11v2.44h-6.14
			c-0.34,0.62-0.73,1.24-1.14,1.84v2.08L374.74,424.99z"/>
		<path class="st2" d="M394.29,419.59c-0.14,0.16-0.28,0.3-0.43,0.44c1.89,1.56,5.11,3.02,7.97,3.74c-0.51,0.48-1.24,1.44-1.6,2.06
			c-1.54-0.5-3.18-1.26-4.7-2.18v1.18h-6.85v-0.94c-1.34,0.76-2.74,1.4-4.1,1.94c-0.36-0.62-1.01-1.5-1.62-2.08
			c3.33-1.1,7.14-3.02,9.19-5.36L394.29,419.59z M398.57,426.21c-0.63,1.26-1.4,2.58-2.17,3.78h2.45v7.26h-2.41v-0.68h-7.87v0.68
			h-2.31v-7.26h7.36c0.45-0.72,0.93-1.5,1.36-2.26h-9.23v-2.08h10.57l0.41-0.1L398.57,426.21z M396.44,432.03h-7.87v2.5h7.87V432.03
			z M394.35,422.87c-0.71-0.48-1.34-1-1.93-1.52c-0.65,0.52-1.32,1.04-2.05,1.52H394.35z"/>
		<path class="st2" d="M410.04,431.29c-0.24-0.56-0.71-1.4-1.18-2.2v8.12h-2.27v-7.2c-0.65,1.54-1.38,2.96-2.15,3.96
			c-0.22-0.68-0.73-1.66-1.09-2.26c1.1-1.28,2.21-3.42,2.92-5.36h-2.66v-2.22h2.98v-2.26c-0.77,0.12-1.5,0.24-2.23,0.32
			c-0.08-0.54-0.38-1.32-0.63-1.84c2.25-0.36,4.72-0.96,6.35-1.64l1.32,1.94c-0.77,0.3-1.64,0.54-2.54,0.74v2.74h2.6v2.22h-2.6v0.16
			c0.57,0.56,2.19,2.44,2.56,2.9L410.04,431.29z M419.77,432.15v5.04h-2.31v-4.62l-5.96,1.04l-0.38-2.26l6.33-1.1v-11.72h2.31v11.32
			l1.95-0.34l0.37,2.22L419.77,432.15z M414.81,429.37c-0.61-0.88-1.99-2.16-3.14-3.06l1.5-1.36c1.12,0.8,2.58,2.04,3.24,2.9
			L414.81,429.37z M415.33,424.09c-0.55-0.86-1.83-2.14-2.94-3l1.54-1.36c1.07,0.82,2.45,2,3.04,2.88L415.33,424.09z"/>
		<path class="st2" d="M430.82,429.21c-0.69,0.2-1.4,0.4-2.11,0.58v4.78c0,1.16-0.22,1.72-0.89,2.1c-0.65,0.36-1.6,0.42-3,0.42
			c-0.08-0.6-0.38-1.54-0.65-2.16c0.77,0.02,1.58,0.02,1.83,0.02c0.28,0,0.38-0.1,0.38-0.4v-4.12l-1.91,0.48l-0.61-2.26
			c0.73-0.16,1.58-0.34,2.53-0.58v-3.54h-2.27v-2.2h2.27v-3.78h2.33v3.78h1.93v2.2h-1.93v2.96l1.81-0.46L430.82,429.21z
			 M441.75,426.51c-0.75,2.76-2.01,4.96-3.69,6.64c1.3,0.92,2.82,1.58,4.58,2.02c-0.49,0.48-1.16,1.44-1.5,2.06
			c-1.91-0.58-3.53-1.42-4.91-2.52c-1.54,1.08-3.28,1.88-5.21,2.46c-0.26-0.64-0.81-1.64-1.24-2.16c1.74-0.42,3.33-1.06,4.72-1.96
			c-1.14-1.34-2.07-2.92-2.8-4.76l0.59-0.18h-1.03v-2.14h3.89v-2.4h-4.24v-2.2h4.24v-2.86h2.33v2.86h4.42v2.2h-4.42v2.4h2.37
			l0.41-0.1L441.75,426.51z M433.98,428.11c0.55,1.32,1.34,2.52,2.33,3.54c1.03-0.98,1.89-2.18,2.49-3.54H433.98z"/>
	</g>
	<g>
		<polyline class="st3" points="55.11,359.71 55.11,355.61 542.41,355.61 542.41,359.71 		"/>
		<line class="st3" x1="136.98" y1="359.71" x2="136.98" y2="355.61"/>
		<line class="st3" x1="218.52" y1="359.71" x2="218.52" y2="355.61"/>
		<line class="st3" x1="300.06" y1="359.71" x2="300.06" y2="355.61"/>
		<line class="st3" x1="381.6" y1="359.71" x2="381.6" y2="355.61"/>
		<line class="st3" x1="463.14" y1="359.71" x2="463.14" y2="355.61"/>
		<polyline class="st4" points="55.98,218.53 62.04,212.88 68.98,218.53 71.14,167.24 75.91,174.06 79.8,173.59 82.84,171.71 
			85.44,173.12 88.47,171.24 90.63,161.59 93.67,167.71 101.03,165.59 106.66,168.88 109.26,161.59 114.46,164.18 127.02,161.59 
			136.55,165.35 139.15,163.24 146.51,165.35 147.81,161.59 155.17,164.65 159.5,161.59 163.84,160.18 167.73,149.59 171.2,156.41 
			174.66,157.12 174.66,148.41 186.36,145.35 188.53,130.53 194.59,139 206.28,173.12 206.28,241.12 218.85,256.65 222.31,237.35 
			228.38,247.47 232.27,237.35 239.2,232.41 244.4,223.94 244.4,215.24 253.07,212.88 257.4,200.41 263.46,204.65 266.49,201.82 
			273.42,203.47 277.76,199.47 282.95,197.12 286.42,190.53 298.11,187.24 302.01,180.65 305.48,159.24 312.41,164.88 
			316.74,165.59 321.07,173.59 325.84,171.24 328.43,181.59 332.33,184.41 332.33,195.71 336.23,198.06 337.53,210.06 
			341.86,212.18 341.86,266.06 346.19,268.41 348.79,289.82 355.72,292.41 363.09,292.41 363.09,220.41 366.12,216.18 
			366.12,193.59 370.38,188.65 372.18,180.88 375.65,178.76 378.68,169.82 382.58,175.24 387.78,173.35 392.97,173.35 
			399.47,178.29 402.07,189.12 410.3,190.06 419.4,195 419.4,207.24 422.86,208.41 426.76,199.47 430.23,210.06 433.26,206.06 
			435.42,194.76 438.89,191.71 441.05,181.82 450.15,178.06 455.35,172.41 461.85,179.94 465.74,186.29 472.67,190.06 
			472.67,199.24 478.31,201.59 478.31,206.53 482.64,205.82 486.1,208.18 491.73,204.41 493.9,196.65 497.36,200.65 499.53,181.35 
			502.56,180.18 502.56,172.65 514.26,158.76 520.75,170.29 526.82,167 533.75,169.12 537.65,164.65 541.55,165.82 		"/>
		<polyline class="st3" points="55.98,220.18 61.61,215.24 68.11,218.76 70.71,190.06 76.77,196.41 81.97,195.71 88.03,197.82 
			89.77,190.06 94.53,194.29 107.96,196.41 110.12,181.82 115.32,185.82 121.39,186.06 128.75,189.12 128.75,196.65 136.98,199.94 
			143.48,199.24 150.41,192.41 157.34,196.41 167.3,198.06 169.47,203 179.86,206.29 186.36,201 195.89,208.65 205.85,221.35 
			205.85,256.65 218.52,275.24 223.18,260.88 228.81,265.82 234.01,257.35 243.1,258.29 245.27,245.35 251.33,240.18 255.23,228.53 
			263.46,234.53 266.93,225.12 274.29,226.53 284.25,222.76 300.06,208.88 305.04,187.24 316.31,199.24 320.64,210.06 325.4,211.71 
			330.17,223.71 333.63,237.59 340.13,245.82 343.59,299.47 347.06,303 347.06,323.71 356.16,327 360.49,340.41 363.09,263.24 
			366.55,271 366.55,247.47 370.38,242.76 372.62,231.94 381.6,223.71 384.31,226.76 387.78,224.18 396.87,230.29 408.57,239.24 
			419.4,240.88 423.29,255 427.19,247.47 434.12,258.76 434.12,246.76 441.05,242.06 444.95,244.18 451.88,241.82 456.21,234.76 
			463.58,236.88 463.58,242.29 472.24,246.29 474.84,258.53 477.44,261.12 480.47,278.53 484.8,280.88 491.3,277.59 491.3,270.76 
			496.06,269.12 500.4,247.71 504.29,237.12 513.39,227.47 519.02,240.88 525.95,241.82 528.12,237.82 535.91,245.82 538.51,242.53 
			541.55,243.24 		"/>
		<line class="st5" x1="55.98" y1="188.18" x2="541.55" y2="188.18"/>
		<line class="st6" x1="55.11" y1="230.53" x2="538.51" y2="230.53"/>
	</g>
	<g>
		<path d="M3.31,361.34h3.28v-11.22H4.01v-1.06c1.26-0.22,2.2-0.54,2.96-1h1.24v13.28h2.98v1.36H3.31V361.34z"/>
		<path d="M14.95,361.34h3.28v-11.22h-2.58v-1.06c1.26-0.22,2.2-0.54,2.96-1h1.24v13.28h2.98v1.36h-7.88V361.34z"/>
		<path d="M25.61,352.38c0-2.94,1.28-4.58,3.28-4.58s3.28,1.64,3.28,4.58c0,2.96-1.28,4.64-3.28,4.64S25.61,355.34,25.61,352.38z
			 M30.91,352.38c0-2.36-0.82-3.56-2.02-3.56c-1.2,0-2.02,1.2-2.02,3.56s0.82,3.6,2.02,3.6C30.09,355.98,30.91,354.74,30.91,352.38z
			 M37.41,347.8h1.14l-8.1,15.16h-1.14L37.41,347.8z M35.73,358.32c0-2.92,1.28-4.58,3.28-4.58c1.96,0,3.28,1.66,3.28,4.58
			c0,2.98-1.32,4.64-3.28,4.64C37.01,362.97,35.73,361.3,35.73,358.32z M41.04,358.32c0-2.36-0.82-3.54-2.02-3.54
			c-1.22,0-2.02,1.18-2.02,3.54c0,2.38,0.8,3.62,2.02,3.62C40.22,361.95,41.04,360.71,41.04,358.32z"/>
	</g>
	<g>
		<path d="M33.95,388.17h3.28v-11.22h-2.58v-1.06c1.26-0.22,2.2-0.54,2.96-1h1.24v13.28h2.98v1.36h-7.88V388.17z"/>
		<path d="M45.89,387.31c0.64,0.7,1.52,1.12,2.5,1.12c1.92,0,3.62-1.62,3.76-6.34c-0.92,1.12-2.16,1.86-3.44,1.86
			c-2.44,0-4-1.58-4-4.6c0-2.8,1.88-4.72,4.12-4.72c2.82,0,4.86,2.32,4.86,6.9c0,6-2.54,8.26-5.26,8.26c-1.54,0-2.64-0.62-3.44-1.46
			L45.89,387.31z M52.13,380.71c-0.16-3.06-1.32-4.8-3.3-4.8c-1.46,0-2.56,1.4-2.56,3.44c0,2.02,0.88,3.38,2.7,3.38
			C49.97,382.73,51.11,382.15,52.13,380.71z"/>
		<path d="M57.53,387.31c0.64,0.7,1.52,1.12,2.5,1.12c1.92,0,3.62-1.62,3.76-6.34c-0.92,1.12-2.16,1.86-3.44,1.86
			c-2.44,0-4-1.58-4-4.6c0-2.8,1.88-4.72,4.12-4.72c2.82,0,4.86,2.32,4.86,6.9c0,6-2.54,8.26-5.26,8.26c-1.54,0-2.64-0.62-3.44-1.46
			L57.53,387.31z M63.77,380.71c-0.16-3.06-1.32-4.8-3.3-4.8c-1.46,0-2.56,1.4-2.56,3.44c0,2.02,0.88,3.38,2.7,3.38
			C61.61,382.73,62.75,382.15,63.77,380.71z"/>
		<path d="M77.43,385.45h-2v4.08h-1.54v-4.08h-6.42v-1.06l6.22-9.5h1.74v9.26h2V385.45z M73.89,384.15v-4.76
			c0-0.72,0.06-1.88,0.12-2.6h-0.1c-0.36,0.7-0.76,1.42-1.16,2.12l-3.54,5.24H73.89z"/>
	</g>
	<g>
		<path d="M111.92,388.17h3.28v-11.22h-2.58v-1.06c1.26-0.22,2.2-0.54,2.96-1h1.24v13.28h2.98v1.36h-7.88V388.17z"/>
		<path d="M123.86,387.31c0.64,0.7,1.52,1.12,2.5,1.12c1.92,0,3.62-1.62,3.76-6.34c-0.92,1.12-2.16,1.86-3.44,1.86
			c-2.44,0-4-1.58-4-4.6c0-2.8,1.88-4.72,4.12-4.72c2.82,0,4.86,2.32,4.86,6.9c0,6-2.54,8.26-5.26,8.26c-1.54,0-2.64-0.62-3.44-1.46
			L123.86,387.31z M130.1,380.71c-0.16-3.06-1.32-4.8-3.3-4.8c-1.46,0-2.56,1.4-2.56,3.44c0,2.02,0.88,3.38,2.7,3.38
			C127.94,382.73,129.08,382.15,130.1,380.71z"/>
		<path d="M135.5,387.31c0.64,0.7,1.52,1.12,2.5,1.12c1.92,0,3.62-1.62,3.76-6.34c-0.92,1.12-2.16,1.86-3.44,1.86
			c-2.44,0-4-1.58-4-4.6c0-2.8,1.88-4.72,4.12-4.72c2.82,0,4.86,2.32,4.86,6.9c0,6-2.54,8.26-5.26,8.26c-1.54,0-2.64-0.62-3.44-1.46
			L135.5,387.31z M141.74,380.71c-0.16-3.06-1.32-4.8-3.3-4.8c-1.46,0-2.56,1.4-2.56,3.44c0,2.02,0.88,3.38,2.7,3.38
			C139.58,382.73,140.72,382.15,141.74,380.71z"/>
		<path d="M155.4,385.45h-2v4.08h-1.54v-4.08h-6.42v-1.06l6.22-9.5h1.74v9.26h2V385.45z M151.86,384.15v-4.76
			c0-0.72,0.06-1.88,0.12-2.6h-0.1c-0.36,0.7-0.76,1.42-1.16,2.12l-3.54,5.24H151.86z"/>
	</g>
	<g>
		<path d="M189.02,388.55c4.68-4.08,6.76-7.04,6.76-9.58c0-1.72-0.9-3.02-2.78-3.02c-1.22,0-2.28,0.76-3.12,1.74l-0.96-0.92
			c1.18-1.28,2.44-2.14,4.26-2.14c2.6,0,4.2,1.68,4.2,4.28c0,2.96-2.32,5.98-5.9,9.34c0.78-0.08,1.66-0.12,2.4-0.12h4.2v1.4h-9.06
			V388.55z"/>
		<path d="M200.76,382.15c0-5.08,1.74-7.52,4.5-7.52c2.74,0,4.46,2.46,4.46,7.52c0,5.12-1.72,7.64-4.46,7.64
			C202.5,389.79,200.76,387.27,200.76,382.15z M208.14,382.15c0-4.28-1.16-6.2-2.88-6.2c-1.74,0-2.92,1.92-2.92,6.2
			c0,4.36,1.18,6.32,2.92,6.32C206.98,388.47,208.14,386.51,208.14,382.15z"/>
		<path d="M212.4,382.15c0-5.08,1.74-7.52,4.5-7.52c2.74,0,4.46,2.46,4.46,7.52c0,5.12-1.72,7.64-4.46,7.64
			C214.14,389.79,212.4,387.27,212.4,382.15z M219.78,382.15c0-4.28-1.16-6.2-2.88-6.2c-1.74,0-2.92,1.92-2.92,6.2
			c0,4.36,1.18,6.32,2.92,6.32C218.62,388.47,219.78,386.51,219.78,382.15z"/>
		<path d="M223.94,388.55c4.68-4.08,6.76-7.04,6.76-9.58c0-1.72-0.9-3.02-2.78-3.02c-1.22,0-2.28,0.76-3.12,1.74l-0.96-0.92
			c1.18-1.28,2.44-2.14,4.26-2.14c2.6,0,4.2,1.68,4.2,4.28c0,2.96-2.32,5.98-5.9,9.34c0.78-0.08,1.66-0.12,2.4-0.12h4.2v1.4h-9.06
			V388.55z"/>
	</g>
	<g>
		<path d="M267,388.55c4.68-4.08,6.76-7.04,6.76-9.58c0-1.72-0.9-3.02-2.78-3.02c-1.22,0-2.28,0.76-3.12,1.74l-0.96-0.92
			c1.18-1.28,2.44-2.14,4.26-2.14c2.6,0,4.2,1.68,4.2,4.28c0,2.96-2.32,5.98-5.9,9.34c0.78-0.08,1.66-0.12,2.4-0.12h4.2v1.4H267
			V388.55z"/>
		<path d="M278.74,382.15c0-5.08,1.74-7.52,4.5-7.52c2.74,0,4.46,2.46,4.46,7.52c0,5.12-1.72,7.64-4.46,7.64
			C280.48,389.79,278.74,387.27,278.74,382.15z M286.12,382.15c0-4.28-1.16-6.2-2.88-6.2c-1.74,0-2.92,1.92-2.92,6.2
			c0,4.36,1.18,6.32,2.92,6.32C284.96,388.47,286.12,386.51,286.12,382.15z"/>
		<path d="M290.38,382.15c0-5.08,1.74-7.52,4.5-7.52c2.74,0,4.46,2.46,4.46,7.52c0,5.12-1.72,7.64-4.46,7.64
			C292.12,389.79,290.38,387.27,290.38,382.15z M297.76,382.15c0-4.28-1.16-6.2-2.88-6.2c-1.74,0-2.92,1.92-2.92,6.2
			c0,4.36,1.18,6.32,2.92,6.32C296.6,388.47,297.76,386.51,297.76,382.15z"/>
		<path d="M309.94,377.11c-0.6-0.7-1.48-1.12-2.36-1.12c-2.06,0-3.8,1.58-3.88,6.26c0.92-1.1,2.2-1.78,3.38-1.78
			c2.48,0,4.04,1.54,4.04,4.6c0,2.8-1.9,4.72-4.12,4.72c-2.82,0-4.84-2.44-4.84-7.22c0-5.78,2.56-7.94,5.36-7.94
			c1.46,0,2.54,0.62,3.34,1.46L309.94,377.11z M309.56,385.07c0-2.04-0.86-3.38-2.74-3.38c-0.94,0-2.08,0.54-3.08,1.94
			c0.2,3.1,1.32,4.86,3.26,4.86C308.46,388.49,309.56,387.09,309.56,385.07z"/>
	</g>
	<g>
		<path d="M344.97,388.55c4.68-4.08,6.76-7.04,6.76-9.58c0-1.72-0.9-3.02-2.78-3.02c-1.22,0-2.28,0.76-3.12,1.74l-0.96-0.92
			c1.18-1.28,2.44-2.14,4.26-2.14c2.6,0,4.2,1.68,4.2,4.28c0,2.96-2.32,5.98-5.9,9.34c0.78-0.08,1.66-0.12,2.4-0.12h4.2v1.4h-9.06
			V388.55z"/>
		<path d="M356.71,382.15c0-5.08,1.74-7.52,4.5-7.52c2.74,0,4.46,2.46,4.46,7.52c0,5.12-1.72,7.64-4.46,7.64
			C358.46,389.79,356.71,387.27,356.71,382.15z M364.1,382.15c0-4.28-1.16-6.2-2.88-6.2c-1.74,0-2.92,1.92-2.92,6.2
			c0,4.36,1.18,6.32,2.92,6.32C362.94,388.47,364.1,386.51,364.1,382.15z"/>
		<path d="M369.13,388.17h3.28v-11.22h-2.58v-1.06c1.26-0.22,2.2-0.54,2.96-1h1.24v13.28h2.98v1.36h-7.88V388.17z"/>
		<path d="M379.99,382.15c0-5.08,1.74-7.52,4.5-7.52c2.74,0,4.46,2.46,4.46,7.52c0,5.12-1.72,7.64-4.46,7.64
			C381.74,389.79,379.99,387.27,379.99,382.15z M387.38,382.15c0-4.28-1.16-6.2-2.88-6.2c-1.74,0-2.92,1.92-2.92,6.2
			c0,4.36,1.18,6.32,2.92,6.32C386.22,388.47,387.38,386.51,387.38,382.15z"/>
	</g>
	<g>
		<path d="M422.95,388.55c4.68-4.08,6.76-7.04,6.76-9.58c0-1.72-0.9-3.02-2.78-3.02c-1.22,0-2.28,0.76-3.12,1.74l-0.96-0.92
			c1.18-1.28,2.44-2.14,4.26-2.14c2.6,0,4.2,1.68,4.2,4.28c0,2.96-2.32,5.98-5.9,9.34c0.78-0.08,1.66-0.12,2.4-0.12h4.2v1.4h-9.06
			V388.55z"/>
		<path d="M434.69,382.15c0-5.08,1.74-7.52,4.5-7.52c2.74,0,4.46,2.46,4.46,7.52c0,5.12-1.72,7.64-4.46,7.64
			C436.43,389.79,434.69,387.27,434.69,382.15z M442.07,382.15c0-4.28-1.16-6.2-2.88-6.2c-1.74,0-2.92,1.92-2.92,6.2
			c0,4.36,1.18,6.32,2.92,6.32C440.91,388.47,442.07,386.51,442.07,382.15z"/>
		<path d="M447.11,388.17h3.28v-11.22h-2.58v-1.06c1.26-0.22,2.2-0.54,2.96-1h1.24v13.28h2.98v1.36h-7.88V388.17z"/>
		<path d="M457.53,387.85l0.82-1.08c0.84,0.86,1.92,1.66,3.66,1.66c1.76,0,3.22-1.4,3.22-3.6c0-2.16-1.24-3.46-3.14-3.46
			c-1,0-1.64,0.32-2.48,0.88l-0.9-0.56l0.46-6.8h7v1.4h-5.56l-0.4,4.44c0.68-0.38,1.36-0.62,2.28-0.62c2.42,0,4.38,1.44,4.38,4.68
			c0,3.18-2.3,5-4.72,5C459.87,389.79,458.51,388.83,457.53,387.85z"/>
	</g>
	<g>
		<path d="M497.93,388.55c4.68-4.08,6.76-7.04,6.76-9.58c0-1.72-0.9-3.02-2.78-3.02c-1.22,0-2.28,0.76-3.12,1.74l-0.96-0.92
			c1.18-1.28,2.44-2.14,4.26-2.14c2.6,0,4.2,1.68,4.2,4.28c0,2.96-2.32,5.98-5.9,9.34c0.78-0.08,1.66-0.12,2.4-0.12h4.2v1.4h-9.06
			V388.55z"/>
		<path d="M509.67,382.15c0-5.08,1.74-7.52,4.5-7.52c2.74,0,4.46,2.46,4.46,7.52c0,5.12-1.72,7.64-4.46,7.64
			C511.41,389.79,509.67,387.27,509.67,382.15z M517.05,382.15c0-4.28-1.16-6.2-2.88-6.2c-1.74,0-2.92,1.92-2.92,6.2
			c0,4.36,1.18,6.32,2.92,6.32C515.89,388.47,517.05,386.51,517.05,382.15z"/>
		<path d="M522.09,388.17h3.28v-11.22h-2.58v-1.06c1.26-0.22,2.2-0.54,2.96-1h1.24v13.28h2.98v1.36h-7.88V388.17z"/>
		<path d="M534.03,387.31c0.64,0.7,1.52,1.12,2.5,1.12c1.92,0,3.62-1.62,3.76-6.34c-0.92,1.12-2.16,1.86-3.44,1.86
			c-2.44,0-4-1.58-4-4.6c0-2.8,1.88-4.72,4.12-4.72c2.82,0,4.86,2.32,4.86,6.9c0,6-2.54,8.26-5.26,8.26c-1.54,0-2.64-0.62-3.44-1.46
			L534.03,387.31z M540.27,380.71c-0.16-3.06-1.32-4.8-3.3-4.8c-1.46,0-2.56,1.4-2.56,3.44c0,2.02,0.88,3.38,2.7,3.38
			C538.11,382.73,539.25,382.15,540.27,380.71z"/>
	</g>
	<g>
		<path d="M3.31,133.17h3.28v-11.22H4.01v-1.06c1.26-0.22,2.2-0.54,2.96-1h1.24v13.28h2.98v1.36H3.31V133.17z"/>
		<path d="M15.25,132.31c0.64,0.7,1.52,1.12,2.5,1.12c1.92,0,3.62-1.62,3.76-6.34c-0.92,1.12-2.16,1.86-3.44,1.86
			c-2.44,0-4-1.58-4-4.6c0-2.8,1.88-4.72,4.12-4.72c2.82,0,4.86,2.32,4.86,6.9c0,6-2.54,8.26-5.26,8.26c-1.54,0-2.64-0.62-3.44-1.46
			L15.25,132.31z M21.49,125.71c-0.16-3.06-1.32-4.8-3.3-4.8c-1.46,0-2.56,1.4-2.56,3.44c0,2.02,0.88,3.38,2.7,3.38
			C19.33,127.73,20.47,127.15,21.49,125.71z"/>
		<path d="M25.61,124.21c0-2.94,1.28-4.58,3.28-4.58s3.28,1.64,3.28,4.58c0,2.96-1.28,4.64-3.28,4.64S25.61,127.17,25.61,124.21z
			 M30.91,124.21c0-2.36-0.82-3.56-2.02-3.56c-1.2,0-2.02,1.2-2.02,3.56s0.82,3.6,2.02,3.6C30.09,127.81,30.91,126.57,30.91,124.21z
			 M37.41,119.63h1.14l-8.1,15.16h-1.14L37.41,119.63z M35.73,130.15c0-2.92,1.28-4.58,3.28-4.58c1.96,0,3.28,1.66,3.28,4.58
			c0,2.98-1.32,4.64-3.28,4.64C37.01,134.79,35.73,133.13,35.73,130.15z M41.04,130.15c0-2.36-0.82-3.54-2.02-3.54
			c-1.22,0-2.02,1.18-2.02,3.54c0,2.38,0.8,3.62,2.02,3.62C40.22,133.77,41.04,132.53,41.04,130.15z"/>
	</g>
	<g>
		<path d="M3.31,192.05h3.28v-11.22H4.01v-1.06c1.26-0.22,2.2-0.54,2.96-1h1.24v13.28h2.98v1.36H3.31V192.05z"/>
		<path d="M21.33,180.17h-7.18v-1.4h9.06v0.98c-3.46,4.46-4.1,7.94-4.34,13.66h-1.7C17.41,187.77,18.45,184.17,21.33,180.17z"/>
		<path d="M25.61,183.09c0-2.94,1.28-4.58,3.28-4.58s3.28,1.64,3.28,4.58c0,2.96-1.28,4.64-3.28,4.64S25.61,186.05,25.61,183.09z
			 M30.91,183.09c0-2.36-0.82-3.56-2.02-3.56c-1.2,0-2.02,1.2-2.02,3.56s0.82,3.6,2.02,3.6C30.09,186.69,30.91,185.45,30.91,183.09z
			 M37.41,178.51h1.14l-8.1,15.16h-1.14L37.41,178.51z M35.73,189.03c0-2.92,1.28-4.58,3.28-4.58c1.96,0,3.28,1.66,3.28,4.58
			c0,2.98-1.32,4.64-3.28,4.64C37.01,193.67,35.73,192.01,35.73,189.03z M41.04,189.03c0-2.36-0.82-3.54-2.02-3.54
			c-1.22,0-2.02,1.18-2.02,3.54c0,2.38,0.8,3.62,2.02,3.62C40.22,192.65,41.04,191.41,41.04,189.03z"/>
	</g>
	<g>
		<path d="M3.31,256.29h3.28v-11.22H4.01V244c1.26-0.22,2.2-0.54,2.96-1h1.24v13.28h2.98v1.36H3.31V256.29z"/>
		<path d="M13.73,255.97l0.82-1.08c0.84,0.86,1.92,1.66,3.66,1.66c1.76,0,3.22-1.4,3.22-3.6c0-2.16-1.24-3.46-3.14-3.46
			c-1,0-1.64,0.32-2.48,0.88l-0.9-0.56l0.46-6.8h7v1.4h-5.56l-0.4,4.44c0.68-0.38,1.36-0.62,2.28-0.62c2.42,0,4.38,1.44,4.38,4.68
			c0,3.18-2.3,5-4.72,5C16.07,257.91,14.71,256.95,13.73,255.97z"/>
		<path d="M25.61,247.32c0-2.94,1.28-4.58,3.28-4.58s3.28,1.64,3.28,4.58c0,2.96-1.28,4.64-3.28,4.64S25.61,250.29,25.61,247.32z
			 M30.91,247.32c0-2.36-0.82-3.56-2.02-3.56c-1.2,0-2.02,1.2-2.02,3.56s0.82,3.6,2.02,3.6C30.09,250.92,30.91,249.68,30.91,247.32z
			 M37.41,242.74h1.14l-8.1,15.16h-1.14L37.41,242.74z M35.73,253.27c0-2.92,1.28-4.58,3.28-4.58c1.96,0,3.28,1.66,3.28,4.58
			c0,2.98-1.32,4.64-3.28,4.64C37.01,257.91,35.73,256.25,35.73,253.27z M41.04,253.27c0-2.36-0.82-3.54-2.02-3.54
			c-1.22,0-2.02,1.18-2.02,3.54c0,2.38,0.8,3.62,2.02,3.62C40.22,256.89,41.04,255.65,41.04,253.27z"/>
	</g>
	<rect x="149.86" y="419.94" width="16.78" height="16.78"/>
	<rect x="337.63" y="419.94" class="st2" width="16.78" height="16.78"/>
</g>
<g>
	<rect y="527.29" class="st0" width="542.41" height="57.53"/>
	
		<text transform="matrix(1 0 0 1 149.4659 567.6611)" class="st1" style="font-family:'SourceHanSansTW-Bold-B5pc-H'; font-size:29.4628px;">科技股具高利潤率</text>
	<text transform="matrix(0.9867 0 0 1 116.8104 621.0004)" style="font-family:'SourceHanSansTW-Bold-B5pc-H'; font-size:23px;">美股(不含金融)EBITDA利潤率</text>
	<text transform="matrix(0.9867 0 0 1 174.9094 962.7654)" style="font-family:'SourceHanSansTW-Bold-B5pc-H'; font-size:20px;">含科技</text>
	
		<text transform="matrix(0.9867 0 0 1 362.1288 962.7653)" class="st2" style="font-family:'SourceHanSansTW-Bold-B5pc-H'; font-size:20px;">不含科技</text>
	<g>
		<polyline class="st3" points="55.11,887 55.11,882.9 542.41,882.9 542.41,887 		"/>
		<line class="st3" x1="136.98" y1="887" x2="136.98" y2="882.9"/>
		<line class="st3" x1="218.52" y1="887" x2="218.52" y2="882.9"/>
		<line class="st3" x1="300.06" y1="887" x2="300.06" y2="882.9"/>
		<line class="st3" x1="381.6" y1="887" x2="381.6" y2="882.9"/>
		<line class="st3" x1="463.14" y1="887" x2="463.14" y2="882.9"/>
		<polyline class="st4" points="55.98,745.82 62.04,740.18 68.98,745.82 71.14,694.53 75.91,701.35 79.8,700.88 82.84,699 
			85.44,700.41 88.47,698.53 90.63,688.88 93.67,695 101.03,692.88 106.66,696.18 109.26,688.88 114.46,691.47 127.02,688.88 
			136.55,692.65 139.15,690.53 146.51,692.65 147.81,688.88 155.17,691.94 159.5,688.88 163.84,687.47 167.73,676.88 171.2,683.71 
			174.66,684.41 174.66,675.71 186.36,672.65 188.53,657.82 194.59,666.29 206.28,700.41 206.28,768.41 218.85,783.94 
			222.31,764.65 228.38,774.76 232.27,764.65 239.2,759.71 244.4,751.24 244.4,742.53 253.07,740.18 257.4,727.71 263.46,731.94 
			266.49,729.12 273.42,730.76 277.76,726.76 282.95,724.41 286.42,717.82 298.11,714.53 302.01,707.94 305.48,686.53 
			312.41,692.18 316.74,692.88 321.07,700.88 325.84,698.53 328.43,708.88 332.33,711.71 332.33,723 336.23,725.35 337.53,737.35 
			341.86,739.47 341.86,793.35 346.19,795.71 348.79,817.12 355.72,819.71 363.09,819.71 363.09,747.71 366.12,743.47 
			366.12,720.88 370.38,715.94 372.18,708.18 375.65,706.06 378.68,697.12 382.58,702.53 387.78,700.65 392.97,700.65 
			399.47,705.59 402.07,716.41 410.3,717.35 419.4,722.29 419.4,734.53 422.86,735.71 426.76,726.76 430.23,737.35 433.26,733.35 
			435.42,722.06 438.89,719 441.05,709.12 450.15,705.35 455.35,699.71 461.85,707.24 465.74,713.59 472.67,717.35 472.67,726.53 
			478.31,728.88 478.31,733.82 482.64,733.12 486.1,735.47 491.73,731.71 493.9,723.94 497.36,727.94 499.53,708.65 502.56,707.47 
			502.56,699.94 514.26,686.06 520.75,697.59 526.82,694.29 533.75,696.41 537.65,691.94 541.55,693.12 		"/>
		<polyline class="st3" points="55.98,747.47 61.61,742.53 68.11,746.06 70.71,717.35 76.77,723.71 81.97,723 88.03,725.12 
			89.77,717.35 94.53,721.59 107.96,723.71 110.12,709.12 115.32,713.12 121.39,713.35 128.75,716.41 128.75,723.94 136.98,727.24 
			143.48,726.53 150.41,719.71 157.34,723.71 167.3,725.35 169.47,730.29 179.86,733.59 186.36,728.29 195.89,735.94 205.85,748.65 
			205.85,783.94 218.52,802.53 223.18,788.18 228.81,793.12 234.01,784.65 243.1,785.59 245.27,772.65 251.33,767.47 255.23,755.82 
			263.46,761.82 266.93,752.41 274.29,753.82 284.25,750.06 300.06,736.18 305.04,714.53 316.31,726.53 320.64,737.35 325.4,739 
			330.17,751 333.63,764.88 340.13,773.12 343.59,826.76 347.06,830.29 347.06,851 356.16,854.29 360.49,867.71 363.09,790.53 
			366.55,798.29 366.55,774.76 370.38,770.06 372.62,759.24 381.6,751 384.31,754.06 387.78,751.47 396.87,757.59 408.57,766.53 
			419.4,768.18 423.29,782.29 427.19,774.76 434.12,786.06 434.12,774.06 441.05,769.35 444.95,771.47 451.88,769.12 456.21,762.06 
			463.58,764.18 463.58,769.59 472.24,773.59 474.84,785.82 477.44,788.41 480.47,805.82 484.8,808.18 491.3,804.88 491.3,798.06 
			496.06,796.41 500.4,775 504.29,764.41 513.39,754.76 519.02,768.18 525.95,769.12 528.12,765.12 535.91,773.12 538.51,769.82 
			541.55,770.53 		"/>
		<line class="st5" x1="55.98" y1="715.47" x2="541.55" y2="715.47"/>
		<line class="st6" x1="55.11" y1="757.82" x2="538.51" y2="757.82"/>
	</g>
	<text transform="matrix(1 0 0 1 1.5326 889.9995)" style="font-family:'SourceHanSansTW-Normal-B5pc-H'; font-size:20px;">11%</text>
	<text transform="matrix(1 0 0 1 32.1646 916.8231)" style="font-family:'SourceHanSansTW-Normal-B5pc-H'; font-size:20px;">1994</text>
	<text transform="matrix(1 0 0 1 110.1424 916.8231)" style="font-family:'SourceHanSansTW-Normal-B5pc-H'; font-size:20px;">1994</text>
	<text transform="matrix(1 0 0 1 188.1196 916.8231)" style="font-family:'SourceHanSansTW-Normal-B5pc-H'; font-size:20px;">2002</text>
	<text transform="matrix(1 0 0 1 266.097 916.8231)" style="font-family:'SourceHanSansTW-Normal-B5pc-H'; font-size:20px;">2006</text>
	<text transform="matrix(1 0 0 1 344.0744 916.8231)" style="font-family:'SourceHanSansTW-Normal-B5pc-H'; font-size:20px;">2010</text>
	<text transform="matrix(1 0 0 1 422.0518 916.8231)" style="font-family:'SourceHanSansTW-Normal-B5pc-H'; font-size:20px;">2015</text>
	<text transform="matrix(1 0 0 1 497.0289 916.8231)" style="font-family:'SourceHanSansTW-Normal-B5pc-H'; font-size:20px;">2019</text>
	<text transform="matrix(1 0 0 1 1.5326 661.8235)" style="font-family:'SourceHanSansTW-Normal-B5pc-H'; font-size:20px;">19%</text>
	<text transform="matrix(1 0 0 1 1.5326 720.7059)" style="font-family:'SourceHanSansTW-Normal-B5pc-H'; font-size:20px;">17%</text>
	<text transform="matrix(1 0 0 1 1.5326 784.9411)" style="font-family:'SourceHanSansTW-Normal-B5pc-H'; font-size:20px;">15%</text>
	<rect x="149.86" y="947.24" width="16.78" height="16.78"/>
	<rect x="337.63" y="947.24" class="st2" width="16.78" height="16.78"/>
</g>
</svg>
