<?xml version="1.0" encoding="utf-8"?>
<!-- Generator: Adobe Illustrator 24.0.2, SVG Export Plug-In . SVG Version: 6.00 Build 0)  -->
<svg version="1.1" id="圖層_1" xmlns="http://www.w3.org/2000/svg" xmlns:xlink="http://www.w3.org/1999/xlink" x="0px" y="0px"
	 viewBox="0 0 600 600" style="enable-background:new 0 0 600 600;" xml:space="preserve">
<style type="text/css">
	.st0{fill:#215987;}
	.st1{fill:#FFD56E;}
	.st2{fill:#E5BF63;}
	.st3{fill:#CB2E2E;}
	.st4{fill:#BC2626;}
	.st5{fill:#102F42;}
	.st6{fill:#E0D0B3;}
	.st7{fill:#F4E8CB;}
	.st8{fill:#E23333;}
</style>
<circle class="st0" cx="300" cy="299.6" r="218.6"/>
<g>
	<path class="st1" d="M261.3,420.5v-35.2c0-10.8-4-21.1-11.3-29.1l-15.2-16.6c-11-12.1-18-27.3-19.8-43.6l-0.7-5.9
		c-5.1-45.9,31-86,77.4-86h0c46.4,0,82.6,40.1,77.4,86l-0.7,5.9c-1.8,16.2-8.7,31.5-19.8,43.6l-15.2,16.6
		c-7.3,8-11.3,18.3-11.3,29.1v35.2c0,4.8-3.9,8.7-8.7,8.7H270C265.2,429.2,261.3,425.3,261.3,420.5z"/>
	<path class="st2" d="M335.3,217.3v7.1c0,57.4-32.5,109.2-82.6,135c2.1,2.8,3.9,5.9,5.3,9.2h67.7c1.9-4.5,4.6-8.7,7.9-12.4
		l15.2-16.6c11-12.1,18-27.3,19.8-43.6l0.7-5.9C372.5,260.3,358.4,232.8,335.3,217.3z"/>
	<path class="st3" d="M291.8,230.1h15c4,0,7.5,2.7,8.4,6.6c1.4,5.5-2.8,10.8-8.4,10.8h13.2c8.8,0,16.2,6.5,17.3,15.2v0
		c1.3,10.3-6.8,19.5-17.3,19.5h4.4c10.5,0,18.6,9.1,17.3,19.5v0c-1.1,8.7-8.5,15.2-17.3,15.2h-4.5c5.7,0,9.8,5.3,8.4,10.8
		c-1,3.9-4.5,6.6-8.4,6.6h-28v-86.6V230.1z"/>
	<path class="st4" d="M317.9,295h8.7v8.7h-8.7c-2.4,0-4.4,1.9-4.4,4.3c0,2.4,2,4.3,4.4,4.3v8.7c-7.2,0-13.1-5.8-13.1-13
		C304.8,300.8,310.7,295,317.9,295z"/>
	<path class="st5" d="M261.3,385.3v35.2c0,4.8,3.9,8.7,8.7,8.7h43.5c4.8,0,8.7-3.9,8.7-8.7v-35.2c0-5.8,1.2-11.5,3.4-16.7h-67.7
		C260.1,373.9,261.3,379.5,261.3,385.3z"/>
	<path class="st5" d="M261.3,385.3v35.2c0,4.8,3.9,8.7,8.7,8.7h43.5c4.8,0,8.7-3.9,8.7-8.7v-35.2c0-5.8,1.2-11.5,3.4-16.7h-67.7
		C260.1,373.9,261.3,379.5,261.3,385.3z"/>
	<rect x="287.4" y="173.8" class="st6" width="8.7" height="19.5"/>
	<rect x="383.2" y="282" class="st6" width="39.2" height="8.7"/>
	<g>
		<rect x="287.4" y="334" class="st3" width="8.7" height="51.9"/>
	</g>
	<rect x="287.4" y="173.8" class="st6" width="8.7" height="19.5"/>
	<polygon class="st7" points="339.2,197.4 331.4,193.5 340.1,176.2 347.9,180.1 	"/>
	<polygon class="st6" points="368.5,220.5 363,213.7 384.8,196.4 390.2,203.2 	"/>
	<polygon class="st7" points="384.4,255.9 382,247.6 412.4,238.9 414.8,247.2 	"/>
	<rect x="287.4" y="173.8" class="st6" width="8.7" height="19.5"/>
	<rect x="161.2" y="282" class="st6" width="39.2" height="8.7"/>
	<polygon class="st7" points="244.3,197.4 235.6,180.1 243.4,176.2 252.1,193.5 	"/>
	<polygon class="st6" points="215,220.5 193.3,203.2 198.7,196.4 220.5,213.7 	"/>
	<polygon class="st7" points="199.1,255.9 168.7,247.2 171.1,238.9 201.5,247.6 	"/>
	<path class="st8" d="M291.8,230.1h-15c-4,0-7.5,2.7-8.4,6.6c-1.4,5.5,2.8,10.8,8.4,10.8h-13.2c-8.8,0-16.2,6.5-17.3,15.2v0
		c-1.3,10.3,6.8,19.5,17.3,19.5h-4.4c-10.5,0-18.6,9.1-17.3,19.5v0c1.1,8.7,8.5,15.2,17.3,15.2h4.5c-5.7,0-9.8,5.3-8.4,10.8
		c1,3.9,4.5,6.6,8.4,6.6h28v-86.6V230.1z"/>
	<path class="st1" d="M196,338.3v7.8c0,17.2-13.9,31.2-31,31.2h-3.9h3.9c17.1,0,31,14,31,31.2v7.8v-7.8c0-17.2,13.9-31.2,31-31.2
		h3.9h-3.9c-17.1,0-31-14-31-31.2V338.3z"/>
	<path class="st1" d="M387.5,342.6L387.5,342.6c0,14.3-11.7,26-26.1,26l0,0l0,0c14.4,0,26.1,11.6,26.1,26v4.3v-4.3
		c0-14.3,11.7-26,26.1-26l0,0l0,0C399.2,368.6,387.5,357,387.5,342.6L387.5,342.6z"/>
	<rect x="383.2" y="312.3" class="st6" width="8.7" height="8.7"/>
	<rect x="348.3" y="407.6" class="st7" width="8.7" height="8.7"/>
	<rect x="226.5" y="398.9" class="st6" width="8.7" height="8.7"/>
	<rect x="178.6" y="312.3" class="st7" width="8.7" height="8.7"/>
	<rect x="161.2" y="334" class="st6" width="8.7" height="8.7"/>
	<rect x="413.6" y="325.3" class="st7" width="8.7" height="8.7"/>
	<rect x="209.1" y="424.9" class="st7" width="8.7" height="8.7"/>
	<rect x="400.6" y="420.5" class="st6" width="8.7" height="8.7"/>
	<rect x="287.4" y="403.2" class="st3" width="8.7" height="13"/>
	<path class="st4" d="M291.8,407.6c-7.2,0-13.1-5.8-13.1-13s5.9-13,13.1-13c7.2,0,13.1,5.8,13.1,13S299,407.6,291.8,407.6z
		 M291.8,390.2c-2.4,0-4.4,1.9-4.4,4.3c0,2.4,2,4.3,4.4,4.3c2.4,0,4.4-1.9,4.4-4.3C296.1,392.2,294.2,390.2,291.8,390.2z"/>
	<path class="st4" d="M317.9,260.4h4.4v8.7h-4.4c-2.4,0-4.4,1.9-4.4,4.3c0,2.4,2,4.3,4.4,4.3v8.7c-7.2,0-13.1-5.8-13.1-13
		C304.8,266.2,310.7,260.4,317.9,260.4z"/>
	<path class="st4" d="M265.6,260.4h-4.4v8.7h4.4c2.4,0,4.4,1.9,4.4,4.3c0,2.4-2,4.3-4.4,4.3v8.7c7.2,0,13.1-5.8,13.1-13
		C278.7,266.2,272.8,260.4,265.6,260.4z"/>
	<path class="st4" d="M265.6,295h-8.7v8.7h8.7c2.4,0,4.4,1.9,4.4,4.3c0,2.4-2,4.3-4.4,4.3v8.7c7.2,0,13.1-5.8,13.1-13
		C278.7,300.8,272.8,295,265.6,295z"/>
</g>
</svg>
