<?xml version="1.0" encoding="utf-8"?>
<!-- Generator: Adobe Illustrator 24.0.2, SVG Export Plug-In . SVG Version: 6.00 Build 0)  -->
<svg version="1.1" id="圖層_1" xmlns="http://www.w3.org/2000/svg" xmlns:xlink="http://www.w3.org/1999/xlink" x="0px" y="0px"
	 viewBox="0 0 500 600" style="enable-background:new 0 0 500 600;" xml:space="preserve">
<style type="text/css">
	.st0{fill:#004790;}
	.st1{fill-rule:evenodd;clip-rule:evenodd;fill:#123352;}
	
		.st2{fill-rule:evenodd;clip-rule:evenodd;fill:none;stroke:#F3DD45;stroke-width:2;stroke-linecap:round;stroke-linejoin:round;stroke-miterlimit:3;}
	
		.st3{fill-rule:evenodd;clip-rule:evenodd;fill:none;stroke:#66B3BD;stroke-width:2;stroke-linecap:round;stroke-linejoin:round;stroke-miterlimit:3;}
	
		.st4{fill-rule:evenodd;clip-rule:evenodd;fill:none;stroke:#FBAF13;stroke-width:2;stroke-linecap:round;stroke-linejoin:round;stroke-miterlimit:3;}
	.st5{enable-background:new    ;}
	.st6{fill:#FFFFFF;}
</style>
<text transform="matrix(1 0 0 1 110.3029 978.4761)" class="st0" style="font-family:'NotoSansCJKtc-Black-B5pc-H'; font-size:49.4632px;">人工智慧(AI)</text>
<text transform="matrix(1 0 0 1 146.1145 1029.5454)" style="font-family:'NotoSansCJKtc-Regular-B5pc-H'; font-size:36px;">2018~2023年</text>
<text transform="matrix(1 0 0 1 98.9144 1070.1278)" style="font-family:'NotoSansCJKtc-Regular-B5pc-H'; font-size:36px;">預估年複合成長率</text>
<text transform="matrix(1 0 0 1 386.9145 1072.7455)" style="font-family:'NotoSansCJKtc-Regular-B5pc-H'; font-size:18px;">(1)</text>
<path class="st0" d="M388.7,1170.3H119.2c-12.5,0-22.7-10.2-22.7-22.7v-32.1c0-12.5,10.2-22.7,22.7-22.7h269.5
	c12.5,0,22.7,10.2,22.7,22.7v32.1C411.4,1160.1,401.2,1170.3,388.7,1170.3z"/>
<text transform="matrix(1 0 0 1 123.3759 1156.2856)" class="st6" style="font-family:'NotoSansCJKtc-Black-B5pc-H'; font-size:69.2571px;">+28.4%</text>
<g>
	<circle class="st1" cx="254" cy="772.4" r="131.4"/>
	<g>
		<path class="st2" d="M221.5,700.2h43.2c2.8,0,5.4,1,7.8,3c2.4,2,3.9,4.4,4.4,7.1l0.3,1.5h15.5c2.8,0,5.4,1,7.8,2.9
			c0,0,0,0,0.1,0.1c2.4,2,3.9,4.4,4.4,7.1h6.2c2.8,0,5.4,1,7.9,3c2.5,2,4.1,4.4,4.7,7.2l3.1,12h1.3c2.8,0,5.2,1,7.2,3
			c2,2,3,4.4,3,7.2v12h0.4c2.8,0,5.2,1,7.1,3c2,2,3,4.4,3,7.2v12c0,2.8-1,5.2-3,7.1c-1.6,1.6-3.5,2.6-5.6,2.9
			c-0.4,0.1-0.8,0.1-1.3,0.1h-5l-1.3,7.2c-0.5,2.8-1.9,5.2-4.3,7.2c-2.3,2-4.9,2.9-7.7,2.9H316l0,0.1c-0.5,6.6-4,10.8-10.5,12.8
			c-6.5,2-9.1,8.7-7.7,20.2c0,0,0,0.1,0,0.1l-11,3.4l-9.4,3l-14.9-32.1h-13c-2.8,0-5.4-1-7.8-3c-2.4-2-3.9-4.4-4.4-7.1l-0.3-1.5
			h-15.5c-2.8,0-5.3-1-7.7-2.9c0,0,0,0-0.1,0c-2.4-2-3.9-4.4-4.4-7.1l-0.3-1.5h-15.5c-2.8,0-5.4-1-7.8-3c-2.4-2-3.9-4.4-4.4-7.1
			l-0.3-1.5h-12c-0.4,0-0.9-0.1-1.3-0.1c-2.1-0.3-4-1.3-5.6-2.9c-2-2-2.9-4.4-2.9-7.2v-12c0-2.8,1-5.2,2.9-7.2c2-2,4.4-3,7.1-3h0.4
			v-12c0-2.8,1-5.2,3-7.2c2-2,4.4-3,7.2-3h1.3l3.1-12c0.7-2.8,2.3-5.2,4.7-7.2c2.5-2,5.1-2.9,7.9-2.9H209l0.3-1.5
			c0.6-2.8,2-5.2,4.4-7.1C216.1,701.2,218.7,700.2,221.5,700.2z M208.3,752.2l-12,8.9 M228.4,783.8l13.8,6 M197.4,770.4l13.7,6
			 M255.5,763.7l13.8,6 M258.4,788.1l12.1-9 M308,777.8l-1.7-15 M296.7,749.7l-14-6.1 M301.4,792.7l-19.8,14.6l5.2,44.9
			 M278.9,782.8l2.8,24.5 M265.5,736.2l-13.8-6"/>
		<g>
			<path class="st3" d="M194.6,759.4c-2-1.6-4.3-2.2-6.8-1.9c-2.6,0.3-4.7,1.4-6.3,3.4c-0.5,0.7-0.9,1.3-1.3,2
				c-0.7,1.5-0.9,3.1-0.7,4.9c0.3,2.6,1.4,4.7,3.4,6.3c2,1.6,4.3,2.3,6.9,2c2.6-0.3,4.7-1.5,6.2-3.5c0.6-0.7,1-1.4,1.3-2.1
				c0.6-1.5,0.9-3,0.7-4.7c-0.2-1.7-0.8-3.3-1.7-4.6l0,0C195.8,760.4,195.2,759.9,194.6,759.4z"/>
		</g>
		<g>
			<path class="st3" d="M248.9,719c2,1.6,3.2,3.7,3.5,6.3c0.2,1.7,0,3.3-0.7,4.8c0,0,0,0,0,0.1c-0.3,0.7-0.7,1.3-1.3,2
				c-1.6,2-3.7,3.2-6.2,3.5c-2.6,0.3-4.9-0.3-6.9-1.9c-0.7-0.5-1.3-1.1-1.8-1.7c-1-1.3-1.5-2.8-1.7-4.6c-0.2-1.7,0-3.2,0.7-4.7
				c0.3-0.8,0.7-1.5,1.3-2.2c1.6-2,3.7-3.2,6.3-3.5C244.6,716.7,246.9,717.4,248.9,719z"/>
		</g>
		<g>
			<path class="st3" d="M237.6,761c-0.3-2.6,0.4-4.9,1.9-6.9c1.6-2,3.7-3.1,6.3-3.4c2.6-0.3,4.9,0.3,6.9,1.9c2,1.6,3.2,3.7,3.5,6.3
				c0.2,1.7,0,3.3-0.7,4.8c-0.3,0.7-0.7,1.4-1.3,2c-1.6,2-3.7,3.2-6.3,3.5c-2.6,0.3-4.9-0.4-6.9-2
				C239.1,765.7,237.9,763.6,237.6,761z"/>
		</g>
		<g>
			<path class="st3" d="M242.2,789.9c-0.7,1.5-0.9,3.1-0.7,4.8c0.2,1.8,0.8,3.3,1.8,4.6c0.5,0.6,1,1.2,1.6,1.7c2,1.6,4.3,2.3,6.9,2
				c2.6-0.3,4.7-1.4,6.3-3.5c1.6-2,2.3-4.3,2-6.9c-0.2-1.7-0.8-3.2-1.7-4.5c0,0-0.1-0.1-0.1-0.1c-0.5-0.6-1.1-1.2-1.7-1.7
				c-2-1.6-4.3-2.3-6.8-2c-2.6,0.3-4.7,1.5-6.3,3.5C242.9,788.4,242.5,789.1,242.2,789.9L242.2,789.9z"/>
		</g>
		<g>
			<path class="st3" d="M308,777.8c2.6-0.3,4.8,0.4,6.8,1.9c2,1.6,3.2,3.7,3.5,6.3c0.3,2.6-0.4,4.9-2,6.9c-1.6,2-3.6,3.2-6.2,3.5h0
				c-2.6,0.3-4.9-0.3-7-1.9c-0.7-0.5-1.2-1.1-1.7-1.7l0,0c-1-1.3-1.5-2.8-1.7-4.5c-0.3-2.6,0.4-4.8,1.9-6.8
				C303.2,779.2,305.3,778.1,308,777.8L308,777.8z"/>
		</g>
		<g>
			<path class="st3" d="M306.2,762.7c-2.5,0.2-4.7-0.4-6.7-2c-2-1.6-3.1-3.7-3.4-6.2c-0.2-1.7,0-3.3,0.7-4.7c0,0,0-0.1,0-0.1
				c0.3-0.7,0.7-1.4,1.2-2.1c1.6-2,3.7-3.2,6.3-3.5c2.6-0.3,4.9,0.4,6.9,2c2,1.6,3.2,3.7,3.4,6.3c0.3,2.6-0.3,4.9-1.9,6.9
				c-1.6,2-3.7,3.2-6.2,3.5C306.4,762.7,306.3,762.7,306.2,762.7z"/>
		</g>
		<g>
			<path class="st4" d="M214.8,737.3c-2.6,0.3-4.7,1.4-6.3,3.4c-1.6,2-2.2,4.3-1.9,6.9c0.2,1.7,0.8,3.2,1.7,4.5
				c0.5,0.6,1.1,1.2,1.7,1.7c2,1.6,4.4,2.3,6.9,2c2.6-0.3,4.7-1.5,6.2-3.5c1.6-2,2.3-4.3,2-6.9c-0.2-1.7-0.8-3.2-1.8-4.5
				c-0.5-0.6-1.1-1.2-1.8-1.7C219.6,737.6,217.4,737,214.8,737.3z"/>
		</g>
		<g>
			<path class="st4" d="M229,779.1c0.2,1.7,0,3.3-0.6,4.7c0,0,0,0.1,0,0.1c-0.3,0.7-0.8,1.4-1.3,2c-1.6,2-3.7,3.2-6.3,3.5
				c-2.6,0.3-4.9-0.4-6.9-2c-2-1.6-3.2-3.7-3.5-6.3c-0.2-1.8,0-3.4,0.7-4.9c0.3-0.7,0.7-1.4,1.2-2c1.6-2,3.7-3.2,6.3-3.5
				c2.6-0.3,4.9,0.4,6.9,1.9C227.6,774.4,228.7,776.5,229,779.1z"/>
		</g>
		<g>
			<path class="st4" d="M283.8,766.1c2,1.6,3.2,3.7,3.5,6.3c0.3,2.6-0.4,4.9-2,6.9c-1.6,2-3.7,3.2-6.2,3.5c-0.1,0-0.1,0-0.2,0
				c-2.5,0.2-4.8-0.4-6.8-2c-0.6-0.5-1.1-1.1-1.6-1.7c0,0-0.1-0.1-0.1-0.1c-1-1.3-1.5-2.8-1.7-4.5c-0.2-1.7,0-3.3,0.7-4.8
				c0.3-0.7,0.7-1.4,1.3-2.1c1.6-2,3.7-3.2,6.3-3.5C279.5,763.8,281.8,764.5,283.8,766.1z"/>
		</g>
		<g>
			<path class="st4" d="M266.8,734c1.6-2,3.7-3.2,6.3-3.5c2.6-0.3,4.9,0.4,6.9,2c2,1.6,3.2,3.7,3.5,6.3c0.2,1.8,0,3.4-0.7,4.9
				c-0.3,0.7-0.7,1.3-1.2,2c-1.6,2-3.7,3.2-6.2,3.5c-2.6,0.3-4.9-0.4-7-2c-2-1.6-3.1-3.7-3.4-6.2c-0.2-1.7,0-3.3,0.6-4.7
				c0,0,0-0.1,0.1-0.1C265.8,735.4,266.3,734.7,266.8,734z"/>
		</g>
	</g>
</g>
<g class="st5">
	<path class="st0" d="M138.5,330.5c0,2.3-0.1,5.1-0.4,8.3c0.7,7,3.9,24.5,21,32.1c-2.2,1.7-4.3,4.2-5.3,6.2
		c-10.4-5-15.9-13.7-18.9-21.8c-2.8,8.1-8,16.3-17.5,22.1c-1.3-1.9-3.6-4.3-6-5.9c19.9-11,18.6-32.2,18.8-41.1H138.5z"/>
	<path class="st0" d="M207.5,367v7.3h-45.7V367h18.4v-24.1h-15.5v-7.5h39.9v7.5h-16.1V367H207.5z"/>
	<path class="st0" d="M229.4,355.7c-1.4-1.2-3.7-3-5.7-4.4c-1.3,1.7-3,3.3-5.3,4.8H251v21.3h-7.4v-1.5h-19v1.5h-7.1v-20.8
		c-0.7,0.4-1.6,0.9-2.5,1.3c-0.9-1.4-3-3.6-4.6-4.7c4.3-1.6,6.7-3.7,8.1-5.7h-7.4v-5.5h3.4c-1.3-0.8-3-1.8-4.1-2.3
		c2.6-2.3,4.5-5.9,5.3-9.5l6.3,1.3c-0.2,0.9-0.5,1.8-0.8,2.6h11.6v5.5h-5.9v1.8v0.6h7.1v5.5h-6.4c2.3,1.2,5.8,3.1,6.9,3.8
		L229.4,355.7z M220.2,341.9v-0.7v-1.7h-1.5c-0.5,0.9-1.1,1.7-1.7,2.4H220.2z M224.5,361.7v1.7h19v-1.7H224.5z M243.6,370.3v-1.8
		h-19v1.8H243.6z M255.2,333.9v19.8h-19.8v-19.8H255.2z M248.1,340.2h-6v7.2h6V340.2z"/>
	<path class="st0" d="M259.9,372.9c2.5-2,4.7-5.2,6-8.3l6.2,2.7c-1.5,3.3-3.5,6.9-6.1,9.3L259.9,372.9z M294.6,358.2h-33.8v-4h33.8
		v-1h-29.4v-4.4h36.5v5.4h4.6v4h-4.6v5.5h-14.6c1.2,0.9,2.4,1.9,3.2,2.7l-4.9,4.2c-1.1-1.4-3.7-3.6-5.6-5l2.3-1.9h-17.1v-4.4h29.7
		V358.2z M269,346.6h-7.6v-4.1h7.6v-1.2h-5.6v-4h5.6v-1h-6.9v-4.1h6.9v-1.7h6.6v1.7h6.4v4.1h-6.4v1h5.8v4h-5.8v1.2h6.8v4.1h-6.8v1.5
		H269V346.6z M300.7,376.6c-0.8-1.6-2.3-3.7-4-5.6c-0.9,4.8-2.9,6.1-7.8,6.1h-7.6c-7.3,0-9-1.9-9-7.5v-4.7h7.1v4.7
		c0,1.4,0.4,1.5,2.7,1.5h6c1.8,0,2.1-0.4,2.4-3.4c1.1,0.8,3.2,1.6,4.9,2.1c-0.7-0.8-1.4-1.6-2.1-2.3l5.9-3.2
		c2.8,2.6,6.2,6.2,7.8,8.9L300.7,376.6z M290.2,346.6h-6.7v-4.1h6.7v-1.1h-5.4v-4h5.4v-1h-6.4v-4.1h6.4v-1.7h6.7v1.7h7.2v4.1h-7.2v1
		h6.4v4h-6.4v1.1h8.2v4.1h-8.2v1.6h-6.7V346.6z"/>
	<path class="st0" d="M312.2,357.1c0-9.9,2.7-18.1,7.5-25.9l5.5,2.3c-4.1,7.3-5.9,15.7-5.9,23.6c0,8,1.8,16.3,5.9,23.6l-5.5,2.3
		C314.9,375.2,312.2,367.1,312.2,357.1z"/>
	<path class="st0" d="M349.6,364.3h-10.9l-2.1,8.5h-9L339,336h10.6l11.4,36.8h-9.3L349.6,364.3z M347.9,357.5l-0.8-3.1
		c-1-3.7-1.9-8.1-2.9-11.8H344c-0.9,3.9-1.9,8.2-2.8,11.8l-0.8,3.1H347.9z"/>
	<path class="st0" d="M364.8,336h8.9v36.8h-8.9V336z"/>
	<path class="st0" d="M380.7,380.7c4.1-7.3,5.9-15.6,5.9-23.6c0-7.9-1.8-16.3-5.9-23.6l5.5-2.3c4.7,7.8,7.5,15.9,7.5,25.9
		c0,10-2.7,18.1-7.5,25.9L380.7,380.7z"/>
</g>
<g class="st5">
	<path d="M147.7,421.9c8.3-7.2,12.1-12.5,12.1-17c0-3-1.6-5.2-4.9-5.2c-2.2,0-4,1.3-5.5,3.1l-1.9-1.9c2.2-2.3,4.4-3.9,7.8-3.9
		c4.7,0,7.7,3.1,7.7,7.8c0,5.3-4.1,10.6-10.3,16.5c1.4-0.1,3-0.3,4.3-0.3h7.3v2.8h-16.6V421.9z"/>
	<path d="M167.9,410.6c0-9.2,3.2-13.6,8.2-13.6c5,0,8.2,4.5,8.2,13.6c0,9.2-3.2,13.8-8.2,13.8C171.1,424.3,167.9,419.8,167.9,410.6z
		 M181.1,410.6c0-7.7-2-10.9-5-10.9c-3,0-5,3.2-5,10.9c0,7.8,2,11.1,5,11.1C179.1,421.7,181.1,418.4,181.1,410.6z"/>
	<path d="M189.2,421.1h5.9v-19.7h-4.7v-2.1c2.3-0.4,4-1,5.5-1.9h2.5v23.6h5.3v2.7h-14.5V421.1z"/>
	<path d="M207.7,417.3c0-3.5,2.4-6,4.9-7.3v-0.2c-1.9-1.3-3.6-3.3-3.6-6.1c0-4,3.1-6.7,7.2-6.7c4.5,0,7.2,2.9,7.2,6.9
		c0,2.8-1.9,5.1-3.5,6.4v0.2c2.3,1.3,4.5,3.3,4.5,6.9c0,3.9-3.3,6.8-8.3,6.8C211.2,424.3,207.7,421.4,207.7,417.3z M221.2,417.4
		c0-3.5-3.2-4.9-7-6.4c-2.1,1.4-3.6,3.5-3.6,6c0,2.8,2.3,4.9,5.5,4.9C219.2,421.9,221.2,420.1,221.2,417.4z M220.6,404.2
		c0-2.6-1.7-4.7-4.5-4.7c-2.4,0-4.2,1.7-4.2,4.3c0,3.2,2.8,4.5,5.9,5.8C219.7,408,220.6,406.2,220.6,404.2z"/>
	<path d="M232.4,410.1c-1.2,0-2.2,0.7-3.1,2.4l-1.8-1.3c1.5-2.5,3.3-3.6,5-3.6c3.1,0,4.9,3.4,7.1,3.4c1.2,0,2.2-0.7,3.1-2.4l1.9,1.3
		c-1.5,2.5-3.3,3.6-5,3.6C236.4,413.5,234.7,410.1,232.4,410.1z"/>
	<path d="M247.6,421.9c8.3-7.2,12.1-12.5,12.1-17c0-3-1.6-5.2-4.9-5.2c-2.2,0-4,1.3-5.5,3.1l-1.9-1.9c2.2-2.3,4.4-3.9,7.8-3.9
		c4.7,0,7.7,3.1,7.7,7.8c0,5.3-4.1,10.6-10.3,16.5c1.4-0.1,3-0.3,4.3-0.3h7.3v2.8h-16.6V421.9z"/>
	<path d="M267.8,410.6c0-9.2,3.2-13.6,8.2-13.6c5,0,8.2,4.5,8.2,13.6c0,9.2-3.2,13.8-8.2,13.8C271,424.3,267.8,419.8,267.8,410.6z
		 M281,410.6c0-7.7-2-10.9-5-10.9c-3,0-5,3.2-5,10.9c0,7.8,2,11.1,5,11.1C279,421.7,281,418.4,281,410.6z"/>
	<path d="M287.6,421.9c8.3-7.2,12.1-12.5,12.1-17c0-3-1.6-5.2-4.9-5.2c-2.2,0-4,1.3-5.5,3.1l-1.9-1.9c2.2-2.3,4.4-3.9,7.8-3.9
		c4.7,0,7.7,3.1,7.7,7.8c0,5.3-4.1,10.6-10.3,16.5c1.4-0.1,3-0.3,4.3-0.3h7.3v2.8h-16.6V421.9z"/>
	<path d="M307,420.7l1.7-2.2c1.5,1.6,3.6,3,6.6,3c3.1,0,5.4-1.9,5.4-4.9c0-3.2-2.1-5.3-8.2-5.3v-2.5c5.4,0,7.3-2.2,7.3-5
		c0-2.6-1.7-4.2-4.5-4.2c-2.1,0.1-4,1.2-5.5,2.6l-1.8-2.1c2-1.8,4.3-3.2,7.4-3.2c4.4,0,7.7,2.4,7.7,6.6c0,3.2-1.9,5.3-4.7,6.4v0.1
		c3.1,0.7,5.6,3.1,5.6,6.7c0,4.7-3.8,7.5-8.5,7.5C311.3,424.3,308.7,422.6,307,420.7z"/>
	<path d="M360.1,418.4h-13v8.2h-2.7v-8.2h-16.6v-2.6h5.9v-9.6h10.7v-5.5h-8.7c-1.6,2.8-3.5,5.2-5.5,7.1c-0.5-0.4-1.6-1.3-2.3-1.7
		c3.4-3,6.4-7.6,8.1-12.4l2.7,0.6c-0.5,1.3-1.1,2.6-1.7,3.8h21.5v2.6h-11.4v5.5h10.5v2.5h-10.5v7.1h13V418.4z M344.4,415.8v-7.1
		h-8.1v7.1H344.4z"/>
</g>
<g class="st5">
	<path d="M110.7,455.1c0.6-1.3,1.3-3.3,1.9-5.3h-3.8v14.3c0,1.4-0.3,2.2-1.3,2.6c-1,0.4-2.6,0.5-5.1,0.5c-0.1-0.7-0.5-1.8-0.8-2.5
		c1.8,0,3.5,0,4,0c0.5,0,0.7-0.1,0.7-0.6v-14.2h-5.9v-2.4h9.2c-1.9-1.7-4.8-3.8-7.4-5.1l1.4-1.7c1.2,0.6,2.4,1.4,3.6,2.1
		c1.2-1.2,2.5-2.7,3.6-4.2h-9.6v-2.4h11.3l0.5-0.2l1.7,1.2c-1.5,2.4-3.6,5-5.6,6.9c1.1,0.8,2.1,1.6,2.8,2.3l-0.9,1.1h2.6l0.4-0.1
		l1.7,0.4c-1,2.8-2.1,5.9-3.1,7.8L110.7,455.1z M122.3,462.4c-2,1.9-5.3,3.8-8.2,4.9c-0.4-0.5-1.3-1.3-1.8-1.8c2.8-1,6-2.8,7.6-4.4
		L122.3,462.4z M121.8,441.7c0.3-1.1,0.5-2.3,0.7-3.4H115V436h18.1v2.3h-7.7c-0.3,1.2-0.7,2.4-1,3.4h7.5v18.6h-15.5v-18.6H121.8z
		 M129.4,443.8h-10.5v3.5h10.5V443.8z M129.4,449.2h-10.5v3.5h10.5V449.2z M129.4,454.8h-10.5v3.5h10.5V454.8z M127.5,461.2
		c2.2,1.3,4.9,3.2,6.4,4.5l-2.1,1.5c-1.4-1.3-4.1-3.3-6.3-4.7L127.5,461.2z"/>
	<path d="M147.1,435.3c-1,2.7-2.3,5.4-3.8,7.9v24h-2.6V447c-1.1,1.6-2.3,3.1-3.6,4.4c-0.3-0.6-1-2-1.5-2.6c3.5-3.4,6.9-8.8,8.9-14.3
		L147.1,435.3z M159.1,444.8v7.3h8v15h-2.7v-1.4h-13.1v1.5h-2.6v-15.1h7.7v-7.3h-9.8v-2.6h9.8v-7.9h2.7v7.9h10.2v2.6H159.1z
		 M164.5,454.6h-13.1v8.5h13.1V454.6z"/>
	<path d="M205.1,459h-13v8.2h-2.7V459h-16.6v-2.6h5.9v-9.6h10.7v-5.5h-8.7c-1.6,2.8-3.5,5.2-5.5,7.1c-0.5-0.4-1.6-1.3-2.3-1.7
		c3.4-3,6.4-7.6,8.1-12.4l2.7,0.6c-0.5,1.3-1.1,2.6-1.7,3.8h21.5v2.6h-11.4v5.5h10.5v2.5h-10.5v7.1h13V459z M189.4,456.4v-7.1h-8.1
		v7.1H189.4z"/>
	<path d="M219,457.1c-0.6-1-1.9-2.8-3.1-4.4v14.5h-2.5V453c-1.4,1.7-2.8,3.2-4.2,4.5c-0.3-0.7-1-2.1-1.4-2.5
		c3.3-2.7,6.8-7.3,8.9-11.8h-8.1v-2.4h9.4l0.5-0.1l1.5,1c-1,2.7-2.4,5.4-4.1,7.9v0.1c0.3,0.3,0.8,0.8,1.2,1.3c0.9-1.1,2-2.5,2.6-3.5
		l1.7,1.5c-1.1,1.1-2.2,2.3-3.1,3.3c1,1.2,1.9,2.2,2.3,2.7L219,457.1z M214.7,440.4c-0.5-1.3-1.6-3.4-2.6-4.9l2.1-1
		c1,1.5,2.2,3.5,2.7,4.7L214.7,440.4z M239.3,455.8c-1.4,2.7-3.6,4.9-6.2,6.6c2.5,1.2,5.3,2,8.3,2.5c-0.5,0.5-1.3,1.6-1.6,2.3
		c-3.4-0.6-6.5-1.8-9.2-3.3c-3.2,1.6-6.8,2.7-10.4,3.4c-0.3-0.6-0.9-1.7-1.3-2.2c3.2-0.5,6.5-1.4,9.4-2.7c-1.3-0.9-2.5-2-3.6-3.2
		c-1.1,0.9-2.2,1.7-3.3,2.3c-0.4-0.4-1.3-1.4-1.9-1.8c1.3-0.6,2.5-1.5,3.7-2.4c-0.7-0.9-1.3-1.8-1.8-2.8l2.2-0.8
		c0.4,0.7,0.8,1.4,1.3,2c1-1,1.8-2,2.5-3.1h-4.3V444c-0.4,0.5-0.8,0.9-1.2,1.4c-0.5-0.4-1.6-1.2-2.3-1.5c2.4-2.4,4.5-6,5.8-9.5
		l2.6,0.7c-0.3,1-0.8,2-1.2,3h14.1v2.3h-15.3c-0.5,0.8-1,1.5-1.4,2.3h14.7v10.3h-8.7c-0.4,0.8-0.9,1.5-1.4,2.2h8.4l0.5-0.1
		L239.3,455.8z M225.5,446.7h10.7v-2.3h-10.7V446.7z M225.5,451h10.7v-2.4h-10.7V451z M226.9,457.1c-0.2,0.2-0.4,0.4-0.6,0.6
		c1.3,1.3,2.8,2.4,4.4,3.5c1.9-1.2,3.5-2.5,4.8-4.1H226.9z"/>
	<path d="M263.8,435.4c-0.4,0.6-0.8,1.1-1.2,1.6c4.2,4.5,9.2,7.4,14.9,9.8c-0.7,0.6-1.4,1.6-1.8,2.4c-2.1-1-4-2-5.8-3.2v2.4h-18
		v-1.8c-1.8,1.1-3.6,2.1-5.5,2.9c-0.5-0.7-1.2-1.7-1.9-2.3c6.8-2.7,13.4-7.5,17-13L263.8,435.4z M250,452.8h22.2V467h-2.8v-1.9
		h-16.7v2H250V452.8z M252.7,455.2v7.5h16.7v-7.5H252.7z M269.9,446c-3.2-1.9-6-4.2-8.7-7.1c-2.3,2.7-5.2,5.1-8.2,7.1H269.9z"/>
	<path d="M310.8,446.5c-1.5,4.6-3.7,8.7-6.3,12.2c1.3,3.5,3,5.6,4.8,5.6c1,0,1.4-1.9,1.7-6.7c0.6,0.6,1.6,1.2,2.3,1.4
		c-0.5,6.1-1.5,7.9-4.2,7.9c-2.8,0-4.9-2.2-6.6-5.9c-2.2,2.3-4.6,4.4-7.4,6c-0.4-0.5-1.3-1.6-1.9-2.1c3.2-1.7,6-4,8.3-6.7
		c-1.3-4.1-2.2-9.4-2.6-15.2h-12.4v4.7h9.2v1.2c-0.2,8.1-0.4,11.1-1.2,12c-0.5,0.7-1.2,0.9-2.2,1c-0.9,0.1-2.5,0.1-4.3,0
		c0-0.8-0.3-1.8-0.8-2.5c1.7,0.1,3.2,0.2,3.8,0.2c0.5,0,0.9-0.1,1.1-0.4c0.5-0.5,0.7-2.8,0.8-9h-6.6v0.3c0,5-0.5,12.3-3.8,17
		c-0.5-0.5-1.6-1.5-2.2-1.8c3-4.4,3.3-10.5,3.3-15.2v-10h15c-0.1-2-0.2-4-0.2-6h2.8c0,2.1,0,4.1,0.1,6H313v2.6h-11.4
		c0.4,4.8,1,9.1,2,12.5c1.9-2.8,3.5-6.1,4.6-9.7L310.8,446.5z M304.6,434.5c2.2,1.1,5,2.8,6.4,4.1l-1.7,1.8
		c-1.4-1.3-4.1-3.1-6.4-4.3L304.6,434.5z"/>
	<path d="M347.3,455.7c-2.3,1.7-5.2,3.4-7.8,4.7c2.7,2,6.2,3.3,10.2,4.1c-0.5,0.6-1.3,1.7-1.7,2.4c-8.2-1.8-13.8-6.2-16.9-13h-5.8
		v9.6l9.7-2.3c0,0.7-0.1,1.8-0.1,2.3c-10.1,2.6-11.8,3.1-12.7,3.5l-0.1,0.1c-0.2-0.6-0.8-1.9-1.2-2.6c0.7-0.4,1.8-1.1,1.8-2.6V454
		H317v-2.4h6.3v-15.8h22.1v2.3H326v3.1h18.4v2.2H326v3h18.4v2.2H326v3.1h22.9v2.4h-15c1,1.9,2.3,3.6,3.9,5c2.6-1.4,5.5-3.3,7.4-4.8
		L347.3,455.7z"/>
	<path d="M385,459.6h-14.7v7.6h-2.8v-7.6h-14.6v-2.5h14.6v-3h2.8v3H385V459.6z M362.4,450.3c-2.7,1.5-5.7,3-8,4.2l-1.3-2.2
		c2.2-0.9,5.6-2.5,8.8-4L362.4,450.3z M374.7,454.7c-0.2-0.6-0.5-1.2-1-1.9c-9.4,0.9-10.6,1.1-11.3,1.4c-0.1-0.5-0.5-1.7-0.8-2.3
		c0.8-0.1,1.7-0.8,3-1.8c0.7-0.6,2.2-2,4-3.7c-4.1,0.3-4.9,0.5-5.5,0.7c-0.1-0.5-0.5-1.7-0.8-2.3c0.5-0.1,1-0.5,1.6-1.2
		c0.5-0.5,1.7-1.9,2.8-3.7h-13.1v-2.4h14.7c-0.5-0.9-1.1-2-1.7-2.8l2.6-0.7c0.8,1,1.7,2.5,2.1,3.5h13.4v2.4h-15.2
		c-1.1,1.6-2.3,3.1-3.4,4.4l4.6-0.3c0.8-0.9,1.7-1.9,2.4-3l2.2,1.3c-2.8,3.3-6,6.5-9.1,9l6.3-0.5c-0.6-0.8-1.2-1.6-1.8-2.3l2-0.8
		c1.6,1.8,3.4,4.4,4.1,6L374.7,454.7z M355.9,441.5c1.9,1.2,4.3,2.8,5.5,4.1l-1.9,1.6c-1.1-1.2-3.5-3-5.4-4.2L355.9,441.5z
		 M382.3,454.8c-1.5-1.4-4.5-3.6-7.1-5l1.9-1.4c2.4,1.4,5.5,3.4,7.1,4.9L382.3,454.8z M382.9,442.8c-1.6,1.7-3.7,3.4-5.4,4.5
		l-1.9-1.3c1.6-1.2,3.9-3.1,5.1-4.6L382.9,442.8z"/>
</g>
<g class="st5">
	<path d="M388.6,461.5c0-3.5,1-6.4,2.6-9.1l1,0.5c-1.6,2.6-2.3,5.6-2.3,8.7s0.7,6.1,2.3,8.7l-1,0.5
		C389.6,467.9,388.6,465,388.6,461.5z"/>
	<path d="M394.6,465.7h2.9v-9.8h-2.3v-1c1.2-0.2,2-0.5,2.7-0.9h1.3v11.8h2.6v1.4h-7.2V465.7z"/>
	<path d="M403.8,470.1c1.5-2.6,2.3-5.6,2.3-8.7s-0.8-6.1-2.3-8.7l1-0.5c1.7,2.7,2.7,5.6,2.7,9.1c0,3.5-1,6.4-2.7,9.1L403.8,470.1z"
		/>
</g>
<path class="st0" d="M388.7,564.7H119.2c-12.5,0-22.7-10.2-22.7-22.7v-32.1c0-12.5,10.2-22.7,22.7-22.7h269.5
	c12.5,0,22.7,10.2,22.7,22.7V542C411.4,554.5,401.2,564.7,388.7,564.7z"/>
<g class="st5">
	<path class="st6" d="M139.9,528.8h-13.9v-8.7h13.9v-14.5h9v14.5h13.9v8.7h-13.9v14.5h-9V528.8z"/>
	<path class="st6" d="M168.5,543.6c12.9-11.7,21.5-21.1,21.5-28.5c0-4.7-2.6-7.3-6.7-7.3c-3.5,0-6.3,2.4-8.7,5l-6.7-6.6
		c5.1-5.3,9.8-8,17.1-8c10,0,16.9,6.4,16.9,16.2c0,8.9-7.6,18.6-15.5,26.6c2.6-0.3,6.1-0.7,8.4-0.7h9.5v10.4h-35.7V543.6z"/>
	<path class="st6" d="M211.1,537.8c0-6.4,3.7-10.5,8.4-13v-0.3c-4-3-6.7-6.9-6.7-12.4c0-8.6,6.8-13.9,16.3-13.9
		c9.3,0,15.4,5.4,15.4,13.8c0,4.9-3,9-6.5,11.4v0.3c4.9,2.6,8.7,6.9,8.7,13.9c0,8-7.2,14-18,14C218.6,551.6,211.1,546,211.1,537.8z
		 M235.3,537.1c0-4.5-3.9-6.4-10.3-9.1c-2.1,2-3.5,5.1-3.5,8.4c0,4.2,3.4,6.6,7.4,6.6C232.5,543,235.3,541.2,235.3,537.1z
		 M234.6,512.7c0-3.7-2.1-6.1-5.8-6.1c-2.8,0-5.2,1.7-5.2,5.4c0,4.1,3.2,6.3,8.2,8.3C233.8,518,234.6,515.4,234.6,512.7z"/>
	<path class="st6" d="M254.8,543.9c0-4.2,3-7.6,7.3-7.6c4.2,0,7.3,3.4,7.3,7.6c0,4.3-3.1,7.7-7.3,7.7
		C257.8,551.6,254.8,548.2,254.8,543.9z"/>
	<path class="st6" d="M314.6,537.7h-5.7v12.9h-11.5v-12.9h-21.6v-8.5l17.9-30.1h15.2v29.3h5.7V537.7z M297.3,528.4v-7.5
		c0-3.3,0.3-8.2,0.5-11.4h-0.3c-1.3,2.9-2.7,5.9-4.2,8.8l-5.9,10.2H297.3z"/>
	<path class="st6" d="M318.3,514.4c0-10.3,5.5-16.3,13-16.3c7.5,0,13.1,6,13.1,16.3c0,10.3-5.5,16.5-13.1,16.5
		C323.8,530.9,318.3,524.7,318.3,514.4z M335.9,514.4c0-7.2-2.1-9.5-4.5-9.5s-4.5,2.3-4.5,9.5s2.1,9.7,4.5,9.7
		S335.9,521.6,335.9,514.4z M360.9,498.1h7.1l-27.8,53.5h-7L360.9,498.1z M356.7,535.1c0-10.3,5.5-16.3,13-16.3c7.5,0,13,6,13,16.3
		c0,10.3-5.5,16.5-13,16.5C362.2,551.6,356.7,545.4,356.7,535.1z M374.2,535.1c0-7.3-2-9.5-4.4-9.5c-2.4,0-4.6,2.2-4.6,9.5
		c0,7.2,2.1,9.6,4.6,9.6C372.1,544.7,374.2,542.3,374.2,535.1z"/>
</g>
<g>
	<circle class="st1" cx="254" cy="166.7" r="131.4"/>
	<g>
		<path class="st2" d="M221.5,94.5h43.2c2.8,0,5.4,1,7.8,3c2.4,2,3.9,4.4,4.4,7.1l0.3,1.5h15.5c2.8,0,5.4,1,7.8,2.9c0,0,0,0,0.1,0.1
			c2.4,2,3.9,4.4,4.4,7.1h6.2c2.8,0,5.4,1,7.9,3c2.5,2,4.1,4.4,4.7,7.2l3.1,12h1.3c2.8,0,5.2,1,7.2,3c2,2,3,4.4,3,7.2v12h0.4
			c2.8,0,5.2,1,7.1,3c2,2,3,4.4,3,7.2v12c0,2.8-1,5.2-3,7.1c-1.6,1.6-3.5,2.6-5.6,2.9c-0.4,0.1-0.8,0.1-1.3,0.1h-5l-1.3,7.2
			c-0.5,2.8-1.9,5.2-4.3,7.2c-2.3,2-4.9,2.9-7.7,2.9H316l0,0.1c-0.5,6.6-4,10.8-10.5,12.8c-6.5,2-9.1,8.7-7.7,20.2c0,0,0,0.1,0,0.1
			l-11,3.4l-9.4,3l-14.9-32.1h-13c-2.8,0-5.4-1-7.8-3c-2.4-2-3.9-4.4-4.4-7.1l-0.3-1.5h-15.5c-2.8,0-5.3-1-7.7-2.9c0,0,0,0-0.1,0
			c-2.4-2-3.9-4.4-4.4-7.1l-0.3-1.5h-15.5c-2.8,0-5.4-1-7.8-3c-2.4-2-3.9-4.4-4.4-7.1l-0.3-1.5h-12c-0.4,0-0.9-0.1-1.3-0.1
			c-2.1-0.3-4-1.3-5.6-2.9c-2-2-2.9-4.4-2.9-7.2v-12c0-2.8,1-5.2,2.9-7.2c2-2,4.4-3,7.1-3h0.4v-12c0-2.8,1-5.2,3-7.2
			c2-2,4.4-3,7.2-3h1.3l3.1-12c0.7-2.8,2.3-5.2,4.7-7.2c2.5-2,5.1-2.9,7.9-2.9H209l0.3-1.5c0.6-2.8,2-5.2,4.4-7.1
			C216.1,95.5,218.7,94.5,221.5,94.5z M208.3,146.5l-12,8.9 M228.4,178.1l13.8,6 M197.4,164.7l13.7,6 M255.5,158l13.8,6
			 M258.4,182.4l12.1-9 M308,172.1l-1.7-15 M296.7,144.1l-14-6.1 M301.4,187l-19.8,14.6l5.2,44.9 M278.9,177.1l2.8,24.5
			 M265.5,130.5l-13.8-6"/>
		<g>
			<path class="st3" d="M194.6,153.7c-2-1.6-4.3-2.2-6.8-1.9c-2.6,0.3-4.7,1.4-6.3,3.4c-0.5,0.7-0.9,1.3-1.3,2
				c-0.7,1.5-0.9,3.1-0.7,4.9c0.3,2.6,1.4,4.7,3.4,6.3c2,1.6,4.3,2.3,6.9,2c2.6-0.3,4.7-1.5,6.2-3.5c0.6-0.7,1-1.4,1.3-2.1
				c0.6-1.5,0.9-3,0.7-4.7c-0.2-1.7-0.8-3.3-1.7-4.6l0,0C195.8,154.8,195.2,154.2,194.6,153.7z"/>
		</g>
		<g>
			<path class="st3" d="M248.9,113.3c2,1.6,3.2,3.7,3.5,6.3c0.2,1.7,0,3.3-0.7,4.8c0,0,0,0,0,0.1c-0.3,0.7-0.7,1.3-1.3,2
				c-1.6,2-3.7,3.2-6.2,3.5c-2.6,0.3-4.9-0.3-6.9-1.9c-0.7-0.5-1.3-1.1-1.8-1.7c-1-1.3-1.5-2.8-1.7-4.6c-0.2-1.7,0-3.2,0.7-4.7
				c0.3-0.8,0.7-1.5,1.3-2.2c1.6-2,3.7-3.2,6.3-3.5C244.6,111.1,246.9,111.7,248.9,113.3z"/>
		</g>
		<g>
			<path class="st3" d="M237.6,155.3c-0.3-2.6,0.4-4.9,1.9-6.9c1.6-2,3.7-3.1,6.3-3.4c2.6-0.3,4.9,0.3,6.9,1.9
				c2,1.6,3.2,3.7,3.5,6.3c0.2,1.7,0,3.3-0.7,4.8c-0.3,0.7-0.7,1.4-1.3,2c-1.6,2-3.7,3.2-6.3,3.5c-2.6,0.3-4.9-0.4-6.9-2
				C239.1,160,237.9,157.9,237.6,155.3z"/>
		</g>
		<g>
			<path class="st3" d="M242.2,184.2c-0.7,1.5-0.9,3.1-0.7,4.8c0.2,1.8,0.8,3.3,1.8,4.6c0.5,0.6,1,1.2,1.6,1.7c2,1.6,4.3,2.3,6.9,2
				c2.6-0.3,4.7-1.4,6.3-3.5c1.6-2,2.3-4.3,2-6.9c-0.2-1.7-0.8-3.2-1.7-4.5c0,0-0.1-0.1-0.1-0.1c-0.5-0.6-1.1-1.2-1.7-1.7
				c-2-1.6-4.3-2.3-6.8-2c-2.6,0.3-4.7,1.5-6.3,3.5C242.9,182.8,242.5,183.4,242.2,184.2L242.2,184.2z"/>
		</g>
		<g>
			<path class="st3" d="M308,172.1c2.6-0.3,4.8,0.4,6.8,1.9c2,1.6,3.2,3.7,3.5,6.3c0.3,2.6-0.4,4.9-2,6.9c-1.6,2-3.6,3.2-6.2,3.5h0
				c-2.6,0.3-4.9-0.3-7-1.9c-0.7-0.5-1.2-1.1-1.7-1.7l0,0c-1-1.3-1.5-2.8-1.7-4.5c-0.3-2.6,0.4-4.8,1.9-6.8
				C303.2,173.6,305.3,172.4,308,172.1L308,172.1z"/>
		</g>
		<g>
			<path class="st3" d="M306.2,157.1c-2.5,0.2-4.7-0.4-6.7-2c-2-1.6-3.1-3.7-3.4-6.2c-0.2-1.7,0-3.3,0.7-4.7c0,0,0-0.1,0-0.1
				c0.3-0.7,0.7-1.4,1.2-2.1c1.6-2,3.7-3.2,6.3-3.5c2.6-0.3,4.9,0.4,6.9,2c2,1.6,3.2,3.7,3.4,6.3c0.3,2.6-0.3,4.9-1.9,6.9
				c-1.6,2-3.7,3.2-6.2,3.5C306.4,157.1,306.3,157.1,306.2,157.1z"/>
		</g>
		<g>
			<path class="st4" d="M214.8,131.6c-2.6,0.3-4.7,1.4-6.3,3.4c-1.6,2-2.2,4.3-1.9,6.9c0.2,1.7,0.8,3.2,1.7,4.5
				c0.5,0.6,1.1,1.2,1.7,1.7c2,1.6,4.4,2.3,6.9,2c2.6-0.3,4.7-1.5,6.2-3.5c1.6-2,2.3-4.3,2-6.9c-0.2-1.7-0.8-3.2-1.8-4.5
				c-0.5-0.6-1.1-1.2-1.8-1.7C219.6,132,217.4,131.3,214.8,131.6z"/>
		</g>
		<g>
			<path class="st4" d="M229,173.4c0.2,1.7,0,3.3-0.6,4.7c0,0,0,0.1,0,0.1c-0.3,0.7-0.8,1.4-1.3,2c-1.6,2-3.7,3.2-6.3,3.5
				c-2.6,0.3-4.9-0.4-6.9-2c-2-1.6-3.2-3.7-3.5-6.3c-0.2-1.8,0-3.4,0.7-4.9c0.3-0.7,0.7-1.4,1.2-2c1.6-2,3.7-3.2,6.3-3.5
				c2.6-0.3,4.9,0.4,6.9,1.9C227.6,168.7,228.7,170.8,229,173.4z"/>
		</g>
		<g>
			<path class="st4" d="M283.8,160.4c2,1.6,3.2,3.7,3.5,6.3c0.3,2.6-0.4,4.9-2,6.9c-1.6,2-3.7,3.2-6.2,3.5c-0.1,0-0.1,0-0.2,0
				c-2.5,0.2-4.8-0.4-6.8-2c-0.6-0.5-1.1-1.1-1.6-1.7c0,0-0.1-0.1-0.1-0.1c-1-1.3-1.5-2.8-1.7-4.5c-0.2-1.7,0-3.3,0.7-4.8
				c0.3-0.7,0.7-1.4,1.3-2.1c1.6-2,3.7-3.2,6.3-3.5C279.5,158.2,281.8,158.8,283.8,160.4z"/>
		</g>
		<g>
			<path class="st4" d="M266.8,128.3c1.6-2,3.7-3.2,6.3-3.5c2.6-0.3,4.9,0.4,6.9,2c2,1.6,3.2,3.7,3.5,6.3c0.2,1.8,0,3.4-0.7,4.9
				c-0.3,0.7-0.7,1.3-1.2,2c-1.6,2-3.7,3.2-6.2,3.5c-2.6,0.3-4.9-0.4-7-2c-2-1.6-3.1-3.7-3.4-6.2c-0.2-1.7,0-3.3,0.6-4.7
				c0,0,0-0.1,0.1-0.1C265.8,129.7,266.3,129,266.8,128.3z"/>
		</g>
	</g>
</g>
</svg>
