<?xml version="1.0" encoding="utf-8"?>
<!-- Generator: Adobe Illustrator 23.0.6, SVG Export Plug-In . SVG Version: 6.00 Build 0)  -->
<svg version="1.1" id="圖層_1" xmlns="http://www.w3.org/2000/svg" xmlns:xlink="http://www.w3.org/1999/xlink" x="0px" y="0px"
	 viewBox="0 0 542.41 457.35" style="enable-background:new 0 0 542.41 457.35;" xml:space="preserve">
<style type="text/css">
	.st0{fill:#184F87;}
	.st1{fill:#FFFFFF;}
	.st2{fill:#17375E;}
	.st3{fill:#00B050;}
	.st4{fill:#C00000;}
	.st5{fill:none;stroke:#5A5C5C;stroke-width:3;stroke-miterlimit:10;}
	.st6{fill:#95B3D7;}
</style>
<g>
	<rect class="st0" width="542.41" height="57.53"/>
	<g>
		<path class="st1" d="M21.58,38.25v4.66H18.7v-4.66h-5.04v-3.06h5.04v-1.71h-4.24V22.84h4.27v-1.56h-4.83v-3.09h4.83v-2.77h2.89
			v2.77h4.86v3.09h-4.86v1.56h4.33v10.64h-4.36v1.71h5.1v3.06H21.58z M16.9,26.99h2.06v-1.71H16.9V26.99z M16.9,31h2.06v-1.71H16.9
			V31z M23.41,25.28h-2.06v1.71h2.06V25.28z M23.41,29.29h-2.06V31h2.06V29.29z M41.41,39.9c-0.77,0.68-1.86,2.06-2.33,2.98
			c-2.62-1.53-4.36-4.07-5.57-7.28c-1.03,2.53-2.86,5.1-5.89,7.22c-0.56-0.77-1.8-1.97-2.65-2.53c5.98-3.95,6.54-9.58,6.54-13.11
			v-1.36h3.48v1.44c0,0.65-0.03,1.35-0.06,2.12C35.87,34,37.82,38.07,41.41,39.9z M31.31,23.84c-0.62,2.03-1.38,3.89-2.33,5.3
			c-0.59-0.53-2.06-1.56-2.86-2c1.92-2.71,2.95-7.16,3.45-11.73l3.39,0.44c-0.21,1.65-0.5,3.3-0.85,4.86h5.83l0.53-0.09l2.33,0.56
			c-0.47,2.92-1.21,6.28-1.83,8.43l-2.83-0.71c0.29-1.3,0.65-3.21,0.94-5.07H31.31z"/>
		<path class="st1" d="M54.79,29.29V39.9c0,1.27-0.21,1.97-1.03,2.42c-0.77,0.44-1.86,0.47-3.42,0.47c-0.09-0.74-0.44-1.86-0.8-2.56
			c0.83,0.03,1.71,0.03,1.97,0.03c0.29,0,0.38-0.12,0.38-0.38v-2.68c-0.97,0.65-1.92,1.27-2.86,1.83l-0.77-1.65
			c-0.24,2-0.74,4.13-1.77,5.66c-0.5-0.5-1.8-1.38-2.45-1.68c1.44-2.21,1.56-5.19,1.56-7.54v-4.51h-1.44v-4.57h1.12v-8.4h9.58v8.4
			h1.24v4.57H54.79z M53.46,27.08h-6.75v1.18h6.75V27.08z M48.01,24.72h1.15v-4.71h2.86V18.8h-4.01V24.72z M48.45,33.86
			c0,0.85-0.03,1.74-0.09,2.71c1-0.41,2.21-1,3.54-1.65v-1.3l-1.18,1.3c-0.5-0.5-1.41-1.3-2.27-1.94V33.86z M48.45,32.21l1-1
			c0.85,0.56,1.8,1.21,2.45,1.74v-2.42h-3.45V32.21z M52.02,24.72v-2.74h-1.09v2.74H52.02z M71.46,39.92v2.53H55.91v-2.53h3.48
			c-0.24-0.74-0.5-1.5-0.8-2.15l1.86-0.56h-3.09v-5.75h12.67v5.75h-3.36l2.27,0.62c-0.47,0.74-0.88,1.44-1.3,2.09H71.46z
			 M71.23,30.5H56.2v-2.5h15.03V30.5z M70.67,26.99H56.64v-9.46h3.48v-2.09h2.71v2.09h1.3v-2.09h2.74v2.09h3.8V26.99z M59.24,21.19
			h1.5v-1.36h-1.5V21.19z M59.24,24.69h1.5v-1.39h-1.5V24.69z M60.39,35.12h6.39v-1.53h-6.39V35.12z M61.36,37.22
			c0.35,0.88,0.74,1.89,1,2.71h2.39c0.35-0.88,0.74-1.89,0.97-2.71H61.36z M64.28,21.19v-1.36h-1.41v1.36H64.28z M62.86,23.31v1.39
			h1.41v-1.39H62.86z M67.96,19.83H66.4v1.36h1.56V19.83z M67.96,23.31H66.4v1.39h1.56V23.31z"/>
		<path class="st1" d="M101.02,28.82c-0.94,3.74-2.65,6.6-4.89,8.84c1.68,0.94,3.62,1.68,5.75,2.18c-0.77,0.74-1.77,2.12-2.24,3.04
			c-2.45-0.68-4.54-1.68-6.33-2.95c-1.89,1.21-4.04,2.12-6.42,2.83c-0.32-0.88-1.12-2.18-1.74-2.92c-0.09,1.03-0.38,1.74-1.09,2.18
			c-0.82,0.56-2,0.65-3.71,0.65c-0.09-0.88-0.47-2.39-0.88-3.27c0.91,0.03,1.8,0.03,2.12,0.03c0.32,0,0.44-0.12,0.44-0.47v-5.86
			c-0.8,0.5-1.56,1-2.27,1.44l-0.85-2.12c-0.21,3.68-0.71,7.63-1.83,10.52c-0.62-0.53-2.06-1.3-2.8-1.59
			c1.53-4.04,1.62-9.93,1.62-14.2v-10.7h9.28v8.81c3.18-1.59,3.56-3.71,3.56-5.63v-3.15h9.9v6.45c0,0.85,0.06,1.18,0.41,1.18h1.15
			c0.38,0,1.06-0.09,1.44-0.21c0.09,0.85,0.15,2,0.27,2.77c-0.44,0.18-1.09,0.21-1.68,0.21h-1.5c-2.8,0-3.36-1.18-3.36-4.01v-3.15
			h-3.45c0,2.83-0.85,6.04-4.71,8.01c-0.35-0.56-1.38-1.65-2.03-2.21v13.5c0,0.24,0,0.47-0.03,0.68c2-0.47,3.86-1.18,5.48-2.09
			c-1.53-1.65-2.8-3.57-3.77-5.75l1.44-0.44h-2.12v-3.27h11.99l0.65-0.15L101.02,28.82z M79.04,27.11c0,1.21-0.03,2.59-0.09,4.01
			c0.88-0.29,1.92-0.68,3.06-1.12v-3.21l-1.18,0.94c-0.38-0.56-1.06-1.41-1.8-2.24V27.11z M79.04,19.59v3.65l0.83-0.59
			c0.71,0.68,1.5,1.47,2.15,2.21v-5.27H79.04z M90.11,31.41c0.77,1.56,1.89,2.98,3.21,4.18c1.3-1.15,2.39-2.56,3.18-4.18H90.11z"/>
		<path class="st1" d="M130.45,25.66c-1.21,3.83-2.95,7.25-5.07,10.11c0.85,2.12,1.8,3.36,2.74,3.36c0.71,0,1.06-1.47,1.21-5.16
			c0.8,0.83,2.03,1.59,2.98,1.97c-0.56,5.45-1.74,6.75-4.48,6.75c-2.06,0-3.68-1.47-4.98-3.89c-1.5,1.56-3.15,2.89-4.98,4.01
			c-0.53-0.77-1.8-2.21-2.53-2.89c2.27-1.24,4.3-2.86,6.01-4.77c-1-3.33-1.65-7.46-2.03-11.88h-8.54v3.15h7.28
			c0,0-0.03,0.91-0.03,1.33c-0.09,6.19-0.27,8.81-0.94,9.67c-0.56,0.77-1.15,1.03-2.03,1.18c-0.77,0.12-2.03,0.12-3.39,0.09
			c-0.06-1.03-0.44-2.39-0.97-3.27c1.06,0.09,2.06,0.12,2.53,0.12c0.41,0,0.65-0.06,0.88-0.35c0.29-0.41,0.41-1.83,0.5-5.54h-3.83
			c-0.12,4.3-0.74,10.05-3.15,13.64c-0.62-0.68-2.18-1.97-2.98-2.39c2.24-3.54,2.45-8.66,2.45-12.49v-8.6h12.02
			c-0.06-1.44-0.12-2.89-0.12-4.36h3.68c-0.03,1.47,0,2.92,0.06,4.36h4.51c-1.09-0.88-2.56-1.83-3.77-2.56l2.12-2.09
			c1.62,0.83,3.77,2.18,4.8,3.15l-1.41,1.5h3.06v3.48h-9.1c0.27,2.95,0.68,5.72,1.18,8.07c1.15-1.97,2.12-4.15,2.83-6.54
			L130.45,25.66z"/>
		<path class="st1" d="M161.39,34.09c-1.62,1.18-3.48,2.33-5.19,3.24c1.86,1.12,4.07,1.92,6.72,2.42c-0.77,0.71-1.74,2.18-2.21,3.12
			c-6.57-1.5-10.52-4.92-13.02-10.34h-4.21v6.25l6.45-1.3c-0.18,0.94-0.29,2.39-0.29,3.12c-7.04,1.56-8.66,1.95-9.46,2.3l-0.18,0.15
			c-0.24-0.83-0.91-2.65-1.47-3.48c0.65-0.35,1.5-1.06,1.5-2.27v-4.77h-4.3v-3.09h4.89V16.41h18.59v2.86h-15v1.62h14.17v2.71h-14.17
			v1.53h14.17v2.71h-14.17v1.59h18.09v3.09h-3.18L161.39,34.09z M151.37,32.53c0.65,1.12,1.44,2.09,2.39,2.98
			c1.5-0.91,3.15-2,4.33-2.98H151.37z"/>
		<path class="st1" d="M193.03,38.66v3.33H174.7v-3.33h7.87v-5.89h-5.69V29.5h5.69v-4.83h-3.24c-0.44,1.53-1.03,2.95-1.65,4.07
			c-0.71-0.44-2.3-1.24-3.12-1.59c0.29-0.53,0.59-1.09,0.88-1.71l-1.68,0.77c-0.18-0.88-0.62-2.18-1.12-3.39v20.12h-3.51V21.86
			c-0.18,2.48-0.65,5.72-1.33,7.81l-2.59-0.94c0.71-1.94,1.24-5.24,1.44-7.66l2.48,0.35v-6.01h3.51v5.57l1.71-0.71
			c0.59,1.15,1.21,2.56,1.62,3.71c0.74-2.15,1.27-4.68,1.56-7.19l3.42,0.47c-0.21,1.38-0.44,2.77-0.74,4.1h2.36v-5.78h3.51v5.78
			h6.01v3.3h-6.01v4.83h5.39v3.27h-5.39v5.89H193.03z"/>
		<path class="st1" d="M207.46,22.81v10.87h-3.74v1.77h4.13v2.98h-4.13v4.48h-3.18v-4.48h-4.39v-2.98h4.39v-1.77h-3.59V22.81h3.57
			v-1.65h-4.07v-2.95h4.07v-2.77h3.21v2.77h4.13v2.95h-4.13v1.65H207.46z M199.6,27.08h1.27v-1.83h-1.27V27.08z M199.6,31.23h1.27
			v-1.86h-1.27V31.23z M204.69,25.25h-1.3v1.83h1.3V25.25z M204.69,29.38h-1.3v1.86h1.3V29.38z M220.99,30.29
			c-0.12-0.21-0.24-0.41-0.38-0.62c-0.65,2.24-1.53,4.24-2.68,6.01c1.68,1.86,3.71,3.3,6.13,4.24c-0.74,0.68-1.8,2.03-2.3,2.95
			c-2.36-1.06-4.33-2.53-5.98-4.39c-1.71,1.83-3.8,3.3-6.25,4.48c-0.44-0.77-1.47-2.06-2.15-2.65c2.56-1.12,4.66-2.65,6.36-4.6
			c-1.15-1.8-2.03-3.8-2.8-6.01c-0.24,0.29-0.47,0.62-0.68,0.88c-0.65-0.62-2-1.62-2.8-2.12c1.41-1.53,2.92-3.92,3.89-5.98l3.3,1.09
			c-0.88,1.74-2.09,3.68-3.18,5.36l2.36-0.62c0.5,1.56,1.12,3.06,1.94,4.42c0.8-1.38,1.38-2.95,1.83-4.57l2.53,0.65
			c-0.94-1.5-2.18-3.3-3.15-4.74l2.59-1.59h-11.34V19.3h6.33c-0.44-0.91-1.06-2.03-1.56-2.92l2.98-1.27
			c0.71,1.06,1.53,2.47,1.92,3.39l-1.65,0.8h6.95v3.18h-3.51c1.35,1.86,3.27,4.36,4.15,5.89L220.99,30.29z"/>
		<path class="st1" d="M253.25,18.15v2.95h-26.02v-2.95h11.34c-0.24-0.71-0.47-1.44-0.71-2.06l3.62-0.88c0.32,0.91,0.8,2,1.15,2.95
			H253.25z M252.57,39.72c0,1.53-0.38,2.15-1.5,2.59c-1.06,0.35-2.65,0.38-4.69,0.35c-0.18-0.77-0.65-1.77-1.03-2.47h-8.43v1.24
			h-3.24v-7.78h12.82v6.54h-0.41c1.03,0.03,2.06,0.03,2.36,0c0.41,0,0.59-0.12,0.59-0.5v-7.13h-17.59V42.9h-3.39V29.73h24.51V39.72z
			 M249.74,28.52h-18.59v-6.31h18.59V28.52z M246.06,24.57h-11.4v1.62h11.4V24.57z M243.41,36.09h-6.48v1.68h6.48V36.09z"/>
		<path class="st1" d="M284.01,38.3v3.42h-26.49V38.3h4.42V16.97h18.15V38.3H284.01z M265.42,20.36v3.71h10.99v-3.71H265.42z
			 M276.41,27.31h-10.99v3.77h10.99V27.31z M265.42,38.3h10.99v-3.83h-10.99V38.3z"/>
		<path class="st1" d="M313.3,20.51v14.7h-3.68v-1.47h-6.66v9.19h-3.71v-9.19h-6.63v1.62h-3.54V20.51h10.17v-5.1h3.71v5.1H313.3z
			 M299.24,30.29v-6.33h-6.63v6.33H299.24z M309.61,30.29v-6.33h-6.66v6.33H309.61z"/>
		<path class="st1" d="M344.14,16.68v26.34h-3.48v-1.24h-18.33v1.24h-3.33V16.68H344.14z M340.67,38.66V19.83h-3.59
			c0.91,0.47,1.89,1.12,2.42,1.68l-1.18,1.24h1.41v2.48h-5.27c0.15,1.65,0.32,3.18,0.56,4.51c0.59-1.12,1.03-2.36,1.38-3.68
			l2.68,0.53c-0.71,2.56-1.77,4.83-3.09,6.75c0.38,0.91,0.83,1.47,1.33,1.59c0.35,0.09,0.59-1.06,0.71-2.77
			c0.53,0.53,1.59,1.33,2.18,1.65c-0.47,3.62-2,4.74-3.95,3.86c-0.88-0.29-1.62-0.97-2.21-1.94c-0.94,0.94-1.94,1.8-3.06,2.5
			c-0.38-0.53-1.33-1.65-1.92-2.12c0.32-0.18,0.65-0.38,0.97-0.59c-2.36,0.35-4.69,0.68-6.63,1l-0.32-2.56
			c2.15-0.21,5.21-0.59,8.28-1l0.06,1.5c0.53-0.47,1-0.97,1.47-1.5c-0.62-2.12-1-4.8-1.27-7.72h-8.19v-2.48h7.98
			c-0.06-0.83-0.09-1.65-0.15-2.5h2.89c0.03,0.85,0.06,1.68,0.12,2.5h3.18c-0.62-0.53-1.5-1.15-2.27-1.56l1.36-1.36h-14.2v18.83
			H340.67z M330.74,32.09h-6.57v-5.6h6.57V32.09z M328.38,28.35h-1.97v1.89h1.97V28.35z"/>
		<path class="st1" d="M370.1,15.41c-0.09,1.86-0.27,3.39-0.71,4.71c1.92,0.91,4.3,2.18,5.63,3.04l-1.53,1.77h1.18v5.66h-3.51v-3.01
			h-18.39v3.01h-3.36v-5.66h0.53c-0.35-0.71-0.97-1.5-1.44-1.97c5.04-1.18,5.66-3.3,5.89-7.54h3.03c-0.09,1.89-0.29,3.45-0.74,4.8
			c1.47,0.8,3.18,1.86,4.18,2.53l-2.15,2.15c-0.74-0.62-2.09-1.5-3.36-2.3c-0.85,0.91-2,1.71-3.65,2.33h10.9
			c-0.35-0.77-1-1.71-1.56-2.21c5.13-1.12,5.69-3.09,5.89-7.31H370.1z M351.3,20.42c-0.47-0.77-1.47-2.03-2.27-2.92l2.09-1.56
			c0.8,0.85,1.89,2,2.39,2.74L351.3,20.42z M361.7,35.68h11.08v7.25h-3.48v-0.68h-14.05v0.71h-3.3v-7.28h6.78
			c0.15-0.38,0.32-0.8,0.47-1.21h-5.16v-5.83h15.91v5.83h-7.57L361.7,35.68z M369.3,38.1h-14.05v1.68h14.05V38.1z M357.28,32.35
			h9.22v-1.56h-9.22V32.35z M357.4,19.77c0.65-0.88,1.41-2.18,1.83-3.06l2.27,0.74l2.09-1.56c0.8,0.85,1.86,2,2.36,2.74l-2.18,1.77
			c-0.41-0.68-1.24-1.71-1.92-2.56c-0.88,1.06-1.77,2.09-2.42,2.74L357.4,19.77z M372.01,24.93c-1.12-0.74-2.65-1.59-4.07-2.33
			c-0.85,0.94-2.15,1.74-3.98,2.33H372.01z M375.23,17.62c-1,1.15-2,2.33-2.77,3.09l-2.12-0.85c0.68-0.91,1.47-2.27,1.89-3.24
			L375.23,17.62z"/>
		<path class="st1" d="M404.45,24.19c-0.77,4.36-1.92,8.04-3.65,11.08c1.56,1.97,3.42,3.57,5.63,4.69
			c-0.77,0.62-1.86,1.94-2.39,2.89c-2.03-1.18-3.77-2.74-5.27-4.63c-1.56,1.95-3.51,3.54-5.83,4.83c-0.41-0.74-1.53-2.21-2.24-2.86
			c2.53-1.24,4.51-2.86,6.1-4.95c-1.12-1.92-2.06-4.07-2.8-6.42c-0.47,0.77-1,1.47-1.53,2.12c-0.41-0.68-1.36-1.97-2.12-2.74v14.79
			h-3.48v-7.6c-4.69,1.65-5.66,2.18-6.31,2.71c-0.24-0.85-0.83-2.45-1.36-3.21c0.56-0.32,1.09-0.88,1.09-2.09v-14.2h3.45v14.38
			l3.12-0.94V15.88h3.48v11.61c2.27-2.86,3.65-7.34,4.36-12.08l3.57,0.59c-0.29,1.65-0.62,3.3-1.03,4.86h8.99v3.33H404.45z
			 M396.17,24.19c-0.09,0.26-0.21,0.53-0.29,0.79c0.68,2.53,1.62,4.95,2.8,7.07c1.09-2.24,1.83-4.86,2.3-7.87H396.17z"/>
		<path class="st1" d="M418.95,16.53c-0.77,1.89-1.68,3.83-2.74,5.69v20.66h-3.33V27.29c-0.8,1.03-1.62,1.94-2.45,2.77
			c-0.32-0.83-1.24-2.74-1.83-3.57c2.8-2.65,5.51-6.84,7.1-11.02L418.95,16.53z M428.58,24.4v4.89h6.45v13.35h-3.59v-1.56h-8.96
			v1.74h-3.42V29.29h5.95V15.47h3.56v5.6h7.81v3.33H428.58z M431.44,32.53h-8.96v5.3h8.96V32.53z"/>
		<path class="st1" d="M452.83,36.09c0,1.03,0.15,2.48,0.27,3.3c-8.22,2-9.58,2.45-10.49,3.01c-0.27-0.83-1.09-2.27-1.62-2.89
			c0.62-0.41,1.47-1.3,1.47-2.71V15.47h3.65v8.69h6.54v3.45h-6.54v9.99L452.83,36.09z M462.44,39.04c1.09,0,1.3-1.06,1.47-5.04
			c0.85,0.65,2.3,1.3,3.3,1.53c-0.38,5.01-1.3,6.89-4.45,6.89h-4.01c-3.42,0-4.39-1.21-4.39-5.36V15.41h3.62v8.75h7.19v3.45h-7.19
			v9.52c0,1.68,0.15,1.92,1.27,1.92H462.44z"/>
		<path class="st1" d="M481.06,22.25c-0.32,0.8-0.74,1.56-1.18,2.33h13.7v14.56c0,1.74-0.32,2.68-1.53,3.21
			c-1.15,0.56-2.83,0.59-5.21,0.59c-0.15-0.97-0.62-2.45-1.06-3.39c1.5,0.09,3.21,0.09,3.71,0.09c0.5-0.03,0.68-0.18,0.68-0.59
			v-1.77h-11.08c-0.5,2.21-1.44,4.33-3.27,5.86c-0.47-0.74-1.8-2.21-2.53-2.68c2.53-2.21,2.74-5.36,2.74-8.1v-2.39
			c-1.12,1.18-2.3,2.27-3.65,3.21c-0.53-0.8-1.62-2.06-2.3-2.71c2.98-1.97,5.33-4.95,7.07-8.22h-6.39v-3.3h7.9
			c0.47-1.21,0.85-2.39,1.18-3.57l3.62,0.83c-0.29,0.91-0.62,1.83-0.94,2.74h14.38v3.3H481.06z M490.16,34.36v-1.92h-10.58
			c0,0.62-0.03,1.24-0.06,1.92H490.16z M490.16,27.67h-10.58v1.86h10.58V27.67z"/>
		<path class="st1" d="M511.58,17.74c-0.77,2.47-1.74,5.45-2.53,7.72c1.77,2.3,2.12,4.39,2.12,6.13c0,1.89-0.38,3.15-1.33,3.86
			c-0.44,0.35-1,0.53-1.65,0.65c-0.53,0.09-1.24,0.09-1.92,0.06c0-0.85-0.29-2.15-0.77-3c0.5,0.03,0.94,0.06,1.27,0.03
			c0.29,0,0.59-0.06,0.8-0.24c0.35-0.27,0.53-0.91,0.53-1.74c0-1.44-0.38-3.33-2.06-5.39c0.56-1.8,1.21-4.18,1.68-6.13h-2.86v23.19
			h-3.06V16.56h7.01l0.5-0.15L511.58,17.74z M527.46,32.88c-1.27,1-2.8,2.12-4.13,2.98c1.24,1.68,2.83,3.06,4.77,3.95
			c-0.77,0.68-1.83,2.06-2.33,3.03c-4.39-2.42-6.75-6.95-8.13-12.73h-1.77v8.28l4.1-0.91c-0.03,1,0.03,2.45,0.15,3.18
			c-5.75,1.47-6.84,1.92-7.54,2.36c-0.27-0.77-1-2.15-1.5-2.74c0.62-0.38,1.36-1.18,1.36-2.56V16.59h13.32v13.52h-5.1
			c0.32,1.15,0.71,2.21,1.18,3.21c1.21-0.91,2.5-2,3.36-2.92L527.46,32.88z M515.88,19.59v2.3h6.48v-2.3H515.88z M515.88,27.08h6.48
			v-2.36h-6.48V27.08z"/>
	</g>
	<g>
		<path d="M23.57,88.9c-0.27-0.64-0.82-1.61-1.36-2.53v9.34H19.6v-8.28c-0.75,1.77-1.59,3.4-2.47,4.55
			c-0.25-0.78-0.84-1.91-1.25-2.6c1.27-1.47,2.54-3.93,3.36-6.16h-3.06v-2.55h3.43v-2.6c-0.89,0.14-1.72,0.28-2.56,0.37
			c-0.09-0.62-0.43-1.52-0.73-2.12c2.59-0.41,5.42-1.1,7.31-1.89l1.52,2.23c-0.88,0.34-1.88,0.62-2.93,0.85v3.15h2.99v2.55h-2.99
			v0.18c0.66,0.64,2.52,2.81,2.95,3.33L23.57,88.9z M34.76,89.89v5.79H32.1v-5.31l-6.85,1.2l-0.43-2.6l7.28-1.26V74.23h2.65v13.01
			L37,86.85l0.43,2.55L34.76,89.89z M29.06,86.69c-0.7-1.01-2.29-2.48-3.61-3.52l1.72-1.56c1.29,0.92,2.97,2.35,3.72,3.33
			L29.06,86.69z M29.65,80.62c-0.64-0.99-2.11-2.46-3.38-3.45l1.77-1.56c1.23,0.94,2.81,2.3,3.49,3.31L29.65,80.62z"/>
		<path d="M47.47,86.51c-0.79,0.23-1.61,0.46-2.43,0.67v5.5c0,1.33-0.25,1.98-1.02,2.42c-0.75,0.41-1.84,0.48-3.45,0.48
			c-0.09-0.69-0.43-1.77-0.75-2.48c0.88,0.02,1.82,0.02,2.11,0.02c0.32,0,0.43-0.12,0.43-0.46v-4.74l-2.2,0.55l-0.7-2.6
			c0.84-0.18,1.81-0.39,2.9-0.67v-4.07h-2.61V78.6h2.61v-4.35h2.68v4.35h2.22v2.53h-2.22v3.4L47.13,84L47.47,86.51z M60.04,83.4
			c-0.86,3.17-2.31,5.7-4.24,7.63c1.5,1.06,3.24,1.82,5.26,2.32c-0.57,0.55-1.34,1.66-1.72,2.37c-2.2-0.67-4.06-1.63-5.65-2.9
			c-1.77,1.24-3.77,2.16-5.99,2.83c-0.29-0.74-0.93-1.88-1.43-2.48c2-0.48,3.83-1.22,5.42-2.25c-1.32-1.54-2.38-3.36-3.22-5.47
			l0.68-0.21h-1.18v-2.46h4.47v-2.76h-4.88v-2.53h4.88v-3.29h2.68v3.29h5.08v2.53h-5.08v2.76h2.72l0.48-0.11L60.04,83.4z
			 M51.1,85.24c0.64,1.52,1.54,2.9,2.68,4.07c1.18-1.13,2.18-2.51,2.86-4.07H51.1z"/>
		<path d="M83.53,84.69c-0.73,2.92-2.04,5.15-3.77,6.9c1.29,0.74,2.79,1.31,4.42,1.7c-0.59,0.58-1.36,1.66-1.72,2.37
			c-1.88-0.53-3.49-1.31-4.88-2.3c-1.45,0.94-3.11,1.66-4.95,2.21c-0.25-0.69-0.86-1.7-1.34-2.28c-0.07,0.8-0.29,1.36-0.84,1.7
			c-0.64,0.44-1.54,0.51-2.86,0.51c-0.07-0.69-0.36-1.86-0.68-2.55c0.7,0.02,1.38,0.02,1.63,0.02s0.34-0.09,0.34-0.37v-4.58
			c-0.61,0.39-1.2,0.78-1.75,1.13l-0.66-1.66c-0.16,2.88-0.54,5.96-1.41,8.21c-0.48-0.41-1.59-1.01-2.16-1.24
			c1.18-3.15,1.25-7.75,1.25-11.08v-8.35h7.15v6.88c2.45-1.24,2.75-2.9,2.75-4.39v-2.46h7.62v5.04c0,0.67,0.05,0.92,0.32,0.92h0.89
			c0.29,0,0.82-0.07,1.11-0.16c0.07,0.67,0.11,1.56,0.2,2.16c-0.34,0.14-0.84,0.16-1.29,0.16h-1.16c-2.16,0-2.59-0.92-2.59-3.13
			v-2.46h-2.65c0,2.21-0.66,4.71-3.63,6.25c-0.27-0.44-1.07-1.29-1.57-1.72v10.53c0,0.18,0,0.37-0.02,0.53
			c1.54-0.37,2.97-0.92,4.22-1.63c-1.18-1.29-2.16-2.78-2.9-4.48l1.11-0.34h-1.63v-2.55h9.23l0.5-0.12L83.53,84.69z M66.6,83.36
			c0,0.94-0.02,2.02-0.07,3.13c0.68-0.23,1.47-0.53,2.36-0.87v-2.51l-0.91,0.74c-0.29-0.44-0.82-1.1-1.38-1.75V83.36z M66.6,77.49
			v2.85l0.64-0.46c0.54,0.53,1.16,1.15,1.66,1.72v-4.12H66.6z M75.13,86.72c0.59,1.22,1.45,2.32,2.47,3.26c1-0.9,1.84-2,2.45-3.26
			H75.13z"/>
		<path d="M99.71,86.05c1.97,2.55,5.06,4.99,8.08,6.32c-0.64,0.55-1.5,1.66-1.95,2.37c-2.68-1.4-5.31-3.7-7.37-6.32v7.31h-2.88
			v-7.17c-2.06,2.53-4.72,4.76-7.37,6.16c-0.45-0.69-1.34-1.79-1.97-2.37c3.02-1.31,6.1-3.75,8.1-6.3h-7.35v-2.71h8.6v-2.94h-6.9
			v-2.71h6.9v-3.43h2.88v3.43h7.1v2.71h-7.1v2.94h8.74v2.71H99.71z"/>
		<path d="M128.71,87.77c-0.64-0.71-1.79-1.72-2.93-2.67c-0.45,0.76-0.95,1.43-1.52,1.98c-0.39-0.32-1.13-0.83-1.77-1.17
			c2.02,2.71,5.26,5.15,8.67,6.42c-0.66,0.58-1.54,1.75-2,2.51c-2.75-1.29-5.31-3.36-7.35-5.82v6.69h-2.84v-6.55
			c-2.04,2.41-4.58,4.42-7.28,5.68c-0.43-0.67-1.32-1.77-1.91-2.35c3.68-1.45,7.22-4.3,9.19-7.4v-5.31h-8.26v-2.69h8.26v-2.83h2.84
			v2.83h8.55v2.69h-8.55v5.15c0.11,0.18,0.23,0.34,0.34,0.53c1.45-1.31,2.41-3.36,2.86-5.54l2.63,0.48
			c-0.2,0.85-0.45,1.68-0.75,2.46c1.29,1.01,2.86,2.23,3.7,3.01L128.71,87.77z M117.02,80.42c-0.23,0.85-0.5,1.7-0.82,2.48
			c0.82,0.71,1.68,1.5,2.2,2.02l-1.82,1.91c-0.34-0.44-0.91-1.01-1.52-1.61c-0.75,1.24-1.61,2.32-2.61,3.15
			c-0.43-0.48-1.5-1.38-2.09-1.79c2-1.45,3.38-3.86,4.02-6.67L117.02,80.42z"/>
		<path d="M134.43,90.97h3.61V80.64H135v-2.09c1.68-0.32,2.84-0.76,3.9-1.43h2.47v13.84h3.15v2.74h-10.1V90.97z"/>
		<path d="M147.66,91.75c4.38-4.23,7.26-7.13,7.26-9.59c0-1.68-0.91-2.69-2.52-2.69c-1.23,0-2.22,0.83-3.09,1.77l-1.81-1.84
			c1.54-1.68,3.04-2.6,5.33-2.6c3.18,0,5.29,2.05,5.29,5.17c0,2.9-2.63,5.89-5.63,9.06c0.84-0.09,1.95-0.18,2.75-0.18h3.68v2.85
			h-11.25V91.75z"/>
		<path d="M168.22,75.06c-0.5,1.45-1.09,2.92-1.77,4.37v16.3h-2.56V83.96c-0.5,0.71-1,1.38-1.52,1.98c-0.2-0.67-0.86-2.28-1.27-2.97
			c1.88-2.09,3.61-5.38,4.63-8.69L168.22,75.06z M182.08,75.4v20.07h-2.56v-1.13h-8.53v1.33h-2.45V75.4H182.08z M179.52,91.98V77.77
			h-8.53v14.21H179.52z M176.25,82.58v1.98h2.18v6.16h-6.29v-6.16h2.02v-1.98h-2.61V80.6h2.61v-2.35h2.09v2.35H179v1.98H176.25z
			 M176.41,86.44h-2.31v2.42h2.31V86.44z"/>
		<path d="M203.28,92.21c0,1.66-0.39,2.44-1.43,2.9c-1.09,0.48-2.68,0.53-5.01,0.53c-0.16-0.8-0.7-2.12-1.13-2.87
			c1.59,0.09,3.49,0.07,3.99,0.07c0.54,0,0.73-0.18,0.73-0.67v-3.33h-9.71c-0.59,2.58-1.72,5.08-3.83,6.88
			c-0.41-0.58-1.5-1.59-2.09-1.98c3.43-2.97,3.74-7.36,3.74-10.85v-7.57h14.75V92.21z M200.42,86.19v-2.81h-9.1
			c-0.02,0.87-0.07,1.84-0.16,2.81H200.42z M191.32,77.98v2.81h9.1v-2.81H191.32z"/>
		<path d="M209.75,76.67h10.3v2.85h-6.94v3.93h5.9v2.85h-5.9v4.55h7.19v2.85h-10.55V76.67z"/>
		<path d="M224.45,76.67h5.51c3.72,0,6.58,1.33,6.58,5.36c0,3.89-2.88,5.63-6.49,5.63h-2.25v6.05h-3.36V76.67z M229.83,84.97
			c2.31,0,3.43-0.99,3.43-2.94c0-1.98-1.23-2.64-3.54-2.64h-1.91v5.59H229.83z"/>
		<path d="M238.96,91.55l1.93-2.35c1.2,1.13,2.79,1.89,4.27,1.89c1.75,0,2.68-0.76,2.68-1.96c0-1.26-1.02-1.66-2.52-2.3l-2.25-0.96
			c-1.7-0.71-3.4-2.09-3.4-4.58c0-2.78,2.41-4.92,5.81-4.92c1.95,0,3.9,0.78,5.26,2.18l-1.7,2.14c-1.07-0.9-2.18-1.4-3.56-1.4
			c-1.47,0-2.4,0.67-2.4,1.79c0,1.22,1.18,1.66,2.61,2.23l2.2,0.94c2.04,0.85,3.38,2.16,3.38,4.62c0,2.78-2.29,5.15-6.17,5.15
			C242.84,94.03,240.59,93.13,238.96,91.55z"/>
		<path d="M273.42,82.23c-0.93,2.99-2.27,5.66-3.9,7.89c0.66,1.66,1.38,2.62,2.11,2.62c0.54,0,0.82-1.15,0.93-4.02
			c0.61,0.64,1.57,1.24,2.29,1.54c-0.43,4.25-1.34,5.27-3.45,5.27c-1.59,0-2.84-1.15-3.83-3.04c-1.16,1.22-2.43,2.25-3.83,3.13
			c-0.41-0.6-1.38-1.72-1.95-2.25c1.75-0.97,3.31-2.23,4.63-3.73c-0.77-2.6-1.27-5.82-1.57-9.27h-6.58v2.46h5.6
			c0,0-0.02,0.71-0.02,1.04c-0.07,4.83-0.2,6.88-0.73,7.54c-0.43,0.6-0.88,0.8-1.57,0.92c-0.59,0.09-1.57,0.09-2.61,0.07
			c-0.05-0.8-0.34-1.86-0.75-2.55c0.82,0.07,1.59,0.09,1.95,0.09c0.32,0,0.5-0.05,0.68-0.28c0.23-0.32,0.32-1.43,0.39-4.32h-2.95
			c-0.09,3.36-0.57,7.84-2.43,10.65c-0.48-0.53-1.68-1.54-2.29-1.86c1.72-2.76,1.88-6.76,1.88-9.75v-6.71h9.26
			c-0.05-1.13-0.09-2.25-0.09-3.4h2.84c-0.02,1.15,0,2.28,0.05,3.4h3.47c-0.84-0.69-1.97-1.43-2.9-2l1.63-1.63
			c1.25,0.64,2.9,1.7,3.7,2.46l-1.09,1.17h2.36v2.71h-7.01c0.2,2.3,0.52,4.46,0.91,6.3c0.88-1.54,1.63-3.24,2.18-5.11L273.42,82.23z
			"/>
		<path d="M297.25,88.81c-1.25,0.92-2.68,1.82-3.99,2.53c1.43,0.87,3.13,1.49,5.17,1.89c-0.59,0.55-1.34,1.7-1.7,2.44
			c-5.06-1.17-8.1-3.84-10.03-8.07h-3.24v4.87l4.97-1.01c-0.14,0.74-0.23,1.86-0.23,2.44c-5.42,1.22-6.67,1.52-7.28,1.79l-0.14,0.12
			c-0.18-0.64-0.7-2.07-1.13-2.71c0.5-0.28,1.16-0.83,1.16-1.77v-3.72h-3.31v-2.42h3.77V75.01h14.32v2.23h-11.55v1.27h10.91v2.12
			h-10.91v1.2h10.91v2.12h-10.91v1.24h13.93v2.42h-2.45L297.25,88.81z M289.54,87.59c0.5,0.87,1.11,1.63,1.84,2.32
			c1.16-0.71,2.43-1.56,3.34-2.32H289.54z"/>
		<path d="M314.5,87.84c-0.09-0.32-0.25-0.71-0.43-1.13c-5.42,0.55-6.29,0.69-6.85,0.94c-0.11-0.44-0.45-1.59-0.73-2.18
			c-1.5,0.8-3.09,1.63-4.42,2.28l-1.29-2.18c1.43-0.53,3.56-1.45,5.65-2.32l0.5,2l-0.41,0.23c0.57-0.12,1.13-0.53,1.93-1.17
			c0.34-0.28,1-0.83,1.79-1.61c-1.75,0.14-2.25,0.25-2.59,0.39c-0.14-0.48-0.48-1.54-0.73-2.14c0.34-0.09,0.7-0.37,1.04-0.78
			c0.2-0.25,0.68-0.85,1.2-1.63h-7.74v-2.46h8.44c-0.25-0.46-0.52-0.94-0.77-1.31l2.75-0.64c0.45,0.58,0.93,1.31,1.25,1.96h8.08
			v2.46h-9.37c-0.48,0.71-1,1.4-1.57,2.05l2.06-0.07c0.52-0.6,1.02-1.22,1.45-1.86l2.06,1.24c-1.54,1.84-3.36,3.63-5.17,5.11
			l2.38-0.18c-0.25-0.41-0.5-0.8-0.77-1.15l1.97-0.71c0.36,0.46,0.73,0.97,1.07,1.52l1.5-1.22c1.48,0.78,3.52,2.05,4.52,2.92
			l-1.95,1.66c-0.79-0.76-2.29-1.84-3.63-2.67c0.36,0.67,0.7,1.33,0.88,1.88L314.5,87.84z M321.49,91.48h-8.89v4.18h-2.88v-4.18
			h-8.87v-2.53h8.87v-1.54h2.88v1.54h8.89V91.48z M304.77,83.11c-0.68-0.76-2.18-1.86-3.34-2.6l1.77-1.45
			c1.16,0.64,2.72,1.7,3.47,2.44L304.77,83.11z M315.38,81.82c0.93-0.71,2.2-1.95,2.9-2.85l2.25,1.31c-0.98,1.06-2.22,2.09-3.15,2.8
			L315.38,81.82z"/>
		<path d="M345.02,90.44h-6.4c2.13,1.01,4.4,2.21,5.79,3.08l-1.79,2.09c-1.45-1.01-3.95-2.48-6.19-3.59l1.2-1.59h-6.74l1.91,1.59
			c-1.95,1.31-4.76,2.74-6.99,3.66c-0.36-0.58-1.02-1.47-1.52-2.05c2-0.76,4.61-2.07,6.13-3.2h-6.19v-2.53h2.04l-0.39-11.87
			c1.43-0.46,3.18-1.15,4.33-1.7l1.16,2.23c-0.95,0.34-2.02,0.62-3.04,0.9l0.07,2.07h2.59v2.23h-2.52l0.07,1.98h2.52v2.23h-2.45
			l0.07,1.93h11.84c0.05-0.6,0.07-1.2,0.11-1.86h-2.29V83.8h2.38c0.02-0.64,0.05-1.31,0.07-1.98h-2.29v-2.25h2.36
			c0-0.67,0-1.31,0.02-1.98h-2.61v-2.35h5.08c0,4.09-0.11,9.22-0.29,12.67h1.97V90.44z M334.2,82.97c-0.16,1.52-0.52,3.01-1.13,3.98
			c-0.36-0.3-1.25-0.83-1.72-1.08c0.57-0.85,0.75-2.02,0.86-3.24L334.2,82.97z M335.29,82.07h-3.43v-7.63h2.29V76h3.56v2.25h-3.56
			v1.68h2.52v0.02h0.86v5.84c0,0.94-0.18,1.33-0.79,1.63c-0.59,0.28-1.48,0.28-2.59,0.28c-0.09-0.53-0.36-1.2-0.59-1.68
			c0.59,0.05,1.25,0.05,1.45,0.02c0.2,0,0.27-0.05,0.27-0.25V82.07z"/>
		<path d="M367.37,78.21v11.47h-2.84v-1.15h-5.13v7.17h-2.86v-7.17h-5.11v1.26h-2.72V78.21h7.83v-3.98h2.86v3.98H367.37z
			 M356.55,85.84V80.9h-5.11v4.94H356.55z M364.54,85.84V80.9h-5.13v4.94H364.54z"/>
		<path d="M391.13,75.22v20.56h-2.68v-0.97h-14.11v0.97h-2.56V75.22H391.13z M388.46,92.37V77.68h-2.77
			c0.7,0.37,1.45,0.87,1.86,1.31l-0.91,0.97h1.09v1.93h-4.06c0.11,1.29,0.25,2.48,0.43,3.52c0.45-0.87,0.79-1.84,1.07-2.88
			l2.06,0.41c-0.54,2-1.36,3.77-2.38,5.27c0.29,0.71,0.64,1.15,1.02,1.24c0.27,0.07,0.45-0.83,0.54-2.16
			c0.41,0.41,1.23,1.04,1.68,1.29c-0.36,2.83-1.54,3.7-3.04,3.01c-0.68-0.23-1.25-0.76-1.7-1.52c-0.73,0.74-1.5,1.4-2.36,1.95
			c-0.3-0.41-1.02-1.29-1.48-1.66c0.25-0.14,0.5-0.3,0.75-0.46c-1.82,0.28-3.61,0.53-5.11,0.78l-0.25-2
			c1.66-0.16,4.02-0.46,6.38-0.78l0.05,1.17c0.41-0.37,0.77-0.76,1.13-1.17c-0.48-1.66-0.77-3.75-0.98-6.02h-6.31v-1.93h6.15
			c-0.05-0.64-0.07-1.29-0.11-1.96h2.22c0.02,0.67,0.05,1.31,0.09,1.96h2.45c-0.48-0.41-1.16-0.9-1.75-1.22l1.04-1.06h-10.94v14.69
			H388.46z M380.81,87.24h-5.06v-4.37h5.06V87.24z M379,84.32h-1.52v1.47H379V84.32z"/>
		<path d="M411.13,74.23c-0.07,1.45-0.2,2.64-0.54,3.68c1.47,0.71,3.31,1.7,4.33,2.37l-1.18,1.38h0.91v4.42h-2.7v-2.34h-14.16v2.34
			h-2.59v-4.42h0.41c-0.27-0.55-0.75-1.17-1.11-1.54c3.88-0.92,4.36-2.58,4.54-5.89h2.34c-0.07,1.47-0.23,2.69-0.57,3.75
			c1.13,0.62,2.45,1.45,3.22,1.98l-1.66,1.68c-0.57-0.48-1.61-1.17-2.59-1.79c-0.66,0.71-1.54,1.33-2.81,1.82h8.4
			c-0.27-0.6-0.77-1.33-1.2-1.72c3.95-0.87,4.38-2.41,4.54-5.7H411.13z M396.65,78.14c-0.36-0.6-1.13-1.59-1.75-2.28l1.61-1.22
			c0.61,0.67,1.45,1.56,1.84,2.14L396.65,78.14z M404.66,90.05h8.53v5.66h-2.68v-0.53h-10.82v0.55h-2.54v-5.68h5.22
			c0.11-0.3,0.25-0.62,0.36-0.94h-3.97v-4.55h12.25v4.55h-5.83L404.66,90.05z M410.52,91.94h-10.82v1.31h10.82V91.94z M401.26,87.45
			h7.1v-1.22h-7.1V87.45z M401.35,77.63c0.5-0.69,1.09-1.7,1.41-2.39l1.75,0.58l1.61-1.22c0.61,0.67,1.43,1.56,1.82,2.14l-1.68,1.38
			c-0.32-0.53-0.95-1.33-1.47-2c-0.68,0.83-1.36,1.63-1.86,2.14L401.35,77.63z M412.6,81.66c-0.86-0.57-2.04-1.24-3.13-1.82
			c-0.66,0.74-1.66,1.36-3.06,1.82H412.6z M415.08,75.95c-0.77,0.9-1.54,1.82-2.13,2.41l-1.63-0.67c0.52-0.71,1.13-1.77,1.45-2.53
			L415.08,75.95z"/>
		<path d="M437.59,81.08c-0.59,3.4-1.47,6.28-2.81,8.65c1.2,1.54,2.63,2.78,4.33,3.66c-0.59,0.48-1.43,1.52-1.84,2.25
			c-1.57-0.92-2.9-2.14-4.06-3.61c-1.2,1.52-2.7,2.76-4.49,3.77c-0.32-0.58-1.18-1.72-1.72-2.23c1.95-0.97,3.47-2.23,4.7-3.86
			c-0.86-1.5-1.59-3.17-2.16-5.01c-0.36,0.6-0.77,1.15-1.18,1.66c-0.32-0.53-1.04-1.54-1.63-2.14v11.54h-2.68v-5.93
			c-3.61,1.29-4.36,1.7-4.86,2.12c-0.18-0.67-0.64-1.91-1.04-2.51c0.43-0.25,0.84-0.69,0.84-1.63V76.71h2.65v11.22l2.4-0.74V74.6
			h2.68v9.06c1.75-2.23,2.81-5.73,3.36-9.43l2.75,0.46c-0.23,1.29-0.48,2.58-0.79,3.79h6.92v2.6H437.59z M431.21,81.08
			c-0.07,0.21-0.16,0.41-0.23,0.62c0.52,1.98,1.25,3.86,2.16,5.52c0.84-1.75,1.41-3.79,1.77-6.14H431.21z"/>
		<path d="M448.76,75.1c-0.59,1.47-1.29,2.99-2.11,4.44v16.12h-2.56V83.5c-0.61,0.8-1.25,1.52-1.88,2.16
			c-0.25-0.64-0.95-2.14-1.41-2.78c2.16-2.07,4.24-5.33,5.47-8.6L448.76,75.1z M456.18,81.24v3.82h4.97v10.42h-2.77v-1.22h-6.9v1.36
			h-2.63V85.06h4.58V74.28h2.75v4.37h6.01v2.6H456.18z M458.38,87.59h-6.9v4.14h6.9V87.59z"/>
		<path d="M474.85,90.37c0,0.8,0.11,1.93,0.2,2.58c-6.33,1.56-7.37,1.91-8.08,2.35c-0.2-0.64-0.84-1.77-1.25-2.25
			c0.48-0.32,1.13-1.01,1.13-2.12V74.28h2.81v6.78h5.04v2.69h-5.04v7.8L474.85,90.37z M482.25,92.67c0.84,0,1-0.83,1.13-3.93
			c0.66,0.51,1.77,1.01,2.54,1.2c-0.29,3.91-1,5.38-3.43,5.38h-3.09c-2.63,0-3.38-0.94-3.38-4.18v-16.9h2.79v6.83h5.54v2.69h-5.54
			v7.43c0,1.31,0.11,1.49,0.98,1.49H482.25z"/>
		<path d="M494.55,87.87c0.25-0.76,0.52-1.82,0.77-2.9h-1.36v7.8c0,1.29-0.2,2-1.04,2.41c-0.84,0.41-1.97,0.48-3.49,0.48
			c-0.09-0.78-0.45-1.88-0.82-2.62c0.98,0.02,2.04,0.02,2.34,0.02c0.32-0.02,0.41-0.09,0.41-0.35v-7.75h-3.36v-2.41h4.86
			c-1.16-0.87-2.65-1.77-3.93-2.42l1.34-1.77c0.66,0.3,1.38,0.67,2.09,1.06c0.5-0.55,1.02-1.2,1.45-1.86h-5.26V75.2h6.94l0.48-0.16
			l1.54,1.15v-1.06h11.53v2.3h-4.27c-0.16,0.53-0.32,1.03-0.48,1.52h4.08v12.16h-10.1V78.94h3.31c0.09-0.51,0.16-1.01,0.23-1.52
			h-4.31v-1.01c-0.86,1.4-2.04,2.99-3.22,4.21c0.54,0.37,1,0.74,1.36,1.08l-0.59,0.85h1.09l0.36-0.07l1.63,0.37
			c-0.48,1.91-1.09,4.07-1.59,5.43L494.55,87.87z M502.67,92.58c-1.25,1.22-3.38,2.51-5.13,3.2c-0.43-0.53-1.23-1.31-1.82-1.79
			c1.77-0.62,3.77-1.84,4.74-2.85L502.67,92.58z M505.78,80.97h-5.06v1.45h5.06V80.97z M505.78,84.28h-5.06v1.47h5.06V84.28z
			 M505.78,87.64h-5.06v1.47h5.06V87.64z M505.76,91.29c1.25,0.83,2.97,2.07,3.86,2.94l-2.13,1.54c-0.77-0.87-2.45-2.21-3.72-3.13
			L505.76,91.29z"/>
		<path d="M515.02,84.74c-0.75-0.71-2.29-1.63-3.54-2.21l1.47-2c1.25,0.48,2.86,1.29,3.63,2L515.02,84.74z M516.97,88.1
			c-0.75,2.46-1.75,5.1-2.68,7.36l-2.43-1.4c0.84-1.77,2.04-4.69,2.93-7.38L516.97,88.1z M515.86,78.76
			c-0.73-0.74-2.27-1.75-3.52-2.32l1.52-2.02c1.23,0.53,2.81,1.45,3.58,2.14L515.86,78.76z M520.85,90.99
			c-0.75,1.75-1.97,3.63-3.06,4.78c-0.5-0.41-1.52-1.08-2.11-1.4c1.07-1.04,2.11-2.58,2.72-4.07L520.85,90.99z M524.62,90.12h-6.85
			V75.13h6.85V90.12z M522.26,77.49h-2.22v1.93h2.22V77.49z M522.26,81.61h-2.22v1.96h2.22V81.61z M522.26,85.77h-2.22v1.98h2.22
			V85.77z M523.62,90.12c0.84,1.06,1.91,2.55,2.38,3.52l-2.13,1.29c-0.43-0.97-1.45-2.51-2.29-3.66L523.62,90.12z M528.09,89.84
			h-2.34V76.55h2.34V89.84z M531.95,74.25v18.37c0,1.4-0.25,2.14-1.04,2.53c-0.79,0.44-1.97,0.53-3.74,0.53
			c-0.09-0.71-0.43-1.86-0.77-2.62c1.16,0.05,2.25,0.05,2.61,0.05c0.39-0.02,0.5-0.14,0.5-0.48V74.25H531.95z"/>
	</g>
	<g>
		<path d="M3.31,133.17h3.28v-11.22H4.01v-1.06c1.26-0.22,2.2-0.54,2.96-1h1.24v13.28h2.98v1.36H3.31V133.17z"/>
		<path d="M22.09,122.11c-0.6-0.7-1.48-1.12-2.36-1.12c-2.06,0-3.8,1.58-3.88,6.26c0.92-1.1,2.2-1.78,3.38-1.78
			c2.48,0,4.04,1.54,4.04,4.6c0,2.8-1.9,4.72-4.12,4.72c-2.82,0-4.84-2.44-4.84-7.22c0-5.78,2.56-7.94,5.36-7.94
			c1.46,0,2.54,0.62,3.34,1.46L22.09,122.11z M21.71,130.07c0-2.04-0.86-3.38-2.74-3.38c-0.94,0-2.08,0.54-3.08,1.94
			c0.2,3.1,1.32,4.86,3.26,4.86C20.61,133.49,21.71,132.09,21.71,130.07z"/>
		<path d="M25.61,124.21c0-2.94,1.28-4.58,3.28-4.58s3.28,1.64,3.28,4.58c0,2.96-1.28,4.64-3.28,4.64S25.61,127.17,25.61,124.21z
			 M30.91,124.21c0-2.36-0.82-3.56-2.02-3.56c-1.2,0-2.02,1.2-2.02,3.56s0.82,3.6,2.02,3.6C30.09,127.81,30.91,126.57,30.91,124.21z
			 M37.41,119.63h1.14l-8.1,15.16h-1.14L37.41,119.63z M35.73,130.15c0-2.92,1.28-4.58,3.28-4.58c1.96,0,3.28,1.66,3.28,4.58
			c0,2.98-1.32,4.64-3.28,4.64C37.01,134.79,35.73,133.13,35.73,130.15z M41.04,130.15c0-2.36-0.82-3.54-2.02-3.54
			c-1.22,0-2.02,1.18-2.02,3.54c0,2.38,0.8,3.62,2.02,3.62C40.22,133.77,41.04,132.53,41.04,130.15z"/>
	</g>
	<g>
		<path d="M511.73,130.45h-2v4.08h-1.54v-4.08h-6.42v-1.06l6.22-9.5h1.74v9.26h2V130.45z M508.19,129.15v-4.76
			c0-0.72,0.06-1.88,0.12-2.6h-0.1c-0.36,0.7-0.76,1.42-1.16,2.12l-3.54,5.24H508.19z"/>
		<path d="M514.03,127.15c0-5.08,1.74-7.52,4.5-7.52c2.74,0,4.46,2.46,4.46,7.52c0,5.12-1.72,7.64-4.46,7.64
			C515.77,134.79,514.03,132.27,514.03,127.15z M521.41,127.15c0-4.28-1.16-6.2-2.88-6.2c-1.74,0-2.92,1.92-2.92,6.2
			c0,4.36,1.18,6.32,2.92,6.32C520.25,133.47,521.41,131.51,521.41,127.15z"/>
		<path d="M525.47,124.21c0-2.94,1.28-4.58,3.28-4.58s3.28,1.64,3.28,4.58c0,2.96-1.28,4.64-3.28,4.64S525.47,127.17,525.47,124.21z
			 M530.77,124.21c0-2.36-0.82-3.56-2.02-3.56c-1.2,0-2.02,1.2-2.02,3.56s0.82,3.6,2.02,3.6
			C529.95,127.81,530.77,126.57,530.77,124.21z M537.27,119.63h1.14l-8.1,15.16h-1.14L537.27,119.63z M535.59,130.15
			c0-2.92,1.28-4.58,3.28-4.58c1.96,0,3.28,1.66,3.28,4.58c0,2.98-1.32,4.64-3.28,4.64C536.87,134.79,535.59,133.13,535.59,130.15z
			 M540.89,130.15c0-2.36-0.82-3.54-2.02-3.54c-1.22,0-2.02,1.18-2.02,3.54c0,2.38,0.8,3.62,2.02,3.62
			C540.07,133.77,540.89,132.53,540.89,130.15z"/>
	</g>
	<g>
		<path d="M503.17,228.7h3.28v-11.22h-2.58v-1.06c1.26-0.22,2.2-0.54,2.96-1h1.24v13.28h2.98v1.36h-7.88V228.7z"/>
		<path d="M514.03,222.68c0-5.08,1.74-7.52,4.5-7.52c2.74,0,4.46,2.46,4.46,7.52c0,5.12-1.72,7.64-4.46,7.64
			C515.77,230.32,514.03,227.8,514.03,222.68z M521.41,222.68c0-4.28-1.16-6.2-2.88-6.2c-1.74,0-2.92,1.92-2.92,6.2
			c0,4.36,1.18,6.32,2.92,6.32C520.25,229,521.41,227.04,521.41,222.68z"/>
		<path d="M525.47,219.74c0-2.94,1.28-4.58,3.28-4.58s3.28,1.64,3.28,4.58c0,2.96-1.28,4.64-3.28,4.64S525.47,222.7,525.47,219.74z
			 M530.77,219.74c0-2.36-0.82-3.56-2.02-3.56c-1.2,0-2.02,1.2-2.02,3.56s0.82,3.6,2.02,3.6
			C529.95,223.34,530.77,222.1,530.77,219.74z M537.27,215.16h1.14l-8.1,15.16h-1.14L537.27,215.16z M535.59,225.68
			c0-2.92,1.28-4.58,3.28-4.58c1.96,0,3.28,1.66,3.28,4.58c0,2.98-1.32,4.64-3.28,4.64C536.87,230.32,535.59,228.66,535.59,225.68z
			 M540.89,225.68c0-2.36-0.82-3.54-2.02-3.54c-1.22,0-2.02,1.18-2.02,3.54c0,2.38,0.8,3.62,2.02,3.62
			C540.07,229.3,540.89,228.06,540.89,225.68z"/>
	</g>
	<g>
		<path d="M14.17,234.65c0-5.08,1.74-7.52,4.5-7.52c2.74,0,4.46,2.46,4.46,7.52c0,5.12-1.72,7.64-4.46,7.64
			C15.91,242.3,14.17,239.78,14.17,234.65z M21.55,234.65c0-4.28-1.16-6.2-2.88-6.2c-1.74,0-2.92,1.92-2.92,6.2
			c0,4.36,1.18,6.32,2.92,6.32C20.39,240.98,21.55,239.02,21.55,234.65z"/>
		<path d="M25.61,231.71c0-2.94,1.28-4.58,3.28-4.58c2,0,3.28,1.64,3.28,4.58c0,2.96-1.28,4.64-3.28,4.64
			C26.89,236.35,25.61,234.67,25.61,231.71z M30.91,231.71c0-2.36-0.82-3.56-2.02-3.56s-2.02,1.2-2.02,3.56s0.82,3.6,2.02,3.6
			S30.91,234.07,30.91,231.71z M37.42,227.13h1.14l-8.1,15.16h-1.14L37.42,227.13z M35.74,237.66c0-2.92,1.28-4.58,3.28-4.58
			c1.96,0,3.28,1.66,3.28,4.58c0,2.98-1.32,4.64-3.28,4.64C37.02,242.3,35.74,240.64,35.74,237.66z M41.04,237.66
			c0-2.36-0.82-3.54-2.02-3.54c-1.22,0-2.02,1.18-2.02,3.54c0,2.38,0.8,3.62,2.02,3.62C40.22,241.28,41.04,240.04,41.04,237.66z"/>
	</g>
	<g>
		<path d="M6.57,265.46h5.06v1.28H6.57V265.46z"/>
		<path d="M23.51,267.6h-2v4.08h-1.54v-4.08h-6.42v-1.06l6.22-9.5h1.74v9.26h2V267.6z M19.97,266.3v-4.76c0-0.72,0.06-1.88,0.12-2.6
			h-0.1c-0.36,0.7-0.76,1.42-1.16,2.12l-3.54,5.24H19.97z"/>
		<path d="M25.61,261.36c0-2.94,1.28-4.58,3.28-4.58s3.28,1.64,3.28,4.58c0,2.96-1.28,4.64-3.28,4.64S25.61,264.32,25.61,261.36z
			 M30.91,261.36c0-2.36-0.82-3.56-2.02-3.56c-1.2,0-2.02,1.2-2.02,3.56s0.82,3.6,2.02,3.6C30.09,264.96,30.91,263.72,30.91,261.36z
			 M37.41,256.78h1.14l-8.1,15.16h-1.14L37.41,256.78z M35.73,267.3c0-2.92,1.28-4.58,3.28-4.58c1.96,0,3.28,1.66,3.28,4.58
			c0,2.98-1.32,4.64-3.28,4.64C37.01,271.94,35.73,270.28,35.73,267.3z M41.04,267.3c0-2.36-0.82-3.54-2.02-3.54
			c-1.22,0-2.02,1.18-2.02,3.54c0,2.38,0.8,3.62,2.02,3.62C40.22,270.92,41.04,269.68,41.04,267.3z"/>
	</g>
	<g>
		<rect x="71.62" y="187.42" class="st2" width="21.74" height="46.55"/>
		<rect x="125.97" y="163.74" class="st3" width="21.74" height="70.24"/>
		<rect x="180.32" y="149.26" class="st3" width="21.74" height="84.72"/>
		<rect x="234.67" y="159.46" class="st3" width="21.74" height="74.52"/>
		<rect x="290.23" y="191.62" class="st2" width="21.74" height="42.36"/>
		<rect x="344.58" y="174.92" class="st2" width="21.74" height="59.05"/>
		<rect x="398.93" y="233.98" class="st4" width="21.74" height="13.98"/>
		<rect x="452.67" y="183.48" class="st2" width="21.74" height="50.5"/>
		<polyline class="st5" points="55.11,239.71 55.11,233.98 491.82,233.98 491.82,239.71 		"/>
		<polyline class="st5" points="49.94,261.12 55.11,261.12 55.11,122.94 49.94,122.94 		"/>
		<polyline class="st5" points="497,122.94 491.82,122.94 491.82,261.12 497,261.12 		"/>
		<rect x="77.34" y="204.2" class="st6" width="10.3" height="18.75"/>
		<rect x="131.69" y="226.24" class="st6" width="10.3" height="17.44"/>
		<rect x="186.04" y="227.56" class="st6" width="10.3" height="16.12"/>
		<rect x="240.39" y="242.04" class="st6" width="10.3" height="17.44"/>
		<rect x="295.95" y="192.03" class="st6" width="10.3" height="17.11"/>
		<rect x="350.3" y="174.92" class="st6" width="10.3" height="17.11"/>
		<rect x="404.65" y="132.15" class="st6" width="10.3" height="17.11"/>
		<rect x="458.39" y="233.98" class="st6" width="10.3" height="16.78"/>
	</g>
	<line class="st5" x1="49.94" y1="233.98" x2="55.11" y2="233.98"/>
	<line class="st5" x1="491.82" y1="222.95" x2="497" y2="222.95"/>
	<g>
		<path d="M502.39,260.84c0-5.08,1.74-7.52,4.5-7.52c2.74,0,4.46,2.46,4.46,7.52c0,5.12-1.72,7.64-4.46,7.64
			C504.13,268.48,502.39,265.96,502.39,260.84z M509.77,260.84c0-4.28-1.16-6.2-2.88-6.2c-1.74,0-2.92,1.92-2.92,6.2
			c0,4.36,1.18,6.32,2.92,6.32C508.61,267.16,509.77,265.2,509.77,260.84z"/>
		<path d="M513.83,257.9c0-2.94,1.28-4.58,3.28-4.58s3.28,1.64,3.28,4.58c0,2.96-1.28,4.64-3.28,4.64S513.83,260.86,513.83,257.9z
			 M519.13,257.9c0-2.36-0.82-3.56-2.02-3.56c-1.2,0-2.02,1.2-2.02,3.56c0,2.36,0.82,3.6,2.02,3.6
			C518.31,261.5,519.13,260.26,519.13,257.9z M525.63,253.32h1.14l-8.1,15.16h-1.14L525.63,253.32z M523.95,263.84
			c0-2.92,1.28-4.58,3.28-4.58c1.96,0,3.28,1.66,3.28,4.58c0,2.98-1.32,4.64-3.28,4.64C525.23,268.48,523.95,266.82,523.95,263.84z
			 M529.25,263.84c0-2.36-0.82-3.54-2.02-3.54c-1.22,0-2.02,1.18-2.02,3.54c0,2.38,0.8,3.62,2.02,3.62
			C528.43,267.46,529.25,266.22,529.25,263.84z"/>
	</g>
	<g>
		<g>
			<path d="M80.87,273.39c-0.31-0.56-1.09-1.79-1.7-2.69v8.07h-1.09v-7.77c-0.71,1.79-1.67,3.55-2.58,4.64
				c-0.12-0.29-0.37-0.75-0.58-1c1.09-1.22,2.31-3.48,2.99-5.49h-2.75v-1.05h2.92v-2.7c-0.82,0.17-1.65,0.32-2.43,0.42
				c-0.05-0.25-0.2-0.63-0.32-0.88c1.89-0.31,4.15-0.8,5.39-1.36l0.71,0.88c-0.65,0.27-1.43,0.51-2.26,0.71v2.92h2.57v1.05h-2.57
				v0.32c0.53,0.58,2.02,2.53,2.4,3.03L80.87,273.39z M88.45,274.32v4.45h-1.1v-4.28l-5.63,0.9l-0.19-1.04l5.81-0.93v-10.1h1.1v9.93
				l2.04-0.34l0.17,1.04L88.45,274.32z M85.32,272.06c-0.63-0.75-1.94-1.78-3.04-2.48l0.7-0.65c1.1,0.65,2.45,1.65,3.09,2.38
				L85.32,272.06z M85.7,267.57c-0.54-0.71-1.72-1.7-2.75-2.38l0.73-0.66c1.02,0.65,2.23,1.6,2.79,2.31L85.7,267.57z"/>
			<path d="M78.59,289.47v4.95c0,0.68-0.19,0.99-0.59,1.17c-0.43,0.17-1.1,0.2-2.26,0.2c-0.05-0.29-0.22-0.73-0.36-1.04
				c0.82,0.02,1.56,0.02,1.77,0c0.24,0,0.32-0.08,0.32-0.34v-4.61l-2.09,0.63l-0.34-1.1c0.68-0.17,1.51-0.39,2.43-0.65v-3.84h-2.21
				v-1.05h2.21v-3.45h1.12v3.45h1.92v1.05h-1.92v3.52l1.94-0.56l0.12,1.04L78.59,289.47z M89.64,287c-0.71,2.33-1.94,4.17-3.48,5.59
				c1.24,1.04,2.74,1.8,4.47,2.26c-0.24,0.24-0.56,0.68-0.73,0.99c-1.78-0.54-3.31-1.39-4.59-2.5c-1.48,1.12-3.16,1.94-4.9,2.48
				c-0.14-0.32-0.42-0.78-0.65-1.02c1.67-0.46,3.3-1.21,4.71-2.24c-1.22-1.33-2.19-2.92-2.86-4.79h-0.51v-1.04h3.69v-2.63h-4.06
				v-1.05h4.06v-2.72h1.1v2.72h4.13v1.05H85.9v2.63h2.82l0.2-0.05L89.64,287z M82.76,287.77c0.58,1.56,1.46,2.96,2.58,4.08
				c1.22-1.09,2.24-2.46,2.89-4.08H82.76z"/>
		</g>
	</g>
	<g>
		<g>
			<path d="M188.52,275.85v2.94h-0.99v-2.94h-3.42v-1.02h3.42v-1.46h-2.7v-5.83h2.72v-1.33h-3.25v-1.02h3.25v-1.87h0.97v1.87h3.08
				v1.02h-3.08v1.33h2.63v5.83h-2.63v1.46h3.4v1.02H188.52z M185.7,270.02h1.9v-1.6h-1.9V270.02z M185.7,272.5h1.9v-1.63h-1.9V272.5
				z M190.25,268.42h-1.8v1.6h1.8V268.42z M190.25,270.87h-1.8v1.63h1.8V270.87z M199.79,277.87c-0.26,0.2-0.58,0.63-0.77,0.92
				c-1.78-1.04-2.92-3.04-3.67-5.52c-0.53,1.89-1.65,3.86-4.04,5.51c-0.17-0.24-0.58-0.61-0.85-0.78c3.94-2.65,4.22-6.15,4.22-8.5
				v-0.76h1.12v0.78c0,0.39,0,0.83-0.03,1.28C196.34,273.95,197.61,276.74,199.79,277.87z M193.75,267.49
				c-0.37,1.26-0.85,2.35-1.43,3.23c-0.19-0.15-0.7-0.48-0.97-0.61c1.16-1.61,1.79-4.13,2.14-6.78l1.11,0.15
				c-0.15,1.02-0.34,2.02-0.58,2.97h4.45l0.2-0.05l0.73,0.22c-0.32,1.55-0.73,3.38-1.12,4.52l-0.9-0.27
				c0.25-0.87,0.54-2.16,0.77-3.38H193.75z"/>
			<path d="M189.95,285.63h0.73v2.38h-0.78v6.6c0,0.51-0.1,0.76-0.48,0.93c-0.36,0.15-0.92,0.17-1.9,0.17
				c-0.03-0.25-0.19-0.63-0.32-0.88c0.7,0.02,1.31,0.02,1.48,0.02c0.19,0,0.25-0.07,0.25-0.24v-2.36c-0.83,0.51-1.67,1.02-2.4,1.45
				l-0.46-0.82c0.75-0.32,1.78-0.87,2.86-1.43v-2.96h-2.8v2.36c0,1.53-0.17,3.57-1.19,5.03c-0.17-0.19-0.54-0.51-0.8-0.61
				c0.92-1.31,1.02-3.08,1.02-4.42v-2.84h-0.83v-2.38h0.7v-4.67h4.93V285.63z M189.76,286.48h-4.56v1.19h4.56V286.48z
				 M185.95,285.63h1.14v-2.63h1.89v-1.16h-3.03V285.63z M188.13,291.24c-0.41-0.41-1.21-1.09-1.85-1.51l0.56-0.54
				c0.7,0.44,1.48,1.02,1.89,1.43L188.13,291.24z M188.98,285.63v-1.89h-1.17v1.89H188.98z M199.55,294.57v0.9h-8.77v-0.9h2.52
				c-0.15-0.53-0.39-1.17-0.61-1.67l0.88-0.25c0.25,0.59,0.58,1.36,0.75,1.92H196c0.27-0.59,0.59-1.41,0.76-1.99l1.04,0.31
				c-0.29,0.56-0.59,1.17-0.87,1.68H199.55z M199.42,288.55h-8.43v-0.88h8.43V288.55z M198.96,286.75h-7.58v-5.08h2.11v-1.31h0.93
				v1.31h1.33v-1.31h0.93v1.31h2.28V286.75z M191.83,292.53v-3.11h6.71v3.11H191.83z M192.28,283.77h1.36v-1.28h-1.36V283.77z
				 M192.28,285.92h1.36v-1.34h-1.36V285.92z M192.84,291.73h4.66v-1.53h-4.66V291.73z M195.78,283.77v-1.28h-1.34v1.28H195.78z
				 M194.44,284.57v1.34h1.34v-1.34H194.44z M198.04,282.5h-1.46v1.28h1.46V282.5z M198.04,284.57h-1.46v1.34h1.46V284.57z"/>
		</g>
	</g>
	<g>
		<g>
			<path d="M243.16,271.48c-0.32,1.5-0.83,3.16-1.44,4.4c0.37,0.17,0.76,0.53,1.46,0.92c1.19,0.73,2.74,0.85,4.74,0.85
				c2.24,0,4.93-0.15,6.83-0.32c-0.15,0.29-0.32,0.85-0.34,1.17c-1.24,0.07-4.5,0.19-6.53,0.19c-2.23,0-3.74-0.19-4.98-0.95
				c-0.7-0.42-1.33-1-1.72-1c-0.39,0-0.95,1.07-1.45,2.14l-0.78-0.99c0.6-0.88,1.17-1.63,1.7-1.96c0.51-0.99,0.97-2.38,1.22-3.62
				h-2.21c0.46-1.02,1.04-2.48,1.48-3.82h-1.96v-1.02h3.4c-0.42,1.21-0.97,2.67-1.44,3.84h1.27l0.19-0.03L243.16,271.48z
				 M240.93,266.5c-0.17-0.75-0.56-1.9-0.85-2.79l1-0.27c0.29,0.88,0.68,1.99,0.88,2.72L240.93,266.5z M246.88,265.43
				c0.73,0.27,1.58,0.61,2.4,0.97c0.88-0.39,1.82-0.92,2.53-1.43h-7.29v-0.92h8.4l0.22-0.05l0.7,0.53
				c-0.92,0.87-2.24,1.73-3.52,2.35c0.51,0.24,0.99,0.48,1.36,0.7h2.16v7.58c0,0.59-0.12,0.87-0.53,1.04
				c-0.44,0.17-1.16,0.19-2.31,0.19c-0.05-0.31-0.19-0.68-0.31-0.95c0.83,0.03,1.56,0.02,1.77,0.02c0.24-0.02,0.31-0.08,0.31-0.29
				v-1.7h-3.13v2.82h-1.02v-2.82h-3.01v2.89h-1.07v-8.77h5.03c-1.05-0.51-2.33-1.09-3.42-1.48L246.88,265.43z M245.61,268.47v1.58
				h3.01v-1.58H245.61z M248.62,272.57v-1.65h-3.01v1.65H248.62z M252.76,268.47h-3.13v1.58h3.13V268.47z M252.76,272.57v-1.65
				h-3.13v1.65H252.76z"/>
			<path d="M245.3,284.17h-6.09v-0.93h6.09V284.17z M244.67,294.77h-3.88v0.82h-0.92v-5.69h4.79V294.77z M239.89,286.34v-0.9h4.76
				v0.9H239.89z M239.89,287.63h4.78v0.92h-4.78V287.63z M240.8,290.85v2.97h2.94v-2.97H240.8z M242.24,282.98
				c-0.24-0.61-0.77-1.56-1.21-2.24l0.82-0.46c0.46,0.68,1,1.58,1.24,2.18L242.24,282.98z M252.83,281.31
				c-0.08,7.11-0.14,12.8,0.88,13.04c0.1,0.03,0.22-1.04,0.29-2.26c0.2,0.25,0.51,0.61,0.68,0.78c-0.17,2.36-0.66,2.91-1.41,2.62
				c-1.67-0.51-1.6-5.97-1.58-13.09h-2.96v5.1h2.35v1.07h-2.35v7.24h-1.07v-7.24h-2.38v-1.07h2.38v-5.1h-2.19v-1.09H252.83z"/>
			<path d="M245.59,301.17h-6.39v-0.93h6.39V301.17z M240.9,311.77v0.82h-0.99v-5.69h4.98v4.88H240.9z M244.89,302.44v0.9h-4.96
				v-0.9H244.89z M239.93,304.63h4.98v0.92h-4.98V304.63z M240.9,307.85v2.97h2.97v-2.97H240.9z M242.34,299.98
				c-0.25-0.61-0.8-1.56-1.29-2.26l0.88-0.44c0.51,0.68,1.05,1.56,1.33,2.18L242.34,299.98z M253.63,305.09
				c-0.65,2.04-1.72,3.65-3.09,4.9c1.19,0.83,2.57,1.45,4.11,1.8c-0.24,0.24-0.56,0.7-0.71,1.02c-1.63-0.44-3.04-1.16-4.27-2.09
				c-1.27,0.97-2.74,1.65-4.27,2.13c-0.12-0.31-0.37-0.76-0.59-1.02c1.41-0.37,2.8-0.99,4.01-1.85c-1.1-1.05-1.97-2.36-2.62-3.86
				l0.63-0.22h-1.39v-1.07h7.27l0.19-0.05L253.63,305.09z M248.17,299.86c0,1.5-0.44,3.3-2.45,4.5c-0.15-0.24-0.54-0.65-0.73-0.82
				c1.82-1.07,2.12-2.5,2.12-3.72v-1.87h5.07v3.98c0,0.48,0.03,0.63,0.27,0.63h1.07c0.22,0,0.53-0.03,0.73-0.07
				c0.02,0.27,0.05,0.71,0.08,0.97c-0.17,0.07-0.51,0.08-0.8,0.08h-1.16c-1.04,0-1.24-0.44-1.24-1.63v-2.89h-2.98V299.86z
				 M247.2,305.89c0.58,1.31,1.41,2.45,2.46,3.4c1.05-0.92,1.92-2.04,2.5-3.4H247.2z"/>
			<path d="M243.43,314.63c-0.37,1.17-0.8,2.38-1.31,3.52v11.64h-1.1v-9.47c-0.44,0.76-0.92,1.5-1.41,2.11
				c-0.1-0.25-0.42-0.85-0.63-1.12c1.41-1.73,2.65-4.33,3.43-6.99L243.43,314.63z M247.08,319.98c-0.31,0.49-0.68,0.97-1.09,1.41
				h7.5v7.22c0,0.53-0.1,0.78-0.46,0.95c-0.34,0.17-0.88,0.17-1.63,0.17c-0.05-0.27-0.2-0.65-0.36-0.92c0.54,0.02,1.02,0.02,1.17,0
				c0.15,0,0.2-0.05,0.2-0.2v-1.38h-2.81v2.16h-1.04v-2.16h-3.08c-0.19,0.95-0.51,1.89-1.1,2.63c-0.17-0.2-0.63-0.58-0.87-0.7
				c0.99-1.34,1.1-3.13,1.1-4.54v-1.97c-0.51,0.41-1.02,0.78-1.56,1.07c-0.1-0.22-0.46-0.68-0.66-0.9c1.29-0.66,2.58-1.68,3.45-2.86
				h-2.55v-1.05h3.06v-1.75h-2.6v-1.04h2.6v-1.73h1.09v1.73h2.98v-1.73h1.09v1.73h2.35v1.04h-2.35v1.75h2.77v1.05H247.08z
				 M248.58,326.36v-1.58h-2.86c0,0.49-0.02,1.04-0.08,1.58H248.58z M245.72,323.89h2.86v-1.53h-2.86V323.89z M247.46,318.93h2.98
				v-1.75h-2.98V318.93z M252.42,322.36h-2.81v1.53h2.81V322.36z M252.42,326.36v-1.58h-2.81v1.58H252.42z"/>
		</g>
	</g>
	<g>
		<g>
			<path d="M299.85,273.39c-0.31-0.56-1.09-1.79-1.7-2.69v8.07h-1.09v-7.77c-0.71,1.79-1.67,3.55-2.58,4.64
				c-0.12-0.29-0.37-0.75-0.58-1c1.09-1.22,2.31-3.48,2.99-5.49h-2.75v-1.05h2.92v-2.7c-0.82,0.17-1.65,0.32-2.43,0.42
				c-0.05-0.25-0.2-0.63-0.32-0.88c1.89-0.31,4.15-0.8,5.39-1.36l0.71,0.88c-0.65,0.27-1.43,0.51-2.26,0.71v2.92h2.57v1.05h-2.57
				v0.32c0.53,0.58,2.02,2.53,2.4,3.03L299.85,273.39z M307.43,274.32v4.45h-1.1v-4.28l-5.63,0.9l-0.19-1.04l5.81-0.93v-10.1h1.1
				v9.93l2.04-0.34l0.17,1.04L307.43,274.32z M304.31,272.06c-0.63-0.75-1.94-1.78-3.04-2.48l0.7-0.65c1.1,0.65,2.45,1.65,3.09,2.38
				L304.31,272.06z M304.68,267.57c-0.54-0.71-1.72-1.7-2.75-2.38l0.73-0.66c1.02,0.65,2.23,1.6,2.79,2.31L304.68,267.57z"/>
			<path d="M297.58,289.47v4.95c0,0.68-0.19,0.99-0.59,1.17c-0.43,0.17-1.1,0.2-2.26,0.2c-0.05-0.29-0.22-0.73-0.36-1.04
				c0.82,0.02,1.56,0.02,1.77,0c0.24,0,0.32-0.08,0.32-0.34v-4.61l-2.09,0.63l-0.34-1.1c0.68-0.17,1.51-0.39,2.43-0.65v-3.84h-2.21
				v-1.05h2.21v-3.45h1.12v3.45h1.92v1.05h-1.92v3.52l1.94-0.56l0.12,1.04L297.58,289.47z M308.62,287
				c-0.71,2.33-1.94,4.17-3.48,5.59c1.24,1.04,2.74,1.8,4.47,2.26c-0.24,0.24-0.56,0.68-0.73,0.99c-1.78-0.54-3.31-1.39-4.59-2.5
				c-1.48,1.12-3.16,1.94-4.9,2.48c-0.14-0.32-0.42-0.78-0.65-1.02c1.67-0.46,3.3-1.21,4.71-2.24c-1.22-1.33-2.19-2.92-2.86-4.79
				h-0.51v-1.04h3.69v-2.63h-4.06v-1.05h4.06v-2.72h1.1v2.72h4.13v1.05h-4.13v2.63h2.82l0.2-0.05L308.62,287z M301.74,287.77
				c0.58,1.56,1.46,2.96,2.58,4.08c1.22-1.09,2.24-2.46,2.89-4.08H301.74z"/>
			<path d="M296.44,310.67v1.38h-0.99v-6.31c-0.29,0.54-0.6,1.05-0.95,1.51c-0.08-0.29-0.36-0.92-0.54-1.19
				c1.21-1.65,2.01-4.1,2.48-6.75h-2.18v-1.05h5.66v1.05h-2.41c-0.27,1.44-0.63,2.87-1.07,4.15h3.35v7.21H296.44z M296.44,304.48
				v5.17h2.36v-5.17H296.44z M305.19,307.17c-0.15,1.09-0.49,2.14-1.17,3.09c1.44,0.88,3.35,1.41,5.66,1.61
				c-0.24,0.24-0.53,0.7-0.66,0.99c-2.29-0.29-4.2-0.87-5.66-1.85c-0.76,0.73-1.8,1.38-3.25,1.85c-0.14-0.25-0.46-0.68-0.66-0.88
				c1.39-0.39,2.38-0.95,3.08-1.58c-0.77-0.66-1.38-1.48-1.84-2.46l0.95-0.27c0.37,0.78,0.88,1.46,1.55,2.01
				c0.54-0.76,0.82-1.61,0.94-2.5h-3.5v-6.36h3.6v-1.68h-3.96v-1.04h9.16v1.04h-4.13v1.68h3.77v6.36H305.19z M301.64,303.55h2.58
				v-1.82h-2.58V303.55z M304.21,306.25c0.02-0.34,0.02-0.65,0.02-0.99v-0.85h-2.58v1.84H304.21z M308.01,304.41h-2.72v0.85
				c0,0.34,0,0.65-0.02,0.99h2.74V304.41z M305.29,301.73v1.82h2.72v-1.82H305.29z"/>
			<path d="M299.94,319.63h0.73v2.38h-0.78v6.6c0,0.51-0.1,0.76-0.48,0.93c-0.36,0.15-0.92,0.17-1.9,0.17
				c-0.03-0.25-0.19-0.63-0.32-0.88c0.7,0.02,1.31,0.02,1.48,0.02c0.19,0,0.25-0.07,0.25-0.24v-2.36c-0.83,0.51-1.67,1.02-2.4,1.45
				l-0.46-0.82c0.75-0.32,1.78-0.87,2.86-1.43v-2.96h-2.8v2.36c0,1.53-0.17,3.57-1.19,5.03c-0.17-0.19-0.54-0.51-0.8-0.61
				c0.92-1.31,1.02-3.08,1.02-4.42v-2.84h-0.83v-2.38h0.7v-4.67h4.93V319.63z M299.75,320.48h-4.56v1.19h4.56V320.48z
				 M295.94,319.63h1.14v-2.63h1.89v-1.16h-3.03V319.63z M298.12,325.24c-0.41-0.41-1.21-1.09-1.85-1.51l0.56-0.54
				c0.7,0.44,1.48,1.02,1.89,1.43L298.12,325.24z M298.97,319.63v-1.89h-1.17v1.89H298.97z M309.54,328.57v0.9h-8.77v-0.9h2.52
				c-0.15-0.53-0.39-1.17-0.61-1.67l0.88-0.25c0.25,0.59,0.58,1.36,0.75,1.92h1.68c0.27-0.59,0.6-1.41,0.77-1.99l1.04,0.31
				c-0.29,0.56-0.59,1.17-0.87,1.68H309.54z M309.41,322.55h-8.43v-0.88h8.43V322.55z M308.95,320.75h-7.58v-5.08h2.11v-1.31h0.94
				v1.31h1.33v-1.31h0.94v1.31h2.28V320.75z M301.83,326.53v-3.11h6.71v3.11H301.83z M302.27,317.77h1.36v-1.28h-1.36V317.77z
				 M302.27,319.92h1.36v-1.34h-1.36V319.92z M302.83,325.73h4.66v-1.53h-4.66V325.73z M305.77,317.77v-1.28h-1.34v1.28H305.77z
				 M304.43,318.57v1.34h1.34v-1.34H304.43z M308.03,316.5h-1.46v1.28h1.46V316.5z M308.03,318.57h-1.46v1.34h1.46V318.57z"/>
			<path d="M309.47,341.78v1.05h-15.28v-1.05h1.73l-0.32-9.04c1.05-0.37,2.33-0.88,3.13-1.31l0.58,0.93
				c-0.78,0.34-1.77,0.68-2.65,0.97l0.07,2.07h2.36v0.97h-2.33l0.08,2.21h2.29v0.97h-2.26l0.08,2.23h9.79
				c0.03-0.63,0.08-1.38,0.12-2.16h-2.31v-0.97h2.35c0.03-0.71,0.07-1.46,0.08-2.21h-2.35v-0.97h2.36c0.02-0.78,0.03-1.55,0.03-2.26
				h-2.53v-1h3.57c-0.02,2.99-0.1,7.07-0.25,9.57H309.47z M300.16,343.85c-1.36,1.07-3.4,2.21-5.05,2.94
				c-0.15-0.22-0.46-0.61-0.66-0.85c1.61-0.68,3.65-1.84,4.73-2.77L300.16,343.85z M301.52,337.85c-0.19,1.21-0.56,2.4-1.09,3.23
				c-0.17-0.15-0.58-0.39-0.8-0.51c0.54-0.75,0.83-1.8,0.99-2.86L301.52,337.85z M302.76,336.92h-2.74v-5.47h0.99v1.65h2.84v0.97
				h-2.84v1.92h2.31V336h0.42v4.52c0,0.49-0.1,0.7-0.46,0.87c-0.36,0.14-0.95,0.14-1.77,0.14c-0.05-0.25-0.17-0.56-0.31-0.8
				c0.65,0.03,1.14,0.03,1.33,0.02c0.17,0,0.22-0.07,0.22-0.22V336.92z M304.14,343.12c1.8,0.87,3.76,1.94,4.95,2.77l-0.73,0.85
				c-1.17-0.83-3.06-1.96-4.84-2.84L304.14,343.12z"/>
			<path d="M298.46,356.47c-0.41,1.51-1.02,3.2-1.68,4.44c0.36,0.19,0.75,0.53,1.39,0.9c1.21,0.73,2.7,0.85,4.71,0.85
				c2.21,0,4.9-0.14,6.78-0.32c-0.14,0.31-0.32,0.85-0.34,1.17c-1.24,0.07-4.45,0.19-6.46,0.19c-2.21,0-3.71-0.19-4.96-0.95
				c-0.66-0.42-1.31-1-1.68-1c-0.39,0-0.97,1.05-1.48,2.14l-0.78-0.99c0.61-0.92,1.21-1.65,1.73-1.97c0.59-0.97,1.1-2.38,1.48-3.65
				h-2.26c0.48-1,1.07-2.45,1.55-3.77h-2.33v-1.02h3.76c-0.46,1.21-1.02,2.65-1.51,3.81h1.38l0.17-0.05L298.46,356.47z
				 M296.15,351.62c-0.19-0.73-0.56-1.89-0.85-2.75l1.02-0.25c0.29,0.85,0.68,1.97,0.9,2.67L296.15,351.62z M300.38,354.75
				c-0.07,2.11-0.32,4.66-1.21,6.54c-0.2-0.17-0.65-0.44-0.9-0.56c1-2.16,1.09-5.15,1.09-7.28v-4.42h9.13v11.2
				c0,0.63-0.17,0.92-0.58,1.11c-0.42,0.17-1.14,0.19-2.36,0.19c-0.05-0.29-0.19-0.7-0.34-0.97c0.88,0.02,1.67,0.02,1.89,0
				c0.24,0,0.34-0.08,0.34-0.32v-5.49H300.38z M300.4,350.01v1.48h2.99v-1.48H300.4z M300.4,353.92h2.99v-1.58h-2.99v1.12V353.92z
				 M306.09,355.8v3.84h-4.52v-3.84H306.09z M305.23,356.59h-2.8v2.28h2.8V356.59z M307.43,350.01h-3.08v1.48h3.08V350.01z
				 M307.43,353.92v-1.58h-3.08v1.58H307.43z"/>
			<path d="M298.04,373.48c-0.29,1.5-0.8,3.18-1.39,4.42c0.37,0.17,0.77,0.54,1.48,0.97c1.22,0.71,2.74,0.83,4.78,0.83
				c2.24,0,4.93-0.14,6.82-0.32c-0.14,0.29-0.29,0.82-0.31,1.12c-1.26,0.07-4.54,0.19-6.54,0.19c-2.24,0-3.74-0.19-4.98-0.95
				c-0.7-0.41-1.33-1-1.72-1c-0.37,0-0.94,1.05-1.46,2.14l-0.73-0.92c0.56-0.85,1.1-1.56,1.6-1.92c0.54-1.02,0.99-2.45,1.27-3.72
				h-2.14c0.51-1.02,1.16-2.48,1.68-3.82h-2.19v-1.02h3.71c-0.49,1.22-1.1,2.7-1.65,3.86h1.09l0.17-0.05L298.04,373.48z
				 M296.37,368.52c-0.27-0.73-0.83-1.92-1.24-2.79l0.94-0.29c0.42,0.88,1,2.01,1.26,2.72L296.37,368.52z M299.45,373.52h-1v-1.68
				h4.78c-0.12-0.25-0.25-0.53-0.36-0.76h-3.21v-4.71h3.04c0.19-0.37,0.36-0.78,0.48-1.07l1.17,0.19c-0.19,0.32-0.39,0.61-0.58,0.88
				h4.11v4.71H304c0.14,0.25,0.29,0.53,0.39,0.76h4.71v1.58h-1.04v-0.88h-2.16v0.85c0,0.31,0.03,0.41,0.36,0.41h1.53
				c0.26,0,0.78-0.02,1-0.07c0.02,0.24,0.02,0.39,0.07,0.65c-0.2,0.05-0.63,0.05-1.02,0.05h-1.96c-0.82,0-0.95-0.34-0.95-1.05v-0.83
				h-1.9c-0.53,1.22-1.7,1.78-3.98,2.18c-0.08-0.2-0.31-0.51-0.48-0.65c1.94-0.25,2.94-0.7,3.42-1.53h-2.55V373.52z M302.83,375.73
				c-0.05,0.22-0.12,0.42-0.19,0.63h4.84c0,0-0.02,0.29-0.07,0.41c-0.24,1.17-0.49,1.75-0.83,2.01c-0.27,0.19-0.51,0.25-0.92,0.25
				c-0.34,0.02-1.05,0.02-1.78-0.05c-0.02-0.2-0.1-0.51-0.2-0.73c0.71,0.08,1.39,0.08,1.65,0.08c0.25,0,0.39-0.02,0.51-0.1
				c0.19-0.15,0.34-0.49,0.51-1.14h-4.06c-0.58,0.95-1.53,1.63-3.14,2.09c-0.1-0.24-0.36-0.59-0.56-0.76
				c2.04-0.51,2.89-1.43,3.26-2.69h-3.08v-0.75h4.54c-0.14-0.32-0.31-0.68-0.44-0.97l0.9-0.2c0.2,0.34,0.46,0.82,0.63,1.17h4.52
				v0.75H302.83z M300.72,367.72h6.07v-0.75h-6.07V367.72z M300.72,369.08h6.07v-0.75h-6.07V369.08z M300.72,370.46h6.07v-0.76
				h-6.07V370.46z"/>
		</g>
	</g>
	<g>
		<g>
			<path d="M357.21,266.83h-5.42v2.79h-1.09v-3.62h6.51v-1.14h-5.76v-0.83h12.73v0.83h-5.86v1.14h6.65v3.62h-1.12v-2.79h-5.52v3.93
				h-1.1V266.83z M363.43,277.67c0.92,0,1.07-0.31,1.17-2.04c0.26,0.17,0.66,0.32,0.99,0.37c-0.17,2.06-0.53,2.58-2.09,2.58h-3.99
				c-1.79,0-2.31-0.31-2.31-1.61v-0.6h-3.94v0.9h-1.09v-5.86h11.42v4.96h-5.32v0.61c0,0.56,0.22,0.68,1.29,0.68H363.43z
				 M352.18,269.87c1.05-0.14,2.5-0.34,4.03-0.56l0.03,0.73c-1.33,0.27-2.6,0.53-3.72,0.73L352.18,269.87z M352.93,267.23
				c1.1,0.19,2.57,0.58,3.33,0.92l-0.34,0.71c-0.76-0.36-2.19-0.8-3.33-1L352.93,267.23z M353.25,272.26v1.22h3.94v-1.22H353.25z
				 M357.19,275.53v-1.26h-3.94v1.26H357.19z M362.46,272.26h-4.2v1.22h4.2V272.26z M362.46,275.53v-1.26h-4.2v1.26H362.46z
				 M363.09,270.84c-0.94-0.32-2.65-0.73-3.98-0.92l0.29-0.7c1.29,0.15,3.03,0.51,3.96,0.83L363.09,270.84z M363.11,267.83
				c-0.99,0.41-2.38,0.76-3.38,0.99l-0.41-0.61c0.97-0.2,2.45-0.73,3.28-1.04L363.11,267.83z"/>
			<path d="M365.45,289.01h-7v5.27c0,0.8-0.2,1.14-0.82,1.33c-0.61,0.2-1.68,0.22-3.31,0.22c-0.08-0.34-0.31-0.83-0.51-1.17
				c1.41,0.05,2.65,0.05,3.03,0.03c0.34-0.03,0.46-0.12,0.46-0.42v-5.25h-7.07v-1.12h7.07v-2.48c1.48-0.66,3.23-1.77,4.45-2.79
				h-9.83v-1.1h11.05l0.24-0.07l0.85,0.65c-1.46,1.43-3.69,2.94-5.61,3.91v1.89h7V289.01z"/>
			<path d="M356.58,301.17h-6.39v-0.93h6.39V301.17z M351.89,311.77v0.82h-0.99v-5.69h4.98v4.88H351.89z M355.88,302.44v0.9h-4.96
				v-0.9H355.88z M350.92,304.63h4.98v0.92h-4.98V304.63z M351.89,307.85v2.97h2.97v-2.97H351.89z M353.33,299.98
				c-0.25-0.61-0.8-1.56-1.29-2.26l0.88-0.44c0.51,0.68,1.05,1.56,1.33,2.18L353.33,299.98z M364.62,305.09
				c-0.65,2.04-1.72,3.65-3.09,4.9c1.19,0.83,2.57,1.45,4.11,1.8c-0.24,0.24-0.56,0.7-0.71,1.02c-1.63-0.44-3.04-1.16-4.27-2.09
				c-1.27,0.97-2.74,1.65-4.27,2.13c-0.12-0.31-0.37-0.76-0.59-1.02c1.41-0.37,2.8-0.99,4.01-1.85c-1.1-1.05-1.97-2.36-2.62-3.86
				l0.63-0.22h-1.39v-1.07h7.27l0.19-0.05L364.62,305.09z M359.16,299.86c0,1.5-0.44,3.3-2.45,4.5c-0.15-0.24-0.54-0.65-0.73-0.82
				c1.82-1.07,2.12-2.5,2.12-3.72v-1.87h5.07v3.98c0,0.48,0.03,0.63,0.27,0.63h1.07c0.22,0,0.53-0.03,0.73-0.07
				c0.02,0.27,0.05,0.71,0.08,0.97c-0.17,0.07-0.51,0.08-0.8,0.08h-1.16c-1.04,0-1.24-0.44-1.24-1.63v-2.89h-2.98V299.86z
				 M358.2,305.89c0.58,1.31,1.41,2.45,2.46,3.4c1.05-0.92,1.92-2.04,2.5-3.4H358.2z"/>
			<path d="M354.42,314.63c-0.37,1.17-0.8,2.38-1.31,3.52v11.64h-1.1v-9.47c-0.44,0.76-0.92,1.5-1.41,2.11
				c-0.1-0.25-0.42-0.85-0.63-1.12c1.41-1.73,2.65-4.33,3.43-6.99L354.42,314.63z M358.08,319.98c-0.31,0.49-0.68,0.97-1.09,1.41
				h7.5v7.22c0,0.53-0.1,0.78-0.46,0.95c-0.34,0.17-0.88,0.17-1.63,0.17c-0.05-0.27-0.2-0.65-0.36-0.92c0.54,0.02,1.02,0.02,1.17,0
				c0.15,0,0.2-0.05,0.2-0.2v-1.38h-2.81v2.16h-1.04v-2.16h-3.08c-0.19,0.95-0.51,1.89-1.1,2.63c-0.17-0.2-0.63-0.58-0.87-0.7
				c0.99-1.34,1.1-3.13,1.1-4.54v-1.97c-0.51,0.41-1.02,0.78-1.56,1.07c-0.1-0.22-0.46-0.68-0.66-0.9c1.29-0.66,2.58-1.68,3.45-2.86
				h-2.55v-1.05h3.06v-1.75h-2.6v-1.04h2.6v-1.73h1.09v1.73h2.98v-1.73h1.09v1.73h2.35v1.04h-2.35v1.75h2.77v1.05H358.08z
				 M359.57,326.36v-1.58h-2.86c0,0.49-0.02,1.04-0.08,1.58H359.57z M356.72,323.89h2.86v-1.53h-2.86V323.89z M358.45,318.93h2.98
				v-1.75h-2.98V318.93z M363.41,322.36h-2.81v1.53h2.81V322.36z M363.41,326.36v-1.58h-2.81v1.58H363.41z"/>
			<path d="M365.47,341.78v1.05h-15.28v-1.05h1.73l-0.32-9.04c1.05-0.37,2.33-0.88,3.13-1.31l0.58,0.93
				c-0.78,0.34-1.77,0.68-2.65,0.97l0.07,2.07h2.36v0.97h-2.33l0.08,2.21h2.29v0.97h-2.26l0.08,2.23h9.79
				c0.03-0.63,0.08-1.38,0.12-2.16h-2.31v-0.97h2.35c0.03-0.71,0.07-1.46,0.08-2.21h-2.35v-0.97h2.36c0.02-0.78,0.03-1.55,0.03-2.26
				h-2.53v-1h3.57c-0.02,2.99-0.1,7.07-0.25,9.57H365.47z M356.16,343.85c-1.36,1.07-3.4,2.21-5.05,2.94
				c-0.15-0.22-0.46-0.61-0.66-0.85c1.61-0.68,3.65-1.84,4.73-2.77L356.16,343.85z M357.52,337.85c-0.19,1.21-0.56,2.4-1.09,3.23
				c-0.17-0.15-0.58-0.39-0.8-0.51c0.54-0.75,0.83-1.8,0.99-2.86L357.52,337.85z M358.76,336.92h-2.74v-5.47h0.99v1.65h2.84v0.97
				h-2.84v1.92h2.31V336h0.42v4.52c0,0.49-0.1,0.7-0.46,0.87c-0.36,0.14-0.95,0.14-1.77,0.14c-0.05-0.25-0.17-0.56-0.31-0.8
				c0.65,0.03,1.14,0.03,1.33,0.02c0.17,0,0.22-0.07,0.22-0.22V336.92z M360.13,343.12c1.8,0.87,3.76,1.94,4.95,2.77l-0.73,0.85
				c-1.17-0.83-3.06-1.96-4.84-2.84L360.13,343.12z"/>
			<path d="M358.89,354.87c-0.12,0.1-0.25,0.19-0.39,0.29c1.55,0.93,4.49,1.94,7.16,2.38c-0.24,0.22-0.53,0.66-0.68,0.93
				c-1.24-0.25-2.53-0.65-3.72-1.09v0.71h-6.8v-0.75c-1.17,0.48-2.36,0.9-3.48,1.22c-0.22-0.22-0.63-0.63-0.88-0.83
				c2.8-0.68,5.93-1.85,7.73-3.31h-0.56v-2.69h-5.52v2.14h-1.02v-2.94h6.54v-1.02h-5.59v-0.88h12.31v0.88h-5.61v1.02h6.6v2.94h-1.07
				v-2.14h-5.52v2.69h-0.37L358.89,354.87z M352.06,354.49c1.1-0.2,2.69-0.58,4.27-0.93l0.08,0.71c-1.39,0.41-2.79,0.78-3.99,1.1
				L352.06,354.49z M362.02,358.9l0.73,0.48c-0.85,1.05-2.35,2.19-3.57,2.94c0.56,0.27,1.07,0.51,1.46,0.73l-0.49,0.85
				c-1.22-0.71-3.62-1.87-5.42-2.63l0.49-0.71c0.87,0.37,1.9,0.82,2.87,1.28c0.92-0.49,2.06-1.26,2.87-1.97h-8.75v-0.9h9.62
				L362.02,358.9z M352.96,352c1.07,0.19,2.53,0.54,3.3,0.82l-0.31,0.73c-0.77-0.29-2.23-0.68-3.31-0.9L352.96,352z M361.1,357.33
				c-1.36-0.51-2.55-1.11-3.37-1.63c-0.97,0.59-2.09,1.16-3.25,1.63H361.1z M363.38,355.36c-0.97-0.37-2.79-0.92-4.18-1.21
				l0.32-0.66c1.36,0.25,3.18,0.73,4.17,1.12L363.38,355.36z M363.16,352.64c-1,0.37-2.46,0.66-3.47,0.83l-0.43-0.58
				c1.02-0.19,2.52-0.65,3.37-0.92L363.16,352.64z"/>
			<path d="M351.89,376.32c-0.2,1.46-0.54,3.06-0.88,4.11c-0.22-0.12-0.68-0.29-0.93-0.36c0.39-1.04,0.66-2.55,0.83-3.91
				L351.89,376.32z M355.73,375.52c-0.05-0.29-0.14-0.65-0.24-1.02c-4.1,0.59-4.61,0.71-4.95,0.88c-0.07-0.22-0.22-0.78-0.36-1.07
				c0.34-0.07,0.75-0.51,1.29-1.12c0.29-0.31,0.92-1.07,1.61-2.06c-2.04,0.25-2.43,0.34-2.67,0.46c-0.05-0.24-0.22-0.75-0.34-1.04
				c0.29-0.07,0.58-0.44,0.97-0.94c0.37-0.49,1.65-2.46,2.41-4.33l1.04,0.46c-0.82,1.63-1.8,3.3-2.82,4.59l2.13-0.19
				c0.46-0.71,0.93-1.48,1.34-2.23l0.99,0.58c-1.24,2.01-2.65,3.98-4.1,5.52l3.2-0.42c-0.19-0.58-0.39-1.14-0.58-1.65l0.88-0.25
				c0.48,1.12,0.97,2.63,1.16,3.52L355.73,375.52z M353.81,376.12c0.22,1.16,0.44,2.65,0.49,3.66l-0.97,0.17
				c-0.03-0.99-0.22-2.52-0.43-3.66L353.81,376.12z M355.63,375.69c0.37,0.94,0.77,2.14,0.92,2.94l-0.92,0.29
				c-0.14-0.8-0.51-2.02-0.87-2.96L355.63,375.69z M365.54,379.42v1.04h-9.37v-1.04h1.55v-13.22h6.66v13.22H365.54z M358.76,367.23
				v3.3h4.56v-3.3H358.76z M363.31,371.55h-4.56v3.4h4.56V371.55z M358.76,379.42h4.56v-3.45h-4.56V379.42z"/>
			<path d="M355.05,382.72c-0.48,1.26-1.05,2.53-1.7,3.71v11.37h-1.07v-9.62c-0.53,0.78-1.1,1.51-1.67,2.14
				c-0.12-0.27-0.44-0.83-0.65-1.1c1.6-1.65,3.11-4.22,4.01-6.82L355.05,382.72z M365.42,391.91h-4.66v5.92h-1.12v-5.92h-4.91v-1.09
				h4.91v-3.89h-2.79c-0.36,1.02-0.78,1.92-1.26,2.65c-0.22-0.15-0.68-0.44-0.97-0.58c1-1.41,1.7-3.6,2.09-5.83l1.07,0.2
				c-0.15,0.85-0.34,1.68-0.6,2.46h2.45v-3.3h1.12v3.3h3.93v1.09h-3.93v3.89h4.66V391.91z"/>
		</g>
	</g>
	<g>
		<g>
			<path d="M418.38,273.93h-7.02v4.86h-1.17v-4.86h-6.9v-1.12h6.9v-2.86h-5.78v-1.11h5.78v-5.51h1.17v5.51h6.02v1.11h-6.02v2.86
				h7.02V273.93z M406.91,268.05c-0.34-1.02-1.19-2.63-1.99-3.82l1-0.42c0.83,1.19,1.7,2.77,2.06,3.77L406.91,268.05z M416.8,264.19
				c-0.7,1.31-1.62,2.87-2.33,3.86l-0.99-0.39c0.73-1,1.63-2.7,2.14-3.91L416.8,264.19z"/>
			<path d="M407.37,285.2c-0.32,0.99-0.8,2.02-1.38,2.86c0.39,0.1,0.73,0.41,1.39,0.77c1.02,0.54,2.53,0.61,4.4,0.61
				c2.18,0,5.01-0.1,6.78-0.31c-0.1,0.29-0.27,0.78-0.29,1.07c-1.55,0.1-4.76,0.19-6.51,0.19c-1.99,0-3.49-0.12-4.61-0.71
				c-0.63-0.36-1.11-0.78-1.45-0.78c-0.46,0-1.17,0.78-1.84,1.67l-0.65-0.88c0.46-0.49,0.92-0.94,1.39-1.26h-0.02
				c0.58-0.63,1.12-1.6,1.48-2.53h-2.31c0.42-0.68,0.97-1.61,1.43-2.5h-2.02v-0.87h3.55c-0.44,0.82-0.93,1.73-1.39,2.5h1.28
				l0.15-0.07L407.37,285.2z M414.83,291.49h3.4v0.9h-3.4v2.18c0,0.63-0.14,0.92-0.65,1.09s-1.38,0.15-2.79,0.15
				c-0.05-0.29-0.24-0.68-0.39-0.97c1.14,0.03,2.11,0.03,2.36,0.02c0.29-0.02,0.37-0.08,0.37-0.31v-2.16h-10.42v-0.9h10.42v-0.99
				h1.09V291.49z M404.8,282.4c-0.17-0.46-0.49-1.21-0.73-1.79l0.92-0.29c0.27,0.56,0.61,1.28,0.78,1.72L404.8,282.4z
				 M406.82,292.44c0.94,0.53,2.04,1.34,2.58,1.97l-0.82,0.73c-0.49-0.65-1.6-1.5-2.53-2.06L406.82,292.44z M411.65,283.66
				c0.1-0.29,0.24-0.59,0.34-0.9h-4.4v-0.83h2.91c-0.19-0.43-0.49-0.92-0.82-1.31l0.92-0.31c0.37,0.44,0.78,1.09,0.93,1.51
				l-0.31,0.1h2.91c0.34-0.48,0.71-1.14,0.93-1.58l1.05,0.27c-0.29,0.44-0.61,0.9-0.9,1.31h2.87v0.83h-4.98
				c-0.15,0.32-0.31,0.63-0.46,0.9h4.11v5.07h-8.04v-5.07H411.65z M415.68,284.32h-5.9v0.82h5.9V284.32z M415.68,285.76h-5.9v0.83
				h5.9V285.76z M415.68,287.24h-5.9v0.83h5.9V287.24z"/>
			<path d="M408.93,302.63h0.73v2.38h-0.78v6.6c0,0.51-0.1,0.76-0.48,0.93c-0.36,0.15-0.92,0.17-1.9,0.17
				c-0.03-0.25-0.19-0.63-0.32-0.88c0.7,0.02,1.31,0.02,1.48,0.02c0.19,0,0.25-0.07,0.25-0.24v-2.36c-0.83,0.51-1.67,1.02-2.4,1.45
				l-0.46-0.82c0.75-0.32,1.79-0.87,2.86-1.43v-2.96h-2.8v2.36c0,1.53-0.17,3.57-1.19,5.03c-0.17-0.19-0.54-0.51-0.8-0.61
				c0.92-1.31,1.02-3.08,1.02-4.42v-2.84h-0.83v-2.38h0.7v-4.67h4.93V302.63z M408.74,303.48h-4.56v1.19h4.56V303.48z
				 M404.94,302.63h1.14v-2.63h1.89v-1.16h-3.03V302.63z M407.11,308.24c-0.41-0.41-1.21-1.09-1.85-1.51l0.56-0.54
				c0.7,0.44,1.48,1.02,1.89,1.43L407.11,308.24z M407.96,302.63v-1.89h-1.17v1.89H407.96z M418.53,311.57v0.9h-8.77v-0.9h2.52
				c-0.15-0.53-0.39-1.17-0.61-1.67l0.88-0.25c0.25,0.59,0.58,1.36,0.75,1.92h1.68c0.27-0.59,0.6-1.41,0.77-1.99l1.04,0.31
				c-0.29,0.56-0.59,1.17-0.87,1.68H418.53z M418.4,305.55h-8.43v-0.88h8.43V305.55z M417.94,303.75h-7.58v-5.08h2.11v-1.31h0.94
				v1.31h1.33v-1.31h0.94v1.31h2.28V303.75z M410.82,309.53v-3.11h6.71v3.11H410.82z M411.26,300.77h1.36v-1.28h-1.36V300.77z
				 M411.26,302.92h1.36v-1.34h-1.36V302.92z M411.82,308.73h4.66v-1.53h-4.66V308.73z M414.76,300.77v-1.28h-1.34v1.28H414.76z
				 M413.42,301.57v1.34h1.34v-1.34H413.42z M417.02,299.5h-1.46v1.28h1.46V299.5z M417.02,301.57h-1.46v1.34h1.46V301.57z"/>
			<path d="M418.47,324.78v1.05h-15.28v-1.05h1.73l-0.32-9.04c1.05-0.37,2.33-0.88,3.13-1.31l0.58,0.93
				c-0.78,0.34-1.77,0.68-2.65,0.97l0.07,2.07h2.36v0.97h-2.33l0.08,2.21h2.29v0.97h-2.26l0.08,2.23h9.79
				c0.03-0.63,0.08-1.38,0.12-2.16h-2.31v-0.97h2.35c0.03-0.71,0.07-1.46,0.08-2.21h-2.35v-0.97H416c0.02-0.78,0.03-1.55,0.03-2.26
				h-2.53v-1h3.57c-0.02,2.99-0.1,7.07-0.25,9.57H418.47z M409.15,326.85c-1.36,1.07-3.4,2.21-5.05,2.94
				c-0.15-0.22-0.46-0.61-0.66-0.85c1.61-0.68,3.65-1.84,4.72-2.77L409.15,326.85z M410.51,320.85c-0.19,1.21-0.56,2.4-1.09,3.23
				c-0.17-0.15-0.58-0.39-0.8-0.51c0.54-0.75,0.83-1.8,0.99-2.86L410.51,320.85z M411.75,319.92h-2.74v-5.47H410v1.65h2.84v0.97H410
				v1.92h2.31V319h0.42v4.52c0,0.49-0.1,0.7-0.46,0.87c-0.36,0.14-0.95,0.14-1.77,0.14c-0.05-0.25-0.17-0.56-0.31-0.8
				c0.65,0.03,1.14,0.03,1.33,0.02c0.17,0,0.22-0.07,0.22-0.22V319.92z M413.13,326.12c1.8,0.87,3.76,1.94,4.95,2.77l-0.73,0.85
				c-1.17-0.83-3.06-1.96-4.84-2.84L413.13,326.12z"/>
			<path d="M409.58,335.17h-6.39v-0.93h6.39V335.17z M404.88,345.77v0.82h-0.99v-5.69h4.98v4.88H404.88z M408.88,336.44v0.9h-4.96
				v-0.9H408.88z M403.92,338.63h4.98v0.92h-4.98V338.63z M404.88,341.85v2.97h2.97v-2.97H404.88z M406.33,333.98
				c-0.25-0.61-0.8-1.56-1.29-2.26l0.88-0.44c0.51,0.68,1.05,1.56,1.33,2.18L406.33,333.98z M417.62,339.09
				c-0.65,2.04-1.72,3.65-3.09,4.9c1.19,0.83,2.57,1.45,4.11,1.8c-0.24,0.24-0.56,0.7-0.71,1.02c-1.63-0.44-3.04-1.16-4.27-2.09
				c-1.28,0.97-2.74,1.65-4.27,2.13c-0.12-0.31-0.37-0.76-0.59-1.02c1.41-0.37,2.8-0.99,4.01-1.85c-1.1-1.05-1.97-2.36-2.62-3.86
				l0.63-0.22h-1.39v-1.07h7.27l0.19-0.05L417.62,339.09z M412.16,333.86c0,1.5-0.44,3.3-2.45,4.5c-0.15-0.24-0.54-0.65-0.73-0.82
				c1.82-1.07,2.13-2.5,2.13-3.72v-1.87h5.07v3.98c0,0.48,0.03,0.63,0.27,0.63h1.07c0.22,0,0.53-0.03,0.73-0.07
				c0.02,0.27,0.05,0.71,0.08,0.97c-0.17,0.07-0.51,0.08-0.8,0.08h-1.16c-1.04,0-1.24-0.44-1.24-1.63v-2.89h-2.97V333.86z
				 M411.19,339.89c0.58,1.31,1.41,2.45,2.46,3.4c1.05-0.92,1.92-2.04,2.5-3.4H411.19z"/>
			<path d="M407.42,348.63c-0.37,1.17-0.8,2.38-1.31,3.52v11.64H405v-9.47c-0.44,0.76-0.92,1.5-1.41,2.11
				c-0.1-0.25-0.42-0.85-0.63-1.12c1.41-1.73,2.65-4.33,3.43-6.99L407.42,348.63z M411.07,353.98c-0.31,0.49-0.68,0.97-1.09,1.41
				h7.5v7.22c0,0.53-0.1,0.78-0.46,0.95c-0.34,0.17-0.88,0.17-1.63,0.17c-0.05-0.27-0.2-0.65-0.36-0.92c0.54,0.02,1.02,0.02,1.17,0
				c0.15,0,0.2-0.05,0.2-0.2v-1.38h-2.81v2.16h-1.04v-2.16h-3.08c-0.19,0.95-0.51,1.89-1.1,2.63c-0.17-0.2-0.63-0.58-0.87-0.7
				c0.99-1.34,1.1-3.13,1.1-4.54v-1.97c-0.51,0.41-1.02,0.78-1.56,1.07c-0.1-0.22-0.46-0.68-0.66-0.9c1.29-0.66,2.58-1.68,3.45-2.86
				h-2.55v-1.05h3.06v-1.75h-2.6v-1.04h2.6v-1.73h1.09v1.73h2.97v-1.73h1.09v1.73h2.35v1.04h-2.35v1.75h2.77v1.05H411.07z
				 M412.57,360.36v-1.58h-2.86c0,0.49-0.02,1.04-0.08,1.58H412.57z M409.71,357.89h2.86v-1.53h-2.86V357.89z M411.45,352.93h2.97
				v-1.75h-2.97V352.93z M416.41,356.36h-2.81v1.53h2.81V356.36z M416.41,360.36v-1.58h-2.81v1.58H416.41z"/>
		</g>
	</g>
	<g>
		<g>
			<path d="M464.37,271.53c-0.1,1.58-0.48,3.08-1.68,4.35c2.12,1.21,5.03,1.6,8.91,1.78c-0.22,0.27-0.44,0.75-0.53,1.14
				c-3.98-0.25-7-0.76-9.25-2.14c-1.14,0.85-2.74,1.58-5.03,2.14c-0.14-0.27-0.44-0.73-0.66-1c2.16-0.48,3.67-1.09,4.73-1.82
				c-1.05-0.85-1.89-1.97-2.57-3.43l0.99-0.39c0.65,1.33,1.44,2.35,2.46,3.11c1.1-1.09,1.39-2.38,1.48-3.74h-5.75v-5.47h5.78v-2.67
				h1.16v2.67h5.85v5.47H464.37z M463.25,270.45v-0.03v-3.26h-4.67v3.3H463.25z M464.41,267.15v3.26v0.03h4.71v-3.3H464.41z"/>
			<path d="M461.7,291.41c-1.85,0.75-3.82,1.53-5.34,2.13l-0.37-1.16c0.65-0.22,1.46-0.49,2.36-0.82v-6.02h-2.12v-1.07h2.12v-3.94
				h1.09v3.94h2.07v1.07h-2.07v5.63c0.66-0.26,1.38-0.51,2.06-0.78L461.7,291.41z M471.41,294.06v1.07h-10.13v-1.07H471.41z
				 M470.32,291.78h-7.89v-10.22h7.89V291.78z M469.17,282.62h-5.63v3.5h5.63V282.62z M469.17,287.16h-5.63v3.57h5.63V287.16z"/>
			<path d="M471.39,303.8v0.95h-15.13v-0.95h5.3v-3.42h-4.33v-0.95h3.26c-0.24-0.51-0.66-1.24-1.14-1.72l0.95-0.39
				c0.54,0.53,1.04,1.24,1.26,1.77l-0.73,0.34h5.07c0.43-0.61,0.94-1.5,1.22-2.11l1.1,0.37c-0.36,0.58-0.75,1.22-1.12,1.73h3.43
				v0.95h-4.54v3.42H471.39z M458.95,300.66c0.63,0.75,1.19,1.79,1.41,2.5l-1,0.41c-0.2-0.73-0.75-1.78-1.33-2.55L458.95,300.66z
				 M458.61,305.86h10.5v6.85h-1.14v-0.51h-8.26v0.58h-1.1V305.86z M459.72,306.77v1.79h8.26v-1.79H459.72z M467.98,311.26v-1.82
				h-8.26v1.82H467.98z M462.64,303.8h2.29v-3.42h-2.29V303.8z M467.09,303.27c0.49-0.71,1.14-1.89,1.48-2.69l1.02,0.36
				c-0.49,0.93-1.12,1.97-1.63,2.65L467.09,303.27z"/>
			<path d="M471.34,327.75v1.12h-15.01v-1.12h4.18c0.34-1.58,0.71-3.64,1.05-5.73h-3.21v-1.1h3.4c0.2-1.31,0.41-2.63,0.56-3.81h-4.9
				v-1.12h12.68v1.12h-6.58c-0.17,1.19-0.37,2.5-0.58,3.81h4.49l0.19-0.05l0.85,0.08c-0.1,1.85-0.36,4.59-0.63,6.8H471.34z
				 M462.76,322.02c-0.34,2.11-0.71,4.17-1.02,5.73h4.95c0.2-1.85,0.42-4.13,0.54-5.73H462.76z"/>
			<path d="M464.34,333.36c-0.24,0.88-0.46,1.87-0.7,2.65h5.81v10.85h-1.17v-1.12h-8.74v1.12h-1.14v-10.85h4.1
				c0.19-0.78,0.39-1.78,0.53-2.65h-6.6v-1.1h14.75v1.1H464.34z M468.28,337.07h-8.74v3.23h8.74V337.07z M468.28,344.67v-3.33h-8.74
				v3.33H468.28z"/>
			<path d="M461.88,356.72l-2.16,0.66v5.05c0,0.66-0.17,0.97-0.58,1.16c-0.42,0.19-1.09,0.22-2.21,0.2
				c-0.05-0.27-0.22-0.73-0.37-1.04c0.78,0.02,1.51,0.02,1.72,0c0.22,0,0.32-0.07,0.32-0.32v-4.69l-2.38,0.73l-0.36-1.12
				c0.75-0.2,1.7-0.46,2.74-0.76v-3.71h-2.46v-1.09h2.46v-3.43h1.12v3.43h1.97v1.09h-1.97v3.37c0.66-0.17,1.34-0.39,2.01-0.6
				L461.88,356.72z M464.9,354.94c-1.56,0-2.06-0.49-2.06-1.9v-4.64h1.1v2.09h6.88v1h-6.88v1.58c0,0.65,0.19,0.88,0.93,0.88h4.57
				c0.56,0,1.44-0.03,1.82-0.1c0.05,0.31,0.1,0.73,0.15,0.99c-0.31,0.08-1.12,0.1-1.9,0.1H464.9z M462.84,356.45h7.92v7.29h-1.12
				v-0.71h-5.73v0.78h-1.07V356.45z M463.91,357.43v1.8h5.73v-1.8H463.91z M469.64,362.08v-1.9h-5.73v1.9H469.64z"/>
			<path d="M463.54,376.44c-0.15,0.75-0.54,1.53-1.5,2.28c0.76,0.34,1.46,0.7,1.99,0.99l-0.78,0.7c-0.54-0.36-1.27-0.73-2.09-1.12
				c-1.07,0.58-2.6,1.12-4.76,1.51c-0.1-0.24-0.31-0.56-0.48-0.75c1.87-0.34,3.21-0.75,4.2-1.21c-0.9-0.37-1.84-0.73-2.7-0.97
				c0.29-0.34,0.58-0.71,0.87-1.14l-2.06,0.12l-0.12-0.87c0.78-0.03,1.72-0.07,2.77-0.12c0.29-0.48,0.56-0.93,0.82-1.39h-2.82v-2.7
				h3.23v-0.75h-2.75v-1.85h-1.12v-0.88h1.12v-1.73h2.75v-1.22h0.92v1.22h2.92v1.73h1.16v0.88h-1.16v1.85h-2.92v0.75h3.35v2.7h-3.62
				c-0.22,0.44-0.48,0.88-0.75,1.34l2.69-0.14c0-0.08,0-0.17,0-0.25v-0.6h0.93v0.63v0.17l0.92-0.05l-0.02,0.8L463.54,376.44z
				 M457.85,373.69h2.26v-1.14h-2.26V373.69z M458.32,367.35v0.97h1.78v-0.97H458.32z M460.11,370.2v-1.09h-1.78v1.09H460.11z
				 M459.44,376.68c-0.2,0.27-0.39,0.54-0.58,0.78c0.73,0.24,1.5,0.53,2.23,0.83c0.87-0.58,1.26-1.22,1.44-1.8L459.44,376.68z
				 M461.03,367.35v0.97h1.9v-0.97H461.03z M462.93,370.2v-1.09h-1.9v1.09H462.93z M461.03,372.55v1.14h2.33v-1.14H461.03z
				 M470.27,369.62c-0.32,2.55-0.77,4.71-1.53,6.56c0.73,1.58,1.67,2.86,2.89,3.64c-0.24,0.19-0.54,0.53-0.7,0.8
				c-1.12-0.78-2.02-1.94-2.72-3.33c-0.75,1.45-1.75,2.65-3.09,3.62c-0.08-0.2-0.41-0.66-0.63-0.85c1.44-0.99,2.46-2.31,3.21-3.94
				c-0.56-1.39-0.97-2.97-1.29-4.71c-0.29,0.76-0.6,1.44-0.95,2.04c-0.17-0.17-0.56-0.54-0.8-0.7c1.12-1.77,1.8-4.5,2.21-7.28
				l0.97,0.15c-0.14,1-0.34,2.01-0.58,2.97h4.18v1.02H470.27z M466.99,369.62c0.27,1.87,0.66,3.65,1.21,5.22
				c0.51-1.51,0.83-3.26,1.05-5.22H466.99z"/>
		</g>
	</g>
	<g>
		<g>
			<g>
				<path d="M135.1,295.28c0,0.65-0.15,0.99-0.56,1.19c-0.43,0.19-1.09,0.2-2.24,0.2c-0.03-0.29-0.19-0.78-0.34-1.09
					c0.82,0.03,1.55,0.02,1.75,0.02c0.24-0.02,0.32-0.08,0.32-0.34v-4.33h-2.84c-0.15,2.01-0.48,4.15-1.27,5.76
					c-0.19-0.19-0.65-0.46-0.92-0.54c1.17-2.4,1.26-5.76,1.26-8.28v-6.07h4.84V295.28z M134.03,289.85v-3.01h-2.74v1.02
					c0,0.61-0.02,1.29-0.03,1.99H134.03z M131.3,282.87v2.92h2.74v-2.92H131.3z M144.23,287.78c-0.46,2.31-1.31,4.22-2.4,5.73
					c0.85,0.97,1.82,1.77,2.91,2.31c-0.25,0.2-0.56,0.59-0.73,0.87c-1.05-0.56-1.99-1.39-2.82-2.36c-0.8,0.92-1.7,1.67-2.65,2.23
					c-0.14-0.25-0.42-0.63-0.66-0.83c0.95-0.51,1.87-1.27,2.69-2.24c-0.99-1.38-1.75-3.06-2.31-4.86h-0.49v8.06h-1.07v-14.81h7.07
					v3.26c0,0.61-0.14,0.9-0.63,1.07c-0.51,0.17-1.34,0.17-2.62,0.17c-0.05-0.32-0.22-0.7-0.37-0.99c1.07,0.03,1.94,0.03,2.19,0.02
					c0.27-0.02,0.34-0.08,0.34-0.29v-2.19h-4.91v4.66h5.63l0.19-0.03L144.23,287.78z M139.24,288.61c0.46,1.48,1.12,2.84,1.95,4.03
					c0.77-1.14,1.41-2.5,1.82-4.03H139.24z"/>
				<path d="M143.03,300.95c-0.48,1.17-1.19,2.14-2.09,2.94c1.12,0.73,2.41,1.26,3.81,1.58c-0.24,0.24-0.56,0.66-0.73,0.97
					c-1.44-0.39-2.77-1.02-3.93-1.87c-1.07,0.78-2.35,1.36-3.74,1.8c-0.08-0.17-0.27-0.44-0.46-0.66c-0.31,0.97-0.66,1.92-1.04,2.62
					l-0.8-0.39c0.36-0.71,0.71-1.8,1-2.8h-1.78v7.19c0,0.58-0.12,0.9-0.53,1.09c-0.42,0.17-1.05,0.17-2.07,0.17
					c-0.05-0.27-0.19-0.73-0.36-1.02c0.75,0.02,1.43,0.02,1.63,0c0.2-0.02,0.27-0.05,0.27-0.25v-5.78c-0.68,1.7-1.6,3.38-2.57,4.37
					c-0.12-0.31-0.41-0.75-0.6-1.02c1.07-1.04,2.14-2.94,2.79-4.74h-2.65v-1.02h4.64c-0.87-0.78-2.46-1.79-3.82-2.4l0.7-0.73
					c0.54,0.24,1.14,0.53,1.72,0.85c0.68-0.51,1.38-1.19,1.92-1.82h-4.96v-0.99h5.78l0.19-0.05l0.73,0.48
					c-0.68,1.02-1.79,2.11-2.8,2.89c0.58,0.37,1.1,0.75,1.48,1.09l-0.63,0.68h1.31l0.15-0.05l0.71,0.25c-0.08,0.32-0.19,0.66-0.29,1
					c1.21-0.34,2.31-0.82,3.23-1.43c-0.73-0.65-1.36-1.39-1.85-2.19c-0.42,0.49-0.87,0.93-1.31,1.31c-0.22-0.2-0.66-0.53-0.94-0.68
					c1.33-0.99,2.55-2.53,3.23-4.17l1.09,0.29c-0.22,0.51-0.49,1.02-0.8,1.51h5.76v0.99H143.03z M144.01,307.67
					c0,0-0.02,0.32-0.03,0.49c-0.31,3.21-0.63,4.49-1.12,5c-0.29,0.31-0.6,0.37-1.04,0.41c-0.39,0.03-1.12,0.03-1.89-0.02
					c-0.02-0.31-0.14-0.76-0.31-1.05c0.75,0.08,1.45,0.1,1.73,0.1c0.27,0,0.41-0.03,0.58-0.17c0.32-0.34,0.61-1.34,0.87-3.81h-3.03
					c-0.58,2.19-1.77,3.98-4.5,5.03c-0.14-0.25-0.46-0.66-0.68-0.87c2.4-0.87,3.5-2.36,4.03-4.17h-2.77v-0.95h3.01
					c0.12-0.56,0.19-1.12,0.24-1.72h1.14c-0.07,0.6-0.14,1.16-0.24,1.72H144.01z M138.08,300.95c0.48,0.87,1.16,1.65,1.99,2.31
					c0.73-0.63,1.33-1.41,1.73-2.31H138.08z"/>
			</g>
		</g>
		<g>
			<path d="M131.42,265.09h1.41v12.44h-1.41V265.09z"/>
			<path d="M138.9,266.28h-3.79v-1.19h9.03v1.19h-3.81v11.25h-1.43V266.28z"/>
		</g>
	</g>
	<g>
		<path d="M38.99,355.59c1.81,2.6,4.85,5.18,7.62,6.4c-0.28,0.26-0.71,0.78-0.93,1.12c-2.66-1.34-5.58-3.92-7.52-6.66v7.82H36.8
			v-7.7c-1.91,2.72-4.77,5.2-7.42,6.54c-0.24-0.32-0.65-0.84-0.95-1.12c2.76-1.22,5.78-3.76,7.58-6.4h-7.06v-1.32h7.85v-3.6h-6.45
			v-1.3h6.45v-3.3h1.36v3.3h6.67v1.3h-6.67v3.6h8.01v1.32H38.99z"/>
		<path d="M58.51,354.97c1.76,3.06,5.11,5.94,8.44,7.22c-0.34,0.28-0.75,0.82-0.95,1.18c-2.78-1.24-5.54-3.58-7.5-6.26v7.14h-1.32
			v-7.12c-1.97,2.64-4.73,4.9-7.4,6.16c-0.2-0.32-0.61-0.82-0.93-1.1c3.18-1.32,6.49-4.14,8.33-7.1v-4.92h-7.65v-1.3h7.65v-2.8h1.32
			v2.8h7.91v1.3h-7.91V354.97z M54.29,350.92c-0.22,0.86-0.47,1.66-0.79,2.4c0.85,0.76,1.81,1.68,2.31,2.28l-0.91,0.9
			c-0.43-0.54-1.18-1.32-1.93-2.02c-0.69,1.28-1.54,2.36-2.55,3.2c-0.22-0.22-0.75-0.64-1.03-0.86c1.8-1.36,3.04-3.54,3.61-6.14
			L54.29,350.92z M63.58,350.9c-0.18,0.84-0.41,1.64-0.69,2.4c1.26,1,2.8,2.32,3.61,3.16l-0.93,0.92c-0.69-0.78-1.99-1.98-3.2-2.98
			c-0.49,0.98-1.1,1.82-1.8,2.5c-0.26-0.22-0.79-0.58-1.1-0.74c1.46-1.24,2.39-3.2,2.82-5.48L63.58,350.9z"/>
		<path d="M70.17,361.39h3.24v-11.22h-2.55v-1.06c1.24-0.22,2.17-0.54,2.92-1h1.22v13.28h2.94v1.36h-7.77V361.39z"/>
		<path d="M80.79,361.77c4.62-4.08,6.67-7.04,6.67-9.58c0-1.72-0.89-3.02-2.74-3.02c-1.2,0-2.25,0.76-3.08,1.74l-0.95-0.92
			c1.16-1.28,2.41-2.14,4.2-2.14c2.56,0,4.14,1.68,4.14,4.28c0,2.96-2.29,5.98-5.82,9.34c0.77-0.08,1.64-0.12,2.37-0.12h4.14v1.4
			h-8.94V361.77z"/>
		<path d="M97.41,346.46c-0.45,1.32-0.99,2.64-1.6,3.88v13.92h-1.26v-11.58c-0.63,1.04-1.32,2-2.01,2.82
			c-0.12-0.3-0.49-1.02-0.73-1.32c1.79-1.96,3.39-4.98,4.38-8.04L97.41,346.46z M109.56,347.28v16.78h-1.24v-1.02h-8.94v1.18h-1.22
			v-16.94H109.56z M108.32,361.87v-13.42h-8.94v13.42H108.32z M104.43,352.49v2.28h2.33v5.32h-5.64v-5.32h2.23v-2.28h-3.1v-1.06h3.1
			v-2.28h1.09v2.28h3.18v1.06H104.43z M105.71,355.79h-3.57v3.3h3.57V355.79z"/>
		<path d="M127.85,362.21c0,1.02-0.28,1.46-0.99,1.7c-0.73,0.24-2.01,0.26-4.12,0.26c-0.1-0.4-0.35-1.02-0.55-1.4
			c1.66,0.06,3.24,0.04,3.71,0.02c0.43,0,0.59-0.16,0.59-0.58v-4.2h-9.65c-0.49,2.28-1.48,4.54-3.41,6.28
			c-0.2-0.28-0.71-0.78-0.99-0.96c3.2-2.88,3.53-6.94,3.53-10.18v-6.04h11.88V362.21z M126.49,356.71v-3.54h-9.19
			c0,1.1-0.06,2.3-0.22,3.54H126.49z M117.3,348.4v3.5h9.19v-3.5H117.3z"/>
		<path d="M29.66,372.1h8.23v1.4H31.3v4.82h5.54v1.4H31.3v5.62h6.81v1.4h-8.44V372.1z"/>
		<path d="M41.84,372.1h4.01c3.26,0,5.37,1.1,5.37,4.24c0,3.04-2.11,4.48-5.29,4.48h-2.45v5.92h-1.64V372.1z M45.68,379.47
			c2.64,0,3.91-0.94,3.91-3.12c0-2.2-1.34-2.9-3.99-2.9h-2.13v6.02H45.68z"/>
		<path d="M53.56,384.83l0.99-1.14c1.05,1.14,2.51,1.86,4.04,1.86c1.97,0,3.18-1.02,3.18-2.52c0-1.58-1.08-2.08-2.47-2.7l-2.09-0.94
			c-1.34-0.58-2.94-1.58-2.94-3.72c0-2.22,1.89-3.82,4.46-3.82c1.74,0,3.22,0.74,4.2,1.8l-0.87,1.06c-0.89-0.86-1.95-1.4-3.33-1.4
			c-1.68,0-2.8,0.86-2.8,2.24c0,1.5,1.3,2.06,2.41,2.54l2.09,0.9c1.66,0.74,3,1.74,3,3.92c0,2.3-1.87,4.1-4.85,4.1
			C56.52,387.01,54.8,386.17,53.56,384.83z"/>
		<path d="M82.39,376.79c-0.85,2.6-1.99,4.86-3.45,6.76c0.75,2.04,1.7,3.22,2.76,3.22c0.57,0,0.83-1.04,0.95-3.7
			c0.3,0.3,0.79,0.6,1.13,0.7c-0.24,3.34-0.73,4.34-2.17,4.34c-1.52,0-2.72-1.28-3.65-3.38c-1.22,1.34-2.62,2.48-4.22,3.42
			c-0.2-0.28-0.65-0.82-0.95-1.08c1.8-0.96,3.35-2.22,4.68-3.76c-0.77-2.3-1.24-5.22-1.48-8.5h-7.04v2.7H74v0.6
			c-0.1,4.52-0.22,6.18-0.63,6.68c-0.28,0.38-0.59,0.5-1.12,0.56c-0.51,0.04-1.42,0.04-2.39-0.02c-0.02-0.4-0.16-0.9-0.38-1.24
			c0.95,0.08,1.82,0.08,2.17,0.08c0.28,0,0.47-0.02,0.61-0.2c0.28-0.32,0.37-1.62,0.45-5.24h-3.79v0.36c0,2.76-0.3,6.68-2.09,9.3
			c-0.22-0.26-0.77-0.74-1.08-0.9c1.66-2.44,1.83-5.86,1.83-8.42v-5.56h8.29c-0.06-1.12-0.1-2.28-0.1-3.44h1.36
			c0,1.18,0.02,2.34,0.08,3.44h6.39v1.3h-6.29c0.2,2.78,0.59,5.26,1.12,7.2c1.1-1.62,1.99-3.48,2.66-5.56L82.39,376.79z
			 M81.75,373.38c-0.75-0.7-2.31-1.72-3.55-2.38l0.77-0.82c1.26,0.62,2.8,1.6,3.59,2.3L81.75,373.38z"/>
		<path d="M103.05,381.81c-1.28,0.96-2.96,1.96-4.42,2.7c1.56,1.16,3.49,1.98,5.8,2.42c-0.3,0.28-0.63,0.8-0.81,1.16
			c-4.52-1-7.67-3.46-9.39-7.24h-3.22v5.54l5.52-1.36c-0.04,0.34-0.06,0.88-0.06,1.16c-5.58,1.48-6.57,1.74-7,2l-0.1,0.06
			c-0.1-0.32-0.37-0.96-0.61-1.28c0.37-0.2,0.97-0.62,0.97-1.42v-4.7h-3.28v-1.22h3.47v-8.78h12.13v1.14H91.27v1.84h10.16v1.1H91.27
			v1.78h10.16v1.1H91.27v1.82h12.69v1.22h-8.41c0.55,1.12,1.3,2.1,2.21,2.94c1.44-0.76,3.16-1.86,4.2-2.7L103.05,381.81z"/>
		<path d="M124.38,383.95h-8.13v4.32h-1.36v-4.32h-8.11v-1.24h8.11v-1.7h1.36v1.7h8.13V383.95z M112.03,378.79
			c-1.5,0.82-3.14,1.7-4.42,2.34l-0.69-1.06c1.22-0.52,3.06-1.42,4.83-2.3L112.03,378.79z M118.83,381.27
			c-0.14-0.3-0.32-0.68-0.55-1.06c-5.25,0.5-5.92,0.6-6.31,0.78c-0.06-0.26-0.24-0.84-0.38-1.18c0.43-0.06,0.93-0.44,1.6-1
			c0.39-0.32,1.3-1.14,2.31-2.18c-2.43,0.2-2.86,0.3-3.12,0.42c-0.08-0.28-0.26-0.88-0.39-1.16c0.28-0.06,0.55-0.28,0.87-0.64
			c0.26-0.28,0.99-1.16,1.6-2.16h-7.3v-1.22h8.19c-0.26-0.52-0.63-1.16-0.95-1.62l1.24-0.36c0.45,0.6,0.97,1.42,1.2,1.98h7.38v1.22
			h-8.39c-0.59,0.92-1.3,1.84-1.97,2.56l2.68-0.18c0.47-0.54,0.95-1.1,1.34-1.68l1.08,0.64c-1.6,1.9-3.37,3.7-5.11,5.12l3.77-0.32
			c-0.34-0.48-0.71-0.94-1.05-1.34l0.99-0.42c0.89,1,1.91,2.4,2.31,3.3L118.83,381.27z M110.49,377.07
			c-0.63-0.68-1.91-1.68-2.98-2.36l0.87-0.72c1.07,0.64,2.37,1.6,3.04,2.26L110.49,377.07z M122.94,381.39
			c-0.81-0.8-2.49-2.02-3.87-2.84l0.93-0.72c1.34,0.78,3.06,1.94,3.93,2.74L122.94,381.39z M123.16,374.6
			c-0.89,0.92-2.05,1.88-2.96,2.52l-0.97-0.64c0.91-0.64,2.15-1.76,2.84-2.56L123.16,374.6z"/>
		<path d="M127.93,380.55c0-3.92,1.08-7.14,2.9-10.12l0.99,0.48c-1.7,2.84-2.55,6.22-2.55,9.64s0.85,6.8,2.55,9.64l-0.99,0.48
			C129.02,387.69,127.93,384.49,127.93,380.55z"/>
		<path d="M141.02,374.97c-1.14,4.58-2.96,9.02-6.19,12.04c-0.2-0.28-0.61-0.78-0.87-1.04c2.96-2.7,4.68-6.78,5.74-11h-4.99v-1.3
			h5.31c0.26-1.22,0.47-2.44,0.67-3.62l1.32,0.18c-0.18,1.12-0.4,2.28-0.67,3.44h10.22v1.3H141.02z M151.93,386.37v1.28h-14.07
			v-1.28h6.49v-6.18h-4.48v-1.28H151v1.28h-5.31v6.18H151.93z"/>
		<path d="M154.47,390.19c1.7-2.84,2.54-6.22,2.54-9.64s-0.85-6.8-2.54-9.64l0.99-0.48c1.81,2.98,2.9,6.2,2.9,10.12
			c0,3.94-1.09,7.14-2.9,10.12L154.47,390.19z"/>
	</g>
	<rect y="347.22" class="st2" width="16.78" height="16.78"/>
	<g>
		<path d="M45.35,420.33v9.26H44v-1.16h-5.86v6.52h-1.36v-6.52h-5.84v1.26h-1.3v-9.36h7.14v-3.58h1.36v3.58H45.35z M36.78,427.11
			v-5.48h-5.84v5.48H36.78z M44,427.11v-5.48h-5.86v5.48H44z"/>
		<path d="M66.07,417.69v17.34h-1.3v-0.94H50.99v0.94h-1.24v-17.34H66.07z M64.76,432.87v-13.96H50.99v13.96H64.76z M57.98,429.71
			c-2.07,0.42-4.2,0.86-5.82,1.18l-0.22-1.02c1.54-0.26,3.75-0.68,6-1.1L57.98,429.71z M62.83,423.89c-0.49,1.9-1.24,3.56-2.21,4.96
			c0.45,1.16,1.03,1.9,1.74,2c0.3,0.04,0.51-0.8,0.63-2.1c0.22,0.2,0.63,0.48,0.87,0.58c-0.26,2.14-0.85,2.92-1.83,2.58
			c-0.91-0.18-1.62-0.92-2.17-2.06c-0.79,0.94-1.7,1.74-2.7,2.4c-0.16-0.22-0.55-0.64-0.79-0.84c1.18-0.7,2.21-1.6,3.04-2.7
			c-0.53-1.62-0.89-3.72-1.1-6.04h-6.16v-1.02h6.06c-0.06-0.72-0.12-1.46-0.16-2.22h1.14c0.04,0.74,0.08,1.5,0.14,2.22h4.4v1.02
			H59.4c0.18,1.84,0.43,3.52,0.81,4.88c0.67-1.14,1.2-2.44,1.56-3.88L62.83,423.89z M57.25,424.01v3.88h-4.38v-3.88H57.25z
			 M56.26,424.87h-2.45v2.14h2.45V424.87z M62.53,421.33c-0.45-0.44-1.38-1.06-2.17-1.42l0.63-0.66c0.77,0.34,1.7,0.88,2.17,1.36
			L62.53,421.33z"/>
		<path d="M76.59,422.87c-0.61-0.5-1.78-1.28-2.78-1.94c-0.71,1.02-1.87,1.72-3.75,2.2c-0.1-0.3-0.43-0.74-0.67-0.98
			c3.45-0.78,4.14-2.22,4.34-5.38h1.16c-0.08,1.28-0.24,2.34-0.59,3.22c1.07,0.64,2.39,1.5,3.12,2.02L76.59,422.87z M71.56,419.91
			c-0.32-0.52-1.01-1.38-1.52-2.02l0.79-0.58c0.53,0.6,1.22,1.42,1.56,1.9L71.56,419.91z M85.98,423.21h0.49v3.56h-1.3v-2.48H71.42
			v2.48h-1.26v-3.56h15.67c-0.89-0.66-2.41-1.6-3.77-2.34c-0.69,0.96-1.82,1.66-3.61,2.12c-0.12-0.28-0.43-0.76-0.69-1
			c3.33-0.78,4.04-2.22,4.22-5.22h1.22c-0.08,1.24-0.26,2.28-0.61,3.12c1.44,0.74,3.18,1.78,4.12,2.46L85.98,423.21z M77.87,429.13
			c-0.22,0.42-0.43,0.86-0.63,1.24h7.99v4.6h-1.28v-0.56H73.01v0.58h-1.24v-4.62h4.32c0.18-0.36,0.38-0.84,0.53-1.24h-3.59v-3.68
			h10.61v3.68H77.87z M83.95,431.39H73.01v2h10.93V431.39z M74.26,428.19h8.11v-1.8h-8.11V428.19z M77.99,418.19
			c-0.57,0.72-1.22,1.5-1.76,2l-0.79-0.4c0.49-0.56,1.12-1.44,1.48-2.04L77.99,418.19z M79.88,419.77c-0.32-0.52-1.01-1.38-1.52-2
			l0.79-0.6c0.55,0.62,1.22,1.42,1.56,1.9L79.88,419.77z M86.65,418.17c-0.63,0.74-1.36,1.54-1.95,2.08l-0.83-0.42
			c0.55-0.58,1.28-1.52,1.66-2.12L86.65,418.17z"/>
		<path d="M95.25,417.07h1.3v17.94h-1.3v-5.62c-3.69,1.38-4.22,1.66-4.58,1.96c-0.12-0.34-0.38-0.92-0.57-1.22
			c0.28-0.16,0.69-0.54,0.69-1.34v-9.8h1.28v10.22l3.18-1.08V417.07z M106.03,421.93c-0.55,3.18-1.38,5.8-2.64,7.94
			c1.18,1.72,2.6,3.1,4.32,3.96c-0.28,0.26-0.71,0.72-0.91,1.08c-1.64-0.92-3-2.26-4.14-3.92c-1.2,1.64-2.72,2.96-4.64,4.02
			c-0.14-0.3-0.57-0.84-0.85-1.1c2.03-1,3.57-2.36,4.74-4.08c-1.01-1.74-1.83-3.78-2.45-5.98c-0.49,1.06-1.05,2-1.66,2.8
			c-0.18-0.28-0.67-0.84-0.93-1.08c1.68-2.06,2.74-5.32,3.31-8.8l1.32,0.22c-0.24,1.26-0.53,2.5-0.87,3.68h6.92v1.26H106.03z
			 M100.15,422.15c0.57,2.36,1.38,4.58,2.47,6.48c1.01-1.84,1.66-4.08,2.11-6.7h-4.5L100.15,422.15z"/>
		<path d="M115.97,417.19c-0.55,1.42-1.26,2.84-2.03,4.16v13.6h-1.24v-11.66c-0.73,1.04-1.5,1.98-2.29,2.76
			c-0.14-0.3-0.51-0.98-0.75-1.28c2.01-1.9,3.95-4.9,5.09-7.94L115.97,417.19z M122.03,422.19v4.02h4.72v8.54h-1.34v-1.06h-7.58
			v1.18h-1.26v-8.66h4.16v-9.44h1.3v4.16h5.88v1.26H122.03z M125.41,427.45h-7.58v5h7.58V427.45z"/>
		<path d="M139.02,430.99c0,0.36,0.06,0.92,0.1,1.22c-5.66,1.58-6.35,1.8-6.83,2.12c-0.1-0.34-0.41-0.88-0.63-1.14
			c0.28-0.2,0.75-0.62,0.75-1.46v-14.96h1.34v6.2h5.13v1.3h-5.13v8.06L139.02,430.99z M146.05,433.25c0.95,0,1.09-0.74,1.2-3.64
			c0.34,0.26,0.85,0.5,1.22,0.58c-0.18,3.22-0.55,4.32-2.37,4.32h-3.39c-1.85,0-2.37-0.54-2.37-2.6v-15.16h1.32v6.22h5.39v1.3h-5.39
			v7.68c0,1.08,0.2,1.3,1.16,1.3H146.05z"/>
		<path d="M156.43,428.25c0.38-0.78,0.81-1.92,1.18-3.02h-2.25v8.14c0,0.74-0.16,1.12-0.71,1.34c-0.51,0.2-1.36,0.22-2.72,0.22
			c-0.06-0.36-0.24-0.9-0.41-1.24c1.05,0.02,1.95,0.02,2.21,0c0.3-0.02,0.37-0.08,0.37-0.34v-8.12h-3.29v-1.2h5.13
			c-1.01-0.98-2.66-2.16-4.12-2.96l0.71-0.88c0.65,0.34,1.36,0.78,2.03,1.22c0.73-0.7,1.5-1.62,2.09-2.48h-5.43v-1.18h6.27
			l0.26-0.08l0.83,0.58c-0.81,1.32-1.99,2.78-3.1,3.82c0.65,0.48,1.2,0.96,1.6,1.38l-0.43,0.58h1.5l0.2-0.04l0.81,0.24
			c-0.55,1.5-1.16,3.22-1.72,4.28L156.43,428.25z M162.66,432.33c-1.09,1.04-2.9,2.12-4.48,2.7c-0.2-0.26-0.61-0.68-0.87-0.9
			c1.56-0.56,3.35-1.58,4.18-2.48L162.66,432.33z M162.52,420.89c0.16-0.62,0.32-1.36,0.43-2h-4.2v-1.18h9.94v1.18h-4.3
			c-0.2,0.68-0.39,1.4-0.59,2h4.22v10.32h-8.5v-10.32H162.52z M166.77,421.93h-6.02v2.06h6.02V421.93z M166.77,424.99h-6.02v2.06
			h6.02V424.99z M166.77,428.07h-6.02v2.1h6.02V428.07z M165.56,431.75c1.22,0.68,2.74,1.76,3.53,2.5l-1.05,0.78
			c-0.73-0.74-2.25-1.86-3.47-2.6L165.56,431.75z"/>
		<path d="M171.92,422.31c1.14,0.46,2.56,1.24,3.26,1.86l-0.73,1.08c-0.69-0.62-2.09-1.46-3.26-1.98L171.92,422.31z M174.35,427.65
			l1.05,0.7c-0.73,2.08-1.76,4.54-2.62,6.36l-1.16-0.72C172.39,432.47,173.54,429.87,174.35,427.65z M172.81,416.99
			c1.1,0.52,2.45,1.38,3.12,2.04l-0.79,1.06c-0.63-0.68-1.97-1.6-3.1-2.16L172.81,416.99z M178.65,430.89
			c-0.69,1.54-1.83,3.12-2.86,4.14c-0.24-0.2-0.77-0.58-1.07-0.76c1.09-0.92,2.09-2.32,2.7-3.7L178.65,430.89z M182.22,417.67v12.44
			h-5.66v-12.44H182.22z M177.7,421.43h3.33v-2.58h-3.33V421.43z M177.7,425.17h3.33v-2.62h-3.33V425.17z M177.7,428.93h3.33v-2.64
			h-3.33V428.93z M181.03,430.51c0.83,0.96,1.83,2.28,2.29,3.08l-1.03,0.68c-0.45-0.84-1.44-2.22-2.25-3.2L181.03,430.51z
			 M184.96,418.83v11.32h-1.16v-11.32H184.96z M188.43,416.77v16.5c0,0.86-0.2,1.24-0.73,1.46c-0.55,0.22-1.46,0.24-3.08,0.24
			c-0.06-0.32-0.22-0.9-0.39-1.26c1.2,0.04,2.25,0.04,2.54,0.02c0.36-0.02,0.47-0.12,0.47-0.46v-16.5H188.43z"/>
		<path d="M192.56,427.27c0-3.92,1.08-7.14,2.9-10.12l0.99,0.48c-1.7,2.84-2.55,6.22-2.55,9.64s0.85,6.8,2.55,9.64l-0.99,0.48
			C193.65,434.41,192.56,431.21,192.56,427.27z"/>
		<path d="M206.06,421.83c-0.53,1.4-1.14,2.72-1.89,3.98h10.75v9.1h-1.36v-1.04h-9v1.14h-1.3v-7.8c-1.05,1.46-2.29,2.76-3.77,3.84
			c-0.2-0.32-0.59-0.78-0.87-1.06c2.84-1.98,4.75-4.92,6.04-8.16h-5.41v-1.3h5.86c0.43-1.26,0.77-2.5,1.03-3.78l1.36,0.28
			c-0.28,1.16-0.59,2.34-0.99,3.5h9.86v1.3H206.06z M204.56,427.09v5.5h9v-5.5H204.56z"/>
		<path d="M219.1,436.91c1.7-2.84,2.54-6.22,2.54-9.64s-0.85-6.8-2.54-9.64l0.99-0.48c1.81,2.98,2.9,6.2,2.9,10.12
			c0,3.94-1.09,7.14-2.9,10.12L219.1,436.91z"/>
	</g>
	<rect y="417.94" class="st6" width="16.78" height="16.78"/>
</g>
<g>
	<rect y="542.12" class="st0" width="542.41" height="57.53"/>
	
		<text transform="matrix(1 0 0 1 12.5078 582.4847)" class="st1" style="font-family:'SourceHanSansTW-Bold-B5pc-H'; font-size:29.4628px;">軟體股成長性較高且中國營收佔比有限</text>
	<text transform="matrix(0.9867 0 0 1 15.2225 635.8239)" style="font-family:'SourceHanSansTW-Bold-B5pc-H'; font-size:23px;">科技股未來12個月EPS成長率與中國營收佔比預測</text>
	<text transform="matrix(1 0 0 1 1.5326 676.6472)" style="font-family:'SourceHanSansTW-Normal-B5pc-H'; font-size:20px;">16%</text>
	<text transform="matrix(1 0 0 1 501.3863 676.6472)" style="font-family:'SourceHanSansTW-Normal-B5pc-H'; font-size:20px;">40%</text>
	<text transform="matrix(1 0 0 1 501.3863 772.1766)" style="font-family:'SourceHanSansTW-Normal-B5pc-H'; font-size:20px;">10%</text>
	<text transform="matrix(1 0 0 1 13.1727 784.1541)" style="font-family:'SourceHanSansTW-Normal-B5pc-H'; font-size:20px;">0%</text>
	<text transform="matrix(1 0 0 1 5.6527 813.8011)" style="font-family:'SourceHanSansTW-Normal-B5pc-H'; font-size:20px;">-4%</text>
	<g>
		<rect x="71.62" y="729.54" class="st2" width="21.74" height="46.55"/>
		<rect x="125.97" y="705.85" class="st3" width="21.74" height="70.24"/>
		<rect x="180.32" y="691.38" class="st3" width="21.74" height="84.72"/>
		<rect x="234.67" y="701.58" class="st3" width="21.74" height="74.52"/>
		<rect x="290.23" y="733.74" class="st2" width="21.74" height="42.36"/>
		<rect x="344.58" y="717.04" class="st2" width="21.74" height="59.05"/>
		<rect x="398.93" y="776.09" class="st4" width="21.74" height="13.98"/>
		<rect x="452.67" y="725.59" class="st2" width="21.74" height="50.5"/>
		<polyline class="st5" points="55.11,781.82 55.11,776.09 491.82,776.09 491.82,781.82 		"/>
		<polyline class="st5" points="49.94,803.24 55.11,803.24 55.11,665.06 49.94,665.06 		"/>
		<polyline class="st5" points="497,665.06 491.82,665.06 491.82,803.24 497,803.24 		"/>
		<rect x="77.34" y="746.32" class="st6" width="10.3" height="18.75"/>
		<rect x="131.69" y="768.36" class="st6" width="10.3" height="17.44"/>
		<rect x="186.04" y="769.68" class="st6" width="10.3" height="16.12"/>
		<rect x="240.39" y="784.15" class="st6" width="10.3" height="17.44"/>
		<rect x="295.95" y="734.15" class="st6" width="10.3" height="17.11"/>
		<rect x="350.3" y="717.04" class="st6" width="10.3" height="17.11"/>
		<rect x="404.65" y="674.27" class="st6" width="10.3" height="17.11"/>
		<rect x="458.39" y="776.09" class="st6" width="10.3" height="16.78"/>
	</g>
	<line class="st5" x1="49.94" y1="776.09" x2="55.11" y2="776.09"/>
	<line class="st5" x1="491.82" y1="765.07" x2="497" y2="765.07"/>
	<text transform="matrix(1 0 0 1 501.3863 810.3395)" style="font-family:'SourceHanSansTW-Normal-B5pc-H'; font-size:20px;">0%</text>
	<g>
		
			<text transform="matrix(1 0 0 1 82.8436 804.6924)" style="font-family:'SourceHanSansTW-Normal-B5pc-H'; font-size:17px;glyph-orientation-vertical:0;writing-mode:tb;">科技</text>
	</g>
	<g>
		
			<text transform="matrix(1 0 0 1 191.8351 804.6924)" style="font-family:'SourceHanSansTW-Normal-B5pc-H'; font-size:17px;glyph-orientation-vertical:0;writing-mode:tb;">軟體</text>
	</g>
	<g>
		
			<text transform="matrix(1 0 0 1 246.8308 804.6924)" style="font-family:'SourceHanSansTW-Normal-B5pc-H'; font-size:17px;glyph-orientation-vertical:0;writing-mode:tb;">通訊設備</text>
	</g>
	<g>
		
			<text transform="matrix(1 0 0 1 301.8265 804.6924)" style="font-family:'SourceHanSansTW-Normal-B5pc-H'; font-size:17px;glyph-orientation-vertical:0;writing-mode:tb;">科技硬體與週邊</text>
	</g>
	<g>
		
			<text transform="matrix(1 0 0 1 357.8223 804.6924)" style="font-family:'SourceHanSansTW-Normal-B5pc-H'; font-size:17px;glyph-orientation-vertical:0;writing-mode:tb;">電子設備與零組件</text>
	</g>
	<g>
		
			<text transform="matrix(1 0 0 1 410.818 804.6924)" style="font-family:'SourceHanSansTW-Normal-B5pc-H'; font-size:17px;glyph-orientation-vertical:0;writing-mode:tb;">半導體與設備</text>
	</g>
	<g>
		
			<text transform="matrix(1 0 0 1 463.8137 804.6924)" style="font-family:'SourceHanSansTW-Normal-B5pc-H'; font-size:17px;glyph-orientation-vertical:0;writing-mode:tb;">史坦普五百指數</text>
	</g>
	<g>
		<g>
			
				<text transform="matrix(1 0 0 1 136.8393 822.5345)" style="font-family:'SourceHanSansTW-Normal-B5pc-H'; font-size:17px;glyph-orientation-vertical:0;writing-mode:tb;">服務</text>
		</g>
		<text transform="matrix(1 0 0 1 129.6903 819.652)" style="font-family:'SourceHanSansTW-Normal-B5pc-H'; font-size:17px;">IT</text>
	</g>
	<text transform="matrix(0.9867 0 0 1 27.6486 904.8646)"><tspan x="0" y="0" style="font-family:'SourceHanSansTW-Normal-B5pc-H'; font-size:20px;">未來12個月</tspan><tspan x="0" y="24" style="font-family:'SourceHanSansTW-Normal-B5pc-H'; font-size:20px;">EPS成長率(左)</tspan></text>
	<rect y="889.33" class="st2" width="16.78" height="16.78"/>
	<text transform="matrix(0.9867 0 0 1 27.6486 975.5889)" style="font-family:'SourceHanSansTW-Normal-B5pc-H'; font-size:20px;">中國營收佔比預測(右)</text>
	<rect y="960.06" class="st6" width="16.78" height="16.78"/>
</g>
</svg>
