<?xml version="1.0" encoding="utf-8"?>
<!-- Generator: Adobe Illustrator 24.0.2, SVG Export Plug-In . SVG Version: 6.00 Build 0)  -->
<svg version="1.1" id="圖層_1" xmlns="http://www.w3.org/2000/svg" xmlns:xlink="http://www.w3.org/1999/xlink" x="0px" y="0px"
	 viewBox="0 0 600 600" style="enable-background:new 0 0 600 600;" xml:space="preserve">
<style type="text/css">
	.st0{fill:#215987;}
	.st1{fill:#AAAAAA;}
	.st2{fill:#1A476C;}
	.st3{fill:#9E9E9E;}
	.st4{fill:#E23333;}
	.st5{fill:#123951;}
</style>
<circle class="st0" cx="300" cy="299.6" r="218.6"/>
<g>
	<rect x="319.9" y="213.7" class="st1" width="33.4" height="200.3"/>
	<rect x="374.2" y="172" class="st1" width="33.4" height="242.1"/>
	<rect x="265.7" y="251.3" class="st1" width="33.4" height="162.8"/>
	<polygon class="st2" points="244.8,272.2 244.8,272.2 211.4,272.2 	"/>
	<path class="st3" d="M353.3,375.2v38.9h-33.4v-50.3C330.1,369.3,341.4,373.3,353.3,375.2z"/>
	<rect x="211.4" y="272.2" class="st3" width="33.4" height="141.9"/>
	<path class="st3" d="M299,348.7v65.4h-33.4V272.2C265.7,302.4,278.5,329.6,299,348.7z"/>
	<rect x="374.2" y="376.5" class="st3" width="33.4" height="37.6"/>
	<polygon class="st4" points="172.6,283.5 244.8,211.3 269.8,236.3 331.2,175 325.3,169.1 269.8,224.5 244.8,199.5 166.7,277.6 	"/>
	<polygon class="st4" points="335.5,165.2 302.1,165.2 302.1,173.6 327.2,173.6 327.2,198.6 335.5,198.6 	"/>
	<rect x="165.5" y="409.9" class="st5" width="250.4" height="8.3"/>
</g>
</svg>
