<?xml version="1.0" encoding="utf-8"?>
<!-- Generator: Adobe Illustrator 24.0.2, SVG Export Plug-In . SVG Version: 6.00 Build 0)  -->
<svg version="1.1" id="圖層_1" xmlns="http://www.w3.org/2000/svg" xmlns:xlink="http://www.w3.org/1999/xlink" x="0px" y="0px"
	 viewBox="0 0 1094 533.2" style="enable-background:new 0 0 1094 533.2;" xml:space="preserve">
<style type="text/css">
	.st0{fill:#004790;}
	.st1{fill:none;stroke:#5A5C5C;stroke-width:3;stroke-miterlimit:10;}
	.st2{fill:#007AFF;}
	.st3{enable-background:new    ;}
	.st4{fill:#FFFFFF;}
</style>
<path class="st0" d="M943.6,647.9H176c-22,0-40-18-40-40l0,0c0-22,18-40,40-40h767.6c22,0,40,18,40,40l0,0
	C983.6,629.9,965.6,647.9,943.6,647.9z"/>
<text transform="matrix(1 0 0 1 165.8451 622.0604)" class="st4" style="font-family:'SourceHanSansTW-Bold-B5pc-H'; font-size:36.9579px;">全球名目GDP推動來源：數位轉型企業 vs. 其他</text>
<line class="st1" x1="99.1" y1="1022.9" x2="1094" y2="1022.9"/>
<line class="st1" x1="99.1" y1="647.9" x2="99.1" y2="1022.9"/>
<g>
	<path class="st0" d="M215.5,773.9H255c10,0,18.1,8.1,18.1,18.1v212.9c0,10-8.1,18.1-18.1,18.1h-39.5c-10,0-18.1-8.1-18.1-18.1V792
		C197.4,782,205.5,773.9,215.5,773.9z"/>
	<rect x="197.4" y="976.9" class="st2" width="75.6" height="45.5"/>
</g>
<g>
	<path class="st0" d="M452,749.7h55.3c5.6,0,10.1,4.5,10.1,10.1v184c0,5.6-4.5,10.1-10.1,10.1H452c-5.6,0-10.1-4.5-10.1-10.1v-184
		C441.8,754.2,446.4,749.7,452,749.7z"/>
	<rect x="441.8" y="942.3" class="st2" width="75.6" height="80.1"/>
</g>
<g>
	<path class="st0" d="M695.9,721.3h56.4c5.3,0,9.6,4.3,9.6,9.6v175.2c0,5.3-4.3,9.6-9.6,9.6h-56.4c-5.3,0-9.6-4.3-9.6-9.6V730.9
		C686.3,725.6,690.6,721.3,695.9,721.3z"/>
	<rect x="686.3" y="891.8" class="st2" width="75.6" height="130.5"/>
</g>
<g>
	<path class="st0" d="M941.4,702h54.3c5.9,0,10.7,4.8,10.7,10.7v173.8c0,5.9-4.8,10.7-10.7,10.7h-54.3c-5.9,0-10.7-4.8-10.7-10.7
		V712.7C930.7,706.8,935.5,702,941.4,702z"/>
	<rect x="930.7" y="870.9" class="st2" width="75.6" height="151.5"/>
</g>
<text transform="matrix(1 0 0 1 36.1273 662.0694)" style="font-family:'NotoSansCJKtc-Bold-B5pc-H'; font-size:24px;">120</text>
<text transform="matrix(1 0 0 1 36.1273 723.0694)" style="font-family:'NotoSansCJKtc-Bold-B5pc-H'; font-size:24px;">100</text>
<text transform="matrix(1 0 0 1 50.2273 784.0694)" style="font-family:'NotoSansCJKtc-Bold-B5pc-H'; font-size:24px;">80</text>
<text transform="matrix(1 0 0 1 50.2273 845.0694)" style="font-family:'NotoSansCJKtc-Bold-B5pc-H'; font-size:24px;">60</text>
<text transform="matrix(1 0 0 1 50.2273 906.0694)" style="font-family:'NotoSansCJKtc-Bold-B5pc-H'; font-size:24px;">40</text>
<text transform="matrix(1 0 0 1 50.2273 967.0694)" style="font-family:'NotoSansCJKtc-Bold-B5pc-H'; font-size:24px;">20</text>
<text transform="matrix(1 0 0 1 64.4273 1028.0693)" style="font-family:'NotoSansCJKtc-Bold-B5pc-H'; font-size:24px;">0</text>
<text transform="matrix(1 0 0 1 206.3073 1065.8619)" style="font-family:'NotoSansCJKtc-Bold-B5pc-H'; font-size:24px;">2018</text>
<text transform="matrix(1 0 0 1 454.4998 1065.8619)" style="font-family:'NotoSansCJKtc-Bold-B5pc-H'; font-size:24px;">2020</text>
<g>
	<rect x="137.7" y="670.1" class="st2" width="21.4" height="22.1"/>
	<text transform="matrix(1 0 0 1 166.4979 689.9817)" style="font-family:'NotoSansCJKtc-Bold-B5pc-H'; font-size:24px;">數位轉型企業</text>
</g>
<g>
	<rect x="356" y="670.1" class="st0" width="21.4" height="22.1"/>
	<text transform="matrix(1 0 0 1 388.0721 689.9817)" style="font-family:'NotoSansCJKtc-Bold-B5pc-H'; font-size:24px;">其他企業</text>
</g>
<text transform="matrix(1 0 0 1 700.2003 1065.8619)" style="font-family:'NotoSansCJKtc-Bold-B5pc-H'; font-size:24px;">2022</text>
<text transform="matrix(1 0 0 1 942.3021 1065.8619)" style="font-family:'NotoSansCJKtc-Bold-B5pc-H'; font-size:24px;">2023</text>
<path class="st0" d="M943.6,97.6H176c-22,0-40-18-40-40l0,0c0-22,18-40,40-40h767.6c22,0,40,18,40,40l0,0
	C983.6,79.6,965.6,97.6,943.6,97.6z"/>
<g class="st3">
	<path class="st4" d="M186.5,70.2h13.7v3.9h-31.5v-3.9h13.2v-4.5h-9.6v-3.8h9.6v-4.2h-7.8v-3.2c-1.6,1.1-3.2,2-4.7,2.8
		c-0.6-1.1-1.7-2.6-2.7-3.5c4.1-1.7,8.7-4.7,12.2-8H174v-4.1h12.6c3.2,4.7,9.1,9.3,15.4,11.6c-0.9,1-2.3,2.8-3,4
		c-1.6-0.7-3.1-1.6-4.7-2.6v3h-7.9v4.2h9.7v3.8h-9.7L186.5,70.2L186.5,70.2z M193.2,53.8c-3.4-2.4-6.5-5.2-8.9-8.1
		c-2.4,2.8-5.7,5.7-9.1,8.1C175.2,53.8,193.2,53.8,193.2,53.8z"/>
	<path class="st4" d="M238.2,53.9c-1.9,2.5-4.3,5.2-6.1,7.1c1.6,3.2,3.8,5.5,6.9,7.8c-1,0.7-2.2,2.1-2.7,3.3c-3.1-2.4-5.3-4.9-7-8
		V70c0,2.2-0.4,3.4-1.7,4.1s-3.1,0.9-5.9,0.9c-0.2-1.2-0.9-3.1-1.5-4.3c1.8,0.1,3.5,0.1,4.1,0c0.6,0,0.8-0.2,0.8-0.7v-6
		c-2.6,2.5-5.2,5.1-7.5,7.1l-2-3.1c-3.8,1.2-7.8,2.5-11,3.5l-0.9-4.2c1.3-0.3,2.8-0.7,4.4-1.2v-8.9h-3.7v-4h3.7v-6.5h-3.9v-4.1H216
		v4.1h-3.7v6.5h3.2v4h-3.2v7.7l3.8-1.1l0.4,2.4c2.4-1.7,5.7-4.3,8.8-6.9v-8.8h-8.5v-4h8.5v-5.9h4.2v5.9h5c-1-1.1-2.6-2.5-3.9-3.5
		l2.4-2.2c1.6,1,3.5,2.5,4.4,3.7l-2.1,2h3.2v4h-9.1V52c0.4,2,0.8,3.8,1.3,5.5c1.4-1.8,2.8-3.8,3.7-5.5L238.2,53.9z M220.3,52.1
		c1.4,2,3,4.7,3.5,6.5l-3.6,1.7c-0.5-1.8-2-4.6-3.4-6.7L220.3,52.1z"/>
	<path class="st4" d="M272.9,75h-4.6v-1.5h-12.5V75h-4.4V64.5c-2.6,1.5-5.4,2.7-8.2,3.6c-0.5-1.2-1.6-3-2.6-3.9
		c4.6-1.3,9.1-3.5,12.9-6.4c-1.5-1.6-3.7-3.5-5.7-5.1c-1.3,1-2.6,1.9-4.1,2.8c-0.7-1.1-2.1-2.7-3.1-3.4c6.1-3.2,10.1-7.7,12.3-11.8
		l5,0.9c-0.6,1-1.2,1.9-1.8,2.9h8.4l0.7-0.2l3,1.6c-1.9,5.1-4.9,9.4-8.6,12.9h13.2V75H272.9z M253.1,47.9c-0.6,0.6-1.2,1.3-1.8,1.9
		c2,1.4,4.3,3.3,5.9,4.9c2.1-2,3.8-4.3,5.1-6.8C262.3,47.9,253.1,47.9,253.1,47.9z M268.3,69.6v-7.2h-12.5v7.2H268.3z"/>
	<path class="st4" d="M308.2,42.5v32.1h-4.7v-2.3h-17.1v2.3H282V42.5H308.2z M286.4,46.8V51h17.1v-4.3L286.4,46.8L286.4,46.8z
		 M286.4,55.1v4.4h17.1v-4.4H286.4z M303.5,68v-4.4h-17.1V68H303.5z"/>
	<path class="st4" d="M315.7,58.2c0-9,5.8-14.3,13.1-14.3c4,0,6.7,1.7,8.5,3.5l-2.9,3.5c-1.4-1.3-2.9-2.3-5.4-2.3
		c-4.5,0-7.7,3.5-7.7,9.4c0,6,2.7,9.5,8.1,9.5c1.3,0,2.6-0.4,3.4-1v-5.4H328v-4.5h9.7V69c-1.8,1.8-5.1,3.3-8.9,3.3
		C321.4,72.3,315.7,67.3,315.7,58.2z"/>
	<path class="st4" d="M343.5,44.4h7.5c8.4,0,13.5,4.4,13.5,13.6s-5.2,13.8-13.2,13.8h-7.8V44.4z M350.7,67.4c5.1,0,8.3-2.7,8.3-9.4
		s-3.2-9.2-8.3-9.2H349v18.6H350.7z"/>
	<path class="st4" d="M369.9,44.4h9c6.1,0,10.7,2.1,10.7,8.6c0,6.2-4.7,9.1-10.6,9.1h-3.7v9.7h-5.5V44.4H369.9z M378.7,57.7
		c3.8,0,5.6-1.6,5.6-4.7c0-3.2-2-4.3-5.8-4.3h-3.1v9H378.7z"/>
	<path class="st4" d="M426.8,72.7h-15.3V75h-4.2V55.2c-0.8,1-1.6,2-2.4,2.9c-0.2-0.3-0.5-0.6-0.8-1l0.4,2.9
		c-1.1,0.4-2.4,0.7-3.6,1.1V70c0,2.1-0.4,3.3-1.6,4c-1.1,0.7-2.8,0.9-5.2,0.9c-0.1-1.2-0.6-3-1.2-4.3c1.3,0,2.6,0,3,0
		s0.6-0.1,0.6-0.6v-7.5l-3.5,1l-1-4.2c1.3-0.3,2.8-0.7,4.5-1.1v-6.7h-4.1v-4h4.1v-6.8h4.3v6.8h3.7v4h-3.7v5.6l2.4-0.6
		c-0.6-0.6-1.1-1.1-1.6-1.5c3.4-3.3,6.4-8.7,8-14.1l4.1,1.1c-0.6,1.7-1.3,3.4-2,5h5c-0.5-1.4-1.3-3.1-2.1-4.5l3.8-1.5
		c1,1.5,2,3.7,2.5,5.1l-2.2,1h7v4h-5.9v3.3h5.5V58h-5.5v3.3h5.5v3.9h-5.5v3.5h6.7v4H426.8z M416,50.9h-4.5v3.3h4.5V50.9z M416,58
		h-4.5v3.3h4.5V58z M411.5,68.7h4.5v-3.5h-4.5V68.7z"/>
	<path class="st4" d="M463.1,48.8c0,0,0,1.4,0,2c-0.3,15.1-0.6,20.5-1.8,22.2c-0.8,1.2-1.7,1.6-2.9,1.8c-1.1,0.2-2.8,0.2-4.6,0.1
		c-0.1-1.2-0.6-3-1.3-4.2c1.6,0.1,3,0.2,3.7,0.2c0.6,0,0.9-0.1,1.3-0.6c0.8-1,1.1-5.5,1.4-17.4h-3.3c-0.5,9.9-2.2,17.5-8.4,22.4
		c-0.6-0.9-1.6-2.1-2.6-2.9c-5.3,0.6-10.6,1.1-14.6,1.4l-0.5-3.7c2.1-0.1,4.7-0.3,7.5-0.5v-2.2h-6.5v-3.1h6.5v-1.4h-6.4V51.4h6.4V50
		h-7.3v-3.2h7.3v-1.5c-2.1,0.1-4.3,0.3-6.2,0.3c-0.1-0.9-0.6-2.3-1-3.1c5.5-0.3,11.9-0.9,15.9-1.8l1.9,3.3c-2,0.4-4.3,0.7-6.7,1v1.8
		h7.1v2h3.5c0-2.4,0-5,0-7.7h4.2c0,2.7,0,5.3-0.1,7.7H463.1z M434,55.8h2.9v-1.6H434V55.8z M436.9,60.1v-1.7H434v1.7H436.9z
		 M440.9,69.2c2.1-0.1,4.3-0.3,6.4-0.5c2.9-4,3.8-9.3,4-15.9H448v-2.9h-7.1v1.4h6.5v11.4h-6.5v1.4h6.7v3.1h-6.7V69.2z M443.8,55.8
		v-1.6h-2.9v1.6H443.8z M440.9,58.4v1.7h2.9v-1.7H440.9z"/>
	<path class="st4" d="M497,62.2c-1-1.1-2.9-2.8-4.8-4.3c-0.7,1.2-1.6,2.3-2.5,3.2c-0.6-0.5-1.8-1.3-2.9-1.9
		c3.3,4.4,8.6,8.3,14.1,10.3c-1.1,0.9-2.5,2.8-3.3,4c-4.5-2.1-8.6-5.4-12-9.3V75H481V64.5c-3.3,3.9-7.5,7.1-11.9,9.1
		c-0.7-1.1-2.1-2.8-3.1-3.8c6-2.3,11.8-6.9,15-11.9v-8.5h-13.5v-4.3H481v-4.5h4.6v4.5h13.9v4.3h-13.9v8.3c0.2,0.3,0.4,0.6,0.6,0.8
		c2.4-2.1,3.9-5.4,4.7-8.9l4.3,0.8c-0.3,1.4-0.7,2.7-1.2,4c2.1,1.6,4.7,3.6,6,4.8L497,62.2z M478,50.4c-0.4,1.4-0.8,2.7-1.3,4
		c1.3,1.1,2.7,2.4,3.6,3.3l-3,3.1c-0.6-0.7-1.5-1.6-2.5-2.6c-1.2,2-2.6,3.7-4.3,5.1c-0.7-0.8-2.4-2.2-3.4-2.9
		c3.3-2.3,5.5-6.2,6.5-10.7L478,50.4z"/>
	<path class="st4" d="M509.2,57.6c-1.3-1-4.1-2.7-6-3.8l2.5-3.1c1.8,0.9,4.7,2.4,6.1,3.4L509.2,57.6z M512.4,62.7
		c-1.4,4-3.1,8.2-4.8,11.9l-4-2.4c1.6-2.9,3.6-7.5,5.2-11.9L512.4,62.7z M511,47.8c-1.3-1-4.1-2.8-6-4l2.5-3.1
		c1.9,1,4.7,2.6,6.2,3.6L511,47.8z M529.9,62.8v8c0,1.9-0.3,2.9-1.6,3.5s-3,0.7-5.2,0.6c-0.2-1.1-0.7-2.7-1.1-3.8c1.3,0,2.8,0,3.2,0
		s0.6-0.1,0.6-0.5v-7.9H520V49.5h4.9c0.4-1.1,0.7-2.2,0.9-3.1h-7.1v6.2c0,6.5-0.7,16.3-5.1,22.4c-0.8-0.7-2.6-1.9-3.7-2.4
		c4.1-5.7,4.5-14.1,4.5-20.1V42.4h23.1v4h-10.8l4.1,0.7c-0.5,0.8-1,1.6-1.4,2.4h7.1v13.3C536.5,62.8,529.9,62.8,529.9,62.8z
		 M524.4,65.4c-1.1,2.7-2.9,5.7-4.3,7.6c-0.8-0.7-2.5-1.6-3.4-2.1c1.4-1.8,2.9-4.3,3.8-6.6L524.4,65.4z M523.8,54.7h8.5v-2h-8.5
		V54.7z M523.8,59.7h8.5v-2.1h-8.5V59.7z M534.8,63.9c1.2,2.2,2.8,5.2,3.6,7l-4.1,1.8c-0.7-1.9-2.1-5-3.3-7.4L534.8,63.9z"/>
	<path class="st4" d="M544.8,49.3c0-2,1.6-3.5,3.5-3.5c2,0,3.5,1.5,3.5,3.5s-1.6,3.4-3.5,3.4C546.3,52.7,544.8,51.2,544.8,49.3z
		 M544.8,66.9c0-2,1.6-3.5,3.5-3.5c2,0,3.5,1.5,3.5,3.5s-1.6,3.4-3.5,3.4C546.3,70.3,544.8,68.9,544.8,66.9z"/>
	<path class="st4" d="M590.8,51.2c-0.6,5.4-1.7,9.9-3.4,13.6c1.6,2.9,3.7,5.2,6.4,6.7c-0.9,0.7-2.2,2.3-2.8,3.4
		c-2.4-1.6-4.3-3.7-5.8-6.4c-2,2.7-4.6,4.9-8,6.6c-0.2-0.5-0.7-1.4-1.2-2.1l-1.1,1c-1.2-0.7-2.7-1.4-4.4-2.1
		c-2.3,1.3-5.5,2.4-10.2,3.2c-0.3-0.8-1.1-2.1-1.7-2.8c3.3-0.5,5.8-1.1,7.7-1.9c-1.7-0.6-3.5-1.1-5.1-1.5c0.7-0.8,1.4-1.8,2-2.8
		h-3.9v-3h5.8c0.3-0.6,0.6-1.1,0.9-1.7h-5.1v-6.5h6.5v-1.1h-5.9v-4.1H559v-3.1h2.5v-3.8h5.9v-2.2h3.3v2.2h6.4v3.8h1.9v3.1h-2v4.1
		h-6.4v1.1h6.9v1.5c2-4.1,3.5-10,4.5-15.7l3.6,0.7c-0.3,2-0.8,4.1-1.3,6.2h9v3.8h-2.5V51.2z M564.4,58.8h2.9v-1.6h-2.9V58.8z
		 M564.6,45.4v1.3h2.7v-1.3H564.6z M567.3,50.9v-1.5h-2.7v1.5H567.3z M567.1,65.9c-0.3,0.4-0.6,0.8-0.8,1.3c1.2,0.3,2.4,0.7,3.5,1.1
		c1-0.7,1.6-1.6,1.9-2.3L567.1,65.9L567.1,65.9z M575.4,65.9c-0.3,1.2-0.9,2.5-2,3.7c1.2,0.5,2.3,1,3.4,1.5c2.9-1.6,5-3.7,6.6-6.4
		c-0.9-2.3-1.6-4.8-2.2-7.6c-0.5,1.1-1,2.2-1.5,3.1c-0.4-0.5-1.4-1.5-2.1-2.2v3.3h-7.8c-0.3,0.6-0.6,1.1-0.8,1.7h3.3v-1.1h3.4V63
		h3.1v3L575.4,65.9L575.4,65.9z M570.6,45.4v1.3h2.9v-1.3H570.6z M573.5,50.9v-1.5h-2.9v1.5H573.5z M570.6,57.2v1.6h3v-1.6H570.6z
		 M583.2,51.2c0.5,3.2,1.2,6.2,2.1,8.9c0.8-2.6,1.3-5.5,1.7-8.9C587,51.2,583.2,51.2,583.2,51.2z"/>
	<path class="st4" d="M608.2,41.9c-1,2.5-2.1,5.1-3.4,7.5v25.5h-4.4V56.3c-0.8,1-1.6,1.9-2.3,2.7c-0.4-1.1-1.6-3.5-2.4-4.6
		c3.3-3.3,6.5-8.6,8.4-13.8L608.2,41.9z M629.7,69.3v4.3h-23.2v-4.3h12.9c1.3-4.8,2.5-12,3-17.3l4.6,0.7c-0.9,5.5-2.3,12-3.6,16.6
		H629.7z M616.5,46.7c-0.3-1.6-1-4-1.6-5.7l4.2-1c0.7,1.8,1.5,4.1,1.9,5.6l-3.9,1.1h11.4V51h-20.6v-4.3
		C607.9,46.7,616.5,46.7,616.5,46.7z M612.3,68.3c-0.3-3.8-1.2-10.3-2.2-15.3l4-0.9c1.1,4.8,2.1,11.2,2.5,14.9L612.3,68.3z"/>
	<path class="st4" d="M662.9,63.8h4.2V67h-4.2v4.2c0,1.9-0.3,2.8-1.7,3.4c-1.4,0.5-3.1,0.6-5.7,0.6c-0.1-1.1-0.6-2.4-1.1-3.4
		l-1.5,0.9c-0.6-1.3-1.8-3.2-3.2-4.5l1.8-1.1H648v2.1h-5.7V75h-3.9v-5.8h-6v-3.8h6v-2.2h-4.7V49.8h4.7v-1.9H633V44h5.4v-3.5h3.9V44
		h5.2v3.8h-5.2v1.9h4.9V63h-4.9v2.2h5.7v-1.5h10.8v-1.4h4v1.5H662.9z M636.9,55h2.1v-2.2h-2.1V55z M636.9,60.1h2.1v-2.2h-2.1V60.1z
		 M644.2,52.8h-2.3V55h2.3V52.8z M644.2,57.9h-2.3v2.2h2.3V57.9z M648.1,59.2c2,0,4.6,0,7.4-0.1v-1.6H649v-9.9h6.4v-1.4h-7.1V43h7.1
		v-2.4h3.7V43h7.4v3.2h-7.4v1.4h6.8v9.9h-1.6c1.2,1.4,2.3,3,3,4.3l-3.1,1.5c-0.2-0.4-0.4-0.8-0.7-1.3c-5.5,0.2-11.2,0.3-15.3,0.4
		L648.1,59.2z M652.5,51.3h3v-1.4h-3V51.3z M655.5,55.1v-1.5h-3v1.5H655.5z M658.9,67h-5.5c1.1,1.1,2.2,2.5,2.7,3.6l-1.5,1
		c1.5,0.1,3.2,0.1,3.7,0.1s0.7-0.1,0.7-0.6V67H658.9z M659.2,49.9v1.4h3.1v-1.4H659.2z M662.3,53.6h-3.1v1.5h3.1V53.6z M659.2,59
		h2.4c-0.3-0.4-0.6-0.7-0.9-1l1-0.5h-2.5V59z"/>
	<path class="st4" d="M703.5,69.7v4.1h-33.3v-4.1h14.5v-3H674v-4h10.7v-2.3h-2.8v-7.1h-3.4c-0.6,3-2.1,6.1-5.8,8.1
		c-0.6-0.8-2.1-2.5-2.9-3.1c2.7-1.4,4-3.2,4.5-5h-3.7v-3.9h4.2v-3.9h-2.9v-3.8h16.8v3.8H686v3.9h3.5v3.9H686v6.5h3.2v3h10.7v4h-10.7
		v3h14.3V69.7z M681.8,49.5v-3.9h-3.1v3.9H681.8z M695,55.1h-4V42.6h4V55.1z M701.9,56.7c0,2-0.4,3.1-1.8,3.7
		c-1.3,0.6-3.2,0.7-5.8,0.7c-0.2-1.1-0.8-2.8-1.3-3.9c1.7,0.1,3.4,0.1,4,0c0.5,0,0.7-0.1,0.7-0.6V40.9h4.2L701.9,56.7L701.9,56.7z"
		/>
	<path class="st4" d="M727.2,42.1c-0.3,0.3-0.5,0.7-0.8,1c4.8,5.1,10,7.6,15.2,9.5c-1.1,0.9-2.3,2.5-2.8,3.8
		c-5.1-2.2-10-4.9-15-10.3c-4.1,4.4-9.4,7.8-14.7,10.3c-0.6-1.1-1.9-2.7-3-3.7c6.6-2.6,13.4-7,17.1-12.5L727.2,42.1z M726.4,70h13.2
		v4h-31.4v-4h4V57.1h4.4V70h5.2V51h4.7v7.6h9.9v4h-9.9V70H726.4z"/>
	<path class="st4" d="M757.7,69.2c-2.5,2.1-6.9,4-10.8,4.9c-0.6-0.9-1.7-2.4-2.6-3.2c3.7-0.5,8-1.8,10.2-3.1L757.7,69.2z M777.3,63
		v3.6H763V75h-4.4v-8.4h-14.1V63h14.1v-1.6H748v-3.2h10.6v-1.7h-12.5v-3.3h6.8c-0.3-0.9-0.9-1.9-1.4-2.7l2.5-0.6h-9.4v-3.4h5
		c-0.6-1.4-1.5-3.2-2.4-4.6l3.8-1.3c1.1,1.6,2.3,3.8,2.8,5.2l-1.8,0.7h3.4v-6h4.1v6h2.8v-6h4.1v6h3.3l-1.3-0.4
		c0.8-1.5,1.8-3.7,2.4-5.3l4.6,1.1c-1,1.7-2,3.4-3,4.7h4.8V50h-9.8l3.5,0.9c-0.8,0.9-1.6,1.7-2.3,2.4h7.1v3.3h-12.8v1.7H774v3.2
		h-11.1V63H777.3z M756,49.9c0.6,0.9,1.2,2,1.5,2.8l-2,0.5h10.1l-1.3-0.4c0.6-0.8,1.4-2,1.9-2.8L756,49.9L756,49.9z M767.5,67.6
		c3,1.1,7.4,3,9.7,4.1l-3.1,2.4c-2.1-1.2-6.5-3.2-9.6-4.5L767.5,67.6z"/>
	<path class="st4" d="M788.2,51.1h5.5l3,10.3c0.6,2,1.1,4.2,1.7,6.3h0.2c0.6-2.1,1.1-4.3,1.7-6.3l3-10.3h5.2l-6.9,20.7h-6.3
		L788.2,51.1z"/>
	<path class="st4" d="M809.9,69.4l2.5-3.4c1.8,1.4,3.6,2.3,5.5,2.3c2.1,0,3-0.9,3-2.2c0-1.6-2.1-2.3-4.3-3.1c-2.6-1-5.5-2.6-5.5-6.1
		c0-3.7,3-6.3,7.7-6.3c3,0,5.3,1.3,7,2.5l-2.4,3.3c-1.5-1.1-2.9-1.8-4.4-1.8c-1.9,0-2.8,0.8-2.8,2c0,1.5,1.9,2.1,4.1,2.9
		c2.7,1,5.8,2.4,5.8,6.2c0,3.6-2.8,6.5-8.2,6.5C815,72.3,812,71.1,809.9,69.4z"/>
	<path class="st4" d="M829.9,68.7c0-2,1.4-3.5,3.4-3.5s3.4,1.5,3.4,3.5s-1.4,3.5-3.4,3.5C831.3,72.3,829.9,70.7,829.9,68.7z"/>
	<path class="st4" d="M860.7,67l3.5,2.8c-3.3,1.9-8.4,4-12.3,5.1c-0.7-0.9-1.9-2.4-2.8-3.3c3.8-1,8.6-3,11.3-4.7h-10.8v-4h6.2V48.2
		h-5.1v-4h5.1v-3.6h4.4v3.6h11.6v-3.6h4.5v3.6h5.4v4h-5.4V63h6.3v4H860.7z M860.2,48.2v2.3h11.6v-2.3H860.2z M860.2,56.6h11.6v-2.5
		h-11.6V56.6z M860.2,63h11.6v-2.7h-11.6V63z M871.1,67.3c4.2,1.4,8.9,3.4,11.7,4.8l-4.2,2.8c-2.4-1.4-6.6-3.4-10.6-4.9L871.1,67.3z
		"/>
	<path class="st4" d="M897.8,41.9c-1,2.6-2.3,5.3-3.7,7.9v25.1h-4.2V56.3c-0.8,1-1.6,1.9-2.3,2.7c-0.4-1.1-1.6-3.5-2.4-4.6
		c3.4-3.3,6.6-8.5,8.4-13.8L897.8,41.9z M913.8,70.7c2.2,0,2.6-0.9,2.8-5.1c1,0.7,2.7,1.4,3.9,1.6c-0.6,5.5-1.8,7.4-6.4,7.4h-8.4
		c-5.1,0-6.6-1.3-6.6-6.5V57.8l-2.8,1.1l-1.7-3.9l4.5-1.7v-8.7h4.1v7.1l3.7-1.4v-9.6h4v8l5-1.9l0.4-0.3l3.3,1l-0.1,0.7
		c-0.2,5.3-0.7,12.2-1.5,16.8l-3.6-1c0.4-3.1,0.7-8,0.8-12.5l-4.2,1.7v13.1h-4V54.7l-3.7,1.5v12c0,2.2,0.4,2.6,2.8,2.6L913.8,70.7
		L913.8,70.7z"/>
</g>
<line class="st1" x1="99.1" y1="472.6" x2="1094" y2="472.6"/>
<line class="st1" x1="99.1" y1="97.6" x2="99.1" y2="472.6"/>
<g>
	<path class="st0" d="M215.5,223.6H255c10,0,18.1,8.1,18.1,18.1v212.9c0,10-8.1,18.1-18.1,18.1h-39.5c-10,0-18.1-8.1-18.1-18.1
		V241.7C197.4,231.7,205.5,223.6,215.5,223.6z"/>
	<rect x="197.4" y="426.6" class="st2" width="75.6" height="45.5"/>
</g>
<g>
	<path class="st0" d="M452,199.4h55.3c5.6,0,10.1,4.5,10.1,10.1v184c0,5.6-4.5,10.1-10.1,10.1H452c-5.6,0-10.1-4.5-10.1-10.1v-184
		C441.8,204,446.4,199.4,452,199.4z"/>
	<rect x="441.8" y="392" class="st2" width="75.6" height="80.1"/>
</g>
<g>
	<path class="st0" d="M695.9,171h56.4c5.3,0,9.6,4.3,9.6,9.6v175.2c0,5.3-4.3,9.6-9.6,9.6h-56.4c-5.3,0-9.6-4.3-9.6-9.6V180.6
		C686.3,175.3,690.6,171,695.9,171z"/>
	<rect x="686.3" y="341.5" class="st2" width="75.6" height="130.5"/>
</g>
<g>
	<path class="st0" d="M941.4,151.7h54.3c5.9,0,10.7,4.8,10.7,10.7v173.8c0,5.9-4.8,10.7-10.7,10.7h-54.3c-5.9,0-10.7-4.8-10.7-10.7
		V162.4C930.7,156.5,935.5,151.7,941.4,151.7z"/>
	<rect x="930.7" y="320.6" class="st2" width="75.6" height="151.5"/>
</g>
<g class="st3">
	<path d="M38.1,108.9h3.8V97.7h-3.2v-2.2c1.8-0.3,3-0.8,4.1-1.5h2.6v14.9h3.3v2.9H38.1V108.9z"/>
	<path d="M51.3,109.7c4.8-4.3,7.7-7.7,7.7-10.4c0-1.8-1-2.9-2.7-2.9c-1.3,0-2.4,0.8-3.3,1.8l-1.9-1.9c1.6-1.7,3.2-2.7,5.6-2.7
		c3.4,0,5.6,2.2,5.6,5.5c0,3.2-2.7,6.7-5.9,9.8c0.9-0.1,2.1-0.2,2.9-0.2h3.9v3H51.3V109.7z"/>
	<path d="M65.5,102.8c0-6.1,2.4-9.1,6-9.1s6,3,6,9.1s-2.4,9.3-6,9.3C67.9,112.1,65.5,109,65.5,102.8z M74.1,102.8
		c0-5-1.2-6.4-2.7-6.4s-2.7,1.4-2.7,6.4s1.2,6.5,2.7,6.5C73,109.4,74.1,107.8,74.1,102.8z"/>
</g>
<g class="st3">
	<path d="M38.1,169.9h3.8v-11.2h-3.2v-2.2c1.8-0.3,3-0.8,4.1-1.5h2.6v14.9h3.3v2.9H38.1V169.9z"/>
	<path d="M51.3,163.8c0-6.1,2.4-9.1,6-9.1s6,3,6,9.1s-2.4,9.3-6,9.3S51.3,170,51.3,163.8z M60,163.8c0-5-1.2-6.4-2.7-6.4
		s-2.7,1.4-2.7,6.4s1.2,6.5,2.7,6.5C58.9,170.4,60,168.8,60,163.8z"/>
	<path d="M65.5,163.8c0-6.1,2.4-9.1,6-9.1s6,3,6,9.1s-2.4,9.3-6,9.3S65.5,170,65.5,163.8z M74.1,163.8c0-5-1.2-6.4-2.7-6.4
		s-2.7,1.4-2.7,6.4s1.2,6.5,2.7,6.5C73,170.4,74.1,168.8,74.1,163.8z"/>
</g>
<g class="st3">
	<path d="M51.4,229.4c0-2.3,1.4-3.7,3-4.6v-0.1c-1.4-1-2.4-2.3-2.4-4.2c0-2.9,2.3-4.7,5.4-4.7c3.1,0,5.2,1.9,5.2,4.7
		c0,1.8-1.1,3.2-2.3,4.1v0.1c1.6,0.9,3,2.3,3,4.8c0,2.7-2.4,4.8-6,4.8C53.9,234.1,51.4,232.2,51.4,229.4z M60,229.3
		c0-1.8-1.6-2.6-3.9-3.6c-1,0.8-1.6,2-1.6,3.3c0,1.6,1.3,2.6,3,2.6C58.9,231.6,60,230.8,60,229.3z M59.7,220.7
		c0-1.4-0.9-2.5-2.4-2.5c-1.2,0-2.2,0.8-2.2,2.2c0,1.7,1.4,2.5,3.2,3.2C59.3,222.7,59.7,221.7,59.7,220.7z"/>
	<path d="M65.4,224.8c0-6.1,2.4-9.1,6-9.1s6,3,6,9.1s-2.4,9.3-6,9.3S65.4,231,65.4,224.8z M74.1,224.8c0-5-1.2-6.4-2.7-6.4
		s-2.7,1.4-2.7,6.4s1.2,6.5,2.7,6.5C73,231.4,74.1,229.8,74.1,224.8z"/>
</g>
<g class="st3">
	<path d="M61.2,280.8c-0.6-0.7-1.7-1.3-2.7-1.3c-2,0-3.7,1.5-3.9,6c1-1.2,2.5-1.9,3.6-1.9c3,0,5.1,1.8,5.1,5.6
		c0,3.6-2.5,5.9-5.6,5.9c-3.4,0-6.4-2.7-6.4-9c0-6.6,3.3-9.5,6.9-9.5c2.2,0,3.7,0.9,4.8,2L61.2,280.8z M60.1,289.2
		c0-2.1-1-3.1-2.5-3.1c-1,0-2,0.5-2.9,1.9c0.3,3.2,1.5,4.5,3,4.5C59.1,292.5,60.1,291.4,60.1,289.2z"/>
	<path d="M65.4,285.8c0-6.1,2.4-9.1,6-9.1s6,3,6,9.1s-2.4,9.3-6,9.3C67.8,295.1,65.4,292,65.4,285.8z M74.1,285.8
		c0-5-1.2-6.4-2.7-6.4s-2.7,1.4-2.7,6.4s1.2,6.5,2.7,6.5C73,292.4,74.1,290.8,74.1,285.8z"/>
</g>
<g class="st3">
	<path d="M63.7,351.2h-2.1v4.6h-3.3v-4.6h-7.6v-2.4l6.6-10.8h4.2v10.5h2.1L63.7,351.2L63.7,351.2z M58.3,348.5v-3.6
		c0-1,0.1-2.6,0.1-3.7h-0.1c-0.4,0.9-0.9,1.9-1.4,2.9l-2.8,4.4L58.3,348.5L58.3,348.5z"/>
	<path d="M65.4,346.8c0-6.1,2.4-9.1,6-9.1s6,3,6,9.1s-2.4,9.3-6,9.3C67.8,356.1,65.4,353,65.4,346.8z M74.1,346.8
		c0-5-1.2-6.4-2.7-6.4s-2.7,1.4-2.7,6.4s1.2,6.5,2.7,6.5C73,353.4,74.1,351.8,74.1,346.8z"/>
</g>
<g class="st3">
	<path d="M51.3,414.7c4.8-4.3,7.7-7.7,7.7-10.4c0-1.8-1-2.9-2.7-2.9c-1.3,0-2.4,0.8-3.3,1.8l-1.9-1.9c1.6-1.7,3.2-2.7,5.6-2.7
		c3.4,0,5.6,2.2,5.6,5.5c0,3.2-2.7,6.7-5.9,9.8c0.9-0.1,2.1-0.2,2.9-0.2h3.9v3H51.3V414.7z"/>
	<path d="M65.4,407.8c0-6.1,2.4-9.1,6-9.1s6,3,6,9.1s-2.4,9.3-6,9.3C67.8,417.1,65.4,414,65.4,407.8z M74.1,407.8
		c0-5-1.2-6.4-2.7-6.4s-2.7,1.4-2.7,6.4s1.2,6.5,2.7,6.5C73,414.4,74.1,412.8,74.1,407.8z"/>
</g>
<g class="st3">
	<path d="M65.5,468.8c0-6.1,2.4-9.1,6-9.1s6,3,6,9.1s-2.4,9.3-6,9.3C67.9,478.1,65.5,475,65.5,468.8z M74.2,468.8
		c0-5-1.2-6.4-2.7-6.4s-2.7,1.4-2.7,6.4s1.2,6.5,2.7,6.5C73,475.4,74.2,473.8,74.2,468.8z"/>
</g>
<g class="st3">
	<path d="M207.3,513.5c4.8-4.3,7.7-7.7,7.7-10.4c0-1.8-1-2.9-2.7-2.9c-1.3,0-2.4,0.8-3.3,1.8l-1.9-1.9c1.6-1.7,3.2-2.7,5.6-2.7
		c3.4,0,5.6,2.2,5.6,5.5c0,3.2-2.7,6.7-5.9,9.8c0.9-0.1,2.1-0.2,2.9-0.2h3.9v3h-11.9L207.3,513.5L207.3,513.5z"/>
	<path d="M221.5,506.6c0-6.1,2.4-9.1,6-9.1s6,3,6,9.1s-2.4,9.3-6,9.3S221.5,512.7,221.5,506.6z M230.2,506.6c0-5-1.2-6.4-2.7-6.4
		s-2.7,1.4-2.7,6.4s1.2,6.5,2.7,6.5C229,513.2,230.2,511.6,230.2,506.6z"/>
	<path d="M236.5,512.7h3.8v-11.2h-3.2v-2.2c1.8-0.3,3-0.8,4.1-1.5h2.6v14.9h3.3v2.9h-10.7L236.5,512.7L236.5,512.7z"/>
	<path d="M249.8,511.2c0-2.3,1.4-3.7,3-4.6v-0.1c-1.4-1-2.4-2.3-2.4-4.2c0-2.9,2.3-4.7,5.4-4.7s5.2,1.9,5.2,4.7
		c0,1.8-1.1,3.2-2.3,4.1v0.1c1.6,0.9,3,2.3,3,4.8c0,2.7-2.4,4.8-6,4.8C252.4,515.9,249.8,513.9,249.8,511.2z M258.5,511
		c0-1.8-1.6-2.6-3.9-3.6c-1,0.8-1.6,2-1.6,3.3c0,1.6,1.3,2.6,3,2.6C257.4,513.4,258.5,512.6,258.5,511z M258.2,502.5
		c0-1.4-0.9-2.5-2.4-2.5c-1.2,0-2.2,0.8-2.2,2.2c0,1.7,1.4,2.5,3.2,3.2C257.8,504.5,258.2,503.5,258.2,502.5z"/>
</g>
<g class="st3">
	<path d="M455.5,513.5c4.8-4.3,7.7-7.7,7.7-10.4c0-1.8-1-2.9-2.7-2.9c-1.3,0-2.4,0.8-3.3,1.8l-1.9-1.9c1.6-1.7,3.2-2.7,5.6-2.7
		c3.4,0,5.6,2.2,5.6,5.5c0,3.2-2.7,6.7-5.9,9.8c0.9-0.1,2.1-0.2,2.9-0.2h3.9v3h-11.9L455.5,513.5L455.5,513.5z"/>
	<path d="M469.7,506.6c0-6.1,2.4-9.1,6-9.1s6,3,6,9.1s-2.4,9.3-6,9.3S469.7,512.7,469.7,506.6z M478.4,506.6c0-5-1.2-6.4-2.7-6.4
		s-2.7,1.4-2.7,6.4s1.2,6.5,2.7,6.5C477.2,513.2,478.4,511.6,478.4,506.6z"/>
	<path d="M483.8,513.5c4.8-4.3,7.7-7.7,7.7-10.4c0-1.8-1-2.9-2.7-2.9c-1.3,0-2.4,0.8-3.3,1.8l-1.9-1.9c1.6-1.7,3.2-2.7,5.6-2.7
		c3.4,0,5.6,2.2,5.6,5.5c0,3.2-2.7,6.7-5.9,9.8c0.9-0.1,2.1-0.2,2.9-0.2h3.9v3h-11.9L483.8,513.5L483.8,513.5z"/>
	<path d="M498,506.6c0-6.1,2.4-9.1,6-9.1s6,3,6,9.1s-2.4,9.3-6,9.3S498,512.7,498,506.6z M506.7,506.6c0-5-1.2-6.4-2.7-6.4
		s-2.7,1.4-2.7,6.4s1.2,6.5,2.7,6.5C505.5,513.2,506.7,511.6,506.7,506.6z"/>
</g>
<g>
	<rect x="137.7" y="119.8" class="st2" width="21.4" height="22.1"/>
	<g class="st3">
		<path d="M188.1,126.2c-0.4,3.5-1,6.5-2.1,9c0.9,1.8,2.2,3.3,3.8,4.2c-0.6,0.4-1.2,1.3-1.6,1.9c-1.4-1-2.5-2.2-3.5-3.8
			c-1.1,1.7-2.5,3.1-4.3,4.2c-0.2-0.4-0.6-1.2-1.1-1.7l-1.5,1.3c-0.8-0.5-1.9-1.1-3.1-1.7c-1.6,0.7-3.7,1.3-6.7,1.8
			c-0.2-0.6-0.7-1.4-1-1.8c2.1-0.3,3.8-0.6,5.1-1.1c-1.1-0.4-2.2-0.8-3.2-1.1c0.3-0.4,0.7-0.9,1.1-1.4l-2.2,0.1l-0.2-1.9
			c1.1,0,2.3-0.1,3.7-0.2c0.3-0.5,0.6-1,0.8-1.5h-3.5v-4.3h4.3v-0.7h-3.6V125h-1.8v-2h1.8v-2.4h3.6v-1.5h2.2v1.5h3.9v2.4h1.6v2H179
			v2.5h-4v0.7h4.4v1.8c1.6-2.6,2.4-6.6,2.8-10.8l2.4,0.3c-0.2,1.3-0.4,2.7-0.6,4h5.7v2.5h-1.6V126.2z M170.9,131.1h2v-0.9h-2V131.1z
			 M171.5,122.6v0.8h1.3v-0.8H171.5z M172.8,126v-0.9h-1.3v0.9H172.8z M172.2,136.7c0.8,0.3,1.6,0.6,2.4,0.9
			c0.9-0.5,1.4-1.1,1.7-1.7l-3.6,0.2L172.2,136.7z M178.7,135.8c-0.2,1-0.7,1.9-1.8,2.8c0.9,0.4,1.6,0.8,2.3,1.1
			c1.9-1.1,3.3-2.6,4.3-4.6c-0.6-1.4-1-3-1.4-4.8c-0.3,0.6-0.6,1.2-0.9,1.8c-0.4-0.4-1.2-1.3-1.8-1.8v2.5h-4.8
			c-0.2,0.5-0.5,0.9-0.8,1.4l2.8-0.1v-0.8h2.2v0.7h0.8v1.8L178.7,135.8z M175,122.6v0.8h1.4v-0.8H175z M176.4,126v-0.9H175v0.9
			H176.4z M175,130.2v0.9h1.9v-0.9H175z M183.4,126.2c0.3,2,0.7,4,1.2,5.8c0.5-1.7,0.8-3.6,1-5.8H183.4z"/>
		<path d="M199.4,120.3c-0.6,1.6-1.4,3.3-2.2,4.8v16.6h-2.9v-12.1c-0.5,0.6-1,1.2-1.5,1.8c-0.3-0.7-1.1-2.3-1.5-3
			c2.2-2.2,4.2-5.6,5.5-9L199.4,120.3z M213.4,138.1v2.8h-15v-2.8h8.4c0.8-3.1,1.6-7.8,2-11.2l3,0.5c-0.6,3.6-1.5,7.8-2.3,10.8h3.9
			V138.1z M204.8,123.4c-0.2-1-0.6-2.6-1.1-3.7l2.7-0.7c0.5,1.2,1,2.7,1.2,3.6l-2.5,0.7h7.4v2.8h-13.4v-2.8L204.8,123.4L204.8,123.4
			z M202,137.4c-0.2-2.5-0.8-6.7-1.4-9.9l2.6-0.6c0.7,3.1,1.4,7.3,1.6,9.7L202,137.4z"/>
		<path d="M234.9,134.5h2.7v2.1h-2.7v2.7c0,1.2-0.2,1.8-1.1,2.2c-0.9,0.3-2,0.4-3.7,0.4c-0.1-0.7-0.4-1.6-0.7-2.2l-1,0.6
			c-0.4-0.8-1.2-2.1-2.1-2.9l1.2-0.7h-2.3v1.4h-3.7v3.8H219V138h-3.9v-2.5h3.9v-1.4h-3v-8.7h3.1v-1.2h-3.5v-2.5h3.5v-2.3h2.5v2.3
			h3.4v2.5h-3.4v1.2h3.2v8.7h-3.2v1.4h3.7v-1h7v-0.9h2.6L234.9,134.5L234.9,134.5z M218.1,128.8h1.4v-1.4h-1.4V128.8z M218.1,132.1
			h1.4v-1.4h-1.4V132.1z M222.8,127.4h-1.5v1.4h1.5V127.4z M222.8,130.7h-1.5v1.4h1.5V130.7z M225.3,131.5c1.3,0,3,0,4.8-0.1v-1.1
			h-4.2V124h4.2v-0.9h-4.6V121h4.6v-1.6h2.4v1.6h4.8v2.1h-4.8v0.9h4.4v6.4h-1c0.8,0.9,1.5,2,1.9,2.8l-2,1c-0.1-0.2-0.3-0.5-0.5-0.8
			c-3.6,0.1-7.3,0.2-9.9,0.3L225.3,131.5z M228.2,126.4h1.9v-0.9h-1.9V126.4z M230.1,128.9v-1h-1.9v1H230.1z M232.4,136.6h-3.6
			c0.7,0.7,1.4,1.7,1.8,2.3l-1,0.6c1,0,2.1,0,2.4,0c0.3,0,0.5-0.1,0.5-0.4L232.4,136.6L232.4,136.6z M232.5,125.5v0.9h2v-0.9H232.5z
			 M234.6,127.9h-2v1h2V127.9z M232.5,131.4h1.5c-0.2-0.2-0.4-0.5-0.6-0.7l0.7-0.3h-1.6L232.5,131.4L232.5,131.4z"/>
		<path d="M261.3,138.4v2.6h-21.6v-2.6h9.4v-1.9h-7v-2.6h6.9v-1.5h-1.8v-4.6H245c-0.4,2-1.4,3.9-3.8,5.3c-0.4-0.5-1.4-1.6-1.9-2
			c1.8-0.9,2.6-2.1,2.9-3.3h-2.4v-2.5h2.7v-2.5h-1.9v-2.5h10.9v2.5h-1.7v2.5h2.3v2.5h-2.3v4.2h2.1v1.9h6.9v2.6H252v1.9L261.3,138.4
			L261.3,138.4z M247.2,125.2v-2.5h-2v2.5H247.2z M255.8,128.9h-2.6v-8.1h2.6V128.9z M260.2,129.9c0,1.3-0.2,2-1.2,2.4
			c-0.9,0.4-2.1,0.5-3.8,0.5c-0.1-0.7-0.5-1.8-0.8-2.5c1.1,0,2.2,0,2.6,0c0.3,0,0.5-0.1,0.5-0.4v-10.2h2.7V129.9z"/>
		<path d="M276.7,120.4c-0.2,0.2-0.3,0.5-0.5,0.7c3.1,3.3,6.5,4.9,9.9,6.1c-0.7,0.6-1.5,1.6-1.8,2.5c-3.3-1.4-6.5-3.2-9.7-6.7
			c-2.7,2.8-6.1,5.1-9.6,6.7c-0.4-0.7-1.2-1.8-1.9-2.4c4.3-1.7,8.7-4.5,11.1-8.1L276.7,120.4z M276.2,138.6h8.6v2.6h-20.4v-2.6h2.6
			v-8.4h2.8v8.4h3.4v-12.3h3v4.9h6.4v2.6h-6.4V138.6z"/>
		<path d="M296.5,138c-1.6,1.4-4.5,2.6-7,3.2c-0.4-0.6-1.1-1.5-1.7-2.1c2.4-0.3,5.2-1.2,6.6-2L296.5,138z M309.2,134v2.4h-9.3v5.5
			h-2.8v-5.5H288V134h9.1v-1.1h-6.9v-2.1h6.9v-1.1H289v-2.2h4.4c-0.2-0.6-0.6-1.2-0.9-1.8l1.6-0.4H288v-2.2h3.3
			c-0.4-0.9-1-2.1-1.5-3l2.4-0.8c0.7,1,1.5,2.4,1.8,3.4l-1.2,0.4h2.2v-3.9h2.6v3.9h1.8v-3.9h2.7v3.9h2.1l-0.9-0.3
			c0.6-1,1.2-2.4,1.5-3.5l3,0.7c-0.7,1.1-1.3,2.2-1.9,3h3.1v2.2h-6.3l2.3,0.6c-0.5,0.6-1,1.1-1.5,1.5h4.6v2.2h-8.3v1.1h7.2v2.1h-7.2
			v1.1h9.4V134z M295.4,125.5c0.4,0.6,0.8,1.3,1,1.8l-1.3,0.3h6.6l-0.9-0.3c0.4-0.6,0.9-1.3,1.2-1.8H295.4z M302.8,137
			c1.9,0.7,4.8,1.9,6.3,2.7l-2,1.6c-1.4-0.8-4.2-2.1-6.2-2.9L302.8,137z"/>
	</g>
</g>
<g>
	<rect x="356" y="119.8" class="st0" width="21.4" height="22.1"/>
	<g class="st3">
		<path d="M396.6,136.6l2.3,1.8c-2.2,1.2-5.4,2.6-8,3.3c-0.4-0.6-1.2-1.6-1.8-2.1c2.5-0.7,5.6-2,7.3-3h-7V134h4.1v-9.6h-3.3v-2.6
			h3.3v-2.3h2.8v2.3h7.6v-2.3h2.9v2.3h3.5v2.6h-3.5v9.6h4.1v2.6H396.6z M396.2,124.4v1.5h7.6v-1.5H396.2z M396.2,129.9h7.6v-1.6
			h-7.6V129.9z M396.2,134h7.6v-1.8h-7.6V134z M403.3,136.8c2.7,0.9,5.8,2.2,7.6,3.1l-2.7,1.8c-1.5-0.9-4.3-2.2-6.9-3.2L403.3,136.8
			z"/>
		<path d="M420.6,120.3c-0.6,1.7-1.5,3.4-2.4,5.1v16.3h-2.7v-12.1c-0.5,0.6-1,1.2-1.5,1.8c-0.3-0.7-1.1-2.3-1.6-3
			c2.2-2.2,4.3-5.5,5.5-9L420.6,120.3z M431,139c1.4,0,1.7-0.6,1.8-3.3c0.6,0.4,1.8,0.9,2.5,1.1c-0.4,3.6-1.2,4.8-4.2,4.8h-5.4
			c-3.3,0-4.3-0.9-4.3-4.2v-6.7l-1.8,0.7l-1.1-2.5l2.9-1.1V122h2.7v4.6l2.4-0.9v-6.2h2.6v5.2l3.2-1.2l0.2-0.2l2.1,0.6l-0.1,0.5
			c-0.1,3.4-0.4,7.9-1,10.9l-2.4-0.7c0.3-2,0.4-5.2,0.5-8.1l-2.7,1.1v8.5h-2.6v-7.5l-2.4,1v7.8c0,1.4,0.2,1.7,1.8,1.7h5.3V139z"/>
		<path d="M450.2,120.4c-0.2,0.2-0.3,0.5-0.5,0.7c3.1,3.3,6.5,4.9,9.9,6.1c-0.7,0.6-1.5,1.6-1.8,2.5c-3.3-1.4-6.5-3.2-9.7-6.7
			c-2.7,2.8-6.1,5.1-9.6,6.7c-0.4-0.7-1.2-1.8-1.9-2.4c4.3-1.7,8.7-4.5,11.1-8.1L450.2,120.4z M449.7,138.6h8.6v2.6h-20.4v-2.6h2.6
			v-8.4h2.8v8.4h3.4v-12.3h3v4.9h6.4v2.6h-6.4V138.6z"/>
		<path d="M470.1,138c-1.6,1.4-4.5,2.6-7,3.2c-0.4-0.6-1.1-1.5-1.7-2.1c2.4-0.3,5.2-1.2,6.6-2L470.1,138z M482.8,134v2.4h-9.3v5.5
			h-2.8v-5.5h-9.1V134h9.1v-1.1h-6.9v-2.1h6.9v-1.1h-8.1v-2.2h4.4c-0.2-0.6-0.6-1.2-0.9-1.8l1.6-0.4h-6.1v-2.2h3.3
			c-0.4-0.9-1-2.1-1.5-3l2.4-0.8c0.7,1,1.5,2.4,1.8,3.4l-1.2,0.4h2.2v-3.9h2.6v3.9h1.8v-3.9h2.7v3.9h2.1L477,123
			c0.6-1,1.2-2.4,1.5-3.5l3,0.7c-0.7,1.1-1.3,2.2-1.9,3h3.1v2.2h-6.3l2.3,0.6c-0.5,0.6-1,1.1-1.5,1.5h4.6v2.2h-8.3v1.1h7.2v2.1h-7.2
			v1.1L482.8,134L482.8,134z M468.9,125.5c0.4,0.6,0.8,1.3,1,1.8l-1.3,0.3h6.6l-0.9-0.3c0.4-0.6,0.9-1.3,1.2-1.8H468.9z M476.4,137
			c1.9,0.7,4.8,1.9,6.3,2.7l-2,1.6c-1.4-0.8-4.2-2.1-6.2-2.9L476.4,137z"/>
	</g>
</g>
<g class="st3">
	<path d="M701.2,513.5c4.8-4.3,7.7-7.7,7.7-10.4c0-1.8-1-2.9-2.7-2.9c-1.3,0-2.4,0.8-3.3,1.8l-1.9-1.9c1.6-1.7,3.2-2.7,5.6-2.7
		c3.4,0,5.6,2.2,5.6,5.5c0,3.2-2.7,6.7-5.9,9.8c0.9-0.1,2.1-0.2,2.9-0.2h3.9v3h-11.9L701.2,513.5L701.2,513.5z"/>
	<path d="M715.4,506.6c0-6.1,2.4-9.1,6-9.1s6,3,6,9.1s-2.4,9.3-6,9.3C717.8,515.9,715.4,512.7,715.4,506.6z M724.1,506.6
		c0-5-1.2-6.4-2.7-6.4s-2.7,1.4-2.7,6.4s1.2,6.5,2.7,6.5C722.9,513.2,724.1,511.6,724.1,506.6z"/>
	<path d="M729.5,513.5c4.8-4.3,7.7-7.7,7.7-10.4c0-1.8-1-2.9-2.7-2.9c-1.3,0-2.4,0.8-3.3,1.8l-1.9-1.9c1.6-1.7,3.2-2.7,5.6-2.7
		c3.4,0,5.6,2.2,5.6,5.5c0,3.2-2.7,6.7-5.9,9.8c0.9-0.1,2.1-0.2,2.9-0.2h3.9v3h-11.9L729.5,513.5L729.5,513.5z"/>
	<path d="M743.6,513.5c4.8-4.3,7.7-7.7,7.7-10.4c0-1.8-1-2.9-2.7-2.9c-1.3,0-2.4,0.8-3.3,1.8l-1.9-1.9c1.6-1.7,3.2-2.7,5.6-2.7
		c3.4,0,5.6,2.2,5.6,5.5c0,3.2-2.7,6.7-5.9,9.8c0.9-0.1,2.1-0.2,2.9-0.2h3.9v3h-11.9L743.6,513.5L743.6,513.5z"/>
</g>
<g class="st3">
	<path d="M943.3,513.5c4.8-4.3,7.7-7.7,7.7-10.4c0-1.8-1-2.9-2.7-2.9c-1.3,0-2.4,0.8-3.3,1.8l-1.9-1.9c1.6-1.7,3.2-2.7,5.6-2.7
		c3.4,0,5.6,2.2,5.6,5.5c0,3.2-2.7,6.7-5.9,9.8c0.9-0.1,2.1-0.2,2.9-0.2h3.9v3h-11.9L943.3,513.5L943.3,513.5z"/>
	<path d="M957.5,506.6c0-6.1,2.4-9.1,6-9.1s6,3,6,9.1s-2.4,9.3-6,9.3S957.5,512.7,957.5,506.6z M966.2,506.6c0-5-1.2-6.4-2.7-6.4
		s-2.7,1.4-2.7,6.4s1.2,6.5,2.7,6.5C965,513.2,966.2,511.6,966.2,506.6z"/>
	<path d="M971.6,513.5c4.8-4.3,7.7-7.7,7.7-10.4c0-1.8-1-2.9-2.7-2.9c-1.3,0-2.4,0.8-3.3,1.8l-1.9-1.9c1.6-1.7,3.2-2.7,5.6-2.7
		c3.4,0,5.6,2.2,5.6,5.5c0,3.2-2.7,6.7-5.9,9.8c0.9-0.1,2.1-0.2,2.9-0.2h3.9v3h-11.9L971.6,513.5L971.6,513.5z"/>
	<path d="M985.3,513.4l1.7-2.2c1.1,1,2.4,1.8,4,1.8c1.8,0,3-0.9,3-2.5c0-1.8-1-2.8-4.9-2.8v-2.5c3.3,0,4.3-1.1,4.3-2.7
		c0-1.4-0.9-2.2-2.4-2.2c-1.3,0-2.3,0.6-3.4,1.6l-1.8-2.2c1.5-1.3,3.2-2.2,5.3-2.2c3.4,0,5.8,1.7,5.8,4.7c0,1.9-1.1,3.3-3,4.1v0.1
		c2,0.6,3.6,2,3.6,4.4c0,3.3-2.9,5.2-6.2,5.2C988.5,515.9,986.6,514.9,985.3,513.4z"/>
</g>
</svg>
