<?xml version="1.0" encoding="utf-8"?>
<!-- Generator: Adobe Illustrator 24.0.2, SVG Export Plug-In . SVG Version: 6.00 Build 0)  -->
<svg version="1.1" id="圖層_1" xmlns="http://www.w3.org/2000/svg" xmlns:xlink="http://www.w3.org/1999/xlink" x="0px" y="0px"
	 viewBox="0 0 600 600" style="enable-background:new 0 0 600 600;" xml:space="preserve">
<style type="text/css">
	.st0{fill:#215987;}
	.st1{clip-path:url(#SVGID_1_);}
	.st2{fill:#FF2E2E;}
	.st3{fill:#FFFFFF;}
	.st4{opacity:7.000000e-02;fill:url(#SVGID_2_);}
	.st5{opacity:7.000000e-02;fill:url(#SVGID_3_);}
	.st6{opacity:7.000000e-02;fill:url(#SVGID_4_);}
	.st7{opacity:7.000000e-02;fill:url(#SVGID_5_);}
	.st8{opacity:7.000000e-02;fill:url(#SVGID_6_);}
	.st9{opacity:7.000000e-02;fill:url(#SVGID_7_);}
	.st10{opacity:7.000000e-02;fill:url(#SVGID_8_);}
	.st11{opacity:7.000000e-02;fill:url(#SVGID_9_);}
	.st12{opacity:7.000000e-02;fill:url(#SVGID_10_);}
	.st13{opacity:7.000000e-02;fill:url(#SVGID_11_);}
	.st14{opacity:7.000000e-02;fill:url(#SVGID_12_);}
	.st15{opacity:7.000000e-02;fill:url(#SVGID_13_);}
	.st16{opacity:7.000000e-02;fill:url(#SVGID_14_);}
	.st17{opacity:7.000000e-02;fill:url(#SVGID_15_);}
	.st18{opacity:7.000000e-02;fill:url(#SVGID_16_);}
	.st19{opacity:7.000000e-02;fill:url(#SVGID_17_);}
	.st20{opacity:7.000000e-02;fill:url(#SVGID_18_);}
	.st21{opacity:7.000000e-02;fill:url(#SVGID_19_);}
	.st22{opacity:7.000000e-02;fill:url(#SVGID_20_);}
	.st23{opacity:7.000000e-02;fill:url(#SVGID_21_);}
	.st24{opacity:7.000000e-02;fill:url(#SVGID_22_);}
	.st25{opacity:7.000000e-02;fill:url(#SVGID_23_);}
	.st26{opacity:7.000000e-02;fill:url(#SVGID_24_);}
	.st27{opacity:7.000000e-02;fill:url(#SVGID_25_);}
	.st28{opacity:7.000000e-02;fill:url(#SVGID_26_);}
	.st29{opacity:7.000000e-02;fill:url(#SVGID_27_);}
	.st30{opacity:7.000000e-02;fill:url(#SVGID_28_);}
	.st31{opacity:7.000000e-02;fill:url(#SVGID_29_);}
	.st32{opacity:7.000000e-02;fill:url(#SVGID_30_);}
	.st33{opacity:7.000000e-02;fill:url(#SVGID_31_);}
	.st34{opacity:7.000000e-02;fill:url(#SVGID_32_);}
	.st35{opacity:7.000000e-02;fill:url(#SVGID_33_);}
	.st36{opacity:7.000000e-02;fill:url(#SVGID_34_);}
	.st37{opacity:7.000000e-02;fill:url(#SVGID_35_);}
	.st38{opacity:7.000000e-02;fill:url(#SVGID_36_);}
	.st39{opacity:7.000000e-02;fill:url(#SVGID_37_);}
	.st40{opacity:7.000000e-02;fill:url(#SVGID_38_);}
	.st41{opacity:7.000000e-02;fill:url(#SVGID_39_);}
	.st42{opacity:7.000000e-02;fill:url(#SVGID_40_);}
	.st43{opacity:7.000000e-02;fill:url(#SVGID_41_);}
	.st44{opacity:7.000000e-02;fill:url(#SVGID_42_);}
	.st45{opacity:7.000000e-02;fill:url(#SVGID_43_);}
	.st46{opacity:7.000000e-02;fill:url(#SVGID_44_);}
	.st47{opacity:7.000000e-02;fill:url(#SVGID_45_);}
	.st48{opacity:7.000000e-02;fill:url(#SVGID_46_);}
	.st49{opacity:7.000000e-02;fill:url(#SVGID_47_);}
	.st50{opacity:7.000000e-02;fill:url(#SVGID_48_);}
	.st51{opacity:7.000000e-02;fill:url(#SVGID_49_);}
	.st52{opacity:7.000000e-02;fill:url(#SVGID_50_);}
	.st53{opacity:7.000000e-02;fill:url(#SVGID_51_);}
	.st54{opacity:7.000000e-02;fill:url(#SVGID_52_);}
	.st55{opacity:7.000000e-02;fill:url(#SVGID_53_);}
	.st56{opacity:7.000000e-02;fill:url(#SVGID_54_);}
	.st57{opacity:7.000000e-02;fill:url(#SVGID_55_);}
	.st58{opacity:7.000000e-02;fill:url(#SVGID_56_);}
	.st59{opacity:7.000000e-02;fill:url(#SVGID_57_);}
	.st60{opacity:7.000000e-02;fill:url(#SVGID_58_);}
	.st61{opacity:7.000000e-02;fill:url(#SVGID_59_);}
	.st62{opacity:7.000000e-02;fill:url(#SVGID_60_);}
	.st63{opacity:7.000000e-02;fill:url(#SVGID_61_);}
	.st64{opacity:7.000000e-02;fill:url(#SVGID_62_);}
	.st65{opacity:7.000000e-02;fill:url(#SVGID_63_);}
	.st66{opacity:0.2;fill:url(#SVGID_64_);}
	.st67{clip-path:url(#SVGID_65_);}
	.st68{opacity:7.000000e-02;fill:url(#SVGID_66_);}
	.st69{opacity:7.000000e-02;fill:url(#SVGID_67_);}
	.st70{opacity:7.000000e-02;fill:url(#SVGID_68_);}
	.st71{opacity:7.000000e-02;fill:url(#SVGID_69_);}
	.st72{opacity:7.000000e-02;fill:url(#SVGID_70_);}
	.st73{opacity:7.000000e-02;fill:url(#SVGID_71_);}
	.st74{opacity:7.000000e-02;fill:url(#SVGID_72_);}
	.st75{opacity:7.000000e-02;fill:url(#SVGID_73_);}
	.st76{opacity:7.000000e-02;fill:url(#SVGID_74_);}
	.st77{opacity:7.000000e-02;fill:url(#SVGID_75_);}
	.st78{opacity:7.000000e-02;fill:url(#SVGID_76_);}
	.st79{opacity:7.000000e-02;fill:url(#SVGID_77_);}
	.st80{opacity:7.000000e-02;fill:url(#SVGID_78_);}
	.st81{opacity:7.000000e-02;fill:url(#SVGID_79_);}
	.st82{opacity:7.000000e-02;fill:url(#SVGID_80_);}
	.st83{opacity:7.000000e-02;fill:url(#SVGID_81_);}
	.st84{opacity:7.000000e-02;fill:url(#SVGID_82_);}
	.st85{opacity:7.000000e-02;fill:url(#SVGID_83_);}
	.st86{opacity:7.000000e-02;fill:url(#SVGID_84_);}
	.st87{opacity:7.000000e-02;fill:url(#SVGID_85_);}
	.st88{opacity:7.000000e-02;fill:url(#SVGID_86_);}
	.st89{opacity:7.000000e-02;fill:url(#SVGID_87_);}
	.st90{opacity:7.000000e-02;fill:url(#SVGID_88_);}
	.st91{opacity:7.000000e-02;fill:url(#SVGID_89_);}
	.st92{opacity:7.000000e-02;fill:url(#SVGID_90_);}
	.st93{opacity:7.000000e-02;fill:url(#SVGID_91_);}
	.st94{opacity:7.000000e-02;fill:url(#SVGID_92_);}
	.st95{opacity:7.000000e-02;fill:url(#SVGID_93_);}
	.st96{opacity:7.000000e-02;fill:url(#SVGID_94_);}
	.st97{opacity:7.000000e-02;fill:url(#SVGID_95_);}
	.st98{opacity:7.000000e-02;fill:url(#SVGID_96_);}
	.st99{opacity:7.000000e-02;fill:url(#SVGID_97_);}
	.st100{opacity:7.000000e-02;fill:url(#SVGID_98_);}
	.st101{opacity:7.000000e-02;fill:url(#SVGID_99_);}
	.st102{opacity:7.000000e-02;fill:url(#SVGID_100_);}
	.st103{opacity:7.000000e-02;fill:url(#SVGID_101_);}
	.st104{opacity:7.000000e-02;fill:url(#SVGID_102_);}
	.st105{opacity:7.000000e-02;fill:url(#SVGID_103_);}
	.st106{opacity:7.000000e-02;fill:url(#SVGID_104_);}
	.st107{opacity:7.000000e-02;fill:url(#SVGID_105_);}
	.st108{opacity:7.000000e-02;fill:url(#SVGID_106_);}
	.st109{opacity:7.000000e-02;fill:url(#SVGID_107_);}
	.st110{opacity:7.000000e-02;fill:url(#SVGID_108_);}
	.st111{opacity:7.000000e-02;fill:url(#SVGID_109_);}
	.st112{opacity:7.000000e-02;fill:url(#SVGID_110_);}
	.st113{opacity:7.000000e-02;fill:url(#SVGID_111_);}
	.st114{opacity:7.000000e-02;fill:url(#SVGID_112_);}
	.st115{opacity:7.000000e-02;fill:url(#SVGID_113_);}
	.st116{opacity:7.000000e-02;fill:url(#SVGID_114_);}
	.st117{opacity:7.000000e-02;fill:url(#SVGID_115_);}
	.st118{opacity:7.000000e-02;fill:url(#SVGID_116_);}
	.st119{opacity:7.000000e-02;fill:url(#SVGID_117_);}
	.st120{opacity:7.000000e-02;fill:url(#SVGID_118_);}
	.st121{opacity:7.000000e-02;fill:url(#SVGID_119_);}
	.st122{opacity:7.000000e-02;fill:url(#SVGID_120_);}
	.st123{opacity:7.000000e-02;fill:url(#SVGID_121_);}
	.st124{opacity:7.000000e-02;fill:url(#SVGID_122_);}
	.st125{opacity:7.000000e-02;fill:url(#SVGID_123_);}
	.st126{opacity:7.000000e-02;fill:url(#SVGID_124_);}
	.st127{opacity:7.000000e-02;fill:url(#SVGID_125_);}
	.st128{opacity:7.000000e-02;fill:url(#SVGID_126_);}
	.st129{opacity:7.000000e-02;fill:url(#SVGID_127_);}
	.st130{opacity:0.2;fill:url(#SVGID_128_);}
	.st131{fill:url(#SVGID_129_);}
	.st132{fill:url(#SVGID_130_);}
	.st133{fill:url(#SVGID_131_);}
	.st134{fill:url(#SVGID_132_);}
	.st135{fill:#EDCA1B;}
	.st136{fill:url(#SVGID_133_);}
	.st137{fill:url(#SVGID_134_);}
	.st138{fill:url(#SVGID_135_);}
	.st139{fill:url(#SVGID_136_);}
	.st140{fill:url(#SVGID_137_);}
	.st141{fill:url(#SVGID_138_);}
</style>
<circle class="st0" cx="300" cy="299.6" r="218.6"/>
<g>
	<g>
		<g>
			<defs>
				<polygon id="SVGID_155_" points="332.9,287.9 394.6,405.2 386.1,405.4 386,405.4 379.9,405.6 379.8,405.6 348.7,406.5 
					331,431.2 327.5,436.2 322.7,443 261,325.7 				"/>
			</defs>
			<clipPath id="SVGID_1_">
				<use xlink:href="#SVGID_155_"  style="overflow:visible;"/>
			</clipPath>
			<g class="st1">
				<polygon class="st2" points="333.7,289.5 395.4,406.8 386.9,407 386.8,407 380.7,407.2 380.7,407.2 349.5,408.1 331.9,432.8 
					328.4,437.9 323.6,444.6 261.9,327.3 				"/>
				<polygon class="st3" points="274.3,323.6 331.8,432.9 328.2,437.9 269.5,326.1 				"/>
				<polygon class="st3" points="328.2,295.3 386.9,407 386.9,407 380.9,407.1 323.3,297.8 				"/>
			</g>
			<g class="st1">
				
					<linearGradient id="SVGID_2_" gradientUnits="userSpaceOnUse" x1="307.3759" y1="435.3155" x2="307.3759" y2="437.4234" gradientTransform="matrix(0.885 -0.4656 0.4656 0.885 -116.0428 181.9607)">
					<stop  offset="0" style="stop-color:#000000"/>
					<stop  offset="1" style="stop-color:#FFFFFF"/>
				</linearGradient>
				<polygon class="st4" points="405.1,402.1 314.2,449.9 313.3,448 404.1,400.2 				"/>
				
					<linearGradient id="SVGID_3_" gradientUnits="userSpaceOnUse" x1="307.3759" y1="433.2138" x2="307.3759" y2="435.3217" gradientTransform="matrix(0.885 -0.4656 0.4656 0.885 -116.0428 181.9607)">
					<stop  offset="0" style="stop-color:#000000"/>
					<stop  offset="1" style="stop-color:#FFFFFF"/>
				</linearGradient>
				<polygon class="st5" points="404.1,400.2 313.3,448 312.3,446.1 403.1,398.3 				"/>
				
					<linearGradient id="SVGID_4_" gradientUnits="userSpaceOnUse" x1="307.3759" y1="431.1124" x2="307.3759" y2="433.2203" gradientTransform="matrix(0.885 -0.4656 0.4656 0.885 -116.0428 181.9607)">
					<stop  offset="0" style="stop-color:#000000"/>
					<stop  offset="1" style="stop-color:#FFFFFF"/>
				</linearGradient>
				<polygon class="st6" points="403.1,398.4 312.3,446.1 311.3,444.3 402.1,396.5 				"/>
				
					<linearGradient id="SVGID_5_" gradientUnits="userSpaceOnUse" x1="307.3758" y1="429.0107" x2="307.3758" y2="431.1186" gradientTransform="matrix(0.885 -0.4656 0.4656 0.885 -116.0428 181.9607)">
					<stop  offset="0" style="stop-color:#000000"/>
					<stop  offset="1" style="stop-color:#FFFFFF"/>
				</linearGradient>
				<polygon class="st7" points="402.1,396.5 311.3,444.3 310.3,442.4 401.1,394.6 				"/>
				
					<linearGradient id="SVGID_6_" gradientUnits="userSpaceOnUse" x1="307.3759" y1="426.9093" x2="307.3759" y2="429.0172" gradientTransform="matrix(0.885 -0.4656 0.4656 0.885 -116.0428 181.9607)">
					<stop  offset="0" style="stop-color:#000000"/>
					<stop  offset="1" style="stop-color:#FFFFFF"/>
				</linearGradient>
				<polygon class="st8" points="401.1,394.6 310.3,442.4 309.3,440.6 400.2,392.8 				"/>
				
					<linearGradient id="SVGID_7_" gradientUnits="userSpaceOnUse" x1="307.3758" y1="424.8076" x2="307.3758" y2="426.9155" gradientTransform="matrix(0.885 -0.4656 0.4656 0.885 -116.0428 181.9607)">
					<stop  offset="0" style="stop-color:#000000"/>
					<stop  offset="1" style="stop-color:#FFFFFF"/>
				</linearGradient>
				<polygon class="st9" points="400.2,392.8 309.3,440.6 308.4,438.7 399.2,390.9 				"/>
				
					<linearGradient id="SVGID_8_" gradientUnits="userSpaceOnUse" x1="307.3759" y1="422.706" x2="307.3759" y2="424.8141" gradientTransform="matrix(0.885 -0.4656 0.4656 0.885 -116.0428 181.9607)">
					<stop  offset="0" style="stop-color:#000000"/>
					<stop  offset="1" style="stop-color:#FFFFFF"/>
				</linearGradient>
				<polygon class="st10" points="399.2,390.9 308.4,438.7 307.4,436.8 398.2,389 				"/>
				
					<linearGradient id="SVGID_9_" gradientUnits="userSpaceOnUse" x1="307.3758" y1="420.6045" x2="307.3758" y2="422.7124" gradientTransform="matrix(0.885 -0.4656 0.4656 0.885 -116.0428 181.9607)">
					<stop  offset="0" style="stop-color:#000000"/>
					<stop  offset="1" style="stop-color:#FFFFFF"/>
				</linearGradient>
				<polygon class="st11" points="398.2,389.1 307.4,436.8 306.4,435 397.2,387.2 				"/>
				
					<linearGradient id="SVGID_10_" gradientUnits="userSpaceOnUse" x1="307.3758" y1="418.5029" x2="307.3758" y2="420.611" gradientTransform="matrix(0.885 -0.4656 0.4656 0.885 -116.0428 181.9607)">
					<stop  offset="0" style="stop-color:#000000"/>
					<stop  offset="1" style="stop-color:#FFFFFF"/>
				</linearGradient>
				<polygon class="st12" points="397.2,387.2 306.4,435 305.4,433.1 396.3,385.3 				"/>
				
					<linearGradient id="SVGID_11_" gradientUnits="userSpaceOnUse" x1="307.3757" y1="416.4014" x2="307.3757" y2="418.5092" gradientTransform="matrix(0.885 -0.4656 0.4656 0.885 -116.0428 181.9607)">
					<stop  offset="0" style="stop-color:#000000"/>
					<stop  offset="1" style="stop-color:#FFFFFF"/>
				</linearGradient>
				<polygon class="st13" points="396.3,385.3 305.4,433.1 304.4,431.3 395.3,383.5 				"/>
				
					<linearGradient id="SVGID_12_" gradientUnits="userSpaceOnUse" x1="307.3757" y1="414.2998" x2="307.3757" y2="416.4077" gradientTransform="matrix(0.885 -0.4656 0.4656 0.885 -116.0428 181.9607)">
					<stop  offset="0" style="stop-color:#000000"/>
					<stop  offset="1" style="stop-color:#FFFFFF"/>
				</linearGradient>
				<polygon class="st14" points="395.3,383.5 304.5,431.3 303.5,429.4 394.3,381.6 				"/>
				
					<linearGradient id="SVGID_13_" gradientUnits="userSpaceOnUse" x1="307.3758" y1="412.1983" x2="307.3758" y2="414.3062" gradientTransform="matrix(0.885 -0.4656 0.4656 0.885 -116.0428 181.9607)">
					<stop  offset="0" style="stop-color:#000000"/>
					<stop  offset="1" style="stop-color:#FFFFFF"/>
				</linearGradient>
				<polygon class="st15" points="394.3,381.6 303.5,429.4 302.5,427.5 393.3,379.8 				"/>
				
					<linearGradient id="SVGID_14_" gradientUnits="userSpaceOnUse" x1="307.3758" y1="410.0967" x2="307.3758" y2="412.2046" gradientTransform="matrix(0.885 -0.4656 0.4656 0.885 -116.0428 181.9607)">
					<stop  offset="0" style="stop-color:#000000"/>
					<stop  offset="1" style="stop-color:#FFFFFF"/>
				</linearGradient>
				<polygon class="st16" points="393.3,379.8 302.5,427.5 301.5,425.7 392.3,377.9 				"/>
				
					<linearGradient id="SVGID_15_" gradientUnits="userSpaceOnUse" x1="307.3756" y1="407.9951" x2="307.3756" y2="410.103" gradientTransform="matrix(0.885 -0.4656 0.4656 0.885 -116.0428 181.9607)">
					<stop  offset="0" style="stop-color:#000000"/>
					<stop  offset="1" style="stop-color:#FFFFFF"/>
				</linearGradient>
				<polygon class="st17" points="392.3,377.9 301.5,425.7 300.5,423.8 391.4,376 				"/>
				
					<linearGradient id="SVGID_16_" gradientUnits="userSpaceOnUse" x1="307.3757" y1="405.8936" x2="307.3757" y2="408.0014" gradientTransform="matrix(0.885 -0.4656 0.4656 0.885 -116.0428 181.9607)">
					<stop  offset="0" style="stop-color:#000000"/>
					<stop  offset="1" style="stop-color:#FFFFFF"/>
				</linearGradient>
				<polygon class="st18" points="391.4,376 300.5,423.8 299.6,422 390.4,374.2 				"/>
				
					<linearGradient id="SVGID_17_" gradientUnits="userSpaceOnUse" x1="307.3756" y1="403.7921" x2="307.3756" y2="405.8999" gradientTransform="matrix(0.885 -0.4656 0.4656 0.885 -116.0428 181.9607)">
					<stop  offset="0" style="stop-color:#000000"/>
					<stop  offset="1" style="stop-color:#FFFFFF"/>
				</linearGradient>
				<polygon class="st19" points="390.4,374.2 299.6,422 298.6,420.1 389.4,372.3 				"/>
				
					<linearGradient id="SVGID_18_" gradientUnits="userSpaceOnUse" x1="307.3756" y1="401.6905" x2="307.3756" y2="403.7983" gradientTransform="matrix(0.885 -0.4656 0.4656 0.885 -116.0428 181.9607)">
					<stop  offset="0" style="stop-color:#000000"/>
					<stop  offset="1" style="stop-color:#FFFFFF"/>
				</linearGradient>
				<polygon class="st20" points="389.4,372.3 298.6,420.1 297.6,418.2 388.4,370.5 				"/>
				
					<linearGradient id="SVGID_19_" gradientUnits="userSpaceOnUse" x1="307.3757" y1="399.5889" x2="307.3757" y2="401.6968" gradientTransform="matrix(0.885 -0.4656 0.4656 0.885 -116.0428 181.9607)">
					<stop  offset="0" style="stop-color:#000000"/>
					<stop  offset="1" style="stop-color:#FFFFFF"/>
				</linearGradient>
				<polygon class="st21" points="388.4,370.5 297.6,418.2 296.6,416.4 387.4,368.6 				"/>
				
					<linearGradient id="SVGID_20_" gradientUnits="userSpaceOnUse" x1="307.3757" y1="397.4873" x2="307.3757" y2="399.5952" gradientTransform="matrix(0.885 -0.4656 0.4656 0.885 -116.0428 181.9607)">
					<stop  offset="0" style="stop-color:#000000"/>
					<stop  offset="1" style="stop-color:#FFFFFF"/>
				</linearGradient>
				<polygon class="st22" points="387.4,368.6 296.6,416.4 295.6,414.5 386.5,366.7 				"/>
				
					<linearGradient id="SVGID_21_" gradientUnits="userSpaceOnUse" x1="307.3756" y1="395.3857" x2="307.3756" y2="397.4937" gradientTransform="matrix(0.885 -0.4656 0.4656 0.885 -116.0428 181.9607)">
					<stop  offset="0" style="stop-color:#000000"/>
					<stop  offset="1" style="stop-color:#FFFFFF"/>
				</linearGradient>
				<polygon class="st23" points="386.5,366.7 295.6,414.5 294.7,412.7 385.5,364.9 				"/>
				
					<linearGradient id="SVGID_22_" gradientUnits="userSpaceOnUse" x1="307.3756" y1="393.2842" x2="307.3756" y2="395.3921" gradientTransform="matrix(0.885 -0.4656 0.4656 0.885 -116.0428 181.9607)">
					<stop  offset="0" style="stop-color:#000000"/>
					<stop  offset="1" style="stop-color:#FFFFFF"/>
				</linearGradient>
				<polygon class="st24" points="385.5,364.9 294.7,412.7 293.7,410.8 384.5,363 				"/>
				
					<linearGradient id="SVGID_23_" gradientUnits="userSpaceOnUse" x1="307.3755" y1="391.1826" x2="307.3755" y2="393.2904" gradientTransform="matrix(0.885 -0.4656 0.4656 0.885 -116.0428 181.9607)">
					<stop  offset="0" style="stop-color:#000000"/>
					<stop  offset="1" style="stop-color:#FFFFFF"/>
				</linearGradient>
				<polygon class="st25" points="384.5,363 293.7,410.8 292.7,408.9 383.5,361.2 				"/>
				
					<linearGradient id="SVGID_24_" gradientUnits="userSpaceOnUse" x1="307.3756" y1="389.0811" x2="307.3756" y2="391.189" gradientTransform="matrix(0.885 -0.4656 0.4656 0.885 -116.0428 181.9607)">
					<stop  offset="0" style="stop-color:#000000"/>
					<stop  offset="1" style="stop-color:#FFFFFF"/>
				</linearGradient>
				<polygon class="st26" points="383.5,361.2 292.7,408.9 291.7,407.1 382.6,359.3 				"/>
				
					<linearGradient id="SVGID_25_" gradientUnits="userSpaceOnUse" x1="307.3756" y1="386.9794" x2="307.3756" y2="389.0873" gradientTransform="matrix(0.885 -0.4656 0.4656 0.885 -116.0428 181.9607)">
					<stop  offset="0" style="stop-color:#000000"/>
					<stop  offset="1" style="stop-color:#FFFFFF"/>
				</linearGradient>
				<polygon class="st27" points="382.6,359.3 291.7,407.1 290.7,405.2 381.6,357.4 				"/>
				
					<linearGradient id="SVGID_26_" gradientUnits="userSpaceOnUse" x1="307.3756" y1="384.878" x2="307.3756" y2="386.9859" gradientTransform="matrix(0.885 -0.4656 0.4656 0.885 -116.0428 181.9607)">
					<stop  offset="0" style="stop-color:#000000"/>
					<stop  offset="1" style="stop-color:#FFFFFF"/>
				</linearGradient>
				<polygon class="st28" points="381.6,357.4 290.8,405.2 289.8,403.4 380.6,355.6 				"/>
				
					<linearGradient id="SVGID_27_" gradientUnits="userSpaceOnUse" x1="307.3755" y1="382.7763" x2="307.3755" y2="384.8843" gradientTransform="matrix(0.885 -0.4656 0.4656 0.885 -116.0428 181.9607)">
					<stop  offset="0" style="stop-color:#000000"/>
					<stop  offset="1" style="stop-color:#FFFFFF"/>
				</linearGradient>
				<polygon class="st29" points="380.6,355.6 289.8,403.4 288.8,401.5 379.6,353.7 				"/>
				
					<linearGradient id="SVGID_28_" gradientUnits="userSpaceOnUse" x1="307.3755" y1="380.6749" x2="307.3755" y2="382.7828" gradientTransform="matrix(0.885 -0.4656 0.4656 0.885 -116.0428 181.9607)">
					<stop  offset="0" style="stop-color:#000000"/>
					<stop  offset="1" style="stop-color:#FFFFFF"/>
				</linearGradient>
				<polygon class="st30" points="379.6,353.7 288.8,401.5 287.8,399.6 378.6,351.9 				"/>
				
					<linearGradient id="SVGID_29_" gradientUnits="userSpaceOnUse" x1="307.3755" y1="378.5732" x2="307.3755" y2="380.6811" gradientTransform="matrix(0.885 -0.4656 0.4656 0.885 -116.0428 181.9607)">
					<stop  offset="0" style="stop-color:#000000"/>
					<stop  offset="1" style="stop-color:#FFFFFF"/>
				</linearGradient>
				<polygon class="st31" points="378.6,351.9 287.8,399.6 286.8,397.8 377.7,350 				"/>
				
					<linearGradient id="SVGID_30_" gradientUnits="userSpaceOnUse" x1="307.3755" y1="376.4718" x2="307.3755" y2="378.5797" gradientTransform="matrix(0.885 -0.4656 0.4656 0.885 -116.0428 181.9607)">
					<stop  offset="0" style="stop-color:#000000"/>
					<stop  offset="1" style="stop-color:#FFFFFF"/>
				</linearGradient>
				<polygon class="st32" points="377.7,350 286.8,397.8 285.9,395.9 376.7,348.1 				"/>
				
					<linearGradient id="SVGID_31_" gradientUnits="userSpaceOnUse" x1="307.3755" y1="374.3701" x2="307.3755" y2="376.478" gradientTransform="matrix(0.885 -0.4656 0.4656 0.885 -116.0428 181.9607)">
					<stop  offset="0" style="stop-color:#000000"/>
					<stop  offset="1" style="stop-color:#FFFFFF"/>
				</linearGradient>
				<polygon class="st33" points="376.7,348.1 285.9,395.9 284.9,394.1 375.7,346.3 				"/>
				
					<linearGradient id="SVGID_32_" gradientUnits="userSpaceOnUse" x1="307.3755" y1="372.2687" x2="307.3755" y2="374.3766" gradientTransform="matrix(0.885 -0.4656 0.4656 0.885 -116.0428 181.9607)">
					<stop  offset="0" style="stop-color:#000000"/>
					<stop  offset="1" style="stop-color:#FFFFFF"/>
				</linearGradient>
				<polygon class="st34" points="375.7,346.3 284.9,394.1 283.9,392.2 374.7,344.4 				"/>
				
					<linearGradient id="SVGID_33_" gradientUnits="userSpaceOnUse" x1="307.3755" y1="370.1671" x2="307.3755" y2="372.2749" gradientTransform="matrix(0.885 -0.4656 0.4656 0.885 -116.0428 181.9607)">
					<stop  offset="0" style="stop-color:#000000"/>
					<stop  offset="1" style="stop-color:#FFFFFF"/>
				</linearGradient>
				<polygon class="st35" points="374.7,344.4 283.9,392.2 282.9,390.3 373.7,342.6 				"/>
				
					<linearGradient id="SVGID_34_" gradientUnits="userSpaceOnUse" x1="307.3755" y1="368.0654" x2="307.3755" y2="370.1734" gradientTransform="matrix(0.885 -0.4656 0.4656 0.885 -116.0428 181.9607)">
					<stop  offset="0" style="stop-color:#000000"/>
					<stop  offset="1" style="stop-color:#FFFFFF"/>
				</linearGradient>
				<polygon class="st36" points="373.7,342.6 282.9,390.3 281.9,388.5 372.8,340.7 				"/>
				
					<linearGradient id="SVGID_35_" gradientUnits="userSpaceOnUse" x1="307.3754" y1="365.9639" x2="307.3754" y2="368.0718" gradientTransform="matrix(0.885 -0.4656 0.4656 0.885 -116.0428 181.9607)">
					<stop  offset="0" style="stop-color:#000000"/>
					<stop  offset="1" style="stop-color:#FFFFFF"/>
				</linearGradient>
				<polygon class="st37" points="372.8,340.7 281.9,388.5 281,386.6 371.8,338.8 				"/>
				
					<linearGradient id="SVGID_36_" gradientUnits="userSpaceOnUse" x1="307.3754" y1="363.8623" x2="307.3754" y2="365.9702" gradientTransform="matrix(0.885 -0.4656 0.4656 0.885 -116.0428 181.9607)">
					<stop  offset="0" style="stop-color:#000000"/>
					<stop  offset="1" style="stop-color:#FFFFFF"/>
				</linearGradient>
				<polygon class="st38" points="371.8,338.8 281,386.6 280,384.8 370.8,337 				"/>
				
					<linearGradient id="SVGID_37_" gradientUnits="userSpaceOnUse" x1="307.3754" y1="361.7608" x2="307.3754" y2="363.8686" gradientTransform="matrix(0.885 -0.4656 0.4656 0.885 -116.0428 181.9607)">
					<stop  offset="0" style="stop-color:#000000"/>
					<stop  offset="1" style="stop-color:#FFFFFF"/>
				</linearGradient>
				<polygon class="st39" points="370.8,337 280,384.8 279,382.9 369.8,335.1 				"/>
				
					<linearGradient id="SVGID_38_" gradientUnits="userSpaceOnUse" x1="307.3754" y1="359.6592" x2="307.3754" y2="361.7671" gradientTransform="matrix(0.885 -0.4656 0.4656 0.885 -116.0428 181.9607)">
					<stop  offset="0" style="stop-color:#000000"/>
					<stop  offset="1" style="stop-color:#FFFFFF"/>
				</linearGradient>
				<polygon class="st40" points="369.8,335.1 279,382.9 278,381 368.9,333.3 				"/>
				
					<linearGradient id="SVGID_39_" gradientUnits="userSpaceOnUse" x1="307.3754" y1="357.5577" x2="307.3754" y2="359.6656" gradientTransform="matrix(0.885 -0.4656 0.4656 0.885 -116.0428 181.9607)">
					<stop  offset="0" style="stop-color:#000000"/>
					<stop  offset="1" style="stop-color:#FFFFFF"/>
				</linearGradient>
				<polygon class="st41" points="368.9,333.3 278,381 277.1,379.2 367.9,331.4 				"/>
				
					<linearGradient id="SVGID_40_" gradientUnits="userSpaceOnUse" x1="307.3753" y1="355.4561" x2="307.3753" y2="357.5639" gradientTransform="matrix(0.885 -0.4656 0.4656 0.885 -116.0428 181.9607)">
					<stop  offset="0" style="stop-color:#000000"/>
					<stop  offset="1" style="stop-color:#FFFFFF"/>
				</linearGradient>
				<polygon class="st42" points="367.9,331.4 277.1,379.2 276.1,377.3 366.9,329.5 				"/>
				
					<linearGradient id="SVGID_41_" gradientUnits="userSpaceOnUse" x1="307.3753" y1="353.3546" x2="307.3753" y2="355.4625" gradientTransform="matrix(0.885 -0.4656 0.4656 0.885 -116.0428 181.9607)">
					<stop  offset="0" style="stop-color:#000000"/>
					<stop  offset="1" style="stop-color:#FFFFFF"/>
				</linearGradient>
				<polygon class="st43" points="366.9,329.5 276.1,377.3 275.1,375.5 365.9,327.7 				"/>
				
					<linearGradient id="SVGID_42_" gradientUnits="userSpaceOnUse" x1="307.3753" y1="351.253" x2="307.3753" y2="353.3608" gradientTransform="matrix(0.885 -0.4656 0.4656 0.885 -116.0428 181.9607)">
					<stop  offset="0" style="stop-color:#000000"/>
					<stop  offset="1" style="stop-color:#FFFFFF"/>
				</linearGradient>
				<polygon class="st44" points="365.9,327.7 275.1,375.5 274.1,373.6 364.9,325.8 				"/>
				
					<linearGradient id="SVGID_43_" gradientUnits="userSpaceOnUse" x1="307.3753" y1="349.1514" x2="307.3753" y2="351.2594" gradientTransform="matrix(0.885 -0.4656 0.4656 0.885 -116.0428 181.9607)">
					<stop  offset="0" style="stop-color:#000000"/>
					<stop  offset="1" style="stop-color:#FFFFFF"/>
				</linearGradient>
				<polygon class="st45" points="364.9,325.8 274.1,373.6 273.1,371.7 364,324 				"/>
				
					<linearGradient id="SVGID_44_" gradientUnits="userSpaceOnUse" x1="307.3753" y1="347.0498" x2="307.3753" y2="349.1577" gradientTransform="matrix(0.885 -0.4656 0.4656 0.885 -116.0428 181.9607)">
					<stop  offset="0" style="stop-color:#000000"/>
					<stop  offset="1" style="stop-color:#FFFFFF"/>
				</linearGradient>
				<polygon class="st46" points="364,324 273.1,371.7 272.2,369.9 363,322.1 				"/>
				
					<linearGradient id="SVGID_45_" gradientUnits="userSpaceOnUse" x1="307.3752" y1="344.9484" x2="307.3752" y2="347.0562" gradientTransform="matrix(0.885 -0.4656 0.4656 0.885 -116.0428 181.9607)">
					<stop  offset="0" style="stop-color:#000000"/>
					<stop  offset="1" style="stop-color:#FFFFFF"/>
				</linearGradient>
				<polygon class="st47" points="363,322.1 272.2,369.9 271.2,368 362,320.2 				"/>
				
					<linearGradient id="SVGID_46_" gradientUnits="userSpaceOnUse" x1="307.3752" y1="342.8467" x2="307.3752" y2="344.9546" gradientTransform="matrix(0.885 -0.4656 0.4656 0.885 -116.0428 181.9607)">
					<stop  offset="0" style="stop-color:#000000"/>
					<stop  offset="1" style="stop-color:#FFFFFF"/>
				</linearGradient>
				<polygon class="st48" points="362,320.2 271.2,368 270.2,366.2 361,318.4 				"/>
				
					<linearGradient id="SVGID_47_" gradientUnits="userSpaceOnUse" x1="307.3752" y1="340.7451" x2="307.3752" y2="342.8532" gradientTransform="matrix(0.885 -0.4656 0.4656 0.885 -116.0428 181.9607)">
					<stop  offset="0" style="stop-color:#000000"/>
					<stop  offset="1" style="stop-color:#FFFFFF"/>
				</linearGradient>
				<polygon class="st49" points="361,318.4 270.2,366.2 269.2,364.3 360,316.5 				"/>
				
					<linearGradient id="SVGID_48_" gradientUnits="userSpaceOnUse" x1="307.3752" y1="338.6436" x2="307.3752" y2="340.7515" gradientTransform="matrix(0.885 -0.4656 0.4656 0.885 -116.0428 181.9607)">
					<stop  offset="0" style="stop-color:#000000"/>
					<stop  offset="1" style="stop-color:#FFFFFF"/>
				</linearGradient>
				<polygon class="st50" points="360.1,316.5 269.2,364.3 268.2,362.4 359.1,314.7 				"/>
				
					<linearGradient id="SVGID_49_" gradientUnits="userSpaceOnUse" x1="307.3752" y1="336.542" x2="307.3752" y2="338.6499" gradientTransform="matrix(0.885 -0.4656 0.4656 0.885 -116.0428 181.9607)">
					<stop  offset="0" style="stop-color:#000000"/>
					<stop  offset="1" style="stop-color:#FFFFFF"/>
				</linearGradient>
				<polygon class="st51" points="359.1,314.7 268.2,362.4 267.3,360.6 358.1,312.8 				"/>
				
					<linearGradient id="SVGID_50_" gradientUnits="userSpaceOnUse" x1="307.3752" y1="334.4405" x2="307.3752" y2="336.5484" gradientTransform="matrix(0.885 -0.4656 0.4656 0.885 -116.0428 181.9607)">
					<stop  offset="0" style="stop-color:#000000"/>
					<stop  offset="1" style="stop-color:#FFFFFF"/>
				</linearGradient>
				<polygon class="st52" points="358.1,312.8 267.3,360.6 266.3,358.7 357.1,310.9 				"/>
				
					<linearGradient id="SVGID_51_" gradientUnits="userSpaceOnUse" x1="307.3752" y1="332.3389" x2="307.3752" y2="334.4468" gradientTransform="matrix(0.885 -0.4656 0.4656 0.885 -116.0428 181.9607)">
					<stop  offset="0" style="stop-color:#000000"/>
					<stop  offset="1" style="stop-color:#FFFFFF"/>
				</linearGradient>
				<polygon class="st53" points="357.1,310.9 266.3,358.7 265.3,356.9 356.1,309.1 				"/>
				
					<linearGradient id="SVGID_52_" gradientUnits="userSpaceOnUse" x1="307.3751" y1="330.2374" x2="307.3751" y2="332.3453" gradientTransform="matrix(0.885 -0.4656 0.4656 0.885 -116.0428 181.9607)">
					<stop  offset="0" style="stop-color:#000000"/>
					<stop  offset="1" style="stop-color:#FFFFFF"/>
				</linearGradient>
				<polygon class="st54" points="356.1,309.1 265.3,356.9 264.3,355 355.2,307.2 				"/>
				
					<linearGradient id="SVGID_53_" gradientUnits="userSpaceOnUse" x1="307.3752" y1="328.1358" x2="307.3752" y2="330.2437" gradientTransform="matrix(0.885 -0.4656 0.4656 0.885 -116.0428 181.9607)">
					<stop  offset="0" style="stop-color:#000000"/>
					<stop  offset="1" style="stop-color:#FFFFFF"/>
				</linearGradient>
				<polygon class="st55" points="355.2,307.2 264.3,355 263.4,353.1 354.2,305.4 				"/>
				
					<linearGradient id="SVGID_54_" gradientUnits="userSpaceOnUse" x1="307.3751" y1="326.0343" x2="307.3751" y2="328.1422" gradientTransform="matrix(0.885 -0.4656 0.4656 0.885 -116.0428 181.9607)">
					<stop  offset="0" style="stop-color:#000000"/>
					<stop  offset="1" style="stop-color:#FFFFFF"/>
				</linearGradient>
				<polygon class="st56" points="354.2,305.4 263.4,353.1 262.4,351.3 353.2,303.5 				"/>
				
					<linearGradient id="SVGID_55_" gradientUnits="userSpaceOnUse" x1="307.3751" y1="323.9327" x2="307.3751" y2="326.0406" gradientTransform="matrix(0.885 -0.4656 0.4656 0.885 -116.0428 181.9607)">
					<stop  offset="0" style="stop-color:#000000"/>
					<stop  offset="1" style="stop-color:#FFFFFF"/>
				</linearGradient>
				<polygon class="st57" points="353.2,303.5 262.4,351.3 261.4,349.4 352.2,301.6 				"/>
				
					<linearGradient id="SVGID_56_" gradientUnits="userSpaceOnUse" x1="307.3751" y1="321.8312" x2="307.3751" y2="323.939" gradientTransform="matrix(0.885 -0.4656 0.4656 0.885 -116.0428 181.9607)">
					<stop  offset="0" style="stop-color:#000000"/>
					<stop  offset="1" style="stop-color:#FFFFFF"/>
				</linearGradient>
				<polygon class="st58" points="352.2,301.6 261.4,349.4 260.4,347.6 351.2,299.8 				"/>
				
					<linearGradient id="SVGID_57_" gradientUnits="userSpaceOnUse" x1="307.3751" y1="319.7296" x2="307.3751" y2="321.8374" gradientTransform="matrix(0.885 -0.4656 0.4656 0.885 -116.0428 181.9607)">
					<stop  offset="0" style="stop-color:#000000"/>
					<stop  offset="1" style="stop-color:#FFFFFF"/>
				</linearGradient>
				<polygon class="st59" points="351.2,299.8 260.4,347.6 259.4,345.7 350.3,297.9 				"/>
				
					<linearGradient id="SVGID_58_" gradientUnits="userSpaceOnUse" x1="307.3751" y1="317.6281" x2="307.3751" y2="319.7359" gradientTransform="matrix(0.885 -0.4656 0.4656 0.885 -116.0428 181.9607)">
					<stop  offset="0" style="stop-color:#000000"/>
					<stop  offset="1" style="stop-color:#FFFFFF"/>
				</linearGradient>
				<polygon class="st60" points="350.3,297.9 259.4,345.7 258.5,343.8 349.3,296.1 				"/>
				
					<linearGradient id="SVGID_59_" gradientUnits="userSpaceOnUse" x1="307.3751" y1="315.5265" x2="307.3751" y2="317.6343" gradientTransform="matrix(0.885 -0.4656 0.4656 0.885 -116.0428 181.9607)">
					<stop  offset="0" style="stop-color:#000000"/>
					<stop  offset="1" style="stop-color:#FFFFFF"/>
				</linearGradient>
				<polygon class="st61" points="349.3,296.1 258.5,343.8 257.5,342 348.3,294.2 				"/>
				
					<linearGradient id="SVGID_60_" gradientUnits="userSpaceOnUse" x1="307.375" y1="313.4248" x2="307.375" y2="315.5328" gradientTransform="matrix(0.885 -0.4656 0.4656 0.885 -116.0428 181.9607)">
					<stop  offset="0" style="stop-color:#000000"/>
					<stop  offset="1" style="stop-color:#FFFFFF"/>
				</linearGradient>
				<polygon class="st62" points="348.3,294.2 257.5,342 256.5,340.1 347.3,292.3 				"/>
				
					<linearGradient id="SVGID_61_" gradientUnits="userSpaceOnUse" x1="307.3751" y1="311.3234" x2="307.3751" y2="313.4312" gradientTransform="matrix(0.885 -0.4656 0.4656 0.885 -116.0428 181.9607)">
					<stop  offset="0" style="stop-color:#000000"/>
					<stop  offset="1" style="stop-color:#FFFFFF"/>
				</linearGradient>
				<polygon class="st63" points="347.3,292.3 256.5,340.1 255.5,338.3 346.3,290.5 				"/>
				
					<linearGradient id="SVGID_62_" gradientUnits="userSpaceOnUse" x1="307.375" y1="309.2217" x2="307.375" y2="311.3296" gradientTransform="matrix(0.885 -0.4656 0.4656 0.885 -116.0428 181.9607)">
					<stop  offset="0" style="stop-color:#000000"/>
					<stop  offset="1" style="stop-color:#FFFFFF"/>
				</linearGradient>
				<polygon class="st64" points="346.4,290.5 255.5,338.3 254.5,336.4 345.4,288.6 				"/>
				
					<linearGradient id="SVGID_63_" gradientUnits="userSpaceOnUse" x1="307.375" y1="307.1202" x2="307.375" y2="309.2281" gradientTransform="matrix(0.885 -0.4656 0.4656 0.885 -116.0428 181.9607)">
					<stop  offset="0" style="stop-color:#000000"/>
					<stop  offset="1" style="stop-color:#FFFFFF"/>
				</linearGradient>
				<polygon class="st65" points="345.4,288.6 254.5,336.4 253.6,334.5 344.4,286.8 				"/>
			</g>
		</g>
		
			<linearGradient id="SVGID_64_" gradientUnits="userSpaceOnUse" x1="307.3756" y1="379.7486" x2="307.3756" y2="426.2746" gradientTransform="matrix(0.885 -0.4656 0.4656 0.885 -116.0428 181.9607)">
			<stop  offset="0" style="stop-color:#000000"/>
			<stop  offset="9.361979e-02" style="stop-color:#0F0F0F"/>
			<stop  offset="0.2729" style="stop-color:#353535"/>
			<stop  offset="0.5195" style="stop-color:#747474"/>
			<stop  offset="0.8205" style="stop-color:#C9C9C9"/>
			<stop  offset="1" style="stop-color:#FFFFFF"/>
		</linearGradient>
		<polygon class="st66" points="394.6,405.2 348.7,406.5 322.7,443 276.2,354.5 348.1,316.7 		"/>
	</g>
	<g>
		<g>
			<defs>
				<polygon id="SVGID_220_" points="264,287.9 202.3,405.2 210.8,405.4 210.9,405.4 217,405.6 217,405.6 248.2,406.5 265.8,431.2 
					269.4,436.2 274.1,443 335.9,325.7 				"/>
			</defs>
			<clipPath id="SVGID_65_">
				<use xlink:href="#SVGID_220_"  style="overflow:visible;"/>
			</clipPath>
			<g class="st67">
				<polygon class="st2" points="263.2,289.5 201.4,406.8 210,407 210.1,407 216.2,407.2 216.2,407.2 247.4,408.1 265,432.8 
					268.5,437.9 273.3,444.6 335,327.3 				"/>
				<polygon class="st3" points="322.6,323.6 265.1,432.9 268.6,437.9 327.4,326.1 				"/>
				<polygon class="st3" points="268.7,295.3 209.9,407 210,407 216,407.1 273.5,297.8 				"/>
			</g>
			<g class="st67">
				
					<linearGradient id="SVGID_66_" gradientUnits="userSpaceOnUse" x1="-291.6606" y1="120.1614" x2="-291.6606" y2="122.2692" gradientTransform="matrix(-0.885 -0.4656 -0.4656 0.885 36.0428 181.9607)">
					<stop  offset="0" style="stop-color:#000000"/>
					<stop  offset="1" style="stop-color:#FFFFFF"/>
				</linearGradient>
				<polygon class="st68" points="191.8,402.1 282.6,449.9 283.6,448 192.8,400.2 				"/>
				
					<linearGradient id="SVGID_67_" gradientUnits="userSpaceOnUse" x1="-291.6607" y1="118.0597" x2="-291.6607" y2="120.1676" gradientTransform="matrix(-0.885 -0.4656 -0.4656 0.885 36.0428 181.9607)">
					<stop  offset="0" style="stop-color:#000000"/>
					<stop  offset="1" style="stop-color:#FFFFFF"/>
				</linearGradient>
				<polygon class="st69" points="192.8,400.2 283.6,448 284.6,446.1 193.8,398.3 				"/>
				
					<linearGradient id="SVGID_68_" gradientUnits="userSpaceOnUse" x1="-291.6607" y1="115.9583" x2="-291.6607" y2="118.0661" gradientTransform="matrix(-0.885 -0.4656 -0.4656 0.885 36.0428 181.9607)">
					<stop  offset="0" style="stop-color:#000000"/>
					<stop  offset="1" style="stop-color:#FFFFFF"/>
				</linearGradient>
				<polygon class="st70" points="193.8,398.4 284.6,446.1 285.6,444.3 194.8,396.5 				"/>
				
					<linearGradient id="SVGID_69_" gradientUnits="userSpaceOnUse" x1="-291.6607" y1="113.8566" x2="-291.6607" y2="115.9644" gradientTransform="matrix(-0.885 -0.4656 -0.4656 0.885 36.0428 181.9607)">
					<stop  offset="0" style="stop-color:#000000"/>
					<stop  offset="1" style="stop-color:#FFFFFF"/>
				</linearGradient>
				<polygon class="st71" points="194.8,396.5 285.6,444.3 286.6,442.4 195.7,394.6 				"/>
				
					<linearGradient id="SVGID_70_" gradientUnits="userSpaceOnUse" x1="-291.6607" y1="111.7551" x2="-291.6607" y2="113.863" gradientTransform="matrix(-0.885 -0.4656 -0.4656 0.885 36.0428 181.9607)">
					<stop  offset="0" style="stop-color:#000000"/>
					<stop  offset="1" style="stop-color:#FFFFFF"/>
				</linearGradient>
				<polygon class="st72" points="195.7,394.6 286.6,442.4 287.5,440.6 196.7,392.8 				"/>
				
					<linearGradient id="SVGID_71_" gradientUnits="userSpaceOnUse" x1="-291.6607" y1="109.6535" x2="-291.6607" y2="111.7613" gradientTransform="matrix(-0.885 -0.4656 -0.4656 0.885 36.0428 181.9607)">
					<stop  offset="0" style="stop-color:#000000"/>
					<stop  offset="1" style="stop-color:#FFFFFF"/>
				</linearGradient>
				<polygon class="st73" points="196.7,392.8 287.5,440.6 288.5,438.7 197.7,390.9 				"/>
				
					<linearGradient id="SVGID_72_" gradientUnits="userSpaceOnUse" x1="-291.6607" y1="107.5519" x2="-291.6607" y2="109.6599" gradientTransform="matrix(-0.885 -0.4656 -0.4656 0.885 36.0428 181.9607)">
					<stop  offset="0" style="stop-color:#000000"/>
					<stop  offset="1" style="stop-color:#FFFFFF"/>
				</linearGradient>
				<polygon class="st74" points="197.7,390.9 288.5,438.7 289.5,436.8 198.7,389 				"/>
				
					<linearGradient id="SVGID_73_" gradientUnits="userSpaceOnUse" x1="-291.6608" y1="105.4504" x2="-291.6608" y2="107.5582" gradientTransform="matrix(-0.885 -0.4656 -0.4656 0.885 36.0428 181.9607)">
					<stop  offset="0" style="stop-color:#000000"/>
					<stop  offset="1" style="stop-color:#FFFFFF"/>
				</linearGradient>
				<polygon class="st75" points="198.7,389.1 289.5,436.8 290.5,435 199.7,387.2 				"/>
				
					<linearGradient id="SVGID_74_" gradientUnits="userSpaceOnUse" x1="-291.6608" y1="103.3488" x2="-291.6608" y2="105.4568" gradientTransform="matrix(-0.885 -0.4656 -0.4656 0.885 36.0428 181.9607)">
					<stop  offset="0" style="stop-color:#000000"/>
					<stop  offset="1" style="stop-color:#FFFFFF"/>
				</linearGradient>
				<polygon class="st76" points="199.6,387.2 290.5,435 291.5,433.1 200.6,385.3 				"/>
				
					<linearGradient id="SVGID_75_" gradientUnits="userSpaceOnUse" x1="-291.6608" y1="101.2472" x2="-291.6608" y2="103.3551" gradientTransform="matrix(-0.885 -0.4656 -0.4656 0.885 36.0428 181.9607)">
					<stop  offset="0" style="stop-color:#000000"/>
					<stop  offset="1" style="stop-color:#FFFFFF"/>
				</linearGradient>
				<polygon class="st77" points="200.6,385.3 291.5,433.1 292.4,431.3 201.6,383.5 				"/>
				
					<linearGradient id="SVGID_76_" gradientUnits="userSpaceOnUse" x1="-291.6608" y1="99.1456" x2="-291.6608" y2="101.2535" gradientTransform="matrix(-0.885 -0.4656 -0.4656 0.885 36.0428 181.9607)">
					<stop  offset="0" style="stop-color:#000000"/>
					<stop  offset="1" style="stop-color:#FFFFFF"/>
				</linearGradient>
				<polygon class="st78" points="201.6,383.5 292.4,431.3 293.4,429.4 202.6,381.6 				"/>
				
					<linearGradient id="SVGID_77_" gradientUnits="userSpaceOnUse" x1="-291.6608" y1="97.0441" x2="-291.6608" y2="99.152" gradientTransform="matrix(-0.885 -0.4656 -0.4656 0.885 36.0428 181.9607)">
					<stop  offset="0" style="stop-color:#000000"/>
					<stop  offset="1" style="stop-color:#FFFFFF"/>
				</linearGradient>
				<polygon class="st79" points="202.6,381.6 293.4,429.4 294.4,427.5 203.6,379.8 				"/>
				
					<linearGradient id="SVGID_78_" gradientUnits="userSpaceOnUse" x1="-291.6608" y1="94.9425" x2="-291.6608" y2="97.0504" gradientTransform="matrix(-0.885 -0.4656 -0.4656 0.885 36.0428 181.9607)">
					<stop  offset="0" style="stop-color:#000000"/>
					<stop  offset="1" style="stop-color:#FFFFFF"/>
				</linearGradient>
				<polygon class="st80" points="203.6,379.8 294.4,427.5 295.4,425.7 204.5,377.9 				"/>
				
					<linearGradient id="SVGID_79_" gradientUnits="userSpaceOnUse" x1="-291.6609" y1="92.841" x2="-291.6609" y2="94.9489" gradientTransform="matrix(-0.885 -0.4656 -0.4656 0.885 36.0428 181.9607)">
					<stop  offset="0" style="stop-color:#000000"/>
					<stop  offset="1" style="stop-color:#FFFFFF"/>
				</linearGradient>
				<polygon class="st81" points="204.5,377.9 295.4,425.7 296.3,423.8 205.5,376 				"/>
				
					<linearGradient id="SVGID_80_" gradientUnits="userSpaceOnUse" x1="-291.6608" y1="90.7394" x2="-291.6608" y2="92.8473" gradientTransform="matrix(-0.885 -0.4656 -0.4656 0.885 36.0428 181.9607)">
					<stop  offset="0" style="stop-color:#000000"/>
					<stop  offset="1" style="stop-color:#FFFFFF"/>
				</linearGradient>
				<polygon class="st82" points="205.5,376 296.3,423.8 297.3,422 206.5,374.2 				"/>
				
					<linearGradient id="SVGID_81_" gradientUnits="userSpaceOnUse" x1="-291.6609" y1="88.6379" x2="-291.6609" y2="90.7458" gradientTransform="matrix(-0.885 -0.4656 -0.4656 0.885 36.0428 181.9607)">
					<stop  offset="0" style="stop-color:#000000"/>
					<stop  offset="1" style="stop-color:#FFFFFF"/>
				</linearGradient>
				<polygon class="st83" points="206.5,374.2 297.3,422 298.3,420.1 207.5,372.3 				"/>
				
					<linearGradient id="SVGID_82_" gradientUnits="userSpaceOnUse" x1="-291.6609" y1="86.5363" x2="-291.6609" y2="88.6442" gradientTransform="matrix(-0.885 -0.4656 -0.4656 0.885 36.0428 181.9607)">
					<stop  offset="0" style="stop-color:#000000"/>
					<stop  offset="1" style="stop-color:#FFFFFF"/>
				</linearGradient>
				<polygon class="st84" points="207.5,372.3 298.3,420.1 299.3,418.2 208.5,370.5 				"/>
				
					<linearGradient id="SVGID_83_" gradientUnits="userSpaceOnUse" x1="-291.6609" y1="84.4348" x2="-291.6609" y2="86.5427" gradientTransform="matrix(-0.885 -0.4656 -0.4656 0.885 36.0428 181.9607)">
					<stop  offset="0" style="stop-color:#000000"/>
					<stop  offset="1" style="stop-color:#FFFFFF"/>
				</linearGradient>
				<polygon class="st85" points="208.5,370.5 299.3,418.2 300.3,416.4 209.4,368.6 				"/>
				
					<linearGradient id="SVGID_84_" gradientUnits="userSpaceOnUse" x1="-291.6609" y1="82.3332" x2="-291.6609" y2="84.4411" gradientTransform="matrix(-0.885 -0.4656 -0.4656 0.885 36.0428 181.9607)">
					<stop  offset="0" style="stop-color:#000000"/>
					<stop  offset="1" style="stop-color:#FFFFFF"/>
				</linearGradient>
				<polygon class="st86" points="209.4,368.6 300.3,416.4 301.2,414.5 210.4,366.7 				"/>
				
					<linearGradient id="SVGID_85_" gradientUnits="userSpaceOnUse" x1="-291.6609" y1="80.2315" x2="-291.6609" y2="82.3396" gradientTransform="matrix(-0.885 -0.4656 -0.4656 0.885 36.0428 181.9607)">
					<stop  offset="0" style="stop-color:#000000"/>
					<stop  offset="1" style="stop-color:#FFFFFF"/>
				</linearGradient>
				<polygon class="st87" points="210.4,366.7 301.2,414.5 302.2,412.7 211.4,364.9 				"/>
				
					<linearGradient id="SVGID_86_" gradientUnits="userSpaceOnUse" x1="-291.6609" y1="78.1301" x2="-291.6609" y2="80.2379" gradientTransform="matrix(-0.885 -0.4656 -0.4656 0.885 36.0428 181.9607)">
					<stop  offset="0" style="stop-color:#000000"/>
					<stop  offset="1" style="stop-color:#FFFFFF"/>
				</linearGradient>
				<polygon class="st88" points="211.4,364.9 302.2,412.7 303.2,410.8 212.4,363 				"/>
				
					<linearGradient id="SVGID_87_" gradientUnits="userSpaceOnUse" x1="-291.661" y1="76.0284" x2="-291.661" y2="78.1363" gradientTransform="matrix(-0.885 -0.4656 -0.4656 0.885 36.0428 181.9607)">
					<stop  offset="0" style="stop-color:#000000"/>
					<stop  offset="1" style="stop-color:#FFFFFF"/>
				</linearGradient>
				<polygon class="st89" points="212.4,363 303.2,410.8 304.2,408.9 213.4,361.2 				"/>
				
					<linearGradient id="SVGID_88_" gradientUnits="userSpaceOnUse" x1="-291.6609" y1="73.927" x2="-291.6609" y2="76.0349" gradientTransform="matrix(-0.885 -0.4656 -0.4656 0.885 36.0428 181.9607)">
					<stop  offset="0" style="stop-color:#000000"/>
					<stop  offset="1" style="stop-color:#FFFFFF"/>
				</linearGradient>
				<polygon class="st90" points="213.3,361.2 304.2,408.9 305.2,407.1 214.3,359.3 				"/>
				
					<linearGradient id="SVGID_89_" gradientUnits="userSpaceOnUse" x1="-291.6609" y1="71.8253" x2="-291.6609" y2="73.9332" gradientTransform="matrix(-0.885 -0.4656 -0.4656 0.885 36.0428 181.9607)">
					<stop  offset="0" style="stop-color:#000000"/>
					<stop  offset="1" style="stop-color:#FFFFFF"/>
				</linearGradient>
				<polygon class="st91" points="214.3,359.3 305.2,407.1 306.1,405.2 215.3,357.4 				"/>
				
					<linearGradient id="SVGID_90_" gradientUnits="userSpaceOnUse" x1="-291.661" y1="69.7239" x2="-291.661" y2="71.8317" gradientTransform="matrix(-0.885 -0.4656 -0.4656 0.885 36.0428 181.9607)">
					<stop  offset="0" style="stop-color:#000000"/>
					<stop  offset="1" style="stop-color:#FFFFFF"/>
				</linearGradient>
				<polygon class="st92" points="215.3,357.4 306.1,405.2 307.1,403.4 216.3,355.6 				"/>
				
					<linearGradient id="SVGID_91_" gradientUnits="userSpaceOnUse" x1="-291.661" y1="67.6222" x2="-291.661" y2="69.7301" gradientTransform="matrix(-0.885 -0.4656 -0.4656 0.885 36.0428 181.9607)">
					<stop  offset="0" style="stop-color:#000000"/>
					<stop  offset="1" style="stop-color:#FFFFFF"/>
				</linearGradient>
				<polygon class="st93" points="216.3,355.6 307.1,403.4 308.1,401.5 217.3,353.7 				"/>
				
					<linearGradient id="SVGID_92_" gradientUnits="userSpaceOnUse" x1="-291.661" y1="65.5208" x2="-291.661" y2="67.6286" gradientTransform="matrix(-0.885 -0.4656 -0.4656 0.885 36.0428 181.9607)">
					<stop  offset="0" style="stop-color:#000000"/>
					<stop  offset="1" style="stop-color:#FFFFFF"/>
				</linearGradient>
				<polygon class="st94" points="217.3,353.7 308.1,401.5 309.1,399.6 218.2,351.9 				"/>
				
					<linearGradient id="SVGID_93_" gradientUnits="userSpaceOnUse" x1="-291.661" y1="63.4191" x2="-291.661" y2="65.5269" gradientTransform="matrix(-0.885 -0.4656 -0.4656 0.885 36.0428 181.9607)">
					<stop  offset="0" style="stop-color:#000000"/>
					<stop  offset="1" style="stop-color:#FFFFFF"/>
				</linearGradient>
				<polygon class="st95" points="218.2,351.9 309.1,399.6 310,397.8 219.2,350 				"/>
				
					<linearGradient id="SVGID_94_" gradientUnits="userSpaceOnUse" x1="-291.6611" y1="61.3176" x2="-291.6611" y2="63.4255" gradientTransform="matrix(-0.885 -0.4656 -0.4656 0.885 36.0428 181.9607)">
					<stop  offset="0" style="stop-color:#000000"/>
					<stop  offset="1" style="stop-color:#FFFFFF"/>
				</linearGradient>
				<polygon class="st96" points="219.2,350 310,397.8 311,395.9 220.2,348.1 				"/>
				
					<linearGradient id="SVGID_95_" gradientUnits="userSpaceOnUse" x1="-291.6611" y1="59.216" x2="-291.6611" y2="61.3238" gradientTransform="matrix(-0.885 -0.4656 -0.4656 0.885 36.0428 181.9607)">
					<stop  offset="0" style="stop-color:#000000"/>
					<stop  offset="1" style="stop-color:#FFFFFF"/>
				</linearGradient>
				<polygon class="st97" points="220.2,348.1 311,395.9 312,394.1 221.2,346.3 				"/>
				
					<linearGradient id="SVGID_96_" gradientUnits="userSpaceOnUse" x1="-291.6611" y1="57.1145" x2="-291.6611" y2="59.2224" gradientTransform="matrix(-0.885 -0.4656 -0.4656 0.885 36.0428 181.9607)">
					<stop  offset="0" style="stop-color:#000000"/>
					<stop  offset="1" style="stop-color:#FFFFFF"/>
				</linearGradient>
				<polygon class="st98" points="221.2,346.3 312,394.1 313,392.2 222.2,344.4 				"/>
				
					<linearGradient id="SVGID_97_" gradientUnits="userSpaceOnUse" x1="-291.6611" y1="55.0129" x2="-291.6611" y2="57.1208" gradientTransform="matrix(-0.885 -0.4656 -0.4656 0.885 36.0428 181.9607)">
					<stop  offset="0" style="stop-color:#000000"/>
					<stop  offset="1" style="stop-color:#FFFFFF"/>
				</linearGradient>
				<polygon class="st99" points="222.2,344.4 313,392.2 314,390.3 223.1,342.6 				"/>
				
					<linearGradient id="SVGID_98_" gradientUnits="userSpaceOnUse" x1="-291.6611" y1="52.9113" x2="-291.6611" y2="55.0193" gradientTransform="matrix(-0.885 -0.4656 -0.4656 0.885 36.0428 181.9607)">
					<stop  offset="0" style="stop-color:#000000"/>
					<stop  offset="1" style="stop-color:#FFFFFF"/>
				</linearGradient>
				<polygon class="st100" points="223.1,342.6 314,390.3 314.9,388.5 224.1,340.7 				"/>
				
					<linearGradient id="SVGID_99_" gradientUnits="userSpaceOnUse" x1="-291.6612" y1="50.8097" x2="-291.6612" y2="52.9177" gradientTransform="matrix(-0.885 -0.4656 -0.4656 0.885 36.0428 181.9607)">
					<stop  offset="0" style="stop-color:#000000"/>
					<stop  offset="1" style="stop-color:#FFFFFF"/>
				</linearGradient>
				<polygon class="st101" points="224.1,340.7 314.9,388.5 315.9,386.6 225.1,338.8 				"/>
				
					<linearGradient id="SVGID_100_" gradientUnits="userSpaceOnUse" x1="-291.6611" y1="48.7081" x2="-291.6611" y2="50.816" gradientTransform="matrix(-0.885 -0.4656 -0.4656 0.885 36.0428 181.9607)">
					<stop  offset="0" style="stop-color:#000000"/>
					<stop  offset="1" style="stop-color:#FFFFFF"/>
				</linearGradient>
				<polygon class="st102" points="225.1,338.8 315.9,386.6 316.9,384.8 226.1,337 				"/>
				
					<linearGradient id="SVGID_101_" gradientUnits="userSpaceOnUse" x1="-291.6612" y1="46.6066" x2="-291.6612" y2="48.7145" gradientTransform="matrix(-0.885 -0.4656 -0.4656 0.885 36.0428 181.9607)">
					<stop  offset="0" style="stop-color:#000000"/>
					<stop  offset="1" style="stop-color:#FFFFFF"/>
				</linearGradient>
				<polygon class="st103" points="226.1,337 316.9,384.8 317.9,382.9 227.1,335.1 				"/>
				
					<linearGradient id="SVGID_102_" gradientUnits="userSpaceOnUse" x1="-291.6612" y1="44.505" x2="-291.6612" y2="46.6129" gradientTransform="matrix(-0.885 -0.4656 -0.4656 0.885 36.0428 181.9607)">
					<stop  offset="0" style="stop-color:#000000"/>
					<stop  offset="1" style="stop-color:#FFFFFF"/>
				</linearGradient>
				<polygon class="st104" points="227,335.1 317.9,382.9 318.9,381 228,333.3 				"/>
				
					<linearGradient id="SVGID_103_" gradientUnits="userSpaceOnUse" x1="-291.6612" y1="42.4036" x2="-291.6612" y2="44.5114" gradientTransform="matrix(-0.885 -0.4656 -0.4656 0.885 36.0428 181.9607)">
					<stop  offset="0" style="stop-color:#000000"/>
					<stop  offset="1" style="stop-color:#FFFFFF"/>
				</linearGradient>
				<polygon class="st105" points="228,333.3 318.9,381 319.8,379.2 229,331.4 				"/>
				
					<linearGradient id="SVGID_104_" gradientUnits="userSpaceOnUse" x1="-291.6612" y1="40.3019" x2="-291.6612" y2="42.4098" gradientTransform="matrix(-0.885 -0.4656 -0.4656 0.885 36.0428 181.9607)">
					<stop  offset="0" style="stop-color:#000000"/>
					<stop  offset="1" style="stop-color:#FFFFFF"/>
				</linearGradient>
				<polygon class="st106" points="229,331.4 319.8,379.2 320.8,377.3 230,329.5 				"/>
				
					<linearGradient id="SVGID_105_" gradientUnits="userSpaceOnUse" x1="-291.6612" y1="38.2005" x2="-291.6612" y2="40.3084" gradientTransform="matrix(-0.885 -0.4656 -0.4656 0.885 36.0428 181.9607)">
					<stop  offset="0" style="stop-color:#000000"/>
					<stop  offset="1" style="stop-color:#FFFFFF"/>
				</linearGradient>
				<polygon class="st107" points="230,329.5 320.8,377.3 321.8,375.5 231,327.7 				"/>
				
					<linearGradient id="SVGID_106_" gradientUnits="userSpaceOnUse" x1="-291.6612" y1="36.0988" x2="-291.6612" y2="38.2067" gradientTransform="matrix(-0.885 -0.4656 -0.4656 0.885 36.0428 181.9607)">
					<stop  offset="0" style="stop-color:#000000"/>
					<stop  offset="1" style="stop-color:#FFFFFF"/>
				</linearGradient>
				<polygon class="st108" points="231,327.7 321.8,375.5 322.8,373.6 231.9,325.8 				"/>
				
					<linearGradient id="SVGID_107_" gradientUnits="userSpaceOnUse" x1="-291.6612" y1="33.9973" x2="-291.6612" y2="36.1053" gradientTransform="matrix(-0.885 -0.4656 -0.4656 0.885 36.0428 181.9607)">
					<stop  offset="0" style="stop-color:#000000"/>
					<stop  offset="1" style="stop-color:#FFFFFF"/>
				</linearGradient>
				<polygon class="st109" points="231.9,325.8 322.8,373.6 323.7,371.7 232.9,324 				"/>
				
					<linearGradient id="SVGID_108_" gradientUnits="userSpaceOnUse" x1="-291.6613" y1="31.8957" x2="-291.6613" y2="34.0036" gradientTransform="matrix(-0.885 -0.4656 -0.4656 0.885 36.0428 181.9607)">
					<stop  offset="0" style="stop-color:#000000"/>
					<stop  offset="1" style="stop-color:#FFFFFF"/>
				</linearGradient>
				<polygon class="st110" points="232.9,324 323.7,371.7 324.7,369.9 233.9,322.1 				"/>
				
					<linearGradient id="SVGID_109_" gradientUnits="userSpaceOnUse" x1="-291.6613" y1="29.7943" x2="-291.6613" y2="31.9021" gradientTransform="matrix(-0.885 -0.4656 -0.4656 0.885 36.0428 181.9607)">
					<stop  offset="0" style="stop-color:#000000"/>
					<stop  offset="1" style="stop-color:#FFFFFF"/>
				</linearGradient>
				<polygon class="st111" points="233.9,322.1 324.7,369.9 325.7,368 234.9,320.2 				"/>
				
					<linearGradient id="SVGID_110_" gradientUnits="userSpaceOnUse" x1="-291.6613" y1="27.6926" x2="-291.6613" y2="29.8004" gradientTransform="matrix(-0.885 -0.4656 -0.4656 0.885 36.0428 181.9607)">
					<stop  offset="0" style="stop-color:#000000"/>
					<stop  offset="1" style="stop-color:#FFFFFF"/>
				</linearGradient>
				<polygon class="st112" points="234.9,320.2 325.7,368 326.7,366.2 235.9,318.4 				"/>
				
					<linearGradient id="SVGID_111_" gradientUnits="userSpaceOnUse" x1="-291.6613" y1="25.591" x2="-291.6613" y2="27.699" gradientTransform="matrix(-0.885 -0.4656 -0.4656 0.885 36.0428 181.9607)">
					<stop  offset="0" style="stop-color:#000000"/>
					<stop  offset="1" style="stop-color:#FFFFFF"/>
				</linearGradient>
				<polygon class="st113" points="235.9,318.4 326.7,366.2 327.7,364.3 236.8,316.5 				"/>
				
					<linearGradient id="SVGID_112_" gradientUnits="userSpaceOnUse" x1="-291.6613" y1="23.4895" x2="-291.6613" y2="25.5973" gradientTransform="matrix(-0.885 -0.4656 -0.4656 0.885 36.0428 181.9607)">
					<stop  offset="0" style="stop-color:#000000"/>
					<stop  offset="1" style="stop-color:#FFFFFF"/>
				</linearGradient>
				<polygon class="st114" points="236.8,316.5 327.7,364.3 328.6,362.4 237.8,314.7 				"/>
				
					<linearGradient id="SVGID_113_" gradientUnits="userSpaceOnUse" x1="-291.6613" y1="21.3879" x2="-291.6613" y2="23.4957" gradientTransform="matrix(-0.885 -0.4656 -0.4656 0.885 36.0428 181.9607)">
					<stop  offset="0" style="stop-color:#000000"/>
					<stop  offset="1" style="stop-color:#FFFFFF"/>
				</linearGradient>
				<polygon class="st115" points="237.8,314.7 328.6,362.4 329.6,360.6 238.8,312.8 				"/>
				
					<linearGradient id="SVGID_114_" gradientUnits="userSpaceOnUse" x1="-291.6614" y1="19.2864" x2="-291.6614" y2="21.3942" gradientTransform="matrix(-0.885 -0.4656 -0.4656 0.885 36.0428 181.9607)">
					<stop  offset="0" style="stop-color:#000000"/>
					<stop  offset="1" style="stop-color:#FFFFFF"/>
				</linearGradient>
				<polygon class="st116" points="238.8,312.8 329.6,360.6 330.6,358.7 239.8,310.9 				"/>
				
					<linearGradient id="SVGID_115_" gradientUnits="userSpaceOnUse" x1="-291.6614" y1="17.1848" x2="-291.6614" y2="19.2926" gradientTransform="matrix(-0.885 -0.4656 -0.4656 0.885 36.0428 181.9607)">
					<stop  offset="0" style="stop-color:#000000"/>
					<stop  offset="1" style="stop-color:#FFFFFF"/>
				</linearGradient>
				<polygon class="st117" points="239.8,310.9 330.6,358.7 331.6,356.9 240.7,309.1 				"/>
				
					<linearGradient id="SVGID_116_" gradientUnits="userSpaceOnUse" x1="-291.6614" y1="15.0833" x2="-291.6614" y2="17.1911" gradientTransform="matrix(-0.885 -0.4656 -0.4656 0.885 36.0428 181.9607)">
					<stop  offset="0" style="stop-color:#000000"/>
					<stop  offset="1" style="stop-color:#FFFFFF"/>
				</linearGradient>
				<polygon class="st118" points="240.7,309.1 331.6,356.9 332.6,355 241.7,307.2 				"/>
				
					<linearGradient id="SVGID_117_" gradientUnits="userSpaceOnUse" x1="-291.6613" y1="12.9817" x2="-291.6613" y2="15.0895" gradientTransform="matrix(-0.885 -0.4656 -0.4656 0.885 36.0428 181.9607)">
					<stop  offset="0" style="stop-color:#000000"/>
					<stop  offset="1" style="stop-color:#FFFFFF"/>
				</linearGradient>
				<polygon class="st119" points="241.7,307.2 332.6,355 333.5,353.1 242.7,305.4 				"/>
				
					<linearGradient id="SVGID_118_" gradientUnits="userSpaceOnUse" x1="-291.6615" y1="10.8801" x2="-291.6615" y2="12.988" gradientTransform="matrix(-0.885 -0.4656 -0.4656 0.885 36.0428 181.9607)">
					<stop  offset="0" style="stop-color:#000000"/>
					<stop  offset="1" style="stop-color:#FFFFFF"/>
				</linearGradient>
				<polygon class="st120" points="242.7,305.4 333.5,353.1 334.5,351.3 243.7,303.5 				"/>
				
					<linearGradient id="SVGID_119_" gradientUnits="userSpaceOnUse" x1="-291.6614" y1="8.7785" x2="-291.6614" y2="10.8864" gradientTransform="matrix(-0.885 -0.4656 -0.4656 0.885 36.0428 181.9607)">
					<stop  offset="0" style="stop-color:#000000"/>
					<stop  offset="1" style="stop-color:#FFFFFF"/>
				</linearGradient>
				<polygon class="st121" points="243.7,303.5 334.5,351.3 335.5,349.4 244.7,301.6 				"/>
				
					<linearGradient id="SVGID_120_" gradientUnits="userSpaceOnUse" x1="-291.6615" y1="6.677" x2="-291.6615" y2="8.7849" gradientTransform="matrix(-0.885 -0.4656 -0.4656 0.885 36.0428 181.9607)">
					<stop  offset="0" style="stop-color:#000000"/>
					<stop  offset="1" style="stop-color:#FFFFFF"/>
				</linearGradient>
				<polygon class="st122" points="244.7,301.6 335.5,349.4 336.5,347.6 245.6,299.8 				"/>
				
					<linearGradient id="SVGID_121_" gradientUnits="userSpaceOnUse" x1="-291.6615" y1="4.5754" x2="-291.6615" y2="6.6833" gradientTransform="matrix(-0.885 -0.4656 -0.4656 0.885 36.0428 181.9607)">
					<stop  offset="0" style="stop-color:#000000"/>
					<stop  offset="1" style="stop-color:#FFFFFF"/>
				</linearGradient>
				<polygon class="st123" points="245.6,299.8 336.5,347.6 337.4,345.7 246.6,297.9 				"/>
				
					<linearGradient id="SVGID_122_" gradientUnits="userSpaceOnUse" x1="-291.6614" y1="2.4739" x2="-291.6614" y2="4.5818" gradientTransform="matrix(-0.885 -0.4656 -0.4656 0.885 36.0428 181.9607)">
					<stop  offset="0" style="stop-color:#000000"/>
					<stop  offset="1" style="stop-color:#FFFFFF"/>
				</linearGradient>
				<polygon class="st124" points="246.6,297.9 337.4,345.7 338.4,343.8 247.6,296.1 				"/>
				
					<linearGradient id="SVGID_123_" gradientUnits="userSpaceOnUse" x1="-291.6614" y1="0.3723" x2="-291.6614" y2="2.4802" gradientTransform="matrix(-0.885 -0.4656 -0.4656 0.885 36.0428 181.9607)">
					<stop  offset="0" style="stop-color:#000000"/>
					<stop  offset="1" style="stop-color:#FFFFFF"/>
				</linearGradient>
				<polygon class="st125" points="247.6,296.1 338.4,343.8 339.4,342 248.6,294.2 				"/>
				
					<linearGradient id="SVGID_124_" gradientUnits="userSpaceOnUse" x1="-291.6615" y1="-1.7294" x2="-291.6615" y2="0.3787" gradientTransform="matrix(-0.885 -0.4656 -0.4656 0.885 36.0428 181.9607)">
					<stop  offset="0" style="stop-color:#000000"/>
					<stop  offset="1" style="stop-color:#FFFFFF"/>
				</linearGradient>
				<polygon class="st126" points="248.6,294.2 339.4,342 340.4,340.1 249.6,292.3 				"/>
				
					<linearGradient id="SVGID_125_" gradientUnits="userSpaceOnUse" x1="-291.6615" y1="-3.8308" x2="-291.6615" y2="-1.7229" gradientTransform="matrix(-0.885 -0.4656 -0.4656 0.885 36.0428 181.9607)">
					<stop  offset="0" style="stop-color:#000000"/>
					<stop  offset="1" style="stop-color:#FFFFFF"/>
				</linearGradient>
				<polygon class="st127" points="249.6,292.3 340.4,340.1 341.4,338.3 250.5,290.5 				"/>
				
					<linearGradient id="SVGID_126_" gradientUnits="userSpaceOnUse" x1="-291.6615" y1="-5.9325" x2="-291.6615" y2="-3.8246" gradientTransform="matrix(-0.885 -0.4656 -0.4656 0.885 36.0428 181.9607)">
					<stop  offset="0" style="stop-color:#000000"/>
					<stop  offset="1" style="stop-color:#FFFFFF"/>
				</linearGradient>
				<polygon class="st128" points="250.5,290.5 341.4,338.3 342.3,336.4 251.5,288.6 				"/>
				
					<linearGradient id="SVGID_127_" gradientUnits="userSpaceOnUse" x1="-291.6616" y1="-8.0339" x2="-291.6616" y2="-5.926" gradientTransform="matrix(-0.885 -0.4656 -0.4656 0.885 36.0428 181.9607)">
					<stop  offset="0" style="stop-color:#000000"/>
					<stop  offset="1" style="stop-color:#FFFFFF"/>
				</linearGradient>
				<polygon class="st129" points="251.5,288.6 342.3,336.4 343.3,334.5 252.5,286.8 				"/>
			</g>
		</g>
		
			<linearGradient id="SVGID_128_" gradientUnits="userSpaceOnUse" x1="-291.6609" y1="64.5944" x2="-291.6609" y2="111.1205" gradientTransform="matrix(-0.885 -0.4656 -0.4656 0.885 36.0428 181.9607)">
			<stop  offset="0" style="stop-color:#000000"/>
			<stop  offset="9.361979e-02" style="stop-color:#0F0F0F"/>
			<stop  offset="0.2729" style="stop-color:#353535"/>
			<stop  offset="0.5195" style="stop-color:#747474"/>
			<stop  offset="0.8205" style="stop-color:#C9C9C9"/>
			<stop  offset="1" style="stop-color:#FFFFFF"/>
		</linearGradient>
		<polygon class="st130" points="202.3,405.2 248.2,406.5 274.1,443 320.7,354.5 248.8,316.7 		"/>
	</g>
	<g>
		<linearGradient id="SVGID_129_" gradientUnits="userSpaceOnUse" x1="204.2274" y1="249.4165" x2="399.6306" y2="249.4165">
			<stop  offset="0" style="stop-color:#FFC907"/>
			<stop  offset="1" style="stop-color:#FFD16B"/>
		</linearGradient>
		<circle class="st131" cx="301.9" cy="249.4" r="97.7"/>
		<linearGradient id="SVGID_130_" gradientUnits="userSpaceOnUse" x1="301.929" y1="332.2579" x2="301.929" y2="166.5751">
			<stop  offset="0" style="stop-color:#DB5906"/>
			<stop  offset="0.173" style="stop-color:#DF6808"/>
			<stop  offset="1" style="stop-color:#F3AD11"/>
		</linearGradient>
		<circle class="st132" cx="301.9" cy="249.4" r="82.8"/>
		<linearGradient id="SVGID_131_" gradientUnits="userSpaceOnUse" x1="331.6062" y1="294.3361" x2="273.8338" y2="205.5217">
			<stop  offset="0" style="stop-color:#FFBD4C"/>
			<stop  offset="1" style="stop-color:#FFF575"/>
		</linearGradient>
		<path class="st133" d="M267.5,300.9c-0.6,0-1.1-0.2-1.6-0.5c-0.3-0.2-0.6-0.4-0.8-0.7c-0.5-0.7-0.8-1.5-0.6-2.4l2.9-35.8
			l-23.5-27.3c-0.6-0.7-0.9-1.7-0.7-2.7c0-0.1,0.1-0.2,0.1-0.3c0-0.1,0.1-0.2,0.1-0.3l0,0c0.1-0.3,0.3-0.6,0.5-0.8
			c0.4-0.5,1-0.8,1.6-0.9l35.1-8.3l18.7-30.7c0.4-0.6,0.9-1.1,1.7-1.4c0.3-0.1,0.6-0.2,0.9-0.2c0.1,0,0.1,0,0.2,0h0
			c1.1,0,2.1,0.6,2.6,1.5l18.8,30.8l35.1,8.3c1,0.2,1.9,1,2.2,2c0.3,1,0.1,2.1-0.6,2.9l-23.5,27.4l2.9,36c0.1,1.1-0.4,2.1-1.3,2.7
			c-0.5,0.4-1.2,0.6-1.8,0.6c-0.4,0-0.8-0.1-1.2-0.2l-33.3-13.9l-28,11.7l-5.3,2.2C268.3,300.9,267.9,300.9,267.5,300.9z"/>
		<linearGradient id="SVGID_132_" gradientUnits="userSpaceOnUse" x1="330.756" y1="293.0294" x2="274.8482" y2="207.0815">
			<stop  offset="0" style="stop-color:#DB5906"/>
			<stop  offset="0.173" style="stop-color:#DF6808"/>
			<stop  offset="1" style="stop-color:#F3AD11"/>
		</linearGradient>
		<path class="st134" d="M267.5,299.1c-0.2,0-0.4-0.1-0.6-0.2c-0.1-0.1-0.2-0.2-0.3-0.3c-0.2-0.3-0.3-0.6-0.3-0.9c0,0,0-0.1,0-0.1
			l2.9-35.8c0-0.5-0.1-1-0.4-1.3c0,0-23.5-27.3-23.5-27.4c-0.3-0.3-0.4-0.7-0.3-1.1c0,0,0-0.1,0-0.1c0,0,0-0.1,0-0.1c0,0,0,0,0,0
			c0.1-0.1,0.1-0.2,0.2-0.3c0.2-0.2,0.4-0.3,0.6-0.4l35.1-8.3c0.5-0.1,0.9-0.4,1.1-0.8l18.7-30.7c0,0,0,0,0-0.1
			c0.1-0.3,0.4-0.5,0.7-0.6c0.1,0,0.2-0.1,0.3-0.1c0,0,0.1,0,0.1,0c0.4,0,0.8,0.2,1,0.6l18.8,30.8c0.3,0.4,0.7,0.7,1.1,0.8l35.1,8.3
			c0.4,0.1,0.8,0.4,0.9,0.8c0.1,0.4,0,0.9-0.2,1.2l-23.5,27.4c-0.3,0.4-0.5,0.9-0.4,1.3l2.9,36c0,0.4-0.2,0.8-0.5,1.1
			c-0.2,0.2-0.5,0.2-0.7,0.2c-0.2,0-0.3,0-0.5-0.1l-33.3-13.9c-0.2-0.1-0.5-0.1-0.7-0.1c-0.2,0-0.5,0-0.7,0.1l-28,11.7l-5.3,2.2
			C267.8,299.1,267.6,299.1,267.5,299.1z"/>
		<g>
			<polygon class="st135" points="301.9,191.8 321.4,223.7 357.7,232.3 333.4,260.6 336.4,297.9 301.9,283.5 267.5,297.9 
				270.5,260.6 246.1,232.3 282.5,223.7 			"/>
			<polygon class="st135" points="301.9,270.7 280.8,279.5 282.7,256.7 267.7,239.3 290,234 301.9,214.5 313.8,234 336.1,239.3 
				321.2,256.7 323.1,279.5 			"/>
			<polygon class="st135" points="267.7,239.3 246.1,232.3 282.5,223.7 290,234 			"/>
			<polygon class="st135" points="301.9,214.4 301.9,191.8 321.4,223.7 313.8,234 			"/>
			<polygon class="st135" points="336.1,239.3 357.7,232.3 333.4,260.6 321.2,256.7 			"/>
			<polygon class="st135" points="323,279.5 336.4,297.9 301.9,283.5 301.9,270.7 			"/>
			<polygon class="st135" points="280.8,279.5 267.5,297.9 270.5,260.6 282.7,256.7 			"/>
			<polygon class="st135" points="270.5,260.6 246.1,232.3 267.7,239.3 282.7,256.7 			"/>
			<polygon class="st135" points="280.8,279.5 301.9,270.7 301.9,283.5 267.4,297.9 			"/>
			<polygon class="st135" points="321.2,256.7 333.4,260.6 336.4,297.9 323,279.5 			"/>
			<polygon class="st135" points="313.8,234 321.4,223.7 357.7,232.3 336.1,239.3 			"/>
			<polygon class="st135" points="290,234 282.5,223.7 301.9,191.8 301.9,214.5 			"/>
			<path class="st135" d="M336.4,297.9l-13.1-18.4l-1.8-22.4l11.9,3.6l-11.8-4.1l14.6-17.1l21.5-7.2l-21.6,6.8l-21.9-5.2l7.1-10.2
				l-7.5,9.9l-11.7-19.3l-0.2-22.6l-0.3,22.7h0L290,233.6l-7.5-9.9l7.1,10.2l-21.9,5.2l-21.6-6.8l21.5,7.2l14.6,17.1l-11.8,4.1
				l11.9-3.6l-1.8,22.4l-13.1,18.4l13.5-18.2l20.8-8.7l0.2,12.5l0.3-12.5l20.8,8.7L336.4,297.9z M301.9,270.4l-20.9,8.7l1.8-22.4
				l0-0.1l-14.7-17.2l21.9-5.2l0.1,0l11.8-19.3l11.7,19.2l0.1,0.1l22,5.2L321,256.5l-0.1,0.1l1.8,22.5L301.9,270.4z"/>
		</g>
		<g>
			<linearGradient id="SVGID_133_" gradientUnits="userSpaceOnUse" x1="266.3506" y1="170.6084" x2="337.5075" y2="328.2248">
				<stop  offset="0" style="stop-color:#DB5906"/>
				<stop  offset="1" style="stop-color:#F3AD11"/>
			</linearGradient>
			<path class="st136" d="M301.9,335.8c-23.1,0-44.8-9-61.1-25.3c-16.3-16.3-25.3-38-25.3-61.1c0-23.1,9-44.8,25.3-61.1
				c16.3-16.3,38-25.3,61.1-25.3c23.1,0,44.8,9,61.1,25.3c16.3,16.3,25.3,38,25.3,61.1c0,23.1-9,44.8-25.3,61.1
				C346.7,326.8,325,335.8,301.9,335.8z M301.9,165.4c-46.3,0-84,37.7-84,84s37.7,84,84,84c46.3,0,84-37.7,84-84
				S348.2,165.4,301.9,165.4z"/>
		</g>
		<g>
			<linearGradient id="SVGID_134_" gradientUnits="userSpaceOnUse" x1="301.929" y1="347.5597" x2="301.929" y2="151.2734">
				<stop  offset="0" style="stop-color:#FFBD4C"/>
				<stop  offset="1" style="stop-color:#FFF575"/>
			</linearGradient>
			<path class="st137" d="M301.9,347.6c-26.2,0-50.9-10.2-69.4-28.7c-18.5-18.5-28.7-43.2-28.7-69.4c0-26.2,10.2-50.9,28.7-69.4
				c18.5-18.5,43.2-28.7,69.4-28.7c26.2,0,50.9,10.2,69.4,28.7c18.5,18.5,28.7,43.2,28.7,69.4c0,26.2-10.2,50.9-28.7,69.4
				S328.1,347.6,301.9,347.6z M301.9,153.7c-52.8,0-95.7,42.9-95.7,95.7c0,52.8,42.9,95.7,95.7,95.7c52.8,0,95.7-42.9,95.7-95.7
				C397.6,196.7,354.7,153.7,301.9,153.7z"/>
		</g>
		<g>
			<linearGradient id="SVGID_135_" gradientUnits="userSpaceOnUse" x1="301.9289" y1="337.9875" x2="301.9289" y2="160.8455">
				<stop  offset="0" style="stop-color:#FFBD4C"/>
				<stop  offset="1" style="stop-color:#FFF575"/>
			</linearGradient>
			<path class="st138" d="M301.9,338c-23.7,0-45.9-9.2-62.6-25.9c-16.7-16.7-25.9-39-25.9-62.6c0-23.7,9.2-45.9,25.9-62.6
				c16.7-16.7,39-25.9,62.6-25.9c23.7,0,45.9,9.2,62.6,25.9c16.7,16.7,25.9,39,25.9,62.6c0,23.7-9.2,45.9-25.9,62.6
				C347.8,328.8,325.6,338,301.9,338z M301.9,163.3c-47.5,0-86.1,38.6-86.1,86.1c0,47.5,38.6,86.1,86.1,86.1
				c47.5,0,86.1-38.6,86.1-86.1C388,201.9,349.4,163.3,301.9,163.3z"/>
		</g>
		<g>
			<linearGradient id="SVGID_136_" gradientUnits="userSpaceOnUse" x1="301.929" y1="333.4831" x2="301.929" y2="165.3501">
				<stop  offset="0" style="stop-color:#FFBD4C"/>
				<stop  offset="1" style="stop-color:#FFF575"/>
			</linearGradient>
			<path class="st139" d="M301.9,333.5c-22.5,0-43.6-8.7-59.4-24.6c-15.9-15.9-24.6-37-24.6-59.4s8.7-43.6,24.6-59.4
				c15.9-15.9,37-24.6,59.4-24.6c22.5,0,43.6,8.7,59.4,24.6c15.9,15.9,24.6,37,24.6,59.4s-8.7,43.6-24.6,59.4
				C345.5,324.7,324.4,333.5,301.9,333.5z M301.9,167.8c-45,0-81.6,36.6-81.6,81.6s36.6,81.6,81.6,81.6c45,0,81.6-36.6,81.6-81.6
				S346.9,167.8,301.9,167.8z"/>
		</g>
		<g>
			<linearGradient id="SVGID_137_" gradientUnits="userSpaceOnUse" x1="301.9582" y1="325.9089" x2="301.9582" y2="172.9268">
				<stop  offset="0" style="stop-color:#DB5906"/>
				<stop  offset="1" style="stop-color:#F3AD11"/>
			</linearGradient>
			<path class="st140" d="M303.3,325.9c-1,0-1.8-0.8-1.8-1.8c0-0.5,0.2-1,0.5-1.3c0.3-0.4,0.8-0.6,1.3-0.6c0,0,0.3,0,0.3,0
				c1,0,1.8,0.8,1.8,1.8c0,0.5-0.2,1-0.5,1.3c-0.3,0.4-0.8,0.6-1.3,0.6C303.6,325.9,303.3,325.9,303.3,325.9z M297.2,325.8
				c0,0-0.1,0-0.1,0l-0.3,0c-0.5,0-0.9-0.3-1.3-0.6s-0.5-0.8-0.4-1.3c0.1-1,0.9-1.7,1.8-1.7c0,0,0.1,0,0.1,0l0.3,0
				c0.5,0,0.9,0.2,1.3,0.6c0.3,0.4,0.5,0.8,0.5,1.3C298.9,325,298.1,325.8,297.2,325.8z M309.7,325.5c-0.9,0-1.7-0.7-1.8-1.6
				c-0.1-0.5,0.1-1,0.4-1.3c0.3-0.4,0.7-0.6,1.2-0.7l0.3,0c0.1,0,0.1,0,0.2,0c0.9,0,1.7,0.7,1.8,1.6c0.1,1-0.6,1.9-1.6,2l-0.3,0
				C309.8,325.5,309.7,325.5,309.7,325.5z M290.8,325.1c-0.1,0-0.2,0-0.3,0l-0.3,0c-0.5-0.1-0.9-0.3-1.2-0.7
				c-0.3-0.4-0.4-0.9-0.3-1.4c0.1-0.9,0.9-1.6,1.8-1.6c0.1,0,0.2,0,0.3,0l0.3,0c1,0.2,1.7,1.1,1.5,2.1
				C292.5,324.4,291.7,325.1,290.8,325.1z M316,324.6c-0.9,0-1.6-0.6-1.8-1.5c-0.1-0.5,0-1,0.3-1.4c0.3-0.4,0.7-0.7,1.2-0.8l0.3-0.1
				c0.1,0,0.2,0,0.4,0c0.9,0,1.6,0.6,1.8,1.5c0.2,1-0.5,2-1.5,2.2l-0.3,0.1C316.3,324.6,316.2,324.6,316,324.6z M284.5,323.9
				c-0.1,0-0.3,0-0.4-0.1l-0.3-0.1c-1-0.2-1.6-1.2-1.4-2.2c0.2-0.8,0.9-1.4,1.8-1.4c0.1,0,0.3,0,0.4,0.1l0.3,0.1
				c1,0.2,1.6,1.2,1.4,2.2C286.1,323.3,285.3,323.9,284.5,323.9z M322.3,323.1c-0.8,0-1.5-0.5-1.8-1.3c-0.1-0.5-0.1-1,0.2-1.4
				c0.2-0.4,0.6-0.7,1.1-0.9l0.3-0.1c0.2,0,0.3-0.1,0.5-0.1c0.8,0,1.5,0.5,1.8,1.3c0.1,0.5,0.1,1-0.2,1.4c-0.2,0.4-0.6,0.7-1.1,0.9
				l-0.3,0.1C322.6,323.1,322.5,323.1,322.3,323.1z M278.3,322.1c-0.2,0-0.4,0-0.6-0.1l-0.3-0.1c-0.5-0.2-0.8-0.5-1.1-0.9
				c-0.2-0.4-0.3-0.9-0.1-1.4c0.3-0.7,1-1.2,1.7-1.2c0.2,0,0.4,0,0.6,0.1l0.3,0.1c0.5,0.2,0.8,0.5,1.1,0.9c0.2,0.4,0.3,0.9,0.1,1.4
				C279.8,321.6,279.1,322.1,278.3,322.1z M328.4,321.1c-0.8,0-1.4-0.5-1.7-1.2c-0.4-0.9,0.1-2,1.1-2.4l0.3-0.1
				c0.2-0.1,0.4-0.1,0.7-0.1c0.8,0,1.4,0.5,1.7,1.2c0.4,0.9-0.1,2-1.1,2.4L329,321C328.8,321.1,328.6,321.1,328.4,321.1z
				 M272.3,319.8c-0.3,0-0.5-0.1-0.7-0.2l-0.3-0.1c-0.9-0.4-1.4-1.5-0.9-2.4c0.3-0.7,1-1.1,1.7-1.1c0.3,0,0.5,0.1,0.7,0.2l0.3,0.1
				c0.9,0.4,1.4,1.5,1,2.4C273.7,319.4,273,319.8,272.3,319.8z M334.3,318.6c-0.7,0-1.4-0.4-1.7-1c-0.2-0.4-0.2-0.9-0.1-1.4
				c0.2-0.5,0.5-0.8,0.9-1l0.3-0.1c0.3-0.1,0.5-0.2,0.8-0.2c0.7,0,1.3,0.4,1.7,1c0.2,0.4,0.2,0.9,0.1,1.4c-0.2,0.5-0.5,0.8-0.9,1.1
				l-0.3,0.1C334.8,318.5,334.6,318.6,334.3,318.6z M266.5,317c-0.3,0-0.6-0.1-0.9-0.2l-0.3-0.2c-0.9-0.5-1.2-1.6-0.7-2.5
				c0.3-0.6,0.9-1,1.6-1c0.3,0,0.6,0.1,0.9,0.2l0.3,0.1c0.4,0.2,0.7,0.6,0.9,1.1c0.1,0.5,0.1,1-0.1,1.4
				C267.8,316.6,267.2,317,266.5,317z M339.9,315.5c-0.6,0-1.3-0.3-1.6-0.9c-0.3-0.4-0.3-0.9-0.2-1.4c0.1-0.5,0.4-0.9,0.8-1.1
				l0.3-0.2c0.3-0.2,0.6-0.3,0.9-0.3c0.6,0,1.2,0.3,1.6,0.9c0.5,0.9,0.2,2-0.6,2.5l-0.3,0.2C340.6,315.4,340.3,315.5,339.9,315.5z
				 M261,313.7c-0.4,0-0.7-0.1-1-0.3l-0.3-0.2c-0.8-0.6-1.1-1.7-0.5-2.5c0.3-0.5,0.9-0.8,1.5-0.8c0.4,0,0.7,0.1,1,0.3l0.3,0.2
				c0.8,0.6,1.1,1.7,0.5,2.5C262.2,313.4,261.6,313.7,261,313.7z M345.3,312c-0.6,0-1.2-0.3-1.5-0.8c-0.3-0.4-0.4-0.9-0.3-1.4
				c0.1-0.5,0.3-0.9,0.7-1.2l0.2-0.2c0.3-0.2,0.7-0.3,1.1-0.3c0.6,0,1.1,0.3,1.5,0.8c0.6,0.8,0.4,2-0.4,2.6l-0.3,0.2
				C346.1,311.9,345.7,312,345.3,312z M255.8,309.9c-0.4,0-0.8-0.1-1.1-0.4l-0.2-0.2c-0.4-0.3-0.6-0.7-0.7-1.2
				c-0.1-0.5,0.1-1,0.4-1.4c0.4-0.4,0.9-0.7,1.4-0.7c0.4,0,0.8,0.1,1.1,0.4l0.2,0.2c0.8,0.6,0.9,1.8,0.3,2.6
				C256.9,309.7,256.3,309.9,255.8,309.9z M350.4,308.1c-0.5,0-1-0.2-1.4-0.6c-0.3-0.4-0.5-0.8-0.4-1.3c0-0.5,0.3-0.9,0.6-1.3
				l0.2-0.2c0.3-0.3,0.8-0.4,1.2-0.4c0.5,0,1,0.2,1.4,0.6c0.7,0.8,0.6,1.9-0.2,2.6l-0.2,0.2C351.2,307.9,350.8,308.1,350.4,308.1z
				 M250.9,305.8c-0.5,0-0.9-0.2-1.3-0.5l-0.2-0.2c-0.4-0.3-0.6-0.8-0.6-1.3c0-0.5,0.2-1,0.5-1.3c0.3-0.4,0.8-0.6,1.3-0.6
				c0.5,0,0.9,0.2,1.3,0.5l0.2,0.2c0.7,0.7,0.8,1.9,0.1,2.6C251.9,305.5,251.4,305.8,250.9,305.8z M355.1,303.7
				c-0.5,0-0.9-0.2-1.3-0.5c-0.3-0.3-0.5-0.8-0.5-1.3c0-0.5,0.2-1,0.5-1.3l0.2-0.2c0.3-0.4,0.8-0.6,1.3-0.6c0.5,0,0.9,0.2,1.3,0.5
				c0.4,0.3,0.5,0.8,0.6,1.3c0,0.5-0.2,1-0.5,1.3l-0.2,0.2C356,303.5,355.6,303.7,355.1,303.7z M246.4,301.2c-0.5,0-1-0.2-1.4-0.6
				l-0.2-0.2c-0.7-0.8-0.6-1.9,0.1-2.6c0.3-0.3,0.8-0.5,1.2-0.5c0.5,0,1,0.2,1.4,0.6l0.2,0.2c0.7,0.8,0.6,1.9-0.1,2.6
				C247.3,301,246.9,301.2,246.4,301.2z M359.4,298.9c-0.4,0-0.8-0.2-1.2-0.4c-0.8-0.6-0.9-1.8-0.2-2.6l0.2-0.2
				c0.4-0.4,0.9-0.7,1.4-0.7c0.4,0,0.8,0.1,1.2,0.4c0.4,0.3,0.6,0.8,0.7,1.2c0,0.5-0.1,1-0.4,1.3l-0.2,0.2
				C360.5,298.7,359.9,298.9,359.4,298.9z M242.3,296.2c-0.6,0-1.1-0.3-1.5-0.7l-0.2-0.2c-0.6-0.8-0.4-2,0.4-2.6
				c0.3-0.2,0.7-0.4,1.1-0.4c0.6,0,1.1,0.3,1.5,0.7l0.2,0.2c0.6,0.8,0.4,2-0.4,2.6C243.1,296.1,242.7,296.2,242.3,296.2z
				 M363.3,293.8c-0.4,0-0.7-0.1-1-0.3c-0.4-0.3-0.7-0.7-0.8-1.2c-0.1-0.5,0-1,0.3-1.4l0.2-0.2c0.3-0.5,0.9-0.8,1.5-0.8
				c0.4,0,0.7,0.1,1,0.3c0.4,0.3,0.7,0.7,0.8,1.2c0.1,0.5,0,1-0.3,1.4l-0.2,0.3C364.5,293.5,363.9,293.8,363.3,293.8z M238.7,290.9
				c-0.6,0-1.2-0.3-1.6-0.9l-0.2-0.3c-0.5-0.9-0.3-2,0.6-2.5c0.3-0.2,0.6-0.3,1-0.3c0.6,0,1.2,0.3,1.6,0.9l0.2,0.3
				c0.5,0.9,0.3,2-0.6,2.5C239.4,290.8,239,290.9,238.7,290.9z M366.7,288.4c-0.3,0-0.6-0.1-0.9-0.2c-0.9-0.5-1.2-1.6-0.7-2.5
				l0.1-0.3c0.3-0.6,0.9-0.9,1.6-0.9c0.3,0,0.6,0.1,0.9,0.2c0.4,0.2,0.7,0.6,0.9,1.1c0.1,0.5,0.1,1-0.2,1.4l-0.2,0.3
				C368,288,367.4,288.4,366.7,288.4z M235.5,285.4c-0.7,0-1.3-0.4-1.6-1l-0.1-0.3c-0.5-0.9-0.1-2,0.8-2.5c0.3-0.1,0.5-0.2,0.8-0.2
				c0.7,0,1.3,0.4,1.6,1l0.1,0.3c0.5,0.9,0.1,2-0.8,2.5C236.1,285.3,235.8,285.4,235.5,285.4z M369.7,282.7c-0.3,0-0.5-0.1-0.8-0.2
				c-0.9-0.4-1.3-1.5-0.9-2.4l0.1-0.3c0.3-0.6,1-1.1,1.7-1.1c0.3,0,0.5,0.1,0.8,0.2c0.4,0.2,0.8,0.6,1,1c0.2,0.5,0.2,1-0.1,1.4
				l-0.1,0.3C371,282.3,370.4,282.7,369.7,282.7z M232.8,279.5c-0.8,0-1.4-0.4-1.7-1.1l-0.1-0.3c-0.2-0.5-0.2-1,0-1.4
				c0.2-0.5,0.5-0.8,1-1c0.2-0.1,0.5-0.1,0.7-0.1c0.8,0,1.4,0.5,1.7,1.1l0.1,0.3c0.2,0.5,0.2,1,0,1.4c-0.2,0.5-0.5,0.8-1,1
				C233.3,279.5,233,279.5,232.8,279.5z M372.1,276.7c-0.2,0-0.4,0-0.6-0.1c-1-0.3-1.4-1.4-1.1-2.4l0.1-0.3c0.3-0.7,1-1.2,1.7-1.2
				c0.2,0,0.4,0,0.6,0.1c1,0.3,1.4,1.4,1.1,2.4l-0.1,0.3C373.6,276.3,372.9,276.7,372.1,276.7z M230.6,273.5c-0.8,0-1.5-0.5-1.8-1.3
				l-0.1-0.3c-0.1-0.5-0.1-1,0.1-1.4c0.2-0.4,0.6-0.8,1.1-0.9c0.2-0.1,0.4-0.1,0.5-0.1c0.8,0,1.5,0.5,1.8,1.3l0.1,0.3
				c0.3,1-0.2,2-1.2,2.3C231,273.5,230.8,273.5,230.6,273.5z M374.1,270.6c-0.2,0-0.3,0-0.5-0.1c-1-0.3-1.6-1.3-1.3-2.2l0.1-0.3
				c0.2-0.8,0.9-1.4,1.8-1.4c0.2,0,0.3,0,0.5,0.1c1,0.3,1.6,1.3,1.3,2.2l-0.1,0.3C375.6,270.1,374.9,270.6,374.1,270.6z M229,267.3
				c-0.9,0-1.6-0.6-1.8-1.4l-0.1-0.3c-0.1-0.5,0-1,0.3-1.4c0.3-0.4,0.7-0.7,1.2-0.8c0.1,0,0.3,0,0.4,0c0.9,0,1.6,0.6,1.8,1.5
				l0.1,0.3c0.1,0.5,0,1-0.2,1.4c-0.3,0.4-0.7,0.7-1.2,0.8C229.2,267.3,229.1,267.3,229,267.3z M375.5,264.3c-0.1,0-0.2,0-0.3,0
				c-0.5-0.1-0.9-0.4-1.2-0.8c-0.3-0.4-0.4-0.9-0.3-1.4l0.1-0.3c0.2-0.9,0.9-1.5,1.8-1.5c0.1,0,0.2,0,0.3,0c0.5,0.1,0.9,0.4,1.2,0.8
				c0.3,0.4,0.4,0.9,0.3,1.4l-0.1,0.3C377.1,263.7,376.3,264.3,375.5,264.3z M227.9,260.9c-0.9,0-1.7-0.7-1.8-1.6l0-0.3
				c-0.1-0.5,0.1-1,0.4-1.4s0.7-0.6,1.2-0.7c0.1,0,0.2,0,0.2,0c0.9,0,1.7,0.7,1.8,1.6l0,0.3c0.1,0.5-0.1,1-0.4,1.4
				c-0.3,0.4-0.7,0.6-1.2,0.7C228,260.9,228,260.9,227.9,260.9z M376.3,258c-0.1,0-0.1,0-0.2,0c-0.5,0-0.9-0.3-1.2-0.7
				c-0.3-0.4-0.5-0.9-0.4-1.3l0-0.3c0.1-0.9,0.9-1.7,1.8-1.7c0.1,0,0.1,0,0.2,0c1,0.1,1.8,1,1.7,2l0,0.3
				C378,257.3,377.3,258,376.3,258z M227.3,254.5c-1,0-1.8-0.8-1.8-1.8l0-0.3c0-1,0.8-1.9,1.8-1.9c0,0,0.1,0,0.1,0
				c1,0,1.8,0.8,1.8,1.8l0,0.3c0,0.5-0.2,1-0.5,1.3C228.4,254.3,227.9,254.5,227.3,254.5C227.4,254.5,227.4,254.5,227.3,254.5z
				 M376.6,251.6c-1,0-1.8-0.8-1.8-1.8l0-0.5c0-1,0.8-1.8,1.8-1.8c1,0,1.8,0.8,1.8,1.8l0,0.5C378.4,250.7,377.6,251.6,376.6,251.6
				L376.6,251.6z M227.2,248.1c-0.5,0-0.9-0.2-1.3-0.6c-0.3-0.4-0.5-0.8-0.5-1.3l0-0.3c0-1,0.9-1.8,1.8-1.8l0.1,0
				c1,0,1.8,0.9,1.8,1.9l0,0.3C229.1,247.4,228.3,248.1,227.2,248.1C227.3,248.1,227.3,248.1,227.2,248.1z M376.3,245
				c-0.9,0-1.8-0.7-1.8-1.7l0-0.3c-0.1-1,0.7-1.9,1.7-2c0.1,0,0.1,0,0.2,0c1,0,1.7,0.7,1.8,1.7l0,0.3c0,0.5-0.1,1-0.4,1.3
				c-0.3,0.4-0.8,0.6-1.3,0.6C376.4,245,376.4,245,376.3,245z M227.9,241.7c-0.1,0-0.2,0-0.2,0c-0.5-0.1-0.9-0.3-1.2-0.7
				c-0.3-0.4-0.4-0.9-0.4-1.4l0-0.3c0.1-0.9,0.9-1.6,1.8-1.6c0.1,0,0.2,0,0.2,0c1,0.1,1.7,1.1,1.6,2.1l0,0.3
				C229.6,241,228.8,241.7,227.9,241.7z M375.5,238.6c-0.9,0-1.7-0.6-1.8-1.5l-0.1-0.3c-0.1-0.5,0-1,0.3-1.4
				c0.3-0.4,0.7-0.7,1.2-0.8c0.1,0,0.2,0,0.3,0c0.9,0,1.7,0.6,1.8,1.5l0.1,0.3c0.1,0.5,0,1-0.3,1.4c-0.3,0.4-0.7,0.7-1.2,0.7
				C375.7,238.6,375.6,238.6,375.5,238.6z M229,235.4c-0.1,0-0.3,0-0.4,0c-1-0.2-1.6-1.2-1.4-2.2l0.1-0.3c0.2-0.8,0.9-1.4,1.8-1.4
				c0.1,0,0.3,0,0.4,0c0.5,0.1,0.9,0.4,1.2,0.8c0.3,0.4,0.4,0.9,0.2,1.4l-0.1,0.3C230.6,234.8,229.8,235.4,229,235.4z M374.2,232.3
				c-0.8,0-1.6-0.6-1.8-1.4l-0.1-0.3c-0.3-1,0.3-2,1.3-2.2c0.2,0,0.3-0.1,0.5-0.1c0.8,0,1.6,0.6,1.8,1.4l0.1,0.3
				c0.3,1-0.3,2-1.3,2.2C374.5,232.3,374.3,232.3,374.2,232.3z M230.6,229.2c-0.2,0-0.4,0-0.5-0.1c-0.5-0.1-0.9-0.5-1.1-0.9
				s-0.3-0.9-0.1-1.4l0.1-0.3c0.2-0.8,0.9-1.3,1.8-1.3c0.2,0,0.4,0,0.6,0.1c1,0.3,1.5,1.3,1.2,2.3l-0.1,0.3
				C232.1,228.7,231.4,229.2,230.6,229.2z M372.3,226.2c-0.8,0-1.5-0.5-1.7-1.2l-0.1-0.3c-0.2-0.5-0.1-1,0.1-1.4
				c0.2-0.4,0.6-0.8,1-0.9c0.2-0.1,0.4-0.1,0.6-0.1c0.8,0,1.5,0.5,1.7,1.2l0.1,0.3c0.3,1-0.2,2-1.1,2.3
				C372.7,226.1,372.5,226.2,372.3,226.2z M232.7,223.1c-0.2,0-0.5,0-0.7-0.1c-0.9-0.4-1.4-1.5-1-2.4l0.1-0.3c0.3-0.7,1-1.1,1.7-1.1
				c0.2,0,0.5,0,0.7,0.1c0.5,0.2,0.8,0.5,1,1c0.2,0.5,0.2,1,0,1.4l-0.1,0.3C234.2,222.7,233.5,223.1,232.7,223.1z M369.9,220.2
				c-0.7,0-1.4-0.4-1.7-1.1l-0.1-0.3c-0.4-0.9,0-2,0.9-2.4c0.2-0.1,0.5-0.2,0.8-0.2c0.7,0,1.4,0.4,1.7,1.1l0.1,0.3
				c0.2,0.4,0.2,0.9,0.1,1.4c-0.2,0.5-0.5,0.8-1,1C370.4,220.2,370.1,220.2,369.9,220.2z M235.4,217.3c-0.3,0-0.6-0.1-0.8-0.2
				c-0.4-0.2-0.8-0.6-0.9-1.1c-0.2-0.5-0.1-1,0.1-1.4l0.1-0.3c0.3-0.6,0.9-1,1.6-1c0.3,0,0.6,0.1,0.8,0.2c0.9,0.5,1.3,1.6,0.8,2.5
				l-0.1,0.3C236.7,216.9,236.1,217.3,235.4,217.3z M366.9,214.5c-0.7,0-1.3-0.4-1.6-0.9l-0.1-0.3c-0.2-0.4-0.3-0.9-0.2-1.4
				c0.1-0.5,0.4-0.9,0.9-1.1c0.3-0.2,0.6-0.2,0.9-0.2c0.7,0,1.3,0.4,1.6,0.9l0.2,0.3c0.2,0.4,0.3,0.9,0.2,1.4
				c-0.1,0.5-0.4,0.9-0.9,1.1C367.6,214.4,367.3,214.5,366.9,214.5z M238.6,211.7c-0.3,0-0.7-0.1-1-0.3c-0.4-0.3-0.7-0.7-0.8-1.1
				c-0.1-0.5,0-1,0.2-1.4l0.2-0.3c0.3-0.5,0.9-0.9,1.6-0.9c0.3,0,0.7,0.1,1,0.3c0.9,0.5,1.1,1.7,0.6,2.5l-0.2,0.3
				C239.8,211.4,239.2,211.7,238.6,211.7z M363.5,209.1c-0.6,0-1.2-0.3-1.5-0.8l-0.2-0.2c-0.6-0.8-0.4-2,0.5-2.6
				c0.3-0.2,0.7-0.3,1-0.3c0.6,0,1.2,0.3,1.5,0.8l0.2,0.3c0.6,0.8,0.4,2-0.5,2.6C364.3,209,363.9,209.1,363.5,209.1z M242.2,206.4
				c-0.4,0-0.8-0.1-1.1-0.4c-0.8-0.6-1-1.8-0.4-2.6l0.2-0.3c0.4-0.5,0.9-0.7,1.5-0.7c0.4,0,0.8,0.1,1.1,0.4c0.8,0.6,1,1.8,0.4,2.6
				l-0.2,0.2C243.4,206.1,242.8,206.4,242.2,206.4z M359.7,203.9c-0.6,0-1.1-0.2-1.4-0.7l-0.2-0.2c-0.6-0.8-0.5-1.9,0.2-2.6
				c0.3-0.3,0.7-0.4,1.2-0.4c0.6,0,1.1,0.2,1.4,0.7l0.2,0.2c0.6,0.8,0.5,1.9-0.3,2.6C360.5,203.8,360.1,203.9,359.7,203.9z
				 M246.3,201.4c-0.5,0-0.9-0.2-1.2-0.5c-0.4-0.3-0.6-0.8-0.6-1.3c0-0.5,0.1-1,0.5-1.3l0.2-0.2c0.3-0.4,0.8-0.6,1.4-0.6
				c0.5,0,0.9,0.2,1.2,0.5c0.8,0.7,0.8,1.8,0.1,2.6l-0.2,0.2C247.3,201.2,246.8,201.4,246.3,201.4z M355.4,199.1
				c-0.5,0-1-0.2-1.3-0.6l-0.2-0.2c-0.3-0.3-0.5-0.8-0.5-1.3c0-0.5,0.2-1,0.5-1.3c0.3-0.3,0.8-0.5,1.3-0.5c0.5,0,1,0.2,1.3,0.5
				l0.2,0.2c0.3,0.4,0.5,0.8,0.5,1.3c0,0.5-0.2,1-0.6,1.3C356.3,199,355.9,199.1,355.4,199.1z M250.8,196.8c-0.5,0-1-0.2-1.3-0.6
				c-0.3-0.4-0.5-0.8-0.5-1.3c0-0.5,0.2-0.9,0.6-1.3l0.2-0.2c0.3-0.3,0.8-0.5,1.3-0.5c0.5,0,1,0.2,1.3,0.6c0.7,0.7,0.7,1.9-0.1,2.6
				l-0.2,0.2C251.7,196.7,251.3,196.8,250.8,196.8z M350.7,194.7c-0.4,0-0.9-0.2-1.2-0.4l-0.2-0.2c-0.8-0.7-0.9-1.8-0.2-2.6
				c0.3-0.4,0.9-0.6,1.4-0.6c0.4,0,0.9,0.2,1.2,0.4l0.2,0.2c0.8,0.7,0.9,1.8,0.2,2.6C351.8,194.5,351.3,194.7,350.7,194.7z
				 M255.7,192.6c-0.6,0-1.1-0.3-1.4-0.7c-0.3-0.4-0.4-0.9-0.4-1.4c0.1-0.5,0.3-0.9,0.7-1.2l0.2-0.2c0.3-0.3,0.7-0.4,1.1-0.4
				c0.6,0,1.1,0.3,1.4,0.7c0.6,0.8,0.5,2-0.3,2.6l-0.2,0.2C256.5,192.5,256.1,192.6,255.7,192.6z M345.7,190.8
				c-0.4,0-0.8-0.1-1.1-0.3l-0.2-0.2c-0.8-0.6-1-1.7-0.4-2.6c0.3-0.5,0.9-0.8,1.5-0.8c0.4,0,0.8,0.1,1.1,0.3l0.3,0.2
				c0.8,0.6,1,1.7,0.4,2.6C346.8,190.5,346.3,190.8,345.7,190.8z M260.9,188.9c-0.6,0-1.2-0.3-1.5-0.8c-0.3-0.4-0.4-0.9-0.3-1.4
				c0.1-0.5,0.4-0.9,0.8-1.2l0.3-0.2c0.3-0.2,0.6-0.3,1-0.3c0.6,0,1.2,0.3,1.5,0.8c0.6,0.8,0.3,2-0.5,2.5l-0.2,0.2
				C261.6,188.8,261.2,188.9,260.9,188.9z M340.3,187.2c-0.3,0-0.7-0.1-0.9-0.3l-0.3-0.2c-0.9-0.5-1.2-1.6-0.6-2.5
				c0.3-0.6,0.9-0.9,1.6-0.9c0.3,0,0.7,0.1,0.9,0.3l0.3,0.2c0.9,0.5,1.2,1.7,0.6,2.5C341.6,186.9,341,187.2,340.3,187.2z
				 M266.4,185.6c-0.7,0-1.3-0.4-1.6-1c-0.2-0.4-0.3-0.9-0.1-1.4c0.1-0.5,0.5-0.9,0.9-1.1l0.3-0.1c0.3-0.1,0.6-0.2,0.9-0.2
				c0.7,0,1.3,0.4,1.6,1c0.5,0.9,0.1,2-0.7,2.5l-0.3,0.1C267,185.5,266.7,185.6,266.4,185.6z M334.7,184.1c-0.3,0-0.6-0.1-0.8-0.2
				l-0.3-0.1c-0.9-0.4-1.3-1.5-0.9-2.5c0.3-0.6,1-1,1.7-1c0.3,0,0.5,0.1,0.8,0.2l0.3,0.1c0.9,0.4,1.3,1.6,0.8,2.5
				C336,183.7,335.4,184.1,334.7,184.1z M272.1,182.8c-0.7,0-1.4-0.4-1.7-1.1c-0.4-0.9,0-2,1-2.4l0.3-0.1c0.2-0.1,0.5-0.2,0.7-0.2
				c0.7,0,1.4,0.4,1.7,1.1c0.2,0.5,0.2,1,0,1.4c-0.2,0.5-0.5,0.8-1,1l-0.3,0.1C272.6,182.7,272.4,182.8,272.1,182.8z M328.8,181.6
				c-0.2,0-0.5,0-0.7-0.1l-0.3-0.1c-0.5-0.2-0.8-0.5-1-1c-0.2-0.4-0.2-0.9,0-1.4c0.3-0.7,1-1.2,1.7-1.2c0.2,0,0.4,0,0.7,0.1l0.3,0.1
				c0.9,0.4,1.4,1.4,1.1,2.4C330.2,181.1,329.6,181.6,328.8,181.6z M278.1,180.5c-0.8,0-1.5-0.5-1.7-1.3c-0.3-1,0.2-2,1.2-2.3
				l0.3-0.1c0.2-0.1,0.4-0.1,0.6-0.1c0.8,0,1.5,0.5,1.7,1.3c0.2,0.5,0.1,1-0.1,1.4c-0.2,0.4-0.6,0.8-1.1,0.9l-0.3,0.1
				C278.5,180.4,278.3,180.5,278.1,180.5z M322.7,179.5c-0.2,0-0.3,0-0.5-0.1l-0.3-0.1c-1-0.3-1.5-1.3-1.3-2.3
				c0.2-0.8,1-1.3,1.8-1.3c0.2,0,0.3,0,0.5,0.1l0.3,0.1c0.5,0.1,0.9,0.4,1.1,0.9c0.2,0.4,0.3,0.9,0.2,1.4
				C324.3,179,323.5,179.5,322.7,179.5z M284.3,178.7c-0.9,0-1.6-0.6-1.8-1.4c-0.1-0.5,0-1,0.2-1.4c0.3-0.4,0.7-0.7,1.1-0.8l0.3-0.1
				c0.1,0,0.3-0.1,0.4-0.1c0.9,0,1.6,0.6,1.8,1.4c0.1,0.5,0,1-0.2,1.4c-0.3,0.4-0.7,0.7-1.1,0.8l-0.3,0.1
				C284.6,178.7,284.4,178.7,284.3,178.7z M316.5,178c-0.1,0-0.2,0-0.4,0l-0.3-0.1c-0.5-0.1-0.9-0.4-1.2-0.8
				c-0.3-0.4-0.4-0.9-0.3-1.4c0.2-0.9,0.9-1.5,1.8-1.5c0.1,0,0.2,0,0.4,0l0.3,0.1c0.5,0.1,0.9,0.4,1.2,0.8c0.3,0.4,0.4,0.9,0.3,1.4
				C318.1,177.4,317.3,178,316.5,178z M290.6,177.4c-0.9,0-1.7-0.7-1.8-1.6c-0.2-1,0.5-1.9,1.5-2.1l0.3,0c0.1,0,0.2,0,0.3,0
				c0.9,0,1.7,0.7,1.8,1.6c0.1,1-0.5,1.9-1.5,2.1l-0.3,0C290.8,177.4,290.7,177.4,290.6,177.4z M310.1,177c-0.1,0-0.1,0-0.2,0
				l-0.3,0c-1-0.1-1.7-1-1.6-2c0.1-0.9,0.9-1.6,1.8-1.6c0.1,0,0.1,0,0.2,0l0.3,0c1,0.1,1.7,1,1.6,2C311.8,176.3,311.1,177,310.1,177
				z M297,176.7c-1,0-1.8-0.8-1.8-1.7c0-0.5,0.1-1,0.5-1.3c0.3-0.4,0.8-0.6,1.3-0.6l0.3,0c0,0,0.1,0,0.1,0c1,0,1.8,0.8,1.8,1.7
				c0,0.5-0.1,1-0.5,1.3c-0.3,0.4-0.8,0.6-1.3,0.6l-0.3,0C297.1,176.7,297,176.7,297,176.7z M303.4,176.6c-1,0-1.8-0.9-1.8-1.9
				c0-1,0.8-1.8,1.8-1.8c0,0,0.3,0,0.3,0c1,0,1.8,0.9,1.8,1.9c0,1-0.8,1.8-1.8,1.8C303.7,176.6,303.4,176.6,303.4,176.6z"/>
			<linearGradient id="SVGID_138_" gradientUnits="userSpaceOnUse" x1="301.9583" y1="325.2962" x2="301.9583" y2="173.5393">
				<stop  offset="0" style="stop-color:#FFBD4C"/>
				<stop  offset="1" style="stop-color:#FFF575"/>
			</linearGradient>
			<path class="st141" d="M303.3,325.3c-0.7,0-1.2-0.5-1.2-1.2c0-0.7,0.5-1.2,1.2-1.2l0.3,0c0,0,0,0,0,0c0.7,0,1.2,0.5,1.2,1.2
				c0,0.7-0.5,1.2-1.2,1.2L303.3,325.3C303.3,325.3,303.3,325.3,303.3,325.3z M297.2,325.2C297.1,325.2,297.1,325.2,297.2,325.2
				l-0.4,0c-0.7,0-1.2-0.6-1.1-1.3c0-0.7,0.6-1.2,1.3-1.1l0.3,0c0.7,0,1.2,0.6,1.1,1.3C298.3,324.7,297.8,325.2,297.2,325.2z
				 M309.7,324.9c-0.6,0-1.2-0.5-1.2-1.1c-0.1-0.7,0.4-1.3,1.1-1.3l0.3,0c0.7-0.1,1.3,0.4,1.3,1.1c0.1,0.7-0.4,1.3-1.1,1.3l-0.3,0
				C309.8,324.9,309.7,324.9,309.7,324.9z M290.8,324.5c-0.1,0-0.1,0-0.2,0l-0.3,0c-0.7-0.1-1.1-0.7-1-1.4c0.1-0.7,0.7-1.1,1.4-1
				l0.3,0c0.7,0.1,1.1,0.7,1,1.4C291.9,324,291.4,324.5,290.8,324.5z M316,324c-0.6,0-1.1-0.4-1.2-1c-0.1-0.7,0.3-1.3,1-1.4l0.3-0.1
				c0.7-0.1,1.3,0.3,1.4,1c0.1,0.7-0.3,1.3-1,1.4l-0.3,0.1C316.2,324,316.1,324,316,324z M284.5,323.3c-0.1,0-0.2,0-0.3,0l-0.3-0.1
				c-0.7-0.2-1.1-0.8-0.9-1.5c0.2-0.7,0.8-1.1,1.5-0.9l0.3,0.1c0.7,0.2,1.1,0.8,0.9,1.5C285.5,322.9,285,323.3,284.5,323.3z
				 M322.3,322.5c-0.5,0-1-0.4-1.2-0.9c-0.2-0.7,0.2-1.3,0.8-1.5l0.3-0.1c0.7-0.2,1.3,0.2,1.5,0.8c0.2,0.7-0.2,1.3-0.8,1.5l-0.3,0.1
				C322.5,322.5,322.4,322.5,322.3,322.5z M278.3,321.5c-0.1,0-0.3,0-0.4-0.1l-0.3-0.1c-0.6-0.2-1-0.9-0.8-1.6
				c0.2-0.6,0.9-1,1.6-0.8l0.3,0.1c0.6,0.2,1,0.9,0.8,1.5C279.3,321.2,278.8,321.5,278.3,321.5z M328.4,320.5c-0.5,0-1-0.3-1.1-0.8
				c-0.2-0.6,0.1-1.3,0.7-1.6l0.3-0.1c0.6-0.2,1.3,0.1,1.6,0.7c0.2,0.6-0.1,1.3-0.7,1.6l-0.3,0.1
				C328.7,320.5,328.5,320.5,328.4,320.5z M272.3,319.2c-0.2,0-0.3,0-0.5-0.1l-0.3-0.1c-0.6-0.3-0.9-1-0.6-1.6
				c0.3-0.6,1-0.9,1.6-0.6l0.3,0.1c0.6,0.3,0.9,1,0.6,1.6C273.2,318.9,272.8,319.2,272.3,319.2z M334.3,318c-0.5,0-0.9-0.3-1.1-0.7
				c-0.3-0.6,0-1.3,0.6-1.6l0.3-0.1c0.6-0.3,1.3,0,1.6,0.6c0.3,0.6,0,1.3-0.6,1.6l-0.3,0.1C334.6,317.9,334.5,318,334.3,318z
				 M266.5,316.4c-0.2,0-0.4,0-0.6-0.1l-0.3-0.2c-0.6-0.3-0.8-1.1-0.5-1.7c0.3-0.6,1.1-0.8,1.7-0.5l0.3,0.1c0.6,0.3,0.8,1.1,0.5,1.7
				C267.4,316.2,266.9,316.4,266.5,316.4z M339.9,314.9c-0.4,0-0.8-0.2-1.1-0.6c-0.3-0.6-0.2-1.3,0.4-1.7l0.3-0.2
				c0.6-0.3,1.3-0.2,1.7,0.4c0.3,0.6,0.2,1.3-0.4,1.7l-0.3,0.2C340.4,314.9,340.2,314.9,339.9,314.9z M261,313.1
				c-0.2,0-0.5-0.1-0.7-0.2l-0.3-0.2c-0.6-0.4-0.7-1.1-0.3-1.7c0.4-0.6,1.1-0.7,1.7-0.3l0.3,0.2c0.6,0.4,0.7,1.1,0.3,1.7
				C261.8,312.9,261.4,313.1,261,313.1z M345.3,311.4c-0.4,0-0.8-0.2-1-0.5c-0.4-0.6-0.3-1.3,0.3-1.7l0.2-0.2
				c0.5-0.4,1.3-0.3,1.7,0.3c0.4,0.5,0.3,1.3-0.3,1.7l-0.3,0.2C345.8,311.3,345.6,311.4,345.3,311.4z M255.8,309.3
				c-0.3,0-0.5-0.1-0.8-0.3l-0.2-0.2c-0.5-0.4-0.6-1.2-0.2-1.7c0.4-0.5,1.2-0.6,1.7-0.2l0.2,0.2c0.5,0.4,0.6,1.2,0.2,1.7
				C256.5,309.2,256.1,309.3,255.8,309.3z M350.4,307.5c-0.3,0-0.7-0.1-0.9-0.4c-0.4-0.5-0.4-1.3,0.1-1.7l0.2-0.2
				c0.5-0.4,1.3-0.4,1.7,0.1c0.4,0.5,0.4,1.3-0.1,1.7l-0.2,0.2C350.9,307.4,350.7,307.5,350.4,307.5z M250.9,305.1
				c-0.3,0-0.6-0.1-0.8-0.3l-0.2-0.2c-0.5-0.5-0.5-1.2,0-1.7c0.5-0.5,1.2-0.5,1.7,0l0.2,0.2c0.5,0.5,0.5,1.2,0.1,1.7
				C251.6,305,251.2,305.1,250.9,305.1z M355.1,303.1c-0.3,0-0.6-0.1-0.9-0.4c-0.5-0.5-0.5-1.2,0-1.7l0.2-0.2c0.5-0.5,1.2-0.5,1.7,0
				c0.5,0.5,0.5,1.2,0,1.7l-0.2,0.2C355.7,303,355.4,303.1,355.1,303.1z M246.4,300.6c-0.3,0-0.7-0.1-0.9-0.4l-0.2-0.2
				c-0.5-0.5-0.4-1.3,0.1-1.7c0.5-0.5,1.3-0.4,1.7,0.1l0.2,0.2c0.5,0.5,0.4,1.3-0.1,1.7C247,300.5,246.7,300.6,246.4,300.6z
				 M359.4,298.3c-0.3,0-0.6-0.1-0.8-0.3c-0.5-0.4-0.6-1.2-0.2-1.7l0.2-0.2c0.4-0.5,1.2-0.6,1.7-0.2c0.5,0.4,0.6,1.2,0.2,1.7
				l-0.2,0.2C360.1,298.2,359.7,298.3,359.4,298.3z M242.3,295.6c-0.4,0-0.7-0.2-1-0.5l-0.2-0.2c-0.4-0.5-0.3-1.3,0.2-1.7
				c0.5-0.4,1.3-0.3,1.7,0.2l0.2,0.2c0.4,0.5,0.3,1.3-0.2,1.7C242.8,295.5,242.6,295.6,242.3,295.6z M363.3,293.2
				c-0.2,0-0.5-0.1-0.7-0.2c-0.6-0.4-0.7-1.1-0.3-1.7l0.2-0.2c0.4-0.6,1.1-0.7,1.7-0.3c0.6,0.4,0.7,1.1,0.3,1.7l-0.2,0.3
				C364.1,293,363.7,293.2,363.3,293.2z M238.7,290.3c-0.4,0-0.8-0.2-1-0.6l-0.2-0.3c-0.4-0.6-0.2-1.3,0.4-1.7
				c0.6-0.4,1.3-0.2,1.7,0.4l0.2,0.3c0.4,0.6,0.2,1.3-0.4,1.7C239.1,290.3,238.9,290.3,238.7,290.3z M366.7,287.8
				c-0.2,0-0.4-0.1-0.6-0.2c-0.6-0.3-0.8-1.1-0.5-1.7l0.1-0.3c0.3-0.6,1.1-0.8,1.7-0.5c0.6,0.3,0.8,1.1,0.5,1.7l-0.2,0.3
				C367.6,287.6,367.1,287.8,366.7,287.8z M235.5,284.7c-0.4,0-0.9-0.2-1.1-0.7l-0.1-0.3c-0.3-0.6-0.1-1.3,0.5-1.6
				c0.6-0.3,1.3-0.1,1.6,0.5l0.1,0.3c0.3,0.6,0.1,1.3-0.5,1.7C235.9,284.7,235.7,284.7,235.5,284.7z M369.7,282.1
				c-0.2,0-0.3,0-0.5-0.1c-0.6-0.3-0.9-1-0.6-1.6l0.1-0.3c0.3-0.6,1-0.9,1.6-0.6c0.6,0.3,0.9,1,0.6,1.6l-0.1,0.3
				C370.6,281.8,370.1,282.1,369.7,282.1z M232.8,278.9c-0.5,0-0.9-0.3-1.1-0.8l-0.1-0.3c-0.3-0.6,0-1.3,0.7-1.6
				c0.6-0.3,1.3,0,1.6,0.7l0.1,0.3c0.3,0.6,0,1.3-0.7,1.6C233.1,278.9,233,278.9,232.8,278.9z M372.1,276.1c-0.1,0-0.3,0-0.4-0.1
				c-0.6-0.2-1-0.9-0.7-1.6l0.1-0.3c0.2-0.6,0.9-1,1.6-0.7c0.6,0.2,1,0.9,0.7,1.6l-0.1,0.3C373.1,275.8,372.6,276.1,372.1,276.1z
				 M230.6,272.9c-0.5,0-1-0.3-1.2-0.9l-0.1-0.3c-0.2-0.6,0.2-1.3,0.8-1.5c0.6-0.2,1.3,0.2,1.5,0.8l0.1,0.3c0.2,0.6-0.2,1.3-0.8,1.5
				C230.9,272.9,230.7,272.9,230.6,272.9z M374.1,270c-0.1,0-0.2,0-0.3,0c-0.7-0.2-1-0.8-0.9-1.5l0.1-0.3c0.2-0.7,0.8-1,1.5-0.9
				c0.7,0.2,1,0.8,0.9,1.5l-0.1,0.3C375.1,269.6,374.6,270,374.1,270z M229,266.7c-0.6,0-1.1-0.4-1.2-1l-0.1-0.3
				c-0.1-0.7,0.3-1.3,0.9-1.5c0.7-0.1,1.3,0.3,1.5,0.9l0.1,0.3c0.1,0.7-0.3,1.3-0.9,1.5C229.2,266.7,229.1,266.7,229,266.7z
				 M375.5,263.7c-0.1,0-0.1,0-0.2,0c-0.7-0.1-1.1-0.8-1-1.4l0.1-0.3c0.1-0.7,0.8-1.1,1.4-1c0.7,0.1,1.1,0.7,1,1.4l-0.1,0.3
				C376.6,263.3,376,263.7,375.5,263.7z M227.9,260.3c-0.6,0-1.1-0.4-1.2-1.1l0-0.3c-0.1-0.7,0.4-1.3,1.1-1.4
				c0.7-0.1,1.3,0.4,1.4,1.1l0,0.3c0.1,0.7-0.4,1.3-1.1,1.4C228,260.3,227.9,260.3,227.9,260.3z M376.3,257.4c0,0-0.1,0-0.1,0
				c-0.7-0.1-1.2-0.7-1.1-1.3l0-0.3c0.1-0.7,0.7-1.2,1.3-1.1c0.7,0.1,1.2,0.7,1.1,1.3l0,0.3C377.5,256.9,376.9,257.4,376.3,257.4z
				 M227.3,253.9c-0.7,0-1.2-0.5-1.2-1.2l0-0.3c0-0.7,0.5-1.2,1.2-1.3c0.7,0,1.2,0.5,1.3,1.2l0,0.3
				C228.6,253.3,228.1,253.9,227.3,253.9C227.4,253.9,227.4,253.9,227.3,253.9z M376.6,250.9L376.6,250.9c-0.7,0-1.2-0.6-1.2-1.2
				l0-0.3l0-0.2c0-0.7,0.5-1.2,1.2-1.2c0.7,0,1.2,0.5,1.2,1.2l0,0.2l0,0.3C377.8,250.4,377.3,250.9,376.6,250.9z M227.3,247.5
				C227.3,247.5,227.3,247.5,227.3,247.5c-0.7,0-1.3-0.6-1.2-1.3l0-0.3c0-0.7,0.6-1.2,1.3-1.2c0.7,0,1.2,0.6,1.2,1.3l0,0.3
				C228.5,247,228,247.5,227.3,247.5z M376.3,244.4c-0.6,0-1.2-0.5-1.2-1.1l0-0.3c-0.1-0.7,0.4-1.3,1.1-1.3c0.7-0.1,1.3,0.4,1.3,1.1
				l0,0.3c0.1,0.7-0.4,1.3-1.1,1.3C376.4,244.4,376.4,244.4,376.3,244.4z M227.9,241.1c-0.1,0-0.1,0-0.2,0c-0.7-0.1-1.1-0.7-1.1-1.4
				l0-0.3c0.1-0.7,0.7-1.1,1.4-1.1c0.7,0.1,1.1,0.7,1.1,1.4l0,0.3C229,240.7,228.5,241.1,227.9,241.1z M375.5,238
				c-0.6,0-1.1-0.4-1.2-1l-0.1-0.3c-0.1-0.7,0.3-1.3,1-1.4c0.7-0.1,1.3,0.3,1.4,1l0.1,0.3c0.1,0.7-0.3,1.3-1,1.4
				C375.7,238,375.6,238,375.5,238z M229,234.8c-0.1,0-0.2,0-0.3,0c-0.7-0.1-1.1-0.8-0.9-1.5l0.1-0.3c0.1-0.7,0.8-1.1,1.5-0.9
				c0.7,0.1,1.1,0.8,0.9,1.5l-0.1,0.3C230,234.4,229.5,234.8,229,234.8z M374.2,231.7c-0.5,0-1-0.4-1.2-0.9l-0.1-0.3
				c-0.2-0.7,0.2-1.3,0.9-1.5c0.7-0.2,1.3,0.2,1.5,0.9l0.1,0.3c0.2,0.7-0.2,1.3-0.9,1.5C374.4,231.7,374.3,231.7,374.2,231.7z
				 M230.6,228.6c-0.1,0-0.2,0-0.4-0.1c-0.6-0.2-1-0.9-0.8-1.5l0.1-0.3c0.2-0.6,0.9-1,1.5-0.8c0.6,0.2,1,0.9,0.8,1.5l-0.1,0.3
				C231.6,228.2,231.1,228.6,230.6,228.6z M372.3,225.6c-0.5,0-1-0.3-1.2-0.8l-0.1-0.3c-0.2-0.6,0.1-1.3,0.7-1.6
				c0.6-0.2,1.3,0.1,1.6,0.7l0.1,0.3c0.2,0.6-0.1,1.3-0.7,1.6C372.6,225.5,372.4,225.6,372.3,225.6z M232.7,222.5
				c-0.2,0-0.3,0-0.5-0.1c-0.6-0.3-0.9-1-0.7-1.6l0.1-0.3c0.3-0.6,1-0.9,1.6-0.7c0.6,0.3,0.9,1,0.7,1.6l-0.1,0.3
				C233.7,222.2,233.2,222.5,232.7,222.5z M369.9,219.6c-0.5,0-0.9-0.3-1.1-0.7l-0.1-0.3c-0.3-0.6,0-1.3,0.6-1.6
				c0.6-0.3,1.3,0,1.6,0.6l0.1,0.3c0.3,0.6,0,1.3-0.6,1.6C370.2,219.6,370,219.6,369.9,219.6z M235.4,216.7c-0.2,0-0.4,0-0.6-0.1
				c-0.6-0.3-0.8-1-0.5-1.6l0.1-0.3c0.3-0.6,1-0.8,1.7-0.5c0.6,0.3,0.8,1,0.5,1.7l-0.1,0.3C236.3,216.4,235.9,216.7,235.4,216.7z
				 M366.9,213.9c-0.4,0-0.8-0.2-1.1-0.6l-0.1-0.3c-0.3-0.6-0.1-1.3,0.5-1.7c0.6-0.3,1.3-0.1,1.7,0.5l0.2,0.3
				c0.3,0.6,0.1,1.3-0.5,1.7C367.4,213.9,367.2,213.9,366.9,213.9z M238.6,211.1c-0.2,0-0.4-0.1-0.6-0.2c-0.6-0.4-0.7-1.1-0.4-1.7
				l0.2-0.3c0.4-0.6,1.1-0.7,1.7-0.4c0.6,0.4,0.7,1.1,0.4,1.7l-0.2,0.3C239.4,210.9,239,211.1,238.6,211.1z M363.5,208.5
				c-0.4,0-0.8-0.2-1-0.5l-0.2-0.2c-0.4-0.6-0.2-1.3,0.3-1.7c0.6-0.4,1.3-0.2,1.7,0.3l0.2,0.3c0.4,0.6,0.2,1.3-0.3,1.7
				C364,208.4,363.8,208.5,363.5,208.5z M242.2,205.8c-0.3,0-0.5-0.1-0.7-0.2c-0.5-0.4-0.7-1.2-0.2-1.7l0.2-0.2
				c0.4-0.5,1.2-0.6,1.7-0.2c0.5,0.4,0.6,1.2,0.2,1.7l-0.2,0.2C243,205.6,242.6,205.8,242.2,205.8z M359.7,203.3
				c-0.4,0-0.7-0.2-0.9-0.5l-0.2-0.2c-0.4-0.5-0.4-1.3,0.2-1.7c0.5-0.4,1.3-0.4,1.7,0.2l0.2,0.2c0.4,0.5,0.3,1.3-0.2,1.7
				C360.2,203.2,360,203.3,359.7,203.3z M246.3,200.8c-0.3,0-0.6-0.1-0.8-0.3c-0.5-0.5-0.5-1.2-0.1-1.7l0.2-0.2
				c0.5-0.5,1.2-0.5,1.7-0.1c0.5,0.5,0.5,1.2,0.1,1.7l-0.2,0.2C247,200.7,246.6,200.8,246.3,200.8z M355.4,198.5
				c-0.3,0-0.6-0.1-0.9-0.4l-0.2-0.2c-0.5-0.5-0.5-1.3,0-1.7c0.5-0.5,1.3-0.5,1.7,0l0.2,0.2c0.5,0.5,0.5,1.3,0,1.7
				C356,198.4,355.7,198.5,355.4,198.5z M250.8,196.2c-0.3,0-0.7-0.1-0.9-0.4c-0.5-0.5-0.4-1.3,0.1-1.7l0.2-0.2
				c0.5-0.5,1.3-0.4,1.7,0.1c0.5,0.5,0.4,1.3-0.1,1.7l-0.2,0.2C251.4,196.1,251.1,196.2,250.8,196.2z M350.7,194.1
				c-0.3,0-0.6-0.1-0.8-0.3l-0.2-0.2c-0.5-0.4-0.6-1.2-0.1-1.7c0.4-0.5,1.2-0.6,1.7-0.1l0.2,0.2c0.5,0.4,0.6,1.2,0.1,1.7
				C351.4,194,351.1,194.1,350.7,194.1z M255.7,192c-0.4,0-0.7-0.2-1-0.5c-0.4-0.5-0.3-1.3,0.2-1.7l0.2-0.2c0.5-0.4,1.3-0.3,1.7,0.2
				c0.4,0.5,0.3,1.3-0.2,1.7l-0.2,0.2C256.2,191.9,255.9,192,255.7,192z M345.7,190.1c-0.2,0-0.5-0.1-0.7-0.2l-0.2-0.2
				c-0.5-0.4-0.7-1.2-0.3-1.7c0.4-0.5,1.2-0.7,1.7-0.3l0.3,0.2c0.5,0.4,0.7,1.2,0.3,1.7C346.5,190,346.1,190.1,345.7,190.1z
				 M260.9,188.3c-0.4,0-0.8-0.2-1-0.6c-0.4-0.6-0.2-1.3,0.3-1.7l0.3-0.2c0.6-0.4,1.3-0.2,1.7,0.4c0.4,0.6,0.2,1.3-0.4,1.7l-0.3,0.2
				C261.3,188.2,261.1,188.3,260.9,188.3z M340.3,186.6c-0.2,0-0.4-0.1-0.6-0.2l-0.3-0.2c-0.6-0.3-0.8-1.1-0.4-1.7
				c0.3-0.6,1.1-0.8,1.7-0.4l0.3,0.2c0.6,0.3,0.8,1.1,0.4,1.7C341.2,186.4,340.8,186.6,340.3,186.6z M266.4,185
				c-0.4,0-0.9-0.2-1.1-0.6c-0.3-0.6-0.1-1.3,0.5-1.7l0.3-0.1c0.6-0.3,1.3-0.1,1.7,0.5c0.3,0.6,0.1,1.3-0.5,1.7l-0.3,0.1
				C266.8,184.9,266.6,185,266.4,185z M334.7,183.5c-0.2,0-0.4,0-0.5-0.1l-0.3-0.1c-0.6-0.3-0.9-1-0.6-1.6c0.3-0.6,1-0.9,1.6-0.6
				l0.3,0.1c0.6,0.3,0.9,1,0.6,1.6C335.6,183.3,335.1,183.5,334.7,183.5z M272.1,182.2c-0.5,0-0.9-0.3-1.1-0.7
				c-0.3-0.6,0-1.3,0.6-1.6l0.3-0.1c0.6-0.3,1.3,0,1.6,0.6c0.3,0.6,0,1.3-0.6,1.6l-0.3,0.1C272.5,182.1,272.3,182.2,272.1,182.2z
				 M328.8,181c-0.1,0-0.3,0-0.4-0.1l-0.3-0.1c-0.6-0.2-0.9-0.9-0.7-1.6c0.2-0.6,0.9-0.9,1.6-0.7l0.3,0.1c0.6,0.2,0.9,1,0.7,1.6
				C329.8,180.7,329.3,181,328.8,181z M278.1,179.8c-0.5,0-1-0.3-1.2-0.8c-0.2-0.6,0.1-1.3,0.8-1.6l0.3-0.1c0.6-0.2,1.3,0.1,1.5,0.8
				c0.2,0.6-0.1,1.3-0.8,1.5l-0.3,0.1C278.4,179.8,278.3,179.8,278.1,179.8z M322.7,178.9c-0.1,0-0.2,0-0.3,0l-0.3-0.1
				c-0.7-0.2-1-0.9-0.8-1.5c0.2-0.7,0.9-1,1.5-0.8l0.3,0.1c0.6,0.2,1,0.9,0.8,1.5C323.7,178.6,323.2,178.9,322.7,178.9z
				 M284.3,178.1c-0.6,0-1.1-0.4-1.2-0.9c-0.2-0.7,0.2-1.3,0.9-1.5l0.3-0.1c0.7-0.2,1.3,0.2,1.5,0.9c0.2,0.7-0.2,1.3-0.9,1.5
				l-0.3,0.1C284.5,178.1,284.4,178.1,284.3,178.1z M316.5,177.4c-0.1,0-0.2,0-0.2,0l-0.3-0.1c-0.7-0.1-1.1-0.8-1-1.4
				c0.1-0.7,0.8-1.1,1.4-1l0.3,0.1c0.7,0.1,1.1,0.8,1,1.4C317.6,177,317,177.4,316.5,177.4z M290.6,176.8c-0.6,0-1.1-0.4-1.2-1
				c-0.1-0.7,0.4-1.3,1-1.4l0.3,0c0.7-0.1,1.3,0.4,1.4,1c0.1,0.7-0.4,1.3-1,1.4l-0.3,0C290.7,176.8,290.7,176.8,290.6,176.8z
				 M310.1,176.4c0,0-0.1,0-0.1,0l-0.3,0c-0.7-0.1-1.2-0.7-1.1-1.3c0.1-0.7,0.7-1.2,1.3-1.1l0.3,0c0.7,0.1,1.2,0.7,1.1,1.4
				C311.3,176,310.7,176.4,310.1,176.4z M297,176.1c-0.6,0-1.2-0.5-1.2-1.1c0-0.7,0.5-1.3,1.1-1.3l0.3,0c0.7,0,1.3,0.5,1.3,1.1
				c0,0.7-0.5,1.3-1.1,1.3L297,176.1C297,176.1,297,176.1,297,176.1z M303.7,176C303.7,176,303.7,176,303.7,176l-0.3,0
				c-0.7,0-1.2-0.6-1.2-1.2c0-0.7,0.6-1.2,1.2-1.2c0,0,0,0,0,0l0.3,0c0.7,0,1.2,0.6,1.2,1.3C304.9,175.5,304.4,176,303.7,176z"/>
		</g>
	</g>
</g>
</svg>
