<?xml version="1.0" encoding="utf-8"?>
<!-- Generator: Adobe Illustrator 24.0.2, SVG Export Plug-In . SVG Version: 6.00 Build 0)  -->
<svg version="1.1" id="圖層_1" xmlns="http://www.w3.org/2000/svg" xmlns:xlink="http://www.w3.org/1999/xlink" x="0px" y="0px"
	 viewBox="0 0 600 600" style="enable-background:new 0 0 600 600;" xml:space="preserve">
<style type="text/css">
	.st0{fill:#215987;}
	.st1{fill:#E9E9E9;}
	.st2{fill:#E5BDB1;}
	.st3{fill:#E23333;}
	.st4{fill:#FFD56E;}
	.st5{fill:#991616;}
	.st6{fill:#D8AC9E;}
	.st7{fill:#CEA297;}
	.st8{fill:#D6D6D6;}
	.st9{fill:#BC2626;}
</style>
<circle class="st0" cx="300" cy="299.6" r="218.6"/>
<g>
	<path class="st1" d="M409.5,359.7H192.9V215.3c0-4.7,3.8-8.5,8.5-8.5h220.8V347C422.3,354,416.5,359.7,409.5,359.7z"/>
	<path class="st0" d="M311.8,291.7H192.9v-76.5c0-4.7,3.8-8.5,8.5-8.5h110.5V291.7z"/>
	<rect x="235.4" y="236.5" class="st1" width="8.5" height="8.5"/>
	<rect x="252.3" y="236.5" class="st1" width="8.5" height="8.5"/>
	<rect x="269.3" y="236.5" class="st1" width="8.5" height="8.5"/>
	<rect x="286.3" y="236.5" class="st1" width="8.5" height="8.5"/>
	<rect x="218.4" y="253.5" class="st1" width="8.5" height="8.5"/>
	<rect x="235.4" y="253.5" class="st1" width="8.5" height="8.5"/>
	<rect x="252.3" y="253.5" class="st1" width="8.5" height="8.5"/>
	<rect x="269.3" y="253.5" class="st1" width="8.5" height="8.5"/>
	<rect x="286.3" y="253.5" class="st1" width="8.5" height="8.5"/>
	<rect x="218.4" y="236.5" class="st1" width="8.5" height="8.5"/>
	<rect x="286.3" y="219.6" class="st1" width="8.5" height="8.5"/>
	<rect x="269.3" y="219.6" class="st1" width="8.5" height="8.5"/>
	<rect x="252.3" y="219.6" class="st1" width="8.5" height="8.5"/>
	<rect x="235.4" y="219.6" class="st1" width="8.5" height="8.5"/>
	<rect x="218.4" y="219.6" class="st1" width="8.5" height="8.5"/>
	<rect x="218.4" y="270.5" class="st1" width="8.5" height="8.5"/>
	<rect x="235.4" y="270.5" class="st1" width="8.5" height="8.5"/>
	<rect x="252.3" y="270.5" class="st1" width="8.5" height="8.5"/>
	<rect x="269.3" y="270.5" class="st1" width="8.5" height="8.5"/>
	<rect x="286.3" y="270.5" class="st1" width="8.5" height="8.5"/>
	<path class="st2" d="M265.1,296h-59.5v29.8l-18.5,12.9c-11.8,8.3-12.1,25.7-0.6,34.4l10.5,7.9v51h72.2v-51l7.8-7.8
		c3.2-3.2,5-7.5,5-12v-48.2C282.1,303.6,274.5,296,265.1,296z"/>
	<path class="st3" d="M422.3,232.3H311.8v-25.5h97.7c7.1,0,12.8-5.7,12.8-12.8l0,0V232.3z"/>
	<rect x="311.8" y="257.8" class="st3" width="110.5" height="25.5"/>
	<rect x="282.1" y="308.7" class="st3" width="140.1" height="25.5"/>
	<path class="st4" d="M316.1,372.4v4.2c0,14.1-11.4,25.5-25.5,25.5l0,0l0,0c14.1,0,25.5,11.4,25.5,25.5v4.2v-4.2
		c0-14.1,11.4-25.5,25.5-25.5l0,0l0,0c-14.1,0-25.5-11.4-25.5-25.5V372.4z"/>
	<path class="st5" d="M362.8,206.8h46.7c7.1,0,12.8-5.7,12.8-12.8l0,0c0-7.1-5.7-12.8-12.8-12.8h-34c-4.7,0-8.5,3.8-8.5,8.5v17"/>
	<path class="st6" d="M192.9,236.5c-7.1,0-12.8,5.7-12.8,12.8V347h25.5v-97.7C205.7,242.2,199.9,236.5,192.9,236.5z"/>
	<rect x="197.2" y="381" class="st7" width="72.2" height="34"/>
	<rect x="197.2" y="393.6" class="st2" width="42.5" height="8.5"/>
	<rect x="248.1" y="393.6" class="st2" width="8.5" height="8.5"/>
	<path class="st4" d="M384,355.4v4.2c0,14.1-11.4,25.5-25.5,25.5h-4.2h4.2c14.1,0,25.5,11.4,25.5,25.5v4.2v-4.2
		c0-14.1,11.4-25.5,25.5-25.5h4.2h-4.2c-14.1,0-25.5-11.4-25.5-25.5V355.4z"/>
	<path class="st8" d="M289.2,357.8l-7.1,1.9h127.4c7.1,0,12.8-5.7,12.8-12.8v-12.8h-80.2C326.1,344.7,308.2,352.7,289.2,357.8z"/>
	<path class="st8" d="M408.9,257.8h13.4v-25.5h-3.6C416.1,241.1,412.8,249.6,408.9,257.8z"/>
	<path class="st8" d="M373.3,308.7h48.9v-25.5h-28C388,292.4,381.1,300.9,373.3,308.7z"/>
	<path class="st9" d="M418.8,232.3h3.6v-12.8l-1.9,7.1C419.8,228.6,419.3,230.4,418.8,232.3z"/>
	<path class="st9" d="M394.3,283.3h28v-25.5h-13.4C404.7,266.7,399.8,275.2,394.3,283.3z"/>
	<path class="st9" d="M342.1,334.2h80.2v-25.5h-48.9C363.9,318.3,353.4,326.8,342.1,334.2z"/>
	<rect x="226.9" y="296" class="st6" width="8.5" height="34"/>
	<rect x="252.3" y="296" class="st6" width="8.5" height="34"/>
	<g>
		<path class="st7" d="M222.7,325.7h-17l-18.5,12.9c-11.8,8.3-12.1,25.7-0.6,34.4l3.1,2.4l20.1-24.2h12.8c7.1,0,12.8-5.7,12.8-12.8
			l0,0C235.4,331.4,229.7,325.7,222.7,325.7z"/>
	</g>
</g>
</svg>
