<?xml version="1.0" encoding="utf-8"?>
<!-- Generator: Adobe Illustrator 24.0.2, SVG Export Plug-In . SVG Version: 6.00 Build 0)  -->
<svg version="1.1" id="圖層_1" xmlns="http://www.w3.org/2000/svg" xmlns:xlink="http://www.w3.org/1999/xlink" x="0px" y="0px"
	 viewBox="0 0 500 600" style="enable-background:new 0 0 500 600;" xml:space="preserve">
<style type="text/css">
	.st0{fill:#004790;}
	.st1{fill-rule:evenodd;clip-rule:evenodd;fill:#123352;}
	
		.st2{fill-rule:evenodd;clip-rule:evenodd;fill:none;stroke:#FBAF13;stroke-width:2;stroke-linecap:round;stroke-linejoin:round;stroke-miterlimit:3;}
	
		.st3{fill-rule:evenodd;clip-rule:evenodd;fill:none;stroke:#66B3BD;stroke-width:2;stroke-linecap:round;stroke-linejoin:round;stroke-miterlimit:3;}
	
		.st4{fill-rule:evenodd;clip-rule:evenodd;fill:none;stroke:#F3DD45;stroke-width:2;stroke-linecap:round;stroke-linejoin:round;stroke-miterlimit:3;}
	.st5{enable-background:new    ;}
	.st6{fill:#FFFFFF;}
</style>
<text transform="matrix(1 0 0 1 105.7614 980.1377)" class="st0" style="font-family:'NotoSansCJKtc-Black-B5pc-H'; font-size:49.4632px;">雲端(Cloud)</text>
<text transform="matrix(1 0 0 1 189.9384 1031.207)" style="font-family:'NotoSansCJKtc-Regular-B5pc-H'; font-size:36px;">2020年</text>
<text transform="matrix(1 0 0 1 146.8384 1071.7893)" style="font-family:'NotoSansCJKtc-Regular-B5pc-H'; font-size:36px;">預估成長率</text>
<text transform="matrix(1 0 0 1 326.8384 1074.407)" style="font-family:'NotoSansCJKtc-Regular-B5pc-H'; font-size:18px;">(2)</text>
<path class="st0" d="M382.7,1172H113.2c-12.5,0-22.7-10.2-22.7-22.7v-32.1c0-12.5,10.2-22.7,22.7-22.7h269.5
	c12.5,0,22.7,10.2,22.7,22.7v32.1C405.4,1161.8,395.2,1172,382.7,1172z"/>
<text transform="matrix(1 0 0 1 150.5432 1157.9473)" class="st6" style="font-family:'NotoSansCJKtc-Black-B5pc-H'; font-size:69.2571px;">+17%</text>
<g>
	<circle class="st1" cx="247.9" cy="772.4" r="131.4"/>
	<g>
		<path class="st2" d="M259,730.3c3.2,3.2,4.8,7.1,4.8,11.6c0,4.5-1.6,8.4-4.8,11.6c-3.2,3.2-7.1,4.8-11.6,4.8
			c-4.5,0-8.4-1.6-11.6-4.8c-3.2-3.2-4.8-7.1-4.8-11.6c0-4.5,1.6-8.4,4.8-11.6c3.2-3.2,7.1-4.8,11.6-4.8
			C251.9,725.5,255.7,727.1,259,730.3z M249.5,770.3l-9.9,58.7c1.9,0.3,3.6,1.2,5.1,2.6c1.9,1.9,2.8,4.1,2.8,6.6
			c0,2.6-0.9,4.8-2.8,6.6c-1.8,1.9-4,2.8-6.6,2.8c-0.2,0-0.4,0-0.6,0c-0.3,0-0.7,0-1-0.1c-1.9-0.3-3.6-1.2-5.1-2.7
			c-1.8-1.8-2.7-4-2.7-6.6c0-2.6,0.9-4.8,2.7-6.6c1.7-1.7,3.7-2.6,6-2.7c0.2,0,0.4,0,0.6,0c0.5,0,1,0,1.5,0.1"/>
		<path class="st3" d="M213.3,741.5v6.5h6.5 M213.3,754.5V748h-6.5 M222,770.2l-6.3,37.3h-15.3c0,2.6-0.9,4.8-2.8,6.6
			c-1.8,1.9-4,2.8-6.6,2.8c-0.2,0-0.4,0-0.6,0c-2.3-0.1-4.3-1-6-2.8c-1.8-1.8-2.7-4-2.7-6.6c0-2.6,0.9-4.8,2.7-6.7
			c1.7-1.7,3.7-2.6,6-2.7c0.2,0,0.4,0,0.6,0c2.6,0,4.8,0.9,6.6,2.7c1.9,1.9,2.8,4.1,2.8,6.7 M281.6,741.5v6.5h6.5 M281.6,754.5V748
			h-6.5 M277.1,770.3l-8.8,52.5h15.3c0-2.6,0.9-4.8,2.8-6.6c1.8-1.8,4-2.7,6.6-2.7c0.2,0,0.4,0,0.6,0c2.3,0.1,4.4,1,6.1,2.7
			c1.8,1.9,2.7,4.1,2.7,6.6c0,2.6-0.9,4.8-2.7,6.6c-1.7,1.7-3.7,2.6-6.1,2.8c-0.2,0-0.4,0-0.6,0c-2.6,0-4.8-0.9-6.6-2.8
			c-1.9-1.8-2.8-4-2.8-6.6"/>
		<g>
			<path class="st4" d="M203.8,724c0,0.5,0,1,0,1.4c-7.7,0.3-14.4,3.2-19.9,8.8c-5.9,5.9-8.8,13-8.8,21.3c0,8.3,2.9,15.4,8.8,21.3
				c5.7,5.7,12.5,8.6,20.5,8.8h0.8c0.1,0,0.1,0,0.2,0c0.3,0,0.5,0,0.8,0l90.3,0c0,0,0.1,0,0.1,0c8.3,0,15.4-2.9,21.3-8.8
				c5.9-5.9,8.8-13,8.8-21.3c0-8.3-2.9-15.4-8.8-21.3c-4.8-4.8-10.5-7.7-16.9-8.6c0.5-1.6,0.7-3.3,0.7-5.1c0-5-1.8-9.3-5.3-12.9
				c-3.6-3.6-7.9-5.3-12.9-5.3c-4.3,0-8,1.3-11.2,3.9c-1.6-2.8-3.7-5.5-6.1-7.9c-7.1-7.1-15.7-10.7-25.8-10.7
				c-10.1,0-18.6,3.6-25.7,10.7C207.4,705.4,203.8,714,203.8,724z"/>
		</g>
	</g>
</g>
<g class="st5">
	<path class="st0" d="M153.3,367.6h-9.6c2.9,2.2,6.1,4.8,8.1,6.8l-6.6,2.8c-0.5-0.5-1.1-1.2-1.8-1.9c-23.5,0.7-26.7,0.7-29,1.5
		c-0.4-1.4-1.4-4.7-2.2-6.5c1-0.2,2-0.7,3.1-1.5c0.4-0.2,1-0.6,1.8-1.2h-9.2v-5.3h45.5V367.6z M114.6,348.1h-6.3v-10.6h18.6v-1
		h-14.9v-5h37v5h-15v1h19v10.6h-6.6v-2.3c-2.3,0.9-5,1.7-7.4,2.3c3.3,1,7.1,2.3,9.3,3.2l-1.9,4.7h1.4v5.1h-33.9V356h0.6l-2-5.1
		c2.8-0.6,6.7-1.6,10.7-2.7c-2.3-1-5.8-2.2-8.5-3.1l2.1-3.2h-2.1V348.1z M126.8,354.5v-12.7h-7.6c2.6,0.7,5.5,1.7,7.2,2.5l-2,3.5
		l1.4-0.4l0.7,4.6c-3.7,1.4-7.5,2.9-10.9,4.1h29.9c-2.8-1.2-8-3.1-11.6-4.3l1.8-3.7l-2-3.1c2.4-0.5,6-1.9,8.6-3h-8.7v12.7H126.8z
		 M137.4,370.1c-0.8-0.6-1.5-1.2-2.2-1.7l1.8-0.7h-9.9c-1.1,0.9-2.4,1.8-3.6,2.7L137.4,370.1z M146.2,341.9H144l2.3,3.2V341.9z"/>
	<path class="st0" d="M173,362.5l0.7,6.6c-5.4,1.3-11.3,2.6-16,3.7l-1.4-7.1c2.5-0.4,5.7-1,9.1-1.7c0.8-5,1.5-12.3,1.8-17.7l6,0.9
		c-0.7,5.2-1.6,11.1-2.6,15.7L173,362.5z M173.8,345H157v-6.6h6.7c-0.5-1.9-1.5-4.3-2.4-6.1l6-1.7c1.2,2.1,2.4,4.9,3,6.9l-2.9,0.9
		h6.5V345z M159.1,363.3c0-4.4-0.4-10.8-1.1-15.8l5.2-0.9c0.8,5,1.3,11.4,1.4,15.7L159.1,363.3z M191.7,353.8l-1,2.3h11.5v15.1
		c0,2.5-0.3,4-1.8,5c-1.4,0.9-3.2,1-5.2,1c-0.1-1-0.4-2.2-0.8-3.4v2.9H189V362h-1.6v14.7h-5.3V362h-1.5v15h-6.4v-20.9h9
		c0.2-0.7,0.3-1.5,0.4-2.3h-10.2v-6.3H203v6.3H191.7z M201.6,345.7h-26.7v-13.3h6.5v7.1h3.2v-9.3h6.9v9.3h3.3v-7.1h6.8V345.7z
		 M195.9,362h-1.6v9.6c0.5,0,0.9,0,1.1,0c0.4,0,0.5-0.1,0.5-0.5V362z"/>
	<path class="st0" d="M208.7,356.6c0-9.9,2.7-18.1,7.5-25.9l5.5,2.3c-4.1,7.3-5.9,15.7-5.9,23.6c0,8,1.8,16.3,5.9,23.6l-5.5,2.3
		C211.4,374.8,208.7,366.6,208.7,356.6z"/>
	<path class="st0" d="M227,354.2c0-12.3,8.2-19.3,17.6-19.3c4.8,0,8.7,2.2,11.2,4.8l-4.7,5.6c-1.8-1.7-3.8-2.9-6.4-2.9
		c-4.7,0-8.7,4.3-8.7,11.4c0,7.3,3.4,11.6,8.6,11.6c2.9,0,5.3-1.5,7-3.4l4.7,5.5c-3.1,3.6-7.2,5.4-12,5.4
		C235,373.1,227,366.6,227,354.2z"/>
	<path class="st0" d="M261,363.2v-30.4h8.8v30.7c0,1.8,0.9,2.4,1.6,2.4c0.3,0,0.5,0,1-0.1l1,6.5c-0.9,0.4-2.4,0.7-4.4,0.7
		C263,373.1,261,369.1,261,363.2z"/>
	<path class="st0" d="M275.9,358.3c0-9.3,6.6-14.8,13.8-14.8c7.1,0,13.8,5.4,13.8,14.8c0,9.3-6.6,14.7-13.8,14.7
		C282.5,373.1,275.9,367.6,275.9,358.3z M294.4,358.3c0-4.7-1.5-7.7-4.7-7.7c-3.3,0-4.8,3-4.8,7.7c0,4.6,1.5,7.6,4.8,7.6
		C292.9,365.9,294.4,363,294.4,358.3z"/>
	<path class="st0" d="M308.7,361.6v-17.4h8.8v16.3c0,3.9,1,5,3.3,5c2,0,3.2-0.8,4.7-2.9v-18.5h8.8v28.1h-7.2l-0.6-3.9h-0.2
		c-2.3,2.8-4.9,4.6-8.8,4.6C311.3,373.1,308.7,368.7,308.7,361.6z"/>
	<path class="st0" d="M339.9,358.3c0-9.3,5.8-14.8,11.6-14.8c3.1,0,4.9,1.1,6.8,2.9l-0.3-4.2v-9.4h8.9v39.5h-7.2l-0.6-2.7h-0.2
		c-2,2-4.7,3.4-7.4,3.4C344.4,373.1,339.9,367.5,339.9,358.3z M357.9,363.5v-11.1c-1.3-1.2-2.9-1.7-4.4-1.7c-2.4,0-4.6,2.3-4.6,7.5
		c0,5.4,1.8,7.7,4.8,7.7C355.4,365.8,356.7,365.3,357.9,363.5z"/>
	<path class="st0" d="M373.1,380.2c4.1-7.3,5.9-15.6,5.9-23.6c0-7.9-1.8-16.3-5.9-23.6l5.5-2.3c4.7,7.8,7.5,15.9,7.5,25.9
		c0,10-2.7,18.1-7.5,25.9L373.1,380.2z"/>
</g>
<g class="st5">
	<path d="M191.5,421.5c8.3-7.2,12.1-12.5,12.1-17c0-3-1.6-5.2-4.9-5.2c-2.2,0-4,1.3-5.5,3.1l-1.9-1.9c2.2-2.3,4.4-3.9,7.8-3.9
		c4.7,0,7.7,3.1,7.7,7.8c0,5.3-4.1,10.6-10.3,16.5c1.4-0.1,3-0.3,4.3-0.3h7.3v2.8h-16.6V421.5z"/>
	<path d="M211.7,410.2c0-9.2,3.2-13.6,8.2-13.6c5,0,8.2,4.5,8.2,13.6c0,9.2-3.2,13.8-8.2,13.8C214.9,423.9,211.7,419.3,211.7,410.2z
		 M224.9,410.2c0-7.7-2-10.9-5-10.9c-3,0-5,3.2-5,10.9c0,7.8,2,11.1,5,11.1C222.9,421.3,224.9,417.9,224.9,410.2z"/>
	<path d="M231.5,421.5c8.3-7.2,12.1-12.5,12.1-17c0-3-1.6-5.2-4.9-5.2c-2.2,0-4,1.3-5.5,3.1l-1.9-1.9c2.2-2.3,4.4-3.9,7.8-3.9
		c4.7,0,7.7,3.1,7.7,7.8c0,5.3-4.1,10.6-10.3,16.5c1.4-0.1,3-0.3,4.3-0.3h7.3v2.8h-16.6V421.5z"/>
	<path d="M251.6,410.2c0-9.2,3.2-13.6,8.2-13.6c5,0,8.2,4.5,8.2,13.6c0,9.2-3.2,13.8-8.2,13.8C254.8,423.9,251.6,419.3,251.6,410.2z
		 M264.9,410.2c0-7.7-2-10.9-5-10.9c-3,0-5,3.2-5,10.9c0,7.8,2,11.1,5,11.1C262.9,421.3,264.9,417.9,264.9,410.2z"/>
	<path d="M304.1,418h-13v8.2h-2.7V418h-16.6v-2.6h5.9v-9.6h10.7v-5.5h-8.7c-1.6,2.8-3.5,5.2-5.5,7.1c-0.5-0.4-1.6-1.3-2.3-1.7
		c3.4-3,6.4-7.6,8.1-12.4l2.7,0.6c-0.5,1.3-1.1,2.6-1.7,3.8h21.5v2.6H291v5.5h10.5v2.5H291v7.1h13V418z M288.3,415.4v-7.1h-8.1v7.1
		H288.3z"/>
</g>
<g class="st5">
	<path d="M158.6,454.6c0.6-1.3,1.3-3.3,1.9-5.3h-3.8v14.3c0,1.4-0.3,2.2-1.3,2.6c-1,0.4-2.6,0.5-5.1,0.5c-0.1-0.7-0.5-1.8-0.8-2.5
		c1.8,0,3.5,0,4,0c0.5,0,0.7-0.1,0.7-0.6v-14.2h-5.9V447h9.2c-1.9-1.7-4.8-3.8-7.4-5.1l1.4-1.7c1.2,0.6,2.4,1.4,3.6,2.1
		c1.2-1.2,2.5-2.7,3.6-4.2h-9.6v-2.4h11.3l0.5-0.2l1.7,1.2c-1.5,2.4-3.6,5-5.6,6.9c1.1,0.8,2.1,1.6,2.8,2.3L159,447h2.6l0.4-0.1
		l1.7,0.4c-1,2.8-2.1,5.9-3.1,7.8L158.6,454.6z M170.2,462c-2,1.9-5.3,3.8-8.2,4.9c-0.4-0.5-1.3-1.3-1.8-1.8c2.8-1,6-2.8,7.6-4.4
		L170.2,462z M169.7,441.3c0.3-1.1,0.5-2.3,0.7-3.4h-7.5v-2.3h18.1v2.3h-7.7c-0.3,1.2-0.7,2.4-1,3.4h7.5V460h-15.5v-18.6H169.7z
		 M177.3,443.4h-10.5v3.5h10.5V443.4z M177.3,448.8h-10.5v3.5h10.5V448.8z M177.3,454.3h-10.5v3.5h10.5V454.3z M175.4,460.8
		c2.2,1.3,4.9,3.2,6.4,4.5l-2.1,1.5c-1.4-1.3-4.1-3.3-6.3-4.7L175.4,460.8z"/>
	<path d="M195,434.8c-1,2.7-2.3,5.4-3.8,7.9v24h-2.6v-20.1c-1.1,1.6-2.3,3.1-3.6,4.4c-0.3-0.6-1-2-1.5-2.6c3.5-3.4,6.9-8.8,8.9-14.3
		L195,434.8z M207.1,444.4v7.3h8v15h-2.7v-1.4h-13.1v1.5h-2.6v-15.1h7.7v-7.3h-9.8v-2.6h9.8v-7.9h2.7v7.9h10.2v2.6H207.1z
		 M212.4,454.2h-13.1v8.5h13.1V454.2z"/>
	<path d="M250.8,446.1c-1.5,4.6-3.7,8.7-6.3,12.2c1.3,3.5,3,5.6,4.8,5.6c1,0,1.4-1.9,1.7-6.7c0.6,0.6,1.6,1.2,2.3,1.4
		c-0.5,6.1-1.5,7.9-4.2,7.9c-2.8,0-4.9-2.2-6.6-5.9c-2.2,2.3-4.6,4.4-7.4,6c-0.4-0.5-1.3-1.6-1.9-2.1c3.2-1.7,6-4,8.3-6.7
		c-1.3-4.1-2.2-9.4-2.6-15.2h-12.4v4.7h9.2v1.2c-0.2,8.1-0.4,11.1-1.2,12c-0.5,0.7-1.2,0.9-2.2,1c-0.9,0.1-2.5,0.1-4.3,0
		c0-0.8-0.3-1.8-0.8-2.5c1.7,0.1,3.2,0.2,3.8,0.2c0.5,0,0.9-0.1,1.1-0.4c0.5-0.5,0.7-2.8,0.8-9h-6.6v0.3c0,5-0.5,12.3-3.8,17
		c-0.5-0.5-1.6-1.5-2.2-1.8c3-4.4,3.3-10.5,3.3-15.2v-10h15c-0.1-2-0.2-4-0.2-6h2.8c0,2.1,0,4.1,0.1,6h11.6v2.6h-11.4
		c0.4,4.8,1,9.1,2,12.5c1.9-2.8,3.5-6.1,4.6-9.7L250.8,446.1z M244.5,434.1c2.2,1.1,5,2.8,6.4,4.1l-1.7,1.8
		c-1.4-1.3-4.1-3.1-6.4-4.3L244.5,434.1z"/>
	<path d="M287.3,455.3c-2.3,1.7-5.2,3.4-7.8,4.7c2.7,2,6.2,3.3,10.2,4.1c-0.5,0.6-1.3,1.7-1.7,2.4c-8.2-1.8-13.8-6.2-16.9-13h-5.8
		v9.6l9.7-2.3c0,0.7-0.1,1.8-0.1,2.3c-10.1,2.6-11.8,3.1-12.7,3.5l-0.1,0.1c-0.2-0.6-0.8-1.9-1.2-2.6c0.7-0.4,1.8-1.1,1.8-2.6v-8.1
		h-5.8v-2.4h6.3v-15.8h22.1v2.3h-19.4v3.1h18.4v2.2h-18.4v3h18.4v2.2h-18.4v3.1h22.9v2.4h-15c1,1.9,2.3,3.6,3.9,5
		c2.6-1.4,5.5-3.3,7.4-4.8L287.3,455.3z"/>
	<path d="M324.9,459.2h-14.7v7.6h-2.8v-7.6h-14.6v-2.5h14.6v-3h2.8v3h14.7V459.2z M302.4,449.8c-2.7,1.5-5.7,3-8,4.2l-1.3-2.2
		c2.2-0.9,5.6-2.5,8.8-4L302.4,449.8z M314.7,454.3c-0.2-0.6-0.5-1.2-1-1.9c-9.4,0.9-10.6,1.1-11.3,1.4c-0.1-0.5-0.5-1.7-0.8-2.3
		c0.8-0.1,1.7-0.8,3-1.8c0.7-0.6,2.2-2,4-3.7c-4.1,0.3-4.9,0.5-5.5,0.7c-0.1-0.5-0.5-1.7-0.8-2.3c0.5-0.1,1-0.5,1.6-1.2
		c0.5-0.5,1.7-1.9,2.8-3.7h-13.1v-2.4h14.6c-0.5-0.9-1.1-2-1.7-2.8l2.6-0.7c0.8,1,1.7,2.5,2.1,3.5h13.4v2.4h-15.2
		c-1.1,1.6-2.3,3.1-3.4,4.4l4.6-0.3c0.8-0.9,1.7-1.9,2.4-3l2.2,1.3c-2.8,3.3-6,6.5-9.1,9l6.3-0.5c-0.6-0.8-1.2-1.6-1.8-2.3l2-0.8
		c1.6,1.8,3.4,4.4,4.1,6L314.7,454.3z M295.8,441.1c1.9,1.2,4.3,2.8,5.5,4.1l-1.9,1.6c-1.1-1.2-3.5-3-5.4-4.2L295.8,441.1z
		 M322.2,454.4c-1.5-1.4-4.5-3.6-7.1-5l1.9-1.4c2.4,1.4,5.5,3.4,7.1,4.9L322.2,454.4z M322.8,442.3c-1.6,1.7-3.7,3.4-5.4,4.5
		l-1.9-1.3c1.6-1.2,3.9-3.1,5.1-4.6L322.8,442.3z"/>
</g>
<g class="st5">
	<path d="M328.5,461c0-3.5,1-6.4,2.6-9.1l1,0.5c-1.6,2.6-2.3,5.6-2.3,8.7s0.7,6.1,2.3,8.7l-1,0.5C329.5,467.5,328.5,464.6,328.5,461
		z"/>
	<path d="M333.7,465.7c4.1-3.6,6-6.2,6-8.5c0-1.5-0.8-2.6-2.4-2.6c-1.1,0-2,0.7-2.7,1.5l-1-0.9c1.1-1.2,2.2-1.9,3.9-1.9
		c2.4,0,3.8,1.5,3.8,3.9c0,2.6-2.1,5.3-5.2,8.2c0.7-0.1,1.5-0.1,2.2-0.1h3.7v1.4h-8.3V465.7z"/>
	<path d="M343.7,469.7c1.5-2.6,2.3-5.6,2.3-8.7s-0.8-6.1-2.3-8.7l1-0.5c1.7,2.7,2.7,5.6,2.7,9.1c0,3.5-1,6.4-2.7,9.1L343.7,469.7z"
		/>
</g>
<path class="st0" d="M382.7,564.2H113.2c-12.5,0-22.7-10.2-22.7-22.7v-32.1c0-12.5,10.2-22.7,22.7-22.7h269.5
	c12.5,0,22.7,10.2,22.7,22.7v32.1C405.4,554,395.2,564.2,382.7,564.2z"/>
<g class="st5">
	<path class="st6" d="M167.1,528.4h-13.9v-8.7h13.9v-14.5h9v14.5H190v8.7h-13.9v14.5h-9V528.4z"/>
	<path class="st6" d="M198.1,540.2h10.9v-29.3h-9.5v-7.6c5.5-1,9.1-2.4,12.7-4.6h9.1v41.6h9.3v10h-32.6V540.2z"/>
	<path class="st6" d="M260.6,508.9h-22.2v-10.3h35.3v7.5c-11.9,14.2-13.2,23.9-14.1,44h-12.4C248.3,533.2,250.9,522.3,260.6,508.9z"
		/>
	<path class="st6" d="M279,514c0-10.3,5.5-16.3,13-16.3c7.5,0,13.1,6,13.1,16.3c0,10.3-5.5,16.5-13.1,16.5
		C284.5,530.5,279,524.3,279,514z M296.5,514c0-7.2-2.1-9.5-4.5-9.5c-2.4,0-4.5,2.3-4.5,9.5s2.1,9.7,4.5,9.7
		C294.5,523.7,296.5,521.2,296.5,514z M321.6,497.7h7.1l-27.8,53.5h-7L321.6,497.7z M317.4,534.7c0-10.3,5.5-16.3,13-16.3
		c7.5,0,13,6,13,16.3c0,10.3-5.5,16.5-13,16.5C322.9,551.2,317.4,545,317.4,534.7z M334.8,534.7c0-7.3-2-9.5-4.4-9.5
		s-4.6,2.2-4.6,9.5c0,7.2,2.1,9.6,4.6,9.6S334.8,541.9,334.8,534.7z"/>
</g>
<g>
	<circle class="st1" cx="247.9" cy="164.6" r="131.4"/>
	<g>
		<path class="st2" d="M259,122.6c3.2,3.2,4.8,7.1,4.8,11.6c0,4.5-1.6,8.4-4.8,11.6c-3.2,3.2-7.1,4.8-11.6,4.8
			c-4.5,0-8.4-1.6-11.6-4.8c-3.2-3.2-4.8-7.1-4.8-11.6c0-4.5,1.6-8.4,4.8-11.6c3.2-3.2,7.1-4.8,11.6-4.8
			C251.9,117.7,255.7,119.3,259,122.6z M249.5,162.5l-9.9,58.7c1.9,0.3,3.6,1.2,5.1,2.6c1.9,1.9,2.8,4.1,2.8,6.6
			c0,2.6-0.9,4.8-2.8,6.6c-1.8,1.9-4,2.8-6.6,2.8c-0.2,0-0.4,0-0.6,0c-0.3,0-0.7,0-1-0.1c-1.9-0.3-3.6-1.2-5.1-2.7
			c-1.8-1.8-2.7-4-2.7-6.6c0-2.6,0.9-4.8,2.7-6.6c1.7-1.7,3.7-2.6,6-2.7c0.2,0,0.4,0,0.6,0c0.5,0,1,0,1.5,0.1"/>
		<path class="st3" d="M213.3,133.7v6.5h6.5 M213.3,146.8v-6.5h-6.5 M222,162.5l-6.3,37.3h-15.3c0,2.6-0.9,4.8-2.8,6.6
			c-1.8,1.9-4,2.8-6.6,2.8c-0.2,0-0.4,0-0.6,0c-2.3-0.1-4.3-1-6-2.8c-1.8-1.8-2.7-4-2.7-6.6c0-2.6,0.9-4.8,2.7-6.7
			c1.7-1.7,3.7-2.6,6-2.7c0.2,0,0.4,0,0.6,0c2.6,0,4.8,0.9,6.6,2.7c1.9,1.9,2.8,4.1,2.8,6.7 M281.6,133.7v6.5h6.5 M281.6,146.8v-6.5
			h-6.5 M277.1,162.6l-8.8,52.5h15.3c0-2.6,0.9-4.8,2.8-6.6c1.8-1.8,4-2.7,6.6-2.7c0.2,0,0.4,0,0.6,0c2.3,0.1,4.4,1,6.1,2.7
			c1.8,1.9,2.7,4.1,2.7,6.6c0,2.6-0.9,4.8-2.7,6.6c-1.7,1.7-3.7,2.6-6.1,2.8c-0.2,0-0.4,0-0.6,0c-2.6,0-4.8-0.9-6.6-2.8
			c-1.9-1.8-2.8-4-2.8-6.6"/>
		<g>
			<path class="st4" d="M203.8,116.3c0,0.5,0,1,0,1.4c-7.7,0.3-14.4,3.2-19.9,8.8c-5.9,5.9-8.8,13-8.8,21.3c0,8.3,2.9,15.4,8.8,21.3
				c5.7,5.7,12.5,8.6,20.5,8.8h0.8c0.1,0,0.1,0,0.2,0c0.3,0,0.5,0,0.8,0l90.3,0c0,0,0.1,0,0.1,0c8.3,0,15.4-2.9,21.3-8.8
				c5.9-5.9,8.8-13,8.8-21.3c0-8.3-2.9-15.4-8.8-21.3c-4.8-4.8-10.5-7.7-16.9-8.6c0.5-1.6,0.7-3.3,0.7-5.1c0-5-1.8-9.3-5.3-12.9
				c-3.6-3.6-7.9-5.3-12.9-5.3c-4.3,0-8,1.3-11.2,3.9c-1.6-2.8-3.7-5.5-6.1-7.9c-7.1-7.1-15.7-10.7-25.8-10.7
				c-10.1,0-18.6,3.6-25.7,10.7C207.4,97.6,203.8,106.2,203.8,116.3z"/>
		</g>
	</g>
</g>
</svg>
