<?xml version="1.0" encoding="utf-8"?>
<!-- Generator: Adobe Illustrator 24.1.3, SVG Export Plug-In . SVG Version: 6.00 Build 0)  -->
<svg version="1.1" id="Layer_1" xmlns="http://www.w3.org/2000/svg" xmlns:xlink="http://www.w3.org/1999/xlink" x="0px" y="0px"
	 viewBox="0 0 424.2 423.4" style="enable-background:new 0 0 424.2 423.4;" xml:space="preserve">
<style type="text/css">
	.st0{fill:#11C9AA;}
	.st1{fill:#0B967E;}
	.st2{fill:#0BB59C;}
	.st3{fill:#065280;}
	.st4{fill:#0E4669;}
	.st5{fill:#1F6C9C;}
	.st6{fill:#68CBF2;}
	.st7{fill:#0A98CF;}
	.st8{fill:#34B2E3;}
	.st9{fill:#FFFFFF;}
	.st10{fill:#FFCE00;}
	.st11{fill:#FFE600;}
	.st12{fill:#F9E600;}
	.st13{fill:#FFF200;}
	.st14{fill:#FFEC00;}
	.st15{fill:#004487;}
	.st16{fill:none;stroke:#96B6D1;stroke-width:10;stroke-miterlimit:10;stroke-dasharray:12.4552,24.9103;}
	.st17{fill:#6CB838;}
	.st18{fill:#F4BB19;}
	.st19{fill:none;}
	.st20{fill:#52ABE0;}
</style>
<g>
	<g id="Figure_1_">
		<g>
			<path class="st0" d="M392.6,114.6l-97.4,56.1l126.5,73.1c6.6-43.3-0.2-87.1-19.9-126.4C400.1,113.9,395.9,112.7,392.6,114.6z"/>
		</g>
		<g>
			<path class="st1" d="M317.9,395.8c9.2-5.3,17.9-11.2,26.1-17.7l-126.4-73l-0.1,112c0,3.9,3.3,6.9,7.1,6.7
				C257.3,421.8,289.3,412.3,317.9,395.8z"/>
		</g>
		<g>
			<path class="st2" d="M416.9,267.1c2.1-7.8,3.7-15.6,4.9-23.4l-126.5-73.1l-74.1,42.7c-2.1,1.2-3.3,3.4-3.3,5.8l-0.1,86l126.4,73
				C379.5,350.1,404.9,311.6,416.9,267.1z"/>
		</g>
		<g>
			<path class="st3" d="M203.1,213.4l-74.4-43.1L2.3,243.2c8,54.2,36.6,101.7,77.6,134.5l126.4-73l0.1-85.6
				C206.4,216.7,205.1,214.5,203.1,213.4z"/>
		</g>
		<g>
			<path class="st4" d="M31.7,114.2c-3.3-1.9-7.6-0.6-9.3,2.9C7.8,146.3,0,178.8,0,211.8c0,0.1,0,0.3,0,0.4c0,10.5,0.8,20.9,2.3,31
				l126.4-72.9L31.7,114.2z"/>
		</g>
		<g>
			<path class="st5" d="M206.3,304.7l-126.4,73c33.1,26.5,74.4,43.3,119.3,46c3.8,0.2,6.9-2.9,6.9-6.6L206.3,304.7z"/>
		</g>
		<g>
			<path class="st6" d="M387,104.7c3.4-1.9,4.3-6.3,2.2-9.5c-18-27.3-42.3-50.3-70.8-66.8c-9.2-5.4-18.7-9.9-28.4-13.7v145.9
				L387,104.7z"/>
		</g>
		<g>
			<path class="st7" d="M37.5,104.4l97.3,56.3v-146C95.2,30.2,60,57.4,35.2,95C33.1,98.2,34.2,102.5,37.5,104.4z"/>
		</g>
		<g>
			<path class="st8" d="M289.9,160.6V14.7C239-5.4,183.5-4.4,134.7,14.7v146l74.1,42.9c2.1,1.2,4.6,1.2,6.7,0L289.9,160.6z"/>
		</g>
	</g>
	<g>
		<path class="st9" d="M173.6,52.1c0.8,0.1,1.6,0.1,2.5,0.1c1.1,0,4.6,0,6,0c-0.4,0.6-0.8,1.8-0.9,2.5H176c-3.9,0-6.8-0.7-8.7-3.7
			c-0.7,1.6-1.6,3-2.8,4c-0.4-0.4-1.5-1.3-2-1.7c2.3-1.7,3.3-4.6,3.7-8.2l2.5,0.2c-0.1,0.9-0.3,1.7-0.4,2.5c0.6,1.7,1.6,2.7,2.8,3.4
			v-7.1h-4.5v-2.4h11.6v2.4h-4.5v2.5h5.8V49h-5.8V52.1z M165.8,42.9h-2.5v-5.3h7.8c-0.2-0.6-0.5-1.2-0.7-1.7l2.5-0.7
			c0.4,0.7,0.9,1.7,1.1,2.4h7.3v5.3h-2.6v-2.9h-13V42.9z"/>
		<path class="st9" d="M188.5,50.9c-0.7,1.5-2,3.2-3.1,4.2c-0.5-0.4-1.4-1.2-2-1.5c1.1-0.8,2.2-2.1,2.8-3.4L188.5,50.9z M193.9,50
			h-10.3v-2.2h1.9V40h-1.6v-2.2h1.6v-2.2h2.3v2.2h2.6v-2.2h2.3v2.2h1.4V40h-1.4v7.8h1.3V50z M187.7,40v1.2h2.6V40H187.7z
			 M187.7,44.5h2.6v-1.3h-2.6V44.5z M187.7,47.8h2.6v-1.4h-2.6V47.8z M202.5,52.2c0,1.2-0.2,1.9-1,2.3s-1.8,0.5-3.4,0.4
			c-0.1-0.7-0.4-1.7-0.7-2.4c0.9,0.1,1.9,0,2.2,0c0.3,0,0.4-0.1,0.4-0.4v-4.1h-3.2c-0.2,2.5-0.8,5.1-1.9,7c-0.4-0.4-1.4-1.2-2-1.4
			c0.1-0.1,0.1-0.2,0.2-0.4l-1.7,1c-0.4-0.8-1.4-2.2-2.3-3.2l1.9-1c0.8,0.8,1.7,2,2.3,2.9c1.2-2.6,1.3-6.2,1.3-8.9v-7.7h7.8V52.2z
			 M200.1,45.8v-2.6h-3V44c0,0.5,0,1.2,0,1.8H200.1z M197.1,38.6V41h3v-2.5H197.1z"/>
		<path class="st9" d="M215.7,52.1c0.8,0.1,1.6,0.1,2.5,0.1c1.1,0,4.6,0,6,0c-0.4,0.6-0.8,1.8-0.9,2.5h-5.2c-3.9,0-6.8-0.7-8.7-3.7
			c-0.7,1.6-1.6,3-2.8,4c-0.4-0.4-1.5-1.3-2-1.7c2.3-1.7,3.3-4.6,3.7-8.2l2.5,0.2c-0.1,0.9-0.3,1.7-0.4,2.5c0.6,1.7,1.6,2.7,2.8,3.4
			v-7.1h-4.5v-2.4h11.6v2.4h-4.5v2.5h5.8V49h-5.8V52.1z M207.9,42.9h-2.5v-5.3h7.8c-0.2-0.6-0.5-1.2-0.7-1.7l2.5-0.7
			c0.4,0.7,0.9,1.7,1.1,2.4h7.3v5.3h-2.6v-2.9h-13V42.9z"/>
		<path class="st9" d="M234.4,48.5L234.4,48.5l0,6.5h-2.2v-0.5h-2.7V55h-2.1v-6.1c-0.3,0.1-0.5,0.2-0.8,0.3c-0.2-0.5-0.8-1.5-1.2-2
			c1.3-0.4,2.5-0.9,3.6-1.6c-0.4-0.2-0.7-0.4-1.1-0.7l1.4-1.5l1.4,0.8c0.4-0.4,0.8-0.9,1.2-1.4h-2.5c-0.6,0.9-1.3,1.7-2.3,2.4
			c-0.3-0.5-0.8-1.3-1.2-1.7c1.6-1,2.6-2.5,3.1-3.9l1.9,0.4c-0.1,0.3-0.2,0.7-0.4,1h2.7l0.4-0.1l0,0v-1.6h-5.7v1.8H226v-3.8h3.7
			c-0.1-0.5-0.3-0.9-0.5-1.3l2-0.7c0.3,0.6,0.5,1.4,0.8,2h3.3v3.8h-1.6l0.9,0.7c-0.5,1.3-1.2,2.5-2.1,3.5c1.1,0.7,2.2,1.3,3,1.8
			L234.4,48.5z M233.6,48.5c-0.7-0.5-1.6-1.1-2.6-1.7c-0.8,0.7-1.7,1.2-2.7,1.7H233.6z M232.2,52.5v-2.1h-2.7v2.1H232.2z
			 M242.1,50.9c1.2,0.7,2.6,1.7,3.4,2.5l-1.5,1.7c-0.7-0.8-2.3-2-3.5-2.8l1.2-1.4h-3.1l1.5,1.6c-1.3,1-3.1,2-4.5,2.7
			c-0.2-0.5-0.7-1.3-1-1.8c1.3-0.6,3-1.6,4-2.5h-2.3V39.8h2.7c0.1-0.5,0.2-1,0.2-1.5h-3.4v-2.1h9.4v2.1h-3.7c-0.1,0.5-0.3,1-0.4,1.5
			h3.6v11.1H242.1z M238.6,42.9h3.8v-1.2h-3.8V42.9z M238.6,45.9h3.8v-1.2h-3.8V45.9z M238.6,48.9h3.8v-1.2h-3.8V48.9z"/>
	</g>
	<g>
		<path class="st9" d="M43.7,267.6c-2.3,0.8-4.8,1.6-6.9,2.3l-0.6-2.5c0.7-0.2,1.6-0.4,2.6-0.7v-4.9h-2.1v-2.3h2.1v-3.7h-2.3v-2.3
			h6.9v2.3h-2.3v3.7h1.9v2.3h-1.9v4.2c0.7-0.2,1.4-0.4,2.1-0.7L43.7,267.6z M56.2,268.9v2.3H42.6v-2.3h5.8v-2h-4.4v-2.3h4.4v-1.8
			h-4.2v-9.8h11v9.8H51v1.8h4.5v2.3H51v2H56.2z M46.5,257h2.2v-1.8h-2.2V257z M46.5,260.7h2.2v-1.8h-2.2V260.7z M52.9,255.2h-2.1
			v1.8h2.1V255.2z M52.9,258.9h-2.1v1.8h2.1V258.9z"/>
		<path class="st9" d="M62.2,267.3c-0.7,1.7-1.9,3.5-3,4.6c-0.4-0.4-1.4-1.1-2-1.4c1.1-0.9,2.1-2.4,2.6-3.8L62.2,267.3z M66.3,266.5
			h-7.8V253h7.8V266.5z M63.9,255h-3v1.9h3V255z M63.9,258.8h-3v2h3V258.8z M63.9,262.6h-3v2h3V262.6z M64.7,266.7
			c0.9,1,1.9,2.4,2.3,3.4l-2.1,1.1c-0.4-1-1.3-2.5-2.2-3.6L64.7,266.7z M77.1,259.5h-2.3v9.6c0,1.3-0.3,1.9-1,2.3
			c-0.7,0.4-1.8,0.5-3.3,0.5c-0.1-0.7-0.5-1.8-0.8-2.5c1,0,1.9,0,2.2,0c0.3,0,0.4-0.1,0.4-0.4v-6.4c-1.2,2.4-2.8,4.5-4.4,6
			c-0.4-0.6-1.2-1.4-1.7-1.8c2.1-1.6,4.1-4.4,5.3-7.3h-4.6v-2.3h5.5v-4.9h2.5v4.9h2.3V259.5z"/>
		<path class="st9" d="M83.6,264.1c-0.2-0.5-0.5-1.3-0.9-2v9.8h-2.1v-8.1c-0.4,1.5-0.9,2.8-1.4,3.7c-0.2-0.7-0.7-1.8-1-2.5
			c1-1.5,1.8-4.2,2.3-6.6h-1.7v-2.3h1.9v-3.9h2.1v3.9h1.4v2.3h-1.4v0.9c0.5,0.6,1.7,2.6,2,3.1L83.6,264.1z M96.9,265.6
			c-0.6,1.2-1.4,2.2-2.3,3.1c0.4,0.4,0.8,0.7,1.3,0.8c0.4,0,0.7-0.7,0.8-2.2c0.4,0.5,1.2,1.1,1.6,1.3c-0.5,2.6-1.4,3.3-2.3,3.3
			c-1.2-0.1-2.3-0.7-3.1-1.8c-1,0.7-2.1,1.3-3.3,1.7c-0.3-0.4-0.9-1.2-1.3-1.6c1.3-0.5,2.6-1.1,3.6-1.9c-0.4-1-0.8-2.1-1.1-3.4H88
			c0,0.1,0,0.3,0,0.5c0.9,0.7,2.1,1.7,2.7,2.3l-1.5,1.5c-0.4-0.4-1-1-1.6-1.5c-0.5,1.5-1.3,3-2.9,4.2c-0.3-0.4-1.2-1.2-1.7-1.4
			c2.2-1.6,2.8-3.8,2.9-5.5h-1.2V263h5.9c-0.4-2.1-0.6-4.6-0.7-7.4c-0.8,1.5-1.9,3.1-2.9,4.4l1.2-0.1c-0.1-0.3-0.2-0.7-0.3-0.9
			l1.5-0.4c0.4,1,0.7,2.3,0.8,3l-1.5,0.5c0-0.2-0.1-0.4-0.1-0.7c-2.5,0.4-3,0.5-3.3,0.7c-0.1-0.3-0.4-1.2-0.6-1.7
			c0.3-0.1,0.7-0.4,1-0.9c0.2-0.2,0.6-0.8,1-1.5c-1.1,0.1-1.5,0.3-1.7,0.4c-0.1-0.4-0.4-1.2-0.6-1.7c0.3-0.1,0.5-0.3,0.8-0.8
			c0.2-0.4,1-1.9,1.4-3.4l1.8,0.5c-0.5,1.2-1.2,2.5-1.8,3.5l0.9-0.1c0.2-0.4,0.4-0.9,0.6-1.3l1.7,0.6c0-1-0.1-2.1-0.1-3.2h2.1
			c0.1,4.1,0.4,7.8,0.9,10.7h1.9c-0.4-0.3-0.8-0.6-1.1-0.9l0.9-0.8c-1,0.2-1.3,0.3-1.5,0.4c-0.1-0.4-0.4-1.3-0.6-1.7
			c0.3-0.1,0.7-0.4,1-1c0.2-0.2,0.6-0.8,1-1.5c-1.1,0.1-1.4,0.3-1.6,0.4c-0.1-0.4-0.4-1.2-0.6-1.7c0.3-0.1,0.5-0.3,0.7-0.7
			c0.2-0.4,0.9-1.8,1.3-3.2l1.8,0.5c-0.4,1.1-1,2.3-1.6,3.2l0.9-0.1c0.2-0.4,0.4-0.9,0.5-1.3l1.8,0.6c-0.8,1.6-1.8,3.2-2.8,4.5
			l1.2-0.1c-0.1-0.3-0.2-0.6-0.3-0.9l1.4-0.4c0.4,1,0.8,2.3,1,3.1l-1.5,0.5c0-0.2-0.1-0.5-0.2-0.8c-0.5,0.1-1,0.1-1.3,0.2
			c0.6,0.4,1.2,0.9,1.6,1.3L96,263h1.7v1.9h-2.4L96.9,265.6z M93,264.9c0.2,0.7,0.4,1.3,0.6,1.8c0.5-0.6,0.9-1.2,1.2-1.8H93z"/>
		<path class="st9" d="M115.3,262.9c1.6,0.9,3.1,2,4,2.9l-1.7,1.5c-0.2-0.2-0.4-0.4-0.6-0.5v5.1h-2.3v-0.5h-2.5v0.6h-2.2v-6.8h4.9
			c-1.1-0.8-2.5-1.6-3.8-2.2h-4c-0.7,0.8-1.6,1.5-2.6,2.2h4v6.6h-2.3v-0.5H104v0.6h-2.2v-5.1c-0.4,0.2-0.8,0.3-1.1,0.5
			c-0.3-0.6-0.9-1.5-1.3-1.9c1.8-0.7,3.3-1.5,4.6-2.5h-4.1v-2.1h6.3c0.4-0.5,0.8-1.1,1.1-1.6h-5.9v-6.1h7.1v5.7l1.4,0.3
			c-0.3,0.6-0.6,1.2-0.9,1.7h4.7c-0.6-0.4-1.3-0.7-1.9-0.9l0.7-0.7h-2v-6.1h7.2v6.1h-3.5c0.7,0.3,1.3,0.7,1.8,1.1l-0.5,0.5h3.6v2.1
			H115.3z M106.1,255h-2.6v2.2h2.6V255z M106.4,267H104v2.2h2.4V267z M114.8,269.2V267h-2.5v2.2H114.8z M112.5,257.2h2.7V255h-2.7
			V257.2z"/>
		<path class="st9" d="M131.7,252.2c0,0.9-0.1,2-0.1,3.3c0.3,2.8,1.6,10.8,8.9,14c-0.8,0.6-1.5,1.5-1.8,2.2c-4.7-2.2-7-6.3-8.2-10
			c-1.2,3.7-3.4,7.5-7.7,10.1c-0.4-0.7-1.2-1.5-2.1-2c8.5-4.6,8.1-14,8.2-17.6H131.7z"/>
	</g>
	<g>
		<path class="st9" d="M138.3,65.6c0.7,2.1,2.1,4.1,4,5.1c-0.3,0.3-0.7,0.8-0.9,1.2c-0.4-0.3-0.9-0.6-1.3-1c0,0.1,0,0.2,0,0.2
			c-0.2,4.3-0.4,5.9-0.9,6.4c-0.3,0.4-0.6,0.5-1.2,0.6c-0.5,0.1-1.3,0-2.2,0c0-0.4-0.2-0.9-0.4-1.3c0.8,0.1,1.6,0.1,2,0.1
			c0.3,0,0.4,0,0.6-0.2c0.3-0.3,0.5-1.7,0.6-4.9h-3.2c-0.4,2.7-1.3,5.2-4.9,6.5c-0.2-0.4-0.5-0.9-0.8-1.2c3.2-1.1,4-3.1,4.3-5.3
			h-2.6v-1c-0.4,0.4-0.8,0.8-1.2,1.1c-0.2-0.3-0.8-0.7-1.1-1c1.6-1.2,2.9-3,3.6-5.2l1.4,0.3c-0.6,1.7-1.4,3.2-2.4,4.4h8.1
			c-1-1.1-1.9-2.4-2.4-3.7H135v-1.2H138.3z"/>
		<path class="st9" d="M156.7,69.1c-0.3,2.2-0.8,4-1.5,5.5c0.6,1.1,1.5,2,2.5,2.5c-0.3,0.2-0.7,0.7-0.9,1.1c-1-0.6-1.7-1.4-2.3-2.4
			c-0.7,1-1.5,1.8-2.6,2.4c-0.1-0.3-0.5-0.8-0.7-1.1c1.2-0.6,2-1.5,2.7-2.6c-0.5-1.1-0.9-2.3-1.2-3.6c-0.2,0.6-0.5,1.1-0.8,1.6
			c-0.2-0.3-0.6-0.8-0.9-1.1c0.2-0.3,0.4-0.6,0.5-0.9h-6.8v-1.1h1.5v-1.5h-1.3V67h1.3v-1.5h1.2V67h1.5v-1.5h1.2V67h1.3v1.1h-1.3v1.5
			h1.3v1c0.6-1.4,1.1-3.3,1.3-5.1l1.2,0.2c-0.1,0.8-0.3,1.6-0.4,2.4h4v1.2H156.7z M150.8,77c0,0.6-0.1,0.9-0.5,1.1
			c-0.4,0.2-1,0.2-1.8,0.2c0-0.3-0.2-0.8-0.4-1.1c0.5,0,1.1,0,1.2,0c0.2,0,0.2,0,0.2-0.2v-1.4c-0.9,0.4-1.8,0.8-2.5,1.1l-0.4-0.9
			c-0.1,0.9-0.4,1.9-0.9,2.6c-0.2-0.2-0.7-0.6-1-0.7c0.8-1.1,0.9-2.5,0.9-3.6v-2.7h5.2V77z M146.8,74c0,0.5,0,1-0.1,1.5
			c0.8-0.2,1.8-0.6,2.9-0.9v-2.3h-2.8V74z M147.4,72.7c0.7,0.4,1.5,0.8,2,1.1l-0.6,0.8c-0.4-0.3-1.3-0.9-2-1.2L147.4,72.7z
			 M147.4,69.5h1.5v-1.5h-1.5V69.5z M153.3,69.1c0.3,1.5,0.6,2.9,1.2,4.2c0.5-1.2,0.8-2.6,1-4.2H153.3z"/>
		<path class="st9" d="M164,72.2c-0.2,1.2-0.5,2.2-0.9,3.1c0.9,1.4,2.5,1.6,4.9,1.6c1.5,0,3.6-0.1,5.1-0.2c-0.2,0.3-0.4,0.9-0.4,1.2
			c-1.4,0.1-3.1,0.1-4.7,0.1c-2.7,0-4.3-0.3-5.4-1.7c-0.5,0.9-1.1,1.5-1.8,2c-0.2-0.3-0.6-0.7-0.9-0.9c1.3-0.8,2.3-2.3,2.8-4.4h-1.4
			c-0.4,0-0.7,0.1-0.8,0.2c-0.1-0.3-0.3-0.9-0.4-1.1c0.2-0.1,0.4-0.2,0.7-0.4c0.3-0.3,1-1.3,1.6-2.1h-2v-1.1h2.9l0.2-0.1l0.8,0.4
			c-0.5,0.8-1.5,2.2-2.3,3.1h1.3l0.2,0L164,72.2z M162.5,68.2c-0.4-0.6-1.2-1.5-1.8-2.2l1-0.6c0.6,0.7,1.4,1.6,1.8,2.1L162.5,68.2z
			 M165.1,70c-0.3,0.4-0.6,0.8-1,1.2c-0.1-0.2-0.5-0.8-0.7-1c1.1-1.2,2.1-2.9,2.7-4.7l1.1,0.3c-0.2,0.6-0.5,1.3-0.8,1.9h2.5
			c-0.2-0.5-0.5-1.2-0.8-1.7l1.1-0.3c0.4,0.6,0.8,1.5,1,2.1h2.4v1.1h-2.9v1.2h2.5v1h-2.5v1.2h2.5v1h-2.5v1.3h3.2v1.1h-7.7V70z
			 M168.4,68.7h-2.2v1.2h2.2V68.7z M168.4,70.9h-2.2v1.2h2.2V70.9z M168.4,73.1h-2.2v1.3h2.2V73.1z"/>
		<path class="st9" d="M180.1,73.8c-1.4,0.7-2.9,1.5-4.1,2l-0.5-1.3c0.5-0.2,1.1-0.5,1.8-0.8v-4.2h-1.5v-1.2h1.5v-2.8h1.2v2.8h1.4
			v1.2h-1.4v3.6c0.4-0.2,0.9-0.4,1.3-0.6L180.1,73.8z M182.8,72.1c-0.2,0.3-0.3,0.6-0.5,0.8h5.9c0,0,0,0.3,0,0.5
			c-0.2,2.8-0.4,3.9-0.8,4.3c-0.2,0.3-0.5,0.4-0.8,0.4c-0.3,0-0.8,0-1.4,0c0-0.3-0.1-0.8-0.3-1.1c0.5,0.1,0.9,0.1,1.1,0.1
			c0.2,0,0.3,0,0.4-0.2c0.2-0.2,0.4-1,0.6-3H186c-0.6,1.6-1.7,3.4-2.8,4.3c-0.2-0.2-0.6-0.5-0.9-0.7c1.1-0.7,2.1-2.1,2.7-3.5h-1.1
			c-0.8,1.4-2.1,2.9-3.3,3.7c-0.2-0.3-0.6-0.6-0.9-0.8c1.1-0.6,2.3-1.7,3-2.9h-1.2c-0.5,0.6-1.1,1.1-1.7,1.5
			c-0.2-0.2-0.6-0.6-0.9-0.8c1.1-0.6,2-1.5,2.7-2.6h-1.8V71h8.8v1.1H182.8z M187.5,70.3H181v-4.6h6.5V70.3z M186.3,66.7h-4.1v0.9
			h4.1V66.7z M186.3,68.5h-4.1v0.9h4.1V68.5z"/>
		<path class="st9" d="M195.6,75.5h-2.9v1.2h-1.2V66.2h4.1V75.5z M192.7,67.4v2.8h1.7v-2.8H192.7z M194.4,74.4v-3h-1.7v3H194.4z
			 M200.5,68.1v1.6h2.9v1.1h-1.1v1.3h1.5v1.2h-1.5v3.5c0,0.7-0.2,1-0.6,1.2c-0.5,0.2-1.2,0.2-2.3,0.2c-0.1-0.4-0.3-0.9-0.4-1.2
			c0.8,0,1.6,0,1.8,0c0.2,0,0.3-0.1,0.3-0.3v-3.4h-5.1v-1.2h5.1v-1.3h-4.6v-1.1h2.8v-1.6h-3.3v-1.2h3.3v-1.6h1.3v1.6h3.4v1.2H200.5z
			 M197.7,73.7c0.6,0.7,1.4,1.7,1.8,2.3l-1.2,0.7c-0.3-0.6-1.1-1.7-1.7-2.4L197.7,73.7z"/>
		<path class="st9" d="M208.4,70.8v7.4h-1.3V65.9h5.2v4.9H208.4z M208.4,66.9v1h2.7v-1H208.4z M211.1,69.8v-1h-2.7v1H211.1z
			 M218.7,76.6c0,0.7-0.2,1.2-0.7,1.4c-0.5,0.2-1.3,0.2-2.4,0.2c-0.1-0.4-0.2-0.9-0.4-1.3h-3.8v0.7h-1.2v-5.9h5.3v5.1
			c0.7,0,1.4,0,1.6,0c0.3,0,0.3-0.1,0.3-0.3v-5.8h-4v-4.9h5.3V76.6z M211.4,72.8v1.1h2.8v-1.1H211.4z M214.3,76v-1.2h-2.8V76H214.3z
			 M214.6,66.9v1h2.7v-1H214.6z M217.4,69.9v-1.1h-2.7v1.1H217.4z"/>
		<path class="st9" d="M221.8,77.7c0.4-0.7,0.7-1.7,0.9-2.6l0.9,0.3c-0.2,0.9-0.4,2-0.8,2.6L221.8,77.7z M228.3,74.6h-6.2v-1h2.5
			v-0.9h-2.3v-1h2.3v-0.8h-2.2v-5.1h5.7v5.1h-2.3v0.8h2.3v1h-2.3v0.9h2.5V74.6z M223.4,70h1.4v-3.2h-1.4V70z M224.1,67.2
			c0.2,0.6,0.4,1.5,0.4,2l-0.6,0.2c0-0.6-0.2-1.4-0.4-2.1L224.1,67.2z M224.8,75.4c0.2,0.8,0.2,1.8,0.2,2.4l-0.9,0.1
			c0-0.7,0-1.7-0.2-2.4L224.8,75.4z M226.2,75.3c0.3,0.7,0.5,1.6,0.6,2.2l-0.8,0.2c-0.1-0.6-0.3-1.6-0.6-2.3L226.2,75.3z M227,66.7
			h-1.4V70h1.4V66.7z M225.7,69.3c0.2-0.6,0.5-1.5,0.6-2.1l0.7,0.3c-0.3,0.7-0.5,1.5-0.8,2.1L225.7,69.3z M227.6,75.1
			c0.4,0.7,0.8,1.6,1,2.2l-0.9,0.3c-0.1-0.6-0.5-1.5-0.9-2.2L227.6,75.1z M231.9,69.5V72h2.3v6.2H233v-0.5h-3.1v0.6h-1.2V72h1.9
			v-6.6h1.3v3h2.8v1.2H231.9z M233,73.1h-3.1v3.3h3.1V73.1z"/>
		<path class="st9" d="M238.7,73.8c1.1-0.4,1.7-1.1,1.8-1.9c-0.1,0-0.1,0-0.2,0c-0.6,0-1.2-0.4-1.2-1.1c0-0.7,0.5-1.1,1.2-1.1
			c0.9,0,1.3,0.7,1.3,1.8c0,1.6-1,2.8-2.6,3.3L238.7,73.8z"/>
		<path class="st9" d="M258.4,67.6h-1.7v8.9c0,0.8-0.2,1.3-0.8,1.5c-0.6,0.2-1.6,0.3-3,0.3c-0.1-0.4-0.3-1-0.5-1.4
			c1.1,0.1,2.2,0,2.6,0c0.3,0,0.4-0.1,0.4-0.4v-8.8h-9.4v-1.3h12.5V67.6z M248.6,74.7v1.1h-1.3v-6.4h5.8v5.3H248.6z M248.6,70.7v2.8
			h3.2v-2.8H248.6z"/>
		<path class="st9" d="M266.6,76.5c-1.2,0.7-2.9,1.4-4.4,1.8c-0.2-0.3-0.7-0.7-1-1c1.5-0.3,3.2-0.8,4.2-1.3L266.6,76.5z M273.1,66
			v3.2h-10.9V66H273.1z M272.3,69.9V76H263v-6.1H272.3z M263.4,68.2h2V67h-2V68.2z M264.3,71.7h6.6v-0.9h-6.6V71.7z M264.3,73.4h6.6
			v-0.9h-6.6V73.4z M264.3,75.1h6.6v-0.9h-6.6V75.1z M266.5,68.2h2V67h-2V68.2z M269.6,76c1.6,0.5,3.3,1.1,4.4,1.6l-1.4,0.7
			c-0.9-0.4-2.5-1.1-4-1.6L269.6,76z M269.7,68.2h2.1V67h-2.1V68.2z"/>
		<path class="st9" d="M289.2,67.4v1.2h-7.6c-0.5,1-1,2-1.7,2.8v6.7h-1.3V73c-0.4,0.4-0.9,0.9-1.5,1.2c-0.1-0.4-0.4-0.9-0.6-1.2
			c1.5-1.1,2.7-2.6,3.6-4.3h-3.2v-1.2h3.8c0.3-0.7,0.5-1.4,0.7-2.1l1.4,0.3c-0.2,0.6-0.4,1.2-0.6,1.7H289.2z M285.6,76.7h3.5v1.2
			h-8.4v-1.2h3.5v-3.6h-3v-1.2h3v-2.5h1.3v2.5h3v1.2h-3V76.7z"/>
		<path class="st9" d="M141.4,90.7c-0.8,0.6-1.9,1.2-2.8,1.7c1,0.7,2.2,1.1,3.6,1.4c-0.3,0.3-0.7,0.8-0.8,1.2
			c-3.2-0.7-5.2-2.4-6.4-5h-2.1v3.4l3.5-0.8c-0.1,0.3-0.1,0.9-0.1,1.1c-3.6,0.9-4.3,1.1-4.7,1.2l-0.1,0.1c-0.1-0.3-0.3-1-0.6-1.3
			c0.3-0.1,0.7-0.4,0.7-1V90h-2.2v-1.2h2.4v-6.1h8.7v1.1h-7.4v1h6.9v1h-6.9v1h6.9v1h-6.9v1h8.8V90h-1.6L141.4,90.7z M136.4,90
			c0.4,0.6,0.8,1.2,1.3,1.7c0.9-0.5,1.9-1.2,2.6-1.7H136.4z"/>
		<path class="st9" d="M147.7,92.3c-0.5,1.1-1.3,2.1-2.1,2.8c-0.2-0.2-0.7-0.6-1-0.8c0.8-0.6,1.5-1.5,1.9-2.4L147.7,92.3z
			 M151.5,91.7h-6.8v-1.1h1.3v-5.5h-1.1V84h1.1v-1.6h1.2V84h2.2v-1.6h1.2V84h1v1.1h-1v5.5h1V91.7z M147.2,85.1v1.1h2.2v-1.1H147.2z
			 M147.2,88.3h2.2v-1.2h-2.2V88.3z M147.2,90.6h2.2v-1.2h-2.2V90.6z M149.5,91.9c0.5,0.6,1.2,1.5,1.5,2l-1.1,0.6
			c-0.3-0.6-0.9-1.5-1.5-2.1L149.5,91.9z M157.1,93.5c0,0.7-0.2,1.1-0.6,1.3c-0.4,0.2-1.1,0.3-2.1,0.2c0-0.3-0.2-0.9-0.4-1.2
			c0.7,0,1.4,0,1.5,0c0.2,0,0.3-0.1,0.3-0.3v-3.1h-2.6c-0.2,1.7-0.5,3.5-1.3,4.7c-0.2-0.2-0.8-0.6-1-0.8c1.1-1.8,1.2-4.5,1.2-6.5
			v-5.1h5V93.5z M155.8,89.2v-2h-2.5v0.7c0,0.4,0,0.9,0,1.3H155.8z M153.4,84.1v2h2.5v-2H153.4z"/>
		<path class="st10" d="M172.8,90.3h-5.6v4.8h-1.3v-4.8h-5.6V89h5.6v-4.6H161v-1.3h11v1.3h-4.8V89h5.6V90.3z M163.1,85
			c0.5,1,1.1,2.2,1.2,3l-1.3,0.4c-0.2-0.8-0.7-2.1-1.2-3.1L163.1,85z M168.6,88.1c0.5-0.8,1.1-2.2,1.4-3.2l1.4,0.4
			c-0.5,1.1-1.1,2.4-1.6,3.1L168.6,88.1z"/>
		<path class="st10" d="M188.2,84.5c0,0,0,0.5,0,0.7c-0.2,6.3-0.4,8.6-1,9.3c-0.3,0.5-0.7,0.6-1.2,0.7c-0.5,0.1-1.3,0.1-2.2,0
			c0-0.4-0.2-0.9-0.4-1.3c0.9,0.1,1.7,0.1,2,0.1c0.3,0,0.4,0,0.6-0.2c0.4-0.5,0.6-2.6,0.8-7.9h-4.7c-0.5,0.9-1.1,1.8-1.6,2.4
			c-0.3-0.2-0.9-0.6-1.2-0.8c0.2-0.2,0.3-0.3,0.4-0.5h-1.2v4c0.5-0.2,1-0.5,1.6-0.7l0.4,1.2c-1.6,0.8-3.3,1.7-4.6,2.3l-0.5-1.3
			c0.5-0.2,1.2-0.5,1.9-0.9v-4.6h-1.7v-1.2h1.7v-3.1h1.3v3.1h1.5v0.9c0.9-1.2,1.6-2.7,2.1-4.3l1.3,0.3c-0.2,0.7-0.5,1.3-0.8,1.9
			H188.2z M181,90.6h4.7v1.2H181V90.6z M185.4,87.5v1.2h-4.1v-1.2H185.4z"/>
		<path class="st10" d="M194.8,82.6c-0.3,0.9-0.7,1.9-1.1,2.8v9.7h-1.2v-7.4c-0.4,0.6-0.7,1.1-1.1,1.5c-0.1-0.3-0.4-1.1-0.6-1.4
			c1.2-1.4,2.2-3.4,2.9-5.5L194.8,82.6z M197.7,93l0.9,0.6c-0.9,0.6-2.2,1.2-3.5,1.4c-0.2-0.3-0.5-0.7-0.7-0.9
			C195.5,94,196.9,93.5,197.7,93h-2.3v-5.1h7.8V93H197.7z M197.5,83.8h-2.7v-1h8.9v1h-2.9v0.7h2.4v2.8h-8.2v-2.8h2.4V83.8z
			 M196.3,86.5h1.2v-1.2h-1.2V86.5z M196.6,89.4h5.3v-0.7h-5.3V89.4z M196.6,90.8h5.3v-0.7h-5.3V90.8z M196.6,92.3h5.3v-0.7h-5.3
			V92.3z M199.8,83.8h-1.3v0.7h1.3V83.8z M198.5,86.5h1.3v-1.2h-1.3V86.5z M200.7,93c1.2,0.4,2.6,0.9,3.4,1.3l-1.1,0.7
			c-0.7-0.4-1.9-0.9-3.1-1.3L200.7,93z M200.9,85.4v1.2h1.3v-1.2H200.9z"/>
		<path class="st10" d="M218.4,84c-0.5,1.4-1.2,2.7-2.2,3.7c0.9,0.7,2,1.3,3.3,1.7c-0.3,0.3-0.6,0.8-0.8,1.1
			c-0.2-0.1-0.3-0.1-0.5-0.2V95H217v-0.5h-3.5v0.5h-1.2v-4.6c-0.3,0.1-0.6,0.3-0.9,0.4c-0.2-0.3-0.5-0.8-0.7-1.1l0.1,0
			c-0.2-0.4-0.6-1-0.9-1.5v6.8h-1.2V89c-0.5,1.4-1.1,2.7-1.7,3.5c-0.1-0.4-0.4-0.9-0.6-1.2c0.9-1.2,1.8-3.2,2.2-5h-1.9v-1.2h2v-2.9
			h1.2v2.9h1.7v0.8c1-1,1.9-2.3,2.4-3.7l1.2,0.3c-0.2,0.4-0.3,0.8-0.5,1.2h2.7l0.2-0.1L218.4,84z M211,89.7c1.2-0.4,2.4-1.1,3.5-2
			c-0.5-0.5-0.9-1.1-1.3-1.7c-0.4,0.5-0.8,0.9-1.2,1.3c-0.2-0.2-0.7-0.7-1-0.9l0.1-0.1h-1.2v0.5c0.4,0.4,1.5,1.8,1.7,2.1L211,89.7z
			 M217.4,89.9c-0.8-0.4-1.5-0.9-2.1-1.4c-0.6,0.5-1.3,1-2,1.4H217.4z M217,93.4v-2.3h-3.5v2.3H217z M214,84.8l-0.1,0.2
			c0.3,0.6,0.8,1.3,1.4,1.9c0.6-0.6,1.1-1.3,1.4-2.1H214z"/>
		<path class="st9" d="M223.3,90.6c1.1-0.4,1.7-1.1,1.8-1.9c-0.1,0-0.1,0-0.2,0c-0.6,0-1.2-0.4-1.2-1.1c0-0.7,0.5-1.1,1.2-1.1
			c0.9,0,1.3,0.7,1.3,1.8c0,1.6-1,2.8-2.6,3.3L223.3,90.6z"/>
		<path class="st9" d="M236.7,84.8c0,0,0,0.5,0,0.6c-0.1,6.1-0.2,8.1-0.6,8.8c-0.3,0.4-0.5,0.5-1,0.6c-0.4,0.1-1,0.1-1.7,0
			c0-0.4-0.2-1-0.4-1.3c0.6,0,1.2,0,1.4,0c0.2,0,0.4,0,0.5-0.2c0.3-0.4,0.4-2.2,0.5-7.3h-1.8c-0.1,3.7-0.6,7-2.5,9
			c-0.2-0.3-0.7-0.7-1-0.9c1.7-1.8,2-4.7,2.1-8.1h-1.8v-1.3h1.8c0-0.8,0-1.6,0-2.4h1.3c0,0.8,0,1.6,0,2.4H236.7z M242.5,83.9v10.9
			h-1.3v-0.9h-2.3v1h-1.2v-11H242.5z M241.2,92.6v-7.5h-2.3v7.5H241.2z"/>
		<path class="st9" d="M258.4,93.1v1.3h-12.6v-1.3h5.1V82.4h1.4v4.2h5.1v1.3h-5.1v5.2H258.4z"/>
		<path class="st11" d="M264.8,85.9c-0.5,2-1.2,4.6-2.5,6.1c-0.3-0.2-0.9-0.6-1.2-0.7c1.2-1.5,1.9-3.9,2.2-5.7L264.8,85.9z
			 M268.4,82.4v11c0,0.9-0.2,1.2-0.8,1.5c-0.6,0.2-1.5,0.3-2.8,0.2c-0.1-0.4-0.3-1-0.5-1.4c1,0,2,0,2.3,0c0.3,0,0.4-0.1,0.4-0.4v-11
			H268.4z M271.6,85.5c1.2,2,2.3,4.5,2.7,6.2l-1.4,0.6c-0.3-1.7-1.4-4.3-2.5-6.3L271.6,85.5z"/>
		<path class="st11" d="M282.2,90.9V95h-1.2v-0.4h-2.2V95h-1.1v-4c-0.2,0.1-0.4,0.2-0.6,0.3c-0.1-0.3-0.4-0.8-0.6-1.1
			c0.9-0.3,1.8-0.7,2.6-1.3c-0.3-0.2-0.6-0.4-0.9-0.5l0.7-0.8c0.3,0.2,0.7,0.4,1,0.6c0.4-0.4,0.7-0.8,1-1.2H279
			c-0.4,0.6-0.9,1.2-1.6,1.6c-0.1-0.3-0.4-0.7-0.7-0.9c1.1-0.7,1.8-1.8,2.1-2.7l1,0.2c-0.1,0.3-0.2,0.5-0.3,0.7h1.9l0.2,0l0.7,0.5
			c-0.4,0.9-0.9,1.7-1.4,2.4c0.8,0.5,1.6,1,2.1,1.3L282.2,90.9z M277.8,86h-1v-2.4h2.5c-0.1-0.3-0.3-0.7-0.4-1l1-0.4
			c0.2,0.4,0.4,0.9,0.6,1.3h2.3V86h-1v-1.4h-4V86z M282,90.8c-0.5-0.4-1.2-0.8-1.9-1.3c-0.6,0.5-1.2,0.9-1.9,1.3H282z M281.1,93.6
			v-1.8h-2.2v1.8H281.1z M286,93.3c-0.8,0.7-2,1.4-2.9,1.8c-0.1-0.3-0.4-0.7-0.6-1c0.9-0.4,2-1.1,2.7-1.6L286,93.3z M285.4,85.1
			c0.1-0.4,0.2-0.8,0.2-1.2h-2.4v-1.1h6.1v1.1h-2.5c-0.1,0.4-0.2,0.8-0.4,1.2h2.5v7.3h-5.3v-7.3H285.4z M287.8,86.2h-2.9v1.1h2.9
			V86.2z M287.8,88.2h-2.9v1.1h2.9V88.2z M287.8,90.3h-2.9v1.1h2.9V90.3z M287.2,92.5c0.8,0.5,1.8,1.2,2.3,1.7l-0.7,0.9
			c-0.5-0.5-1.5-1.3-2.3-1.8L287.2,92.5z"/>
		<path class="st9" d="M134.1,107c0.7,1.1,1.6,2.7,1.9,3.6l-1.2,0.6c-0.1-0.4-0.3-0.8-0.6-1.3c-3.4,1.2-3.9,1.4-4.3,1.6
			c-0.1-0.4-0.3-1-0.5-1.3c0.3-0.1,0.6-0.4,0.6-0.9v-9.5h5.6v6.7h-4.2v3.1l2.3-0.7c-0.3-0.5-0.5-0.9-0.7-1.3L134.1,107z
			 M131.5,100.9v1.6h2.9v-1.6H131.5z M134.4,105.3v-1.6h-2.9v1.6H134.4z M141.5,107.9c0,0.6-0.1,1-0.5,1.2c-0.4,0.2-1.1,0.2-2,0.2
			c0-0.4-0.2-0.9-0.4-1.2c0.6,0,1.2,0,1.4,0c0.2,0,0.3-0.1,0.3-0.3V101h-2.2v10.9h-1.3V99.9h4.7V107.9z"/>
		<path class="st9" d="M157.4,101.3h-1.7v8.9c0,0.8-0.2,1.3-0.8,1.5c-0.6,0.2-1.6,0.3-3,0.3c-0.1-0.4-0.3-1-0.5-1.4
			c1.1,0.1,2.2,0,2.6,0c0.3,0,0.4-0.1,0.4-0.4v-8.8h-9.4V100h12.5V101.3z M147.5,108.4v1.1h-1.3v-6.4h5.8v5.3H147.5z M147.5,104.4
			v2.8h3.2v-2.8H147.5z"/>
		<path class="st9" d="M164.6,106.3c-0.4,0.1-0.9,0.3-1.4,0.4v3.7c0,0.7-0.1,1-0.5,1.2c-0.4,0.2-1,0.2-2,0.2c0-0.3-0.2-0.9-0.4-1.2
			c0.6,0,1.2,0,1.4,0c0.2,0,0.3-0.1,0.3-0.3v-3.3l-1.6,0.4l-0.4-1.3c0.6-0.1,1.2-0.3,2-0.5V103h-1.8v-1.2h1.8v-2.7h1.3v2.7h1.6v1.2
			h-1.6v2.4l1.2-0.3L164.6,106.3z M172.1,105.4c-0.5,1.7-1.4,3-2.6,4c1,0.6,2.2,1,3.5,1.3c-0.3,0.3-0.6,0.8-0.8,1.2
			c-1.4-0.4-2.7-0.9-3.8-1.6c-1.2,0.8-2.5,1.3-4,1.6c-0.1-0.4-0.4-0.9-0.6-1.2c1.3-0.3,2.5-0.7,3.6-1.3c-0.9-0.8-1.6-1.8-2.1-3
			l0.4-0.1h-0.7v-1.2h6.2l0.2,0L172.1,105.4z M167.4,101.1c0,1.3-0.4,2.8-2.2,3.8c-0.2-0.3-0.6-0.8-0.9-1c1.6-0.8,1.8-1.9,1.8-2.9
			v-1.5h4.6v3.1c0,0.4,0,0.5,0.3,0.5h0.9c0.2,0,0.5,0,0.7-0.1c0,0.3,0.1,0.8,0.1,1.1c-0.2,0.1-0.5,0.1-0.8,0.1h-1.1
			c-1.2,0-1.4-0.5-1.4-1.7v-1.9h-2.2V101.1z M166.5,106.4c0.5,0.9,1.1,1.7,2,2.4c0.8-0.6,1.4-1.4,1.9-2.4H166.5z"/>
		<path class="st9" d="M184.3,101.1c0,0.1,0,0.2,0,0.3c0.8,0.8,2.3,1.2,4.1,1.4c-0.3,0.3-0.6,0.7-0.7,1.1c-1.6-0.2-2.9-0.7-3.8-1.5
			c-0.5,0.6-1.6,1.3-4,1.6c-0.1-0.3-0.4-0.7-0.7-1h-3.6v-1h4.1v0.9c3-0.4,3.4-1.2,3.4-1.8v-0.2H182c-0.3,0.5-0.7,1-1,1.3
			c-0.2-0.2-0.7-0.5-1-0.7c0.7-0.6,1.3-1.6,1.6-2.6l1.2,0.3c-0.1,0.2-0.2,0.5-0.3,0.7h4.4l0.2-0.1l0.9,0.3c-0.4,0.7-0.8,1.6-1.2,2.1
			l-1-0.4c0.2-0.3,0.4-0.6,0.6-1h-2V101.1z M184.2,109.7c1.4,0.5,3,1.1,4,1.5l-1.2,0.7c-0.9-0.5-2.3-1.1-3.8-1.6l0.8-0.7h-4.2
			l1.2,0.5c-1.1,0.7-2.9,1.4-4.3,1.8c-0.2-0.3-0.7-0.7-1-1c1.4-0.3,3.1-0.8,4-1.3h-2.3V104h9.2v5.6H184.2z M179.4,100.8H176v-1h3.4
			V100.8z M178.8,105.6h6.6v-0.8h-6.6V105.6z M178.8,107.2h6.6v-0.8h-6.6V107.2z M178.8,108.8h6.6V108h-6.6V108.8z"/>
		<path class="st9" d="M192.4,107.4c1.1-0.4,1.7-1.1,1.8-1.9c-0.1,0-0.1,0-0.2,0c-0.6,0-1.2-0.4-1.2-1.1c0-0.7,0.5-1.1,1.2-1.1
			c0.9,0,1.3,0.7,1.3,1.8c0,1.6-1,2.8-2.6,3.3L192.4,107.4z"/>
		<path class="st9" d="M203.3,105.9c-0.2,1.2-0.5,2.2-0.9,3.1c0.9,1.4,2.5,1.6,4.9,1.6c1.5,0,3.6-0.1,5.1-0.2
			c-0.2,0.3-0.4,0.9-0.4,1.2c-1.4,0.1-3.1,0.1-4.7,0.1c-2.7,0-4.3-0.3-5.4-1.7c-0.5,0.9-1.1,1.5-1.8,2c-0.2-0.3-0.6-0.7-0.9-0.9
			c1.3-0.8,2.3-2.3,2.7-4.4h-1.4c-0.4,0-0.7,0.1-0.8,0.2c-0.1-0.3-0.3-0.9-0.4-1.1c0.2-0.1,0.4-0.2,0.7-0.4c0.3-0.3,1-1.3,1.6-2.1
			h-2v-1.1h2.9l0.2-0.1l0.8,0.4c-0.5,0.8-1.5,2.2-2.3,3.1h1.3l0.2,0L203.3,105.9z M201.8,101.9c-0.4-0.6-1.2-1.5-1.8-2.2l1-0.6
			c0.6,0.7,1.4,1.5,1.8,2.1L201.8,101.9z M205.5,101.1h-2.1v-1h3.6c-0.2-0.3-0.3-0.6-0.5-0.8l1-0.4c0.3,0.4,0.6,0.8,0.8,1.2h3.8v1
			h-1.9l0.2,0c-0.2,0.4-0.4,0.8-0.6,1.2h2v6.1c0,0.6-0.1,0.9-0.5,1.1c-0.4,0.2-1,0.2-1.8,0.2c-0.1-0.3-0.2-0.8-0.4-1.1
			c0.5,0,1.1,0,1.2,0c0.2,0,0.2-0.1,0.2-0.2v-5h-2.2v0.9h1.9v0.8h-1.9v0.9h1.4v2.5h-2.8v0.5H206v-3h1.4v-0.9h-1.9v-0.8h1.9v-0.9
			h-2.2v6.3H204v-7.4h1.6c-0.1-0.4-0.3-0.8-0.5-1.1L205.5,101.1z M208.5,102.4c0.2-0.4,0.4-0.8,0.5-1.2h-2.8
			c0.2,0.4,0.4,0.9,0.5,1.2l-0.2,0.1H208.5z M208.8,106.8h-1.9v0.9h1.9V106.8z"/>
		<path class="st9" d="M222.6,99.6c-0.1,0.2-0.3,0.4-0.4,0.6c1.7,1.7,3.6,2.8,5.7,3.6c-0.4,0.3-0.7,0.8-0.9,1.2
			c-0.7-0.4-1.5-0.7-2.2-1.2v0.9h-7v-0.7c-0.7,0.4-1.3,0.8-2,1.1c-0.2-0.4-0.6-0.9-1-1.2c2.6-1,5.2-2.8,6.6-5L222.6,99.6z
			 M217,106.2h8.8v5.6h-1.4v-0.6h-6.1v0.7H217V106.2z M218.3,107.4v2.6h6.1v-2.6H218.3z M224.4,103.6c-1-0.7-2-1.4-3-2.4
			c-0.8,0.9-1.8,1.7-2.8,2.4H224.4z"/>
		<path class="st9" d="M237.4,110.4h5.3v1.2h-11.8v-1.2h5.2v-2.1h-3.8v-1.1h3.8v-1.9h-3.1v-1.1c-0.6,0.4-1.2,0.8-1.8,1.1
			c-0.2-0.3-0.5-0.8-0.8-1.1c1.7-0.7,3.6-2.1,5-3.5h-2.2v-1.2h4.5c1.2,1.9,3.6,3.7,5.9,4.6c-0.3,0.3-0.7,0.8-0.9,1.2
			c-0.6-0.3-1.2-0.6-1.8-1v1.1h-3.2v1.9h3.8v1.1h-3.8V110.4z M232.9,104.1h7.6c-1.4-1-2.8-2.2-3.8-3.5
			C235.7,101.9,234.3,103.1,232.9,104.1z"/>
		<path class="st9" d="M250.7,105.5v5.2c0,0.5-0.1,0.8-0.4,1c-0.3,0.2-0.8,0.2-1.6,0.2c-0.1-0.3-0.2-0.7-0.4-1c0.5,0,0.9,0,1.1,0
			c0.1,0,0.2,0,0.2-0.2v-1.6c-0.6,0.4-1.1,0.7-1.7,1l-0.4-0.8c-0.1,0.9-0.4,1.9-0.9,2.7c-0.2-0.2-0.7-0.5-0.9-0.7
			c0.7-1.1,0.8-2.5,0.8-3.6v-2.2h-0.7v-2.1h0.6v-3.9h4.3v3.9h0.6v2.1H250.7z M250.3,104.3h-3.5v0.8h3.5V104.3z M247.5,103.4h0.7
			v-2.2h1.5v-0.7h-2.2V103.4z M247.6,107.7c0,0.5,0,1-0.1,1.5c0.6-0.2,1.3-0.6,2-1V106h-2v1l0.5-0.5c0.5,0.3,1.1,0.8,1.4,1.1
			l-0.6,0.7c-0.3-0.3-0.9-0.8-1.4-1.1V107.7z M249.6,103.4V102h-0.7v1.4H249.6z M258.6,110.7v1h-7.3v-1h1.9
			c-0.1-0.4-0.3-0.8-0.4-1.2l0.9-0.3h-1.6v-2.7h5.8v2.7h-1.6l1.1,0.3c-0.2,0.4-0.4,0.8-0.7,1.2H258.6z M258.5,106h-7v-1h7L258.5,106
			z M258.2,104.4h-6.4v-4.3h1.7v-1h1v1h0.8v-1h1v1h1.8V104.4z M252.7,101.8h0.9V101h-0.9V101.8z M252.7,103.5h0.9v-0.9h-0.9V103.5z
			 M253.2,108.4h3.4v-1h-3.4V108.4z M253.7,109.2c0.2,0.5,0.5,1,0.6,1.5h1.2c0.2-0.5,0.4-1.1,0.6-1.5H253.7z M255.3,101.8V101h-0.9
			v0.8H255.3z M254.5,102.7v0.9h0.9v-0.9H254.5z M257.1,101h-1v0.8h1V101z M257.1,102.7h-1v0.9h1V102.7z"/>
		<path class="st9" d="M273.5,99.7V112h-1.3v-0.6H263v0.6h-1.2V99.7H273.5z M272.2,110.2v-9.3H263v9.3H272.2z M271.1,104.2
			c-0.3,1.3-0.9,2.4-1.5,3.3c0.2,0.6,0.5,1,0.9,1.1c0.2,0.1,0.3-0.5,0.4-1.4c0.2,0.2,0.6,0.5,0.8,0.6c-0.2,1.6-0.8,2.1-1.6,1.8
			c-0.5-0.1-0.9-0.5-1.3-1.2c-0.5,0.5-1.1,1-1.7,1.4c-0.1-0.2-0.5-0.6-0.7-0.8c0.4-0.2,0.7-0.5,1.1-0.8c-1.4,0.2-2.8,0.5-3.9,0.7
			l-0.1-1c1-0.1,2.6-0.4,4.1-0.6l0,0.9c0.3-0.3,0.6-0.6,0.8-0.9c-0.3-1.1-0.5-2.4-0.7-3.9h-4.1v-1h4c0-0.4-0.1-0.9-0.1-1.3h1.1
			c0,0.4,0,0.9,0.1,1.3h2c-0.3-0.3-0.9-0.7-1.4-1l0.6-0.6c0.5,0.2,1.1,0.6,1.4,0.9l-0.6,0.6h0.9v1h-2.8c0.1,1,0.2,2,0.4,2.8
			c0.4-0.7,0.7-1.4,0.9-2.2L271.1,104.2z M267.2,104.2v2.7h-3.1v-2.7H267.2z M266.3,104.9h-1.3v1.2h1.3V104.9z"/>
		<path class="st9" d="M284.4,107.1c0.7,2,1.8,3.4,2.8,3.4c0.4,0,0.5-0.6,0.6-2c0.3,0.3,0.8,0.5,1.2,0.6c-0.2,2.2-0.7,2.7-1.8,2.7
			c-1.8,0-3.4-2-4.2-4.7H279v3.1l3.6-0.9c0,0.4,0.1,0.9,0.1,1.2c-4.2,1.2-4.8,1.3-5.2,1.6c-0.1-0.4-0.4-0.9-0.6-1.2
			c0.3-0.2,0.7-0.5,0.7-1.1v-10h10v4.2h-3.9c0,0.6,0.1,1.3,0.3,1.9h4.6v1.2H284.4z M279,100.9v1.8h7.3v-1.8H279z M282.7,105.9
			c-0.1-0.6-0.2-1.3-0.3-1.9H279v1.9H282.7z"/>
		<path class="st9" d="M295,103.3c1.2,0,2.2,1,2.2,2.2s-1,2.2-2.2,2.2c-1.2,0-2.2-1-2.2-2.2S293.8,103.3,295,103.3z M295,106.8
			c0.7,0,1.3-0.6,1.3-1.3s-0.6-1.3-1.3-1.3c-0.7,0-1.3,0.6-1.3,1.3S294.3,106.8,295,106.8z"/>
	</g>
	<g>
		<path class="st9" d="M48.8,291c0,0,0,0.4-0.1,0.5c-0.2,2.9-0.5,4.1-0.9,4.5c-0.3,0.3-0.6,0.4-1,0.4c-0.4,0-1.1,0-1.8,0
			c0-0.4-0.2-0.9-0.4-1.2c0.7,0.1,1.3,0.1,1.6,0.1c0.2,0,0.4,0,0.5-0.2c0.3-0.2,0.5-1.1,0.7-3.1H39c-0.7,0.6-1.4,1.1-2.2,1.6
			c-0.2-0.3-0.5-0.8-0.7-1.1c2.3-1.2,4-3.2,5.2-5.5h-4.5V286h2.9c-0.2-0.5-0.8-1.3-1.3-1.9l1.2-0.5c0.5,0.5,1.1,1.3,1.4,1.8
			l-1.1,0.5h2c0.3-0.8,0.6-1.6,0.8-2.3L44,284c-0.2,0.7-0.5,1.3-0.7,2h3.6c-0.2,0.8-0.4,1.8-0.5,2.5h1.5c-0.2,0.8-0.4,1.8-0.5,2.5
			H48.8z M37,295.8c0.7-0.7,1.3-1.9,1.5-3l1.1,0.4c-0.3,1.2-0.7,2.5-1.6,3.3L37,295.8z M46.1,291c0.1-0.4,0.2-0.9,0.3-1.4h-5.1
			c-0.3,0.5-0.7,0.9-1.1,1.4H46.1z M41.4,293c0.3,0.9,0.4,2,0.4,2.8l-1.1,0.2c0-0.8-0.1-1.9-0.4-2.8L41.4,293z M42.7,287.2
			c-0.2,0.5-0.5,0.9-0.7,1.3h3.1c0.1-0.4,0.2-0.9,0.3-1.3H42.7z M43.4,292.8c0.3,0.8,0.7,1.8,0.8,2.4l-1.1,0.3
			c-0.1-0.7-0.4-1.7-0.7-2.5L43.4,292.8z M45.4,294.7c-0.2-0.5-0.5-1.3-1-1.9l0.9-0.3c0.4,0.6,0.8,1.3,1,1.8L45.4,294.7z"/>
		<path class="st9" d="M56.5,290.9c-0.4,0.1-0.9,0.3-1.4,0.4v3.7c0,0.7-0.1,1-0.5,1.2c-0.4,0.2-1,0.2-2,0.2c0-0.3-0.2-0.9-0.4-1.2
			c0.6,0,1.2,0,1.4,0c0.2,0,0.3-0.1,0.3-0.3v-3.3l-1.6,0.4l-0.4-1.3c0.6-0.1,1.2-0.3,2-0.5v-2.8h-1.8v-1.2h1.8v-2.7h1.3v2.7h1.6v1.2
			h-1.6v2.4l1.2-0.3L56.5,290.9z M63.9,290.1c-0.5,1.7-1.4,3-2.6,4c1,0.6,2.2,1,3.5,1.3c-0.3,0.3-0.6,0.8-0.8,1.2
			c-1.4-0.4-2.7-0.9-3.8-1.6c-1.2,0.8-2.5,1.3-4,1.6c-0.1-0.4-0.4-0.9-0.6-1.2c1.3-0.3,2.5-0.7,3.6-1.3c-0.9-0.8-1.6-1.8-2.1-3
			l0.4-0.1h-0.7v-1.2h6.2l0.2,0L63.9,290.1z M59.2,285.7c0,1.3-0.4,2.8-2.2,3.8c-0.2-0.3-0.6-0.8-0.9-1c1.6-0.8,1.8-1.9,1.8-2.9
			v-1.5h4.6v3.1c0,0.4,0,0.5,0.3,0.5h0.9c0.2,0,0.5,0,0.7-0.1c0,0.3,0.1,0.8,0.1,1.1c-0.2,0.1-0.5,0.1-0.8,0.1h-1.1
			c-1.2,0-1.4-0.5-1.4-1.7v-1.9h-2.2V285.7z M58.3,291c0.5,0.9,1.1,1.7,2,2.4c0.8-0.6,1.4-1.4,1.9-2.4H58.3z"/>
		<path class="st9" d="M76.4,285.8c0,0.1,0,0.2,0,0.3c0.8,0.8,2.3,1.2,4.1,1.4c-0.3,0.3-0.6,0.7-0.7,1.1c-1.6-0.2-2.9-0.7-3.8-1.5
			c-0.5,0.6-1.6,1.3-4,1.6c-0.1-0.3-0.4-0.7-0.7-1h-3.6v-1h4.1v0.9c3-0.4,3.4-1.2,3.4-1.8v-0.2h-1.2c-0.3,0.5-0.7,1-1,1.3
			c-0.2-0.2-0.7-0.5-1-0.7c0.7-0.6,1.3-1.6,1.6-2.6l1.2,0.3c-0.1,0.2-0.2,0.5-0.3,0.7H79l0.2-0.1l0.9,0.3c-0.4,0.7-0.8,1.6-1.2,2.1
			l-1-0.4c0.2-0.3,0.4-0.6,0.6-1h-2V285.8z M76.3,294.3c1.4,0.5,3,1.1,4,1.5l-1.2,0.7c-0.9-0.5-2.3-1.1-3.8-1.6l0.8-0.7H72l1.2,0.5
			c-1.1,0.7-2.9,1.4-4.3,1.8c-0.2-0.3-0.7-0.7-1-1c1.4-0.3,3.1-0.8,4-1.3h-2.3v-5.6h9.2v5.6H76.3z M71.5,285.4h-3.4v-1h3.4V285.4z
			 M70.9,290.3h6.6v-0.8h-6.6V290.3z M70.9,291.8h6.6V291h-6.6V291.8z M70.9,293.4h6.6v-0.8h-6.6V293.4z"/>
		<path class="st9" d="M90.5,283.7c0,0.5,0,1.3-0.1,2.1c0.2,1.8,1.1,7.4,6,9.5c-0.4,0.3-0.8,0.8-1,1.1c-3.3-1.6-4.8-4.6-5.6-7.2
			c-0.7,2.6-2.2,5.5-5.4,7.2c-0.2-0.3-0.6-0.8-1.1-1c5.7-3,5.6-9.5,5.6-11.8H90.5z"/>
		<path class="st9" d="M103.4,290.6c-0.5,0.2-1,0.4-1.4,0.6v4c0,0.6-0.1,1-0.5,1.2c-0.4,0.2-0.9,0.3-1.8,0.3c0-0.3-0.2-0.9-0.4-1.2
			c0.6,0,1.1,0,1.2,0c0.2,0,0.3,0,0.3-0.2v-3.5l-1.5,0.6l-0.3-1.2c0.5-0.2,1.1-0.4,1.8-0.6v-2.7h-1.7v-1.2h1.7v-2.7h1.2v2.7h1.3v1.2
			H102v2.3l1.2-0.4L103.4,290.6z M105.5,283.8h1.2v6.1c0,2.8-0.4,5.1-3.2,6.6c-0.2-0.3-0.6-0.7-0.9-0.9c1.9-1,2.6-2.3,2.8-3.9
			c-0.7,0.5-1.4,1.1-2,1.5l-0.7-1.1c0.7-0.4,1.7-1.1,2.8-1.8v-0.4v-1.5l-0.9,0.5c-0.2-0.8-0.8-2-1.4-2.9l1-0.5
			c0.5,0.7,1,1.7,1.3,2.4V283.8z M110.5,295.2c0.3,0,0.4-0.4,0.4-1.9c0.3,0.2,0.8,0.4,1.1,0.5c-0.1,1.9-0.4,2.6-1.4,2.6h-1.3
			c-1.1,0-1.4-0.4-1.4-1.9v-10.7h1.2v4.5c0.5-0.8,1.2-2.1,1.5-3l1.2,0.6c-0.6,1-1.2,2.2-1.8,3l-0.9-0.5v1.7l0.3-0.3
			c1,0.8,2.1,1.8,2.6,2.5l-0.9,0.9c-0.5-0.6-1.3-1.5-2.1-2.2v3.7c0,0.6,0.1,0.7,0.4,0.7H110.5z"/>
		<path class="st9" d="M118.4,290.5c-0.2,1.1-0.4,2.1-0.7,2.9c0.8,1.5,2.5,1.7,5,1.7c1.5,0,3.6-0.1,5.1-0.2
			c-0.2,0.3-0.4,0.9-0.4,1.2c-1.4,0.1-3.1,0.1-4.7,0.1c-2.7,0-4.4-0.3-5.5-1.8c-0.5,0.9-1,1.5-1.7,2c-0.2-0.3-0.6-0.7-0.9-0.9
			c1.2-0.8,2-2.3,2.5-4.4H116c-0.3,0-0.7,0.1-0.8,0.2c-0.1-0.3-0.3-0.9-0.4-1.1c0.2-0.1,0.4-0.2,0.6-0.4c0.2-0.3,0.8-1.2,1.3-2.1
			h-1.7v-1.1h2.4l0.2-0.1l0.8,0.3c-0.5,0.8-1.3,2.2-1.9,3.2h1.1l0.2,0L118.4,290.5z M116.9,286.5c-0.4-0.6-1.2-1.5-1.8-2.2l1-0.6
			c0.6,0.7,1.4,1.6,1.8,2.1L116.9,286.5z M118.4,292.6v-1h2.4v-1.1H119v-1h1.8v-0.9h1.2v0.9h1.9v-0.9h1.2v0.9h1.9v1h-1.9v1.1h2.4v1
			H118.4z M122.7,287.1c-0.1,0.3-0.1,0.7-0.1,0.9c-3,0.5-3.4,0.6-3.7,0.7c-0.1-0.3-0.3-0.8-0.4-1c0.2-0.1,0.4-0.3,0.4-0.8v-2.8h3.8
			v2.5h-2.8v0.9L122.7,287.1z M122.4,293c-0.7,0.7-1.9,1.3-2.8,1.8c-0.2-0.2-0.7-0.6-1-0.8c1-0.4,2-0.9,2.6-1.4L122.4,293z
			 M119.9,285v0.8h1.6V285H119.9z M122,291.6h1.9v-1.1H122V291.6z M124.6,288.4c-1.1,0-1.3-0.4-1.3-1.5v-2.8h3.8v2.5h-2.8v0.3
			c0,0.4,0.1,0.5,0.4,0.5h1.7c0.3,0,0.7,0,0.9-0.1c0,0.3,0.1,0.7,0.1,0.9c-0.2,0.1-0.6,0.1-1,0.1H124.6z M126.1,294.7
			c-0.6-0.5-1.5-1.1-2.5-1.6l0.9-0.6c1,0.4,2.1,1.1,2.8,1.6L126.1,294.7z M124.3,285v0.8h1.7V285H124.3z"/>
		<path class="st9" d="M142.7,291c-0.4,1.3-1.1,2.4-2,3.3c0.8,0.5,1.6,0.9,2.6,1.2c-0.3,0.2-0.6,0.7-0.8,1c-1.1-0.3-2-0.8-2.8-1.4
			c-0.8,0.6-1.7,1.1-2.6,1.4c-0.2-0.3-0.4-0.7-0.7-1v1h-1.3v-1.3c-1.7,0.2-3.3,0.4-4.6,0.5l-0.1-1.1c0.4,0,0.8-0.1,1.3-0.1V290h-1.1
			V289h12.3v1.1h-6.5v5.5c0.8-0.3,1.7-0.7,2.4-1.2c-0.6-0.7-1.1-1.4-1.5-2.3l0.8-0.2h-1.3v-1h4.8l0.2,0L142.7,291z M133.5,288.5
			h-1.2v-4.4h9.5v4.4h-1.3v-3.4h-6.9V288.5z M133.1,290v0.8h2.2V290H133.1z M133.1,292.5h2.2v-0.8h-2.2V292.5z M133.1,294.4
			c0.7-0.1,1.4-0.1,2.2-0.2v-0.8h-2.2V294.4z M139.8,286.6H134v-0.8h5.8V286.6z M134,287.3h5.8v0.8H134V287.3z M138.6,291.8
			c0.3,0.7,0.7,1.3,1.2,1.8c0.5-0.5,1-1.1,1.3-1.8H138.6z"/>
		<path class="st9" d="M150.1,290.5c-0.2,1.2-0.5,2.2-0.9,3.1c0.9,1.4,2.5,1.6,4.9,1.6c1.5,0,3.6-0.1,5.1-0.2
			c-0.2,0.3-0.4,0.9-0.4,1.2c-1.4,0.1-3.1,0.1-4.7,0.1c-2.7,0-4.3-0.3-5.4-1.7c-0.5,0.9-1.1,1.5-1.8,2c-0.2-0.3-0.6-0.7-0.9-0.9
			c1.3-0.8,2.3-2.3,2.7-4.4h-1.4c-0.4,0-0.7,0.1-0.8,0.2c-0.1-0.3-0.3-0.9-0.4-1.1c0.2-0.1,0.4-0.2,0.7-0.4c0.3-0.3,1-1.3,1.6-2.1
			h-2v-1.1h2.9l0.2-0.1l0.8,0.4c-0.5,0.8-1.5,2.2-2.3,3.1h1.3l0.2,0L150.1,290.5z M148.5,286.5c-0.4-0.6-1.2-1.5-1.8-2.2l1-0.6
			c0.6,0.7,1.4,1.5,1.8,2.1L148.5,286.5z M152.3,285.8h-2.1v-1h3.6c-0.2-0.3-0.3-0.6-0.5-0.8l1-0.4c0.3,0.4,0.6,0.8,0.8,1.2h3.8v1
			H157l0.2,0c-0.2,0.4-0.4,0.8-0.6,1.2h2v6.1c0,0.6-0.1,0.9-0.5,1.1c-0.4,0.2-1,0.2-1.8,0.2c-0.1-0.3-0.2-0.8-0.4-1.1
			c0.5,0,1.1,0,1.2,0c0.2,0,0.2-0.1,0.2-0.2v-5h-2.2v0.9h1.9v0.8h-1.9v0.9h1.4v2.5h-2.8v0.5h-0.9v-3h1.4v-0.9h-1.9v-0.8h1.9V288
			h-2.2v6.3h-1.2V287h1.6c-0.1-0.4-0.3-0.8-0.5-1.1L152.3,285.8z M155.3,287c0.2-0.4,0.4-0.8,0.5-1.2h-2.8c0.2,0.4,0.4,0.9,0.5,1.2
			l-0.2,0.1H155.3z M155.6,291.4h-1.9v0.9h1.9V291.4z"/>
		<path class="st9" d="M169.7,284.2c-0.1,0.2-0.3,0.4-0.4,0.6c1.7,1.7,3.6,2.8,5.7,3.6c-0.4,0.3-0.7,0.8-0.9,1.2
			c-0.7-0.4-1.5-0.7-2.2-1.2v0.9h-7v-0.7c-0.7,0.4-1.3,0.8-2,1.1c-0.2-0.4-0.6-0.9-1-1.2c2.6-1,5.2-2.8,6.6-5L169.7,284.2z
			 M164,290.8h8.8v5.6h-1.4v-0.6h-6.1v0.7H164V290.8z M165.4,292v2.6h6.1V292H165.4z M171.4,288.2c-1-0.7-2-1.4-3-2.4
			c-0.8,0.9-1.8,1.7-2.8,2.4H171.4z"/>
		<path class="st9" d="M190.1,285.8c0,0,0,0.4,0,0.6c-0.2,6.3-0.4,8.5-0.9,9.2c-0.4,0.5-0.7,0.6-1.2,0.7c-0.5,0.1-1.3,0-2.1,0
			c0-0.4-0.2-0.9-0.4-1.3c0.9,0.1,1.7,0.1,2.1,0.1c0.3,0,0.4,0,0.6-0.2c0.4-0.5,0.6-2.6,0.8-7.9h-3.3c-0.4,0.9-0.8,1.7-1.3,2.4
			c-0.2-0.2-0.7-0.5-1-0.7v6.4h-3.8v1.1h-1.2v-10.3h1.6c0.2-0.7,0.4-1.6,0.5-2.3l1.4,0.2c-0.2,0.7-0.5,1.4-0.7,2h2.2v2.7
			c0.9-1.2,1.7-3.1,2.1-4.9l1.3,0.3c-0.2,0.6-0.4,1.3-0.6,1.9H190.1z M179.4,287v2.7h2.6V287H179.4z M182,293.9v-3.1h-2.6v3.1H182z
			 M186.7,292.9c-0.4-0.9-1.3-2.2-2-3.2l1-0.6c0.7,1,1.7,2.3,2.1,3.1L186.7,292.9z"/>
		<path class="st12" d="M40.8,307.8c-0.4,0.1-0.9,0.3-1.4,0.4v3.7c0,0.7-0.1,1-0.5,1.2c-0.4,0.2-1,0.2-2,0.2c0-0.3-0.2-0.9-0.4-1.2
			c0.6,0,1.2,0,1.4,0c0.2,0,0.3-0.1,0.3-0.3v-3.3l-1.6,0.4l-0.4-1.2c0.6-0.1,1.2-0.3,2-0.5v-2.8h-1.8v-1.2h1.8v-2.7h1.3v2.7h1.6v1.2
			h-1.6v2.4l1.2-0.3L40.8,307.8z M48.2,306.9c-0.5,1.7-1.4,3-2.6,4c1,0.6,2.2,1,3.5,1.3c-0.3,0.3-0.6,0.8-0.8,1.2
			c-1.4-0.4-2.7-0.9-3.8-1.6c-1.2,0.8-2.5,1.3-4,1.6c-0.1-0.4-0.4-0.9-0.6-1.2c1.3-0.3,2.5-0.7,3.6-1.3c-0.9-0.8-1.6-1.8-2.1-3
			l0.4-0.1H41v-1.2h6.2l0.2,0L48.2,306.9z M43.5,302.5c0,1.3-0.4,2.8-2.2,3.8c-0.2-0.3-0.6-0.8-0.9-1c1.6-0.8,1.8-1.9,1.8-2.9V301
			h4.6v3.1c0,0.4,0,0.5,0.3,0.5h0.9c0.2,0,0.5,0,0.7-0.1c0,0.3,0.1,0.8,0.1,1.1c-0.2,0.1-0.5,0.1-0.8,0.1h-1.1
			c-1.2,0-1.4-0.5-1.4-1.7v-1.9h-2.2V302.5z M42.6,307.8c0.5,0.9,1.1,1.7,2,2.4c0.8-0.6,1.4-1.4,1.9-2.4H42.6z"/>
		<path class="st12" d="M61.5,302.6c0,0.1,0,0.2,0,0.3c0.8,0.8,2.3,1.2,4.1,1.4c-0.3,0.3-0.6,0.7-0.7,1.1c-1.6-0.2-2.9-0.7-3.8-1.5
			c-0.5,0.6-1.6,1.3-4,1.6c-0.1-0.3-0.4-0.7-0.7-1h-3.6v-1H57v0.9c3-0.4,3.4-1.2,3.4-1.8v-0.2h-1.2c-0.3,0.5-0.7,1-1,1.3
			c-0.2-0.2-0.7-0.5-1-0.7c0.7-0.6,1.3-1.6,1.6-2.6l1.2,0.3c-0.1,0.2-0.2,0.5-0.3,0.7h4.4l0.2-0.1l0.9,0.3c-0.4,0.7-0.8,1.6-1.2,2.1
			l-1-0.4c0.2-0.3,0.4-0.6,0.6-1h-2V302.6z M61.4,311.1c1.4,0.5,3,1.1,4,1.5l-1.2,0.7c-0.9-0.5-2.3-1.1-3.8-1.6l0.8-0.7H57l1.2,0.5
			c-1.1,0.7-2.9,1.4-4.3,1.8c-0.2-0.3-0.7-0.7-1-1c1.4-0.3,3.1-0.8,4-1.3h-2.3v-5.6h9.2v5.6H61.4z M56.6,302.3h-3.4v-1h3.4V302.3z
			 M56,307.1h6.6v-0.8H56V307.1z M56,308.7h6.6v-0.8H56V308.7z M56,310.3h6.6v-0.8H56V310.3z"/>
		<path class="st12" d="M73.8,309c0-0.2-0.1-0.5-0.2-0.8c-3.1,0.5-3.6,0.6-3.9,0.7c-0.1-0.3-0.3-0.9-0.4-1.2
			c0.3-0.1,0.6-0.4,1.1-0.9c0.2-0.2,0.6-0.7,1.1-1.4c-1.4,0.2-1.7,0.2-1.9,0.3c-0.1-0.2-0.3-0.8-0.4-1.1c0.3-0.1,0.5-0.3,0.8-0.8
			c0.3-0.4,1.3-2,1.9-3.5l1.2,0.5c-0.6,1.2-1.4,2.5-2.1,3.6l1.4-0.1c0.4-0.6,0.7-1.2,1.1-1.8l1.1,0.7c-0.9,1.5-2,3.1-3.2,4.3
			l2.1-0.3c-0.1-0.4-0.3-0.8-0.4-1.2l1-0.3c0.4,0.9,0.8,2.2,0.9,2.9L73.8,309z M70.9,309.7c-0.1,1.2-0.4,2.5-0.7,3.4
			c-0.2-0.1-0.8-0.3-1-0.4c0.3-0.8,0.5-2.1,0.6-3.2L70.9,309.7z M72.6,309.5c0.2,1,0.3,2.2,0.4,3l-1.1,0.2c0-0.8-0.2-2.1-0.4-3
			L72.6,309.5z M74.1,309.1c0.3,0.7,0.6,1.7,0.7,2.3l-1,0.4c-0.1-0.6-0.4-1.6-0.6-2.4L74.1,309.1z M82.1,311.9v1.2h-7.8v-1.2h1.2
			v-10.7h5.8v10.7H82.1z M76.6,302.4v2.3h3.3v-2.3H76.6z M79.9,305.9h-3.3v2.4h3.3V305.9z M76.6,311.9h3.3v-2.5h-3.3V311.9z"/>
		<path class="st12" d="M93.5,301c-0.1,0.2-0.3,0.4-0.4,0.6c1.7,1.7,3.6,2.8,5.7,3.6c-0.4,0.3-0.7,0.8-0.9,1.2
			c-0.7-0.4-1.5-0.7-2.2-1.2v0.9h-7v-0.7c-0.7,0.4-1.3,0.8-2,1.1c-0.2-0.4-0.6-0.9-1-1.2c2.6-1,5.2-2.8,6.6-5L93.5,301z M87.9,307.7
			h8.8v5.6h-1.4v-0.6h-6.1v0.7h-1.3V307.7z M89.2,308.9v2.6h6.1v-2.6H89.2z M95.2,305c-1-0.7-2-1.4-3-2.4c-0.8,0.9-1.8,1.7-2.8,2.4
			H95.2z"/>
		<path class="st9" d="M103.6,308.9c1.1-0.4,1.7-1.1,1.8-1.9c-0.1,0-0.1,0-0.2,0c-0.6,0-1.2-0.4-1.2-1.1c0-0.7,0.5-1.1,1.2-1.1
			c0.9,0,1.3,0.7,1.3,1.8c0,1.6-1,2.8-2.6,3.3L103.6,308.9z"/>
		<path class="st9" d="M124.4,311.5v1.3h-12.5v-1.3h4.1v-7h-3.7v-1.3h3c-0.2-0.6-0.7-1.5-1.2-2.2l1.2-0.4c0.5,0.7,1.1,1.7,1.3,2.3
			l-0.7,0.3h4.1l-0.3-0.1c0.5-0.7,1.1-1.8,1.4-2.6l1.4,0.4c-0.4,0.8-1,1.6-1.4,2.2h3v1.3h-3.8v7H124.4z M114,305.6
			c0.7,1.4,1.2,3.2,1.3,4.3l-1.3,0.3c-0.1-1.2-0.6-3-1.2-4.4L114,305.6z M117.2,311.5h1.7v-7h-1.7V311.5z M120.7,310
			c0.5-1.2,1.1-3.1,1.4-4.5l1.4,0.3c-0.5,1.5-1.1,3.3-1.7,4.5L120.7,310z"/>
		<path class="st9" d="M140.9,306.4c-0.8,0.7-1.9,1.5-2.8,2.1c0.8,1.5,1.8,2.7,3,3.4c-0.3,0.2-0.7,0.7-1,1.1
			c-2.2-1.5-3.6-4.3-4.6-7.5c-0.3,0.5-0.7,0.9-1.1,1.3v4.7l2.4-0.8c0,0.3,0.1,0.8,0.2,1.1c-3.1,1.1-3.6,1.3-3.9,1.6
			c-0.1-0.3-0.5-0.8-0.7-1c0.3-0.2,0.7-0.6,0.7-1.3V308c-0.5,0.4-1,0.8-1.5,1.2c-0.2-0.3-0.5-0.7-0.8-1v5.2h-1.2V306
			c-0.3,0.5-0.7,0.9-1,1.3c-0.1-0.3-0.5-1-0.7-1.3c1.3-1.3,2.5-3.4,3.2-5.4l1.2,0.4c-0.4,1.1-0.9,2.1-1.4,3.1v4c1.5-0.9,3-2.3,4-3.8
			h-3.2V303h4.3c-0.2-0.6-0.5-1.5-0.9-2.1l1.2-0.4c0.4,0.7,0.8,1.5,1,2.1l-1.1,0.4h4.5v1.2h-4.3c0.3,1.2,0.6,2.3,1.1,3.3
			c0.8-0.6,1.7-1.4,2.3-2.1L140.9,306.4z"/>
		<path class="st9" d="M144.7,312.9c0.6-0.7,1.3-1.9,1.8-2.9l1.2,0.3c-0.5,1.1-1.2,2.3-1.8,3.1L144.7,312.9z M146.5,309.8h-1.2v-8.7
			h4.2v8.1h-3V309.8z M146.5,302.2v2.2h1.8v-2.2H146.5z M148.3,308v-2.4h-1.8v2.4H148.3z M150,310.4c0.2,0.9,0.3,2.1,0.3,2.8
			l-1.3,0.2c0-0.7-0.1-1.9-0.3-2.9L150,310.4z M153.5,302.2c-0.3,1.6-1.1,2.7-3.2,3.4c-0.1-0.3-0.4-0.7-0.7-1
			c1.7-0.5,2.4-1.3,2.6-2.4h-2.2V301h7c0,0,0,0.3,0,0.5c-0.1,2-0.3,2.8-0.6,3.1c-0.2,0.3-0.5,0.4-0.9,0.4c-0.3,0-0.9,0-1.6,0
			c0-0.3-0.2-0.8-0.3-1.1c0.6,0.1,1.1,0.1,1.3,0.1c0.2,0,0.3,0,0.4-0.1c0.2-0.2,0.3-0.6,0.3-1.7H153.5z M156.7,309.6h-6.2v-4h6.2
			V309.6z M155.4,306.7h-3.7v1.9h3.7V306.7z M152.9,310.2c0.4,0.9,0.7,2,0.9,2.8l-1.3,0.3c-0.1-0.7-0.4-1.9-0.8-2.8L152.9,310.2z
			 M155.7,309.9c0.6,0.9,1.4,2.1,1.7,2.9l-1.2,0.6c-0.3-0.8-1-2.1-1.7-3L155.7,309.9z"/>
		<path class="st9" d="M168.2,303.8v1.7h4.5v4.8c0,0.7-0.1,1.1-0.7,1.3c-0.5,0.2-1.3,0.2-2.4,0.2c-0.1-0.4-0.3-0.9-0.5-1.3
			c0.8,0,1.7,0,1.9,0c0.2,0,0.3-0.1,0.3-0.3v-3.5h-3.2v6.6h-1.4v-6.6h-3v5.1h-1.3v-6.3h4.3v-1.7h-5.6v-1.3h5.8
			c-0.2-0.5-0.5-1.2-0.8-1.7l1.3-0.4c0.4,0.6,0.9,1.5,1.1,2.1h5.3v1.3H168.2z"/>
		<path class="st9" d="M182.1,308.9c-1.4,0.7-2.9,1.5-4.1,2l-0.5-1.3c0.5-0.2,1.1-0.5,1.8-0.8v-4.2h-1.5v-1.2h1.5v-2.8h1.2v2.8h1.4
			v1.2h-1.4v3.6c0.4-0.2,0.9-0.4,1.3-0.6L182.1,308.9z M184.8,307.3c-0.2,0.3-0.3,0.6-0.5,0.8h5.9c0,0,0,0.3,0,0.5
			c-0.2,2.8-0.4,3.9-0.8,4.3c-0.2,0.3-0.5,0.4-0.8,0.4c-0.3,0-0.8,0-1.4,0c0-0.3-0.1-0.8-0.3-1.1c0.5,0.1,0.9,0.1,1.1,0.1
			c0.2,0,0.3,0,0.4-0.2c0.2-0.2,0.4-1,0.6-3H188c-0.6,1.6-1.7,3.4-2.8,4.3c-0.2-0.2-0.6-0.5-0.9-0.7c1.1-0.7,2.1-2.1,2.7-3.5h-1.1
			c-0.8,1.4-2.1,2.9-3.3,3.7c-0.2-0.3-0.6-0.6-0.9-0.8c1.1-0.6,2.3-1.7,3-2.9h-1.2c-0.5,0.6-1.1,1.1-1.7,1.5
			c-0.2-0.2-0.6-0.6-0.9-0.8c1.1-0.6,2-1.5,2.7-2.6h-1.8v-1.1h8.8v1.1H184.8z M189.5,305.5H183v-4.6h6.5V305.5z M188.3,301.8h-4.1
			v0.9h4.1V301.8z M188.3,303.6h-4.1v0.9h4.1V303.6z"/>
		<path class="st9" d="M45.9,322.7c0.2,2,0.9,4.9,3.5,6.4c-0.4,0.2-0.7,0.7-1,1c-1.8-1.1-2.7-3-3.2-4.8c-0.5,1.8-1.4,3.5-3.4,4.9
			c-0.2-0.3-0.5-0.7-0.8-0.9v0.9h-1.2v-4.8h-1.2v0.4c0,1.1-0.2,3-1.3,4.2c-0.2-0.2-0.7-0.5-1-0.6c1-1.1,1.1-2.6,1.1-3.6v-0.3h-1
			v-1.2h3.4v-1.8h-2.3v0h-0.5V318h1.2v3.3h1.7v-3.9H41v11.8c2.5-1.8,3.2-4.2,3.3-6.5h-2.8v-1.3h2.9v-0.1v-3.9h1.2v3.9v0.1h3.6v1.3
			H45.9z M47.8,320.8c-0.3-0.7-1-1.8-1.7-2.5l1-0.5c0.7,0.7,1.4,1.8,1.7,2.5L47.8,320.8z"/>
		<path class="st9" d="M54.4,323.6c-0.6-0.5-1.8-1.1-2.8-1.4l0.7-1c0.9,0.3,2.2,0.8,2.8,1.3L54.4,323.6z M56,325.4
			c-0.8,1.5-1.8,3.3-2.7,4.6l-1.1-0.8c0.8-1.1,2-3,2.8-4.6L56,325.4z M55.1,319.8c-0.5-0.5-1.6-1.1-2.5-1.4l0.7-1
			c0.9,0.3,2,0.9,2.6,1.3L55.1,319.8z M63.1,328.9c0.3,0,0.4-0.3,0.4-2c0.3,0.2,0.8,0.4,1.2,0.5c-0.1,2.1-0.4,2.7-1.4,2.7H62
			c-1.2,0-1.4-0.4-1.4-1.7v-4.7h-1.4c-0.2,3.2-0.6,5.3-3.4,6.5c-0.1-0.3-0.5-0.8-0.8-1.1c2.5-1,2.8-2.7,2.9-5.4h-1.3V318h7.3v5.8h-2
			v4.7c0,0.4,0.1,0.5,0.4,0.5H63.1z M57.8,322.5h4.7v-3.4h-4.7V322.5z"/>
		<path class="st9" d="M70,325v3.6c0,0.6-0.1,1-0.5,1.2c-0.4,0.2-0.9,0.3-1.8,0.3c0-0.3-0.2-0.9-0.4-1.2c0.6,0,1.1,0,1.2,0
			c0.2,0,0.2-0.1,0.2-0.3v-3.3l-1.5,0.4l-0.3-1.3c0.5-0.1,1.1-0.3,1.8-0.5v-2.8h-1.6v-1.2h1.6v-2.7H70v2.7h1.5v1.2H70v2.5l1.3-0.4
			l0.2,1.2L70,325z M76.3,328.8c0.4,0.1,0.8,0.1,1.2,0.1c0.4,0,2.2,0,2.7,0c-0.2,0.3-0.3,0.8-0.4,1.2h-2.4c-2,0-3.4-0.4-4.3-2.2
			c-0.4,1-0.9,1.8-1.6,2.4c-0.2-0.2-0.7-0.6-1-0.8c1.2-1,1.8-2.5,2-4.5l1.2,0.1c-0.1,0.5-0.2,1-0.3,1.5c0.4,1,0.9,1.6,1.6,1.9v-4.1
			h-3.4v-1.1h8.1v1.1h-3.5v1.5h2.8v1h-2.8V328.8z M79,322.5h-6.7v-4.7H79V322.5z M77.8,318.8h-4.3v0.9h4.3V318.8z M77.8,320.6h-4.3
			v0.9h4.3V320.6z"/>
		<path class="st9" d="M86.9,317.8c-0.4,1-0.9,2-1.4,2.9v9.5h-1.3v-7.5c-0.4,0.5-0.8,1-1.2,1.4c-0.1-0.3-0.5-1-0.7-1.3
			c1.3-1.3,2.6-3.3,3.3-5.4L86.9,317.8z M90,327c-0.7,1.2-1.8,2.4-2.7,3.2c-0.2-0.2-0.7-0.6-1-0.8c1-0.7,1.9-1.8,2.5-2.8L90,327z
			 M95.5,324.6v1.3h-9v-1.3h2v-3.2h-1.7v-1.2h1.7v-2.7h1.3v2.7h2.4v-2.8h1.3v2.8h1.9v1.2h-1.9v3.2H95.5z M89.7,324.6h2.4v-3.2h-2.4
			V324.6z M92.9,326.6c0.9,0.9,1.9,2.1,2.4,2.9l-1.1,0.7c-0.5-0.9-1.5-2.1-2.4-3.1L92.9,326.6z"/>
		<path class="st13" d="M110.9,326.9h-1.7v1.8c0,0.7-0.2,1.1-0.7,1.3c-0.5,0.2-1.3,0.2-2.5,0.2c-0.1-0.4-0.3-0.9-0.5-1.2
			c0.9,0,1.8,0,2,0c0.3,0,0.4-0.1,0.4-0.3v-1.8h-7.1v3.3h-1.3v-3.3H98v-1.2h1.6v-5.2h4.1v-1.2h-5.2v-1.2h11.8v1.2h-5.3v1.2h4.2v5.2
			h1.7V326.9z M100.9,321.7v1.4h2.8v-1.4H100.9z M100.9,325.7h2.8v-1.5h-2.8V325.7z M105.1,321.7v1.4h2.9v-1.4H105.1z M108,325.7
			v-1.5h-2.9v1.5H108z"/>
		<path class="st13" d="M126.2,325.5h-5.6v4.8h-1.3v-4.8h-5.6v-1.3h5.6v-4.6h-4.8v-1.3h11v1.3h-4.8v4.6h5.6V325.5z M116.5,320.1
			c0.5,1,1.1,2.2,1.2,3l-1.2,0.4c-0.2-0.8-0.7-2.1-1.2-3.1L116.5,320.1z M121.9,323.2c0.5-0.8,1.1-2.2,1.4-3.2l1.4,0.4
			c-0.5,1.1-1.1,2.4-1.6,3.1L121.9,323.2z"/>
		<path class="st13" d="M132.7,321.9c-0.2-0.2-0.4-0.4-0.7-0.6c-0.2,0.3-0.4,0.7-0.5,1v7.9h-1.2v-6.1c-0.3,0.4-0.6,0.7-0.9,1
			c-0.1-0.3-0.5-0.9-0.7-1.2c1-1,2-2.4,2.6-3.9l1.1,0.4c0.7-1,1.2-2.2,1.5-3.1l1.2,0.2c-0.1,0.3-0.2,0.6-0.3,0.9h1.6l0.2-0.1
			l0.8,0.5c-0.2,0.5-0.5,1.2-0.8,1.7h1.4v4.7h-5.1L132.7,321.9L132.7,321.9z M132.3,317.8c-0.7,1.2-1.7,2.5-2.7,3.3
			c-0.2-0.3-0.5-0.8-0.7-1c0.8-0.7,1.7-1.9,2.2-2.8L132.3,317.8z M136.1,327.2c0.7,0.5,1.5,1.2,1.9,1.7l-0.8,0.8
			c-0.4-0.5-1.1-1.2-1.8-1.8c-0.4,1-1.2,1.7-2.5,2.1c-0.1-0.3-0.4-0.7-0.6-0.9c1.3-0.4,2-1.1,2.3-2h-2.1v-1.1h2.3
			c0-0.2,0.1-0.4,0.1-0.6h1.1c0,0.2,0,0.4-0.1,0.6h2.4v1.1H136.1z M134.3,319.5c-0.2,0.4-0.4,0.8-0.6,1.1h1.6
			c0.2-0.3,0.3-0.7,0.5-1.1H134.3z M134.9,322.5v-1h-1.1v1H134.9z M133.8,323.4v1h1.1v-1H133.8z M136.9,321.5h-1.1v1h1.1V321.5z
			 M136.9,323.4h-1.1v1h1.1V323.4z M141.7,322.9h-1v5.9c0,0.6-0.1,1-0.5,1.1c-0.4,0.2-0.9,0.2-1.7,0.2c0-0.3-0.2-0.8-0.3-1.2
			c0.5,0,1,0,1.1,0c0.2,0,0.2-0.1,0.2-0.2v-5.9h-1.3v-1.2h3.5V322.9z M141.5,319.4h-2.9v-1.2h2.9V319.4z"/>
		<path class="st9" d="M148.6,322.3c-0.2,2-0.6,3.6-1.2,4.9c1.3,1.2,3.2,1.5,5.4,1.5c0.7,0,3.6,0,4.4,0c-0.2,0.3-0.4,0.8-0.5,1.2h-4
			c-2.5,0-4.4-0.3-5.9-1.6c-0.5,0.8-1,1.4-1.7,1.9c-0.2-0.3-0.7-0.7-0.9-0.9c0.7-0.5,1.3-1.2,1.8-2c-0.5-0.7-0.9-1.6-1.2-2.7l1-0.4
			c0.2,0.8,0.5,1.4,0.8,1.9c0.3-0.8,0.5-1.8,0.7-2.9h-1.5c-0.3,0.1-0.6,0.4-0.6,0.5c-0.1-0.3-0.4-0.8-0.5-1c0.3-0.1,0.6-0.4,0.9-0.9
			c0.2-0.3,0.8-1.4,1.4-2.6h-2.2v-1.1h2.7l0.4-0.2l0.8,0.5c-0.6,1.3-1.3,2.6-1.9,3.6h0.9l0.2,0L148.6,322.3z M151.8,319.5h-2.5v-1
			h2.5v-1.1h1.2v1.1h3.1v1.9h0.9v1h-0.9v1.9H153v0.9h3.3v1H153v0.9h3.8v1H153v1.2h-1.2v-1.2h-3.2v-1h3.2v-0.9h-2.7v-1h2.7v-0.9h-2.6
			v-1h2.6v-0.9h-3.3v-1h3.3V319.5z M153,319.5v0.9h1.9v-0.9H153z M154.9,321.4H153v0.9h1.9V321.4z"/>
		<path class="st9" d="M164.2,320.7h-4.4v-1.1h4.4V320.7z M163.9,329.4h-2.7v0.6h-1v-4.7h3.6V329.4z M160.3,321.6h3.6v1h-3.6V321.6z
			 M160.3,323.4h3.6v1h-3.6V323.4z M161.8,319.7c-0.1-0.5-0.4-1.3-0.7-1.9l1-0.4c0.3,0.6,0.6,1.3,0.7,1.9L161.8,319.7z M161.2,326.4
			v2h1.7v-2H161.2z M172,326.9c-0.4,0.6-0.8,1.1-1.4,1.6c0.3,0.5,0.6,0.8,0.9,0.8c0.2,0,0.4-0.3,0.4-1.2c0.2,0.2,0.5,0.4,0.8,0.5
			c-0.2,1.3-0.5,1.7-1.3,1.7c-0.7,0-1.3-0.4-1.7-1.2c-0.5,0.4-1.1,0.7-1.6,0.9c-0.1-0.2-0.4-0.5-0.6-0.7c0.6-0.3,1.3-0.6,1.9-1.1
			c-0.2-0.6-0.3-1.3-0.4-2.1h-1.7v0.8c0.4-0.1,0.9-0.1,1.3-0.2l0,0.9l-1.4,0.2v1.2c0,0.6-0.1,0.8-0.5,1c-0.4,0.2-1,0.2-1.8,0.2
			c-0.1-0.3-0.2-0.7-0.4-1c0.5,0,1.1,0,1.2,0c0.2,0,0.2-0.1,0.2-0.2v-1c-0.6,0.1-1.2,0.2-1.8,0.2l-0.1-1c0.5-0.1,1.2-0.1,1.9-0.2
			v-0.9h-1.9v-1h1.9v-0.8c-0.5,0.1-1,0.1-1.4,0.2c0-0.2-0.2-0.6-0.3-0.8c1.2-0.1,2.6-0.3,3.4-0.6l0.7,0.8c-0.4,0.1-0.8,0.2-1.3,0.3
			v1h1.6c-0.1-0.6-0.1-1.2-0.1-1.9h1.1c0,0.7,0,1.3,0.1,1.9h2.6v1H170c0.1,0.5,0.2,0.9,0.3,1.3c0.3-0.3,0.6-0.7,0.8-1.1L172,326.9z
			 M172.5,322.9h-8.3v-1h3.5v-0.8h-2.6v-0.9h2.6v-0.7h-3v-0.9h1.6c-0.2-0.3-0.4-0.7-0.6-1l0.9-0.3c0.3,0.4,0.7,1,0.8,1.3h1.9
			c0.3-0.4,0.6-1,0.7-1.3l1.2,0.3c-0.3,0.4-0.5,0.7-0.7,1h1.6v0.9H169v0.7h2.8v0.9H169v0.8h3.5V322.9z M171,323.2
			c0.5,0.4,1.2,0.9,1.5,1.3l-0.8,0.6c-0.3-0.4-0.9-1-1.4-1.4L171,323.2z"/>
		<path class="st9" d="M178.2,321.6c1.2,0,2.2,1,2.2,2.2s-1,2.2-2.2,2.2c-1.2,0-2.2-1-2.2-2.2S177,321.6,178.2,321.6z M178.2,325.1
			c0.7,0,1.3-0.6,1.3-1.3s-0.6-1.3-1.3-1.3c-0.7,0-1.3,0.6-1.3,1.3S177.5,325.1,178.2,325.1z"/>
	</g>
	<g>
		<path class="st9" d="M282,258.3c-0.4,3.1-1,5.6-2,7.8c0.9,1.7,2.1,3,3.6,3.8c-0.5,0.4-1.2,1.3-1.6,1.9c-1.4-0.9-2.5-2.1-3.3-3.6
			c-1.1,1.6-2.6,2.8-4.5,3.7c-0.1-0.3-0.4-0.8-0.7-1.2l-0.6,0.6c-0.7-0.4-1.5-0.8-2.5-1.2c-1.3,0.7-3.2,1.4-5.8,1.8
			c-0.2-0.5-0.6-1.2-1-1.6c1.9-0.3,3.3-0.7,4.4-1.1c-1-0.3-2-0.6-2.9-0.9c0.4-0.5,0.8-1,1.2-1.6H264V265h3.3
			c0.2-0.3,0.4-0.6,0.5-0.9h-2.9v-3.7h3.7v-0.6h-3.4v-2.3h-1.5v-1.8h1.5v-2.2h3.4v-1.3h1.9v1.3h3.6v2.2h1.1v1.8h-1.1v2.3h-3.6v0.6
			h3.9v0.8c1.2-2.3,2-5.7,2.5-9l2.1,0.4c-0.2,1.2-0.4,2.4-0.7,3.5h5.1v2.2H282z M266.9,262.7h1.7v-0.9h-1.7V262.7z M267.1,255v0.7
			h1.5V255H267.1z M268.6,258.1v-0.9h-1.5v0.9H268.6z M268.5,266.7c-0.1,0.3-0.3,0.5-0.5,0.7c0.7,0.2,1.3,0.4,2,0.6
			c0.5-0.4,0.9-0.9,1.1-1.3H268.5z M273.2,266.7c-0.2,0.7-0.5,1.4-1.1,2.1c0.7,0.3,1.3,0.6,1.9,0.8c1.6-0.9,2.8-2.1,3.7-3.6
			c-0.5-1.3-0.9-2.8-1.2-4.3c-0.3,0.7-0.6,1.3-0.9,1.8c-0.2-0.3-0.8-0.8-1.2-1.2v1.9H270c-0.1,0.3-0.3,0.6-0.5,0.9h1.9v-0.6h2v0.6
			h1.7v1.7H273.2z M270.5,255v0.7h1.6V255H270.5z M272.1,258.1v-0.9h-1.6v0.9H272.1z M270.5,261.7v0.9h1.7v-0.9H270.5z M277.7,258.3
			c0.3,1.8,0.7,3.5,1.2,5.1c0.5-1.5,0.8-3.2,0.9-5.1H277.7z"/>
		<path class="st9" d="M291.9,253c-0.5,1.4-1.2,2.9-2,4.3v14.6h-2.5v-10.6c-0.4,0.5-0.9,1.1-1.3,1.6c-0.2-0.6-0.9-2-1.3-2.6
			c1.9-1.9,3.7-4.9,4.8-7.9L291.9,253z M304.2,268.6v2.4H291v-2.4h7.3c0.7-2.7,1.4-6.8,1.7-9.9l2.6,0.4c-0.5,3.2-1.3,6.8-2,9.5
			H304.2z M296.7,255.7c-0.1-0.9-0.6-2.3-0.9-3.2l2.4-0.6c0.4,1,0.8,2.3,1.1,3.2l-2.2,0.6h6.5v2.4h-11.7v-2.4H296.7z M294.2,268
			c-0.2-2.2-0.7-5.9-1.2-8.7l2.3-0.5c0.6,2.8,1.2,6.4,1.4,8.5L294.2,268z"/>
		<path class="st9" d="M313.1,267.6c-2.3,0.8-4.8,1.6-6.9,2.3l-0.6-2.5c0.7-0.2,1.6-0.4,2.6-0.7v-4.9h-2.1v-2.3h2.1v-3.7h-2.3v-2.3
			h6.9v2.3h-2.3v3.7h1.9v2.3h-1.9v4.2c0.7-0.2,1.4-0.4,2.1-0.7L313.1,267.6z M325.6,268.9v2.3h-13.5v-2.3h5.8v-2h-4.4v-2.3h4.4v-1.8
			h-4.2v-9.8h11v9.8h-4.2v1.8h4.5v2.3h-4.5v2H325.6z M315.9,257h2.2v-1.8h-2.2V257z M315.9,260.7h2.2v-1.8h-2.2V260.7z M322.3,255.2
			h-2.1v1.8h2.1V255.2z M322.3,258.9h-2.1v1.8h2.1V258.9z"/>
		<path class="st9" d="M331.7,267.3c-0.7,1.7-1.9,3.5-3,4.6c-0.4-0.4-1.4-1.1-2-1.4c1.1-0.9,2.1-2.4,2.6-3.8L331.7,267.3z
			 M335.8,266.5H328V253h7.8V266.5z M333.4,255h-3v1.9h3V255z M333.4,258.8h-3v2h3V258.8z M333.4,262.6h-3v2h3V262.6z M334.2,266.7
			c0.9,1,1.9,2.4,2.3,3.4l-2.1,1.1c-0.4-1-1.3-2.5-2.2-3.6L334.2,266.7z M346.6,259.5h-2.3v9.6c0,1.3-0.3,1.9-1,2.3
			c-0.7,0.4-1.8,0.5-3.3,0.5c-0.1-0.7-0.5-1.8-0.8-2.5c1,0,1.9,0,2.2,0c0.3,0,0.4-0.1,0.4-0.4v-6.4c-1.2,2.4-2.8,4.5-4.4,6
			c-0.4-0.6-1.2-1.4-1.7-1.8c2.1-1.6,4.1-4.4,5.3-7.3h-4.6v-2.3h5.5v-4.9h2.5v4.9h2.3V259.5z"/>
		<path class="st9" d="M358.4,270c0.9-0.6,1.9-1.5,2.4-2.2l2,1.2c-0.9,1.1-2.3,2.3-3.5,2.9c-0.3-0.3-0.8-0.8-1.2-1.2h-4.7v1h-1.8
			v-5.5c-0.1,0.1-0.3,0.3-0.4,0.4c-0.1-0.1-0.2-0.4-0.4-0.6c-0.2,2.1-0.5,4.1-1.2,5.7c-0.4-0.3-1.3-0.8-1.9-1
			c1.2-3.1,1.3-7.5,1.3-10.5v-6.4c2.7-0.2,5.6-0.7,7.4-1.2l1.8,1.7c-2,0.6-4.7,1-7.2,1.2v0.6h7.1v4.9h-5.5l1.4,0.4
			c-0.1,0.4-0.3,0.8-0.4,1.2h1.1c-0.1-0.4-0.3-0.8-0.5-1.2l1.6-0.4c0.3,0.5,0.5,1.1,0.7,1.6h1.7v1.6h-2v0.7h1.7v1.4h-1.7v0.8h1.8
			v1.4h-1.8v0.8h2.1V270z M351,260.9c0,0.9,0,1.9-0.1,2.9c0.6-0.9,1-1.9,1.3-2.9H351z M351,257.9v1.2h4.8v-1.2H351z M354.7,264h-1.4
			v0.7h1.4V264z M354.7,266.1h-1.4v0.8h1.4V266.1z M353.3,269.1h1.4v-0.8h-1.4V269.1z M361.6,256.5c0.1-0.4,0.1-0.9,0.1-1.3h-3.1
			V253h8.7v2.1h-3.1c-0.1,0.5-0.3,0.9-0.4,1.3h3v11h-7.8v-11H361.6z M364.7,258.4h-3.6v1.3h3.6V258.4z M364.7,261.3h-3.6v1.3h3.6
			V261.3z M364.7,264.4h-3.6v1.2h3.6V264.4z M365.1,267.8c0.9,0.8,2,1.9,2.5,2.6l-1.9,1.3c-0.5-0.8-1.6-2-2.4-2.8L365.1,267.8z"/>
		<path class="st9" d="M372.5,260.8v11H370V253h8v7.8H372.5z M372.5,254.9v1.1h3.2v-1.1H372.5z M375.7,258.9v-1.2h-3.2v1.2H375.7z
			 M377,268.9v1.2h-2.3v-7.8h8.1v6.6H377z M377,264.3v2.5h3.5v-2.5H377z M387.8,268.9c0,1.4-0.3,2.1-1.2,2.5
			c-0.9,0.4-2.2,0.5-4.1,0.5c-0.1-0.7-0.5-1.9-0.8-2.6c1.2,0.1,2.7,0.1,3.1,0c0.4,0,0.5-0.1,0.5-0.5v-8h-5.7V253h8.2V268.9z
			 M381.9,254.9v1.2h3.3v-1.2H381.9z M385.2,258.9v-1.2h-3.3v1.2H385.2z"/>
	</g>
	<g>
		<path class="st9" d="M239.5,285.8c-0.2,0.5-0.3,1.1-0.5,1.5h5.5v9.3h-1.3v-0.7h-8.5v0.7h-1.3v-9.3h4.3c0.1-0.5,0.2-1,0.3-1.5h-5.2
			v-1.2h12.4v1.2H239.5z M234.6,294.6h1.8v-6.1h-1.8V294.6z M240.2,288.5h-2.6v1.3h2.6V288.5z M240.2,290.9h-2.6v1.3h2.6V290.9z
			 M237.5,294.6h2.6v-1.4h-2.6V294.6z M243.2,288.5h-1.8v6.1h1.8V288.5z"/>
		<path class="st9" d="M260.7,288.5h-1.2v6.5c0,0.7-0.2,1.1-0.6,1.3c-0.4,0.2-1.1,0.3-2.3,0.3c-0.1-0.3-0.3-0.9-0.4-1.2
			c0.8,0,1.5,0,1.7,0c0.2,0,0.3-0.1,0.3-0.3v-6.5H255v-0.8H253l1.1,0.4c-0.3,0.5-0.6,1.1-0.8,1.6h1.4v1.1h-2.5v1.2h2.2v1.1h-2.2v1.2
			c0.9-0.1,1.9-0.2,2.8-0.3l0,1.2c-2.4,0.3-5,0.6-6.8,0.9l-0.2-1.2c0.8-0.1,1.8-0.2,2.9-0.3V293h-2.2V292h2.2v-1.2h-2.5v-1.1h1.7
			c-0.2-0.4-0.6-1.1-1-1.5l0.8-0.4h-1.9v-1.1h2V286l-0.7,0.5c-0.2-0.5-0.7-1.2-1.2-1.8l0.8-0.5c0.4,0.4,0.8,1,1.1,1.4v-1.9h1v3h0.9
			v-3h1.1v2c0.4-0.5,0.8-1.1,1.1-1.5l1,0.6c-0.5,0.6-1.1,1.3-1.6,1.7l-0.5-0.3v0.5h2v0.7h3.2v-3.6h1.3v3.6h1.2V288.5z M252,289.7
			c0.3-0.6,0.7-1.4,0.9-2h-2.8c0.4,0.5,0.8,1.1,1,1.5l-0.8,0.5H252z M256.4,293c-0.1-0.8-0.6-2.1-1.1-3.2l1.1-0.4
			c0.6,1,1.1,2.3,1.2,3.1L256.4,293z"/>
		<path class="st9" d="M270.4,286.9v1.7h4.5v4.8c0,0.7-0.1,1.1-0.7,1.3c-0.5,0.2-1.3,0.2-2.4,0.2c-0.1-0.4-0.3-0.9-0.5-1.3
			c0.8,0,1.7,0,1.9,0c0.2,0,0.3-0.1,0.3-0.3v-3.5h-3.2v6.6h-1.4v-6.6h-3v5.1h-1.3v-6.3h4.3v-1.7h-5.6v-1.3h5.8
			c-0.2-0.5-0.5-1.2-0.8-1.7l1.3-0.4c0.4,0.6,0.9,1.5,1.1,2.1h5.3v1.3H270.4z"/>
		<path class="st9" d="M283.3,292.1c-1.4,0.7-2.9,1.5-4.1,2l-0.5-1.3c0.5-0.2,1.1-0.5,1.8-0.8v-4.2H279v-1.2h1.5v-2.8h1.2v2.8h1.4
			v1.2h-1.4v3.6c0.4-0.2,0.9-0.4,1.3-0.6L283.3,292.1z M286,290.4c-0.2,0.3-0.3,0.6-0.5,0.8h5.9c0,0,0,0.3,0,0.5
			c-0.2,2.8-0.4,3.9-0.8,4.3c-0.2,0.3-0.5,0.4-0.8,0.4c-0.3,0-0.8,0-1.4,0c0-0.3-0.1-0.8-0.3-1.1c0.5,0.1,0.9,0.1,1.1,0.1
			c0.2,0,0.3,0,0.4-0.2c0.2-0.2,0.4-1,0.6-3h-0.8c-0.6,1.6-1.7,3.4-2.8,4.3c-0.2-0.2-0.6-0.5-0.9-0.7c1.1-0.7,2.1-2.1,2.7-3.5H287
			c-0.8,1.4-2.1,2.9-3.3,3.7c-0.2-0.3-0.6-0.6-0.9-0.8c1.1-0.6,2.3-1.7,3-2.9h-1.2c-0.5,0.6-1.1,1.1-1.7,1.5
			c-0.2-0.2-0.6-0.6-0.9-0.8c1.1-0.6,2-1.5,2.7-2.6h-1.8v-1.1h8.8v1.1H286z M290.7,288.6h-6.5V284h6.5V288.6z M289.5,285h-4.1v0.9
			h4.1V285z M289.5,286.8h-4.1v0.9h4.1V286.8z"/>
		<path class="st9" d="M304.7,293.1c-0.6,0.7-1.4,1.3-2.3,1.7c1.5,0.4,3.1,0.6,4.8,0.7c-0.2,0.3-0.5,0.7-0.7,1.1
			c-2-0.2-3.9-0.5-5.7-1.1c-1.8,0.6-3.9,1-6,1.2c-0.1-0.3-0.4-0.8-0.6-1.1c1.8-0.1,3.5-0.4,5-0.7c-0.8-0.4-1.5-0.8-2.1-1.3
			c-0.6,0.5-1.4,0.9-2,1.2c-0.1-0.2-0.5-0.8-0.7-1c1.5-0.5,2.9-1.5,3.7-2.6l1.2,0.4c-0.1,0.2-0.3,0.4-0.4,0.6h7.8v1H304.7z
			 M295.5,289.5c-0.1,0.8-0.3,1.7-0.5,2.3c-0.2-0.1-0.5-0.3-0.7-0.4c0.2-0.6,0.3-1.3,0.4-2.1L295.5,289.5z M297.8,289.1
			c0-0.2-0.1-0.3-0.1-0.5c-2.4,0.3-2.8,0.4-3,0.5c0-0.2-0.2-0.6-0.3-0.9c0.2,0,0.5-0.3,0.8-0.6c0.2-0.2,0.5-0.5,0.9-0.9
			c-1,0.1-1.3,0.1-1.4,0.2c0-0.2-0.2-0.7-0.3-0.9c0.2,0,0.4-0.2,0.6-0.4c0.2-0.2,0.9-1.1,1.2-2l0.9,0.3c-0.4,0.7-0.9,1.5-1.4,2.1
			l1-0.1c0.3-0.3,0.5-0.7,0.7-1l0.9,0.4c-0.7,1-1.5,2-2.3,2.7l1.4-0.2c-0.1-0.3-0.2-0.5-0.3-0.7l0.7-0.2c0.3,0.6,0.6,1.4,0.7,1.9
			L297.8,289.1z M296.1,291.5c0-0.5-0.1-1.4-0.2-2l0.8-0.2c0.2,0.6,0.3,1.4,0.3,2L296.1,291.5z M297.7,291.2
			c-0.1-0.5-0.3-1.2-0.4-1.8l0.7-0.2c0.2,0.6,0.4,1.3,0.5,1.7L297.7,291.2z M298.1,293.1c0.7,0.5,1.6,0.9,2.7,1.3
			c0.9-0.3,1.7-0.8,2.3-1.3H298.1z M302.8,285.6h-4.3v-0.8h1.8c-0.1-0.3-0.3-0.6-0.4-0.9l1-0.3c0.2,0.4,0.5,0.9,0.6,1.2h1.4V285.6z
			 M302.5,286.9h-3.8v-0.7h3.8V286.9z M302.5,288.1h-3.8v-0.7h3.8V288.1z M298.8,291.3v-2.5h3.6v2.5H298.8z M299.6,290.6h2v-1.1h-2
			V290.6z M306.2,289.1c0-0.2-0.1-0.4-0.1-0.6c-2.4,0.3-2.8,0.4-3,0.5c-0.1-0.2-0.2-0.6-0.3-0.9c0.2,0,0.5-0.3,0.8-0.6
			c0.2-0.1,0.5-0.5,0.8-0.9c-1,0.1-1.3,0.1-1.4,0.2c-0.1-0.2-0.2-0.6-0.3-0.9c0.2,0,0.4-0.2,0.6-0.4c0.2-0.2,0.9-1.1,1.2-2l0.9,0.3
			c-0.4,0.8-0.9,1.5-1.4,2l1,0c0.3-0.3,0.5-0.7,0.7-1l0.8,0.4c-0.7,1-1.4,1.9-2.2,2.7l1.4-0.2c-0.1-0.3-0.2-0.6-0.3-0.8l0.8-0.2
			c0.3,0.6,0.6,1.5,0.7,2L306.2,289.1z M304,289.5c-0.1,0.7-0.3,1.6-0.4,2.2c-0.2-0.1-0.5-0.3-0.7-0.4c0.2-0.6,0.3-1.3,0.3-1.9
			L304,289.5z M304.6,291.4c0-0.5-0.1-1.4-0.3-2l0.8-0.1c0.2,0.6,0.3,1.4,0.3,2L304.6,291.4z M306.2,291.4c-0.1-0.5-0.3-1.4-0.5-2
			l0.7-0.2c0.2,0.6,0.4,1.4,0.5,2L306.2,291.4z"/>
		<path class="st9" d="M314.5,284.1c-0.4,0.9-0.9,1.8-1.4,2.7v9.8h-1.2v-8c-0.5,0.7-1.1,1.3-1.7,1.9c-0.1-0.3-0.5-1-0.7-1.3
			c1.5-1.3,2.9-3.3,3.8-5.4L314.5,284.1z M320.3,295c0.8,0,0.9-0.6,1-2.9c0.3,0.2,0.8,0.5,1.2,0.6c-0.2,2.6-0.5,3.6-2.1,3.6h-2.5
			c-1.5,0-2-0.5-2-2.1v-10.1h1.2v3.7h4.9v1.2h-4.9v5.2c0,0.8,0.1,0.9,0.8,0.9H320.3z"/>
		<path class="st9" d="M337.9,295.8h-4.6v0.7h-1.2v-7.7c-0.2,0.2-0.3,0.4-0.5,0.7c-0.1-0.1-0.4-0.4-0.6-0.5v1.3H329v0.7h2.2v1H329
			c0,0.2,0,0.5,0,0.7h2.6v1h-2.8l0,0.1c0.9,0.5,1.9,1.2,2.4,1.7l-0.7,0.9c-0.5-0.5-1.3-1.1-2.2-1.7c-0.4,0.7-1.2,1.4-2.4,2
			c-0.2-0.3-0.5-0.6-0.8-0.9c1.3-0.6,2-1.4,2.3-2.1h-2.3v-1h2.5c0-0.2,0.1-0.5,0.1-0.7h-2.1v-1h2.1v-0.7h-2.2v-2.7h2.2v-0.5h-1.4
			v-1.4h-1.2v-1h1.2v-0.8h1.2v0.8h1.7v-0.8h1.2v0.8h1.1v1h-1.1v1.4h-1.6v0.5h2.2v0.7c0.8-1.2,1.5-2.8,2-4.5l1.2,0.3
			c-0.2,0.8-0.5,1.6-0.8,2.3h4.4v1.2h-1.7v1.6h1.6v1.1h-1.6v1.7h1.6v1.1h-1.6v1.7h1.8V295.8z M326.6,289.3h1.2v-1h-1.2V289.3z
			 M327.6,286.1h1.7v-0.6h-1.7V286.1z M330,288.3h-1.2v1h1.2V288.3z M335,287.5h-1.6v1.6h1.6V287.5z M335,290.2h-1.6v1.7h1.6V290.2z
			 M333.3,294.7h1.6V293h-1.6V294.7z M335.4,286.2c-0.1-0.5-0.5-1.3-0.8-2l1.1-0.4c0.4,0.6,0.8,1.4,0.9,1.9L335.4,286.2z"/>
		<path class="st9" d="M351.5,295.1c0.5,0,0.6-0.3,0.7-1.9c0.3,0.2,0.8,0.4,1.2,0.5c-0.2,2-0.5,2.5-1.8,2.5h-2.1
			c-1.5,0-1.9-0.4-1.9-1.7v-3h-0.4c-0.7,2.1-2.2,3.8-5.7,4.8c-0.1-0.3-0.5-0.8-0.7-1.1c3-0.8,4.4-2.1,5-3.7h-3.7v-3.2
			c-0.2,0.2-0.4,0.3-0.6,0.5c-0.2-0.3-0.6-0.8-0.9-1c1.9-1.3,3.2-2.9,4-4.3l1.4,0.3c-0.1,0.3-0.3,0.5-0.5,0.8h3.2l0.2-0.1l0.9,0.6
			c-0.4,0.6-0.9,1.3-1.4,2h3.9v4.5H349v3c0,0.4,0.1,0.5,0.7,0.5H351.5z M346.1,290.5c0.2-0.7,0.2-1.4,0.3-2.2h-3v2.2H346.1z
			 M344.7,285.7c-0.4,0.5-0.8,1-1.2,1.4h3.4c0.4-0.4,0.7-0.9,1.1-1.4H344.7z M347.8,288.3c-0.1,0.7-0.2,1.5-0.3,2.2h3.5v-2.2H347.8z
			"/>
		<path class="st9" d="M361.1,286.6c-0.2,0.5-0.5,1-0.7,1.4h6.6v7c0,0.7-0.1,1.1-0.6,1.3c-0.5,0.2-1.3,0.2-2.4,0.2
			c0-0.4-0.2-0.9-0.4-1.3c0.8,0,1.7,0,1.9,0c0.2,0,0.3-0.1,0.3-0.3v-1.2H360c-0.2,1.1-0.6,2.1-1.5,2.8c-0.2-0.3-0.7-0.8-0.9-1
			c1.2-1.1,1.3-2.6,1.3-3.9V290c-0.6,0.7-1.3,1.3-2,1.9c-0.2-0.3-0.6-0.8-0.9-1c1.5-1,2.7-2.6,3.6-4.3h-3.3v-1.2h3.8
			c0.2-0.6,0.4-1.2,0.6-1.8l1.3,0.3c-0.2,0.5-0.3,1-0.5,1.4h7v1.2H361.1z M365.7,292.7v-1.2h-5.5v0.2c0,0.3,0,0.6,0,1H365.7z
			 M365.7,289.2h-5.5v1.2h5.5V289.2z"/>
		<path class="st9" d="M379.5,285.9c-0.3,0.5-0.6,1-0.9,1.4v9.1h-1.4v-7.4c-1.3,1.5-3,2.8-4.8,3.8c-0.2-0.4-0.6-0.9-0.9-1.2
			c2.7-1.3,5-3.6,6.3-5.8h-5.9v-1.3h12v1.3H379.5z M379.6,288.1c1.6,1.1,3.7,2.6,4.7,3.7l-1.1,1c-0.9-1.1-3-2.8-4.6-3.9L379.6,288.1
			z"/>
		<path class="st9" d="M242.3,307.3c-0.4,1.2-0.8,2.1-1.5,2.9c1.6,0.7,3.1,1.4,4.1,2l-1,1.2c-1-0.7-2.5-1.5-4.1-2.2
			c-1.4,1.2-3.4,1.8-6,2.2c-0.1-0.3-0.5-1-0.8-1.3c2.3-0.3,4.1-0.7,5.4-1.6c-1.3-0.5-2.6-1-3.8-1.4c0.4-0.5,0.8-1.2,1.2-1.9h-2.9
			v-1.2h3.6c0.4-0.8,0.8-1.6,1.1-2.3l1.5,0.3c-0.3,0.7-0.6,1.4-0.9,2h3c0.1-0.4,0.2-0.9,0.2-1.3l1.6,0.1c-0.1,0.4-0.1,0.8-0.2,1.2
			h2.4v1.2H242.3z M234.5,305h-1.3v-2.9h5.1c-0.2-0.4-0.4-0.9-0.6-1.3l1.4-0.4c0.3,0.5,0.6,1.2,0.8,1.7h4.8v2.9h-1.4v-1.7h-8.8V305z
			 M237.4,307.3c-0.3,0.5-0.5,0.9-0.8,1.3c0.9,0.3,1.9,0.6,2.8,1c0.6-0.6,1-1.4,1.3-2.3H237.4z"/>
		<path class="st9" d="M255,311.8h5.3v1.2h-11.8v-1.2h5.2v-2.1h-3.8v-1.1h3.8v-1.9h-3.1v-1.1c-0.6,0.4-1.2,0.8-1.8,1.1
			c-0.2-0.3-0.5-0.8-0.8-1.1c1.7-0.7,3.6-2.1,5-3.5h-2.2v-1.2h4.5c1.2,1.9,3.6,3.7,5.9,4.6c-0.3,0.3-0.7,0.8-0.9,1.2
			c-0.6-0.3-1.2-0.6-1.8-1v1.1H255v1.9h3.8v1.1H255V311.8z M250.5,305.6h7.6c-1.4-1-2.8-2.2-3.8-3.5
			C253.3,303.3,251.9,304.6,250.5,305.6z"/>
		<path class="st9" d="M275.6,304c-0.5,1.3-1.2,2.5-2.1,3.5c0.4,2.7,1.1,4.6,1.5,4.6c0.2,0,0.4-0.8,0.4-2.5c0.3,0.3,0.7,0.6,1,0.7
			c-0.2,2.3-0.6,3-1.6,3c-1.1,0-1.8-2-2.4-4.7c-0.3,0.3-0.7,0.6-1,0.9c-0.1-0.2-0.5-0.5-0.7-0.7H269c0.4,0.6,0.9,1.4,1.2,1.9
			l-0.9,0.4c-0.2-0.5-0.8-1.4-1.2-2.1l0.6-0.3h-2.3v-3.1h4.5v2.7c0.4-0.3,0.9-0.7,1.3-1.1c-0.2-1.3-0.3-2.8-0.4-4.2h-6.3v1.7
			c0,2.4-0.2,6.2-1.4,8.7c-0.2-0.2-0.8-0.6-1-0.7c1.1-2.4,1.2-5.7,1.2-8v-2.8h7.4c0-0.5,0-1,0-1.4h1.2c0,0.5,0,0.9,0,1.4h1.5
			c-0.4-0.3-0.9-0.7-1.3-1l0.8-0.5c0.5,0.3,1.1,0.8,1.5,1.1l-0.6,0.5h1.1v1.1h-2.9c0.1,1,0.1,2,0.3,2.9c0.4-0.7,0.8-1.4,1.1-2.2
			L275.6,304z M265.2,312.5c0.4-0.7,0.6-1.9,0.8-2.8l0.9,0.3c-0.1,1-0.4,2.2-0.8,3L265.2,312.5z M271.3,304.8h-5.1v-0.9h5.1V304.8z
			 M269.8,312.3c0.4,0,0.4-0.2,0.4-1.6c0.2,0.2,0.6,0.3,0.9,0.4c-0.1,1.6-0.4,2.1-1.3,2.1h-1.4c-1.1,0-1.3-0.3-1.3-1.3v-2.5h1.1v2.5
			c0,0.3,0.1,0.4,0.4,0.4H269.8z M270,306.5h-2.5v1.3h2.5V306.5z M271.6,309.5c0.4,0.9,1,2.2,1.2,2.9l-0.9,0.4c-0.3-0.8-0.8-2-1.2-3
			L271.6,309.5z"/>
		<path class="st9" d="M280.2,308.9c1.1-0.4,1.7-1.1,1.8-1.9c-0.1,0-0.1,0-0.2,0c-0.6,0-1.2-0.4-1.2-1.1c0-0.7,0.5-1.1,1.2-1.1
			c0.9,0,1.3,0.7,1.3,1.8c0,1.6-1,2.8-2.6,3.3L280.2,308.9z"/>
		<path class="st9" d="M299.6,301.6v2.8h-1.3v-1.7h-9.2v1.7h-1.2v-2.8h5.2c-0.1-0.3-0.3-0.6-0.4-0.9l1.4-0.3
			c0.2,0.4,0.5,0.9,0.6,1.2H299.6z M288.6,308.3h10.1v5h-1.3V313h-7.6v0.4h-1.2V308.3z M289.6,305h8.1v2.7h-8.1V305z M297.6,303.4
			v0.9h-7.8v-0.9H297.6z M289.9,309.3v0.9h3.1v-0.9H289.9z M289.9,312h3.1v-0.9h-3.1V312z M290.8,306.7h5.6v-0.9h-5.6V306.7z
			 M297.5,309.3h-3.2v0.9h3.2V309.3z M297.5,312v-0.9h-3.2v0.9H297.5z"/>
		<path class="st9" d="M305.6,302.3H303v-1.1h2.7v-0.7h1.3v0.7h1.9v1.1h-1.9v0.7h-1.3V302.3z M304.8,306.5v6.9h-1.2v-10.2h4.9v3.3
			H304.8z M304.8,304v0.5h2.5V304H304.8z M307.3,305.7v-0.5h-2.5v0.5H307.3z M314.7,312c0,0.6-0.1,0.9-0.5,1.1
			c-0.4,0.2-0.9,0.2-1.7,0.2c-0.1-0.3-0.2-0.8-0.4-1.1l-0.4,0.6c-0.4-0.3-1.4-1.1-2.1-1.5v1.9h-1v-1.8c-0.7,0.6-1.7,1.2-2.6,1.5
			c-0.2-0.2-0.5-0.6-0.7-0.8c0.9-0.2,1.9-0.7,2.6-1.2H306v-2.6h2.5v-0.5h-2.9V307h2.9v-0.7h1v0.7h3v0.7h-3v0.5h2.6v2.6h-2
			c0.7,0.4,1.7,1,2,1.2l-0.1,0.2c0.5,0,1,0,1.2,0c0.2,0,0.2-0.1,0.2-0.2v-5.5h-3.8v-3.3h5.1V312z M306.9,310.2h1.7v-1.2h-1.7V310.2z
			 M307.8,309c0.2,0.3,0.4,0.6,0.6,0.8l-0.5,0.3c-0.1-0.2-0.4-0.6-0.5-0.9L307.8,309z M315.3,301.2v1.1h-2.7v0.7h-1.3v-0.7h-2v-1.1
			h2v-0.7h1.3v0.7H315.3z M311.3,308.9h-1.8v1.2h1.8V308.9z M309.8,309.9c0.2-0.3,0.5-0.7,0.6-0.9l0.6,0.3c-0.2,0.3-0.5,0.6-0.7,0.8
			L309.8,309.9z M310.8,304v0.5h2.7V304H310.8z M313.5,305.7v-0.5h-2.7v0.5H313.5z"/>
		<path class="st9" d="M329.1,312c0.5,0,0.6-0.3,0.7-2c0.3,0.2,0.9,0.4,1.2,0.5c-0.2,2.2-0.5,2.7-1.8,2.7h-2c-1.4,0-1.8-0.4-1.8-1.7
			v-2.9h-1.9c-0.3,2.4-1.2,4-4.6,4.8c-0.1-0.4-0.5-0.9-0.8-1.2c3.1-0.6,3.7-1.8,4-3.6h-2v-4.2h3.8V303h-5.3v-1.2h5.3v-1.3h1.3v1.3
			h5.4v1.2h-5.4v1.4h4v4.2h-2.4v2.9c0,0.4,0.1,0.5,0.6,0.5H329.1z M321.3,307.4h6.5v-1.9h-6.5V307.4z"/>
		<path class="st9" d="M338.8,308.6c-0.3-0.5-0.9-1.3-1.4-2v6.8h-1.3v-6.3c-0.6,1.5-1.3,2.9-2,3.8c-0.1-0.4-0.5-0.9-0.7-1.2
			c1-1.2,2-3.1,2.5-5h-2.2v-1.2h2.4v-3h1.3v3h1.9v1.2h-1.9v0.3c0.4,0.4,1.9,2.1,2.2,2.5L338.8,308.6z M343.9,304.7
			c0.6,2.1,1.6,4.2,2.7,5.4c-0.3,0.2-0.8,0.7-1,1c-0.8-1-1.4-2.5-2-4.1v6.4h-1.3v-6.3c-0.7,1.7-1.7,3.3-2.7,4.3
			c-0.2-0.4-0.5-0.9-0.8-1.2c1.3-1.2,2.5-3.4,3.2-5.5h-2.2v-1.2h2.4v-3h1.3v3h2.6v1.2H343.9z"/>
		<path class="st9" d="M360.8,304.3c-0.2,2.1-0.7,3.8-1.4,5.3c0.6,1.2,1.4,2.1,2.5,2.7c-0.3,0.2-0.6,0.7-0.8,1
			c-1-0.6-1.8-1.5-2.3-2.6c-0.8,1.1-1.8,2-3.1,2.7c-0.1-0.2-0.3-0.5-0.5-0.8l-0.4,0.3c-0.4-0.3-1.1-0.6-1.7-0.8
			c-0.8,0.5-2,0.9-3.7,1.2c-0.1-0.3-0.3-0.6-0.5-0.9c1.3-0.2,2.3-0.5,3-0.8c-0.7-0.2-1.3-0.4-2-0.6c0.3-0.3,0.5-0.7,0.8-1.2h-1.6
			V309h2.2c0.1-0.3,0.3-0.5,0.4-0.8h-2v-2.3h2.5v-0.5H350v-1.5h-1v-1h1v-1.4h2.3v-0.9h1v0.9h2.4v1.4h0.8v1h-0.8v1.5h-2.4v0.5h2.7
			v0.7c0.9-1.6,1.5-3.8,1.9-6l1.1,0.2c-0.2,0.8-0.3,1.7-0.5,2.5h3.5v1.2H360.8z M350.8,307.4h1.5v-0.8h-1.5V307.4z M351,302.2v0.6
			h1.3v-0.6H351z M352.2,304.5v-0.7H351v0.7H352.2z M351.9,309.9c-0.1,0.2-0.3,0.5-0.4,0.7c0.5,0.1,1,0.3,1.4,0.5
			c0.5-0.4,0.8-0.8,0.9-1.2H351.9z M355,309.9c-0.1,0.5-0.4,1.1-0.9,1.6c0.6,0.2,1.1,0.5,1.5,0.7c1.2-0.7,2.1-1.5,2.7-2.6
			c-0.4-1-0.7-2.1-1-3.3c-0.2,0.5-0.4,1-0.7,1.4c-0.2-0.2-0.5-0.5-0.7-0.7v1.3h-3c-0.1,0.3-0.3,0.5-0.4,0.8h1.5v-0.5h1v0.5h1.3v0.9
			H355z M353.3,302.2v0.6h1.4v-0.6H353.3z M354.6,304.5v-0.7h-1.4v0.7H354.6z M353.3,306.6v0.8h1.5v-0.8H353.3z M358,304.3l0,0.1
			c0.2,1.4,0.5,2.7,0.9,3.8c0.4-1.1,0.7-2.4,0.8-3.9H358z"/>
		<path class="st9" d="M369,300.9c-0.4,1-0.8,2-1.4,2.9v9.5h-1.3v-7.5c-0.4,0.5-0.8,1-1.2,1.4c-0.1-0.3-0.5-1-0.7-1.3
			c1.3-1.3,2.6-3.4,3.3-5.4L369,300.9z M377.2,311.6v1.2h-8.7v-1.2h4.9c0.5-1.9,1-4.7,1.3-6.8l1.4,0.2c-0.4,2.1-0.9,4.7-1.4,6.5
			H377.2z M376.7,304.2H369V303h7.7V304.2z M370.8,311c-0.1-1.5-0.5-4-0.9-5.9l1.2-0.3c0.4,1.9,0.9,4.3,1,5.8L370.8,311z
			 M372.4,302.9c-0.1-0.6-0.4-1.5-0.6-2.2l1.2-0.3c0.3,0.7,0.6,1.6,0.7,2.2L372.4,302.9z"/>
		<path class="st9" d="M237.2,327.4c-1.5,0.5-3.2,1.1-4.4,1.5l-0.3-1.3c0.5-0.1,1.1-0.3,1.8-0.5v-3.6h-1.5v-1.2h1.5v-2.8h-1.7v-1.2
			h4.5v1.2h-1.6v2.8h1.3v1.2h-1.3v3.2c0.5-0.2,1-0.3,1.5-0.5L237.2,327.4z M245.4,328.6v1.2h-9v-1.2h4.1v-1.7h-3v-1.2h3v-1.4h-2.9
			V318h7.2v6.3h-2.9v1.4h3.1v1.2h-3.1v1.7H245.4z M238.8,320.6h1.8v-1.5h-1.8V320.6z M238.8,323.2h1.8v-1.5h-1.8V323.2z
			 M243.6,319.1h-1.8v1.5h1.8V319.1z M243.6,321.7h-1.8v1.5h1.8V321.7z"/>
		<path class="st9" d="M250.8,327.2c-0.4,1.1-1.2,2.3-1.9,3c-0.2-0.2-0.8-0.6-1-0.8c0.7-0.6,1.4-1.6,1.7-2.5L250.8,327.2z
			 M253.6,326.7h-5v-8.8h5V326.7z M252.3,318.9h-2.5v1.5h2.5V318.9z M252.3,321.5h-2.5v1.6h2.5V321.5z M252.3,324.1h-2.5v1.6h2.5
			V324.1z M252.5,326.9c0.6,0.7,1.2,1.6,1.5,2.2l-1.1,0.6c-0.3-0.6-0.9-1.6-1.5-2.3L252.5,326.9z M260.8,321.8h-1.7v6.8
			c0,0.7-0.2,1.1-0.6,1.3c-0.4,0.2-1.1,0.3-2.1,0.3c-0.1-0.4-0.3-0.9-0.5-1.3c0.7,0,1.4,0,1.6,0c0.2,0,0.3-0.1,0.3-0.3v-5.2
			c-0.9,1.8-2.1,3.5-3.3,4.5c-0.2-0.3-0.6-0.7-0.9-0.9c1.5-1.1,2.9-3.1,3.7-5.2H254v-1.2h3.9v-3.2h1.3v3.2h1.7V321.8z"/>
		<path class="st9" d="M270.2,329.2c0.7-0.4,1.3-1,1.7-1.5l1.1,0.6c-0.6,0.7-1.5,1.5-2.3,1.9c-0.2-0.2-0.6-0.6-0.8-0.8l0.2-0.1h-3.4
			v0.7h-1v-3.9c-0.1,0.1-0.2,0.3-0.3,0.4c0-0.1-0.1-0.2-0.2-0.3c-0.1,1.3-0.4,2.7-0.8,3.8c-0.2-0.2-0.7-0.4-1-0.5
			c0.8-2,0.8-4.7,0.8-6.7v-4.5h0c1.7-0.2,3.8-0.4,4.9-0.8l1,0.9c-1.3,0.4-3.1,0.7-4.8,0.8v0.6h4.8v3h-4.8v0c0,0.7,0,1.5-0.1,2.3
			c0.4-0.7,0.8-1.5,1-2.3l0.9,0.2c-0.1,0.3-0.2,0.6-0.3,1h1c-0.1-0.3-0.3-0.6-0.4-0.9l0.9-0.2c0.2,0.3,0.4,0.8,0.5,1.1h1.3v0.9h-1.5
			v0.6h1.3v0.8h-1.3v0.6h1.3v0.8h-1.3v0.7h1.6V329.2z M265.1,320.8v1h3.6v-1H265.1z M267.7,325h-1.2v0.6h1.2V325z M267.7,326.4h-1.2
			v0.6h1.2V326.4z M266.5,328.5h1.2v-0.7h-1.2V328.5z M272.4,320.2c0.1-0.4,0.1-0.8,0.2-1.1h-2.2V318h5.7v1.1h-2.2
			c-0.1,0.4-0.2,0.8-0.3,1.1h2.1v7.2h-5v-7.2H272.4z M274.5,321.2h-2.8v1.1h2.8V321.2z M274.5,323.2h-2.8v1.1h2.8V323.2z
			 M274.5,325.3h-2.8v1.1h2.8V325.3z M274.5,327.7c0.6,0.5,1.4,1.2,1.8,1.8l-1,0.7c-0.4-0.5-1.1-1.3-1.7-1.8L274.5,327.7z"/>
		<path class="st9" d="M280.8,322.9v7.3h-1.3v-12.3h5.2v5H280.8z M280.8,318.9v1h2.6v-1H280.8z M283.4,321.9v-1.1h-2.6v1.1H283.4z
			 M283.8,328.3v0.8h-1.2v-5h5.3v4.2H283.8z M283.8,325.1v2h2.9v-2H283.8z M291.1,328.6c0,0.8-0.2,1.2-0.7,1.4
			c-0.5,0.2-1.3,0.2-2.6,0.2c0-0.4-0.3-1-0.4-1.3c0.9,0,1.8,0,2.1,0c0.3,0,0.3-0.1,0.3-0.4v-5.6h-4v-5h5.3V328.6z M287,318.9v1h2.7
			v-1H287z M289.7,321.9v-1.1H287v1.1H289.7z"/>
		<path class="st9" d="M306.9,319.6h-1.7v8.9c0,0.8-0.2,1.3-0.8,1.5c-0.6,0.2-1.6,0.3-3,0.3c-0.1-0.4-0.3-1-0.5-1.4
			c1.1,0.1,2.2,0,2.6,0c0.3,0,0.4-0.1,0.4-0.4v-8.8h-9.4v-1.3h12.5V319.6z M297.1,326.7v1.1h-1.3v-6.4h5.8v5.3H297.1z M297.1,322.7
			v2.8h3.2v-2.8H297.1z"/>
		<path class="st9" d="M315.6,326.3c-1.9,0.9-4,1.8-5.5,2.4l-0.5-1.4c0.5-0.2,1.2-0.4,1.9-0.7l-0.3-8.4l1.4-0.1l0.2,7.9
			c0.8-0.3,1.6-0.7,2.5-1L315.6,326.3z M321.6,330.2c-0.6-0.9-1.8-2.3-2.9-3.6c-1.1,1.6-2.5,2.7-4.6,3.6c-0.2-0.3-0.7-0.9-1.1-1.2
			c4.7-1.7,6.1-5.1,6.7-11l1.4,0.1c-0.3,2.9-0.8,5.3-1.8,7.2c1.2,1.2,2.6,2.7,3.3,3.7L321.6,330.2z M316.3,323.1
			c-0.4-1-1.3-2.4-2.1-3.4l1.2-0.6c0.9,1,1.8,2.4,2.2,3.3L316.3,323.1z"/>
		<path class="st9" d="M328,325v3.6c0,0.6-0.1,1-0.5,1.2c-0.4,0.2-0.9,0.3-1.8,0.3c0-0.3-0.2-0.9-0.4-1.2c0.6,0,1.1,0,1.2,0
			c0.2,0,0.2-0.1,0.2-0.3v-3.3l-1.5,0.4l-0.3-1.3c0.5-0.1,1.1-0.3,1.8-0.5v-2.8h-1.6v-1.2h1.6v-2.7h1.2v2.7h1.5v1.2H328v2.5l1.3-0.4
			l0.2,1.2L328,325z M334.2,328.8c0.4,0.1,0.8,0.1,1.2,0.1c0.4,0,2.2,0,2.7,0c-0.2,0.3-0.3,0.8-0.4,1.2h-2.4c-2,0-3.4-0.4-4.3-2.2
			c-0.4,1-0.9,1.8-1.6,2.4c-0.2-0.2-0.7-0.6-1-0.8c1.2-1,1.8-2.5,2-4.5l1.2,0.1c-0.1,0.5-0.2,1-0.3,1.5c0.4,1,0.9,1.6,1.6,1.9v-4.1
			h-3.4v-1.1h8.1v1.1h-3.5v1.5h2.8v1h-2.8V328.8z M337,322.5h-6.7v-4.7h6.7V322.5z M335.8,318.8h-4.3v0.9h4.3V318.8z M335.8,320.6
			h-4.3v0.9h4.3V320.6z"/>
		<path class="st9" d="M344.9,317.8c-0.4,1-0.9,2-1.4,2.9v9.5h-1.3v-7.5c-0.4,0.5-0.8,1-1.2,1.4c-0.1-0.3-0.5-1-0.7-1.3
			c1.3-1.3,2.6-3.3,3.3-5.4L344.9,317.8z M348,327c-0.7,1.2-1.8,2.4-2.7,3.2c-0.2-0.2-0.7-0.6-1-0.8c1-0.7,1.9-1.8,2.5-2.8L348,327z
			 M353.4,324.6v1.3h-9v-1.3h2v-3.2h-1.7v-1.2h1.7v-2.7h1.3v2.7h2.4v-2.8h1.3v2.8h1.9v1.2h-1.9v3.2H353.4z M347.7,324.6h2.4v-3.2
			h-2.4V324.6z M350.9,326.6c0.9,0.9,1.9,2.1,2.4,2.9l-1.1,0.7c-0.5-0.9-1.5-2.1-2.4-3.1L350.9,326.6z"/>
		<path class="st9" d="M360.5,324.6c-0.4,0.1-0.9,0.3-1.4,0.4v3.7c0,0.7-0.1,1-0.5,1.2c-0.4,0.2-1,0.2-2,0.2c0-0.3-0.2-0.9-0.4-1.2
			c0.6,0,1.2,0,1.4,0c0.2,0,0.3-0.1,0.3-0.3v-3.3l-1.6,0.4l-0.4-1.2c0.6-0.1,1.2-0.3,2-0.5v-2.8h-1.8v-1.2h1.8v-2.7h1.3v2.7h1.6v1.2
			h-1.6v2.4l1.2-0.3L360.5,324.6z M368,323.7c-0.5,1.7-1.4,3-2.6,4c1,0.6,2.2,1,3.5,1.3c-0.3,0.3-0.6,0.8-0.8,1.2
			c-1.4-0.4-2.7-0.9-3.8-1.6c-1.2,0.8-2.5,1.3-4,1.6c-0.1-0.4-0.4-0.9-0.6-1.2c1.3-0.3,2.5-0.7,3.6-1.3c-0.9-0.8-1.6-1.8-2.1-3
			l0.4-0.1h-0.7v-1.2h6.2l0.2,0L368,323.7z M363.2,319.4c0,1.3-0.4,2.8-2.2,3.8c-0.2-0.3-0.6-0.8-0.9-1c1.6-0.8,1.8-1.9,1.8-2.9
			v-1.5h4.6v3.1c0,0.4,0,0.5,0.3,0.5h0.9c0.2,0,0.5,0,0.7-0.1c0,0.3,0.1,0.8,0.1,1.1c-0.2,0.1-0.5,0.1-0.8,0.1h-1.1
			c-1.2,0-1.4-0.5-1.4-1.7V319h-2.2V319.4z M362.3,324.7c0.5,0.9,1.1,1.7,2,2.4c0.8-0.6,1.4-1.4,1.9-2.4H362.3z"/>
		<path class="st9" d="M380.2,319.4c0,0.1,0,0.2,0,0.3c0.8,0.8,2.3,1.2,4.1,1.4c-0.3,0.3-0.6,0.7-0.7,1.1c-1.6-0.2-2.9-0.7-3.8-1.5
			c-0.5,0.6-1.6,1.3-4,1.6c-0.1-0.3-0.4-0.7-0.7-1h-3.6v-1h4.1v0.9c3-0.4,3.4-1.2,3.4-1.8v-0.2h-1.2c-0.3,0.5-0.7,1-1,1.3
			c-0.2-0.2-0.7-0.5-1-0.7c0.7-0.6,1.3-1.6,1.6-2.6l1.2,0.3c-0.1,0.2-0.2,0.5-0.3,0.7h4.4l0.2-0.1l0.9,0.3c-0.4,0.7-0.8,1.6-1.2,2.1
			l-1-0.4c0.2-0.3,0.4-0.6,0.6-1h-2V319.4z M380.1,328c1.4,0.5,3,1.1,4,1.5l-1.2,0.7c-0.9-0.5-2.3-1.1-3.8-1.6l0.8-0.7h-4.2l1.2,0.5
			c-1.1,0.7-2.9,1.4-4.3,1.8c-0.2-0.3-0.7-0.7-1-1c1.4-0.3,3.1-0.8,4-1.3h-2.3v-5.6h9.2v5.6H380.1z M375.3,319.1h-3.4v-1h3.4V319.1z
			 M374.7,323.9h6.6v-0.8h-6.6V323.9z M374.7,325.5h6.6v-0.8h-6.6V325.5z M374.7,327.1h6.6v-0.8h-6.6V327.1z"/>
		<path class="st9" d="M239.6,334.2c0,0.5,0,1.3-0.1,2.1c0.2,1.8,1.1,7.4,6,9.5c-0.4,0.3-0.8,0.8-1,1.1c-3.3-1.6-4.8-4.6-5.6-7.2
			c-0.7,2.6-2.2,5.5-5.4,7.2c-0.2-0.3-0.6-0.8-1.1-1c5.7-3,5.6-9.5,5.6-11.8H239.6z"/>
		<path class="st9" d="M259,345.7c0.5,0,0.6-0.2,0.6-1.8c0.3,0.2,0.8,0.4,1.2,0.5c-0.1,2-0.5,2.5-1.7,2.5h-2c-1.4,0-1.8-0.4-1.8-1.7
			V342h-2.2c-0.2,2.8-0.9,4.3-4.5,5c-0.1-0.3-0.4-0.8-0.7-1.1c3.1-0.6,3.7-1.6,3.8-3.9h-3.6v-1.2h12.4v1.2h-3.9v3.1
			c0,0.4,0.1,0.5,0.6,0.5H259z M249.8,339h-1.3v-3.3h5.3c-0.2-0.4-0.4-0.9-0.6-1.3l1.3-0.4c0.3,0.5,0.6,1.2,0.8,1.7h4.9v3.3h-1.3v-2
			h-9V339z M250.6,339.4v-1.2h7.4v1.2H250.6z"/>
		<path class="st9" d="M266.3,339.9c-0.6,0.7-1.4,1.3-2.2,1.6c-0.2-0.3-0.5-0.6-0.7-0.8c0.9-0.3,1.8-1,2.5-1.6H264v-2.5h2.3v-0.6
			h-2.6v-1h2.6v-0.8h1.2v0.8h2.6v1h-2.6v0.6h2.3v1.1c0.9-0.8,1.6-2,1.9-3.4l1.2,0.3c-0.1,0.4-0.3,0.8-0.4,1.2h3.7v1.1h-0.9
			c-0.3,1-0.7,1.9-1.3,2.6c0.7,0.5,1.5,1,2.4,1.3c-0.2,0.2-0.6,0.7-0.7,1c-1-0.3-1.8-0.9-2.5-1.5c-0.7,0.6-1.6,1.1-2.6,1.5
			c-0.1-0.2-0.5-0.7-0.7-0.9c1-0.3,1.9-0.7,2.6-1.3c-0.4-0.5-0.8-1.1-1-1.6c-0.2,0.3-0.5,0.6-0.7,0.8c-0.2-0.2-0.6-0.7-0.8-0.9v1.4
			H268c0.6,0.3,1.3,0.7,1.7,1.1l-0.5,0.7c-0.4-0.4-1.1-0.8-1.7-1.2v1.6h-1.2V339.9z M270.4,345.6h5.7v1.1h-12.6v-1.1h2.2v-2.2h1.2
			v2.2h2.2v-2.9h-4.7v-1.1h10.9v1.1h-4.8v0.9h3.8v1h-3.8V345.6z M265,338.2h1.3v-0.9H265V338.2z M267.4,337.3v0.9h1.2v-0.9H267.4z
			 M267.9,339h-0.4v0.5L267.9,339z M271.9,336.7c0.3,0.6,0.6,1.2,1.1,1.8c0.4-0.5,0.7-1.1,0.9-1.8H271.9z"/>
		<path class="st9" d="M291.3,336.4c0,0,0,0.4,0,0.6c-0.2,6.3-0.4,8.5-0.9,9.2c-0.4,0.5-0.7,0.6-1.2,0.7c-0.5,0.1-1.3,0-2.1,0
			c0-0.4-0.2-0.9-0.4-1.3c0.9,0.1,1.7,0.1,2.1,0.1c0.3,0,0.4,0,0.6-0.2c0.4-0.5,0.6-2.6,0.8-7.9h-3.3c-0.4,0.9-0.8,1.7-1.3,2.4
			c-0.2-0.2-0.7-0.5-1-0.7v6.4h-3.8v1.1h-1.2v-10.3h1.6c0.2-0.7,0.4-1.6,0.5-2.3l1.4,0.2c-0.2,0.7-0.5,1.4-0.7,2h2.2v2.7
			c0.9-1.2,1.7-3.1,2.1-4.9l1.3,0.3c-0.2,0.6-0.4,1.3-0.6,1.9H291.3z M280.6,337.6v2.7h2.6v-2.7H280.6z M283.2,344.5v-3.1h-2.6v3.1
			H283.2z M287.9,343.4c-0.4-0.9-1.3-2.2-2-3.2l1-0.6c0.7,1,1.7,2.3,2.1,3.1L287.9,343.4z"/>
		<path class="st14" d="M299.1,337.6h-4.8v-1h4.8V337.6z M298.5,346.3h-2.5v0.6h-1.1v-4.7h3.7V346.3z M294.8,338.4h3.7v1h-3.7V338.4
			z M294.8,340.2h3.7v1h-3.7V340.2z M296.5,336.4c-0.1-0.5-0.4-1.3-0.7-1.9l1.1-0.3c0.3,0.6,0.6,1.4,0.8,1.9L296.5,336.4z
			 M295.9,343.2v2h1.4v-2H295.9z M301.9,339.6h-2.8v-1h2.8V339.6z M301.5,336.4h-2.2v-1h2.2V336.4z M300.3,341.8h6.1v5.2H305v-0.5
			h-3.6v0.6h-1.2V341.8z M304.8,336.7c-0.1,0.4-0.1,0.8-0.3,1.1c0.5,1.2,1.4,2.3,2.7,2.8c-0.3,0.2-0.6,0.7-0.8,1
			c-1.1-0.5-1.8-1.3-2.4-2.4c-0.5,1-1.4,1.9-2.8,2.5c-0.1-0.3-0.4-0.7-0.7-0.9c2.2-0.9,2.8-2.5,3-4.1h-0.6c-0.3,0.7-0.6,1.3-1,1.7
			c-0.2-0.2-0.7-0.5-1-0.7c0.7-0.9,1.3-2.2,1.6-3.6l1.2,0.2c-0.1,0.4-0.2,0.8-0.4,1.2h2.8l0.2,0l0.8,0.2c-0.2,0.9-0.5,1.8-0.8,2.5
			l-1-0.2c0.1-0.4,0.3-0.8,0.4-1.3H304.8z M301.5,343v2.4h3.6V343H301.5z"/>
		<path class="st14" d="M314.9,337.6h-5.1v-1h2.4c-0.2-0.5-0.7-1.3-1-1.9l0.9-0.5c0.4,0.6,0.9,1.3,1.1,1.8l-0.9,0.6h2.6V337.6z
			 M310.3,339.4v-1h4v1H310.3z M310.3,340.2h4v1h-4V340.2z M314.3,346.3h-2.9v0.6h-1v-4.7h4V346.3z M311.4,343.2v2h1.9v-2H311.4z
			 M322.3,336.9c-0.2,6.5-0.3,8.8-0.9,9.5c-0.3,0.4-0.6,0.6-1.1,0.7c-0.4,0.1-1.2,0.1-1.9,0c0-0.4-0.2-0.9-0.4-1.3
			c0.8,0.1,1.5,0.1,1.8,0.1c0.2,0,0.4-0.1,0.5-0.2c0.4-0.5,0.6-2.6,0.7-8.1h-4.2c-0.2,0.4-0.5,0.9-0.7,1.2h3.5v5.6h-2.9v0.6h-1v-5.6
			l-0.2,0.2c-0.2-0.2-0.8-0.6-1.1-0.8c1.1-1.1,1.9-2.7,2.4-4.5l1.3,0.3c-0.2,0.6-0.4,1.2-0.6,1.7h4.9V336.9z M316.7,339.7v1.3h1.8
			v-1.3H316.7z M318.5,343.2V342h-1.8v1.3H318.5z"/>
		<path class="st14" d="M330.2,345.6c0,0.6-0.1,1-0.5,1.2c-0.4,0.2-1,0.3-1.9,0.2c0-0.3-0.2-0.9-0.4-1.3c0.6,0,1.1,0,1.3,0
			c0.2,0,0.2-0.1,0.2-0.3v-3.2h-1.9c-0.1,1.7-0.4,3.4-1,4.7c-0.2-0.2-0.8-0.5-1.1-0.6c0.9-1.9,1-4.7,1-6.8v-5h4.2V345.6z M329,341.2
			v-2.1h-1.8v0.6c0,0.4,0,1,0,1.5H329z M327.2,335.9v2h1.8v-2H327.2z M337.8,339.7c-0.3,1.9-1,3.4-1.8,4.7c0.6,0.7,1.4,1.3,2.2,1.7
			c-0.3,0.2-0.6,0.7-0.8,1c-0.8-0.4-1.5-1-2.1-1.7c-0.6,0.7-1.2,1.2-2,1.7c-0.2-0.3-0.5-0.7-0.8-0.9v1h-1.2v-12.4h6.1v2.7
			c0,0.6-0.1,0.9-0.6,1.1c-0.5,0.2-1.2,0.2-2.3,0.2c-0.1-0.3-0.3-0.8-0.4-1.1c0.8,0,1.6,0,1.8,0c0.2,0,0.3,0,0.3-0.2v-1.5h-3.6v3.6
			h4.3l0.2,0L337.8,339.7z M332.5,346c0.7-0.4,1.4-1,2-1.6c-0.7-1.1-1.3-2.3-1.7-3.7h-0.3V346z M333.8,340.7c0.3,1,0.8,1.9,1.3,2.7
			c0.5-0.8,0.9-1.7,1.2-2.7H333.8z"/>
		<path class="st14" d="M352.3,336.7c-0.4,0.9-0.9,1.6-1.6,2.2c0.8,0.5,1.8,0.8,2.8,1.1c-0.3,0.3-0.6,0.8-0.8,1.1
			c-1.1-0.3-2.1-0.7-3-1.3c-0.9,0.6-1.9,1-3,1.3c-0.1-0.2-0.2-0.4-0.4-0.6c-0.2,0.8-0.5,1.7-0.8,2.3l-0.9-0.4
			c0.2-0.5,0.4-1.3,0.6-2.1h-1.1v5.4c0,0.6-0.1,1-0.5,1.2c-0.4,0.2-1,0.2-1.9,0.2c0-0.4-0.2-0.9-0.4-1.2c0.6,0,1.1,0,1.3,0
			c0.2,0,0.2,0,0.2-0.2v-3.8c-0.5,1.2-1.2,2.3-1.9,3c-0.1-0.4-0.4-0.9-0.7-1.3c0.8-0.7,1.6-2.1,2.1-3.4h-2v-1.1h3.6
			c-0.8-0.6-2-1.2-3-1.7l0.8-0.8c0.4,0.2,0.8,0.4,1.3,0.6c0.4-0.3,0.9-0.8,1.2-1.2h-3.7v-1.1h4.6l0.2,0l0.8,0.5
			c-0.5,0.8-1.4,1.7-2.2,2.3c0.4,0.3,0.8,0.5,1.1,0.7l-0.6,0.7h0.9l0.2-0.1l0.8,0.3c0,0.2-0.1,0.4-0.1,0.6c0.8-0.2,1.5-0.5,2.1-0.9
			c-0.5-0.4-0.9-0.9-1.2-1.5c-0.3,0.3-0.6,0.6-0.8,0.8c-0.3-0.2-0.8-0.6-1.1-0.7c1.1-0.8,2.1-2.1,2.7-3.4l1.2,0.3
			c-0.2,0.4-0.4,0.7-0.6,1.1h4.4v1.1H352.3z M353,342c0,0,0,0.3,0,0.5c-0.2,2.5-0.5,3.6-0.9,4c-0.3,0.3-0.6,0.4-0.9,0.4
			c-0.4,0-0.9,0-1.6,0c0-0.4-0.2-0.9-0.4-1.2c0.5,0.1,1.1,0.1,1.3,0.1c0.2,0,0.3,0,0.4-0.2c0.2-0.2,0.4-0.9,0.6-2.6h-2
			c-0.5,1.7-1.5,3.1-3.7,4c-0.2-0.3-0.5-0.8-0.8-1c1.8-0.7,2.7-1.7,3.1-3h-2V342h2.2c0.1-0.4,0.1-0.9,0.2-1.3h1.3
			c0,0.5-0.1,0.9-0.2,1.3H353z M348.3,336.7c0.4,0.6,0.8,1.1,1.4,1.5c0.5-0.4,0.9-1,1.2-1.5H348.3z"/>
		<path class="st9" d="M359,338.4c1.2,0,2.2,1,2.2,2.2s-1,2.2-2.2,2.2c-1.2,0-2.2-1-2.2-2.2S357.8,338.4,359,338.4z M359,342
			c0.7,0,1.3-0.6,1.3-1.3s-0.6-1.3-1.3-1.3c-0.7,0-1.3,0.6-1.3,1.3S358.2,342,359,342z"/>
	</g>
	<g>
		<circle class="st15" cx="211.3" cy="203.3" r="71.8"/>
		<g>
			<circle class="st16" cx="210.2" cy="203.3" r="65.4"/>
		</g>
		<g>
			<g>
				<g>
					<path class="st17" d="M-4897-13391.5c-19.8-0.3-38.9,8.9-51.4,24.7c11.3,3.2,22.2,8.8,28.5,19.2c7.2,11,3.7,27.9-8,33.9
						c-10.8,4.7-22.7,2.7-34.2,2.3c4.1,22.3,19,41.9,41,50.6c33.7,13.3,71.6-4.3,84.4-39.1c12.8-34.8-4.1-73.8-37.9-87.1
						C-4881.9-13389.9-4889.5-13391.4-4897-13391.5z M-4897.2-13371.1L-4897.2-13371.1c2.5,0.1,4.6,2.4,4.6,4.9l0,37.4h36.8
						c2.5,0,4.7,2.3,4.7,4.8s-2.2,4.9-4.7,4.9h-40.8c-1.3,0.2-2.8-0.2-3.8-1.1c0,0,0,0,0,0c-0.1-0.1-0.2-0.2-0.3-0.3c0,0,0,0,0,0
						c-0.1-0.1-0.2-0.2-0.3-0.3c0,0,0,0,0,0c-0.8-1-1.2-2.4-1-3.7l0-41.6c0-1.3,0.5-2.6,1.4-3.5
						C-4899.7-13370.6-4898.5-13371.1-4897.2-13371.1z"/>
					<path class="st9" d="M-5133.5-13430.9c-1.5,0-3,0.7-4,1.8c-1.1,1.1-1.7,2.6-1.7,4.2l-16.5,85.4c0,1.5,10,3.1,11.1,4.2
						c1.1,1.1,9.6,4.2,11.1,4.2h21.2c1.5,0,3-0.6,4.1-1.7c1.1-1.1,1.7-2.7,1.7-4.2v-87.8c0-1.6-0.6-3.1-1.7-4.2
						c-1.1-1.1-2.5-1.7-4.1-1.7H-5133.5z"/>
					<path class="st9" d="M-4999.7-13437.3c-39.4,6.6-66.3,15-99.9,15.9v77.5c21.9,1.2,33.9,18.9,49.9,23.8
						c36.7,6.3,44.2,4.3,77.1,0.1c11.8-1.5,36.5,3.5,43-3.2c4.5-4.6,5.8-10.2,3.8-16.9c-1-3.4-3.1-6-7.5-9.6
						c-9.7-7.9-22.1-11.3-46.8-12.5c-9.2-0.3-25.6-4.1-26.8-13.1c-0.7-7.5,2.8-15.4,8.5-17c8-2.3,24.5-3.4,29.8,0.2
						c7,5.2,10.8,9.8,18.1,11.7c0.9,0.2,1.8,0.5,2.5,0.9c10-9.2,22.5-15.7,35.8-18.1c-14-13.1-36.7-30.2-53.8-36.9
						C-4977.6-13437.7-4988.4-13439.6-4999.7-13437.3z"/>
				</g>
				<g>
					<path class="st9" d="M168.4,198.1h-3.7v-11.6c-0.8,0.9-2.6,2.7-3.5,3.5v-5.3c2.4-2.6,4.7-6.6,6.2-9.7h-5.6v-3.6h7
						c0.3-0.9,0.2-0.5,0.6-1.5l3.9,0c-0.2,0.7-0.2,0.9-0.4,1.5h2.8v3.6h-4.1c-0.8,1.9-2.1,4.9-3.2,6.6V198.1z M169.2,186.3h8.7v-1.5
						l5.1-2.7h-12.1v-3.4h17.8v3.4c-1.8,1.4-5,2.7-6.8,3.9v0.3h6.8v2.8h-6.8v5.2c0,1.2-0.1,2.2-0.6,2.8c-1,1.2-1.7,1-2.8,1.1
						c-1.1,0.1-3.5-0.1-5.8,0v-4c0.9,0.1,1.9,0.1,2.9,0.1c1,0,1.6-0.1,1.9-0.3c0.3-0.2,0.5-0.6,0.5-1.1v-3.9h-8.7V186.3z"/>
				</g>
			</g>
			<g>
				<path class="st18" d="M235.2,195h5.9c-0.7-1.1-1.6-2.4-2.7-3.9l3.2-2.2c1,1.2,2,2.6,3,4.1l-2.7,1.9h4.2v-6.1h-8.7v-3.3h8.7v-3.1
					h-5.3V180c-1.3,1-2.8,1.9-4.3,2.9c-0.7-1.2-1.4-2.6-2.3-4.1c5.6-2.7,9.6-5.9,12.2-9.7h5.6l-1.2,1.4c2.9,3.4,6.6,5.9,11.3,7.6
					c-0.9,1.6-1.6,3-2.2,4.2c-1.5-0.8-2.9-1.6-4.2-2.5v2.7h-5.4v3.1h8.7v3.3h-4.1l3.4,2c-1,1.5-2,2.8-2.9,4.1h6v3.8h-26V195z
					 M248.3,173.2c-1.7,1.9-3.6,3.7-5.8,5.5H254C251.8,177,249.9,175.2,248.3,173.2z M254.7,188.9h-4.4v6.1h4.3l-2.6-1.7
					C252.9,191.9,253.8,190.4,254.7,188.9z"/>
			</g>
			<g>
				<path class="st19" d="M204.2,174.8h7.1c0-0.4,0-0.7,0-1.1h-2.3c-0.1,0-0.2-0.1-0.2-0.2v-1.7c0-0.1,0.1-0.2,0.2-0.2h2.8
					c0.3-0.5,0.6-1,1-1.4v-1.1c0-0.1,0.1-0.2,0.2-0.2h1.9c0.6-0.2,1.1-0.3,1.7-0.3c0.2,0,0.4,0,0.6,0v-3.1c0-0.2-0.2-0.4-0.4-0.4
					h-12.7c-0.2,0-0.4,0.2-0.4,0.4v8.9C203.8,174.6,204,174.8,204.2,174.8z M212.9,166.4c0-0.1,0.1-0.2,0.2-0.2h2.9
					c0.1,0,0.2,0.1,0.2,0.2v1.7c0,0.1-0.1,0.2-0.2,0.2h-2.9c-0.1,0-0.2-0.1-0.2-0.2V166.4z M208.9,166.4c0-0.1,0.1-0.2,0.2-0.2h2.9
					c0.1,0,0.2,0.1,0.2,0.2v1.7c0,0.1-0.1,0.2-0.2,0.2h-2.9c-0.1,0-0.2-0.1-0.2-0.2V166.4z M208.9,169.1c0-0.1,0.1-0.2,0.2-0.2h2.9
					c0.1,0,0.2,0.1,0.2,0.2v1.7c0,0.1-0.1,0.2-0.2,0.2h-2.9c-0.1,0-0.2-0.1-0.2-0.2V169.1z M204.8,169.1c0-0.1,0.1-0.2,0.2-0.2h2.9
					c0.1,0,0.2,0.1,0.2,0.2v1.7c0,0.1-0.1,0.2-0.2,0.2H205c-0.1,0-0.2-0.1-0.2-0.2V169.1z M204.8,171.8c0-0.1,0.1-0.2,0.2-0.2h2.9
					c0.1,0,0.2,0.1,0.2,0.2v1.7c0,0.1-0.1,0.2-0.2,0.2H205c-0.1,0-0.2-0.1-0.2-0.2V171.8z"/>
				<path class="st19" d="M215,186.9h6.9c-1.3-1.2-2.5-2.4-3.8-3.8h-12c-1.2,1.4-2.5,2.6-3.8,3.8h6.9v-3h5.8V186.9z"/>
				<path class="st19" d="M215.1,169.5c-2.6,1-3.9,3.9-2.9,6.5c1,2.6,3.9,3.9,6.4,2.9c2.6-1,3.9-3.9,2.9-6.5c-0.8-2-2.7-3.3-4.7-3.2
					C216.2,169.1,215.6,169.2,215.1,169.5z M217.2,171C217.2,171,217.2,171,217.2,171l0,3.1c0,0.1,0,0.2-0.1,0.3c0,0,0,0,0,0
					c0,0,0,0,0,0c0,0,0,0,0,0c0,0,0,0,0,0c0,0,0,0,0,0c-0.1,0.1-0.2,0.1-0.3,0.1h-3.1c-0.2,0-0.4-0.2-0.4-0.4c0-0.2,0.2-0.4,0.4-0.4
					c0,0,0,0,0,0h2.8l0-2.8c0-0.2,0.2-0.4,0.4-0.4l0,0C217,170.6,217.2,170.8,217.2,171z"/>
				<path class="st9" d="M213.1,168.2h2.9c0.1,0,0.2-0.1,0.2-0.2v-1.7c0-0.1-0.1-0.2-0.2-0.2h-2.9c-0.1,0-0.2,0.1-0.2,0.2v1.7
					C212.9,168.2,213,168.2,213.1,168.2z"/>
				<path class="st9" d="M209.1,168.2h2.9c0.1,0,0.2-0.1,0.2-0.2v-1.7c0-0.1-0.1-0.2-0.2-0.2h-2.9c-0.1,0-0.2,0.1-0.2,0.2v1.7
					C208.9,168.2,208.9,168.2,209.1,168.2z"/>
				<path class="st9" d="M216.5,171l0,2.8h-2.8c0,0,0,0,0,0c-0.2,0-0.4,0.2-0.4,0.4c0,0.2,0.2,0.4,0.4,0.4h3.1c0.1,0,0.2,0,0.3-0.1
					c0,0,0,0,0,0c0,0,0,0,0,0c0,0,0,0,0,0c0,0,0,0,0,0c0,0,0,0,0,0c0.1-0.1,0.1-0.2,0.1-0.3l0-3.1c0,0,0,0,0,0
					c0-0.2-0.2-0.4-0.4-0.4l0,0C216.6,170.6,216.5,170.8,216.5,171z"/>
				<path class="st20" d="M209.1,171h2.9c0.1,0,0.2-0.1,0.2-0.2v-1.7c0-0.1-0.1-0.2-0.2-0.2h-2.9c-0.1,0-0.2,0.1-0.2,0.2v1.7
					C208.9,170.9,208.9,171,209.1,171z"/>
				<path class="st20" d="M205,173.7h2.9c0.1,0,0.2-0.1,0.2-0.2v-1.7c0-0.1-0.1-0.2-0.2-0.2H205c-0.1,0-0.2,0.1-0.2,0.2v1.7
					C204.8,173.6,204.9,173.7,205,173.7z"/>
				<path class="st9" d="M205,171h2.9c0.1,0,0.2-0.1,0.2-0.2v-1.7c0-0.1-0.1-0.2-0.2-0.2H205c-0.1,0-0.2,0.1-0.2,0.2v1.7
					C204.8,170.9,204.9,171,205,171z"/>
				<path class="st18" d="M215,191.3h8.7v-2.8c2,1.7,4.1,3.1,6.3,4.3c0.9-1.5,2-3.1,3.1-4.7c-2.9-1.1-5.8-2.7-8.8-5h8.3v-4.5h-7.3
					v-13h6.1v-4.5h-6.1v-3.7h-5.7v3.7h-14.9v-3.7h-5.8v3.7h-6.1v4.5h6.1v13h-7.3v4.5h8.4c-2.4,2-5.4,3.7-8.9,5
					c1.3,1.8,2.3,3.4,3.2,4.7c2.1-1.2,4.2-2.6,6.1-4.1v2.6h8.9v2.6H194v4.5h36.1v-4.5H215V191.3z M221.5,172.4
					c1,2.6-0.3,5.5-2.9,6.5c-2.6,1-5.4-0.3-6.4-2.9c-1-2.6,0.3-5.5,2.9-6.5c0.6-0.2,1.1-0.3,1.7-0.3
					C218.8,169.1,220.7,170.3,221.5,172.4z M203.8,165.5c0-0.2,0.2-0.4,0.4-0.4h12.7c0.2,0,0.4,0.2,0.4,0.4v3.1c-0.2,0-0.4,0-0.6,0
					c-0.6,0-1.2,0.1-1.7,0.3h-1.9c-0.1,0-0.2,0.1-0.2,0.2v1.1c-0.4,0.4-0.7,0.9-1,1.4h-2.8c-0.1,0-0.2,0.1-0.2,0.2v1.7
					c0,0.1,0.1,0.2,0.2,0.2h2.3c0,0.4,0,0.7,0,1.1h-7.1c-0.2,0-0.4-0.2-0.4-0.4V165.5z M209.2,186.9h-6.9c1.3-1.2,2.6-2.4,3.8-3.8
					h12c1.2,1.4,2.5,2.6,3.8,3.8H215v-3h-5.8V186.9z"/>
			</g>
			<g>
				<path class="st9" d="M161.7,216.3h3.5c0.3-1.7,0.5-3.5,0.7-5.3l4.1,0.4l-0.8,5h5.8c-0.2,6.7-1.2,11.8-3.1,15.6l4.1,3.5l-2.9,3.1
					c-1.1-1.2-2.2-2.3-3.4-3.4c-1.5,1.8-3.2,3.3-5.3,4.6c-0.9-1.2-1.8-2.3-2.6-3.3c2-1.1,3.6-2.5,5-4.1c-1.3-1.3-2.7-2.5-4.1-3.7
					c0.7-2.5,1.4-5.4,2-8.7h-2.9V216.3z M166.8,227.6l1.9,1.6c1.1-2.4,1.9-5.5,2.1-9.3h-2.4C167.9,222.6,167.3,225.2,166.8,227.6z
					 M174.9,223.6h6.3v-2.8l4.1-4.6H176v-3.8h14.4v4.2l-5,5.8v1.3h5.5v4h-5.5v7.3c0,0.6-0.1,1.4-0.4,2.2c-0.3,0.8-0.7,1.5-1.4,2
					c-0.7,0.5-1.8,0.8-3.3,0.8c-1.5,0-2.7,0-3.6,0c-0.2-1.4-0.4-2.7-0.7-4c1.6,0.2,2.8,0.2,3.5,0.2c1.2,0,1.8-0.8,1.8-2.5v-6.1h-6.3
					V223.6z"/>
			</g>
			<g>
				<g>
					<path class="st18" d="M228.3,233.2c-1-0.9-1.8-1.4-2.9-1.4c-1.2,0-1.9,0.5-1.9,1.8c0,2.6,7,2.5,7,8c0,2.8-1.4,5-4.2,5.7l0,1.6
						l-2.7,0l0-1.5c-1.6-0.2-3.5-1-4.8-2.3l1.8-3.1c1.4,1.2,2.6,1.7,3.8,1.7c1.5,0,2.1-0.6,2.1-1.9c0-2.8-7-2.9-7-8.1
						c0-2.9,1.5-4.9,4.1-5.5l0-1.6l2.7,0l0,1.5c1.7,0.3,3,1.2,4,2.4L228.3,233.2z"/>
				</g>
				<path class="st9" d="M205.8,225.2h5.2c-0.5,0.8-1.1,1.5-1.7,2.3h3.7v3.6h-7.2v2.4h6.6v3.6h-6.6v6.2c0,2.2-1.2,3.4-3.5,3.7
					c-0.8,0.1-2.2,0.1-4.1,0.1c-0.1-1.3-0.4-2.5-0.8-3.8c-0.4,0.8-0.8,1.5-1.1,2.1c-1.1-0.7-2.3-1.4-3.5-1.9c1.3-2.2,2.2-4.2,3-6.1
					l3.8,1.4c-0.7,1.5-1.3,2.9-1.9,4c0.6,0.1,1.3,0.1,1.9,0.1c0.9,0,1.4-0.5,1.4-1.4v-4.4h-6.9v-3.6h6.9v-2.4h-7.5v-3.6h4
					c-0.4-0.7-0.9-1.5-1.4-2.3h4.7c0.4,0.7,0.9,1.5,1.5,2.3h2.3C205.1,226.8,205.5,226.1,205.8,225.2z"/>
				<path class="st9" d="M212.2,224.3h-18v-3.6h6.9c-0.2-0.9-0.4-1.6-0.6-2.2h2.8v-1h-10v-4.1h10V211h4.9v2.4h6.9V211h4.9v2.4h10
					v4.1h-10v1.6h-4.9v-1.6h-6.9v1.7h-2.7c0.1,0.5,0.2,1,0.3,1.5h6.4V224.3z"/>
				<path class="st9" d="M209.4,237.5c0.5,0.7,1.4,2,2.6,3.9l-3.3,2c-0.9-1.8-1.7-3.2-2.4-4.3L209.4,237.5z"/>
				<path class="st9" d="M218.6,233.1c0,6.1-1.5,10.9-4.4,14.5c-1.3-1-2.7-2-4.2-3c2.5-2.6,3.8-6.1,3.8-10.7v-12.6
					c5.6-0.5,10.2-1.4,13.7-2.4l2.1,4.3c-3.1,0.6-6.7,1.2-11,1.7v4V233.1z"/>
			</g>
			<g>
				<path class="st9" d="M232.5,221.8h8.7c0.7-1.4,1.3-2.8,1.9-4.3l4.6,1.2l-1.7,3.1H261v3.6h-5.2c-0.9,2.6-2.2,4.8-3.8,6.5l8.3,3.1
					l-2.1,3.9l-9.8-4.3c-3.3,1.8-7.9,3.2-13.8,4.2c-0.8-1.6-1.5-2.9-2-3.9c4.5-0.6,8.2-1.3,11-2.4c-2.5-1-4.8-1.9-6.8-2.7
					c1-1.4,1.9-2.9,2.7-4.5h-6.8V221.8z M243.9,211.3l4.7-0.9l1.1,3.1h10.2v6.3h-4.2v-2.7h-17.9v2.6h-4.2v-6.2h11
					C244.4,212.6,244.1,211.9,243.9,211.3z M242.2,228.3l5.5,2c1.5-1.2,2.6-2.8,3.4-4.9H244C243.4,226.4,242.8,227.4,242.2,228.3z"
					/>
			</g>
			<path class="st9" d="M215.4,201.1c-1.1-0.5-2.4-0.1-3,0.7c-0.1,0.1-0.2,0.3-0.2,0.3l0,0c0,0-0.1-0.2-0.2-0.3
				c-0.5-0.9-1.8-1.3-3-0.7c-1.1,0.5-1.5,2-0.9,3.1c0.7,1.4,4.1,3.8,4.1,3.8l0,0c0,0,3.4-2.3,4.1-3.8
				C216.8,203.1,216.5,201.6,215.4,201.1z"/>
		</g>
	</g>
</g>
<g>
	<g id="Figure_2_">
		<g>
			<path class="st0" d="M392.6,644l-97.4,56.1l126.5,73.1c6.6-43.3-0.2-87.1-19.9-126.4C400.1,643.3,395.9,642.1,392.6,644z"/>
		</g>
		<g>
			<path class="st1" d="M317.9,925.2c9.2-5.3,17.9-11.2,26.1-17.7l-126.4-73l-0.1,112c0,3.9,3.3,6.9,7.1,6.7
				C257.3,951.2,289.3,941.7,317.9,925.2z"/>
		</g>
		<g>
			<path class="st2" d="M416.9,796.5c2.1-7.8,3.7-15.6,4.9-23.4l-126.5-73.1l-74.1,42.7c-2.1,1.2-3.3,3.4-3.3,5.8l-0.1,86l126.4,73
				C379.5,879.5,404.9,841,416.9,796.5z"/>
		</g>
		<g>
			<path class="st3" d="M203.1,742.8l-74.4-43.1L2.3,772.6c8,54.2,36.6,101.7,77.6,134.5l126.4-73l0.1-85.6
				C206.4,746.2,205.1,744,203.1,742.8z"/>
		</g>
		<g>
			<path class="st4" d="M31.7,643.6c-3.3-1.9-7.6-0.6-9.3,2.9C7.8,675.7,0,708.2,0,741.2c0,0.1,0,0.3,0,0.4c0,10.5,0.8,20.9,2.3,31
				l126.4-72.9L31.7,643.6z"/>
		</g>
		<g>
			<path class="st5" d="M206.3,834.1l-126.4,73c33.1,26.5,74.4,43.3,119.3,46c3.8,0.2,6.9-2.9,6.9-6.6L206.3,834.1z"/>
		</g>
		<g>
			<path class="st6" d="M387,634.2c3.4-1.9,4.3-6.3,2.2-9.5c-18-27.3-42.3-50.3-70.8-66.8c-9.2-5.4-18.7-9.9-28.4-13.7V690
				L387,634.2z"/>
		</g>
		<g>
			<path class="st7" d="M37.5,633.8l97.3,56.3v-146c-39.5,15.5-74.7,42.7-99.5,80.3C33.1,627.6,34.2,631.9,37.5,633.8z"/>
		</g>
		<g>
			<path class="st8" d="M289.9,690V544.1c-50.9-20.1-106.4-19.1-155.2,0v146l74.1,42.9c2.1,1.2,4.6,1.2,6.7,0L289.9,690z"/>
		</g>
	</g>
	
		<text transform="matrix(1 0 0 1 161.8083 582.6026)" class="st9" style="font-family:'SourceHanSansTW-Bold-B5pc-H'; font-size:21.0516px;"></text>
	
		<text transform="matrix(1 0 0 1 35.6956 799.4354)" class="st9" style="font-family:'SourceHanSansTW-Bold-B5pc-H'; font-size:21.0516px;"></text>
	<rect x="128.7" y="594.2" class="st19" width="172.5" height="57.4"/>
	<text transform="matrix(1 0 0 1 128.657 606.5479)"><tspan x="0" y="0" class="st9" style="font-family:'SourceHanSansTW-Medium-B5pc-H'; font-size:14.0344px; letter-spacing:1;"></tspan><tspan x="0" y="16.8" class="st9" style="font-family:'SourceHanSansTW-Medium-B5pc-H'; font-size:14.0344px; letter-spacing:1;"></tspan><tspan x="30.9" y="16.8" class="st10" style="font-family:'SourceHanSansTW-Medium-B5pc-H'; font-size:14.0344px; letter-spacing:1;"></tspan><tspan x="92.6" y="16.8" class="st9" style="font-family:'SourceHanSansTW-Medium-B5pc-H'; font-size:14.0344px; letter-spacing:1;"></tspan><tspan x="138.9" y="16.8" class="st11" style="font-family:'SourceHanSansTW-Medium-B5pc-H'; font-size:14.0344px; letter-spacing:1;"></tspan><tspan x="0" y="33.7" class="st9" style="font-family:'SourceHanSansTW-Medium-B5pc-H'; font-size:14.0344px; letter-spacing:1;"></tspan></text>
	<rect x="35.7" y="812.5" class="st19" width="155.3" height="72.3"/>
	<text transform="matrix(1 0 0 1 35.697 824.8476)"><tspan x="0" y="0" class="st9" style="font-family:'SourceHanSansTW-Medium-B5pc-H'; font-size:14.0344px; letter-spacing:1;"></tspan><tspan x="141.3" y="0" class="st9" style="font-family:'SourceHanSansTW-Medium-B5pc-H'; font-size:14.0344px; letter-spacing:1;"></tspan><tspan x="0" y="16.8" class="st12" style="font-family:'SourceHanSansTW-Medium-B5pc-H'; font-size:14.0344px; letter-spacing:1;"></tspan><tspan x="62.8" y="16.8" class="st9" style="font-family:'SourceHanSansTW-Medium-B5pc-H'; font-size:14.0344px; letter-spacing:1;"></tspan><tspan x="141.3" y="16.8" class="st9" style="font-family:'SourceHanSansTW-Medium-B5pc-H'; font-size:14.0344px; letter-spacing:1;"></tspan><tspan x="0" y="33.7" class="st9" style="font-family:'SourceHanSansTW-Medium-B5pc-H'; font-size:14.0344px; letter-spacing:1;"></tspan><tspan x="61.8" y="33.7" class="st13" style="font-family:'SourceHanSansTW-Medium-B5pc-H'; font-size:14.0344px; letter-spacing:1;"></tspan><tspan x="108.1" y="33.7" class="st9" style="font-family:'SourceHanSansTW-Medium-B5pc-H'; font-size:14.0344px; letter-spacing:1;"></tspan></text>
	
		<text transform="matrix(1 0 0 1 263.0432 799.4354)" class="st9" style="font-family:'SourceHanSansTW-Bold-B5pc-H'; font-size:21.0516px;"></text>
	<rect x="231.9" y="812.5" class="st19" width="155.3" height="72.3"/>
	<text transform="matrix(1 0 0 1 231.9145 824.8476)"><tspan x="0" y="0" class="st9" style="font-family:'SourceHanSansTW-Medium-B5pc-H'; font-size:14.0344px; letter-spacing:1;"></tspan><tspan x="0" y="16.8" class="st9" style="font-family:'SourceHanSansTW-Medium-B5pc-H'; font-size:14.0344px; letter-spacing:1;"></tspan><tspan x="0" y="33.7" class="st9" style="font-family:'SourceHanSansTW-Medium-B5pc-H'; font-size:14.0344px; letter-spacing:1;"></tspan><tspan x="0" y="50.5" class="st9" style="font-family:'SourceHanSansTW-Medium-B5pc-H'; font-size:14.0344px; letter-spacing:1;"></tspan><tspan x="61.8" y="50.5" class="st14" style="font-family:'SourceHanSansTW-Medium-B5pc-H'; font-size:14.0344px; letter-spacing:1;"></tspan><tspan x="123.5" y="50.5" class="st9" style="font-family:'SourceHanSansTW-Medium-B5pc-H'; font-size:14.0344px; letter-spacing:1;"></tspan></text>
	<g>
		<circle class="st15" cx="211.3" cy="732.7" r="71.8"/>
		<g>
			<circle class="st16" cx="210.2" cy="732.7" r="65.4"/>
		</g>
		<g>
			<g>
				<g>
					<path class="st17" d="M-4897-137.3c-19.8-0.3-38.9,8.9-51.4,24.7c11.3,3.2,22.2,8.8,28.5,19.2c7.2,11,3.7,27.9-8,33.9
						c-10.8,4.7-22.7,2.7-34.2,2.3c4.1,22.3,19,41.9,41,50.6c33.7,13.3,71.6-4.3,84.4-39.1c12.8-34.8-4.1-73.8-37.9-87.1
						C-4881.9-135.7-4889.5-137.2-4897-137.3z M-4897.2-116.9L-4897.2-116.9c2.5,0.1,4.6,2.4,4.6,4.9l0,37.4h36.8
						c2.5,0,4.7,2.3,4.7,4.8c0,2.5-2.2,4.9-4.7,4.9h-40.8c-1.3,0.2-2.8-0.2-3.8-1.1c0,0,0,0,0,0c-0.1-0.1-0.2-0.2-0.3-0.3
						c0,0,0,0,0,0c-0.1-0.1-0.2-0.2-0.3-0.3c0,0,0,0,0,0c-0.8-1-1.2-2.4-1-3.7l0-41.6c0-1.3,0.5-2.6,1.4-3.5
						C-4899.7-116.4-4898.5-116.9-4897.2-116.9z"/>
					<path class="st9" d="M-5133.5-176.7c-1.5,0-3,0.7-4,1.8c-1.1,1.1-1.7,2.6-1.7,4.2l-16.5,85.4c0,1.5,10,3.1,11.1,4.2
						c1.1,1.1,9.6,4.2,11.1,4.2h21.2c1.5,0,3-0.6,4.1-1.7c1.1-1.1,1.7-2.7,1.7-4.2v-87.8c0-1.6-0.6-3.1-1.7-4.2
						c-1.1-1.1-2.5-1.7-4.1-1.7H-5133.5z"/>
					<path class="st9" d="M-4999.7-183.1c-39.4,6.6-66.3,15-99.9,15.9v77.5c21.9,1.2,33.9,18.9,49.9,23.8
						c36.7,6.3,44.2,4.3,77.1,0.1c11.8-1.5,36.5,3.5,43-3.2c4.5-4.6,5.8-10.2,3.8-16.9c-1-3.4-3.1-6-7.5-9.6
						c-9.7-7.9-22.1-11.3-46.8-12.5c-9.2-0.3-25.6-4.1-26.8-13.1c-0.7-7.5,2.8-15.4,8.5-17c8-2.3,24.5-3.4,29.8,0.2
						c7,5.2,10.8,9.8,18.1,11.7c0.9,0.2,1.8,0.5,2.5,0.9c10-9.2,22.5-15.7,35.8-18.1c-14-13.1-36.7-30.2-53.8-36.9
						C-4977.6-183.5-4988.4-185.4-4999.7-183.1z"/>
				</g>
				<g>
					<path class="st9" d="M168.4,727.6h-3.7V716c-0.8,0.9-2.6,2.7-3.5,3.5v-5.3c2.4-2.6,4.7-6.6,6.2-9.7h-5.6v-3.6h7
						c0.3-0.9,0.2-0.5,0.6-1.5l3.9,0c-0.2,0.7-0.2,0.9-0.4,1.5h2.8v3.6h-4.1c-0.8,1.9-2.1,4.9-3.2,6.6V727.6z M169.2,715.7h8.7v-1.5
						l5.1-2.7h-12.1v-3.4h17.8v3.4c-1.8,1.4-5,2.7-6.8,3.9v0.3h6.8v2.8h-6.8v5.2c0,1.2-0.1,2.2-0.6,2.8c-1,1.2-1.7,1-2.8,1.1
						c-1.1,0.1-3.5-0.1-5.8,0v-4c0.9,0.1,1.9,0.1,2.9,0.1c1,0,1.6-0.1,1.9-0.3c0.3-0.2,0.5-0.6,0.5-1.1v-3.9h-8.7V715.7z"/>
				</g>
			</g>
			<g>
				<path class="st18" d="M235.2,724.5h5.9c-0.7-1.1-1.6-2.4-2.7-3.9l3.2-2.2c1,1.2,2,2.6,3,4.1l-2.7,1.9h4.2v-6.1h-8.7v-3.3h8.7
					v-3.1h-5.3v-2.5c-1.3,1-2.8,1.9-4.3,2.9c-0.7-1.2-1.4-2.6-2.3-4.1c5.6-2.7,9.6-5.9,12.2-9.7h5.6l-1.2,1.4
					c2.9,3.4,6.6,5.9,11.3,7.6c-0.9,1.6-1.6,3-2.2,4.2c-1.5-0.8-2.9-1.6-4.2-2.5v2.7h-5.4v3.1h8.7v3.3h-4.1l3.4,2
					c-1,1.5-2,2.8-2.9,4.1h6v3.8h-26V724.5z M248.3,702.6c-1.7,1.9-3.6,3.7-5.8,5.5H254C251.8,706.4,249.9,704.6,248.3,702.6z
					 M254.7,718.3h-4.4v6.1h4.3l-2.6-1.7C252.9,721.3,253.8,719.8,254.7,718.3z"/>
			</g>
			<g>
				<path class="st19" d="M204.2,704.2h7.1c0-0.4,0-0.7,0-1.1h-2.3c-0.1,0-0.2-0.1-0.2-0.2v-1.7c0-0.1,0.1-0.2,0.2-0.2h2.8
					c0.3-0.5,0.6-1,1-1.4v-1.1c0-0.1,0.1-0.2,0.2-0.2h1.9c0.6-0.2,1.1-0.3,1.7-0.3c0.2,0,0.4,0,0.6,0v-3.1c0-0.2-0.2-0.4-0.4-0.4
					h-12.7c-0.2,0-0.4,0.2-0.4,0.4v8.9C203.8,704,204,704.2,204.2,704.2z M212.9,695.8c0-0.1,0.1-0.2,0.2-0.2h2.9
					c0.1,0,0.2,0.1,0.2,0.2v1.7c0,0.1-0.1,0.2-0.2,0.2h-2.9c-0.1,0-0.2-0.1-0.2-0.2V695.8z M208.9,695.8c0-0.1,0.1-0.2,0.2-0.2h2.9
					c0.1,0,0.2,0.1,0.2,0.2v1.7c0,0.1-0.1,0.2-0.2,0.2h-2.9c-0.1,0-0.2-0.1-0.2-0.2V695.8z M208.9,698.5c0-0.1,0.1-0.2,0.2-0.2h2.9
					c0.1,0,0.2,0.1,0.2,0.2v1.7c0,0.1-0.1,0.2-0.2,0.2h-2.9c-0.1,0-0.2-0.1-0.2-0.2V698.5z M204.8,698.5c0-0.1,0.1-0.2,0.2-0.2h2.9
					c0.1,0,0.2,0.1,0.2,0.2v1.7c0,0.1-0.1,0.2-0.2,0.2H205c-0.1,0-0.2-0.1-0.2-0.2V698.5z M204.8,701.2c0-0.1,0.1-0.2,0.2-0.2h2.9
					c0.1,0,0.2,0.1,0.2,0.2v1.7c0,0.1-0.1,0.2-0.2,0.2H205c-0.1,0-0.2-0.1-0.2-0.2V701.2z"/>
				<path class="st19" d="M215,716.3h6.9c-1.3-1.2-2.5-2.4-3.8-3.8h-12c-1.2,1.4-2.5,2.6-3.8,3.8h6.9v-3h5.8V716.3z"/>
				<path class="st19" d="M215.1,698.9c-2.6,1-3.9,3.9-2.9,6.5c1,2.6,3.9,3.9,6.4,2.9c2.6-1,3.9-3.9,2.9-6.5c-0.8-2-2.7-3.3-4.7-3.2
					C216.2,698.5,215.6,698.6,215.1,698.9z M217.2,700.4C217.2,700.4,217.2,700.4,217.2,700.4l0,3.1c0,0.1,0,0.2-0.1,0.3
					c0,0,0,0,0,0c0,0,0,0,0,0c0,0,0,0,0,0c0,0,0,0,0,0c0,0,0,0,0,0c-0.1,0.1-0.2,0.1-0.3,0.1h-3.1c-0.2,0-0.4-0.2-0.4-0.4
					c0-0.2,0.2-0.4,0.4-0.4c0,0,0,0,0,0h2.8l0-2.8c0-0.2,0.2-0.4,0.4-0.4l0,0C217,700.1,217.2,700.2,217.2,700.4z"/>
				<path class="st9" d="M213.1,697.7h2.9c0.1,0,0.2-0.1,0.2-0.2v-1.7c0-0.1-0.1-0.2-0.2-0.2h-2.9c-0.1,0-0.2,0.1-0.2,0.2v1.7
					C212.9,697.6,213,697.7,213.1,697.7z"/>
				<path class="st9" d="M209.1,697.7h2.9c0.1,0,0.2-0.1,0.2-0.2v-1.7c0-0.1-0.1-0.2-0.2-0.2h-2.9c-0.1,0-0.2,0.1-0.2,0.2v1.7
					C208.9,697.6,208.9,697.7,209.1,697.7z"/>
				<path class="st9" d="M216.5,700.4l0,2.8h-2.8c0,0,0,0,0,0c-0.2,0-0.4,0.2-0.4,0.4c0,0.2,0.2,0.4,0.4,0.4h3.1
					c0.1,0,0.2,0,0.3-0.1c0,0,0,0,0,0c0,0,0,0,0,0c0,0,0,0,0,0c0,0,0,0,0,0c0,0,0,0,0,0c0.1-0.1,0.1-0.2,0.1-0.3l0-3.1c0,0,0,0,0,0
					c0-0.2-0.2-0.4-0.4-0.4l0,0C216.6,700.1,216.5,700.2,216.5,700.4z"/>
				<path class="st20" d="M209.1,700.4h2.9c0.1,0,0.2-0.1,0.2-0.2v-1.7c0-0.1-0.1-0.2-0.2-0.2h-2.9c-0.1,0-0.2,0.1-0.2,0.2v1.7
					C208.9,700.3,208.9,700.4,209.1,700.4z"/>
				<path class="st20" d="M205,703.1h2.9c0.1,0,0.2-0.1,0.2-0.2v-1.7c0-0.1-0.1-0.2-0.2-0.2H205c-0.1,0-0.2,0.1-0.2,0.2v1.7
					C204.8,703,204.9,703.1,205,703.1z"/>
				<path class="st9" d="M205,700.4h2.9c0.1,0,0.2-0.1,0.2-0.2v-1.7c0-0.1-0.1-0.2-0.2-0.2H205c-0.1,0-0.2,0.1-0.2,0.2v1.7
					C204.8,700.3,204.9,700.4,205,700.4z"/>
				<path class="st18" d="M215,720.7h8.7v-2.8c2,1.7,4.1,3.1,6.3,4.3c0.9-1.5,2-3.1,3.1-4.7c-2.9-1.1-5.8-2.7-8.8-5h8.3V708h-7.3
					v-13h6.1v-4.5h-6.1v-3.7h-5.7v3.7h-14.9v-3.7h-5.8v3.7h-6.1v4.5h6.1v13h-7.3v4.5h8.4c-2.4,2-5.4,3.7-8.9,5
					c1.3,1.8,2.3,3.4,3.2,4.7c2.1-1.2,4.2-2.6,6.1-4.1v2.6h8.9v2.6H194v4.5h36.1v-4.5H215V720.7z M221.5,701.8
					c1,2.6-0.3,5.5-2.9,6.5c-2.6,1-5.4-0.3-6.4-2.9c-1-2.6,0.3-5.5,2.9-6.5c0.6-0.2,1.1-0.3,1.7-0.3
					C218.8,698.5,220.7,699.7,221.5,701.8z M203.8,694.9c0-0.2,0.2-0.4,0.4-0.4h12.7c0.2,0,0.4,0.2,0.4,0.4v3.1c-0.2,0-0.4,0-0.6,0
					c-0.6,0-1.2,0.1-1.7,0.3h-1.9c-0.1,0-0.2,0.1-0.2,0.2v1.1c-0.4,0.4-0.7,0.9-1,1.4h-2.8c-0.1,0-0.2,0.1-0.2,0.2v1.7
					c0,0.1,0.1,0.2,0.2,0.2h2.3c0,0.4,0,0.7,0,1.1h-7.1c-0.2,0-0.4-0.2-0.4-0.4V694.9z M209.2,716.3h-6.9c1.3-1.2,2.6-2.4,3.8-3.8
					h12c1.2,1.4,2.5,2.6,3.8,3.8H215v-3h-5.8V716.3z"/>
			</g>
			<g>
				<path class="st9" d="M161.7,745.7h3.5c0.3-1.7,0.5-3.5,0.7-5.3l4.1,0.4l-0.8,5h5.8c-0.2,6.7-1.2,11.8-3.1,15.6l4.1,3.5l-2.9,3.1
					c-1.1-1.2-2.2-2.3-3.4-3.4c-1.5,1.8-3.2,3.3-5.3,4.6c-0.9-1.2-1.8-2.3-2.6-3.3c2-1.1,3.6-2.5,5-4.1c-1.3-1.3-2.7-2.5-4.1-3.7
					c0.7-2.5,1.4-5.4,2-8.7h-2.9V745.7z M166.8,757l1.9,1.6c1.1-2.4,1.9-5.5,2.1-9.3h-2.4C167.9,752,167.3,754.6,166.8,757z
					 M174.9,753h6.3v-2.8l4.1-4.6H176v-3.8h14.4v4.2l-5,5.8v1.3h5.5v4h-5.5v7.3c0,0.6-0.1,1.4-0.4,2.2c-0.3,0.8-0.7,1.5-1.4,2
					c-0.7,0.5-1.8,0.8-3.3,0.8c-1.5,0-2.7,0-3.6,0c-0.2-1.4-0.4-2.7-0.7-4c1.6,0.2,2.8,0.2,3.5,0.2c1.2,0,1.8-0.8,1.8-2.5V757h-6.3
					V753z"/>
			</g>
			<g>
				<g>
					<path class="st18" d="M228.3,762.6c-1-0.9-1.8-1.4-2.9-1.4c-1.2,0-1.9,0.5-1.9,1.8c0,2.6,7,2.5,7,8c0,2.8-1.4,5-4.2,5.7l0,1.6
						l-2.7,0l0-1.5c-1.6-0.2-3.5-1-4.8-2.3l1.8-3.1c1.4,1.2,2.6,1.7,3.8,1.7c1.5,0,2.1-0.6,2.1-1.9c0-2.8-7-2.9-7-8.1
						c0-2.9,1.5-4.9,4.1-5.5l0-1.6l2.7,0l0,1.5c1.7,0.3,3,1.2,4,2.4L228.3,762.6z"/>
				</g>
				<path class="st9" d="M205.8,754.7h5.2c-0.5,0.8-1.1,1.5-1.7,2.3h3.7v3.6h-7.2v2.4h6.6v3.6h-6.6v6.2c0,2.2-1.2,3.4-3.5,3.7
					c-0.8,0.1-2.2,0.1-4.1,0.1c-0.1-1.3-0.4-2.5-0.8-3.8c-0.4,0.8-0.8,1.5-1.1,2.1c-1.1-0.7-2.3-1.4-3.5-1.9c1.3-2.2,2.2-4.2,3-6.1
					l3.8,1.4c-0.7,1.5-1.3,2.9-1.9,4c0.6,0.1,1.3,0.1,1.9,0.1c0.9,0,1.4-0.5,1.4-1.4v-4.4h-6.9V763h6.9v-2.4h-7.5V757h4
					c-0.4-0.7-0.9-1.5-1.4-2.3h4.7c0.4,0.7,0.9,1.5,1.5,2.3h2.3C205.1,756.2,205.5,755.5,205.8,754.7z"/>
				<path class="st9" d="M212.2,753.7h-18v-3.6h6.9c-0.2-0.9-0.4-1.6-0.6-2.2h2.8v-1h-10v-4.1h10v-2.4h4.9v2.4h6.9v-2.4h4.9v2.4h10
					v4.1h-10v1.6h-4.9v-1.6h-6.9v1.7h-2.7c0.1,0.5,0.2,1,0.3,1.5h6.4V753.7z"/>
				<path class="st9" d="M209.4,766.9c0.5,0.7,1.4,2,2.6,3.9l-3.3,2c-0.9-1.8-1.7-3.2-2.4-4.3L209.4,766.9z"/>
				<path class="st9" d="M218.6,762.5c0,6.1-1.5,10.9-4.4,14.5c-1.3-1-2.7-2-4.2-3c2.5-2.6,3.8-6.1,3.8-10.7v-12.6
					c5.6-0.5,10.2-1.4,13.7-2.4l2.1,4.3c-3.1,0.6-6.7,1.2-11,1.7v4V762.5z"/>
			</g>
			<g>
				<path class="st9" d="M232.5,751.2h8.7c0.7-1.4,1.3-2.8,1.9-4.3l4.6,1.2l-1.7,3.1H261v3.6h-5.2c-0.9,2.6-2.2,4.8-3.8,6.5l8.3,3.1
					l-2.1,3.9l-9.8-4.3c-3.3,1.8-7.9,3.2-13.8,4.2c-0.8-1.6-1.5-2.9-2-3.9c4.5-0.6,8.2-1.3,11-2.4c-2.5-1-4.8-1.9-6.8-2.7
					c1-1.4,1.9-2.9,2.7-4.5h-6.8V751.2z M243.9,740.7l4.7-0.9l1.1,3.1h10.2v6.3h-4.2v-2.7h-17.9v2.6h-4.2v-6.2h11
					C244.4,742,244.1,741.3,243.9,740.7z M242.2,757.7l5.5,2c1.5-1.2,2.6-2.8,3.4-4.9H244C243.4,755.9,242.8,756.8,242.2,757.7z"/>
			</g>
			<path class="st9" d="M215.4,730.5c-1.1-0.5-2.4-0.1-3,0.7c-0.1,0.1-0.2,0.3-0.2,0.3l0,0c0,0-0.1-0.2-0.2-0.3
				c-0.5-0.9-1.8-1.3-3-0.7c-1.1,0.5-1.5,2-0.9,3.1c0.7,1.4,4.1,3.8,4.1,3.8l0,0c0,0,3.4-2.3,4.1-3.8
				C216.8,732.5,216.5,731,215.4,730.5z"/>
		</g>
	</g>
</g>
</svg>
