<?xml version="1.0" encoding="utf-8"?>
<!-- Generator: Adobe Illustrator 24.1.3, SVG Export Plug-In . SVG Version: 6.00 Build 0)  -->
<svg version="1.1" id="圖層_1" xmlns="http://www.w3.org/2000/svg" xmlns:xlink="http://www.w3.org/1999/xlink" x="0px" y="0px"
	 viewBox="0 0 437.5 436.6" style="enable-background:new 0 0 437.5 436.6;" xml:space="preserve">
<style type="text/css">
	.st0{fill:#527BFF;}
	.st1{fill:#2EB9FF;}
	.st2{fill:#848CAF;}
	.st3{fill:#FFFFFF;}
</style>
<g>
	<g>
		<g>
			<g>
				<g>
					<path class="st0" d="M219.2,218.1l-185-115.6C75.1,37.1,142.1,0,219.2,0V218.1z"/>
				</g>
			</g>
			<g>
				<g>
					<path class="st1" d="M219.2,218.1L395.6,89.9c70.8,97.4,49.2,233.8-48.2,304.6s-233.8,49.2-304.6-48.2
						c-53.8-74.1-57-166.1-8.5-243.8L219.2,218.1z"/>
				</g>
			</g>
			<g>
				<g>
					<path class="st2" d="M219.2,218.1V0c72.3,0,134,31.4,176.4,89.9L219.2,218.1z"/>
				</g>
			</g>
		</g>
		<g>
			<g>
			</g>
			<g>
			</g>
			<g>
			</g>
		</g>
	</g>
	<g>
		<path class="st3" d="M258.3,91.2c0,0-0.1,1.1-0.2,1.7c-0.6,4.5-1.3,6.8-2.3,7.7c-0.8,0.8-1.8,1.1-2.9,1.2c-1,0.1-2.9,0.1-4.8,0
			c-0.1-1.1-0.5-2.6-1.2-3.6c1.7,0.1,3.3,0.2,4,0.1c0.6,0,1,0,1.4-0.3c0.4-0.4,0.8-1.4,1.2-3.3h-9.1c-1.8,3.6-5.6,6-14.3,7.2
			c-0.3-1-1.2-2.6-1.9-3.5c6.2-0.8,9.4-1.9,11.2-3.7H230v-3.4h11.2c0.1-0.5,0.3-1,0.4-1.6h4.3c-0.1,0.6-0.2,1.1-0.3,1.6H258.3z
			 M238.2,73.3c1.9,0.2,4.1,0.5,6.3,0.9c1.2-0.4,2.5-0.9,3.7-1.5h-17.5v-3h22.7l0.9-0.2l2.6,2.3c-2.1,1.2-4.6,2.4-7.2,3.5
			c0.8,0.2,1.5,0.4,2.1,0.6l-0.9,1.1h6.5v10.2c0,1.7-0.5,2.4-1.8,2.8c-1.3,0.4-3.2,0.4-5.9,0.4c-0.2-0.8-0.7-1.9-1.1-2.6
			c1.6,0.1,3.6,0.1,4.1,0c0.5,0,0.7-0.2,0.7-0.6v-0.5H246v2.2h-3.9v-2.2h-6.8v3.5h-3.9V77h12.7c-2.6-0.6-5.4-1.1-7.8-1.4L238.2,73.3
			z M235.3,79.6v1.3h6.8v-1.3H235.3z M242.1,84.5v-1.3h-6.8v1.3H242.1z M253.4,79.6H246v1.3h7.3V79.6z M253.4,84.5v-1.3H246v1.3
			H253.4z"/>
		<path class="st3" d="M294.7,78.8c-0.8,5.4-2,9.9-4,13.7c1.7,2.4,3.9,4.4,6.6,5.7c-1,0.9-2.3,2.6-3,3.8c-2.6-1.4-4.6-3.3-6.3-5.5
			c-1.9,2.3-4.3,4.1-7.2,5.7c-0.4-1-1.7-2.9-2.4-3.9v3.7h-4v-5.1c-3.8,0.6-7.6,1.2-10.7,1.6l-0.6-4.1l2.4-0.3V79.5h-2.2v-3.7h6.6
			v-2.6h-5.5v-3.7h15.2v3.7H274v2.6h6.6v3.7h-2.2v4.1c2.8-3.6,4.5-9.3,5.3-15.3l4.4,0.6c-0.3,2-0.8,4-1.3,5.9H297v4H294.7z
			 M269.5,79.5v2.2h4.9v-2.2H269.5z M269.5,87.3h4.9v-2.2h-4.9V87.3z M274.4,92.8v-2h-4.9v2.6L274.4,92.8z M278.4,98.1
			c3.1-1.4,5.4-3.3,7.2-5.7c-1.1-2.2-2-4.7-2.7-7.4c-0.4,0.7-0.8,1.3-1.3,1.9c-0.6-0.8-2.2-2.2-3.2-2.9V98.1z M285.7,78.8l-0.1,0.3
			c0.6,3.1,1.4,6.1,2.5,8.7c1-2.6,1.7-5.6,2.2-9H285.7z"/>
		<path class="st3" d="M316.3,74.7c0,0,0,1.4,0,1.9c-0.3,15.3-0.6,20.8-1.7,22.5c-0.8,1.2-1.6,1.6-2.8,1.8c-1,0.2-2.7,0.2-4.4,0.1
			c-0.1-1.2-0.5-3.1-1.2-4.3c1.4,0.1,2.7,0.1,3.4,0.1c0.5,0,0.9-0.1,1.2-0.6c0.7-1,1-5.4,1.2-17.5h-3.6c-0.4,9.6-1.6,17.7-6.3,23
			c-0.6-1-2.1-2.5-3.1-3.1c4-4.6,5-11.4,5.3-19.9h-4.2v-4.2h4.2c0-1.9,0-3.9,0-5.9h4.2c0,2,0,4,0,5.9H316.3z M331.3,72.4v28.5H327
			v-2.2h-4.6v2.5h-4.1V72.4H331.3z M327,94.5v-18h-4.6v18H327z"/>
		<path class="st3" d="M341.7,97.5v2.8H338V91c-0.3,0.5-0.6,1-0.9,1.4c-0.4-1-1.5-3.1-2.3-4.1c2.5-3.6,3.9-9,4.6-14.9h-3.7v-3.9
			h13.6v3.9h-5.9c-0.4,2.6-0.8,5.1-1.4,7.6h6.3v16.5H341.7z M344.5,84.7h-2.8v9.1h2.8V84.7z M347.5,98.6c1.4-1.8,2.1-4.9,2.4-7.8
			l3.1,0.8c-0.3,3.2-0.9,6.6-2.6,8.6L347.5,98.6z M368.5,86.1c0,0,0,1-0.1,1.5c-0.3,8.3-0.7,11.6-1.7,12.8c-0.7,0.9-1.5,1.2-2.5,1.3
			c-0.9,0.1-2.4,0.1-3.9,0.1c-0.1-1.1-0.5-2.7-1.1-3.7c1.3,0.1,2.4,0.2,3,0.2c0.5,0,0.8-0.1,1.1-0.5c0.3-0.3,0.5-1.2,0.7-2.9
			l-1.5,0.6c-0.3-1.2-1.1-2.9-1.9-4.2l2.1-0.9c0.5,0.8,1,1.7,1.4,2.6c0.1-1,0.1-2.1,0.2-3.3h-14.1V69.6h17.4v3.7h-6.2v2h5.1v3.3
			h-5.1v2.1h5.1V84h-5.1v2.2H368.5z M356.2,92c0.4,2.1,0.7,4.8,0.6,6.5l-3,0.5c0.1-1.8-0.1-4.5-0.5-6.6L356.2,92z M354.3,73.2v2h3.5
			v-2H354.3z M357.8,78.6h-3.5v2.1h3.5V78.6z M354.3,86.1h3.5V84h-3.5V86.1z M359.8,91.4c0.7,1.7,1.3,3.9,1.4,5.4l-2.7,0.8
			c-0.1-1.4-0.7-3.7-1.3-5.4L359.8,91.4z"/>
		<path class="st3" d="M229.1,137.7h5.7v-16.2H230v-3.3c2.7-0.5,4.5-1.2,6.2-2.2h3.9v21.7h5v4.3h-16V137.7z"/>
		<path class="st3" d="M248.3,138.8l2.4-3.4c1.5,1.5,3.4,2.7,5.9,2.7c2.8,0,4.7-1.6,4.7-4.5c0-2.9-1.8-4.5-4.5-4.5
			c-1.6,0-2.4,0.4-4,1.4l-2.4-1.5l0.7-13h14.3v4.4h-9.7l-0.5,5.7c1.1-0.5,2-0.7,3.2-0.7c4.5,0,8.2,2.5,8.2,8.1c0,5.7-4.4,9-9.3,9
			C253.1,142.5,250.3,140.8,248.3,138.8z"/>
		<path class="st3" d="M269.7,123.2c0-5.3,2.7-8.4,6.5-8.4c3.8,0,6.5,3.1,6.5,8.4c0,5.4-2.7,8.5-6.5,8.5
			C272.4,131.7,269.7,128.6,269.7,123.2z M279,123.2c0-3.9-1.2-5.4-2.8-5.4s-2.7,1.5-2.7,5.4c0,3.9,1.2,5.5,2.7,5.5
			S279,127.1,279,123.2z M291.6,114.8h3.1l-14.5,27.6h-3.1L291.6,114.8z M289.1,134c0-5.4,2.7-8.4,6.5-8.4c3.8,0,6.5,3.1,6.5,8.4
			c0,5.3-2.7,8.5-6.5,8.5C291.8,142.5,289.1,139.3,289.1,134z M298.3,134c0-3.9-1.2-5.4-2.8-5.4s-2.7,1.5-2.7,5.4
			c0,3.9,1.2,5.5,2.7,5.5S298.3,137.9,298.3,134z"/>
	</g>
	<g>
		<path class="st3" d="M171.3,272.6c-1,2.5-2.2,5-3.6,7.5v24.7h-4.1v-18.5c-0.8,1-1.7,2-2.5,2.9c-0.4-1-1.6-3.3-2.3-4.4
			c3.3-3.2,6.6-8.4,8.5-13.5L171.3,272.6z M177.6,294.5c-1.5,3.1-3.7,6.6-5.5,8.8c-0.8-0.6-2.3-1.8-3.3-2.3c1.8-2,3.7-5,5-7.6
			L177.6,294.5z M183.4,292.2v12.6h-4.3v-12.6h-9.4v-3.9h9.4v-3.2H172v-12.4h18.9v12.4h-7.5v3.2h9.3v3.9H183.4z M176.1,281.4h10.5
			v-4.8h-10.5V281.4z M187.8,293.3c2.1,2.4,4.2,5.5,5.3,7.6l-3.4,2.1c-1-2.1-3.2-5.4-5.1-7.9L187.8,293.3z"/>
		<path class="st3" d="M206.9,290.4c-1.1,0.3-2.2,0.6-3.3,1v8.5c0,2-0.3,3-1.4,3.7c-1,0.7-2.6,0.9-4.9,0.8c-0.1-1-0.6-2.8-1.1-3.9
			c1.3,0,2.6,0,3,0c0.4,0,0.6-0.1,0.6-0.6v-7.4l-3.8,1.1l-0.9-4.1c1.3-0.3,3-0.7,4.8-1.2V282h-4.2v-4h4.2v-6.8h3.9v6.8h3v4h-3v5.3
			l2.7-0.8L206.9,290.4z M229,275.4v3.9h-8.8v2.8h7.2v3.9h-18.4v-3.9h7.1v-2.8h-9v-3.9h9v-4h4.1v4H229z M224.8,289.1h4v3.9h-4v7.4
			c0,2.1-0.4,3.2-1.8,3.8c-1.3,0.6-3.2,0.6-5.8,0.6c-0.2-1.2-0.7-2.8-1.2-4c1.6,0.1,3.5,0.1,4,0c0.6,0,0.7-0.1,0.7-0.6V293h-13.2
			v-3.9h13.2v-2.4h4.1V289.1z M212.8,293.3c1.4,1.8,3.2,4.4,4,6l-3.6,2.1c-0.8-1.7-2.5-4.4-3.8-6.3L212.8,293.3z"/>
		<path class="st3" d="M261.2,301.1c0.5,0,0.6-0.4,0.7-4.5c0.6,0.6,2.1,1.1,3,1.4c-0.3,5.2-1.1,6.5-3.2,6.5H260
			c-2.6,0-3.1-1.1-3.1-4.3v-7.1h-1.5c-0.4,5.1-1.7,9.2-6.2,11.8c-0.3-0.5-0.7-1.2-1.2-1.8v0.2h-10.8v1.5h-3v-11.2
			c-0.4,0.6-0.9,1.2-1.3,1.7c-0.3-0.6-1.2-2.2-1.7-3c1.6-1.8,3.3-4.4,4.3-7.1h-2.9v-6.8h7v6.8h-2.9l1.7,0.6
			c-0.3,0.6-0.5,1.2-0.8,1.8h3.1c-0.2-0.5-0.5-1.1-0.8-1.6l2.2-0.9h-1.1v-6.8h6.9v6.8h-5.3c0.5,0.8,0.9,1.7,1.2,2.4h4.5v2.8h-4.5
			v1.4h3.8v2.7h-3.8v1.5h4v2.7h-4v1.6h4.3v0.6c2.7-1.9,3.5-4.6,3.8-7.9h-2.4v-20.7h13.8v20.7h-3.1v7c0,0.9,0,1,0.4,1H261.2z
			 M235.9,276.1h-4.5v-3h4.5v-1.8h3.3v6.7h-3.3V276.1z M234.9,283.3h2.2v-2.6h-2.2V283.3z M240.4,290.7h-3.2v1.4h3.2V290.7z
			 M240.4,294.7h-3.2v1.5h3.2V294.7z M237.2,300.5h3.2v-1.6h-3.2V300.5z M244.8,278h-3.4v-6.7h3.4v1.8h4v3h-4V278z M243.3,283.2h2.2
			v-2.4h-2.2V283.2z M253,278.4h6.4v-2.1H253V278.4z M253,283.9h6.4v-2.1H253V283.9z M253,289.4h6.4v-2.2H253V289.4z"/>
		<path class="st3" d="M270.3,278.3h-2.7v-3.6h6.9c-0.3-0.9-0.7-1.7-1-2.4l3.8-1.1c0.6,1.1,1.2,2.4,1.5,3.5h4.9v3
			c2.2-1.9,3.7-4.2,4.6-6.3l4.1,0.7c-0.3,0.6-0.5,1.1-0.8,1.7h6.3l0.8-0.1l2.6,0.9c-2.2,9.1-7.7,13.1-15.8,15.1
			c-0.4-1-1.3-2.4-2-3.2c1.7-0.3,3.3-0.8,4.8-1.4c-0.8-1-1.9-2.2-3-3.3c-0.4,0.3-0.7,0.6-1.1,0.8c-0.6-0.9-2-2.2-2.9-2.7
			c0.6-0.5,1.3-0.9,1.9-1.4h-8.8v5.1c0,1.1,0.1,1.5,1,1.5h4.6c0.8,0,2.2-0.1,2.9-0.3c0.1,1,0.2,2.6,0.4,3.5c-0.7,0.3-2,0.3-3.1,0.3
			h-4.7c-4,0-5-1.4-5-5.1V278.3z M286.3,300.7h13.9v3.5h-32v-3.5h13.8v-1.9h-11.8v-3.4h11.8v-1.9c-3.7,0.2-7.4,0.3-10.9,0.3
			c-0.1-1-0.5-2.5-0.9-3.4c9.1-0.2,19.7-0.8,26.4-2l1.8,3.5c-3.5,0.6-7.6,1.1-12,1.4v2.2h12.2v3.4h-12.2V300.7z M290.9,283.4
			c0.6-0.4,1.1-0.8,1.6-1.2c-1.2-1.1-2.8-2.4-4.4-3.5c-0.3,0.3-0.5,0.6-0.9,0.9C288.5,280.8,289.9,282.2,290.9,283.4z M290.4,276.9
			c1.4,1,2.9,2,4.1,3c0.6-0.9,1.2-1.9,1.6-3H290.4z"/>
		<path class="st3" d="M159.9,332.7c0-9.9,4.9-14.2,10.3-14.2c3.2,0,5.6,1.4,7.2,3l-2.8,3.2c-0.9-1-2.6-1.9-4.1-1.9
			c-3.1,0-5.6,2.3-5.8,9c1.5-1.8,3.7-2.9,5.5-2.9c4.5,0,7.7,2.6,7.7,8c0,5.3-3.8,8.6-8.4,8.6C164.4,345.5,159.9,341.6,159.9,332.7z
			 M164.9,335.4c0.5,4.4,2.3,6,4.5,6c2,0,3.6-1.5,3.6-4.6c0-2.9-1.5-4.2-3.8-4.2C167.8,332.6,166.2,333.3,164.9,335.4z"/>
		<path class="st3" d="M181.2,342.4l2.8-3.2c0.9,1.1,2.6,1.9,4.1,1.9c3.1,0,5.6-2.2,5.8-8.9c-1.5,1.8-3.7,2.9-5.5,2.9
			c-4.5,0-7.7-2.6-7.7-8c0-5.3,3.8-8.6,8.4-8.6c5,0,9.6,3.9,9.6,12.8c0,9.9-4.9,14.2-10.3,14.2C185.2,345.5,182.8,344,181.2,342.4z
			 M189.5,331.3c1.4,0,3.1-0.8,4.3-2.8c-0.5-4.4-2.3-6-4.5-6c-2,0-3.6,1.5-3.6,4.6C185.7,330,187.1,331.3,189.5,331.3z"/>
		<path class="st3" d="M201.7,326.2c0-5.3,2.7-8.4,6.5-8.4c3.8,0,6.5,3.1,6.5,8.4c0,5.4-2.7,8.5-6.5,8.5
			C204.4,334.7,201.7,331.6,201.7,326.2z M211,326.2c0-3.9-1.2-5.4-2.8-5.4s-2.7,1.5-2.7,5.4c0,3.9,1.2,5.5,2.7,5.5
			S211,330.1,211,326.2z M223.6,317.8h3.1l-14.5,27.6h-3.1L223.6,317.8z M221.1,337c0-5.4,2.7-8.4,6.5-8.4c3.8,0,6.5,3.1,6.5,8.4
			c0,5.3-2.7,8.5-6.5,8.5C223.8,345.5,221.1,342.3,221.1,337z M230.3,337c0-3.9-1.2-5.4-2.8-5.4s-2.7,1.5-2.7,5.4
			c0,3.9,1.2,5.5,2.7,5.5S230.3,340.9,230.3,337z"/>
	</g>
	<g>
		<path class="st3" d="M111.2,75.3c1.1,0,1.3-0.7,1.4-4.9c0.9,0.7,2.7,1.4,3.9,1.7c-0.4,5.7-1.6,7.2-4.9,7.2h-4.2c-4,0-5-1.3-5-5.4
			v-8.7h-5.3c-0.8,6.4-2.6,11.8-10.9,14.9c-0.5-1.2-1.7-2.9-2.7-3.8c7.2-2.3,8.5-6.4,9.1-11.1h-8.5v-4.1H98v-5.8h-6.2
			C91,57.1,90,58.8,89,60.1c-1-0.6-2.8-1.5-3.8-1.9c2.3-3,4-7.8,4.8-11.5l4.4,0.9c-0.3,1.1-0.7,2.3-1.1,3.5H98v-4.9h4.4v4.9h11.1
			v4.1h-11.1v5.8h13.9v4.1h-9.4v8.7c0,1.2,0.2,1.4,1.3,1.4H111.2z"/>
		<path class="st3" d="M130.2,64c-0.5,3.1-1.2,5.7-2.2,7.9c2.2,3.2,6.1,3.6,11.6,3.7c3.9,0,9.7-0.2,13.8-0.6c-0.6,0.9-1.1,2.8-1.3,4
			c-3.7,0.3-8.3,0.3-12.5,0.3c-6.4,0-10.5-0.7-13.2-4.1c-1.4,2.1-3,3.6-4.8,4.8c-0.5-0.8-1.9-2.3-2.7-2.9c3.5-2,5.9-5.5,7.2-10.4
			h-3.1c-0.9,0-1.9,0.3-2.2,0.5c-0.3-0.9-1-2.8-1.4-3.6c0.6-0.2,1.2-0.4,1.9-1.2c0.7-0.6,2.2-2.5,3.5-4.4h-4.8v-3.4h7.4l0.7-0.3
			l2.8,1.2c-1.4,2-3.8,5.3-5.8,7.7h2.6l0.6-0.1L130.2,64z M125.7,54c-1-1.5-3-4.1-4.7-5.8l3.2-2c1.7,1.7,3.7,4,4.8,5.4L125.7,54z
			 M148.5,74.1c-1.4-1.8-3.8-4.2-6.3-6.4c0,1.1,0.1,2.7,0.3,3.5c-7.7,2-9,2.5-9.9,3.1c-0.2-0.9-0.9-2.4-1.5-3
			c0.6-0.4,1.4-1.1,1.4-2.7v-21h16.4v14l0.3-0.3l3.2,2.7c-1.7,1.2-3.6,2.3-5.3,3.2c1.8,1.5,3.5,3.1,4.5,4.3L148.5,74.1z M136.5,51
			v2.1h8.4V51H136.5z M144.9,58.3v-2.1h-8.4v2.1H144.9z M140.9,62.3c1.2,0.8,2.4,1.8,3.6,2.7c1.4-0.9,3.1-2.2,4.2-3.2h-12.3V69
			l5.7-1.3c-1.4-1.2-2.8-2.3-4.1-3.3L140.9,62.3z"/>
		<path class="st3" d="M174.6,64.3c-0.3,0.6-0.6,1.2-1,1.7h14.6c0,0,0,1-0.1,1.5c-0.5,7-1.1,9.9-2.1,10.9c-0.7,0.8-1.5,1.1-2.4,1.2
			c-0.8,0.1-2.2,0.1-3.6,0.1c-0.1-1-0.4-2.4-1-3.3c1.2,0.1,2.1,0.1,2.6,0.1c0.5,0,0.8-0.1,1.1-0.4c0.5-0.5,0.9-2.4,1.3-6.7h-1.4
			c-1.5,4-4.3,8.4-7.2,10.7c-0.7-0.8-1.9-1.8-3-2.4c2.7-1.7,5.1-4.9,6.7-8.3H177c-1.9,3.5-5.3,7.1-8.4,9c-0.7-0.8-1.8-1.9-2.8-2.5
			c2.7-1.3,5.4-3.9,7.3-6.5H171c-1.3,1.4-2.7,2.6-4.2,3.5c-0.5-0.7-1.9-1.9-2.8-2.5c-2.6,1.3-5.2,2.6-7.4,3.7l-1.6-4.3
			c1.2-0.5,2.7-1.1,4.4-1.8V57.8h-3.6v-4h3.6v-7.1h4v7.1h3.4v4h-3.4v8.5l2.9-1.3l0.8,3.1c1.3-1.1,2.4-2.4,3.3-3.8h-4.1v-3.6H189v3.6
			H174.6z M186.5,59.3h-17V47.2h17V59.3z M182.5,50.1h-9.3v1.7h9.3V50.1z M182.5,54.6h-9.3v1.7h9.3V54.6z"/>
		<path class="st3" d="M85.1,115.7h5.7V99.5H86v-3.3c2.7-0.5,4.5-1.2,6.2-2.2h3.9v21.7h5v4.3h-16V115.7z"/>
		<path class="st3" d="M105.1,107.7c0-9.9,4.9-14.2,10.3-14.2c3.2,0,5.6,1.4,7.2,3l-2.8,3.2c-0.9-1-2.6-1.9-4.1-1.9
			c-3.1,0-5.6,2.3-5.8,9c1.5-1.8,3.7-2.9,5.5-2.9c4.5,0,7.7,2.6,7.7,8c0,5.3-3.8,8.6-8.4,8.6C109.7,120.5,105.1,116.6,105.1,107.7z
			 M110.1,110.4c0.5,4.4,2.3,6,4.5,6c2,0,3.6-1.5,3.6-4.6c0-2.9-1.5-4.2-3.8-4.2C113,107.6,111.4,108.3,110.1,110.4z"/>
		<path class="st3" d="M125.7,101.2c0-5.3,2.7-8.4,6.5-8.4c3.8,0,6.5,3.1,6.5,8.4c0,5.4-2.7,8.5-6.5,8.5
			C128.4,109.7,125.7,106.6,125.7,101.2z M135,101.2c0-3.9-1.2-5.4-2.8-5.4s-2.7,1.5-2.7,5.4c0,3.9,1.2,5.5,2.7,5.5
			S135,105.1,135,101.2z M147.6,92.8h3.1l-14.5,27.6h-3.1L147.6,92.8z M145.1,112c0-5.4,2.7-8.4,6.5-8.4c3.8,0,6.5,3.1,6.5,8.4
			c0,5.3-2.7,8.5-6.5,8.5C147.8,120.5,145.1,117.3,145.1,112z M154.3,112c0-3.9-1.2-5.4-2.8-5.4s-2.7,1.5-2.7,5.4
			c0,3.9,1.2,5.5,2.7,5.5S154.3,115.9,154.3,112z"/>
	</g>
</g>
<g>
	<g>
		<g>
			<g>
				<g>
					<path class="st0" d="M219.2,739l-185-115.6c40.9-65.4,107.9-102.5,185-102.5V739z"/>
				</g>
			</g>
			<g>
				<g>
					<path class="st1" d="M219.2,739l176.4-128.2c70.8,97.4,49.2,233.8-48.2,304.6s-233.8,49.2-304.6-48.2
						c-53.8-74.1-57-166.1-8.5-243.8L219.2,739z"/>
				</g>
			</g>
			<g>
				<g>
					<path class="st2" d="M219.2,739V520.9c72.3,0,134,31.4,176.4,89.9L219.2,739z"/>
				</g>
			</g>
		</g>
		<g>
			<g>
			</g>
			<g>
			</g>
			<g>
			</g>
		</g>
	</g>
	<text transform="matrix(1 0 0 1 226.149 619.6893)"><tspan x="0" y="0" class="st3" style="font-family:'SourceHanSansTW-Bold-B5pc-H'; font-size:36px;">勇敢加碼</tspan><tspan x="0" y="43.2" class="st3" style="font-family:'SourceHanSansTW-Bold-B5pc-H'; font-size:36px;">15%</tspan></text>
	<text transform="matrix(1 0 0 1 158.149 822.6893)"><tspan x="0" y="0" class="st3" style="font-family:'SourceHanSansTW-Bold-B5pc-H'; font-size:36px;">保持觀望</tspan><tspan x="0" y="43.2" class="st3" style="font-family:'SourceHanSansTW-Bold-B5pc-H'; font-size:36px;">69%</tspan></text>
	<text transform="matrix(1 0 0 1 82.149 597.6893)"><tspan x="0" y="0" class="st3" style="font-family:'SourceHanSansTW-Bold-B5pc-H'; font-size:36px;">先退場</tspan><tspan x="0" y="43.2" class="st3" style="font-family:'SourceHanSansTW-Bold-B5pc-H'; font-size:36px;">16%</tspan></text>
</g>
</svg>
