<?xml version="1.0" encoding="utf-8"?>
<!-- Generator: Adobe Illustrator 24.1.3, SVG Export Plug-In . SVG Version: 6.00 Build 0)  -->
<svg version="1.1" id="圖層_1" xmlns="http://www.w3.org/2000/svg" xmlns:xlink="http://www.w3.org/1999/xlink" x="0px" y="0px"
	 viewBox="0 0 437.5 436.6" style="enable-background:new 0 0 437.5 436.6;" xml:space="preserve">
<style type="text/css">
	.st0{fill:#527BFF;}
	.st1{fill:#2EB9FF;}
	.st2{fill:#848CAF;}
	.st3{fill:#FFFFFF;}
</style>
<g>
	<g>
		<g>
			<g>
				<g>
					<path class="st0" d="M218.8,218.3L162.3,7.6c18.6-5,37.2-7.4,56.4-7.4V218.3z"/>
				</g>
			</g>
			<g>
				<g>
					<path class="st1" d="M218.8,218.3l95.6,196c-108.3,52.8-238.8,7.8-291.6-100.4S14.9,75,123.2,22.2c13-6.3,25.2-10.9,39.2-14.6
						L218.8,218.3z"/>
				</g>
			</g>
			<g>
				<g>
					<path class="st2" d="M218.8,218.3V0.2c120.4,0,218.1,97.6,218.1,218.1c0,86.7-44.5,158-122.5,196L218.8,218.3z"/>
				</g>
			</g>
		</g>
		<g>
			<g>
			</g>
			<g>
			</g>
			<g>
			</g>
		</g>
	</g>
	<g>
		<g>
			<path class="st3" d="M280.8,155.4c0,0-0.1,1.1-0.2,1.7c-0.6,4.5-1.3,6.8-2.3,7.7c-0.8,0.8-1.8,1.1-2.9,1.2c-1,0.1-2.9,0.1-4.8,0
				c-0.1-1.1-0.5-2.6-1.2-3.6c1.7,0.1,3.3,0.2,4,0.1c0.6,0,1,0,1.4-0.3c0.4-0.4,0.8-1.4,1.2-3.3h-9.1c-1.8,3.6-5.6,6-14.3,7.2
				c-0.3-1-1.2-2.6-1.9-3.5c6.2-0.8,9.4-1.9,11.2-3.7h-9.3v-3.4h11.2c0.1-0.5,0.3-1,0.4-1.6h4.3c-0.1,0.6-0.2,1.1-0.3,1.6H280.8z
				 M260.8,137.5c1.9,0.2,4.1,0.5,6.3,0.9c1.2-0.4,2.5-0.9,3.7-1.5h-17.5v-3H276l0.9-0.2l2.6,2.3c-2.1,1.2-4.6,2.4-7.2,3.5
				c0.8,0.2,1.5,0.4,2.1,0.6l-0.9,1.1h6.5v10.2c0,1.7-0.5,2.4-1.8,2.8c-1.3,0.4-3.2,0.4-5.9,0.4c-0.2-0.8-0.7-1.9-1.1-2.6
				c1.6,0.1,3.6,0.1,4.1,0c0.5,0,0.7-0.2,0.7-0.6v-0.5h-7.3v2.2h-3.9v-2.2h-6.8v3.5h-3.9v-13.2h12.7c-2.6-0.6-5.4-1.1-7.8-1.4
				L260.8,137.5z M257.9,143.8v1.3h6.8v-1.3H257.9z M264.7,148.6v-1.3h-6.8v1.3H264.7z M275.9,143.8h-7.3v1.3h7.3V143.8z
				 M275.9,148.6v-1.3h-7.3v1.3H275.9z"/>
			<path class="st3" d="M317.3,143c-0.8,5.4-2,9.9-4,13.7c1.7,2.4,3.9,4.4,6.6,5.7c-1,0.9-2.3,2.6-3,3.8c-2.6-1.4-4.6-3.3-6.3-5.5
				c-1.9,2.3-4.3,4.1-7.2,5.7c-0.4-1-1.7-2.9-2.4-3.9v3.7h-4v-5.1c-3.8,0.6-7.6,1.2-10.7,1.6l-0.6-4.1l2.4-0.3v-14.5h-2.2v-3.7h6.6
				v-2.6h-5.5v-3.7h15.2v3.7h-5.7v2.6h6.6v3.7H301v4.1c2.8-3.6,4.5-9.3,5.3-15.3l4.4,0.6c-0.3,2-0.8,4-1.3,5.9h10.1v4H317.3z
				 M292.1,143.6v2.2h4.9v-2.2H292.1z M292.1,151.5h4.9v-2.2h-4.9V151.5z M297,157v-2h-4.9v2.6L297,157z M301,162.3
				c3.1-1.4,5.4-3.3,7.2-5.7c-1.1-2.2-2-4.7-2.7-7.4c-0.4,0.7-0.8,1.3-1.3,1.9c-0.6-0.8-2.2-2.2-3.2-2.9V162.3z M308.3,143l-0.1,0.3
				c0.6,3.1,1.4,6.1,2.5,8.7c1-2.6,1.7-5.6,2.2-9H308.3z"/>
			<path class="st3" d="M338.8,138.9c0,0,0,1.4,0,1.9c-0.3,15.3-0.6,20.8-1.7,22.5c-0.8,1.2-1.6,1.6-2.8,1.8c-1,0.2-2.7,0.2-4.4,0.1
				c-0.1-1.2-0.5-3.1-1.2-4.3c1.4,0.1,2.7,0.1,3.4,0.1c0.5,0,0.9-0.1,1.2-0.6c0.7-1,1-5.4,1.2-17.5h-3.6c-0.4,9.6-1.6,17.7-6.3,23
				c-0.6-1-2.1-2.5-3.1-3.1c4-4.6,5-11.4,5.3-19.9h-4.2v-4.2h4.2c0-1.9,0-3.9,0-5.9h4.2c0,2,0,4,0,5.9H338.8z M353.9,136.5V165h-4.3
				v-2.2h-4.6v2.5h-4.1v-28.8H353.9z M349.6,158.7v-18h-4.6v18H349.6z"/>
			<path class="st3" d="M364.2,161.7v2.8h-3.7v-9.3c-0.3,0.5-0.6,1-0.9,1.4c-0.4-1-1.5-3.1-2.3-4.1c2.5-3.6,3.9-9,4.6-14.9h-3.7
				v-3.9h13.6v3.9h-5.9c-0.4,2.6-0.8,5.1-1.4,7.6h6.3v16.5H364.2z M367.1,148.8h-2.8v9.1h2.8V148.8z M370.1,162.8
				c1.4-1.8,2.1-4.9,2.4-7.8l3.1,0.8c-0.3,3.2-0.9,6.6-2.6,8.6L370.1,162.8z M391.1,150.3c0,0,0,1-0.1,1.5
				c-0.3,8.3-0.7,11.6-1.7,12.8c-0.7,0.9-1.5,1.2-2.5,1.3c-0.9,0.1-2.4,0.1-3.9,0.1c-0.1-1.1-0.5-2.7-1.1-3.7c1.3,0.1,2.4,0.2,3,0.2
				c0.5,0,0.8-0.1,1.1-0.5c0.3-0.3,0.5-1.2,0.7-2.9l-1.5,0.6c-0.3-1.2-1.1-2.9-1.9-4.2l2.1-0.9c0.5,0.8,1,1.7,1.4,2.6
				c0.1-1,0.1-2.1,0.2-3.3H373v-20.3h17.4v3.7h-6.2v2h5.1v3.3h-5.1v2.1h5.1v3.3h-5.1v2.2H391.1z M378.8,156.2
				c0.4,2.1,0.7,4.8,0.6,6.5l-3,0.5c0.1-1.8-0.1-4.5-0.5-6.6L378.8,156.2z M376.9,137.4v2h3.5v-2H376.9z M380.4,142.7h-3.5v2.1h3.5
				V142.7z M376.9,150.3h3.5v-2.2h-3.5V150.3z M382.3,155.6c0.7,1.7,1.3,3.9,1.4,5.4l-2.7,0.8c-0.1-1.4-0.7-3.7-1.3-5.4L382.3,155.6
				z"/>
			<path class="st3" d="M260.8,199.7h-11.4V196l9.9-15.9h6.4v15.4h3.1v4.1h-3.1v6.4h-4.9V199.7z M260.8,195.6v-5.2
				c0-1.5,0.1-4,0.2-5.5h-0.1c-0.6,1.4-1.4,2.7-2.1,4.2l-4.1,6.6H260.8z"/>
			<path class="st3" d="M270.9,202.9l2.5-3.3c1.6,1.5,3.5,2.7,5.9,2.7c2.7,0,4.5-1.3,4.5-3.5c0-2.5-1.5-4.1-7.3-4.1v-3.8
				c4.9,0,6.5-1.6,6.5-3.9c0-2-1.3-3.2-3.6-3.2c-1.9,0-3.5,0.9-5,2.4l-2.7-3.2c2.3-2,4.9-3.3,8-3.3c5.1,0,8.6,2.5,8.6,7
				c0,2.8-1.7,4.8-4.4,5.9v0.2c3,0.8,5.3,3,5.3,6.4c0,4.8-4.3,7.5-9.4,7.5C275.6,206.6,272.7,205,270.9,202.9z"/>
			<path class="st3" d="M292.3,187.4c0-5.3,2.7-8.4,6.5-8.4c3.8,0,6.5,3.1,6.5,8.4c0,5.4-2.7,8.5-6.5,8.5
				C294.9,195.9,292.3,192.7,292.3,187.4z M301.5,187.4c0-3.9-1.2-5.4-2.8-5.4s-2.7,1.5-2.7,5.4c0,3.9,1.2,5.5,2.7,5.5
				S301.5,191.3,301.5,187.4z M314.1,179h3.1l-14.5,27.6h-3.1L314.1,179z M311.6,198.1c0-5.4,2.7-8.4,6.5-8.4c3.8,0,6.5,3.1,6.5,8.4
				c0,5.3-2.7,8.5-6.5,8.5C314.3,206.6,311.6,203.5,311.6,198.1z M320.9,198.1c0-3.9-1.2-5.4-2.8-5.4s-2.7,1.5-2.7,5.4
				c0,3.9,1.2,5.5,2.7,5.5S320.9,202.1,320.9,198.1z"/>
		</g>
	</g>
	<g>
		<g>
			<path class="st3" d="M52.9,228.8c-1,2.5-2.2,5-3.6,7.5v24.7h-4.1v-18.5c-0.8,1-1.7,2-2.5,2.9c-0.4-1-1.6-3.3-2.3-4.4
				c3.3-3.2,6.6-8.4,8.5-13.5L52.9,228.8z M59.2,250.7c-1.5,3.1-3.7,6.6-5.5,8.8c-0.8-0.6-2.3-1.8-3.3-2.3c1.8-2,3.7-5,5-7.6
				L59.2,250.7z M65,248.4v12.6h-4.3v-12.6h-9.4v-3.9h9.4v-3.2h-7.1V229h18.9v12.4H65v3.2h9.3v3.9H65z M57.7,237.6h10.5v-4.8H57.7
				V237.6z M69.4,249.5c2.1,2.4,4.2,5.5,5.3,7.6l-3.4,2.1c-1-2.1-3.2-5.4-5.1-7.9L69.4,249.5z"/>
			<path class="st3" d="M88.5,246.5c-1.1,0.3-2.2,0.6-3.3,1v8.5c0,2-0.3,3-1.4,3.7c-1,0.7-2.6,0.9-4.9,0.8c-0.1-1-0.6-2.8-1.1-3.9
				c1.3,0,2.6,0,3,0c0.4,0,0.6-0.1,0.6-0.6v-7.4l-3.8,1.1l-0.9-4.1c1.3-0.3,3-0.7,4.8-1.2v-6.3h-4.2v-4h4.2v-6.8h3.9v6.8h3v4h-3v5.3
				l2.7-0.8L88.5,246.5z M110.5,231.6v3.9h-8.8v2.8h7.2v3.9H90.5v-3.9h7.1v-2.8h-9v-3.9h9v-4h4.1v4H110.5z M106.3,245.3h4v3.9h-4
				v7.4c0,2.1-0.4,3.2-1.8,3.8c-1.3,0.6-3.2,0.6-5.8,0.6c-0.2-1.2-0.7-2.8-1.2-4c1.6,0.1,3.5,0.1,4,0c0.6,0,0.7-0.1,0.7-0.6v-7.3H89
				v-3.9h13.2v-2.4h4.1V245.3z M94.4,249.4c1.4,1.8,3.2,4.4,4,6l-3.6,2.1c-0.8-1.7-2.5-4.4-3.8-6.3L94.4,249.4z"/>
			<path class="st3" d="M142.8,257.3c0.5,0,0.6-0.4,0.7-4.5c0.6,0.6,2.1,1.1,3,1.4c-0.3,5.2-1.1,6.5-3.2,6.5h-1.7
				c-2.6,0-3.1-1.1-3.1-4.3v-7.1h-1.5c-0.4,5.1-1.7,9.2-6.2,11.8c-0.3-0.5-0.7-1.2-1.2-1.8v0.2h-10.8v1.5h-3v-11.2
				c-0.4,0.6-0.9,1.2-1.3,1.7c-0.3-0.6-1.2-2.2-1.7-3c1.6-1.8,3.3-4.4,4.3-7.1h-2.9v-6.8h7v6.8h-2.9l1.7,0.6
				c-0.3,0.6-0.5,1.2-0.8,1.8h3.1c-0.2-0.5-0.5-1.1-0.8-1.6l2.2-0.9h-1.1v-6.8h6.9v6.8h-5.3c0.5,0.8,0.9,1.7,1.2,2.4h4.5v2.8h-4.5
				v1.4h3.8v2.7h-3.8v1.5h4v2.7h-4v1.6h4.3v0.6c2.7-1.9,3.5-4.6,3.8-7.9h-2.4v-20.7h13.8v20.7h-3.1v7c0,0.9,0,1,0.4,1H142.8z
				 M117.4,232.3h-4.5v-3h4.5v-1.8h3.3v6.7h-3.3V232.3z M116.4,239.5h2.2v-2.6h-2.2V239.5z M122,246.8h-3.2v1.4h3.2V246.8z
				 M122,250.9h-3.2v1.5h3.2V250.9z M118.7,256.7h3.2V255h-3.2V256.7z M126.3,234.1h-3.4v-6.7h3.4v1.8h4v3h-4V234.1z M124.8,239.4
				h2.2v-2.4h-2.2V239.4z M134.5,234.5h6.4v-2.1h-6.4V234.5z M134.5,240h6.4v-2.1h-6.4V240z M134.5,245.5h6.4v-2.2h-6.4V245.5z"/>
			<path class="st3" d="M151.8,234.5h-2.7v-3.6h6.9c-0.3-0.9-0.7-1.7-1-2.4l3.8-1.1c0.6,1.1,1.2,2.4,1.5,3.5h4.9v3
				c2.2-1.9,3.7-4.2,4.6-6.3l4.1,0.7c-0.3,0.6-0.5,1.1-0.8,1.7h6.3l0.8-0.1l2.6,0.9c-2.2,9.1-7.7,13.1-15.8,15.1
				c-0.4-1-1.3-2.4-2-3.2c1.7-0.3,3.3-0.8,4.8-1.4c-0.8-1-1.9-2.2-3-3.3c-0.4,0.3-0.7,0.6-1.1,0.8c-0.6-0.9-2-2.2-2.9-2.7
				c0.6-0.5,1.3-0.9,1.9-1.4h-8.8v5.1c0,1.1,0.1,1.5,1,1.5h4.6c0.8,0,2.2-0.1,2.9-0.3c0.1,1,0.2,2.6,0.4,3.5c-0.7,0.3-2,0.3-3.1,0.3
				h-4.7c-4,0-5-1.4-5-5.1V234.5z M167.8,256.9h13.9v3.5h-32v-3.5h13.8V255h-11.8v-3.4h11.8v-1.9c-3.7,0.2-7.4,0.3-10.9,0.3
				c-0.1-1-0.5-2.5-0.9-3.4c9.1-0.2,19.7-0.8,26.4-2l1.8,3.5c-3.5,0.6-7.6,1.1-12,1.4v2.2H180v3.4h-12.2V256.9z M172.5,239.5
				c0.6-0.4,1.1-0.8,1.6-1.2c-1.2-1.1-2.8-2.4-4.4-3.5c-0.3,0.3-0.5,0.6-0.9,0.9C170,236.9,171.5,238.4,172.5,239.5z M171.9,233.1
				c1.4,1,2.9,2,4.1,3c0.6-0.9,1.2-1.9,1.6-3H171.9z"/>
			<path class="st3" d="M40.7,298l2.4-3.4c1.5,1.5,3.4,2.7,5.9,2.7c2.8,0,4.7-1.6,4.7-4.5c0-2.9-1.8-4.5-4.5-4.5
				c-1.6,0-2.4,0.4-4,1.4l-2.4-1.5l0.7-13h14.3v4.4h-9.7l-0.5,5.7c1.1-0.5,2-0.7,3.2-0.7c4.5,0,8.2,2.5,8.2,8.1c0,5.7-4.4,9-9.3,9
				C45.4,301.6,42.6,300,40.7,298z"/>
			<path class="st3" d="M61.9,297.9l2.5-3.3c1.6,1.5,3.5,2.7,5.9,2.7c2.7,0,4.5-1.3,4.5-3.5c0-2.5-1.5-4.1-7.3-4.1v-3.8
				c4.9,0,6.5-1.6,6.5-3.9c0-2-1.3-3.2-3.6-3.2c-1.9,0-3.5,0.9-5,2.4l-2.7-3.2c2.3-2,4.9-3.3,8-3.3c5.1,0,8.6,2.5,8.6,7
				c0,2.8-1.7,4.8-4.4,5.9v0.2c3,0.8,5.3,3,5.3,6.4c0,4.8-4.3,7.5-9.4,7.5C66.6,301.6,63.7,300,61.9,297.9z"/>
			<path class="st3" d="M83.3,282.4c0-5.3,2.7-8.4,6.5-8.4c3.8,0,6.5,3.1,6.5,8.4c0,5.4-2.7,8.5-6.5,8.5
				C85.9,290.9,83.3,287.7,83.3,282.4z M92.5,282.4c0-3.9-1.2-5.4-2.8-5.4s-2.7,1.5-2.7,5.4c0,3.9,1.2,5.5,2.7,5.5
				S92.5,286.3,92.5,282.4z M105.1,274h3.1l-14.5,27.6h-3.1L105.1,274z M102.6,293.1c0-5.4,2.7-8.4,6.5-8.4c3.8,0,6.5,3.1,6.5,8.4
				c0,5.3-2.7,8.5-6.5,8.5C105.3,301.6,102.6,298.5,102.6,293.1z M111.9,293.1c0-3.9-1.2-5.4-2.8-5.4s-2.7,1.5-2.7,5.4
				c0,3.9,1.2,5.5,2.7,5.5S111.9,297.1,111.9,293.1z"/>
		</g>
	</g>
	<g>
		<g>
			<path class="st3" d="M188.8,48.5c1.1,0,1.3-0.7,1.4-4.9c0.9,0.7,2.7,1.4,3.9,1.7c-0.4,5.7-1.6,7.2-4.9,7.2H185c-4,0-5-1.3-5-5.4
				v-8.7h-5.3c-0.8,6.4-2.6,11.8-10.9,14.9c-0.5-1.2-1.7-2.9-2.7-3.8c7.2-2.3,8.5-6.4,9.1-11.1h-8.5v-4.1h13.8v-5.8h-6.2
				c-0.8,1.8-1.8,3.6-2.8,4.9c-1-0.6-2.8-1.5-3.8-1.9c2.3-3,4-7.8,4.8-11.5l4.4,0.9c-0.3,1.1-0.7,2.3-1.1,3.5h4.6v-4.9h4.4v4.9H191
				v4.1h-11.1v5.8h13.9v4.1h-9.4v8.7c0,1.2,0.2,1.4,1.3,1.4H188.8z"/>
			<path class="st3" d="M207.8,37.2c-0.5,3.1-1.2,5.7-2.2,7.9c2.2,3.2,6.1,3.6,11.6,3.7c3.9,0,9.7-0.2,13.8-0.6
				c-0.6,0.9-1.1,2.8-1.3,4c-3.7,0.3-8.3,0.3-12.5,0.3c-6.4,0-10.5-0.7-13.2-4.1c-1.4,2.1-3,3.6-4.8,4.8c-0.5-0.8-1.9-2.3-2.7-2.9
				c3.5-2,5.9-5.5,7.2-10.4h-3.1c-0.9,0-1.9,0.3-2.2,0.5c-0.3-0.9-1-2.8-1.4-3.6c0.6-0.2,1.2-0.4,1.9-1.2c0.7-0.6,2.2-2.5,3.5-4.4
				h-4.8v-3.4h7.4l0.7-0.3l2.8,1.2c-1.4,2-3.8,5.3-5.8,7.7h2.6l0.6-0.1L207.8,37.2z M203.3,27.2c-1-1.5-3-4.1-4.7-5.8l3.2-2
				c1.7,1.7,3.7,4,4.8,5.4L203.3,27.2z M226.1,47.3c-1.4-1.8-3.8-4.2-6.3-6.4c0,1.1,0.1,2.7,0.3,3.5c-7.7,2-9,2.5-9.9,3.1
				c-0.2-0.9-0.9-2.4-1.5-3c0.6-0.4,1.4-1.1,1.4-2.7v-21h16.4v14l0.3-0.3l3.2,2.7c-1.7,1.2-3.6,2.3-5.3,3.2c1.8,1.5,3.5,3.1,4.5,4.3
				L226.1,47.3z M214,24.2v2.1h8.4v-2.1H214z M222.5,31.5v-2.1H214v2.1H222.5z M218.5,35.5c1.2,0.8,2.4,1.8,3.6,2.7
				c1.4-0.9,3.1-2.2,4.2-3.2H214v7.3l5.7-1.3c-1.4-1.2-2.8-2.3-4.1-3.3L218.5,35.5z"/>
			<path class="st3" d="M252.2,37.5c-0.3,0.6-0.6,1.2-1,1.7h14.6c0,0,0,1-0.1,1.5c-0.5,7-1.1,9.9-2.1,10.9c-0.7,0.8-1.5,1.1-2.4,1.2
				c-0.8,0.1-2.2,0.1-3.6,0.1c-0.1-1-0.4-2.4-1-3.3c1.2,0.1,2.1,0.1,2.6,0.1c0.5,0,0.8-0.1,1.1-0.4c0.5-0.5,0.9-2.4,1.3-6.7h-1.4
				c-1.5,4-4.3,8.4-7.2,10.7c-0.7-0.8-1.9-1.8-3-2.4c2.7-1.7,5.1-4.9,6.7-8.3h-2.1c-1.9,3.5-5.3,7.1-8.4,9c-0.7-0.8-1.8-1.9-2.8-2.5
				c2.7-1.3,5.4-3.9,7.3-6.5h-2.1c-1.3,1.4-2.7,2.6-4.2,3.5c-0.5-0.7-1.9-1.9-2.8-2.5c-2.6,1.3-5.2,2.6-7.4,3.7l-1.6-4.3
				c1.2-0.5,2.7-1.1,4.4-1.8V31h-3.6v-4h3.6v-7.1h4V27h3.4v4H241v8.5l2.9-1.3l0.8,3.1c1.3-1.1,2.4-2.4,3.3-3.8h-4.1v-3.6h22.6v3.6
				H252.2z M264.1,32.5h-17V20.3h17V32.5z M260.1,23.3h-9.3V25h9.3V23.3z M260.1,27.8h-9.3v1.7h9.3V27.8z"/>
			<path class="st3" d="M171.8,86.7h-11.4V83l9.9-15.9h6.4v15.4h3.1v4.1h-3.1v6.4h-4.9V86.7z M171.8,82.6v-5.2c0-1.5,0.1-4,0.2-5.5
				h-0.1c-0.6,1.4-1.4,2.7-2.1,4.2l-4.1,6.6H171.8z"/>
			<path class="st3" d="M182.1,74.4c0-5.3,2.7-8.4,6.5-8.4c3.8,0,6.5,3.1,6.5,8.4c0,5.4-2.7,8.5-6.5,8.5
				C184.7,82.9,182.1,79.7,182.1,74.4z M191.3,74.4c0-3.9-1.2-5.4-2.8-5.4s-2.7,1.5-2.7,5.4c0,3.9,1.2,5.5,2.7,5.5
				S191.3,78.3,191.3,74.4z M203.9,66h3.1l-14.5,27.6h-3.1L203.9,66z M201.4,85.1c0-5.4,2.7-8.4,6.5-8.4c3.8,0,6.5,3.1,6.5,8.4
				c0,5.3-2.7,8.5-6.5,8.5C204.1,93.6,201.4,90.5,201.4,85.1z M210.7,85.1c0-3.9-1.2-5.4-2.8-5.4s-2.7,1.5-2.7,5.4
				c0,3.9,1.2,5.5,2.7,5.5S210.7,89.1,210.7,85.1z"/>
		</g>
	</g>
</g>
<g>
	<g>
		<g>
			<g>
				<g>
					<path class="st0" d="M218.8,795.3l-56.4-210.7c18.6-5,37.2-7.4,56.4-7.4V795.3z"/>
				</g>
			</g>
			<g>
				<g>
					<path class="st1" d="M218.8,795.3l95.6,196c-108.3,52.8-238.8,7.8-291.6-100.4s-7.8-238.8,100.4-291.6
						c13-6.3,25.2-10.9,39.2-14.6L218.8,795.3z"/>
				</g>
			</g>
			<g>
				<g>
					<path class="st2" d="M218.8,795.3V577.2c120.4,0,218.1,97.6,218.1,218.1c0,86.7-44.5,158-122.5,196L218.8,795.3z"/>
				</g>
			</g>
		</g>
		<g>
			<g>
			</g>
			<g>
			</g>
			<g>
			</g>
		</g>
	</g>
	<g>
		<text transform="matrix(1 0 0 1 248.7164 739.9826)"><tspan x="0" y="0" class="st3" style="font-family:'SourceHanSansTW-Bold-B5pc-H'; font-size:36px;">勇敢加碼</tspan><tspan x="0" y="43.2" class="st3" style="font-family:'SourceHanSansTW-Bold-B5pc-H'; font-size:36px;">43%</tspan></text>
	</g>
	<g>
		<text transform="matrix(1 0 0 1 39.7164 834.9826)"><tspan x="0" y="0" class="st3" style="font-family:'SourceHanSansTW-Bold-B5pc-H'; font-size:36px;">保持觀望</tspan><tspan x="0" y="43.2" class="st3" style="font-family:'SourceHanSansTW-Bold-B5pc-H'; font-size:36px;">53%</tspan></text>
	</g>
	<g>
		<text transform="matrix(1 0 0 1 159.7164 626.9826)"><tspan x="0" y="0" class="st3" style="font-family:'SourceHanSansTW-Bold-B5pc-H'; font-size:36px;">先退場</tspan><tspan x="0" y="43.2" class="st3" style="font-family:'SourceHanSansTW-Bold-B5pc-H'; font-size:36px;">4%</tspan></text>
	</g>
</g>
</svg>
