<?xml version="1.0" encoding="utf-8"?>
<!-- Generator: Adobe Illustrator 24.1.2, SVG Export Plug-In . SVG Version: 6.00 Build 0)  -->
<svg version="1.1" id="圖層_1" xmlns="http://www.w3.org/2000/svg" xmlns:xlink="http://www.w3.org/1999/xlink" x="0px" y="0px"
	 viewBox="0 0 95.8 39" style="enable-background:new 0 0 95.8 39;" xml:space="preserve">
<style type="text/css">
	.st0{fill:#FFB43E;}
	.st1{fill:#E03F19;}
	.st2{fill:#54B5C6;}
</style>
<g>
	<path d="M71,31h15.5l-5.9,1.8v3.5c0,0.6-0.4,0.9-1,0.9c-1,0-2.7-0.1-4.1-0.2l0.6,1.9c1.1,0.1,2.3,0.1,3.6,0.1
		c2.1,0,3.2-0.9,3.2-2.6v-2.5l8.6-3v-1.6H71V31z"/>
	<path d="M89.6,22.6H73.7c-0.3,0-0.5,0.2-0.5,0.5v4.3c0,0.3,0.2,0.5,0.5,0.5L89.6,28c0.3,0,0.5-0.2,0.5-0.5v-4.4
		C90.1,22.8,89.9,22.6,89.6,22.6z M88,26.3H75.4v-2.1H88V26.3z"/>
	<polygon points="82.7,16.6 80.6,16.6 80.6,19.5 70.3,19.5 70.3,21.2 93.1,21.2 93.1,19.5 82.7,19.5 	"/>
</g>
<g>
	<path d="M46.9,29.8l-1.8,0.4c0.3,1.2,0.7,2.8,1,4.6l1.8-0.4C47.5,32.7,47.2,31.2,46.9,29.8z"/>
	<path d="M53.3,23.8l1.5-1.4c-1.3-1.6-2.6-3.1-4-4.6l0.2-0.7l-1.8-0.6c-1.2,2.2-2.7,4.2-4.7,5.9l0.9,1.8c0.4-0.3,0.8-0.7,1.2-1.1
		v1.2h1.9v2.2h-3.4v1.7h3.4v7.4l-3.9,0.6L45,38l9-1.4l0.2-1.8l-3.8,0.6v-7.2h3.5v-1.7h-3.5v-2.2h1.9v-1.7h-5c1-1,1.8-2.1,2.4-3.4
		C51,20.8,52.2,22.3,53.3,23.8z"/>
	<path d="M51,34.1l1.8,0.5c0.4-1.4,0.9-2.8,1.3-4.4l-1.8-0.4C52,31.2,51.5,32.7,51,34.1z"/>
	<path d="M57.2,36.3v-4.5h8.5c0.3,0,0.5-0.2,0.5-0.5v-6.9c0-0.3-0.2-0.5-0.5-0.5h-8.5v-4.2h10.1v-1.8H55.7c-0.3,0-0.5,0.2-0.5,0.5
		v19.2c0,0.3,0.2,0.5,0.5,0.5h11.8v-1.8L57.2,36.3z M57.2,25.5h7V30h-7L57.2,25.5z"/>
</g>
<g>
	<path d="M51.5,0.4v1.3c-0.8-1.2-2.2-1.9-3.6-1.7c-3.5,0-6.3,2.8-6.2,6.3v0.3c0,3.6,2.3,6.6,6.2,6.6c1.5,0.2,2.9-0.5,3.6-1.7v1.3
		h3.7V0.4H51.5z M51.6,6.6c0.1,1.7-1.2,3.2-2.9,3.3C47,10,45.5,8.7,45.4,7V6.6c-0.1-1.7,1.2-3.2,2.9-3.3s3.2,1.2,3.3,2.9L51.6,6.6z"
		/>
	<path d="M63.8,0c-1.4-0.1-2.7,0.6-3.4,1.7V0.4h-3.5v12.4h3.7V6.1c0-0.8,0-2.6,2.1-2.6c2,0,2,1.7,2,2.6v6.8h3.7V5.1
		c0-2.4-0.8-3.4-1.4-4C66.1,0.4,64.9,0,63.8,0z"/>
	<path d="M74.6,13.2c1.3,0.1,2.6-0.5,3.2-1.7v1.3h3.5V0.4h-3.7v6.8c0,2-1,2.5-2.1,2.5c-2,0-2-1.6-2-2.5V0.4h-3.7v7.4
		c-0.2,1.4,0.3,2.8,1.2,3.8C71.9,12.7,73.2,13.3,74.6,13.2z"/>
	<path d="M95.8,6.8C95.9,3.1,93,0.1,89.4,0h-0.2c-3.7,0.2-6.5,3.3-6.3,6.9c0.2,3.5,2.9,6.2,6.4,6.3c1.3,0,2.5-0.4,3.5-1.1
		c1.1-0.8,2-1.9,2.5-3.2h-3.8c-0.5,0.7-1.4,1.2-2.2,1.2c-1.4,0.1-2.7-0.9-2.9-2.3h9.3C95.8,7.5,95.8,7.1,95.8,6.8z M86.4,5.2
		c0.4-1.6,2.1-2.5,3.6-2c1,0.3,1.7,1,2,2H86.4z"/>
</g>
<g>
	<path class="st0" d="M24.4,38.4h-3.6c0-9.5,7.7-17.2,17.2-17.2v3.6C30.5,24.8,24.4,30.9,24.4,38.4z"/>
	<path class="st1" d="M16.6,38.4H13c0-13.8,11.2-25,25-25.1V17C26.2,17,16.6,26.6,16.6,38.4z"/>
	<path class="st2" d="M3.4,38.4H0c0-21,17-38,38-38v3.4C18.9,3.9,3.5,19.3,3.4,38.4z"/>
</g>
</svg>
