<?xml version="1.0" encoding="utf-8"?>
<!-- Generator: Adobe Illustrator 24.1.3, SVG Export Plug-In . SVG Version: 6.00 Build 0)  -->
<svg version="1.1" id="圖層_1" xmlns="http://www.w3.org/2000/svg" xmlns:xlink="http://www.w3.org/1999/xlink" x="0px" y="0px"
	 viewBox="0 0 437.5 436.5" style="enable-background:new 0 0 437.5 436.5;" xml:space="preserve">
<style type="text/css">
	.st0{fill:#848CAF;}
	.st1{fill:#2EB9FF;}
	.st2{fill:#527BFF;}
	.st3{fill:#FFFFFF;}
</style>
<g>
	<g>
		<g>
			<g>
				<g>
					<path class="st0" d="M218.7,218.1L69.9,58.6C111.9,19.5,161.3,0,218.7,0V218.1z"/>
				</g>
			</g>
			<g>
				<g>
					<path class="st1" d="M218.7,218.1l63.8,208.6C167.2,461.9,45.3,397,10.1,281.9c-25.1-82-2.9-164.8,59.8-223.3L218.7,218.1z"/>
				</g>
			</g>
			<g>
				<g>
					<path class="st2" d="M218.7,218.1V0c120.4,0,218.1,97.6,218.1,218.1c0,97.8-60.8,180-154.3,208.6L218.7,218.1z"/>
				</g>
			</g>
		</g>
		<g>
			<g>
			</g>
			<g>
			</g>
			<g>
			</g>
		</g>
	</g>
	<g>
		<path class="st3" d="M45.2,244.7c6.9-6.6,11.5-11.2,11.5-15c0-2.6-1.4-4.2-4-4.2c-1.9,0-3.5,1.3-4.9,2.8l-2.9-2.9
			c2.4-2.6,4.8-4.1,8.5-4.1c5,0,8.4,3.2,8.4,8.1c0,4.5-4.2,9.2-8.9,14.2c1.3-0.1,3.1-0.3,4.4-0.3H63v4.5H45.2V244.7z"/>
		<path class="st3" d="M66.4,234.6c0-8.8,3.6-13.4,9-13.4s9,4.6,9,13.4c0,8.8-3.5,13.6-9,13.6S66.4,243.5,66.4,234.6z M79.4,234.6
			c0-7.2-1.7-9.2-4-9.2s-4,2-4,9.2c0,7.2,1.7,9.5,4,9.5S79.4,241.9,79.4,234.6z"/>
		<path class="st3" d="M87.8,235.5h9.8v3.8h-9.8V235.5z"/>
		<path class="st3" d="M100.3,244.5l2.5-3.3c1.6,1.5,3.5,2.7,5.9,2.7c2.7,0,4.5-1.3,4.5-3.5c0-2.5-1.5-4.1-7.3-4.1v-3.8
			c4.9,0,6.5-1.6,6.5-3.9c0-2-1.3-3.2-3.6-3.2c-1.9,0-3.5,0.9-5,2.4l-2.7-3.2c2.3-2,4.9-3.3,8-3.3c5.1,0,8.6,2.5,8.6,7
			c0,2.8-1.7,4.8-4.4,5.9v0.2c3,0.8,5.3,3,5.3,6.4c0,4.8-4.3,7.5-9.4,7.5C105,248.3,102.2,246.7,100.3,244.5z"/>
		<path class="st3" d="M122.4,245.2l2.8-3.2c0.9,1.1,2.6,1.9,4.1,1.9c3.1,0,5.6-2.2,5.8-8.9c-1.5,1.8-3.7,2.9-5.5,2.9
			c-4.5,0-7.7-2.6-7.7-8c0-5.3,3.8-8.6,8.4-8.6c5,0,9.6,3.9,9.6,12.8c0,9.9-4.9,14.2-10.3,14.2C126.4,248.3,124,246.8,122.4,245.2z
			 M130.7,234.1c1.4,0,3.1-0.8,4.3-2.8c-0.5-4.4-2.3-6-4.5-6c-2,0-3.6,1.5-3.6,4.6C126.9,232.8,128.3,234.1,130.7,234.1z"/>
		<path class="st3" d="M173.7,235.8c-1.1,3.2-2.6,6-4.5,8.4c0.9,1.7,1.9,2.8,2.8,2.8c0.8,0,1-1.4,1.2-4.5c0.8,0.7,2.1,1.5,3.1,1.8
			c-0.5,5.1-1.8,6.4-4.6,6.4c-2.1,0-3.8-1.3-5.3-3.5c-1.5,1.5-3.1,2.7-4.9,3.7c-0.6-0.8-2-2.2-2.9-2.9c2.3-1.2,4.3-2.7,6-4.5
			c-1-2.7-1.7-6-2.1-9.6h-13.2v2.8c0,2-0.1,4.4-0.5,6.8c1.1-1.2,1.9-2.8,2.3-4.4l3,0.6c-0.6,2.3-1.8,4.5-3.2,5.9
			c-0.5-0.4-1.4-1.1-2.2-1.5c-0.5,2.5-1.3,4.9-2.6,6.8c-0.8-0.6-2.6-1.7-3.5-2c2.5-3.6,2.8-8.7,2.8-12.3v-6.2h16.8
			c0-0.7-0.1-1.4-0.1-2.2h-18.4v-3.5h5.4v-5.9h4v5.9h5.2v-7.5h4.1v2.5h10.4v3.1h-10.4v1.8h13.4v3.5h-4.2c0.6,0.4,1.2,0.8,1.5,1.1
			l-1.2,1.1h3.5v3.5h-8.9c0.3,2.2,0.7,4.1,1.2,5.9c0.9-1.5,1.6-3.2,2.2-4.9L173.7,235.8z M163,239.9c-1.7,5.1-5.9,9.1-12,10.9
			c-0.4-0.6-1.2-1.8-1.8-2.4c2.8-0.8,5.2-2,7-3.6h-1.7v-6.6h-3.8v-2.9h10.8v2.9H158v4.7c0.8-1.1,1.4-2.3,1.7-3.5L163,239.9z
			 M166,228.3c0,0.8,0.1,1.5,0.1,2.2h3.5c-0.8-0.6-1.8-1.2-2.6-1.6l0.7-0.6H166z"/>
		<path class="st3" d="M55.8,284.5H44.4v-3.6l9.9-15.9h6.4v15.4h3.1v4.1h-3.1v6.4h-4.9V284.5z M55.8,280.4v-5.2c0-1.5,0.1-4,0.2-5.5
			h-0.1c-0.6,1.4-1.4,2.7-2.1,4.2l-4.1,6.6H55.8z"/>
		<path class="st3" d="M65.8,287.8l2.4-3.4c1.5,1.5,3.4,2.7,5.9,2.7c2.8,0,4.7-1.6,4.7-4.5c0-2.9-1.8-4.5-4.5-4.5
			c-1.6,0-2.4,0.4-4,1.4l-2.4-1.5l0.7-13h14.3v4.4h-9.7l-0.5,5.7c1.1-0.5,2-0.7,3.2-0.7c4.5,0,8.2,2.5,8.2,8.1c0,5.7-4.4,9-9.3,9
			C70.6,291.5,67.7,289.8,65.8,287.8z"/>
		<path class="st3" d="M88.6,288c0-2,1.4-3.5,3.3-3.5c1.9,0,3.3,1.5,3.3,3.5c0,1.9-1.4,3.5-3.3,3.5C90,291.5,88.6,289.9,88.6,288z"
			/>
		<path class="st3" d="M98.7,287.7l2.5-3.3c1.6,1.5,3.5,2.7,5.9,2.7c2.7,0,4.5-1.3,4.5-3.5c0-2.5-1.5-4.1-7.3-4.1v-3.8
			c4.9,0,6.5-1.6,6.5-3.9c0-2-1.3-3.2-3.6-3.2c-1.9,0-3.5,0.9-5,2.4l-2.7-3.2c2.3-2,4.9-3.3,8-3.3c5.1,0,8.6,2.5,8.6,7
			c0,2.8-1.7,4.8-4.4,5.9v0.2c3,0.8,5.3,3,5.3,6.4c0,4.8-4.3,7.5-9.4,7.5C103.4,291.5,100.5,289.9,98.7,287.7z"/>
		<path class="st3" d="M120.1,272.2c0-5.3,2.7-8.4,6.5-8.4c3.8,0,6.5,3.1,6.5,8.4c0,5.4-2.7,8.5-6.5,8.5
			C122.8,280.7,120.1,277.6,120.1,272.2z M129.3,272.2c0-3.9-1.2-5.4-2.8-5.4s-2.7,1.5-2.7,5.4c0,3.9,1.2,5.5,2.7,5.5
			S129.3,276.1,129.3,272.2z M141.9,263.8h3.1l-14.5,27.6h-3.1L141.9,263.8z M139.5,283c0-5.4,2.7-8.4,6.5-8.4
			c3.8,0,6.5,3.1,6.5,8.4c0,5.3-2.7,8.5-6.5,8.5C142.2,291.5,139.5,288.3,139.5,283z M148.7,283c0-3.9-1.2-5.4-2.8-5.4
			s-2.7,1.5-2.7,5.4c0,3.9,1.2,5.5,2.7,5.5S148.7,286.9,148.7,283z"/>
	</g>
	<g>
		<path class="st3" d="M274.8,190.3h-11.4v-3.6l9.9-15.9h6.4v15.4h3.1v4.1h-3.1v6.4h-4.9V190.3z M274.8,186.2v-5.2
			c0-1.5,0.1-4,0.2-5.5h-0.1c-0.6,1.4-1.4,2.7-2.1,4.2l-4.1,6.6H274.8z"/>
		<path class="st3" d="M285.4,183.6c0-8.8,3.6-13.4,9-13.4s9,4.6,9,13.4c0,8.8-3.5,13.6-9,13.6S285.4,192.5,285.4,183.6z
			 M298.4,183.6c0-7.2-1.7-9.2-4-9.2s-4,2-4,9.2c0,7.2,1.7,9.5,4,9.5S298.4,190.9,298.4,183.6z"/>
		<path class="st3" d="M306.8,184.5h9.8v3.8h-9.8V184.5z"/>
		<path class="st3" d="M319.3,193.6l2.4-3.4c1.5,1.5,3.4,2.7,5.9,2.7c2.8,0,4.7-1.6,4.7-4.5c0-2.9-1.8-4.5-4.5-4.5
			c-1.6,0-2.4,0.4-4,1.4l-2.4-1.5l0.7-13h14.3v4.4h-9.7l-0.5,5.7c1.1-0.5,2-0.7,3.2-0.7c4.5,0,8.2,2.5,8.2,8.1c0,5.7-4.4,9-9.3,9
			C324.1,197.3,321.3,195.6,319.3,193.6z"/>
		<path class="st3" d="M341.4,194.2l2.8-3.2c0.9,1.1,2.6,1.9,4.1,1.9c3.1,0,5.6-2.2,5.8-8.9c-1.5,1.8-3.7,2.9-5.5,2.9
			c-4.5,0-7.7-2.6-7.7-8c0-5.3,3.8-8.6,8.4-8.6c5,0,9.6,3.9,9.6,12.8c0,9.9-4.9,14.2-10.3,14.2C345.4,197.3,343,195.8,341.4,194.2z
			 M349.7,183.1c1.4,0,3.1-0.8,4.3-2.8c-0.5-4.4-2.3-6-4.5-6c-2,0-3.6,1.5-3.6,4.6C345.9,181.8,347.3,183.1,349.7,183.1z"/>
		<path class="st3" d="M392.7,184.8c-1.1,3.2-2.6,6-4.5,8.4c0.9,1.7,1.9,2.8,2.8,2.8c0.8,0,1-1.4,1.2-4.5c0.8,0.7,2.1,1.5,3.1,1.8
			c-0.5,5.1-1.8,6.4-4.6,6.4c-2.1,0-3.8-1.3-5.3-3.5c-1.5,1.5-3.1,2.7-4.9,3.7c-0.6-0.8-2-2.2-2.9-2.9c2.3-1.2,4.3-2.7,6-4.5
			c-1-2.7-1.7-6-2.1-9.6h-13.2v2.8c0,2-0.1,4.4-0.5,6.8c1.1-1.2,1.9-2.8,2.3-4.4l3,0.6c-0.6,2.3-1.8,4.5-3.2,5.9
			c-0.5-0.4-1.4-1.1-2.2-1.5c-0.5,2.5-1.3,4.9-2.6,6.8c-0.8-0.6-2.6-1.7-3.5-2c2.5-3.6,2.8-8.7,2.8-12.3v-6.2h16.8
			c0-0.7-0.1-1.4-0.1-2.2h-18.4v-3.5h5.4v-5.9h4v5.9h5.2v-7.5h4.1v2.5h10.4v3.1h-10.4v1.8h13.4v3.5h-4.2c0.6,0.4,1.2,0.8,1.5,1.1
			l-1.2,1.1h3.5v3.5h-8.9c0.3,2.2,0.7,4.1,1.2,5.9c0.9-1.5,1.6-3.2,2.2-4.9L392.7,184.8z M382,188.9c-1.7,5.1-5.9,9.1-12,10.9
			c-0.4-0.6-1.2-1.8-1.8-2.4c2.8-0.8,5.2-2,7-3.6h-1.7v-6.6h-3.8v-2.9h10.8v2.9H377v4.7c0.8-1.1,1.4-2.3,1.7-3.5L382,188.9z
			 M385,177.3c0,0.8,0.1,1.5,0.1,2.2h3.5c-0.8-0.6-1.8-1.2-2.6-1.6l0.7-0.6H385z"/>
		<path class="st3" d="M274.8,233.5h-11.4v-3.6l9.9-15.9h6.4v15.4h3.1v4.1h-3.1v6.4h-4.9V233.5z M274.8,229.4v-5.2
			c0-1.5,0.1-4,0.2-5.5h-0.1c-0.6,1.4-1.4,2.7-2.1,4.2l-4.1,6.6H274.8z"/>
		<path class="st3" d="M285.4,236.9c6.9-6.6,11.5-11.2,11.5-15c0-2.6-1.4-4.2-4-4.2c-1.9,0-3.5,1.3-4.9,2.8l-2.9-2.9
			c2.4-2.6,4.8-4.1,8.5-4.1c5,0,8.4,3.2,8.4,8.1c0,4.5-4.2,9.2-8.9,14.2c1.3-0.1,3.1-0.3,4.4-0.3h5.8v4.5h-17.9V236.9z"/>
		<path class="st3" d="M307.6,237c0-2,1.4-3.5,3.3-3.5c1.9,0,3.3,1.5,3.3,3.5c0,1.9-1.4,3.5-3.3,3.5
			C309,240.5,307.6,238.9,307.6,237z"/>
		<path class="st3" d="M318.4,233.3c0-3.2,2.1-5.3,4.6-6.6v-0.1c-2-1.5-3.5-3.4-3.5-6.1c0-4.3,3.4-7,8-7c4.7,0,7.7,2.8,7.7,7.1
			c0,2.6-1.7,4.6-3.4,5.8v0.2c2.4,1.4,4.5,3.3,4.5,6.8c0,4-3.6,7.1-9,7.1C322.2,240.5,318.4,237.5,318.4,233.3z M331.3,233.1
			c0-2.6-2.5-3.5-5.9-4.9c-1.4,1.1-2.4,2.7-2.4,4.5c0,2.4,2,4,4.5,4C329.7,236.7,331.3,235.4,331.3,233.1z M330.9,220.9
			c0-2.2-1.3-3.7-3.5-3.7c-1.8,0-3.2,1.2-3.2,3.3c0,2.4,2.1,3.5,4.9,4.6C330.2,223.8,330.9,222.4,330.9,220.9z"/>
		<path class="st3" d="M339.1,221.2c0-5.3,2.7-8.4,6.5-8.4s6.5,3.1,6.5,8.4c0,5.4-2.7,8.5-6.5,8.5S339.1,226.6,339.1,221.2z
			 M348.3,221.2c0-3.9-1.2-5.4-2.8-5.4s-2.7,1.5-2.7,5.4c0,3.9,1.2,5.5,2.7,5.5S348.3,225.1,348.3,221.2z M360.9,212.8h3.1
			l-14.5,27.6h-3.1L360.9,212.8z M358.5,232c0-5.4,2.7-8.4,6.5-8.4c3.8,0,6.5,3.1,6.5,8.4c0,5.3-2.7,8.5-6.5,8.5
			C361.2,240.5,358.5,237.3,358.5,232z M367.7,232c0-3.9-1.2-5.4-2.8-5.4s-2.7,1.5-2.7,5.4c0,3.9,1.2,5.5,2.7,5.5
			S367.7,235.9,367.7,232z"/>
	</g>
</g>
<g>
	<g>
		<g>
			<g>
				<g>
					<path class="st0" d="M218.7,753.9L69.9,594.4c41.9-39.1,91.4-58.6,148.7-58.6V753.9z"/>
				</g>
			</g>
			<g>
				<g>
					<path class="st1" d="M218.7,753.9l63.8,208.6C167.2,997.6,45.3,932.8,10.1,817.6c-25.1-82-2.9-164.8,59.8-223.3L218.7,753.9z"
						/>
				</g>
			</g>
			<g>
				<g>
					<path class="st2" d="M218.7,753.9V535.8c120.4,0,218.1,97.6,218.1,218.1c0,97.8-60.8,180-154.3,208.6L218.7,753.9z"/>
				</g>
			</g>
		</g>
		<g>
			<g>
			</g>
			<g>
			</g>
			<g>
			</g>
		</g>
	</g>
	<text transform="matrix(1 0 0 1 43.6286 783.5128)"><tspan x="0" y="0" class="st3" style="font-family:'SourceHanSansTW-Bold-B5pc-H'; font-size:36px;">20-39歲</tspan><tspan x="0" y="43.2" class="st3" style="font-family:'SourceHanSansTW-Bold-B5pc-H'; font-size:36px;">45.3%</tspan></text>
	<text transform="matrix(1 0 0 1 262.6285 732.5128)"><tspan x="0" y="0" class="st3" style="font-family:'SourceHanSansTW-Bold-B5pc-H'; font-size:36px;">40-59歲</tspan><tspan x="0" y="43.2" class="st3" style="font-family:'SourceHanSansTW-Bold-B5pc-H'; font-size:36px;">42.8%</tspan></text>
</g>
</svg>
