<?xml version="1.0" encoding="utf-8"?>
<!-- Generator: Adobe Illustrator 24.1.3, SVG Export Plug-In . SVG Version: 6.00 Build 0)  -->
<svg version="1.1" id="圖層_1" xmlns="http://www.w3.org/2000/svg" xmlns:xlink="http://www.w3.org/1999/xlink" x="0px" y="0px"
	 viewBox="0 0 570.6 438.4" style="enable-background:new 0 0 570.6 438.4;" xml:space="preserve">
<style type="text/css">
	.st0{fill:none;stroke:#CCCCCC;stroke-width:2;stroke-miterlimit:10;}
	.st1{fill:#527BFF;}
	.st2{enable-background:new    ;}
	.st3{fill:#1C1C1C;}
</style>
<g>
	
		<text transform="matrix(1 0 0 1 35.1143 530.6802)" class="st3" style="font-family:'SourceHanSansTW-Bold-B5pc-H'; font-size:36px;">58%</text>
	
		<text transform="matrix(1 0 0 1 344.7143 781.6802)" class="st3" style="font-family:'SourceHanSansTW-Bold-B5pc-H'; font-size:36px;">10%</text>
	
		<text transform="matrix(1 0 0 1 430.7143 794.6802)" class="st3" style="font-family:'SourceHanSansTW-Bold-B5pc-H'; font-size:36px;">9%</text>
	
		<text transform="matrix(1 0 0 1 504.7143 803.6802)" class="st3" style="font-family:'SourceHanSansTW-Bold-B5pc-H'; font-size:36px;">8%</text>
	
		<text transform="matrix(1 0 0 1 267.7143 738.6802)" class="st3" style="font-family:'SourceHanSansTW-Bold-B5pc-H'; font-size:36px;">19%</text>
	
		<text transform="matrix(0.7071 -0.7071 0.7071 0.7071 14.9339 913.0875)" class="st3" style="font-family:'SourceHanSansTW-Bold-B5pc-H'; font-size:24px;">如何挑選</text>
	
		<text transform="matrix(0.7071 -0.7071 0.7071 0.7071 308.9188 928.608)" class="st3" style="font-family:'SourceHanSansTW-Bold-B5pc-H'; font-size:24px;">報酬率太低</text>
	
		<text transform="matrix(0.7071 -0.7071 0.7071 0.7071 396.9339 913.0875)" class="st3" style="font-family:'SourceHanSansTW-Bold-B5pc-H'; font-size:24px;">流程繁瑣</text>
	
		<text transform="matrix(0.7071 -0.7071 0.7071 0.7071 480.9339 913.0875)" class="st3" style="font-family:'SourceHanSansTW-Bold-B5pc-H'; font-size:24px;">門檻太高</text>
	
		<text transform="matrix(0.7071 -0.7071 0.7071 0.7071 92.3997 913.0875)" class="st3" style="font-family:'SourceHanSansTW-Bold-B5pc-H'; font-size:24px;">研究市場</text>
	
		<text transform="matrix(0.7071 -0.7071 0.7071 0.7071 151.4198 929.068)" class="st3" style="font-family:'SourceHanSansTW-Bold-B5pc-H'; font-size:24px;">買賣時間點</text>
	
		<text transform="matrix(0.7071 -0.7071 0.7071 0.7071 248.3997 913.0875)" class="st3" style="font-family:'SourceHanSansTW-Bold-B5pc-H'; font-size:24px;">自己操盤</text>
	<line class="st0" x1="28.6" y1="820.9" x2="570.6" y2="820.9"/>
	<rect x="40.6" y="544.9" class="st1" width="58" height="274"/>
	
		<text transform="matrix(1 0 0 1 112.1143 560.6802)" class="st3" style="font-family:'SourceHanSansTW-Bold-B5pc-H'; font-size:36px;">55%</text>
	
		<text transform="matrix(1 0 0 1 189.1143 637.6802)" class="st3" style="font-family:'SourceHanSansTW-Bold-B5pc-H'; font-size:36px;">37%</text>
	<rect x="118" y="569.9" class="st1" width="58" height="249"/>
	<rect x="195.3" y="648.9" class="st1" width="58" height="170"/>
	<rect x="272.6" y="752.9" class="st1" width="58" height="66"/>
	<rect x="430.3" y="803.9" class="st1" width="58" height="15"/>
	<rect x="352" y="794.9" class="st1" width="58" height="24"/>
	<rect x="504.6" y="810.9" class="st1" width="58" height="8"/>
</g>
<g>
	<g class="st2">
		<path class="st3" d="M36.1,28.5l2.4-3.4c1.5,1.5,3.4,2.7,5.9,2.7c2.8,0,4.7-1.6,4.7-4.5c0-2.9-1.8-4.5-4.5-4.5
			c-1.6,0-2.4,0.4-4,1.4l-2.4-1.5l0.7-13h14.3v4.4h-9.7L43,15.8c1.1-0.5,2-0.7,3.2-0.7c4.5,0,8.2,2.5,8.2,8.1c0,5.7-4.4,9-9.3,9
			C40.8,32.2,38,30.5,36.1,28.5z"/>
		<path class="st3" d="M58,25.1c0-3.2,2.1-5.3,4.6-6.6v-0.1c-2-1.5-3.5-3.4-3.5-6.1c0-4.3,3.4-7,8-7c4.7,0,7.7,2.8,7.7,7.1
			c0,2.6-1.7,4.6-3.4,5.8v0.2c2.4,1.4,4.5,3.3,4.5,6.8c0,4-3.6,7.1-9,7.1C61.8,32.2,58,29.2,58,25.1z M70.9,24.9
			c0-2.6-2.5-3.5-5.9-4.9c-1.4,1.1-2.4,2.7-2.4,4.5c0,2.4,2,4,4.5,4C69.3,28.4,70.9,27.2,70.9,24.9z M70.5,12.6
			c0-2.2-1.3-3.7-3.5-3.7c-1.8,0-3.2,1.2-3.2,3.3c0,2.4,2.1,3.5,4.9,4.6C69.8,15.5,70.5,14.1,70.5,12.6z"/>
		<path class="st3" d="M78.7,12.9c0-5.3,2.7-8.4,6.5-8.4c3.8,0,6.5,3.1,6.5,8.4c0,5.4-2.7,8.5-6.5,8.5
			C81.3,21.4,78.7,18.3,78.7,12.9z M87.9,12.9c0-3.9-1.2-5.4-2.8-5.4s-2.7,1.5-2.7,5.4c0,3.9,1.2,5.5,2.7,5.5S87.9,16.9,87.9,12.9z
			 M100.5,4.5h3.1L89.2,32.2h-3.1L100.5,4.5z M98,23.7c0-5.4,2.7-8.4,6.5-8.4c3.8,0,6.5,3.1,6.5,8.4c0,5.3-2.7,8.5-6.5,8.5
			C100.7,32.2,98,29,98,23.7z M107.3,23.7c0-3.9-1.2-5.4-2.8-5.4s-2.7,1.5-2.7,5.4c0,3.9,1.2,5.5,2.7,5.5S107.3,27.6,107.3,23.7z"/>
	</g>
	<g class="st2">
		<path class="st3" d="M347.7,278.4h5.7v-16.2h-4.8V259c2.7-0.5,4.5-1.2,6.2-2.2h3.9v21.7h5v4.3h-16V278.4z"/>
		<path class="st3" d="M367.5,269.6c0-8.8,3.6-13.4,9-13.4c5.5,0,9,4.6,9,13.4c0,8.8-3.5,13.6-9,13.6
			C371.1,283.2,367.5,278.4,367.5,269.6z M380.5,269.6c0-7.2-1.7-9.2-4-9.2s-4,2-4,9.2c0,7.2,1.7,9.5,4,9.5S380.5,276.8,380.5,269.6
			z"/>
		<path class="st3" d="M388.3,263.9c0-5.3,2.7-8.4,6.5-8.4c3.8,0,6.5,3.1,6.5,8.4c0,5.4-2.7,8.5-6.5,8.5
			C390.9,272.4,388.3,269.3,388.3,263.9z M397.5,263.9c0-3.9-1.2-5.4-2.8-5.4s-2.7,1.5-2.7,5.4c0,3.9,1.2,5.5,2.7,5.5
			S397.5,267.8,397.5,263.9z M410.1,255.5h3.1l-14.5,27.6h-3.1L410.1,255.5z M407.6,274.7c0-5.4,2.7-8.4,6.5-8.4s6.5,3.1,6.5,8.4
			c0,5.3-2.7,8.5-6.5,8.5S407.6,280,407.6,274.7z M416.9,274.7c0-3.9-1.2-5.4-2.8-5.4s-2.7,1.5-2.7,5.4c0,3.9,1.2,5.5,2.7,5.5
			S416.9,278.6,416.9,274.7z"/>
	</g>
	<g class="st2">
		<path class="st3" d="M432.6,293.2l2.8-3.2c0.9,1.1,2.6,1.9,4.1,1.9c3.1,0,5.6-2.2,5.8-8.9c-1.5,1.8-3.7,2.9-5.5,2.9
			c-4.5,0-7.7-2.6-7.7-8c0-5.3,3.8-8.6,8.4-8.6c5,0,9.6,3.9,9.6,12.8c0,9.9-4.9,14.2-10.3,14.2C436.5,296.2,434.1,294.8,432.6,293.2
			z M440.8,282.1c1.4,0,3.1-0.8,4.3-2.8c-0.5-4.4-2.3-6-4.5-6c-2,0-3.6,1.5-3.6,4.6C437,280.7,438.5,282.1,440.8,282.1z"/>
		<path class="st3" d="M453.1,276.9c0-5.3,2.7-8.4,6.5-8.4s6.5,3.1,6.5,8.4c0,5.4-2.7,8.5-6.5,8.5S453.1,282.3,453.1,276.9z
			 M462.3,276.9c0-3.9-1.2-5.4-2.8-5.4s-2.7,1.5-2.7,5.4c0,3.9,1.2,5.5,2.7,5.5S462.3,280.8,462.3,276.9z M474.9,268.5h3.1
			l-14.5,27.6h-3.1L474.9,268.5z M472.4,287.7c0-5.4,2.7-8.4,6.5-8.4c3.8,0,6.5,3.1,6.5,8.4c0,5.3-2.7,8.5-6.5,8.5
			C475.1,296.2,472.4,293,472.4,287.7z M481.7,287.7c0-3.9-1.2-5.4-2.8-5.4s-2.7,1.5-2.7,5.4c0,3.9,1.2,5.5,2.7,5.5
			S481.7,291.6,481.7,287.7z"/>
	</g>
	<g class="st2">
		<path class="st3" d="M506.4,298.1c0-3.2,2.1-5.3,4.6-6.6v-0.1c-2-1.5-3.5-3.4-3.5-6.1c0-4.3,3.4-7,8-7c4.7,0,7.7,2.8,7.7,7.1
			c0,2.6-1.7,4.6-3.4,5.8v0.2c2.4,1.4,4.5,3.3,4.5,6.8c0,4-3.6,7.1-9,7.1C510.2,305.2,506.4,302.2,506.4,298.1z M519.3,297.9
			c0-2.6-2.5-3.5-5.9-4.9c-1.4,1.1-2.4,2.7-2.4,4.5c0,2.4,2,4,4.5,4C517.7,301.4,519.3,300.2,519.3,297.9z M518.9,285.6
			c0-2.2-1.3-3.7-3.5-3.7c-1.8,0-3.2,1.2-3.2,3.3c0,2.4,2.1,3.5,4.9,4.6C518.2,288.5,518.9,287.1,518.9,285.6z"/>
		<path class="st3" d="M527.1,285.9c0-5.3,2.7-8.4,6.5-8.4s6.5,3.1,6.5,8.4c0,5.4-2.7,8.5-6.5,8.5S527.1,291.3,527.1,285.9z
			 M536.3,285.9c0-3.9-1.2-5.4-2.8-5.4s-2.7,1.5-2.7,5.4c0,3.9,1.2,5.5,2.7,5.5S536.3,289.8,536.3,285.9z M548.9,277.5h3.1
			l-14.5,27.6h-3.1L548.9,277.5z M546.4,296.7c0-5.4,2.7-8.4,6.5-8.4c3.8,0,6.5,3.1,6.5,8.4c0,5.3-2.7,8.5-6.5,8.5
			C549.1,305.2,546.4,302,546.4,296.7z M555.7,296.7c0-3.9-1.2-5.4-2.8-5.4s-2.7,1.5-2.7,5.4c0,3.9,1.2,5.5,2.7,5.5
			S555.7,300.6,555.7,296.7z"/>
	</g>
	<g class="st2">
		<path class="st3" d="M270.7,235.4h5.7v-16.2h-4.8V216c2.7-0.5,4.5-1.2,6.2-2.2h3.9v21.7h5v4.3h-16V235.4z"/>
		<path class="st3" d="M290.8,237.2l2.8-3.2c0.9,1.1,2.6,1.9,4.1,1.9c3.1,0,5.6-2.2,5.8-8.9c-1.5,1.8-3.7,2.9-5.5,2.9
			c-4.5,0-7.7-2.6-7.7-8c0-5.3,3.8-8.6,8.4-8.6c5,0,9.6,3.9,9.6,12.8c0,9.9-4.9,14.2-10.3,14.2C294.7,240.2,292.3,238.8,290.8,237.2
			z M299,226.1c1.4,0,3.1-0.8,4.3-2.8c-0.5-4.4-2.3-6-4.5-6c-2,0-3.6,1.5-3.6,4.6C295.2,224.7,296.7,226.1,299,226.1z"/>
		<path class="st3" d="M311.3,220.9c0-5.3,2.7-8.4,6.5-8.4c3.8,0,6.5,3.1,6.5,8.4c0,5.4-2.7,8.5-6.5,8.5
			C313.9,229.4,311.3,226.3,311.3,220.9z M320.5,220.9c0-3.9-1.2-5.4-2.8-5.4s-2.7,1.5-2.7,5.4c0,3.9,1.2,5.5,2.7,5.5
			S320.5,224.8,320.5,220.9z M333.1,212.5h3.1l-14.5,27.6h-3.1L333.1,212.5z M330.6,231.7c0-5.4,2.7-8.4,6.5-8.4s6.5,3.1,6.5,8.4
			c0,5.3-2.7,8.5-6.5,8.5S330.6,237,330.6,231.7z M339.9,231.7c0-3.9-1.2-5.4-2.8-5.4s-2.7,1.5-2.7,5.4c0,3.9,1.2,5.5,2.7,5.5
			S339.9,235.6,339.9,231.7z"/>
	</g>
	<g class="st2">
		<path class="st3" d="M11.3,394.5l0.5-0.6l1.9,1.9l-0.5,0.6c1.9,2,4.1,4.7,5.1,8.3c1.6-0.1,3.1-0.1,4.2-0.1l0,3
			c-1-0.1-2.3-0.1-3.7-0.1c0.2,1.8,0,3.8-0.6,6c-0.7-0.2-2.2-0.2-3-0.1c0.6-2.2,0.8-4.1,0.6-5.8c-1.8,0.1-3.6,0.2-5.2,0.3
			c-0.8-1.5-1.9-3.3-3.2-5.1l-1.2,1.3l-2.2-1.8c0.5-0.6,1.1-1.2,1.7-1.9c-0.9-1.2-1.8-2.3-2.6-3.3l2.3-2c0.8,1,1.6,2.1,2.4,3.1
			l1.5-1.7l-0.8-0.8l2-2L11.3,394.5z M9.5,400.7c1.1,1.6,2.1,3.1,2.9,4.5c0.9-0.1,1.9-0.2,2.9-0.2c-0.9-2.7-2.5-4.8-4-6.4L9.5,400.7
			z M17.9,385.9l13.4,13.4l-2,2l-1-1l-2.7,2.7l1.3,1.3l-1.9,1.9l-13.6-13.6L17.9,385.9z M26.3,398.4l-8.6-8.6l-2.7,2.7l8.6,8.6
			L26.3,398.4z"/>
		<path class="st3" d="M24.3,377.2c0.6,1.4,1.2,2.9,1.7,4.5l12.1,12.1l-2,2l-8.9-8.9c0.1,0.9,0.2,1.8,0.2,2.6
			c-0.7-0.3-2.3-0.9-3.2-1c0-3-0.9-6.8-2.5-10L24.3,377.2z M37.4,369.7l-1,1l10.1,10.1c1.2,1.2,1.5,2,1.1,3c-0.4,1-1.5,2.2-3.1,3.8
			c-0.7-0.5-1.9-1.1-2.7-1.4c1.2-1.1,2.3-2.2,2.7-2.6s0.3-0.5,0-0.9l-10-10l-7.4,7.4l-1.9-1.9l10.5-10.5L37.4,369.7z M37,386.1
			l1.1,1.1l-1.9,1.9l-7.2-7.2l5.7-5.7l6.1,6.1L37,386.1z M32.6,381.7l2.6,2.6l1.9-1.9l-2.6-2.6L32.6,381.7z"/>
		<path class="st3" d="M42.9,357.8l1.8-1.8l7.4,7.4c3.4,3.4,5.9,6.8,4.4,12c-0.7-0.1-2.1-0.1-2.8,0c0.9-3.1,0.3-5.3-1-7.3
			c-0.1,1.2-0.3,2.4-0.4,3.5l-2.7-0.7c0.3-1.3,0.7-3.3,1.1-5.2l0.1,0l-0.5-0.5l-1.7-1.7l-0.4,1.6c-1.1-0.6-3-1.3-4.6-1.7l1.8,1.8
			l-1.4,1.4l2.2,2.2l0.8-1.8l2.2,1.4c-0.3,0.8-0.7,1.5-1,2.3l4.5,4.5c0.9,0.9,1.3,1.6,1.1,2.4c-0.2,0.8-0.8,1.6-2,2.7
			c-0.5-0.4-1.6-1.1-2.4-1.4c0.6-0.6,1.2-1.2,1.4-1.4c0.2-0.2,0.2-0.4,0-0.6l-3.8-3.8l-1,2.1l-2.4-1.4c0.4-0.8,0.8-1.7,1.4-2.7
			l-2.8-2.8l-1.8,1.8l-1.9-1.9l1.8-1.8l-3.2-3.2l1.9-1.8l3.2,3.2l1.4-1.4l-0.4-0.1l0.7-2.3c1,0.2,2.2,0.6,3.2,0.9L42.9,357.8z
			 M62.8,365.3c0.3-0.3-0.1-0.9-1.7-2.7c0.8-0.1,1.9-0.5,2.5-0.9c2.1,2.5,2.5,3.9,1.2,5.2l-1.5,1.5c-1.5,1.5-2.5,1.4-4.7-0.8
			l-12.8-12.8l1.9-1.9l5,5c-0.5-1.5-1.2-3.3-1.8-4.6l2.7-0.9c0.6,2,1.2,4.1,1.5,5.7l-1.7,0.5l1.9,1.9l0-1c2-0.2,4.6-0.2,6-0.1
			l0.1,2.7c-1.2-0.2-3-0.3-4.8-0.3l3.9,3.9c0.8,0.8,0.9,0.8,1.3,0.5L62.8,365.3z"/>
		<path class="st3" d="M58.3,349.3c-1.2-0.3-3.3-0.5-4.9-0.5l0.6-2.4c1.6,0,3.6,0.1,4.8,0.3L58.3,349.3z M65,351.9
			c1.1,1.5,2,2.9,2.7,4.3c2.8,0.8,4.9-0.9,7.7-3.7c1.8-1.8,4.5-4.7,6.2-6.8c0.1,0.7,0.8,1.8,1.2,2.5c-1.6,1.9-3.8,4.1-5.8,6.1
			c-3.1,3.1-5.4,4.8-8.5,4.3c0.5,1.6,0.6,3,0.4,4.4c-0.7-0.2-2-0.2-2.6-0.1c0.4-2.4-0.3-5-2.1-7.8l-1.1,1.1c-0.4,0.4-0.7,1-0.7,1.2
			c-0.5-0.3-1.7-0.8-2.3-1c0.2-0.3,0.3-0.7,0.3-1.4c0-0.5-0.4-2.1-0.8-3.5l-1.9,1.9l-1.6-1.6l3-3l0.2-0.4l1.7-0.7
			c0.4,1.5,1.1,4,1.5,5.9l0.9-0.9l0.3-0.4L65,351.9z M66,342.6c0.3,0.5,0.8,1.3,1.1,1.7c-2.9,4-3.3,4.7-3.5,5.2
			c-0.5-0.3-1.5-0.7-2.2-0.8c0.1-0.4,0.1-1-0.5-1.7l-3.2-3.2l4.7-4.7l3.2,3.2l-3.1,3.1l0.8,0.8L66,342.6z M60.5,343.4l0.8,0.8
			l1.5-1.5l-0.8-0.8L60.5,343.4z M70.3,341.8c-1.5,1.5-2.5,1.3-3.9-0.1l-3.3-3.3l4.8-4.8l3.2,3.2l-3.2,3.2l0.1,0.1
			c0.5,0.5,0.7,0.6,1.1,0.2l1.7-1.7c0.3-0.3,0.9-0.9,1.1-1.3c0.5,0.4,1.1,0.9,1.5,1.2c-0.2,0.4-0.7,0.9-1.1,1.4L70.3,341.8z
			 M78.6,343.7l-3.1,3.1c1.6-0.5,3.3-1,4.4-1.2l-1,2.6c-1.1,0.1-3,0.4-4.5,1l0.4-1.7l-3.6,3.6l1.9-1c-0.1,1.6-0.6,3.8-1.3,5.4
			c-0.7,0-2,0.1-2.7,0.3c0.7-1.4,1.4-3,1.6-4.2l-3.1,3.1l-1.5-1.5l2.7-2.7l-1.1-1.1l-2.1,2.1l-1.5-1.5l2.1-2.1l-0.9-0.9l1.8-1.9
			l0.9,0.9l1.9-1.9l-0.9-0.9l1.9-1.9l0.9,0.9l2.1-2.1l1.5,1.5l-2.1,2.1l1.1,1.1l2.7-2.7L78.6,343.7z M65.9,338l0.8,0.8l1.5-1.5
			l-0.8-0.8L65.9,338z M70.8,348.6l1.8-1.9l-1.1-1.1l-1.8,1.8L70.8,348.6z"/>
	</g>
	<g class="st2">
		<path class="st3" d="M304.4,414.1l2.7-2.7l1.7,1.7l-1.7,1.7l1.3-0.8c0.3,0.9,0.6,1.8,0.8,2.6l1.2-1.2l1.7,1.7l-2.4,2.4l1.4,1.4
			l2.7-2.7l1.7,1.7l-2.7,2.7l3,3l-1.9,1.9l-3-3l-2.9,2.9l-1.7-1.7l2.9-2.9l-1.4-1.4l-2.5,2.5l-1.7-1.7l1.2-1.2
			c-0.6-0.4-1.5-0.8-2.3-1.1l0.7-1.2l-2,2l-1.7-1.7l2.9-2.9l-1.2-1.2l-2.5,2.5l-1.7-1.7l2.5-2.5l-1.5-1.5l1.9-1.9l1.5,1.5l2.3-2.3
			l1.7,1.7l-2.3,2.3L304.4,414.1z M307.6,418.2c-0.3-0.9-0.7-2-1.2-2.8l-2.6,2.6c0.9,0.3,1.8,0.7,2.4,1.1l-0.5,1L307.6,418.2z
			 M317.5,406.1c1.7,2.3,2.9,4.8,3.7,7.2c1.4,0.1,2.8-0.1,4.1-0.5c-0.1,0.8,0.1,2.1,0.3,2.9c-1.2,0.3-2.5,0.4-3.9,0.3
			c0.2,1.3,0.2,2.6,0,3.9c-0.5-0.1-1.1-0.1-1.7-0.1l0.8,0.8l-1.8,1.8l-15.1-15.1l7-7l3.2,3.2c0.9,0.9,1.2,1.5,0.8,2.5
			c-0.4,0.9-1.3,1.9-2.5,3.1c-0.6-0.5-1.6-0.9-2.3-1.2c0.9-0.8,1.8-1.7,2.1-2c0.2-0.3,0.3-0.4,0.1-0.6l-1.4-1.4l-3.3,3.3l4.1,4.1
			l4-4l0.2-0.4L317.5,406.1z M319.1,418.8c0.1-1.1,0.1-2.2-0.1-3.3c-1.7-0.4-3.4-1.1-5.1-1.9L319.1,418.8z M314.6,411.5
			c1.2,0.6,2.4,1.1,3.7,1.4c-0.4-1.2-1-2.3-1.6-3.4L314.6,411.5z"/>
		<path class="st3" d="M327.8,382.8l15.4,15.4l-1.7,1.7l-6.8-6.8l-0.2,0.8c-0.7-0.5-1.7-1-2.7-1.4l8.1,8.1l-1.5,1.5l-6.3-6.3l-0.3,1
			c-0.7-0.5-1.7-1.1-2.8-1.7c3.2,3.2,6.1,6.5,7.2,10.3c-0.7,0-1.8,0.2-2.5,0.5c-0.7-2.6-2.4-5-4.4-7.2l-0.4,1.2
			c-1.1-0.8-2.8-1.9-4.3-2.7l9.5,9.5l-1.4,1.4l-0.8-0.8l-3.4,3.4l1,1l-1.4,1.4l-11.8-11.8l1.5-1.5l-1.6-1.6l-1.8,1.8l-1.6-1.6
			l6.6-6.6l1.6,1.6l-1.8,1.8l1.6,1.6l1.6-1.6l1.9,1.9l0.5-1.6c0.8,0.4,1.7,0.8,2.5,1.4l-0.1-0.1l-6.7-6.7l1.6-1.6l5.1,5.1l0.3-0.9
			c0.7,0.3,1.5,0.7,2.3,1.1l-6.2-6.2l1.5-1.5l4.6,4.6l0.2-0.6c0.8,0.3,1.6,0.6,2.4,0.9l-6.3-6.3L327.8,382.8z M319.1,398.5l0.5-0.5
			l-1.6-1.6l-0.5,0.5L319.1,398.5z M319.3,401.5l3.6,3.6c-0.2-1.1-1-2-1.7-2.7l-1.4-1.4L319.3,401.5z M330.3,405.8l-4-4l-0.5,0.5
			c-0.7,0.7-1.2,0.7-2.1-0.2l-2.4-2.4l-0.5,0.5l1.5,1.5c0.9,0.9,2,2.3,2.1,3.9c-0.2,0-0.6,0-1,0.1l3.6,3.6L330.3,405.8z
			 M322.7,398.1l-0.5,0.5l2.4,2.4c0.2,0.2,0.3,0.2,0.4,0.1l0.3-0.3l0.1-0.1L322.7,398.1z M324.9,406l2.3-2.3l1.4,1.4l-2.3,2.3
			L324.9,406z"/>
		<path class="st3" d="M349.5,380.3c-0.3-0.2-0.7-0.3-1.2-0.5c-3.6,4.5-4.2,5.2-4.4,5.8c-0.4-0.2-1.5-0.8-2.2-1.1
			c-0.5,1.7-1.1,3.5-1.6,5l-2.6-0.6c0.7-1.5,1.6-3.7,2.5-5.9l1.8,1.1l-0.1,0.5c0.3-0.5,0.5-1.2,0.6-2.3c0-0.5,0.1-1.4,0.2-2.5
			c-1.2,1.4-1.5,1.9-1.6,2.2c-0.5-0.3-1.5-0.8-2.1-1c0.2-0.3,0.3-0.8,0.2-1.4c0-0.3-0.1-1.1-0.3-2.1l-5.8,5.8l-1.8-1.8l6.3-6.3
			c-0.5-0.2-1.1-0.3-1.5-0.4l1.6-2.5c0.8,0.1,1.7,0.3,2.4,0.5l6-6l1.8,1.8l-7,7c0.2,0.9,0.3,1.8,0.3,2.7l1.5-1.6
			c-0.1-0.8-0.1-1.7-0.3-2.5l2.5-0.6c0.2,2.5,0.2,5.2-0.1,7.6l1.6-1.9c-0.5-0.1-1-0.2-1.4-0.3l1-2c0.6,0.1,1.3,0.2,1.9,0.3l0.2-2
			c1.7-0.5,4.1-1.1,5.5-1.2l-0.2,2.7c-1.2,0-3.1,0.4-4.7,0.7c0.8,0.2,1.5,0.5,2.1,0.7L349.5,380.3z M338.8,384.1
			c-1.1-0.1-3,0.3-4.4,0.6l0.3-2.4c1.3-0.4,3.3-0.8,4.4-0.8L338.8,384.1z M357.4,377.8l-6.7,6.7l3.1,3.1l-2.2,2.2l-3.1-3.1l-6.6,6.6
			l-1.9-1.9l6.6-6.6l-1.1-1.1l2.2-2.2l1.1,1.1l6.7-6.7L357.4,377.8z M345.7,375.2c0.2-1.2,0.2-3.1,0.1-4.3l2.6-0.7
			c0.1,1.5-0.1,3.2-0.3,4.4L345.7,375.2z"/>
		<path class="st3" d="M362,360.4c4.5,2.3,9.5,3.1,14,1.3c-0.1,0.9,0.1,2.5,0.4,3.4c-4.7,1.6-9.3,0.8-14.2-1.4
			c0.9,1.7,1.6,3.4,2,5.4l0.2-0.8c1.9-0.1,4.6-0.2,6,0.1l-0.5,3.1c-1.3-0.3-3.5-0.4-5.4-0.4c0.1,2.2-0.2,4.5-1.2,7.1
			c-0.8-0.2-2.2-0.3-3.2-0.2c2.4-6,1.1-10.6-1.4-14.3l-5.9,5.9l-2.1-2.1l6.2-6.2c-1.3-1.6-2.8-3-4.1-4.3l2.2-2.2
			c1.3,1.3,2.7,2.8,4,4.4l6.7-6.7l2.1,2.1L362,360.4z"/>
		<path class="st3" d="M369.1,342c0.7,1.6,1.4,3.4,1.9,5.1l11.6,11.6l-1.9,1.9l-8.6-8.6c0.1,0.8,0.2,1.7,0.2,2.4
			c-0.7-0.3-2.3-0.9-3.2-1c0-3.1-0.9-7-2.5-10.2L369.1,342z M383.9,342.2c3.5,2.7,6.1,4.3,6.7,3.8c0.2-0.2-0.3-1.2-1.6-2.6
			c0.7,0.1,1.9-0.2,2.4-0.3c2.3,3.1,2.2,4.5,1.5,5.2c-1.8,1.7-5.8-0.3-10.8-4.3l-3.3,3.3l3.6,3.6l2.1-3.4c0.5,0.6,1.3,1.3,1.7,1.7
			c-2.7,4.7-3.1,5.5-3.3,6.2c-0.6-0.4-1.7-0.8-2.3-0.9c0.2-0.5,0.3-1.3-0.4-2l-9.7-9.7c2.5-3.3,4.9-7.1,6.2-9.8h3
			c-0.6,1.2-1.3,2.4-2.1,3.7c1.5,1.4,2.9,2.7,4.3,3.8l3-3l1.9,1.9L383.9,342.2z M380,342.3c-1.2-1-2.5-2.2-3.9-3.4
			c-0.8,1.2-1.6,2.3-2.4,3.4l3.1,3.1L380,342.3z M384.1,353.3l4.5-4.5l1.6,1.6l-4.5,4.5L384.1,353.3z"/>
	</g>
	<g class="st2">
		<path class="st3" d="M390.5,399.1c-1.2,0-3.4,0.5-5,1l-0.4-2.6c1.5-0.6,3.6-1.2,4.9-1.2L390.5,399.1z M394.5,404.2
			c-1.2,0.1-3.4,0.7-5,1.3l-0.5-2.6c1.5-0.7,3.6-1.4,4.9-1.5L394.5,404.2z M405.6,393.1c-0.5-0.1-1.1-0.2-1.8-0.4
			c-5.9,6.7-6.7,7.7-7.1,8.6c-0.5-0.3-1.8-1-2.5-1.2c0.3-0.5,0.3-1.3,0.2-2.4c0-0.4-0.1-1.1-0.2-2.1L392,398l-1.8-1.8l3.4-3.4
			c-0.3-1.1-0.6-2.2-1-3.3l2.7-1.2c0.2,0.7,0.4,1.4,0.6,2.2l4.8-4.8l1.8,1.8l-2.3,2.3c2,0.2,4.5,0.4,6,0.7L405.6,393.1z
			 M398.4,404.4c0.9,2.7,1.7,5.7,2.4,8.3l-3.1,0.4c-0.4-2.2-1.2-5.6-2.1-8.6L398.4,404.4z M396.4,393.5c0.2,1.2,0.3,2.4,0.4,3.5
			l4.2-4.6c-0.6-0.1-1.3-0.2-1.8-0.2l0.5-1.9L396.4,393.5z M397.6,401l1.8-1.8l1.6,1.6c1.9,1.9,4,4.5,3.5,8.5
			c-0.7-0.1-2-0.1-2.8,0.1c0.5-3.3-1.1-5.4-2.6-6.8L397.6,401z M400.6,398.3l1.8-1.8l6.8,6.8l-1.8,1.8L400.6,398.3z M411.8,398.3
			c0.2-0.2,0.6-0.6,0.7-0.9c0.5,0.4,1.2,1,1.7,1.4c-0.2,0.4-0.5,0.7-0.8,1.1l-0.8,0.8c-1.6,1.6-2.6,1.2-4.2-0.4l-5-5l1.9-1.9l5,5
			c0.5,0.5,0.7,0.7,1,0.5L411.8,398.3z"/>
		<path class="st3" d="M416.6,387.5c-0.6-0.2-1.7-0.5-2.7-0.7l6.6,6.6l-2,2l-6.1-6.1c0.8,1.9,1.3,3.7,1.5,5.2c-0.8-0.4-2-0.8-2.9-1
			c-0.2-2.1-1-4.8-2-7.1l-2.2,2.2l-1.9-1.9l2.4-2.4l-2-2c-0.6,0.8-1.2,1.6-1.7,2.4c-0.5-0.3-1.5-0.8-2.1-1c1.6-2.2,3.2-4.8,4-6.8
			l2.9,0.2c-0.4,0.9-0.9,1.8-1.5,2.8l2.4,2.4l1.8-1.8l1.9,1.9l-1.8,1.8l0.5,0.5c0.8-0.1,3.7,0,4.4,0.1L416.6,387.5z M421.6,373.8
			l-7.9,7.9l-5.8-5.8l7.9-7.9L421.6,373.8z M415.5,371.6l-4,4l2.4,2.4l4-4L415.5,371.6z M429.5,380.2l1.8,1.8l-9.5,9.5l-1.8-1.8
			l3.9-3.9l-1.6-1.6l-3,3l-1.7-1.7l3-3l-1.4-1.4c-0.9,1.1-1.9,2.2-2.8,3.1c-0.5-0.4-1.4-0.8-2-1.1c2.5-2.8,5.2-6.2,6.6-8.5l2.8,0.3
			c-0.7,1.2-1.7,2.5-2.7,3.9l1.6,1.6l3-3l1.7,1.7l-3,3l1.6,1.6L429.5,380.2z"/>
		<path class="st3" d="M438.3,368.6l1.8,1.8c0.9,0.9,1.1,1.4,0.7,2.4c-0.4,0.9-1.2,1.7-2.3,2.9c-0.6-0.4-1.6-0.7-2.3-0.9
			c0.8-0.7,1.7-1.6,1.9-1.8c0.3-0.3,0.3-0.4,0.1-0.6l-1.6-1.6c-3.8,4.3-4.4,5.1-4.7,5.8c-0.4-0.3-1.3-0.8-1.9-1.1
			c0.6-0.7,1.1-1.5,1.7-2.8c0.2-0.4,0.6-1.2,1.1-2.2c-1.8,2-2.2,2.4-2.4,2.8c-0.3-0.2-1.3-0.7-1.8-1c0.4-0.5,0.8-1,1.2-1.8
			c0.2-0.4,0.6-1,1-1.9c-0.3,0.3-0.5,0.5-0.8,0.7c-0.3-0.2-0.8-0.5-1.2-0.7c0.5-0.4,1-0.8,1.2-1.1s0.3-0.4,0.3-0.6
			c0-0.1,0-0.1-0.1-0.2l-4.7,4.7c-0.4-0.6-1-1.4-1.6-2.2l-1.2,1.2l-1.1-1.1l1.3-1.3c-0.3-0.4-0.6-0.8-0.9-1.1c0,0.2,0,0.4-0.1,0.5
			c-0.6,0.1-1.7,0.3-2.2,0.5c0.3-1.7,0.2-3.5-0.4-5l1.9-1.2c0.1,0.2,0.2,0.5,0.3,0.7l4.8-4.8l1.1,1.1l-5.5,5.5
			c0,0.3,0.1,0.6,0.1,0.9l5.5-5.5c0,0,0.4,0.4,0.5,0.6c0.4,0.5,0.8,1,1.2,1.4l1-1l1.1,1.1L430,363c0.3,0.4,0.6,0.7,0.8,1l0.7-0.7
			l1,1l-0.9,0.9c0.1,0.3,0.2,0.4,0.3,0.6c0.2-0.4,0.3-0.9,0.5-1.3l2.1,0c-0.4,1-0.9,2.1-1.4,3.1l1.6-1.7c0.4-1.2,0.9-2.4,1.2-3.4
			l2.2,0.1c-0.8,2.3-1.8,4.6-2.9,6.8l4.1-4.6l-1.4,0.1l0.6-2.1c1.9-0.2,4.5-0.4,6.1-0.4l-0.6,2.3c-0.5,0-1.3,0-2.2,0L438.3,368.6z
			 M423.4,365.7l0.9,1.1l2-2c-0.6,0.2-1.3,0.5-1.9,0.7l-0.1-0.6L423.4,365.7z M425,367.7c0.3,0.4,0.6,0.8,0.9,1.2l2.1-2.1
			c-0.6,0.2-1.5,0.5-2.1,0.7l-0.1-0.6L425,367.7z M427.7,363.3c-0.3-0.3-0.6-0.7-0.9-1.1l-1.6,1.6c0.5-0.2,1.1-0.4,1.4-0.5l0.2,0.9
			L427.7,363.3z M429.3,365.4c-0.3-0.3-0.5-0.7-0.9-1.2l-1.7,1.7c0.6-0.2,1.2-0.4,1.5-0.5l0.1,0.9L429.3,365.4z M434.2,353.2
			c0.7,1.4,1.1,2.9,1.2,4.3c1.4-0.2,2.9-0.7,4.4-1.6c0,0.7,0.1,1.9,0.3,2.6c-1.5,0.8-3.1,1.2-4.8,1.4c-0.2,1.3-0.6,2.7-1.1,4
			c-0.5-0.2-1.7-0.3-2.4-0.3c0.6-1.3,1.1-2.5,1.3-3.8c-0.8-0.1-1.5-0.3-2.3-0.5c0.1,0.5,0.1,1,0,1.5c-0.6-0.1-1.8-0.1-2.5,0
			c0.2-1.8-0.4-3.9-1.4-5.7l2-1.3c0.2,0.4,0.4,0.7,0.6,1.1l4.3-4.3l1.4,1.4L434.2,353.2z M430.4,357.1c0.9,0.3,1.8,0.5,2.8,0.6
			c-0.1-0.9-0.3-1.8-0.7-2.7L430.4,357.1L430.4,357.1z M436.4,372.8c-0.3,2-1.2,4.5-2.1,6.4c-0.7,0-2,0-2.8,0.1
			c1.1-1.8,2.1-3.9,2.4-5.4L436.4,372.8z M441.2,366.4c1.7-0.8,4.2-1.8,5.8-2.2l-0.5,2.6c-1.3,0.3-3.9,1.2-5.8,2L441.2,366.4z"/>
		<path class="st3" d="M452.5,354.8c-1.4,2.6-2.9,5.3-4.1,7.4l-2.3-1.6c0.5-0.7,1-1.6,1.6-2.6l-4-4l-1.7,1.7l-1.9-1.9l1.7-1.7l-3-3
			L437,351l-1.9-1.9l5.6-5.6l1.9,1.9l-1.9,1.9l3,3l1.6-1.6l1.8,1.8l-1.6,1.6l3.5,3.5c0.5-0.8,0.9-1.6,1.3-2.4L452.5,354.8z
			 M445.1,345.2c-0.9-0.6-2.7-1.4-4.1-1.8l1.3-2.2c1.5,0.4,3.3,1.1,4.3,1.7l-1.2,2.1l2.2-2.2l-4-4l2-2l4,4l1.8-1.8
			c-0.7,0.2-1.4,0.5-1.9,0.7c-0.3-1.2-0.9-2.9-1.6-4.1l2.4-1.4c0.7,1.3,1.3,3,1.7,4.3l0.8-0.8l8.3,8.3l-8.4,8.4l-8.3-8.3
			L445.1,345.2z M448.6,346.4l4.3-4.3l-0.8-0.8l-4.3,4.3L448.6,346.4z M450.8,348.6l4.3-4.3l-0.8-0.8l-4.3,4.3L450.8,348.6z
			 M453.1,350.8l4.3-4.3l-0.8-0.8l-4.3,4.3L453.1,350.8z M457.2,351.4c0.1,2.1-0.5,4.8-1.3,6.8c-0.7,0-2.2,0.1-3,0.3
			c1-1.9,1.6-4.1,1.6-5.8L457.2,351.4z M459,348.2c2.1-0.5,4.7-0.9,6.3-0.9l-1.5,2.8c-1.3-0.1-3.6,0.2-5.6,0.5L459,348.2z"/>
	</g>
	<g class="st2">
		<path class="st3" d="M481.6,399.1l-4.5,4.5l8.6,8.6l-2,2L468.6,399l6.5-6.5L481.6,399.1z M472.3,398.6l0.9,0.9l2.6-2.6l-0.9-0.9
			L472.3,398.6z M478.1,399.3l-1-1l-2.6,2.6l1,1L478.1,399.3z M495.6,397.4c1.2,1.2,1.5,2,1.1,3c-0.4,1.1-1.5,2.2-3.1,3.9
			c-0.7-0.5-1.9-1.1-2.8-1.4c1.1-1,2.4-2.3,2.7-2.6c0.4-0.4,0.4-0.6,0-0.9l-6.1-6.1l-4.6,4.6l-6.6-6.6l6.6-6.6L495.6,397.4z
			 M479.8,391.1l0.9,0.9l2.7-2.7l-0.9-0.9L479.8,391.1z M485.8,391.7l-1-1l-2.7,2.7l1,1L485.8,391.7z"/>
		<path class="st3" d="M499.4,388.1c-0.7-0.3-1.8-0.8-2.9-1.2l7.3,7.3L502,396l-6.3-6.3c0.8,1.6,1.5,3.2,1.8,4.5
			c-0.7-0.3-1.8-0.7-2.6-0.9c-0.5-2.2-2-5.4-3.6-7.8l-1.7,1.7l-1.8-1.8l1.8-1.8l-3.5-3.5l1.8-1.8l3.5,3.5l1.5-1.5l1.8,1.8l-1.5,1.5
			l0.9,0.9c1.1,0.2,4.1,1,4.8,1.2L499.4,388.1z M503.9,380l-5.4,5.4l-8.2-8.2l5.3-5.3l1.4,1.4l-1.5,1.5l0.9,0.9l1.3-1.3l1.9,1.9
			c-0.6-1.8-2.1-4-3.6-5.9l2.1-1.5c0.5,0.7,1.1,1.5,1.6,2.2l2.6-2.6l1.7,1.7l-3,3c0.6,1.1,1.1,2.1,1.3,3c-0.5,0.1-1.6,0.2-2.3,0.4
			l1.4,1.4l-1.3,1.3l0.9,0.9l1.6-1.6L503.9,380z M493.2,377l0.9,0.9l0.8-0.8l-0.9-0.9L493.2,377z M495.4,379.2l1,1l2.1-2.1l-1-1
			L495.4,379.2z M498.6,382.4l0.8-0.8l-0.9-0.9l-0.8,0.8L498.6,382.4z M513.6,379.9l1.7,1.7l-10.8,10.8l-1.7-1.7l1.1-1.1l-4-4
			l8.8-8.8l4,4L513.6,379.9z M502.3,377.2l4.1-4.1l1.7,1.7l-4.1,4.1L502.3,377.2z M505.5,388l1-1l-2.5-2.5l-1,1L505.5,388z
			 M505.3,383.3l2.5,2.5l1-1l-2.5-2.5L505.3,383.3z M507.5,381.1l2.5,2.5l1-1l-2.5-2.5L507.5,381.1z"/>
		<path class="st3" d="M517,361.9c4.5,2.3,9.5,3.1,14,1.3c-0.1,0.9,0.1,2.5,0.4,3.4c-4.7,1.6-9.3,0.8-14.2-1.4
			c0.9,1.7,1.6,3.4,2,5.4l0.2-0.8c1.9-0.1,4.6-0.2,6,0.1l-0.5,3.1c-1.3-0.3-3.5-0.4-5.4-0.4c0.1,2.2-0.2,4.5-1.2,7.1
			c-0.8-0.2-2.2-0.3-3.2-0.2c2.4-6,1.1-10.6-1.4-14.3l-5.9,5.9l-2.1-2.1l6.2-6.2c-1.3-1.6-2.8-3-4.1-4.3l2.2-2.2
			c1.3,1.3,2.7,2.8,4,4.4l6.7-6.7l2.1,2.1L517,361.9z"/>
		<path class="st3" d="M535,334.4l1.7,1.7l-15,15l-1.7-1.7l6.5-6.5c-0.5-0.3-1.1-0.6-1.6-0.8l1.6-2.6c0.7,0.3,1.6,0.7,2.4,1
			L535,334.4z M539,342.4l-10.7,10.7l-3.6-3.6l10.7-10.7L539,342.4z M547,347.2c0.9,0.9,1,1.5,0.6,2.4c-0.4,0.8-1.3,1.7-2.5,2.9
			c-0.5-0.3-1.4-0.6-2-0.8l-4.9,4.9l0.7,0.7l-1.9,1.9l-4.5-4.5l7.4-7.4l3.8,3.8l-0.2,0.2c0.6-0.6,1.2-1.2,1.4-1.4
			c0.2-0.2,0.3-0.4,0.1-0.6l-4.1-4.1l-10.1,10.1l6,6l-2,2l-7.6-7.6l14.1-14.1L547,347.2z M534.6,342.3l-6.6,6.6l0.9,0.9l6.6-6.6
			L534.6,342.3z M539.7,350.4l-3.7,3.7l1,1l3.7-3.7L539.7,350.4z"/>
	</g>
	<g class="st2">
		<path class="st3" d="M85.1,397.9c0.9,1.4,1.7,2.8,2.5,4.3l3.2-3.2l7.8,7.8l-3.2,3.2l1.2,1.2l-1.7,1.7l-5.3-5.3
			c0.1,0.5,0.2,1.1,0.2,1.6c-0.6-0.5-2.3-1.4-3.1-1.7c-0.4-2.4-1.7-5.2-3.5-7.8l-1.8,1.8l-1.8-1.8l6.2-6.2l1.8,1.8L85.1,397.9z
			 M103.2,392.1l-1.8,1.8l7.1,7.1l-1.9,1.9l-7.1-7.1l-1.9,1.9c2.4,2.6,4.7,5.9,4.8,9.5c-0.7,0-2,0.2-2.7,0.4c-0.1-3-2.1-5.8-4-8
			l-1.6,1.6l-1.9-1.9l1.6-1.6l-4.2-4.2l-1.2,1.2l-1.9-1.9l8.3-8.3l1.9,1.9l-1.4,1.4l4.2,4.2l1.8-1.8L103.2,392.1z M90.8,402.5
			l-1.5,1.5l4.2,4.2l1.5-1.5L90.8,402.5z M97.6,393.9l-4.2-4.2l-1.9,1.9l4.2,4.2L97.6,393.9z"/>
		<path class="st3" d="M103.2,384.4l-2,2l-3.5-3.5l6.2-6.2c-0.5-0.3-1.1-0.6-1.6-0.8l1.8-2.5c0.6,0.3,1.4,0.7,2.1,1l6.2-6.2l3.3,3.3
			l-2.1,2.1l-1.5-1.5l-2.4,2.4l2.2,2.2c0.4,0.4,0.7,0.6,1.1,0.1l2.1-2.1c0.5-0.5,1.1-1.2,1.3-1.6c0.6,0.5,1.3,1.1,1.9,1.5
			c-0.2,0.4-0.8,1.1-1.4,1.7l-2.3,2.3c-1.9,1.9-3.1,1.7-4.7,0l-2.2-2.2l-1.7,1.7c2.1,2.7,2.6,5.1-0.5,9.8c-0.7-0.3-1.9-0.6-2.7-0.6
			c2.7-3.7,2.4-5.3,1.1-7.1l-2.2,2.2L103.2,384.4z M122.7,382.2c0.4-0.4,0.2-0.8-1.9-2.9c0.8-0.1,2-0.6,2.8-1c2.6,3,2.8,4.3,1.3,5.7
			l-1.6,1.6c-1.7,1.7-2.8,1.6-4.8-0.4l-2.2-2.2l-2.2,2.2c1.6,2.4,2.1,5.9-1.1,11.5c-0.8-0.2-2.2-0.3-3.2-0.3c2.6-4.4,2.8-7.1,2-8.9
			l-4.2,4.2l-1.9-1.9l4.4-4.4l-1.9-1.9l2.1-2.1l1.9,1.9l4.2-4.2l4,4c0.5,0.5,0.7,0.5,1.1,0.2L122.7,382.2z"/>
		<path class="st3" d="M125.7,360.5l1.9,1.9l5.5-5.5l5.7,5.7c1,1,1.4,1.8,1,2.8c-0.4,1-1.3,2-2.6,3.3c-0.7-0.5-1.8-1.1-2.7-1.3
			c0.9-0.8,1.9-1.8,2.1-2.1c0.3-0.3,0.3-0.4,0.1-0.7l-3.7-3.7l-3.4,3.4l7.6,7.6l-2.1,2.1l-7.6-7.6l-3.1,3.1l6,6l-2,2l-7.9-7.9
			l5.2-5.2l-1.9-1.9l-6.6,6.6l-2-2l6.8-6.8c-0.9-0.4-1.9-0.7-2.7-1l1.4-2.6c1.2,0.4,2.8,0.8,3.8,1.2l6.3-6.3l2,2L125.7,360.5z"/>
		<path class="st3" d="M147.1,347.6c0.1,0.4,0.2,0.8,0.3,1.3l6.9-6.9c0,0,0.4,0.5,0.7,0.7c3.1,3.5,4.2,5.2,4.2,6.1
			c0.1,0.7-0.2,1.2-0.5,1.7c-0.3,0.4-1,1.1-1.7,1.7c-0.5-0.4-1.4-1-2-1.1c0.6-0.5,1-0.9,1.3-1.2c0.2-0.2,0.3-0.4,0.3-0.7
			c0-0.5-0.7-1.6-2.5-3.8l-0.7,0.7c1.2,2.6,1.9,6,1.6,8.4c-0.7-0.1-1.8,0.1-2.5,0.3c0.5-2.1,0.1-4.8-0.7-7.1l-1,1
			c0.7,2.5,0.8,5.8,0.3,8.2c-0.7-0.1-1.7-0.1-2.5,0.1c0.6-1.9,0.7-4.4,0.4-6.5l-1,1c0,1.3-0.1,2.5-0.3,3.6c-0.6-0.1-1.8,0-2.5,0.1
			c-0.6,1.8-1.2,3.7-1.7,5.2l-2.8-1.3c0.4-0.8,0.8-1.8,1.3-2.9l-4.8-4.8l-1.7,1.7l-1.9-1.9l1.7-1.7l-3.3-3.3l1.9-1.9l3.3,3.3
			l1.6-1.6l1.9,1.9l-1.6,1.6l4,4l0.8-2l1.8,1.1c0.1-1.1,0-2.3-0.2-3.4l-1.9,1.9l-1.7-1.7l10.7-10.7l1.7,1.7L147.1,347.6z
			 M150.4,339.7l-8,8l-5.7-5.7l8-8L150.4,339.7z M144.1,337.2l-4.4,4.4l0.8,0.8l4.4-4.4L144.1,337.2z M146.3,339.4l-4.4,4.4l0.8,0.8
			l4.4-4.4L146.3,339.4z"/>
	</g>
	<g class="st2">
		<path class="st3" d="M157.2,405.3l-13.4,13.4l-4.2-4.2l13.4-13.4L157.2,405.3z M145,412.2l-2,2l1.2,1.2l2-2L145,412.2z
			 M161.5,417.3c2.4-1.2,5.1-2.4,6.8-3.1l-1.2,3.2c-1.6,0.5-4.3,1.6-6.7,2.8l0.5-2.3l-4.7,4.7l2.1-0.8c-0.5,2.4-1.9,5.4-3.2,7.7
			c-0.7-0.1-2.2-0.1-3,0c1.4-2,2.7-4.4,3.3-6.1l-2.6,2.6l-7.5-7.5l11.6-11.6l7.5,7.5L161.5,417.3z M148.7,408.4l-2.1,2.1l1.2,1.2
			l2.1-2.1L148.7,408.4z M149.5,418.6l7.4-7.4l-0.8-0.8l-7.4,7.4L149.5,418.6z M152.5,404.6l-2.1,2.1l1.2,1.2l2.1-2.1L152.5,404.6z
			 M151.5,420.6l7.4-7.4l-0.8-0.8l-7.4,7.4L151.5,420.6z M153.6,422.7l7.4-7.4l-0.8-0.8l-7.4,7.4L153.6,422.7z"/>
		<path class="st3" d="M163.6,393.4l-6.3,6.3l-1.3-1.3l6.3-6.3l-0.8-0.8l2-2l0.8,0.8l6.4-6.4l1.3,1.3l-6.4,6.4l0.5,0.5l5.3-5.3
			l1.2,1.2l-12.3,12.3l-1.2-1.2l5-5L163.6,393.4z M160.3,401.1l13.1-13.1l3,3L163.2,404L160.3,401.1z M163.9,401.1l2-2l-0.7-0.7
			l-2,2L163.9,401.1z M178.8,401.1c2.2-1.4,4.9-2.9,6.6-3.8l-1.5,3.3c-1.4,0.6-3.7,1.8-6,3.2l0.8-2.6l-5.1,5.1l2.2-0.8
			c-0.8,2.1-2.5,4.9-3.9,7c-0.7,0-2.1,0-2.8,0.1c1.5-1.9,3.1-4.1,4-5.8l-2.5,2.5l-5.9-5.9l11.3-11.3l5.9,5.9L178.8,401.1z
			 M167.6,397.5l2.1-2.1l-0.7-0.7l-2.1,2.1L167.6,397.5z M168.3,403.2l7.3-7.3l-0.6-0.6l-7.3,7.3L168.3,403.2z M169.9,404.8l7.3-7.3
			l-0.6-0.6l-7.3,7.3L169.9,404.8z M171.3,393.8l2.1-2.1l-0.7-0.7l-2.1,2.1L171.3,393.8z M171.5,406.4l7.3-7.3l-0.6-0.6l-7.3,7.3
			L171.5,406.4z"/>
		<path class="st3" d="M190,387.9l-3.4,3.4l1.5,1.5l-1.9,1.9l-13-13l5.3-5.3L190,387.9z M176.8,381.6l3,3l1.6-1.6l-3-3L176.8,381.6z
			 M187.1,372.8l1.6,1.6l3.4-3.4l1.7,1.7l-1.2,1.2l1.3,1.3l1.6-1.6l1.7,1.7l-1.6,1.6l3.7,3.7c1,1,1.3,1.7,0.9,2.6
			c-0.4,0.9-1.2,1.9-2.5,3.2c-0.6-0.5-1.7-1-2.5-1.3c0.8-0.8,1.8-1.7,2-2c0.3-0.3,0.3-0.4,0.1-0.7l-3.6-3.6l-5.9,5.9l-1.7-1.7
			l5.9-5.9l-1.3-1.3l-5.4,5.4l-1.7-1.7l3.3-3.3l-1.6-1.6l-3.8,3.8l-1.8-1.8l3.8-3.8l-1.8-1.8l2-2l1.8,1.8l3.8-3.8l1.8,1.8
			L187.1,372.8z M186.3,388l-3.2-3.2l-1.6,1.6l3.2,3.2L186.3,388z M190.3,382.9c1.5,0.1,3.6,0.4,4.8,0.7l-0.7,2.8
			c-1.1-0.3-3.2-0.7-4.8-0.9L190.3,382.9z"/>
		<path class="st3" d="M198.1,368.2l9.1,9.1l-2,2L190,364.1l6.5-6.5l6.1,6.1L198.1,368.2z M193.4,363.5l0.9,0.9l2.6-2.6l-0.9-0.9
			L193.4,363.5z M199.3,364.1l-1-1l-2.6,2.6l1,1L199.3,364.1z M217.1,362.5c1.1,1.1,1.5,1.9,1.1,2.9c-0.3,1-1.3,2-2.7,3.5
			c-0.5-0.4-1.3-0.8-2-1.1l-4.2,4.2l0.9,0.9l-1.8,1.8l-7.3-7.3l0.8-0.8l0,0l5.7-5.7l6,6c0.7-0.6,1.3-1.3,1.5-1.5
			c0.3-0.3,0.3-0.5,0-0.8l-6.6-6.6l-4.6,4.6l-6.2-6.2l6.7-6.7L217.1,362.5z M201,355.9l0.9,0.9l2.7-2.7l-0.9-0.9L201,355.9z
			 M207,356.5l-1-1l-2.7,2.7l1,1L207,356.5z M207.1,364.2l-2.8,2.8l1,1l2.8-2.8L207.1,364.2z M210.6,367.7l-1.1-1.1l-2.8,2.8
			l1.1,1.1L210.6,367.7z"/>
		<path class="st3" d="M225,350.8l-7.7,7.7l-1.5-1.5l3-3l-0.8-0.8l-2.6,2.6l-1.5-1.5l2.6-2.6l-0.7-0.7l-2.6,2.6l-6.4-6.4l7.2-7.2
			l6.4,6.4l-2.8,2.7l0.7,0.7l2.7-2.7l1.5,1.5l-2.7,2.7l0.8,0.8l3-3L225,350.8z M213.2,350.7l1.4-1.4l-3.7-3.7l-1.4,1.4l0.7,0.7
			l0.6-1c1,0.5,2.3,1.3,3,1.9l-0.6,1.2c-0.7-0.6-1.8-1.4-2.8-1.9L213.2,350.7z M213.6,342.9l-1.5,1.5l2.8,2.8
			c-0.4-0.9-1.1-2.2-1.7-3l1.1-0.5L213.6,342.9z M217.3,346.6l-2.4-2.4c0.4,1,0.9,2,1.2,2.7l-1,0.4l0.7,0.7L217.3,346.6z
			 M223.4,340.1l2.6,2.6l2.7-2.7l7.8,7.8l-1.9,1.9l-0.6-0.6l-3.1,3.1l0.6,0.6l-1.8,1.8l-1.2-1.2l-0.7,1.7c-0.9-0.6-2.5-1.3-3.9-1.6
			l0.8-1.6c1.3,0.3,2.8,0.8,3.7,1.4l-6.5-6.5l2.2-2.2l-7.9-7.9l2-2l3.5,3.5l3.3-3.3l1.9,1.9L223.4,340.1z M220.4,362.4
			c-0.3-1.3-1.2-2.9-2-4.1l1.8-0.8c0.8,1.3,1.8,2.9,2.1,4.1L220.4,362.4z M221.6,355.8c1.1,0.8,2.4,1.9,3.2,2.7l-1.1,1.4
			c-0.8-0.8-2.1-2-3.1-2.8L221.6,355.8z M223.2,353.9c1.2,0.6,2.6,1.4,3.5,2.1l-1,1.5c-0.8-0.7-2.3-1.6-3.5-2.2L223.2,353.9z
			 M228.6,343.7l-3.1,3.1l3.5,3.5l3.1-3.1L228.6,343.7z"/>
	</g>
	<g class="st2">
		<path class="st3" d="M250.9,387.2l13.6,13.6l-2.2,2.2l-0.8-0.8l-8.1,8.1l0.8,0.8l-2.1,2.1l-13.6-13.6l4.3-4.3
			c-0.5-0.9-1.2-1.9-1.8-2.7l2.7-2.2c0.4,0.9,0.8,1.9,1.2,2.8L250.9,387.2z M242.7,399.3l1.7,1.7l8.1-8.1l-1.7-1.7L242.7,399.3z
			 M246.3,402.9l1.7,1.7l8.1-8.1l-1.7-1.7L246.3,402.9z M259.7,400.3l-1.8-1.8l-8.1,8.1l1.8,1.8L259.7,400.3z"/>
		<path class="st3" d="M276.7,384.1c1.7-1.7,1.5-2.4-0.7-5c0.8-0.2,2.1-0.8,2.8-1.3c2.9,3.6,3,5.2,0,8.3l-5.5,5.5
			c-3.2,3.2-4.8,3.6-7.2,1.2l-6.1-6.1l9.7-9.7l-3.4-3.4l-9.9,9.9l-2.1-2.1l12-12l8.4,8.4l-2.2,2.2l-1-1l-7.6,7.6l4.1,4.1
			c0.9,0.9,1.4,0.7,3.2-1.1L276.7,384.1z"/>
		<path class="st3" d="M281.6,371l4.2,4.2c0.9,0.9,1.2,1.5,1.1,2.3c-0.2,0.8-0.7,1.5-1.7,2.5c-0.5-0.5-1.5-1-2.3-1.3
			c0.5-0.5,1-0.9,1.1-1.1c0.2-0.2,0.2-0.3,0-0.5l-3.5-3.5c-0.3,0.7-0.6,1.3-0.9,1.9l-2.4-1.5c0.4-0.7,0.8-1.5,1.4-2.4l-3-3l-1.6,1.6
			l-1.9-1.9l1.6-1.6l-3.2-3.2l1.9-1.9l3.2,3.2l1.4-1.4l1.9,1.9l-1.4,1.4l2.4,2.4l0.8-1.6l2.1,1.5L281.6,371z M286.9,356l-6.6,6.6
			l-3.9-3.9l6.6-6.6L286.9,356z M293.5,363.9c1.8-0.2,4.1-0.4,5.5-0.2l-0.1,2.6c-1.4-0.3-3.8-0.2-5.6,0l0.2-2.2l-1.6,1.6l4.1,4.1
			l-1.9,1.9l-4.1-4.1l-4.1,4.1l-1.6-1.6l4.1-4.1l-1-1l-3.9,3.9l-4-4l4.5-4.5l3.9,3.9l0.7-0.7l-3.9-3.9l4.6-4.6l4,4l-4,4l1,1l4.3-4.3
			l1.6,1.6L293.5,363.9z M282.5,355.3l-3.1,3.1l1.1,1.1l3.1-3.1L282.5,355.3z M283.6,363.2l-1.4,1.4l1.3,1.3l1.4-1.4L283.6,363.2z
			 M288.6,360.7l1.5-1.5l-1.3-1.3l-1.5,1.5L288.6,360.7z M290,368.6c0.3,2,0.4,4.5,0.2,6.2c-0.6,0-1.9,0-2.6,0.1
			c0.3-1.6,0.3-3.6,0.1-5.2L290,368.6z"/>
		<path class="st3" d="M297.2,348.6c-0.9,1-1.9,2.1-2.7,3c1.3,1.7,2.4,3.7,2.5,5.9c-0.6-0.1-1.8,0-2.3,0.2c0-1.7-0.8-3.2-1.7-4.4
			l-1.1,1.2l-1.5-1.3c0.4-0.4,0.8-0.9,1.3-1.4c-0.2-0.2-0.4-0.4-0.6-0.6l-3.1-3.1l2-2c-0.3-0.6-0.6-1.2-0.9-1.6l2-1.5
			c0.2,0.5,0.4,1,0.6,1.5l2.3-2.3l3.4,3.4l0.4-0.4l1.3,1.3l-0.4,0.4l2.4,2.4c0.7,0.7,0.9,1.2,0.7,1.9c-0.2,0.6-0.9,1.3-1.7,2.2
			c-0.5-0.3-1.2-0.7-1.7-0.9c0.5-0.5,1-1,1.2-1.1c0.2-0.2,0.2-0.3,0-0.5L297.2,348.6z M292.8,349.7c0.2,0.2,0.3,0.3,0.5,0.5l2.6-2.9
			l-2.2-2.2l-2.8,2.8L292.8,349.7z M292.4,346.7c0.8,0,1.9,0.1,2.5,0.3l-0.5,1.9c-0.6-0.3-1.6-0.5-2.5-0.5L292.4,346.7z
			 M298.6,344.8c-0.6-0.1-1.5-0.1-2-0.1c0.8-2,0.2-2.9-0.5-3.7l-1.1-1.1l4.6-4.6l1.8,1.9c0.4,0.4,0.5,0.5,0.8,0.2l0.9-0.9
			c0.3-0.3,0.7-0.7,0.8-1c0.4,0.4,1,0.9,1.5,1.3c-0.2,0.3-0.5,0.8-0.9,1.1l-1.1,1.1c-1.4,1.4-2.3,1.2-3.7-0.2l-0.4-0.4l-1.4,1.4
			c0.9,1,1.6,2.4,1.2,4.3l4.5-4.5l0.3-0.3l1.4-0.6c0.7,1.4,0.9,2.8,0.9,4.2c1.4-0.5,2.8-0.9,3.9-1.1l0.2,2.4
			c-1.2,0.2-2.8,0.6-4.5,1.2c-0.4,1.5-1.1,3-2.1,4.5c-0.5-0.3-1.7-0.5-2.3-0.5c0.7-1.1,1.4-2.1,1.8-3.1c-0.9,0.3-1.8,0.7-2.6,1.1
			l-0.1-1.9l-0.7,0.7L298.6,344.8z M295.8,350.5c0.8-0.1,1.9-0.1,2.5,0.1l-0.3,2c-0.6-0.2-1.7-0.4-2.6-0.3L295.8,350.5z M313,348.3
			l1.9-1.9l1.6,1.6L301,363.4l-1.6-1.6l1.9-1.9l-3.6-3.6l11.7-11.7L313,348.3z M301.1,344.9c0.9-0.4,2-0.8,3-1.3
			c0.1-0.6,0.1-1.2,0-1.8L301.1,344.9z M303.2,358.1l1.4-1.4l-2.1-2.1l-1.4,1.4L303.2,358.1z M304.4,352.8l2.1,2.1l1.4-1.4l-2.1-2.1
			L304.4,352.8z M307.6,349.6l2.1,2.1l1.4-1.4l-2.1-2.1L307.6,349.6z"/>
	</g>
	<line class="st0" x1="28.6" y1="321.9" x2="570.6" y2="321.9"/>
	<rect x="40.6" y="45.9" class="st1" width="58" height="274"/>
	<g class="st2">
		<path class="st3" d="M113.1,58.5l2.4-3.4c1.5,1.5,3.4,2.7,5.9,2.7c2.8,0,4.7-1.6,4.7-4.5c0-2.9-1.8-4.5-4.5-4.5
			c-1.6,0-2.4,0.4-4,1.4l-2.4-1.5l0.7-13h14.3v4.4h-9.7l-0.5,5.7c1.1-0.5,2-0.7,3.2-0.7c4.5,0,8.2,2.5,8.2,8.1c0,5.7-4.4,9-9.3,9
			C117.8,62.2,115,60.5,113.1,58.5z"/>
		<path class="st3" d="M134.3,58.5l2.4-3.4c1.5,1.5,3.4,2.7,5.9,2.7c2.8,0,4.7-1.6,4.7-4.5c0-2.9-1.8-4.5-4.5-4.5
			c-1.6,0-2.4,0.4-4,1.4l-2.4-1.5l0.7-13h14.3v4.4h-9.7l-0.5,5.7c1.1-0.5,2-0.7,3.2-0.7c4.5,0,8.2,2.5,8.2,8.1c0,5.7-4.4,9-9.3,9
			C139,62.2,136.2,60.5,134.3,58.5z"/>
		<path class="st3" d="M155.7,42.9c0-5.3,2.7-8.4,6.5-8.4c3.8,0,6.5,3.1,6.5,8.4c0,5.4-2.7,8.5-6.5,8.5
			C158.3,51.4,155.7,48.3,155.7,42.9z M164.9,42.9c0-3.9-1.2-5.4-2.8-5.4s-2.7,1.5-2.7,5.4c0,3.9,1.2,5.5,2.7,5.5
			S164.9,46.9,164.9,42.9z M177.5,34.5h3.1l-14.5,27.6h-3.1L177.5,34.5z M175,53.7c0-5.4,2.7-8.4,6.5-8.4c3.8,0,6.5,3.1,6.5,8.4
			c0,5.3-2.7,8.5-6.5,8.5C177.7,62.2,175,59,175,53.7z M184.3,53.7c0-3.9-1.2-5.4-2.8-5.4s-2.7,1.5-2.7,5.4c0,3.9,1.2,5.5,2.7,5.5
			S184.3,57.6,184.3,53.7z"/>
	</g>
	<g class="st2">
		<path class="st3" d="M190.1,135.5l2.5-3.3c1.6,1.5,3.5,2.7,5.9,2.7c2.7,0,4.5-1.3,4.5-3.5c0-2.5-1.5-4.1-7.3-4.1v-3.8
			c4.9,0,6.5-1.6,6.5-3.9c0-2-1.3-3.2-3.6-3.2c-1.9,0-3.5,0.9-5,2.4l-2.7-3.2c2.3-2,4.9-3.3,8-3.3c5.1,0,8.6,2.5,8.6,7
			c0,2.8-1.7,4.8-4.4,5.9v0.2c3,0.8,5.3,3,5.3,6.4c0,4.8-4.3,7.5-9.4,7.5C194.8,139.2,191.9,137.6,190.1,135.5z"/>
		<path class="st3" d="M224.1,117.2h-12v-4.4h17.7v3.2c-6,7.4-7,12.6-7.5,22.7H217C217.5,129.7,219.1,124.1,224.1,117.2z"/>
		<path class="st3" d="M232.7,119.9c0-5.3,2.7-8.4,6.5-8.4c3.8,0,6.5,3.1,6.5,8.4c0,5.4-2.7,8.5-6.5,8.5
			C235.3,128.4,232.7,125.3,232.7,119.9z M241.9,119.9c0-3.9-1.2-5.4-2.8-5.4s-2.7,1.5-2.7,5.4c0,3.9,1.2,5.5,2.7,5.5
			S241.9,123.9,241.9,119.9z M254.5,111.5h3.1l-14.5,27.6h-3.1L254.5,111.5z M252,130.7c0-5.4,2.7-8.4,6.5-8.4
			c3.8,0,6.5,3.1,6.5,8.4c0,5.3-2.7,8.5-6.5,8.5C254.7,139.2,252,136,252,130.7z M261.3,130.7c0-3.9-1.2-5.4-2.8-5.4
			s-2.7,1.5-2.7,5.4c0,3.9,1.2,5.5,2.7,5.5S261.3,134.6,261.3,130.7z"/>
	</g>
	<rect x="118" y="70.9" class="st1" width="58" height="249"/>
	<rect x="195.3" y="149.9" class="st1" width="58" height="170"/>
	<rect x="272.6" y="253.9" class="st1" width="58" height="66"/>
	<rect x="430.3" y="304.9" class="st1" width="58" height="15"/>
	<rect x="352" y="295.9" class="st1" width="58" height="24"/>
	<rect x="504.6" y="311.9" class="st1" width="58" height="8"/>
</g>
</svg>
