<?xml version="1.0" encoding="utf-8"?>
<!-- Generator: Adobe Illustrator 24.2.0, SVG Export Plug-In . SVG Version: 6.00 Build 0)  -->
<svg version="1.1" id="圖層_1" xmlns="http://www.w3.org/2000/svg" xmlns:xlink="http://www.w3.org/1999/xlink" x="0px" y="0px"
	 viewBox="0 0 851 484.5" style="enable-background:new 0 0 851 484.5;" xml:space="preserve">
<style type="text/css">
	.st0{fill:#204A7E;}
	.st1{fill:#C10001;}
	.st2{fill:none;stroke:#E5E5E5;stroke-miterlimit:10;}
	.st3{fill:none;}
	.st4{enable-background:new    ;}
</style>
<text transform="matrix(1 0 0 1 71.8234 787.5168)" style="font-family:'SourceHanSansTW-Bold-B5pc-H'; font-size:18px;">上漲天數</text>
<text transform="matrix(1 0 0 1 71.8237 815.0463)" style="font-family:'SourceHanSansTW-Bold-B5pc-H'; font-size:18px;">下跌天數 </text>
<rect x="44.4" y="772.5" class="st0" width="16.9" height="16.9"/>
<rect x="44.4" y="801.4" class="st1" width="16.9" height="16.9"/>
<g>
	<g>
		<line class="st2" x1="38.7" y1="755" x2="851" y2="755"/>
		<line class="st2" x1="38.7" y1="794.6" x2="851" y2="794.6"/>
		<line class="st2" x1="38.7" y1="834.2" x2="851" y2="834.2"/>
		<line class="st2" x1="38.7" y1="873.8" x2="851" y2="873.8"/>
		<line class="st2" x1="38.7" y1="913.4" x2="851" y2="913.4"/>
		<line class="st2" x1="38.7" y1="953" x2="851" y2="953"/>
	</g>
	<g>
		<rect x="58.1" y="906" class="st0" width="18.7" height="47"/>
		<rect x="81.6" y="906" class="st1" width="18.7" height="47"/>
	</g>
	<g>
		<rect x="139.6" y="858.3" class="st0" width="18.7" height="94.8"/>
		<rect x="163.1" y="858.3" class="st1" width="18.7" height="94.8"/>
	</g>
	<g>
		<rect x="221.2" y="913.4" class="st0" width="18.7" height="39.6"/>
		<rect x="244.6" y="934.1" class="st1" width="18.7" height="18.9"/>
	</g>
	<g>
		<rect x="544.5" y="933.6" class="st0" width="18.7" height="19.4"/>
		<rect x="567.9" y="917.9" class="st1" width="18.7" height="35.2"/>
	</g>
	<g>
		<rect x="625.5" y="826.6" class="st0" width="18.7" height="126.5"/>
		<rect x="648.9" y="794.6" class="st1" width="18.7" height="158.4"/>
	</g>
	<g>
		<rect x="707.5" y="850.6" class="st0" width="18.7" height="102.5"/>
		<rect x="731" y="879" class="st1" width="18.7" height="74"/>
	</g>
	<g>
		<rect x="788.5" y="925.6" class="st0" width="18.7" height="27.4"/>
		<rect x="812" y="913.4" class="st1" width="18.7" height="39.6"/>
	</g>
	<g>
		<rect x="382.5" y="949.7" class="st0" width="18.7" height="3.3"/>
	</g>
	
		<text transform="matrix(1 0 0 1 56.9257 894.9218)" class="st0" style="font-family:'SourceHanSansTW-Regular-B5pc-H'; font-size:19px;">12</text>
	
		<text transform="matrix(1 0 0 1 80.3963 894.9218)" class="st1" style="font-family:'SourceHanSansTW-Regular-B5pc-H'; font-size:19px;">12</text>
	<g>
		<text transform="matrix(1 0 0 1 -0.3839 761.4507)" style="font-family:'SourceHanSansTW-Regular-B5pc-H'; font-size:19px;">50</text>
	</g>
	<g>
		<text transform="matrix(1 0 0 1 -0.3839 800.7917)" style="font-family:'SourceHanSansTW-Regular-B5pc-H'; font-size:19px;">40</text>
	</g>
	<g>
		<text transform="matrix(1 0 0 1 -0.3839 840.1332)" style="font-family:'SourceHanSansTW-Regular-B5pc-H'; font-size:19px;">30</text>
	</g>
	<g>
		<text transform="matrix(1 0 0 1 -0.3839 879.4742)" style="font-family:'SourceHanSansTW-Regular-B5pc-H'; font-size:19px;">20</text>
	</g>
	<g>
		<text transform="matrix(1 0 0 1 -0.3839 918.8156)" style="font-family:'SourceHanSansTW-Regular-B5pc-H'; font-size:19px;">10</text>
	</g>
	<g>
		<text transform="matrix(1 0 0 1 10.1611 958.1566)" style="font-family:'SourceHanSansTW-Regular-B5pc-H'; font-size:19px;">0</text>
	</g>
	
		<text transform="matrix(1 0 0 1 138.2197 850.3331)" class="st0" style="font-family:'SourceHanSansTW-Regular-B5pc-H'; font-size:19px;">24</text>
	
		<text transform="matrix(1 0 0 1 161.9256 850.0978)" class="st1" style="font-family:'SourceHanSansTW-Regular-B5pc-H'; font-size:19px;">24</text>
	
		<text transform="matrix(1 0 0 1 219.3258 901.9214)" class="st0" style="font-family:'SourceHanSansTW-Regular-B5pc-H'; font-size:19px;">10</text>
	
		<text transform="matrix(1 0 0 1 248.7275 923.3332)" class="st1" style="font-family:'SourceHanSansTW-Regular-B5pc-H'; font-size:19px;">5</text>
	
		<text transform="matrix(1 0 0 1 306.9512 946.3332)" class="st0" style="font-family:'SourceHanSansTW-Regular-B5pc-H'; font-size:19px;">0</text>
	
		<text transform="matrix(1 0 0 1 331.0804 946.3332)" class="st1" style="font-family:'SourceHanSansTW-Regular-B5pc-H'; font-size:19px;">0</text>
	
		<text transform="matrix(1 0 0 1 468.1042 946.3332)" class="st0" style="font-family:'SourceHanSansTW-Regular-B5pc-H'; font-size:19px;">0</text>
	
		<text transform="matrix(1 0 0 1 492.2335 946.3332)" class="st1" style="font-family:'SourceHanSansTW-Regular-B5pc-H'; font-size:19px;">0</text>
	
		<text transform="matrix(1 0 0 1 548.5508 923.5685)" class="st0" style="font-family:'SourceHanSansTW-Regular-B5pc-H'; font-size:19px;">5</text>
	
		<text transform="matrix(1 0 0 1 572.6801 903.5685)" class="st1" style="font-family:'SourceHanSansTW-Regular-B5pc-H'; font-size:19px;">9</text>
	
		<text transform="matrix(1 0 0 1 624.2786 814.098)" class="st0" style="font-family:'SourceHanSansTW-Regular-B5pc-H'; font-size:19px;">32</text>
	
		<text transform="matrix(1 0 0 1 648.4079 781.6273)" class="st1" style="font-family:'SourceHanSansTW-Regular-B5pc-H'; font-size:19px;">40</text>
	
		<text transform="matrix(1 0 0 1 706.3377 839.8035)" class="st0" style="font-family:'SourceHanSansTW-Regular-B5pc-H'; font-size:19px;">26</text>
	
		<text transform="matrix(1 0 0 1 730.467 864.7447)" class="st1" style="font-family:'SourceHanSansTW-Regular-B5pc-H'; font-size:19px;">19</text>
	
		<text transform="matrix(1 0 0 1 792.6097 917.1566)" class="st0" style="font-family:'SourceHanSansTW-Regular-B5pc-H'; font-size:19px;">7</text>
	
		<text transform="matrix(1 0 0 1 811.4665 901.2742)" class="st1" style="font-family:'SourceHanSansTW-Regular-B5pc-H'; font-size:19px;">10</text>
	
		<text transform="matrix(1 0 0 1 386.1039 939.3333)" class="st0" style="font-family:'SourceHanSansTW-Regular-B5pc-H'; font-size:19px;">1</text>
	
		<text transform="matrix(1 0 0 1 410.7041 946.3332)" class="st1" style="font-family:'SourceHanSansTW-Regular-B5pc-H'; font-size:19px;">0</text>
	<g>
		<text transform="matrix(1 0 0 1 54.1687 991.3921)" style="font-family:'SourceHanSansTW-Regular-B5pc-H'; font-size:22px;">2001</text>
	</g>
	<g>
		<text transform="matrix(1 0 0 1 135.4104 991.3921)" style="font-family:'SourceHanSansTW-Regular-B5pc-H'; font-size:22px;">2002</text>
	</g>
	<g>
		<text transform="matrix(1 0 0 1 216.6522 991.3921)" style="font-family:'SourceHanSansTW-Regular-B5pc-H'; font-size:22px;">2003</text>
	</g>
	<g>
		<text transform="matrix(1 0 0 1 297.8942 991.3921)" style="font-family:'SourceHanSansTW-Regular-B5pc-H'; font-size:22px;">2004</text>
	</g>
	<g>
		<text transform="matrix(1 0 0 1 379.1359 991.3921)" style="font-family:'SourceHanSansTW-Regular-B5pc-H'; font-size:22px;">2005</text>
	</g>
	<g>
		<text transform="matrix(1 0 0 1 460.3777 991.3921)" style="font-family:'SourceHanSansTW-Regular-B5pc-H'; font-size:22px;">2006</text>
	</g>
	<g>
		<text transform="matrix(1 0 0 1 541.6194 991.3921)" style="font-family:'SourceHanSansTW-Regular-B5pc-H'; font-size:22px;">2007</text>
	</g>
	<g>
		<text transform="matrix(1 0 0 1 622.8611 991.3921)" style="font-family:'SourceHanSansTW-Regular-B5pc-H'; font-size:22px;">2008</text>
	</g>
	<g>
		<text transform="matrix(1 0 0 1 704.1029 991.3921)" style="font-family:'SourceHanSansTW-Regular-B5pc-H'; font-size:22px;">2009</text>
	</g>
	<g>
		<text transform="matrix(1 0 0 1 785.3452 991.3921)" style="font-family:'SourceHanSansTW-Regular-B5pc-H'; font-size:22px;">2010</text>
	</g>
</g>
<g>
	<g>
		<line class="st2" x1="38.7" y1="1057.2" x2="851" y2="1057.2"/>
		<line class="st2" x1="38.7" y1="1030.5" x2="851" y2="1030.5"/>
		<line class="st2" x1="38.7" y1="1083.9" x2="851" y2="1083.9"/>
		<line class="st2" x1="38.7" y1="1110.7" x2="851" y2="1110.7"/>
		<line class="st2" x1="38.7" y1="1137.4" x2="851" y2="1137.4"/>
		<line class="st2" x1="38.7" y1="1164.1" x2="851" y2="1164.1"/>
		<line class="st2" x1="38.7" y1="1190.8" x2="851" y2="1190.8"/>
	</g>
	<g>
		<rect x="58.1" y="1122.5" class="st0" width="18.7" height="68.4"/>
		<rect x="81.6" y="1090.2" class="st1" width="18.7" height="100.6"/>
	</g>
	<g>
		<rect x="139.6" y="1181.1" class="st0" width="18.7" height="9.7"/>
		<rect x="163.1" y="1181.2" class="st1" width="18.7" height="9.6"/>
	</g>
	<g>
		<rect x="221.2" y="1181.1" class="st0" width="18.7" height="9.7"/>
		<rect x="244.6" y="1186.9" class="st1" width="18.7" height="3.9"/>
	</g>
	<g>
		<rect x="625.5" y="1160.1" class="st0" width="18.7" height="30.8"/>
		<rect x="648.9" y="1110.7" class="st1" width="18.7" height="80.2"/>
	</g>
	<g>
		<rect x="707.5" y="1133.2" class="st0" width="18.7" height="57.6"/>
		<rect x="731" y="1083.9" class="st1" width="18.7" height="106.9"/>
	</g>
	<g>
		<rect x="788.5" y="1083.9" class="st0" width="18.7" height="106.9"/>
		<rect x="812" y="1083.9" class="st1" width="18.7" height="106.9"/>
	</g>
	<g>
		<line class="st3" x1="401.2" y1="1190.8" x2="382.5" y2="1190.8"/>
	</g>
	
		<text transform="matrix(1 0 0 1 56.9257 1111.3789)" class="st0" style="font-family:'SourceHanSansTW-Regular-B5pc-H'; font-size:19px;">13</text>
	
		<text transform="matrix(1 0 0 1 80.3963 1079.0848)" class="st1" style="font-family:'SourceHanSansTW-Regular-B5pc-H'; font-size:19px;">19</text>
	<g>
		<text transform="matrix(1 0 0 1 -0.3839 1088.6136)" style="font-family:'SourceHanSansTW-Regular-B5pc-H'; font-size:19px;">20</text>
	</g>
	<g>
		<text transform="matrix(1 0 0 1 -0.3839 1034.9371)" style="font-family:'SourceHanSansTW-Regular-B5pc-H'; font-size:19px;">30</text>
	</g>
	<g>
		<text transform="matrix(1 0 0 1 -0.3839 1142.2904)" style="font-family:'SourceHanSansTW-Regular-B5pc-H'; font-size:19px;">10</text>
	</g>
	<g>
		<text transform="matrix(1 0 0 1 10.1611 1195.9667)" style="font-family:'SourceHanSansTW-Regular-B5pc-H'; font-size:19px;">0</text>
	</g>
	
		<text transform="matrix(1 0 0 1 143.4921 1173.1727)" class="st0" style="font-family:'SourceHanSansTW-Regular-B5pc-H'; font-size:19px;">2</text>
	
		<text transform="matrix(1 0 0 1 167.1981 1173.0552)" class="st1" style="font-family:'SourceHanSansTW-Regular-B5pc-H'; font-size:19px;">2</text>
	
		<text transform="matrix(1 0 0 1 224.5982 1169.6082)" class="st0" style="font-family:'SourceHanSansTW-Regular-B5pc-H'; font-size:19px;">2</text>
	
		<text transform="matrix(1 0 0 1 248.7275 1176.1429)" class="st1" style="font-family:'SourceHanSansTW-Regular-B5pc-H'; font-size:19px;">1</text>
	<g>
		<rect x="300.2" y="1187.1" class="st0" width="18.7" height="3.7"/>
		<rect x="323.7" y="1186.9" class="st1" width="18.7" height="3.9"/>
	</g>
	
		<text transform="matrix(1 0 0 1 303.6471 1175.6082)" class="st0" style="font-family:'SourceHanSansTW-Regular-B5pc-H'; font-size:19px;">1</text>
	
		<text transform="matrix(1 0 0 1 327.7764 1176.1429)" class="st1" style="font-family:'SourceHanSansTW-Regular-B5pc-H'; font-size:19px;">1</text>
	<g>
		<rect x="381.4" y="1170.1" class="st0" width="18.7" height="20.7"/>
		<rect x="404.9" y="1164" class="st1" width="18.7" height="26.9"/>
	</g>
	
		<text transform="matrix(1 0 0 1 384.8236 1158.6082)" class="st0" style="font-family:'SourceHanSansTW-Regular-B5pc-H'; font-size:19px;">4</text>
	
		<text transform="matrix(1 0 0 1 408.9529 1153.226)" class="st1" style="font-family:'SourceHanSansTW-Regular-B5pc-H'; font-size:19px;">5</text>
	<g>
		<rect x="462.9" y="1170.1" class="st0" width="18.7" height="20.7"/>
		<rect x="486.4" y="1164" class="st1" width="18.7" height="26.9"/>
	</g>
	
		<text transform="matrix(1 0 0 1 466.353 1158.6082)" class="st0" style="font-family:'SourceHanSansTW-Regular-B5pc-H'; font-size:19px;">4</text>
	
		<text transform="matrix(1 0 0 1 490.4823 1153.226)" class="st1" style="font-family:'SourceHanSansTW-Regular-B5pc-H'; font-size:19px;">5</text>
	
		<text transform="matrix(1 0 0 1 548.5508 1186.2609)" class="st0" style="font-family:'SourceHanSansTW-Regular-B5pc-H'; font-size:19px;">0</text>
	
		<text transform="matrix(1 0 0 1 572.6801 1186.2609)" class="st1" style="font-family:'SourceHanSansTW-Regular-B5pc-H'; font-size:19px;">0</text>
	
		<text transform="matrix(1 0 0 1 629.5511 1147.614)" class="st0" style="font-family:'SourceHanSansTW-Regular-B5pc-H'; font-size:19px;">6</text>
	
		<text transform="matrix(1 0 0 1 648.4079 1103.3416)" class="st1" style="font-family:'SourceHanSansTW-Regular-B5pc-H'; font-size:19px;">15</text>
	
		<text transform="matrix(1 0 0 1 706.3377 1122.4447)" class="st0" style="font-family:'SourceHanSansTW-Regular-B5pc-H'; font-size:19px;">11</text>
	
		<text transform="matrix(1 0 0 1 730.467 1075.0847)" class="st1" style="font-family:'SourceHanSansTW-Regular-B5pc-H'; font-size:19px;">20</text>
	
		<text transform="matrix(1 0 0 1 787.3372 1075.4584)" class="st0" style="font-family:'SourceHanSansTW-Regular-B5pc-H'; font-size:19px;">20</text>
	
		<text transform="matrix(1 0 0 1 811.4665 1075.4586)" class="st1" style="font-family:'SourceHanSansTW-Regular-B5pc-H'; font-size:19px;">20</text>
	<g>
		<text transform="matrix(1 0 0 1 54.1687 1229.2021)" style="font-family:'SourceHanSansTW-Regular-B5pc-H'; font-size:22px;">2011</text>
	</g>
	<g>
		<text transform="matrix(1 0 0 1 135.4104 1229.2021)" style="font-family:'SourceHanSansTW-Regular-B5pc-H'; font-size:22px;">2012</text>
	</g>
	<g>
		<text transform="matrix(1 0 0 1 216.6522 1229.2021)" style="font-family:'SourceHanSansTW-Regular-B5pc-H'; font-size:22px;">2013</text>
	</g>
	<g>
		<text transform="matrix(1 0 0 1 297.8942 1229.2021)" style="font-family:'SourceHanSansTW-Regular-B5pc-H'; font-size:22px;">2014</text>
	</g>
	<g>
		<text transform="matrix(1 0 0 1 379.1359 1229.2021)" style="font-family:'SourceHanSansTW-Regular-B5pc-H'; font-size:22px;">2015</text>
	</g>
	<g>
		<text transform="matrix(1 0 0 1 460.3777 1229.2021)" style="font-family:'SourceHanSansTW-Regular-B5pc-H'; font-size:22px;">2016</text>
	</g>
	<g>
		<text transform="matrix(1 0 0 1 541.6194 1229.2021)" style="font-family:'SourceHanSansTW-Regular-B5pc-H'; font-size:22px;">2017</text>
	</g>
	<g>
		<text transform="matrix(1 0 0 1 622.8611 1229.2021)" style="font-family:'SourceHanSansTW-Regular-B5pc-H'; font-size:22px;">2018</text>
	</g>
	<g>
		<text transform="matrix(1 0 0 1 704.1029 1229.2021)" style="font-family:'SourceHanSansTW-Regular-B5pc-H'; font-size:22px;">2019</text>
	</g>
	<g>
		<text transform="matrix(1 0 0 1 785.3452 1229.2021)" style="font-family:'SourceHanSansTW-Regular-B5pc-H'; font-size:22px;">2020</text>
	</g>
</g>
<g class="st4">
	<path d="M89,38.8V41H72.7v-2.2h6.4V25.3h2.3v5.1h6.4v2.2h-6.4v6.2H89z"/>
	<path d="M92.8,33.4c-0.6-0.6-1.7-1.4-2.5-1.9l1-1.3c0.8,0.5,2,1.3,2.6,1.8L92.8,33.4z M90.5,40.6c0.6-1.4,1.5-3.6,2.1-5.6l1.5,1.1
		c-0.6,1.8-1.3,3.9-2,5.5L90.5,40.6z M92,25.4c0.8,0.6,1.8,1.6,2.3,2.3L93,28.9c-0.5-0.7-1.5-1.7-2.3-2.4L92,25.4z M94.6,25.6H99v6
		h-2.5c0,0.8-0.1,1.6-0.1,2.4H99c0,0,0,0.5,0,0.7c-0.2,4.1-0.5,5.7-0.9,6.2c-0.3,0.4-0.7,0.6-1.2,0.6c-0.4,0.1-1.1,0.1-1.8,0
		c0-0.5-0.2-1.2-0.5-1.6C95.2,40,95.7,40,96,40c0.3,0,0.4,0,0.5-0.2c0.3-0.3,0.5-1.4,0.6-4.1h-2.6c0.2-1.5,0.3-4,0.3-5.9h2.5v-2.4
		h-2.7V25.6z M107.4,36.4c-0.6,0.4-1.3,0.9-1.9,1.3c0.6,0.9,1.3,1.6,2.1,2.1c-0.4,0.4-1,1.1-1.2,1.6c-1.7-1.3-3.1-3.8-3.9-6.5h-0.9
		v4.3l2.1-0.7c0,0.5,0.1,1.2,0.3,1.6c-3.2,1.2-3.7,1.4-4.1,1.7v0l0,0c-0.1-0.5-0.4-1.5-0.6-2c0.3-0.1,0.6-0.4,0.6-1.1v-3.9h-0.6
		v-1.7h0.9v-7.3h6.8v1.7H102v0.9h4.3v1.5H102v0.9h4.4v1.5H102v0.9h5.1v1.7H104c0.2,0.5,0.4,1,0.6,1.5c0.5-0.4,1-0.8,1.3-1.2
		L107.4,36.4z"/>
	<path d="M118.4,33.9c1.3,2.9,3.6,5,7.1,5.9c-0.5,0.5-1.2,1.4-1.5,2c-3.4-1.1-5.6-3.2-7.1-6.1c-1,2.4-3,4.7-7.1,6.2
		c-0.3-0.5-0.9-1.4-1.4-1.9c4.2-1.5,5.9-3.8,6.7-6.1h-6v-2.2h6.5c0-0.5,0.1-0.9,0.1-1.4v-1.8h-5.9v-2.2h14.3v2.2h-6.1v1.9
		c0,0.4,0,0.9,0,1.4h6.9v2.2H118.4z"/>
	<path d="M142,30.3c-0.3,2.6-0.8,4.8-1.7,6.6c0.8,1.4,1.8,2.6,3.1,3.3c-0.5,0.4-1.1,1.1-1.4,1.7c-1.2-0.8-2.1-1.8-2.8-3.1
		c-1,1.3-2.2,2.4-3.9,3.2c-0.1-0.2-0.3-0.7-0.6-1l-0.5,0.5c-0.6-0.3-1.3-0.7-2.2-1c-1.1,0.6-2.7,1.2-5,1.5c-0.1-0.4-0.5-1-0.8-1.4
		c1.6-0.3,2.8-0.6,3.8-0.9c-0.8-0.3-1.7-0.5-2.5-0.7c0.3-0.4,0.7-0.9,1-1.4h-1.9V36h2.8c0.2-0.3,0.3-0.5,0.4-0.8h-2.5V32h3.2v-0.5
		h-2.9v-2h-1.2V28h1.2v-1.9h2.9v-1.1h1.6v1.1h3.1V28h0.9v1.5h-0.9v2h-3.1V32h3.3v0.7c1-2,1.7-4.9,2.2-7.7l1.8,0.3
		c-0.2,1-0.4,2-0.6,3h4.4v1.9H142z M129.2,34h1.4v-0.8h-1.4V34z M129.3,27.5v0.6h1.3v-0.6H129.3z M130.6,30.1v-0.7h-1.3v0.7H130.6z
		 M130.5,37.5c-0.1,0.2-0.3,0.4-0.4,0.6c0.6,0.2,1.2,0.3,1.7,0.5c0.5-0.4,0.8-0.8,0.9-1.1H130.5z M134.5,37.5
		c-0.1,0.6-0.4,1.2-1,1.8c0.6,0.3,1.1,0.5,1.6,0.7c1.4-0.8,2.4-1.8,3.2-3.1c-0.4-1.1-0.8-2.4-1.1-3.7c-0.2,0.6-0.5,1.1-0.7,1.5
		c-0.2-0.3-0.7-0.7-1-1.1v1.6h-3.8c-0.1,0.3-0.3,0.5-0.4,0.8h1.6v-0.5h1.7V36h1.5v1.4H134.5z M132.2,27.5v0.6h1.4v-0.6H132.2z
		 M133.6,30.1v-0.7h-1.4v0.7H133.6z M132.2,33.2V34h1.5v-0.8H132.2z M138.4,30.3c0.2,1.5,0.6,3,1,4.3c0.4-1.3,0.6-2.7,0.8-4.3H138.4
		z"/>
</g>
<g class="st4">
	<path d="M81.6,56.1v2.8l0.4-0.4c1.9,1,4.8,2.5,6.1,3.6l-1.6,2c-1-0.9-3.1-2.2-4.9-3.3v8.6h-2.3V56.1h-6.5v-2.2h16v2.2H81.6z"/>
	<path d="M97.3,66.7c-2.3,0.7-4.7,1.4-6.6,1.9l-0.5-2l0.8-0.2v-5.9h1.7V66l0.8-0.2v-6.6h-2.4v-5.9H97v5.9h-1.6v1.9H97V63h-1.6v2.4
		l1.6-0.5L97.3,66.7z M93,57.4H95v-2.3H93V57.4z M103.4,62.4c0.8,2.3,2.2,4.2,4.2,5.2c-0.5,0.4-1.2,1.2-1.5,1.8
		c-1.7-1-2.9-2.5-3.8-4.5c-0.7,1.8-2.1,3.4-4.3,4.6c-0.3-0.5-1-1.2-1.5-1.6c2.8-1.4,4-3.4,4.4-5.4h-3.6v-2h3.9c0-0.5,0-0.9,0-1.3
		v-1.4h-1.5c-0.2,0.9-0.5,1.7-0.9,2.3c-0.4-0.3-1.2-0.8-1.7-1c0.8-1.3,1.2-3.5,1.4-5.6l2,0.3c-0.1,0.7-0.2,1.3-0.3,2h1v-2.9h2.1v2.9
		h3.3v2h-3.3V59c0,0.5,0,0.9,0,1.3h3.7v2H103.4z"/>
	<path d="M118.4,61.4c1.3,2.9,3.6,5,7.1,5.9c-0.5,0.5-1.2,1.4-1.5,2c-3.4-1.1-5.6-3.2-7.1-6.1c-1,2.4-3,4.7-7.1,6.2
		c-0.3-0.5-0.9-1.4-1.4-1.9c4.2-1.5,5.9-3.8,6.7-6.1h-6v-2.2h6.5c0-0.5,0.1-0.9,0.1-1.4V56h-5.9v-2.2h14.3V56h-6.1v1.9
		c0,0.4,0,0.9,0,1.4h6.9v2.2H118.4z"/>
	<path d="M142,57.8c-0.3,2.6-0.8,4.8-1.7,6.6c0.8,1.4,1.8,2.6,3.1,3.3c-0.5,0.4-1.1,1.1-1.4,1.7c-1.2-0.8-2.1-1.8-2.8-3.1
		c-1,1.3-2.2,2.4-3.9,3.2c-0.1-0.2-0.3-0.7-0.6-1l-0.5,0.5c-0.6-0.3-1.3-0.7-2.2-1c-1.1,0.6-2.7,1.2-5,1.5c-0.1-0.4-0.5-1-0.8-1.4
		c1.6-0.3,2.8-0.6,3.8-0.9c-0.8-0.3-1.7-0.5-2.5-0.7c0.3-0.4,0.7-0.9,1-1.4h-1.9v-1.4h2.8c0.2-0.3,0.3-0.5,0.4-0.8h-2.5v-3.2h3.2V59
		h-2.9v-2h-1.2v-1.5h1.2v-1.9h2.9v-1.1h1.6v1.1h3.1v1.9h0.9V57h-0.9v2h-3.1v0.5h3.3v0.7c1-2,1.7-4.9,2.2-7.7l1.8,0.3
		c-0.2,1-0.4,2-0.6,3h4.4v1.9H142z M129.2,61.5h1.4v-0.8h-1.4V61.5z M129.3,55v0.6h1.3V55H129.3z M130.6,57.7v-0.7h-1.3v0.7H130.6z
		 M130.5,65c-0.1,0.2-0.3,0.4-0.4,0.6c0.6,0.2,1.2,0.3,1.7,0.5c0.5-0.4,0.8-0.8,0.9-1.1H130.5z M134.5,65c-0.1,0.6-0.4,1.2-1,1.8
		c0.6,0.3,1.1,0.5,1.6,0.7c1.4-0.8,2.4-1.8,3.2-3.1c-0.4-1.1-0.8-2.4-1.1-3.7c-0.2,0.6-0.5,1.1-0.7,1.5c-0.2-0.3-0.7-0.7-1-1.1v1.6
		h-3.8c-0.1,0.3-0.3,0.5-0.4,0.8h1.6V63h1.7v0.5h1.5V65H134.5z M132.2,55v0.6h1.4V55H132.2z M133.6,57.7v-0.7h-1.4v0.7H133.6z
		 M132.2,60.8v0.8h1.5v-0.8H132.2z M138.4,57.8c0.2,1.5,0.6,3,1,4.3c0.4-1.3,0.6-2.7,0.8-4.3H138.4z"/>
</g>
<rect x="44.4" y="25.3" class="st0" width="16.9" height="16.9"/>
<rect x="44.4" y="54.2" class="st1" width="16.9" height="16.9"/>
<g>
	<g>
		<line class="st2" x1="38.7" y1="7.8" x2="851" y2="7.8"/>
		<line class="st2" x1="38.7" y1="47.4" x2="851" y2="47.4"/>
		<line class="st2" x1="38.7" y1="87" x2="851" y2="87"/>
		<line class="st2" x1="38.7" y1="126.6" x2="851" y2="126.6"/>
		<line class="st2" x1="38.7" y1="166.2" x2="851" y2="166.2"/>
		<line class="st2" x1="38.7" y1="205.8" x2="851" y2="205.8"/>
	</g>
	<g>
		<rect x="58.1" y="158.8" class="st0" width="18.7" height="47"/>
		<rect x="81.6" y="158.8" class="st1" width="18.7" height="47"/>
	</g>
	<g>
		<rect x="139.6" y="111.1" class="st0" width="18.7" height="94.8"/>
		<rect x="163.1" y="111.1" class="st1" width="18.7" height="94.8"/>
	</g>
	<g>
		<rect x="221.2" y="166.2" class="st0" width="18.7" height="39.6"/>
		<rect x="244.6" y="186.9" class="st1" width="18.7" height="18.9"/>
	</g>
	<g>
		<rect x="544.5" y="186.4" class="st0" width="18.7" height="19.4"/>
		<rect x="567.9" y="170.7" class="st1" width="18.7" height="35.2"/>
	</g>
	<g>
		<rect x="625.5" y="79.4" class="st0" width="18.7" height="126.5"/>
		<rect x="648.9" y="47.4" class="st1" width="18.7" height="158.4"/>
	</g>
	<g>
		<rect x="707.5" y="103.4" class="st0" width="18.7" height="102.5"/>
		<rect x="731" y="131.8" class="st1" width="18.7" height="74"/>
	</g>
	<g>
		<rect x="788.5" y="178.4" class="st0" width="18.7" height="27.4"/>
		<rect x="812" y="166.2" class="st1" width="18.7" height="39.6"/>
	</g>
	<g>
		<rect x="382.5" y="202.5" class="st0" width="18.7" height="3.3"/>
	</g>
	<g class="st4">
		<path class="st0" d="M58.6,146.3h3.1v-10h-2.5v-1.1c1.2-0.2,2.1-0.5,2.9-1h1.3v12.1h2.8v1.4h-7.6V146.3z"/>
		<path class="st0" d="M68.3,146.7c4.1-4.1,6.4-6.5,6.4-8.7c0-1.5-0.8-2.6-2.6-2.6c-1.1,0-2.1,0.7-2.9,1.6l-1-1
			c1.1-1.2,2.3-2.1,4.1-2.1c2.5,0,4,1.6,4,4c0,2.5-2.3,5.1-5.5,8.5c0.7-0.1,1.6-0.1,2.3-0.1h3.9v1.5h-8.8V146.7z"/>
	</g>
	<g class="st4">
		<path class="st1" d="M82.1,146.3h3.1v-10h-2.5v-1.1c1.2-0.2,2.1-0.5,2.9-1h1.3v12.1h2.8v1.4h-7.6V146.3z"/>
		<path class="st1" d="M91.8,146.7c4.1-4.1,6.4-6.5,6.4-8.7c0-1.5-0.8-2.6-2.6-2.6c-1.1,0-2.1,0.7-2.9,1.6l-1-1
			c1.1-1.2,2.3-2.1,4.1-2.1c2.5,0,4,1.6,4,4c0,2.5-2.3,5.1-5.5,8.5c0.7-0.1,1.6-0.1,2.3-0.1h3.9v1.5h-8.8V146.7z"/>
	</g>
	<g>
		<g class="st4">
			<path d="M0.1,12.7L1,11.5c0.8,0.8,1.8,1.5,3.4,1.5c1.6,0,3-1.2,3-3.1S6.2,7,4.5,7C3.6,7,3,7.3,2.2,7.8L1.3,7.2l0.4-6.5h6.8v1.5
				H3.2l-0.3,4c0.6-0.3,1.2-0.6,2.1-0.6c2.3,0,4.2,1.3,4.2,4.3c0,2.9-2.2,4.6-4.6,4.6C2.4,14.5,1.1,13.6,0.1,12.7z"/>
			<path d="M11.1,7.4c0-4.5,1.7-7,4.4-7s4.3,2.5,4.3,7c0,4.5-1.6,7.1-4.3,7.1S11.1,12,11.1,7.4z M18.1,7.4c0-4-1.1-5.6-2.6-5.6
				c-1.6,0-2.7,1.6-2.7,5.6c0,4,1.1,5.7,2.7,5.7C17,13.1,18.1,11.4,18.1,7.4z"/>
		</g>
	</g>
	<g>
		<g class="st4">
			<path d="M6.1,49.8H0v-1.1L5.8,40h1.9v8.4h1.8v1.4H7.7v3.7H6.1V49.8z M6.1,48.5v-4c0-0.7,0.1-1.9,0.1-2.6H6.1
				c-0.3,0.6-0.7,1.2-1.1,1.9l-3.2,4.7H6.1z"/>
			<path d="M11.1,46.8c0-4.5,1.7-7,4.4-7s4.3,2.5,4.3,7c0,4.5-1.6,7.1-4.3,7.1S11.1,51.3,11.1,46.8z M18.1,46.8c0-4-1.1-5.6-2.6-5.6
				c-1.6,0-2.7,1.6-2.7,5.6c0,4,1.1,5.7,2.7,5.7C17,52.5,18.1,50.7,18.1,46.8z"/>
		</g>
	</g>
	<g>
		<g class="st4">
			<path d="M0.2,91.3L1,90.1c0.8,0.9,1.9,1.6,3.5,1.6c1.7,0,2.8-1,2.8-2.5c0-1.6-1.1-2.7-4.3-2.7v-1.3c2.9,0,3.9-1.1,3.9-2.5
				c0-1.3-0.9-2.1-2.4-2.1c-1.1,0-2.1,0.6-2.9,1.4l-0.9-1.1c1-1,2.3-1.7,3.9-1.7c2.3,0,4,1.2,4,3.4c0,1.6-1,2.7-2.5,3.2v0.1
				c1.6,0.4,2.9,1.6,2.9,3.5c0,2.4-2,3.9-4.5,3.9C2.4,93.2,1.1,92.3,0.2,91.3z"/>
			<path d="M11.1,86.1c0-4.5,1.7-7,4.4-7s4.3,2.5,4.3,7c0,4.5-1.6,7.1-4.3,7.1S11.1,90.7,11.1,86.1z M18.1,86.1c0-4-1.1-5.6-2.6-5.6
				c-1.6,0-2.7,1.6-2.7,5.6c0,4,1.1,5.7,2.7,5.7C17,91.8,18.1,90.1,18.1,86.1z"/>
		</g>
	</g>
	<g>
		<g class="st4">
			<path d="M0.5,131.2c4.1-4.1,6.4-6.5,6.4-8.7c0-1.5-0.8-2.6-2.6-2.6c-1.1,0-2.1,0.7-2.9,1.6l-1-1c1.1-1.2,2.3-2.1,4.1-2.1
				c2.5,0,4,1.6,4,4c0,2.5-2.3,5.1-5.5,8.5c0.7-0.1,1.6-0.1,2.3-0.1h3.9v1.5H0.5V131.2z"/>
			<path d="M11.1,125.5c0-4.5,1.7-7,4.4-7s4.3,2.5,4.3,7c0,4.5-1.6,7.1-4.3,7.1S11.1,130,11.1,125.5z M18.1,125.5
				c0-4-1.1-5.6-2.6-5.6c-1.6,0-2.7,1.6-2.7,5.6c0,4,1.1,5.7,2.7,5.7C17,131.1,18.1,129.4,18.1,125.5z"/>
		</g>
	</g>
	<g>
		<g class="st4">
			<path d="M1.3,170.2h3.1v-10H1.9v-1.1c1.2-0.2,2.1-0.5,2.9-1h1.3v12.1h2.8v1.4H1.3V170.2z"/>
			<path d="M11.1,164.8c0-4.5,1.7-7,4.4-7s4.3,2.5,4.3,7c0,4.5-1.6,7.1-4.3,7.1S11.1,169.3,11.1,164.8z M18.1,164.8
				c0-4-1.1-5.6-2.6-5.6c-1.6,0-2.7,1.6-2.7,5.6c0,4,1.1,5.7,2.7,5.7C17,170.5,18.1,168.8,18.1,164.8z"/>
		</g>
	</g>
	<g>
		<g class="st4">
			<path d="M11.1,204.1c0-4.5,1.7-7,4.4-7s4.3,2.5,4.3,7c0,4.5-1.6,7.1-4.3,7.1S11.1,208.7,11.1,204.1z M18.1,204.1
				c0-4-1.1-5.6-2.6-5.6c-1.6,0-2.7,1.6-2.7,5.6c0,4,1.1,5.7,2.7,5.7C17,209.8,18.1,208.1,18.1,204.1z"/>
		</g>
	</g>
	<g class="st4">
		<path class="st0" d="M139.1,102.1c4.1-4.1,6.4-6.5,6.4-8.7c0-1.5-0.8-2.6-2.6-2.6c-1.1,0-2.1,0.7-2.9,1.6l-1-1
			c1.1-1.2,2.3-2.1,4.1-2.1c2.5,0,4,1.6,4,4c0,2.5-2.3,5.1-5.5,8.5c0.7-0.1,1.6-0.1,2.3-0.1h3.9v1.5h-8.8V102.1z"/>
		<path class="st0" d="M155.2,99.4h-6.1v-1.1l5.8-8.7h1.9V98h1.8v1.4h-1.8v3.7h-1.6V99.4z M155.2,98v-4c0-0.7,0.1-1.9,0.1-2.6h-0.1
			c-0.3,0.6-0.7,1.2-1.1,1.9l-3.2,4.7H155.2z"/>
	</g>
	<g class="st4">
		<path class="st1" d="M162.8,101.9c4.1-4.1,6.4-6.5,6.4-8.7c0-1.5-0.8-2.6-2.6-2.6c-1.1,0-2.1,0.7-2.9,1.6l-1-1
			c1.1-1.2,2.3-2.1,4.1-2.1c2.5,0,4,1.6,4,4c0,2.5-2.3,5.1-5.5,8.5c0.7-0.1,1.6-0.1,2.3-0.1h3.9v1.5h-8.8V101.9z"/>
		<path class="st1" d="M178.9,99.2h-6.1V98l5.8-8.7h1.9v8.4h1.8v1.4h-1.8v3.7h-1.6V99.2z M178.9,97.8v-4c0-0.7,0.1-1.9,0.1-2.6h-0.1
			c-0.3,0.6-0.7,1.2-1.1,1.9l-3.2,4.7H178.9z"/>
	</g>
	<g class="st4">
		<path class="st0" d="M221,153.3h3.1v-10h-2.5v-1.1c1.2-0.2,2.1-0.5,2.9-1h1.3v12.1h2.8v1.4H221V153.3z"/>
		<path class="st0" d="M230.8,147.9c0-4.5,1.7-7,4.4-7s4.3,2.5,4.3,7c0,4.5-1.6,7.1-4.3,7.1S230.8,152.4,230.8,147.9z M237.8,147.9
			c0-4-1.1-5.6-2.6-5.6c-1.6,0-2.7,1.6-2.7,5.6c0,4,1.1,5.7,2.7,5.7C236.7,153.6,237.8,151.9,237.8,147.9z"/>
	</g>
	<g class="st4">
		<path class="st1" d="M249.3,174.5l0.9-1.1c0.8,0.8,1.8,1.5,3.4,1.5c1.6,0,3-1.2,3-3.1s-1.1-3-2.9-3c-0.9,0-1.5,0.3-2.3,0.8
			l-0.9-0.6l0.4-6.5h6.8v1.5h-5.3l-0.3,4c0.6-0.3,1.2-0.6,2.1-0.6c2.3,0,4.2,1.3,4.2,4.3c0,2.9-2.2,4.6-4.6,4.6
			C251.5,176.4,250.2,175.5,249.3,174.5z"/>
	</g>
	<g class="st4">
		<path class="st0" d="M307.9,192.3c0-4.5,1.7-7,4.4-7s4.3,2.5,4.3,7c0,4.5-1.6,7.1-4.3,7.1S307.9,196.9,307.9,192.3z M314.9,192.3
			c0-4-1.1-5.6-2.6-5.6c-1.6,0-2.7,1.6-2.7,5.6c0,4,1.1,5.7,2.7,5.7C313.8,198,314.9,196.3,314.9,192.3z"/>
	</g>
	<g class="st4">
		<path class="st1" d="M332,192.3c0-4.5,1.7-7,4.4-7s4.3,2.5,4.3,7c0,4.5-1.6,7.1-4.3,7.1S332,196.9,332,192.3z M339,192.3
			c0-4-1.1-5.6-2.6-5.6c-1.6,0-2.7,1.6-2.7,5.6c0,4,1.1,5.7,2.7,5.7C337.9,198,339,196.3,339,192.3z"/>
	</g>
	<g class="st4">
		<path class="st0" d="M469,192.3c0-4.5,1.7-7,4.4-7c2.7,0,4.3,2.5,4.3,7c0,4.5-1.6,7.1-4.3,7.1C470.7,199.4,469,196.9,469,192.3z
			 M476,192.3c0-4-1.1-5.6-2.6-5.6c-1.6,0-2.7,1.6-2.7,5.6c0,4,1.1,5.7,2.7,5.7C475,198,476,196.3,476,192.3z"/>
	</g>
	<g class="st4">
		<path class="st1" d="M493.2,192.3c0-4.5,1.7-7,4.4-7c2.7,0,4.3,2.5,4.3,7c0,4.5-1.6,7.1-4.3,7.1
			C494.8,199.4,493.2,196.9,493.2,192.3z M500.2,192.3c0-4-1.1-5.6-2.6-5.6c-1.6,0-2.7,1.6-2.7,5.6c0,4,1.1,5.7,2.7,5.7
			C499.1,198,500.2,196.3,500.2,192.3z"/>
	</g>
	<g class="st4">
		<path class="st0" d="M549.1,174.8l0.9-1.1c0.8,0.8,1.8,1.5,3.4,1.5c1.6,0,3-1.2,3-3.1s-1.1-3-2.9-3c-0.9,0-1.5,0.3-2.3,0.8
			l-0.9-0.6l0.4-6.5h6.8v1.5h-5.3l-0.3,4c0.6-0.3,1.2-0.6,2.1-0.6c2.3,0,4.2,1.3,4.2,4.3c0,2.9-2.2,4.6-4.6,4.6
			C551.3,176.6,550,175.7,549.1,174.8z"/>
	</g>
	<g class="st4">
		<path class="st1" d="M573.8,155.2l1-1.1c0.5,0.7,1.4,1.1,2.2,1.1c1.9,0,3.5-1.5,3.6-5.8c-0.9,1.1-2.1,1.7-3.2,1.7
			c-2.4,0-3.9-1.4-3.9-4.2c0-2.6,1.8-4.3,4-4.3c2.7,0,4.7,2.2,4.7,6.5c0,5.4-2.5,7.5-5.1,7.5C575.6,156.6,574.5,156,573.8,155.2z
			 M577.7,149.8c0.9,0,2-0.6,2.8-1.8c-0.2-2.6-1.3-4-3-4c-1.3,0-2.4,1.2-2.4,3C575.1,148.7,576,149.8,577.7,149.8z"/>
	</g>
	<g class="st4">
		<path class="st0" d="M624.8,65.2l0.9-1.1c0.8,0.9,1.9,1.6,3.5,1.6c1.7,0,2.8-1,2.8-2.5c0-1.6-1.1-2.7-4.3-2.7v-1.3
			c2.9,0,3.9-1.1,3.9-2.5c0-1.3-0.9-2.1-2.4-2.1c-1.1,0-2.1,0.6-2.9,1.4l-0.9-1.1c1-1,2.3-1.7,3.9-1.7c2.3,0,4,1.2,4,3.4
			c0,1.6-1,2.7-2.5,3.2v0.1c1.6,0.4,2.9,1.6,2.9,3.5c0,2.4-2,3.9-4.5,3.9C627.1,67.1,625.7,66.2,624.8,65.2z"/>
		<path class="st0" d="M635.7,65.9c4.1-4.1,6.4-6.5,6.4-8.7c0-1.5-0.8-2.6-2.6-2.6c-1.1,0-2.1,0.7-2.9,1.6l-1-1
			c1.1-1.2,2.3-2.1,4.1-2.1c2.5,0,4,1.6,4,4c0,2.5-2.3,5.1-5.5,8.5c0.7-0.1,1.6-0.1,2.3-0.1h3.9v1.5h-8.8V65.9z"/>
	</g>
	<g class="st4">
		<path class="st1" d="M654.9,30.7h-6.1v-1.1l5.8-8.7h1.9v8.4h1.8v1.4h-1.8v3.7h-1.6V30.7z M654.9,29.3v-4c0-0.7,0.1-1.9,0.1-2.6
			h-0.1c-0.3,0.6-0.7,1.2-1.1,1.9l-3.2,4.7H654.9z"/>
		<path class="st1" d="M659.9,27.6c0-4.5,1.7-7,4.4-7c2.7,0,4.3,2.5,4.3,7c0,4.5-1.6,7.1-4.3,7.1C661.5,34.7,659.9,32.1,659.9,27.6z
			 M666.9,27.6c0-4-1.1-5.6-2.6-5.6c-1.6,0-2.7,1.6-2.7,5.6c0,4,1.1,5.7,2.7,5.7C665.8,33.3,666.9,31.6,666.9,27.6z"/>
	</g>
	<g class="st4">
		<path class="st0" d="M707.2,91.6c4.1-4.1,6.4-6.5,6.4-8.7c0-1.5-0.8-2.6-2.6-2.6c-1.1,0-2.1,0.7-2.9,1.6l-1-1
			c1.1-1.2,2.3-2.1,4.1-2.1c2.5,0,4,1.6,4,4c0,2.5-2.3,5.1-5.5,8.5c0.7-0.1,1.6-0.1,2.3-0.1h3.9v1.5h-8.8V91.6z"/>
		<path class="st0" d="M717.9,86.4c0-5.5,2.5-7.5,5.2-7.5c1.4,0,2.5,0.6,3.2,1.4l-1,1.1c-0.6-0.7-1.4-1.1-2.2-1.1
			c-1.9,0-3.5,1.5-3.6,5.8c0.9-1,2.1-1.7,3.2-1.7c2.3,0,3.9,1.4,3.9,4.2c0,2.6-1.8,4.4-4,4.4C719.9,92.8,717.9,90.7,717.9,86.4z
			 M719.6,87.4c0.2,2.6,1.3,4.1,3,4.1c1.3,0,2.4-1.2,2.4-3c0-1.7-0.8-2.9-2.5-2.9C721.6,85.6,720.5,86.1,719.6,87.4z"/>
	</g>
	<g class="st4">
		<path class="st1" d="M732.1,116.1h3.1v-10h-2.5V105c1.2-0.2,2.1-0.5,2.9-1h1.3v12.1h2.8v1.4h-7.6V116.1z"/>
		<path class="st1" d="M742.1,116.4l1-1.1c0.5,0.7,1.4,1.1,2.2,1.1c1.9,0,3.5-1.5,3.6-5.8c-0.9,1.1-2.1,1.7-3.2,1.7
			c-2.4,0-3.9-1.4-3.9-4.2c0-2.6,1.8-4.3,4-4.3c2.7,0,4.7,2.2,4.7,6.5c0,5.4-2.5,7.5-5.1,7.5C743.9,117.8,742.9,117.2,742.1,116.4z
			 M746,111c0.9,0,2-0.6,2.8-1.8c-0.2-2.6-1.3-4-3-4c-1.3,0-2.4,1.2-2.4,3C743.5,109.8,744.3,111,746,111z"/>
	</g>
	<g class="st4">
		<path class="st0" d="M800.3,157.9h-6.7v-1.5h8.7v1.1c-3.2,4.1-3.9,7.2-4.1,12.5h-1.8C796.6,164.8,797.6,161.6,800.3,157.9z"/>
	</g>
	<g class="st4">
		<path class="st1" d="M813.1,152.6h3.1v-10h-2.5v-1.1c1.2-0.2,2.1-0.5,2.9-1h1.3v12.1h2.8v1.4h-7.6V152.6z"/>
		<path class="st1" d="M822.9,147.3c0-4.5,1.7-7,4.4-7c2.7,0,4.3,2.5,4.3,7c0,4.5-1.6,7.1-4.3,7.1
			C824.6,154.3,822.9,151.8,822.9,147.3z M829.9,147.3c0-4-1.1-5.6-2.6-5.6c-1.6,0-2.7,1.6-2.7,5.6c0,4,1.1,5.7,2.7,5.7
			C828.9,152.9,829.9,151.2,829.9,147.3z"/>
	</g>
	<g class="st4">
		<path class="st0" d="M387.8,190.7h3.1v-10h-2.5v-1.1c1.2-0.2,2.1-0.5,2.9-1h1.3v12.1h2.8v1.4h-7.6V190.7z"/>
	</g>
	<g class="st4">
		<path class="st1" d="M411.6,192.3c0-4.5,1.7-7,4.4-7s4.3,2.5,4.3,7c0,4.5-1.6,7.1-4.3,7.1S411.6,196.9,411.6,192.3z M418.6,192.3
			c0-4-1.1-5.6-2.6-5.6c-1.6,0-2.7,1.6-2.7,5.6c0,4,1.1,5.7,2.7,5.7C417.6,198,418.6,196.3,418.6,192.3z"/>
	</g>
	<g>
		<g class="st4">
			<path d="M55.1,243c4.7-4.7,7.4-7.5,7.4-10.1c0-1.8-1-3.1-3-3.1c-1.3,0-2.5,0.8-3.3,1.9l-1.2-1.1c1.3-1.4,2.7-2.4,4.8-2.4
				c2.9,0,4.7,1.8,4.7,4.6c0,2.9-2.7,5.9-6.4,9.8c0.8-0.1,1.8-0.2,2.6-0.2h4.6v1.7H55.1V243z"/>
			<path d="M67.5,236.3c0-5.3,1.9-8.1,5-8.1c3.1,0,5,2.8,5,8.1c0,5.3-1.9,8.2-5,8.2C69.4,244.5,67.5,241.6,67.5,236.3z M75.6,236.3
				c0-4.6-1.2-6.5-3.1-6.5c-1.8,0-3.1,1.9-3.1,6.5s1.2,6.6,3.1,6.6C74.3,242.9,75.6,240.9,75.6,236.3z"/>
			<path d="M79.7,236.3c0-5.3,1.9-8.1,5-8.1c3.1,0,5,2.8,5,8.1c0,5.3-1.9,8.2-5,8.2C81.6,244.5,79.7,241.6,79.7,236.3z M87.8,236.3
				c0-4.6-1.2-6.5-3.1-6.5c-1.8,0-3.1,1.9-3.1,6.5s1.2,6.6,3.1,6.6C86.5,242.9,87.8,240.9,87.8,236.3z"/>
			<path d="M92.7,242.5h3.6v-11.6h-2.9v-1.3c1.4-0.2,2.5-0.6,3.3-1.1h1.5v14h3.2v1.7h-8.8V242.5z"/>
		</g>
	</g>
	<g>
		<g class="st4">
			<path d="M136.4,243c4.7-4.7,7.4-7.5,7.4-10.1c0-1.8-1-3.1-3-3.1c-1.3,0-2.5,0.8-3.3,1.9l-1.2-1.1c1.3-1.4,2.7-2.4,4.8-2.4
				c2.9,0,4.7,1.8,4.7,4.6c0,2.9-2.7,5.9-6.4,9.8c0.8-0.1,1.8-0.2,2.6-0.2h4.6v1.7h-10.1V243z"/>
			<path d="M148.7,236.3c0-5.3,1.9-8.1,5-8.1c3.1,0,5,2.8,5,8.1c0,5.3-1.9,8.2-5,8.2C150.6,244.5,148.7,241.6,148.7,236.3z
				 M156.8,236.3c0-4.6-1.2-6.5-3.1-6.5c-1.8,0-3.1,1.9-3.1,6.5s1.2,6.6,3.1,6.6C155.6,242.9,156.8,240.9,156.8,236.3z"/>
			<path d="M160.9,236.3c0-5.3,1.9-8.1,5-8.1c3.1,0,5,2.8,5,8.1c0,5.3-1.9,8.2-5,8.2C162.8,244.5,160.9,241.6,160.9,236.3z
				 M169,236.3c0-4.6-1.2-6.5-3.1-6.5c-1.8,0-3.1,1.9-3.1,6.5s1.2,6.6,3.1,6.6C167.8,242.9,169,240.9,169,236.3z"/>
			<path d="M173,243c4.7-4.7,7.4-7.5,7.4-10.1c0-1.8-1-3.1-3-3.1c-1.3,0-2.5,0.8-3.3,1.9l-1.2-1.1c1.3-1.4,2.7-2.4,4.8-2.4
				c2.9,0,4.7,1.8,4.7,4.6c0,2.9-2.7,5.9-6.4,9.8c0.8-0.1,1.8-0.2,2.6-0.2h4.6v1.7H173V243z"/>
		</g>
	</g>
	<g>
		<g class="st4">
			<path d="M217.6,243c4.7-4.7,7.4-7.5,7.4-10.1c0-1.8-1-3.1-3-3.1c-1.3,0-2.5,0.8-3.3,1.9l-1.2-1.1c1.3-1.4,2.7-2.4,4.8-2.4
				c2.9,0,4.7,1.8,4.7,4.6c0,2.9-2.7,5.9-6.4,9.8c0.8-0.1,1.8-0.2,2.6-0.2h4.6v1.7h-10.1V243z"/>
			<path d="M229.9,236.3c0-5.3,1.9-8.1,5-8.1s5,2.8,5,8.1c0,5.3-1.9,8.2-5,8.2S229.9,241.6,229.9,236.3z M238,236.3
				c0-4.6-1.2-6.5-3.1-6.5c-1.8,0-3.1,1.9-3.1,6.5s1.2,6.6,3.1,6.6C236.8,242.9,238,240.9,238,236.3z"/>
			<path d="M242.2,236.3c0-5.3,1.9-8.1,5-8.1s5,2.8,5,8.1c0,5.3-1.9,8.2-5,8.2S242.2,241.6,242.2,236.3z M250.2,236.3
				c0-4.6-1.2-6.5-3.1-6.5c-1.8,0-3.1,1.9-3.1,6.5s1.2,6.6,3.1,6.6C249,242.9,250.2,240.9,250.2,236.3z"/>
			<path d="M253.9,242.3l1-1.3c0.9,1,2.2,1.8,4,1.8c1.9,0,3.3-1.1,3.3-2.9c0-1.9-1.3-3.1-5-3.1v-1.5c3.3,0,4.5-1.3,4.5-2.9
				c0-1.5-1.1-2.5-2.7-2.5c-1.3,0-2.4,0.7-3.3,1.6l-1.1-1.3c1.2-1.1,2.6-2,4.5-2c2.7,0,4.7,1.4,4.7,4c0,1.9-1.2,3.1-2.9,3.7v0.1
				c1.9,0.5,3.4,1.8,3.4,4c0,2.8-2.3,4.5-5.2,4.5C256.6,244.5,255,243.4,253.9,242.3z"/>
		</g>
	</g>
	<g>
		<g class="st4">
			<path d="M298.9,243c4.7-4.7,7.4-7.5,7.4-10.1c0-1.8-1-3.1-3-3.1c-1.3,0-2.5,0.8-3.3,1.9l-1.2-1.1c1.3-1.4,2.7-2.4,4.8-2.4
				c2.9,0,4.7,1.8,4.7,4.6c0,2.9-2.7,5.9-6.4,9.8c0.8-0.1,1.8-0.2,2.6-0.2h4.6v1.7h-10.1V243z"/>
			<path d="M311.2,236.3c0-5.3,1.9-8.1,5-8.1s5,2.8,5,8.1c0,5.3-1.9,8.2-5,8.2S311.2,241.6,311.2,236.3z M319.3,236.3
				c0-4.6-1.2-6.5-3.1-6.5c-1.8,0-3.1,1.9-3.1,6.5s1.2,6.6,3.1,6.6C318,242.9,319.3,240.9,319.3,236.3z"/>
			<path d="M323.4,236.3c0-5.3,1.9-8.1,5-8.1s5,2.8,5,8.1c0,5.3-1.9,8.2-5,8.2S323.4,241.6,323.4,236.3z M331.5,236.3
				c0-4.6-1.2-6.5-3.1-6.5c-1.8,0-3.1,1.9-3.1,6.5s1.2,6.6,3.1,6.6C330.3,242.9,331.5,240.9,331.5,236.3z"/>
			<path d="M342,239.9h-7v-1.3l6.7-10h2.2v9.7h2.1v1.6h-2.1v4.3H342V239.9z M342,238.3v-4.6c0-0.8,0.1-2.2,0.1-3H342
				c-0.4,0.7-0.8,1.4-1.3,2.2l-3.7,5.4H342z"/>
		</g>
	</g>
	<g>
		<g class="st4">
			<path d="M380.1,243c4.7-4.7,7.4-7.5,7.4-10.1c0-1.8-1-3.1-3-3.1c-1.3,0-2.5,0.8-3.3,1.9l-1.2-1.1c1.3-1.4,2.7-2.4,4.8-2.4
				c2.9,0,4.7,1.8,4.7,4.6c0,2.9-2.7,5.9-6.4,9.8c0.8-0.1,1.8-0.2,2.6-0.2h4.6v1.7h-10.1V243z"/>
			<path d="M392.4,236.3c0-5.3,1.9-8.1,5-8.1s5,2.8,5,8.1c0,5.3-1.9,8.2-5,8.2S392.4,241.6,392.4,236.3z M400.5,236.3
				c0-4.6-1.2-6.5-3.1-6.5c-1.8,0-3.1,1.9-3.1,6.5s1.2,6.6,3.1,6.6C399.3,242.9,400.5,240.9,400.5,236.3z"/>
			<path d="M404.6,236.3c0-5.3,1.9-8.1,5-8.1s5,2.8,5,8.1c0,5.3-1.9,8.2-5,8.2S404.6,241.6,404.6,236.3z M412.7,236.3
				c0-4.6-1.2-6.5-3.1-6.5c-1.8,0-3.1,1.9-3.1,6.5s1.2,6.6,3.1,6.6C411.5,242.9,412.7,240.9,412.7,236.3z"/>
			<path d="M416.4,242.3l1-1.3c0.9,0.9,2.1,1.8,4,1.8c1.9,0,3.4-1.4,3.4-3.6c0-2.2-1.3-3.5-3.3-3.5c-1.1,0-1.8,0.4-2.7,1l-1.1-0.7
				l0.5-7.5h7.9v1.7h-6.1l-0.4,4.7c0.7-0.4,1.4-0.7,2.4-0.7c2.7,0,4.9,1.5,4.9,4.9s-2.6,5.3-5.3,5.3
				C419,244.5,417.5,243.4,416.4,242.3z"/>
		</g>
	</g>
	<g>
		<g class="st4">
			<path d="M461.3,243c4.7-4.7,7.4-7.5,7.4-10.1c0-1.8-1-3.1-3-3.1c-1.3,0-2.5,0.8-3.3,1.9l-1.2-1.1c1.3-1.4,2.7-2.4,4.8-2.4
				c2.9,0,4.7,1.8,4.7,4.6c0,2.9-2.7,5.9-6.4,9.8c0.8-0.1,1.8-0.2,2.6-0.2h4.6v1.7h-10.1V243z"/>
			<path d="M473.7,236.3c0-5.3,1.9-8.1,5-8.1c3.1,0,5,2.8,5,8.1c0,5.3-1.9,8.2-5,8.2C475.6,244.5,473.7,241.6,473.7,236.3z
				 M481.8,236.3c0-4.6-1.2-6.5-3.1-6.5c-1.8,0-3.1,1.9-3.1,6.5s1.2,6.6,3.1,6.6C480.5,242.9,481.8,240.9,481.8,236.3z"/>
			<path d="M485.9,236.3c0-5.3,1.9-8.1,5-8.1c3.1,0,5,2.8,5,8.1c0,5.3-1.9,8.2-5,8.2C487.8,244.5,485.9,241.6,485.9,236.3z
				 M494,236.3c0-4.6-1.2-6.5-3.1-6.5c-1.8,0-3.1,1.9-3.1,6.5s1.2,6.6,3.1,6.6C492.7,242.9,494,240.9,494,236.3z"/>
			<path d="M498.2,237c0-6.3,2.8-8.7,6-8.7c1.7,0,2.9,0.7,3.8,1.7l-1.1,1.3c-0.6-0.8-1.6-1.2-2.6-1.2c-2.2,0-4.1,1.7-4.2,6.7
				c1-1.2,2.4-2,3.7-2c2.7,0,4.5,1.6,4.5,4.8c0,3-2.1,5-4.6,5C500.5,244.5,498.2,242,498.2,237z M500.1,238.2
				c0.3,3.1,1.5,4.7,3.5,4.7c1.6,0,2.8-1.4,2.8-3.5c0-2-1-3.3-2.9-3.3C502.4,236.1,501.2,236.7,500.1,238.2z"/>
		</g>
	</g>
	<g>
		<g class="st4">
			<path d="M542.6,243c4.7-4.7,7.4-7.5,7.4-10.1c0-1.8-1-3.1-3-3.1c-1.3,0-2.5,0.8-3.3,1.9l-1.2-1.1c1.3-1.4,2.7-2.4,4.8-2.4
				c2.9,0,4.7,1.8,4.7,4.6c0,2.9-2.7,5.9-6.4,9.8c0.8-0.1,1.8-0.2,2.6-0.2h4.6v1.7h-10.1V243z"/>
			<path d="M554.9,236.3c0-5.3,1.9-8.1,5-8.1c3.1,0,5,2.8,5,8.1c0,5.3-1.9,8.2-5,8.2C556.8,244.5,554.9,241.6,554.9,236.3z
				 M563,236.3c0-4.6-1.2-6.5-3.1-6.5c-1.8,0-3.1,1.9-3.1,6.5s1.2,6.6,3.1,6.6C561.8,242.9,563,240.9,563,236.3z"/>
			<path d="M567.1,236.3c0-5.3,1.9-8.1,5-8.1c3.1,0,5,2.8,5,8.1c0,5.3-1.9,8.2-5,8.2C569,244.5,567.1,241.6,567.1,236.3z
				 M575.2,236.3c0-4.6-1.2-6.5-3.1-6.5c-1.8,0-3.1,1.9-3.1,6.5s1.2,6.6,3.1,6.6C574,242.9,575.2,240.9,575.2,236.3z"/>
			<path d="M587.1,230.2h-7.8v-1.7h10.1v1.2c-3.7,4.8-4.5,8.3-4.7,14.5h-2.1C582.9,238.3,584.1,234.5,587.1,230.2z"/>
		</g>
	</g>
	<g>
		<g class="st4">
			<path d="M623.8,243c4.7-4.7,7.4-7.5,7.4-10.1c0-1.8-1-3.1-3-3.1c-1.3,0-2.5,0.8-3.3,1.9l-1.2-1.1c1.3-1.4,2.7-2.4,4.8-2.4
				c2.9,0,4.7,1.8,4.7,4.6c0,2.9-2.7,5.9-6.4,9.8c0.8-0.1,1.8-0.2,2.6-0.2h4.6v1.7h-10.1V243z"/>
			<path d="M636.1,236.3c0-5.3,1.9-8.1,5-8.1c3.1,0,5,2.8,5,8.1c0,5.3-1.9,8.2-5,8.2C638.1,244.5,636.1,241.6,636.1,236.3z
				 M644.2,236.3c0-4.6-1.2-6.5-3.1-6.5c-1.8,0-3.1,1.9-3.1,6.5s1.2,6.6,3.1,6.6C643,242.9,644.2,240.9,644.2,236.3z"/>
			<path d="M648.4,236.3c0-5.3,1.9-8.1,5-8.1c3.1,0,5,2.8,5,8.1c0,5.3-1.9,8.2-5,8.2C650.3,244.5,648.4,241.6,648.4,236.3z
				 M656.5,236.3c0-4.6-1.2-6.5-3.1-6.5c-1.8,0-3.1,1.9-3.1,6.5s1.2,6.6,3.1,6.6C655.2,242.9,656.5,240.9,656.5,236.3z"/>
			<path d="M660.5,240.2c0-2,1.5-3.5,3-4.2v-0.1c-1.2-0.8-2.2-2-2.2-3.6c0-2.4,1.9-4,4.4-4c2.8,0,4.4,1.7,4.4,4.2
				c0,1.7-1.2,3.1-2.2,3.8v0.1c1.4,0.8,2.7,1.9,2.7,4c0,2.4-2,4.2-5.1,4.2C662.7,244.5,660.5,242.7,660.5,240.2z M668.8,240.3
				c0-2-2-2.8-4.3-3.7c-1.3,0.8-2.2,2-2.2,3.4c0,1.7,1.4,3,3.4,3C667.5,243,668.8,241.9,668.8,240.3z M668.4,232.5
				c0-1.5-1-2.8-2.7-2.8c-1.5,0-2.6,1-2.6,2.5c0,1.9,1.7,2.7,3.6,3.4C667.8,234.7,668.4,233.7,668.4,232.5z"/>
		</g>
	</g>
	<g>
		<g class="st4">
			<path d="M705.1,243c4.7-4.7,7.4-7.5,7.4-10.1c0-1.8-1-3.1-3-3.1c-1.3,0-2.5,0.8-3.3,1.9l-1.2-1.1c1.3-1.4,2.7-2.4,4.8-2.4
				c2.9,0,4.7,1.8,4.7,4.6c0,2.9-2.7,5.9-6.4,9.8c0.8-0.1,1.8-0.2,2.6-0.2h4.6v1.7h-10.1V243z"/>
			<path d="M717.4,236.3c0-5.3,1.9-8.1,5-8.1c3.1,0,5,2.8,5,8.1c0,5.3-1.9,8.2-5,8.2C719.3,244.5,717.4,241.6,717.4,236.3z
				 M725.5,236.3c0-4.6-1.2-6.5-3.1-6.5c-1.8,0-3.1,1.9-3.1,6.5s1.2,6.6,3.1,6.6C724.3,242.9,725.5,240.9,725.5,236.3z"/>
			<path d="M729.6,236.3c0-5.3,1.9-8.1,5-8.1c3.1,0,5,2.8,5,8.1c0,5.3-1.9,8.2-5,8.2C731.5,244.5,729.6,241.6,729.6,236.3z
				 M737.7,236.3c0-4.6-1.2-6.5-3.1-6.5c-1.8,0-3.1,1.9-3.1,6.5s1.2,6.6,3.1,6.6C736.5,242.9,737.7,240.9,737.7,236.3z"/>
			<path d="M742,242.8l1.1-1.3c0.6,0.8,1.6,1.2,2.6,1.2c2.2,0,4.1-1.7,4.2-6.7c-1,1.3-2.4,2-3.7,2c-2.7,0-4.5-1.7-4.5-4.9
				c0-3,2.1-5,4.6-5c3.1,0,5.4,2.5,5.4,7.5c0,6.3-2.8,8.7-6,8.7C744.1,244.5,742.9,243.8,742,242.8z M746.5,236.6
				c1,0,2.3-0.6,3.3-2.1c-0.3-3-1.5-4.7-3.5-4.7c-1.5,0-2.7,1.4-2.7,3.4C743.6,235.3,744.6,236.6,746.5,236.6z"/>
		</g>
	</g>
	<g>
		<g class="st4">
			<path d="M786.3,243c4.7-4.7,7.4-7.5,7.4-10.1c0-1.8-1-3.1-3-3.1c-1.3,0-2.5,0.8-3.3,1.9l-1.2-1.1c1.3-1.4,2.7-2.4,4.8-2.4
				c2.9,0,4.7,1.8,4.7,4.6c0,2.9-2.7,5.9-6.4,9.8c0.8-0.1,1.8-0.2,2.6-0.2h4.6v1.7h-10.1V243z"/>
			<path d="M798.6,236.3c0-5.3,1.9-8.1,5-8.1s5,2.8,5,8.1c0,5.3-1.9,8.2-5,8.2S798.6,241.6,798.6,236.3z M806.7,236.3
				c0-4.6-1.2-6.5-3.1-6.5c-1.8,0-3.1,1.9-3.1,6.5s1.2,6.6,3.1,6.6C805.5,242.9,806.7,240.9,806.7,236.3z"/>
			<path d="M811.7,242.5h3.6v-11.6h-2.9v-1.3c1.4-0.2,2.5-0.6,3.3-1.1h1.5v14h3.2v1.7h-8.8V242.5z"/>
			<path d="M823.1,236.3c0-5.3,1.9-8.1,5-8.1c3.1,0,5,2.8,5,8.1c0,5.3-1.9,8.2-5,8.2C825,244.5,823.1,241.6,823.1,236.3z
				 M831.2,236.3c0-4.6-1.2-6.5-3.1-6.5c-1.8,0-3.1,1.9-3.1,6.5s1.2,6.6,3.1,6.6C829.9,242.9,831.2,240.9,831.2,236.3z"/>
		</g>
	</g>
</g>
<g>
	<g>
		<line class="st2" x1="38.7" y1="310" x2="851" y2="310"/>
		<line class="st2" x1="38.7" y1="283.3" x2="851" y2="283.3"/>
		<line class="st2" x1="38.7" y1="336.7" x2="851" y2="336.7"/>
		<line class="st2" x1="38.7" y1="363.5" x2="851" y2="363.5"/>
		<line class="st2" x1="38.7" y1="390.2" x2="851" y2="390.2"/>
		<line class="st2" x1="38.7" y1="416.9" x2="851" y2="416.9"/>
		<line class="st2" x1="38.7" y1="443.6" x2="851" y2="443.6"/>
	</g>
	<g>
		<rect x="58.1" y="375.3" class="st0" width="18.7" height="68.4"/>
		<rect x="81.6" y="343" class="st1" width="18.7" height="100.6"/>
	</g>
	<g>
		<rect x="139.6" y="433.9" class="st0" width="18.7" height="9.7"/>
		<rect x="163.1" y="434" class="st1" width="18.7" height="9.6"/>
	</g>
	<g>
		<rect x="221.2" y="433.9" class="st0" width="18.7" height="9.7"/>
		<rect x="244.6" y="439.7" class="st1" width="18.7" height="3.9"/>
	</g>
	<g>
		<rect x="625.5" y="412.9" class="st0" width="18.7" height="30.8"/>
		<rect x="648.9" y="363.5" class="st1" width="18.7" height="80.2"/>
	</g>
	<g>
		<rect x="707.5" y="386" class="st0" width="18.7" height="57.6"/>
		<rect x="731" y="336.7" class="st1" width="18.7" height="106.9"/>
	</g>
	<g>
		<rect x="788.5" y="336.7" class="st0" width="18.7" height="106.9"/>
		<rect x="812" y="336.7" class="st1" width="18.7" height="106.9"/>
	</g>
	<g>
		<line class="st3" x1="401.2" y1="443.6" x2="382.5" y2="443.6"/>
	</g>
	<g class="st4">
		<path class="st0" d="M58.6,362.7h3.1v-10h-2.5v-1.1c1.2-0.2,2.1-0.5,2.9-1h1.3v12.1h2.8v1.4h-7.6V362.7z"/>
		<path class="st0" d="M68,362.5l0.9-1.1c0.8,0.9,1.9,1.6,3.5,1.6c1.7,0,2.8-1,2.8-2.5c0-1.6-1.1-2.7-4.3-2.7v-1.3
			c2.9,0,3.9-1.1,3.9-2.5c0-1.3-0.9-2.1-2.4-2.1c-1.1,0-2.1,0.6-2.9,1.4l-0.9-1.1c1-1,2.3-1.7,3.9-1.7c2.3,0,4,1.2,4,3.4
			c0,1.6-1,2.7-2.5,3.2v0.1c1.6,0.4,2.9,1.6,2.9,3.5c0,2.4-2,3.9-4.5,3.9C70.3,364.4,68.9,363.5,68,362.5z"/>
	</g>
	<g class="st4">
		<path class="st1" d="M82.1,330.4h3.1v-10h-2.5v-1.1c1.2-0.2,2.1-0.5,2.9-1h1.3v12.1h2.8v1.4h-7.6V330.4z"/>
		<path class="st1" d="M92,330.7l1-1.1c0.5,0.7,1.4,1.1,2.2,1.1c1.9,0,3.5-1.5,3.6-5.8c-0.9,1.1-2.1,1.7-3.2,1.7
			c-2.4,0-3.9-1.4-3.9-4.2c0-2.6,1.8-4.3,4-4.3c2.7,0,4.7,2.2,4.7,6.5c0,5.4-2.5,7.5-5.1,7.5C93.8,332.1,92.8,331.5,92,330.7z
			 M95.9,325.3c0.9,0,2-0.6,2.8-1.8c-0.2-2.6-1.3-4-3-4c-1.3,0-2.4,1.2-2.4,3C93.4,324.2,94.2,325.3,95.9,325.3z"/>
	</g>
	<g>
		<g class="st4">
			<path d="M0.5,340.4c4.1-4.1,6.4-6.5,6.4-8.7c0-1.5-0.8-2.6-2.6-2.6c-1.1,0-2.1,0.7-2.9,1.6l-1-1c1.1-1.2,2.3-2.1,4.1-2.1
				c2.5,0,4,1.6,4,4c0,2.5-2.3,5.1-5.5,8.5c0.7-0.1,1.6-0.1,2.3-0.1h3.9v1.5H0.5V340.4z"/>
			<path d="M11.1,334.6c0-4.5,1.7-7,4.4-7s4.3,2.5,4.3,7c0,4.5-1.6,7.1-4.3,7.1S11.1,339.1,11.1,334.6z M18.1,334.6
				c0-4-1.1-5.6-2.6-5.6c-1.6,0-2.7,1.6-2.7,5.6c0,4,1.1,5.7,2.7,5.7C17,340.3,18.1,338.6,18.1,334.6z"/>
		</g>
	</g>
	<g>
		<g class="st4">
			<path d="M0.2,286.1l0.9-1.1c0.8,0.9,1.9,1.6,3.5,1.6c1.7,0,2.8-1,2.8-2.5c0-1.6-1.1-2.7-4.3-2.7V280c2.9,0,3.9-1.1,3.9-2.5
				c0-1.3-0.9-2.1-2.4-2.1c-1.1,0-2.1,0.6-2.9,1.4l-0.9-1.1c1-1,2.3-1.7,3.9-1.7c2.3,0,4,1.2,4,3.4c0,1.6-1,2.7-2.5,3.2v0.1
				c1.6,0.4,2.9,1.6,2.9,3.5c0,2.4-2,3.9-4.5,3.9C2.4,288,1.1,287.1,0.2,286.1z"/>
			<path d="M11.1,280.9c0-4.5,1.7-7,4.4-7s4.3,2.5,4.3,7c0,4.5-1.6,7.1-4.3,7.1S11.1,285.5,11.1,280.9z M18.1,280.9
				c0-4-1.1-5.6-2.6-5.6c-1.6,0-2.7,1.6-2.7,5.6c0,4,1.1,5.7,2.7,5.7C17,286.6,18.1,284.9,18.1,280.9z"/>
		</g>
	</g>
	<g>
		<g class="st4">
			<path d="M1.3,393.6h3.1v-10H1.9v-1.1c1.2-0.2,2.1-0.5,2.9-1h1.3v12.1h2.8v1.4H1.3V393.6z"/>
			<path d="M11.1,388.3c0-4.5,1.7-7,4.4-7s4.3,2.5,4.3,7c0,4.5-1.6,7.1-4.3,7.1S11.1,392.8,11.1,388.3z M18.1,388.3
				c0-4-1.1-5.6-2.6-5.6c-1.6,0-2.7,1.6-2.7,5.6c0,4,1.1,5.7,2.7,5.7C17,393.9,18.1,392.2,18.1,388.3z"/>
		</g>
	</g>
	<g>
		<g class="st4">
			<path d="M11.1,441.9c0-4.5,1.7-7,4.4-7s4.3,2.5,4.3,7c0,4.5-1.6,7.1-4.3,7.1S11.1,446.5,11.1,441.9z M18.1,441.9
				c0-4-1.1-5.6-2.6-5.6c-1.6,0-2.7,1.6-2.7,5.6c0,4,1.1,5.7,2.7,5.7C17,447.6,18.1,445.9,18.1,441.9z"/>
		</g>
	</g>
	<g class="st4">
		<path class="st0" d="M144.3,424.9c4.1-4.1,6.4-6.5,6.4-8.7c0-1.5-0.8-2.6-2.6-2.6c-1.1,0-2.1,0.7-2.9,1.6l-1-1
			c1.1-1.2,2.3-2.1,4.1-2.1c2.5,0,4,1.6,4,4c0,2.5-2.3,5.1-5.5,8.5c0.7-0.1,1.6-0.1,2.3-0.1h3.9v1.5h-8.8V424.9z"/>
	</g>
	<g class="st4">
		<path class="st1" d="M168,424.8c4.1-4.1,6.4-6.5,6.4-8.7c0-1.5-0.8-2.6-2.6-2.6c-1.1,0-2.1,0.7-2.9,1.6l-1-1
			c1.1-1.2,2.3-2.1,4.1-2.1c2.5,0,4,1.6,4,4c0,2.5-2.3,5.1-5.5,8.5c0.7-0.1,1.6-0.1,2.3-0.1h3.9v1.5H168V424.8z"/>
	</g>
	<g class="st4">
		<path class="st0" d="M225.4,421.4c4.1-4.1,6.4-6.5,6.4-8.7c0-1.5-0.8-2.6-2.6-2.6c-1.1,0-2.1,0.7-2.9,1.6l-1-1
			c1.1-1.2,2.3-2.1,4.1-2.1c2.5,0,4,1.6,4,4c0,2.5-2.3,5.1-5.5,8.5c0.7-0.1,1.6-0.1,2.3-0.1h3.9v1.5h-8.8V421.4z"/>
	</g>
	<g class="st4">
		<path class="st1" d="M250.4,427.5h3.1v-10H251v-1.1c1.2-0.2,2.1-0.5,2.9-1h1.3v12.1h2.8v1.4h-7.6V427.5z"/>
	</g>
	<g>
		<rect x="300.2" y="439.9" class="st0" width="18.7" height="3.7"/>
		<rect x="323.7" y="439.7" class="st1" width="18.7" height="3.9"/>
	</g>
	<g class="st4">
		<path class="st0" d="M305.3,427h3.1v-10h-2.5v-1.1c1.2-0.2,2.1-0.5,2.9-1h1.3V427h2.8v1.4h-7.6V427z"/>
	</g>
	<g class="st4">
		<path class="st1" d="M329.4,427.5h3.1v-10h-2.5v-1.1c1.2-0.2,2.1-0.5,2.9-1h1.3v12.1h2.8v1.4h-7.6V427.5z"/>
	</g>
	<g>
		<rect x="381.4" y="422.9" class="st0" width="18.7" height="20.7"/>
		<rect x="404.9" y="416.8" class="st1" width="18.7" height="26.9"/>
	</g>
	<g class="st4">
		<path class="st0" d="M391.3,407.7h-6.1v-1.1l5.8-8.7h1.9v8.4h1.8v1.4h-1.8v3.7h-1.6V407.7z M391.3,406.3v-4c0-0.7,0.1-1.9,0.1-2.6
			h-0.1c-0.3,0.6-0.7,1.2-1.1,1.9l-3.2,4.7H391.3z"/>
	</g>
	<g class="st4">
		<path class="st1" d="M409.5,404.4l0.9-1.1c0.8,0.8,1.8,1.5,3.4,1.5c1.6,0,3-1.2,3-3.1s-1.1-3-2.9-3c-0.9,0-1.5,0.3-2.3,0.8
			l-0.9-0.6l0.4-6.5h6.8v1.5h-5.3l-0.3,4c0.6-0.3,1.2-0.6,2.1-0.6c2.3,0,4.2,1.3,4.2,4.3c0,2.9-2.2,4.6-4.6,4.6
			C411.7,406.3,410.4,405.4,409.5,404.4z"/>
	</g>
	<g>
		<rect x="462.9" y="422.9" class="st0" width="18.7" height="20.7"/>
		<rect x="486.4" y="416.8" class="st1" width="18.7" height="26.9"/>
	</g>
	<g class="st4">
		<path class="st0" d="M472.8,407.7h-6.1v-1.1l5.8-8.7h1.9v8.4h1.8v1.4h-1.8v3.7h-1.6V407.7z M472.8,406.3v-4c0-0.7,0.1-1.9,0.1-2.6
			h-0.1c-0.3,0.6-0.7,1.2-1.1,1.9l-3.2,4.7H472.8z"/>
	</g>
	<g class="st4">
		<path class="st1" d="M491,404.4l0.9-1.1c0.8,0.8,1.8,1.5,3.4,1.5c1.6,0,3-1.2,3-3.1s-1.1-3-2.9-3c-0.9,0-1.5,0.3-2.3,0.8l-0.9-0.6
			l0.4-6.5h6.8v1.5h-5.3l-0.3,4c0.6-0.3,1.2-0.6,2.1-0.6c2.3,0,4.2,1.3,4.2,4.3c0,2.9-2.2,4.6-4.6,4.6
			C493.3,406.3,491.9,405.4,491,404.4z"/>
	</g>
	<g class="st4">
		<path class="st0" d="M549.5,432.2c0-4.5,1.7-7,4.4-7s4.3,2.5,4.3,7c0,4.5-1.6,7.1-4.3,7.1S549.5,436.8,549.5,432.2z M556.5,432.2
			c0-4-1.1-5.6-2.6-5.6c-1.6,0-2.7,1.6-2.7,5.6c0,4,1.1,5.7,2.7,5.7C555.4,437.9,556.5,436.2,556.5,432.2z"/>
	</g>
	<g class="st4">
		<path class="st1" d="M573.6,432.2c0-4.5,1.7-7,4.4-7c2.7,0,4.3,2.5,4.3,7c0,4.5-1.6,7.1-4.3,7.1
			C575.3,439.3,573.6,436.8,573.6,432.2z M580.6,432.2c0-4-1.1-5.6-2.6-5.6c-1.6,0-2.7,1.6-2.7,5.6c0,4,1.1,5.7,2.7,5.7
			C579.5,437.9,580.6,436.2,580.6,432.2z"/>
	</g>
	<g class="st4">
		<path class="st0" d="M630.6,394.2c0-5.5,2.5-7.5,5.2-7.5c1.4,0,2.5,0.6,3.2,1.4l-1,1.1c-0.6-0.7-1.4-1.1-2.2-1.1
			c-1.9,0-3.5,1.5-3.6,5.8c0.9-1,2.1-1.7,3.2-1.7c2.3,0,3.9,1.4,3.9,4.2c0,2.6-1.8,4.4-4,4.4C632.6,400.7,630.6,398.5,630.6,394.2z
			 M632.2,395.2c0.2,2.6,1.3,4.1,3,4.1c1.3,0,2.4-1.2,2.4-3c0-1.7-0.8-2.9-2.5-2.9C634.2,393.4,633.2,393.9,632.2,395.2z"/>
	</g>
	<g class="st4">
		<path class="st1" d="M650.1,354.7h3.1v-10h-2.5v-1.1c1.2-0.2,2.1-0.5,2.9-1h1.3v12.1h2.8v1.4h-7.6V354.7z"/>
		<path class="st1" d="M659.5,354.5l0.9-1.1c0.8,0.8,1.8,1.5,3.4,1.5c1.6,0,3-1.2,3-3.1s-1.1-3-2.9-3c-0.9,0-1.5,0.3-2.3,0.8
			l-0.9-0.6l0.4-6.5h6.8v1.5h-5.3l-0.3,4c0.6-0.3,1.2-0.6,2.1-0.6c2.3,0,4.2,1.3,4.2,4.3c0,2.9-2.2,4.6-4.6,4.6
			C661.7,356.4,660.4,355.5,659.5,354.5z"/>
	</g>
	<g class="st4">
		<path class="st0" d="M708,373.8h3.1v-10h-2.5v-1.1c1.2-0.2,2.1-0.5,2.9-1h1.3v12.1h2.8v1.4H708V373.8z"/>
		<path class="st0" d="M718.6,373.8h3.1v-10h-2.5v-1.1c1.2-0.2,2.1-0.5,2.9-1h1.3v12.1h2.8v1.4h-7.6V373.8z"/>
	</g>
	<g class="st4">
		<path class="st1" d="M731.3,326.9c4.1-4.1,6.4-6.5,6.4-8.7c0-1.5-0.8-2.6-2.6-2.6c-1.1,0-2.1,0.7-2.9,1.6l-1-1
			c1.1-1.2,2.3-2.1,4.1-2.1c2.5,0,4,1.6,4,4c0,2.5-2.3,5.1-5.5,8.5c0.7-0.1,1.6-0.1,2.3-0.1h3.9v1.5h-8.8V326.9z"/>
		<path class="st1" d="M741.9,321.1c0-4.5,1.7-7,4.4-7c2.7,0,4.3,2.5,4.3,7c0,4.5-1.6,7.1-4.3,7.1
			C743.6,328.1,741.9,325.6,741.9,321.1z M748.9,321.1c0-4-1.1-5.6-2.6-5.6c-1.6,0-2.7,1.6-2.7,5.6c0,4,1.1,5.7,2.7,5.7
			C747.9,326.7,748.9,325,748.9,321.1z"/>
	</g>
	<g class="st4">
		<path class="st0" d="M788.2,327.2c4.1-4.1,6.4-6.5,6.4-8.7c0-1.5-0.8-2.6-2.6-2.6c-1.1,0-2.1,0.7-2.9,1.6l-1-1
			c1.1-1.2,2.3-2.1,4.1-2.1c2.5,0,4,1.6,4,4c0,2.5-2.3,5.1-5.5,8.5c0.7-0.1,1.6-0.1,2.3-0.1h3.9v1.5h-8.8V327.2z"/>
		<path class="st0" d="M798.8,321.4c0-4.5,1.7-7,4.4-7c2.7,0,4.3,2.5,4.3,7c0,4.5-1.6,7.1-4.3,7.1
			C800.5,328.5,798.8,326,798.8,321.4z M805.8,321.4c0-4-1.1-5.6-2.6-5.6c-1.6,0-2.7,1.6-2.7,5.6c0,4,1.1,5.7,2.7,5.7
			C804.7,327.1,805.8,325.4,805.8,321.4z"/>
	</g>
	<g class="st4">
		<path class="st1" d="M812.3,327.2c4.1-4.1,6.4-6.5,6.4-8.7c0-1.5-0.8-2.6-2.6-2.6c-1.1,0-2.1,0.7-2.9,1.6l-1-1
			c1.1-1.2,2.3-2.1,4.1-2.1c2.5,0,4,1.6,4,4c0,2.5-2.3,5.1-5.5,8.5c0.7-0.1,1.6-0.1,2.3-0.1h3.9v1.5h-8.8V327.2z"/>
		<path class="st1" d="M822.9,321.4c0-4.5,1.7-7,4.4-7c2.7,0,4.3,2.5,4.3,7c0,4.5-1.6,7.1-4.3,7.1
			C824.6,328.5,822.9,326,822.9,321.4z M829.9,321.4c0-4-1.1-5.6-2.6-5.6c-1.6,0-2.7,1.6-2.7,5.6c0,4,1.1,5.7,2.7,5.7
			C828.9,327.1,829.9,325.4,829.9,321.4z"/>
	</g>
	<g>
		<g class="st4">
			<path d="M55.1,480.8c4.7-4.7,7.4-7.5,7.4-10.1c0-1.8-1-3.1-3-3.1c-1.3,0-2.5,0.8-3.3,1.9l-1.2-1.1c1.3-1.4,2.7-2.4,4.8-2.4
				c2.9,0,4.7,1.8,4.7,4.6c0,2.9-2.7,5.9-6.4,9.8c0.8-0.1,1.8-0.2,2.6-0.2h4.6v1.7H55.1V480.8z"/>
			<path d="M67.5,474.1c0-5.3,1.9-8.1,5-8.1c3.1,0,5,2.8,5,8.1c0,5.3-1.9,8.2-5,8.2C69.4,482.3,67.5,479.4,67.5,474.1z M75.6,474.1
				c0-4.6-1.2-6.5-3.1-6.5c-1.8,0-3.1,1.9-3.1,6.5s1.2,6.6,3.1,6.6C74.3,480.7,75.6,478.7,75.6,474.1z"/>
			<path d="M80.5,480.3h3.6v-11.6h-2.9v-1.3c1.4-0.2,2.5-0.6,3.3-1.1h1.5v14h3.2v1.7h-8.8V480.3z"/>
			<path d="M92.7,480.3h3.6v-11.6h-2.9v-1.3c1.4-0.2,2.5-0.6,3.3-1.1h1.5v14h3.2v1.7h-8.8V480.3z"/>
		</g>
	</g>
	<g>
		<g class="st4">
			<path d="M136.4,480.8c4.7-4.7,7.4-7.5,7.4-10.1c0-1.8-1-3.1-3-3.1c-1.3,0-2.5,0.8-3.3,1.9l-1.2-1.1c1.3-1.4,2.7-2.4,4.8-2.4
				c2.9,0,4.7,1.8,4.7,4.6c0,2.9-2.7,5.9-6.4,9.8c0.8-0.1,1.8-0.2,2.6-0.2h4.6v1.7h-10.1V480.8z"/>
			<path d="M148.7,474.1c0-5.3,1.9-8.1,5-8.1c3.1,0,5,2.8,5,8.1c0,5.3-1.9,8.2-5,8.2C150.6,482.3,148.7,479.4,148.7,474.1z
				 M156.8,474.1c0-4.6-1.2-6.5-3.1-6.5c-1.8,0-3.1,1.9-3.1,6.5s1.2,6.6,3.1,6.6C155.6,480.7,156.8,478.7,156.8,474.1z"/>
			<path d="M161.8,480.3h3.6v-11.6h-2.9v-1.3c1.4-0.2,2.5-0.6,3.3-1.1h1.5v14h3.2v1.7h-8.8V480.3z"/>
			<path d="M173,480.8c4.7-4.7,7.4-7.5,7.4-10.1c0-1.8-1-3.1-3-3.1c-1.3,0-2.5,0.8-3.3,1.9l-1.2-1.1c1.3-1.4,2.7-2.4,4.8-2.4
				c2.9,0,4.7,1.8,4.7,4.6c0,2.9-2.7,5.9-6.4,9.8c0.8-0.1,1.8-0.2,2.6-0.2h4.6v1.7H173V480.8z"/>
		</g>
	</g>
	<g>
		<g class="st4">
			<path d="M217.6,480.8c4.7-4.7,7.4-7.5,7.4-10.1c0-1.8-1-3.1-3-3.1c-1.3,0-2.5,0.8-3.3,1.9l-1.2-1.1c1.3-1.4,2.7-2.4,4.8-2.4
				c2.9,0,4.7,1.8,4.7,4.6c0,2.9-2.7,5.9-6.4,9.8c0.8-0.1,1.8-0.2,2.6-0.2h4.6v1.7h-10.1V480.8z"/>
			<path d="M229.9,474.1c0-5.3,1.9-8.1,5-8.1s5,2.8,5,8.1c0,5.3-1.9,8.2-5,8.2S229.9,479.4,229.9,474.1z M238,474.1
				c0-4.6-1.2-6.5-3.1-6.5c-1.8,0-3.1,1.9-3.1,6.5s1.2,6.6,3.1,6.6C236.8,480.7,238,478.7,238,474.1z"/>
			<path d="M243,480.3h3.6v-11.6h-2.9v-1.3c1.4-0.2,2.5-0.6,3.3-1.1h1.5v14h3.2v1.7H243V480.3z"/>
			<path d="M253.9,480.1l1-1.3c0.9,1,2.2,1.8,4,1.8c1.9,0,3.3-1.1,3.3-2.9c0-1.9-1.3-3.1-5-3.1v-1.5c3.3,0,4.5-1.3,4.5-2.9
				c0-1.5-1.1-2.5-2.7-2.5c-1.3,0-2.4,0.7-3.3,1.6l-1.1-1.3c1.2-1.1,2.6-2,4.5-2c2.7,0,4.7,1.4,4.7,4c0,1.9-1.2,3.1-2.9,3.7v0.1
				c1.9,0.5,3.4,1.8,3.4,4c0,2.8-2.3,4.5-5.2,4.5C256.6,482.3,255,481.2,253.9,480.1z"/>
		</g>
	</g>
	<g>
		<g class="st4">
			<path d="M298.9,480.8c4.7-4.7,7.4-7.5,7.4-10.1c0-1.8-1-3.1-3-3.1c-1.3,0-2.5,0.8-3.3,1.9l-1.2-1.1c1.3-1.4,2.7-2.4,4.8-2.4
				c2.9,0,4.7,1.8,4.7,4.6c0,2.9-2.7,5.9-6.4,9.8c0.8-0.1,1.8-0.2,2.6-0.2h4.6v1.7h-10.1V480.8z"/>
			<path d="M311.2,474.1c0-5.3,1.9-8.1,5-8.1s5,2.8,5,8.1c0,5.3-1.9,8.2-5,8.2S311.2,479.4,311.2,474.1z M319.3,474.1
				c0-4.6-1.2-6.5-3.1-6.5c-1.8,0-3.1,1.9-3.1,6.5s1.2,6.6,3.1,6.6C318,480.7,319.3,478.7,319.3,474.1z"/>
			<path d="M324.3,480.3h3.6v-11.6H325v-1.3c1.4-0.2,2.5-0.6,3.3-1.1h1.5v14h3.2v1.7h-8.8V480.3z"/>
			<path d="M342,477.7h-7v-1.3l6.7-10h2.2v9.7h2.1v1.6h-2.1v4.3H342V477.7z M342,476.1v-4.6c0-0.8,0.1-2.2,0.1-3H342
				c-0.4,0.7-0.8,1.4-1.3,2.2l-3.7,5.4H342z"/>
		</g>
	</g>
	<g>
		<g class="st4">
			<path d="M380.1,480.8c4.7-4.7,7.4-7.5,7.4-10.1c0-1.8-1-3.1-3-3.1c-1.3,0-2.5,0.8-3.3,1.9l-1.2-1.1c1.3-1.4,2.7-2.4,4.8-2.4
				c2.9,0,4.7,1.8,4.7,4.6c0,2.9-2.7,5.9-6.4,9.8c0.8-0.1,1.8-0.2,2.6-0.2h4.6v1.7h-10.1V480.8z"/>
			<path d="M392.4,474.1c0-5.3,1.9-8.1,5-8.1s5,2.8,5,8.1c0,5.3-1.9,8.2-5,8.2S392.4,479.4,392.4,474.1z M400.5,474.1
				c0-4.6-1.2-6.5-3.1-6.5c-1.8,0-3.1,1.9-3.1,6.5s1.2,6.6,3.1,6.6C399.3,480.7,400.5,478.7,400.5,474.1z"/>
			<path d="M405.5,480.3h3.6v-11.6h-2.9v-1.3c1.4-0.2,2.5-0.6,3.3-1.1h1.5v14h3.2v1.7h-8.8V480.3z"/>
			<path d="M416.4,480.2l1-1.3c0.9,0.9,2.1,1.8,4,1.8c1.9,0,3.4-1.4,3.4-3.6c0-2.2-1.3-3.5-3.3-3.5c-1.1,0-1.8,0.4-2.7,1l-1.1-0.7
				l0.5-7.5h7.9v1.7h-6.1l-0.4,4.7c0.7-0.4,1.4-0.7,2.4-0.7c2.7,0,4.9,1.5,4.9,4.9s-2.6,5.3-5.3,5.3
				C419,482.3,417.5,481.2,416.4,480.2z"/>
		</g>
	</g>
	<g>
		<g class="st4">
			<path d="M461.3,480.8c4.7-4.7,7.4-7.5,7.4-10.1c0-1.8-1-3.1-3-3.1c-1.3,0-2.5,0.8-3.3,1.9l-1.2-1.1c1.3-1.4,2.7-2.4,4.8-2.4
				c2.9,0,4.7,1.8,4.7,4.6c0,2.9-2.7,5.9-6.4,9.8c0.8-0.1,1.8-0.2,2.6-0.2h4.6v1.7h-10.1V480.8z"/>
			<path d="M473.7,474.1c0-5.3,1.9-8.1,5-8.1c3.1,0,5,2.8,5,8.1c0,5.3-1.9,8.2-5,8.2C475.6,482.3,473.7,479.4,473.7,474.1z
				 M481.8,474.1c0-4.6-1.2-6.5-3.1-6.5c-1.8,0-3.1,1.9-3.1,6.5s1.2,6.6,3.1,6.6C480.5,480.7,481.8,478.7,481.8,474.1z"/>
			<path d="M486.7,480.3h3.6v-11.6h-2.9v-1.3c1.4-0.2,2.5-0.6,3.3-1.1h1.5v14h3.2v1.7h-8.8V480.3z"/>
			<path d="M498.2,474.8c0-6.3,2.8-8.7,6-8.7c1.7,0,2.9,0.7,3.8,1.7l-1.1,1.3c-0.6-0.8-1.6-1.2-2.6-1.2c-2.2,0-4.1,1.7-4.2,6.7
				c1-1.2,2.4-2,3.7-2c2.7,0,4.5,1.6,4.5,4.8c0,3-2.1,5-4.6,5C500.5,482.3,498.2,479.8,498.2,474.8z M500.1,476
				c0.3,3.1,1.5,4.7,3.5,4.7c1.6,0,2.8-1.4,2.8-3.5c0-2-1-3.3-2.9-3.3C502.4,473.9,501.2,474.5,500.1,476z"/>
		</g>
	</g>
	<g>
		<g class="st4">
			<path d="M542.6,480.8c4.7-4.7,7.4-7.5,7.4-10.1c0-1.8-1-3.1-3-3.1c-1.3,0-2.5,0.8-3.3,1.9l-1.2-1.1c1.3-1.4,2.7-2.4,4.8-2.4
				c2.9,0,4.7,1.8,4.7,4.6c0,2.9-2.7,5.9-6.4,9.8c0.8-0.1,1.8-0.2,2.6-0.2h4.6v1.7h-10.1V480.8z"/>
			<path d="M554.9,474.1c0-5.3,1.9-8.1,5-8.1c3.1,0,5,2.8,5,8.1c0,5.3-1.9,8.2-5,8.2C556.8,482.3,554.9,479.4,554.9,474.1z
				 M563,474.1c0-4.6-1.2-6.5-3.1-6.5c-1.8,0-3.1,1.9-3.1,6.5s1.2,6.6,3.1,6.6C561.8,480.7,563,478.7,563,474.1z"/>
			<path d="M568,480.3h3.6v-11.6h-2.9v-1.3c1.4-0.2,2.5-0.6,3.3-1.1h1.5v14h3.2v1.7H568V480.3z"/>
			<path d="M587.1,468h-7.8v-1.7h10.1v1.2c-3.7,4.8-4.5,8.3-4.7,14.5h-2.1C582.9,476.1,584.1,472.3,587.1,468z"/>
		</g>
	</g>
	<g>
		<g class="st4">
			<path d="M623.8,480.8c4.7-4.7,7.4-7.5,7.4-10.1c0-1.8-1-3.1-3-3.1c-1.3,0-2.5,0.8-3.3,1.9l-1.2-1.1c1.3-1.4,2.7-2.4,4.8-2.4
				c2.9,0,4.7,1.8,4.7,4.6c0,2.9-2.7,5.9-6.4,9.8c0.8-0.1,1.8-0.2,2.6-0.2h4.6v1.7h-10.1V480.8z"/>
			<path d="M636.1,474.1c0-5.3,1.9-8.1,5-8.1c3.1,0,5,2.8,5,8.1c0,5.3-1.9,8.2-5,8.2C638.1,482.3,636.1,479.4,636.1,474.1z
				 M644.2,474.1c0-4.6-1.2-6.5-3.1-6.5c-1.8,0-3.1,1.9-3.1,6.5s1.2,6.6,3.1,6.6C643,480.7,644.2,478.7,644.2,474.1z"/>
			<path d="M649.2,480.3h3.6v-11.6h-2.9v-1.3c1.4-0.2,2.5-0.6,3.3-1.1h1.5v14h3.2v1.7h-8.8V480.3z"/>
			<path d="M660.5,478c0-2,1.5-3.5,3-4.2v-0.1c-1.2-0.8-2.2-2-2.2-3.6c0-2.4,1.9-4,4.4-4c2.8,0,4.4,1.7,4.4,4.2
				c0,1.7-1.2,3.1-2.2,3.8v0.1c1.4,0.8,2.7,1.9,2.7,4c0,2.4-2,4.2-5.1,4.2C662.7,482.3,660.5,480.5,660.5,478z M668.8,478.1
				c0-2-2-2.8-4.3-3.7c-1.3,0.8-2.2,2-2.2,3.4c0,1.7,1.4,3,3.4,3C667.5,480.8,668.8,479.7,668.8,478.1z M668.4,470.3
				c0-1.5-1-2.8-2.7-2.8c-1.5,0-2.6,1-2.6,2.5c0,1.9,1.7,2.7,3.6,3.4C667.8,472.5,668.4,471.5,668.4,470.3z"/>
		</g>
	</g>
	<g>
		<g class="st4">
			<path d="M705.1,480.8c4.7-4.7,7.4-7.5,7.4-10.1c0-1.8-1-3.1-3-3.1c-1.3,0-2.5,0.8-3.3,1.9l-1.2-1.1c1.3-1.4,2.7-2.4,4.8-2.4
				c2.9,0,4.7,1.8,4.7,4.6c0,2.9-2.7,5.9-6.4,9.8c0.8-0.1,1.8-0.2,2.6-0.2h4.6v1.7h-10.1V480.8z"/>
			<path d="M717.4,474.1c0-5.3,1.9-8.1,5-8.1c3.1,0,5,2.8,5,8.1c0,5.3-1.9,8.2-5,8.2C719.3,482.3,717.4,479.4,717.4,474.1z
				 M725.5,474.1c0-4.6-1.2-6.5-3.1-6.5c-1.8,0-3.1,1.9-3.1,6.5s1.2,6.6,3.1,6.6C724.3,480.7,725.5,478.7,725.5,474.1z"/>
			<path d="M730.5,480.3h3.6v-11.6h-2.9v-1.3c1.4-0.2,2.5-0.6,3.3-1.1h1.5v14h3.2v1.7h-8.8V480.3z"/>
			<path d="M742,480.6l1.1-1.3c0.6,0.8,1.6,1.2,2.6,1.2c2.2,0,4.1-1.7,4.2-6.7c-1,1.3-2.4,2-3.7,2c-2.7,0-4.5-1.7-4.5-4.9
				c0-3,2.1-5,4.6-5c3.1,0,5.4,2.5,5.4,7.5c0,6.3-2.8,8.7-6,8.7C744.1,482.3,742.9,481.6,742,480.6z M746.5,474.4
				c1,0,2.3-0.6,3.3-2.1c-0.3-3-1.5-4.7-3.5-4.7c-1.5,0-2.7,1.4-2.7,3.4C743.6,473.1,744.6,474.4,746.5,474.4z"/>
		</g>
	</g>
	<g>
		<g class="st4">
			<path d="M786.3,480.8c4.7-4.7,7.4-7.5,7.4-10.1c0-1.8-1-3.1-3-3.1c-1.3,0-2.5,0.8-3.3,1.9l-1.2-1.1c1.3-1.4,2.7-2.4,4.8-2.4
				c2.9,0,4.7,1.8,4.7,4.6c0,2.9-2.7,5.9-6.4,9.8c0.8-0.1,1.8-0.2,2.6-0.2h4.6v1.7h-10.1V480.8z"/>
			<path d="M798.6,474.1c0-5.3,1.9-8.1,5-8.1s5,2.8,5,8.1c0,5.3-1.9,8.2-5,8.2S798.6,479.4,798.6,474.1z M806.7,474.1
				c0-4.6-1.2-6.5-3.1-6.5c-1.8,0-3.1,1.9-3.1,6.5s1.2,6.6,3.1,6.6C805.5,480.7,806.7,478.7,806.7,474.1z"/>
			<path d="M810.7,480.8c4.7-4.7,7.4-7.5,7.4-10.1c0-1.8-1-3.1-3-3.1c-1.3,0-2.5,0.8-3.3,1.9l-1.2-1.1c1.3-1.4,2.7-2.4,4.8-2.4
				c2.9,0,4.7,1.8,4.7,4.6c0,2.9-2.7,5.9-6.4,9.8c0.8-0.1,1.8-0.2,2.6-0.2h4.6v1.7h-10.1V480.8z"/>
			<path d="M823.1,474.1c0-5.3,1.9-8.1,5-8.1c3.1,0,5,2.8,5,8.1c0,5.3-1.9,8.2-5,8.2C825,482.3,823.1,479.4,823.1,474.1z
				 M831.2,474.1c0-4.6-1.2-6.5-3.1-6.5c-1.8,0-3.1,1.9-3.1,6.5s1.2,6.6,3.1,6.6C829.9,480.7,831.2,478.7,831.2,474.1z"/>
		</g>
	</g>
</g>
</svg>
